<svg width="28" height="28" viewBox="0 0 28 28" fill="none"
    xmlns="http://www.w3.org/2000/svg">
    <g clip-path="url(#clip0_7615_7930)">
        <path d="M14 28C21.732 28 28 21.732 28 14C28 6.26801 21.732 0 14 0C6.26801 0 0 6.26801 0 14C0 21.732 6.26801 28 14 28Z" fill="#FFFCE3"/>
        <path d="M16.752 20.8236H11.8866C9.80419 20.8236 8.99768 20.0171 8.99768 17.9347V13.0692C8.99768 12.818 9.20261 12.6131 9.45382 12.6131H19.1914C19.4426 12.6131 19.6475 12.818 19.6475 13.0692V17.9347C19.6409 20.0105 18.8344 20.8236 16.752 20.8236Z" fill="#E24D3D"/>
        <path d="M14.2201 10.6299H10.3397C10.1942 10.6299 10.0488 10.5638 9.95623 10.458C9.52654 9.98866 9.53976 9.26148 9.98929 8.81195L10.9875 7.81374C11.4503 7.35099 12.2171 7.35099 12.6798 7.81374L14.5903 9.72423C14.7358 9.86966 14.7887 10.101 14.7027 10.2994C14.63 10.5043 14.4383 10.6299 14.2201 10.6299Z" fill="#FFC900"/>
        <path d="M18.0808 10.4778H14.7226C14.5375 10.4778 14.3722 10.3655 14.2995 10.2002C14.2268 10.0283 14.2664 9.8366 14.3986 9.70438L16.0513 8.05171C16.4546 7.64845 17.1156 7.64845 17.5189 8.05171L18.3849 8.91771C18.7749 9.30774 18.7948 9.93576 18.4179 10.339C18.332 10.4249 18.213 10.4778 18.0808 10.4778Z" fill="#FFC900"/>
        <path d="M19.6475 13.0626H8.99768V15.4954H19.6475V13.0626Z" fill="#FFC900"/>
        <path d="M18.7286 13.5188H9.60586C8.54153 13.5188 7.93335 12.9106 7.93335 11.8462V11.2381C7.93335 10.1737 8.54153 9.56555 9.60586 9.56555H18.7286C19.7599 9.56555 20.4011 10.2068 20.4011 11.2381V11.8462C20.4011 12.8841 19.7665 13.5188 18.7286 13.5188Z" fill="#E24D3D"/>
        <path d="M15.3853 20.8252L15.3853 9.5672H12.9525L12.9525 20.8252H15.3853Z" fill="#FFC900"/>
    </g>
    <defs>
        <clipPath id="clip0_7615_7930">
            <rect width="28" height="28" fill="white"/>
        </clipPath>
    </defs>
</svg>
