<svg width="24" height="24" viewBox="0 0 24 24" fill="none" xmlns="http://www.w3.org/2000/svg">
<g clip-path="url(#clip0_1127_29955)">
<path d="M12 24C18.6274 24 24 18.6274 24 12C24 5.37258 18.6274 0 12 0C5.37258 0 0 5.37258 0 12C0 18.6274 5.37258 24 12 24Z" fill="#E4F5F9"/>
<path d="M5.68666 14.8333V9.16C5.68666 8.66666 6.08666 8.26666 6.57999 8.26666C7.07333 8.26666 7.47333 8.66666 7.47333 9.16V14.8333C7.47333 15.3267 7.07333 15.7267 6.57999 15.7267C6.08666 15.7333 5.68666 15.3267 5.68666 14.8333Z" fill="#498BEA"/>
<path d="M18.0867 12C18.0867 11.6467 17.7933 11.3533 17.44 11.3533H9.68666C9.33333 11.3533 9.03999 11.6467 9.03999 12C9.03999 12.3533 9.33333 12.6467 9.68666 12.6467H17.44C17.7933 12.6467 18.0867 12.3533 18.0867 12Z" fill="#498BEA"/>
<path d="M18.1267 12.3733C18.38 12.12 18.38 11.7133 18.1267 11.46L15.08 8.41333C14.8267 8.15999 14.42 8.15999 14.1667 8.41333C13.9133 8.66666 13.9133 9.07333 14.1667 9.32666L17.2133 12.3733C17.4667 12.6267 17.8733 12.6267 18.1267 12.3733Z" fill="#498BEA"/>
<path d="M18.1267 11.6266C17.8733 11.3733 17.4667 11.3733 17.2133 11.6266L14.1667 14.6733C13.9133 14.9266 13.9133 15.3333 14.1667 15.5866C14.42 15.84 14.8267 15.84 15.08 15.5866L18.1267 12.54C18.38 12.2866 18.38 11.8733 18.1267 11.6266Z" fill="#498BEA"/>
</g>
<defs>
<clipPath id="clip0_1127_29955">
<rect width="24" height="24" fill="white"/>
</clipPath>
</defs>
</svg>
