<svg width="24" height="24" viewBox="0 0 24 24" fill="none" xmlns="http://www.w3.org/2000/svg">
<g clip-path="url(#clip0_889_20177)">
<path d="M12 24C18.6274 24 24 18.6274 24 12C24 5.37258 18.6274 0 12 0C5.37258 0 0 5.37258 0 12C0 18.6274 5.37258 24 12 24Z" fill="#E8F7EF"/>
<path d="M10.1466 18.0466C7.73326 18.0466 7.17993 17.4933 7.17993 15.0799V8.91326C7.17993 6.49993 7.73326 5.94659 10.1466 5.94659H13.8466C16.2599 5.94659 16.8133 6.49993 16.8133 8.91326V15.0799C16.8133 17.4933 16.2599 18.0466 13.8466 18.0466H10.1466Z" fill="#2EE5A8"/>
<path d="M13.8533 6.53312C15.92 6.53312 16.2333 6.84645 16.2333 8.91312V15.0798C16.2333 17.1465 15.92 17.4598 13.8533 17.4598H10.1533C8.08663 17.4598 7.7733 17.1465 7.7733 15.0798V8.91312C7.7733 6.84645 8.08663 6.53312 10.1533 6.53312H13.8533ZM13.8533 5.36646H10.1533C7.43329 5.36646 6.60663 6.19312 6.60663 8.91312V15.0798C6.60663 17.7998 7.43329 18.6265 10.1533 18.6265H13.8533C16.5733 18.6265 17.4 17.7998 17.4 15.0798V8.91312C17.4 6.19312 16.5733 5.36646 13.8533 5.36646Z" fill="#2EE5A8"/>
<path d="M11.9999 16.8464C11.4999 16.8464 11.0933 16.4397 11.0933 15.9397C11.0933 15.4397 11.4999 15.033 11.9999 15.033C12.4999 15.033 12.9066 15.4397 12.9066 15.9397C12.9066 16.4397 12.4999 16.8464 11.9999 16.8464Z" fill="#CAFFE3"/>
<path d="M13.0533 8.89313C12.3466 8.89313 11.7733 9.46646 11.7733 10.1731C11.7733 10.8798 12.3466 11.4531 13.0533 11.4531C13.76 11.4531 14.3333 10.8798 14.3333 10.1731C14.3333 9.46646 13.7666 8.89313 13.0533 8.89313ZM13.0533 11.0065C12.6 11.0065 12.2266 10.6398 12.2266 10.1798C12.2266 9.72646 12.5933 9.35313 13.0533 9.35313C13.5066 9.35313 13.88 9.71979 13.88 10.1798C13.88 10.6331 13.5133 11.0065 13.0533 11.0065Z" fill="#CAFFE3"/>
<path d="M14.3867 11.4598C14.2334 11.4598 14.1134 11.3398 14.1134 11.1865V7.3398C14.1134 7.18647 14.2334 7.06647 14.3867 7.06647C14.5401 7.06647 14.6601 7.18647 14.6601 7.3398V11.1865C14.6601 11.3398 14.5334 11.4598 14.3867 11.4598Z" fill="#CAFFE3"/>
<path d="M15.0266 8.39316H13.7466C13.5933 8.39316 13.4733 8.27316 13.4733 8.11983C13.4733 7.9665 13.5933 7.8465 13.7466 7.8465H15.0266C15.1799 7.8465 15.2999 7.9665 15.2999 8.11983C15.2999 8.2665 15.1799 8.39316 15.0266 8.39316Z" fill="#CAFFE3"/>
<path d="M14.9999 12.6997H12.0666C11.8666 12.6997 11.6999 12.533 11.6999 12.333C11.6999 12.133 11.8666 11.9664 12.0666 11.9664H14.9999C15.1999 11.9664 15.3666 12.133 15.3666 12.333C15.3666 12.533 15.2066 12.6997 14.9999 12.6997Z" fill="#CAFFE3"/>
</g>
<defs>
<clipPath id="clip0_889_20177">
<rect width="24" height="24" fill="white"/>
</clipPath>
</defs>
</svg>
