<svg width="24" height="24" viewBox="0 0 24 24" fill="none" xmlns="http://www.w3.org/2000/svg">
<g clip-path="url(#clip0_889_20041)">
<path d="M12 24C18.6274 24 24 18.6274 24 12C24 5.37258 18.6274 0 12 0C5.37258 0 0 5.37258 0 12C0 18.6274 5.37258 24 12 24Z" fill="#D7F7D7"/>
<path d="M14.8333 18.3128H9.16001C8.66668 18.3128 8.26668 17.9128 8.26668 17.4195C8.26668 16.9262 8.66668 16.5262 9.16001 16.5262H14.8333C15.3267 16.5262 15.7267 16.9262 15.7267 17.4195C15.7333 17.9128 15.3267 18.3128 14.8333 18.3128Z" fill="#62D819"/>
<path d="M12 14.7328C11.6467 14.7328 11.3533 14.4395 11.3533 14.0862V6.33282C11.3533 5.97949 11.6467 5.68616 12 5.68616C12.3533 5.68616 12.6466 5.97949 12.6466 6.33282V14.0862C12.6466 14.4395 12.3533 14.7328 12 14.7328Z" fill="#62D819"/>
<path d="M12.3733 14.7727C12.12 15.026 11.7133 15.026 11.46 14.7727L8.41331 11.726C8.15998 11.4727 8.15998 11.066 8.41331 10.8127C8.66665 10.5593 9.07331 10.5593 9.32665 10.8127L12.3733 13.8593C12.6266 14.106 12.6266 14.5193 12.3733 14.7727Z" fill="#62D819"/>
<path d="M11.6267 14.7727C11.3733 14.5193 11.3733 14.1127 11.6267 13.8593L14.6733 10.8127C14.9267 10.5593 15.3333 10.5593 15.5867 10.8127C15.84 11.066 15.84 11.4727 15.5867 11.726L12.54 14.7727C12.2867 15.026 11.8733 15.026 11.6267 14.7727Z" fill="#62D819"/>
</g>
<defs>
<clipPath id="clip0_889_20041">
<rect width="24" height="24" fill="white"/>
</clipPath>
</defs>
</svg>
