<svg width="24" height="24" viewBox="0 0 24 24" fill="none" xmlns="http://www.w3.org/2000/svg">
<g clip-path="url(#clip0_889_20056)">
<path d="M12 24C18.6274 24 24 18.6274 24 12C24 5.37258 18.6274 0 12 0C5.37258 0 0 5.37258 0 12C0 18.6274 5.37258 24 12 24Z" fill="#D7F9F0"/>
<path d="M5.58662 9.86634C5.77329 8.53968 6.36662 7.35301 7.29329 6.41301C9.51995 4.19968 13.0266 4.07301 15.4066 6.01301V4.95968C15.4066 4.50634 15.7866 4.12634 16.24 4.12634C16.6933 4.12634 17.0733 4.50634 17.0733 4.95968V7.93301C17.0733 8.38634 16.6933 8.76634 16.24 8.76634H13.2666C12.8133 8.76634 12.4333 8.38634 12.4333 7.93301C12.4333 7.47968 12.8133 7.09968 13.2666 7.09968H14.1C12.3733 5.89968 9.99329 6.06634 8.45329 7.59968C7.78662 8.26634 7.35995 9.13301 7.21995 10.1063C7.16662 10.5197 6.80662 10.8197 6.39329 10.8197C6.34662 10.8197 6.31329 10.8197 6.27329 10.8063C5.84662 10.7463 5.51995 10.3263 5.58662 9.86634Z" fill="#2EE5A8"/>
<path d="M16.6999 17.593C15.5066 18.7863 13.9466 19.373 12.3932 19.373C11.0332 19.373 9.68657 18.893 8.57324 17.993V19.0397C8.57324 19.493 8.19324 19.873 7.7399 19.873C7.28657 19.873 6.90657 19.493 6.90657 19.0397V16.0663C6.90657 15.613 7.28657 15.233 7.7399 15.233H10.7132C11.1666 15.233 11.5466 15.613 11.5466 16.0663C11.5466 16.5197 11.1666 16.8997 10.7132 16.8997H9.8799C11.6066 18.0997 13.9866 17.933 15.5266 16.3997C16.1932 15.733 16.6199 14.8663 16.7599 13.893C16.8266 13.4397 17.2399 13.113 17.7066 13.1797C18.1599 13.2463 18.4732 13.6663 18.4199 14.1263C18.2132 15.4797 17.6266 16.6663 16.6999 17.593Z" fill="#2EE5A8"/>
<path d="M14.8333 12.893H9.16001C8.66668 12.893 8.26668 12.493 8.26668 11.9997C8.26668 11.5063 8.66668 11.1063 9.16001 11.1063H14.8333C15.3267 11.1063 15.7267 11.5063 15.7267 11.9997C15.7267 12.493 15.3267 12.893 14.8333 12.893Z" fill="#2EE5A8"/>
</g>
<defs>
<clipPath id="clip0_889_20056">
<rect width="24" height="24" fill="white"/>
</clipPath>
</defs>
</svg>
