<svg width="24" height="24" viewBox="0 0 24 24" fill="none" xmlns="http://www.w3.org/2000/svg">
<g clip-path="url(#clip0_889_20156)">
<path d="M12 24C18.6274 24 24 18.6274 24 12C24 5.37258 18.6274 0 12 0C5.37258 0 0 5.37258 0 12C0 18.6274 5.37258 24 12 24Z" fill="#FCF0F0"/>
<path d="M18.2933 14.02V16.0534L12.7 18.6334L6.01331 16.1134L5.33331 15.1467L5.70665 14.3867L6.74665 14.02L12.4533 15.6L18.2933 14.02Z" fill="#C897E8"/>
<path d="M16.7333 16.6735L14.9266 17.4135L12.76 18.3001L12.7466 18.3068C12.74 18.3068 12.7333 18.3135 12.7266 18.3135C12.7066 18.3201 12.6933 18.3268 12.6733 18.3335C12.6666 18.3335 12.6533 18.3401 12.6466 18.3401C12.6333 18.3468 12.62 18.3468 12.6 18.3535C12.5866 18.3535 12.5733 18.3601 12.5666 18.3601C12.5533 18.3601 12.54 18.3668 12.5266 18.3668C12.5133 18.3668 12.5 18.3668 12.4866 18.3668C12.4733 18.3668 12.46 18.3668 12.4466 18.3668C12.4266 18.3668 12.4 18.3668 12.38 18.3668C12.3733 18.3668 12.3733 18.3668 12.3666 18.3668C12.3466 18.3668 12.3266 18.3601 12.3066 18.3601C12.3 18.3601 12.2933 18.3601 12.2866 18.3601H12.28C12.2666 18.3601 12.2533 18.3535 12.2333 18.3468C12.2266 18.3468 12.22 18.3401 12.2133 18.3401C12.1933 18.3335 12.18 18.3268 12.16 18.3201C12.1533 18.3201 12.1466 18.3135 12.14 18.3135L6.13997 15.8535C5.7333 15.6868 5.5133 15.2201 5.6733 14.8068C5.8333 14.3868 6.29997 14.1801 6.7133 14.3468L12.0466 16.5335L12.1333 16.5668C12.3266 16.6468 12.5466 16.6468 12.74 16.5668L17.56 14.5868L18.5666 14.1735C18.6866 14.1268 18.6733 13.9868 18.5733 13.9268L13.0133 11.3801C12.6466 11.2135 12.2266 11.2135 11.86 11.3801L6.04664 14.0401C5.75997 14.1468 5.51997 14.3668 5.39997 14.6668C5.1733 15.2335 5.44664 15.8801 5.99997 16.1068L12 18.5668C12.0733 18.6001 12.1466 18.6201 12.22 18.6401C12.2266 18.6401 12.2266 18.6401 12.2333 18.6401C12.26 18.6468 12.2866 18.6468 12.3133 18.6535C12.32 18.6535 12.3266 18.6535 12.3333 18.6535C12.3666 18.6535 12.4 18.6601 12.4266 18.6601C12.5666 18.6601 12.7066 18.6335 12.8333 18.5801L18.3266 16.3268C18.5933 16.2201 18.64 16.1201 18.64 15.8735L16.7333 16.6735ZM6.3333 13.9868C6.32664 13.9868 6.31997 13.9868 6.3133 13.9868C6.31997 13.9868 6.32664 13.9868 6.3333 13.9868ZM6.23997 14.0001C6.2333 14.0001 6.2333 14.0001 6.22664 14.0001C6.2333 14.0001 6.2333 14.0001 6.23997 14.0001Z" fill="#BE79E2"/>
<path d="M12.0134 14.4735C9.4534 14.4735 7.52673 13.5402 7.52673 12.2935V9.04688L11.6201 11.0602C11.7534 11.1269 11.8934 11.1602 12.0401 11.1602C12.1867 11.1602 12.3267 11.1269 12.4601 11.0602L16.4934 9.08021V12.2935C16.5001 13.5402 14.5734 14.4735 12.0134 14.4735Z" fill="#333072"/>
<path fill-rule="evenodd" clip-rule="evenodd" d="M17.4467 8.78656C17.3334 9.46656 17.5334 10.0666 17.2667 10.6866C17.0734 11.1266 17.0801 11.6466 17.0267 12.1399C16.9934 12.4266 17.2201 12.5866 17.5934 12.5732C17.9401 12.5599 18.1401 12.3866 18.1067 12.1066C18.0734 11.8199 18.0467 11.5199 17.9667 11.2399C17.7467 10.4732 17.6667 9.69322 17.7201 8.90656C17.7201 8.87989 17.7134 8.84656 17.7201 8.82656C17.7734 8.73322 17.8067 8.61322 17.8867 8.55322" fill="#333072"/>
<path d="M11.7001 5.39996L5.44672 8.25329C5.28672 8.32663 5.28672 8.54663 5.44672 8.61996L11.7001 11.4733C11.8867 11.56 12.1067 11.56 12.2934 11.4733L18.5467 8.61996C18.7067 8.54663 18.7067 8.32663 18.5467 8.25329L12.3001 5.39996C12.1067 5.31329 11.8934 5.31329 11.7001 5.39996Z" fill="#6138E0"/>
<path d="M8.73993 9.17318C9.34008 9.17318 9.82659 8.8747 9.82659 8.50651C9.82659 8.13832 9.34008 7.83984 8.73993 7.83984C8.13978 7.83984 7.65326 8.13832 7.65326 8.50651C7.65326 8.8747 8.13978 9.17318 8.73993 9.17318Z" fill="#BE79E2"/>
<path d="M8.96667 10.2667L16.0467 7.10669L17.08 7.58002L10.12 10.7934L8.96667 10.2667Z" fill="#BE79E2"/>
</g>
<defs>
<clipPath id="clip0_889_20156">
<rect width="24" height="24" fill="white"/>
</clipPath>
</defs>
</svg>
