<svg width="24" height="24" viewBox="0 0 24 24" fill="none" xmlns="http://www.w3.org/2000/svg">
<g clip-path="url(#clip0_889_20242)">
<path d="M12 0C18.6267 0 24 5.37333 24 12C24 18.6267 18.6267 24 12 24C5.37333 24 0 18.6267 0 12C0 5.37333 5.37333 0 12 0Z" fill="#F0FBFC"/>
<path fill-rule="evenodd" clip-rule="evenodd" d="M12 6.12683C14.7133 6.12683 17.26 7.1935 19.18 9.1335C19.5133 9.4735 19.5133 10.0202 19.18 10.3602C18.8467 10.7002 18.3067 10.7002 17.9733 10.3602C16.38 8.74683 14.26 7.86016 12.0067 7.86016C9.75333 7.86016 7.63333 8.74683 6.03999 10.3602C5.87333 10.5268 5.65333 10.6135 5.43333 10.6135C5.21333 10.6135 4.99333 10.5268 4.82666 10.3602C4.49333 10.0202 4.49333 9.4735 4.82666 9.1335C6.73999 7.1935 9.28666 6.12683 12 6.12683ZM12 8.98683C10.04 8.98683 8.19999 9.76016 6.81999 11.1602C6.48666 11.5002 6.48666 12.0468 6.81999 12.3868C7.15333 12.7268 7.69333 12.7268 8.02666 12.3868C9.08666 11.3135 10.5 10.7202 12 10.7202C13.5 10.7202 14.9067 11.3135 15.9733 12.3868C16.14 12.5535 16.36 12.6402 16.58 12.6402C16.8 12.6402 17.02 12.5535 17.1867 12.3868C17.52 12.0468 17.52 11.5002 17.1867 11.1602C15.7933 9.7535 13.96 8.98683 12 8.98683ZM8.81333 13.1668C9.66666 12.3068 10.8 11.8335 12 11.8335C13.2067 11.8335 14.34 12.3068 15.1867 13.1668C15.52 13.5068 15.52 14.0535 15.1867 14.3935C15.02 14.5602 14.8 14.6468 14.58 14.6468C14.36 14.6468 14.14 14.5602 13.9733 14.3935C13.4467 13.8602 12.74 13.5668 11.9933 13.5668C11.2467 13.5668 10.54 13.8602 10.0133 14.3935C9.67999 14.7335 9.13999 14.7335 8.80666 14.3935C8.47999 14.0535 8.47999 13.5068 8.81333 13.1668Z" fill="#45E4FF"/>
<path fill-rule="evenodd" clip-rule="evenodd" d="M10.9667 17.4398C10.3934 16.8598 10.3934 15.9265 10.9667 15.3465C11.5401 14.7665 12.4601 14.7665 13.0334 15.3465C13.6067 15.9265 13.6067 16.8598 13.0334 17.4398C12.4601 18.0198 11.5401 18.0198 10.9667 17.4398Z" fill="#2EE5A8"/>
</g>
<defs>
<clipPath id="clip0_889_20242">
<rect width="24" height="24" fill="white"/>
</clipPath>
</defs>
</svg>
