<svg width="24" height="24" viewBox="0 0 24 24" fill="none" xmlns="http://www.w3.org/2000/svg">
<g clip-path="url(#clip0_889_20299)">
<path d="M12 24C18.6274 24 24 18.6274 24 12C24 5.37258 18.6274 0 12 0C5.37258 0 0 5.37258 0 12C0 18.6274 5.37258 24 12 24Z" fill="#FFFCE3"/>
<path d="M13.4866 17.4067C10.5066 17.4067 8.07996 14.9801 8.07996 12.0001C8.07996 9.02005 10.5066 6.59338 13.4866 6.59338C16.4666 6.59338 18.8933 9.02005 18.8933 12.0001C18.9 14.9801 16.4666 17.4067 13.4866 17.4067Z" fill="#FFDC10"/>
<path d="M14.3933 11.84L12.9 11.32C12.76 11.2733 12.72 11.26 12.72 11.04C12.72 10.88 12.8333 10.7467 12.9733 10.7467H13.9067C14.1067 10.7467 14.2667 10.9267 14.2667 11.1533C14.2667 11.4067 14.48 11.62 14.7333 11.62C14.9867 11.62 15.2 11.4067 15.2 11.1533C15.2 10.4333 14.6533 9.85333 13.9667 9.82666V9.79333C13.9667 9.53999 13.7533 9.32666 13.5 9.32666C13.2467 9.32666 13.0333 9.53999 13.0333 9.79333V9.81999H12.98C12.3267 9.81999 11.7933 10.3733 11.7933 11.04C11.7933 11.6267 12.06 12.0067 12.6 12.1933L14.0933 12.7133C14.2333 12.76 14.2733 12.7733 14.2733 12.9933C14.2733 13.1533 14.16 13.2867 14.02 13.2867H13.0867C12.8867 13.2867 12.7267 13.1067 12.7267 12.88C12.7267 12.6267 12.5133 12.4133 12.26 12.4133C12.0067 12.4133 11.7933 12.6267 11.7933 12.88C11.7933 13.6 12.34 14.18 13.0267 14.2067V14.2267C13.0267 14.48 13.24 14.6933 13.4933 14.6933C13.7467 14.6933 13.96 14.4867 13.96 14.2267V14.2067H14.02C14.6733 14.2067 15.2067 13.66 15.2 12.9867C15.1933 12.4133 14.9333 12.0333 14.3933 11.84Z" fill="#FF8700"/>
<path d="M10.2533 12.4734H3.67328C3.41328 12.4734 3.19995 12.2601 3.19995 12.0001C3.19995 11.7401 3.41328 11.5267 3.67328 11.5267H10.2533C10.5133 11.5267 10.7266 11.7401 10.7266 12.0001C10.7266 12.2667 10.5133 12.4734 10.2533 12.4734Z" fill="#FF8700"/>
<path d="M8.93328 14.8267H4.70661C4.44661 14.8267 4.23328 14.6133 4.23328 14.3533C4.23328 14.0933 4.44661 13.88 4.70661 13.88H8.93994C9.19994 13.88 9.41328 14.0933 9.41328 14.3533C9.40661 14.6133 9.19328 14.8267 8.93328 14.8267Z" fill="#FF8700"/>
<path d="M9.19989 10.1267H5.90656C5.64656 10.1267 5.43323 9.91339 5.43323 9.65339C5.43323 9.39339 5.64656 9.18005 5.90656 9.18005H9.19989C9.45989 9.18005 9.67323 9.39339 9.67323 9.65339C9.66656 9.91339 9.45989 10.1267 9.19989 10.1267Z" fill="#FF8700"/>
</g>
<defs>
<clipPath id="clip0_889_20299">
<rect width="24" height="24" fill="white"/>
</clipPath>
</defs>
</svg>
