<svg width="24" height="24" viewBox="0 0 24 24" fill="none" xmlns="http://www.w3.org/2000/svg">
<g clip-path="url(#clip0_889_20071)">
<path d="M12 24C18.6274 24 24 18.6274 24 12C24 5.37258 18.6274 0 12 0C5.37258 0 0 5.37258 0 12C0 18.6274 5.37258 24 12 24Z" fill="#E4F5F9"/>
<path d="M14.8332 18.3141H9.1599C8.66657 18.3141 8.26657 17.9141 8.26657 17.4208C8.26657 16.9275 8.66657 16.5275 9.1599 16.5275H14.8332C15.3266 16.5275 15.7266 16.9275 15.7266 17.4208C15.7332 17.9141 15.3266 18.3141 14.8332 18.3141Z" fill="#4748FC"/>
<path d="M11.9998 5.91431C11.6465 5.91431 11.3532 6.20764 11.3532 6.56097V14.3143C11.3532 14.6676 11.6465 14.961 11.9998 14.961C12.3532 14.961 12.6465 14.6676 12.6465 14.3143V6.56097C12.6465 6.20764 12.3532 5.91431 11.9998 5.91431Z" fill="#4748FC"/>
<path d="M12.3731 5.87475C12.1197 5.62142 11.7131 5.62142 11.4597 5.87475L8.41307 8.92142C8.15973 9.17475 8.15973 9.58142 8.41307 9.83475C8.6664 10.0881 9.07307 10.0881 9.3264 9.83475L12.3731 6.78809C12.6264 6.53475 12.6264 6.12809 12.3731 5.87475Z" fill="#4748FC"/>
<path d="M11.6264 5.87475C11.3731 6.12809 11.3731 6.53475 11.6264 6.78809L14.6731 9.83475C14.9264 10.0881 15.3331 10.0881 15.5864 9.83475C15.8397 9.58142 15.8397 9.17475 15.5864 8.92142L12.5397 5.87475C12.2864 5.62142 11.8731 5.62142 11.6264 5.87475Z" fill="#4748FC"/>
</g>
<defs>
<clipPath id="clip0_889_20071">
<rect width="24" height="24" fill="white"/>
</clipPath>
</defs>
</svg>
