<svg width="24" height="24" viewBox="0 0 24 24" fill="none" xmlns="http://www.w3.org/2000/svg">
<g clip-path="url(#clip0_889_20272)">
<path d="M12 24C18.6274 24 24 18.6274 24 12C24 5.37258 18.6274 0 12 0C5.37258 0 0 5.37258 0 12C0 18.6274 5.37258 24 12 24Z" fill="#E8F7EF"/>
<path d="M9.79333 18.3997C10.0695 18.3997 10.2933 17.7759 10.2933 17.0064C10.2933 16.2369 10.0695 15.613 9.79333 15.613C9.51719 15.613 9.29333 16.2369 9.29333 17.0064C9.29333 17.7759 9.51719 18.3997 9.79333 18.3997Z" fill="#FFC900"/>
<path d="M8.3867 7.94034H15.14C15.14 7.54701 15.14 6.94034 15.14 6.08034C15.14 4.18701 13.3067 4.86034 13.3067 4.86034C13.3067 4.86034 8.71337 5.86034 7.33337 6.26701C5.95337 6.67367 5.95337 8.40034 5.95337 8.40034V9.32701C6.45337 8.50034 7.35337 7.94034 8.3867 7.94034Z" fill="#62D819"/>
<path d="M15.94 13.8068C15.8867 13.2735 16.08 12.7602 16.4667 12.3802C16.7934 12.0468 17.2401 11.8602 17.72 11.8602H18.5734V11.3002C18.5734 9.74018 17.3067 8.47351 15.7467 8.47351H15.38H8.62672C7.59338 8.47351 6.69338 9.02684 6.20005 9.86018C5.94672 10.2802 5.80005 10.7735 5.80005 11.3002V14.8268C5.80005 16.3868 7.06672 17.6535 8.62672 17.6535H15.7467C17.0934 17.6535 18.22 16.7068 18.5067 15.4402H17.8067C16.84 15.4402 16.02 14.7268 15.94 13.8068ZM13.02 11.8135H8.54005C8.28005 11.8135 8.06005 11.5935 8.06005 11.3335C8.06005 11.0735 8.28005 10.8535 8.54005 10.8535H13.02C13.28 10.8535 13.5 11.0735 13.5 11.3335C13.5067 11.5935 13.2867 11.8135 13.02 11.8135Z" fill="#62D819"/>
<path d="M18.6868 12.2601H18.3268H17.6801C17.3201 12.2601 16.9801 12.4001 16.7334 12.6535C16.4468 12.9401 16.3001 13.3268 16.3401 13.7268C16.4001 14.4201 17.0134 14.9601 17.7468 14.9601H18.2734H18.7001C19.1668 14.9468 19.5334 14.5668 19.5334 14.1068V13.1135C19.5334 12.6468 19.1668 12.2735 18.6868 12.2601Z" fill="#62D819"/>
<path d="M8.04672 19.2531C9.28751 19.2531 10.2934 18.2472 10.2934 17.0064C10.2934 15.7656 9.28751 14.7598 8.04672 14.7598C6.80592 14.7598 5.80005 15.7656 5.80005 17.0064C5.80005 18.2472 6.80592 19.2531 8.04672 19.2531Z" fill="#E24D3D"/>
<path d="M11.54 19.2531C12.7808 19.2531 13.7867 18.2472 13.7867 17.0064C13.7867 15.7656 12.7808 14.7598 11.54 14.7598C10.2992 14.7598 9.29333 15.7656 9.29333 17.0064C9.29333 18.2472 10.2992 19.2531 11.54 19.2531Z" fill="#FFC900"/>
</g>
<defs>
<clipPath id="clip0_889_20272">
<rect width="24" height="24" fill="white"/>
</clipPath>
</defs>
</svg>
