<svg width="24" height="24" viewBox="0 0 24 24" fill="none" xmlns="http://www.w3.org/2000/svg">
<g clip-path="url(#clip0_889_20281)">
<path d="M12 24C18.6274 24 24 18.6274 24 12C24 5.37258 18.6274 0 12 0C5.37258 0 0 5.37258 0 12C0 18.6274 5.37258 24 12 24Z" fill="#E8F7EF"/>
<path d="M17.5799 15.4871C17.2599 15.1671 16.7599 15.1204 16.3865 15.3804L14.5465 16.7538H13.2265C13.4399 16.6204 13.5665 16.3871 13.5665 16.1338C13.5665 15.7271 13.2399 15.4004 12.8332 15.4004H11.4599C11.1999 15.4004 10.9465 15.2938 10.7665 15.1138L9.02652 13.3671C8.71985 13.0604 8.29985 12.8871 7.86652 12.8871H5.59985C5.27318 12.8871 5.01318 13.1538 5.01318 13.4738V17.2004C5.01318 17.4071 5.11985 17.6004 5.29985 17.7071L6.48652 18.4271C7.09985 18.8004 7.80652 19.0004 8.51985 19.0004H13.3732C14.2732 19.0004 15.1465 18.6938 15.8465 18.1271L17.5199 16.7738C17.7132 16.6204 17.8265 16.3938 17.8399 16.1471C17.8465 15.9004 17.7532 15.6604 17.5799 15.4871Z" fill="#62D819"/>
<path d="M14.5267 13.9473C16.9972 13.9473 19 11.9445 19 9.47394C19 7.00339 16.9972 5.00061 14.5267 5.00061C12.0561 5.00061 10.0533 7.00339 10.0533 9.47394C10.0533 11.9445 12.0561 13.9473 14.5267 13.9473Z" fill="#62D819"/>
<path d="M13.9667 8.90629C14.22 8.65295 14.6534 7.65295 14.6534 7.65295C14.6534 7.65295 15.0867 8.65295 15.34 8.90629C15.5934 9.15962 16.5934 9.59295 16.5934 9.59295C16.5934 9.59295 15.5934 10.0263 15.34 10.2796C15.0867 10.533 14.6534 11.533 14.6534 11.533C14.6534 11.533 14.22 10.533 13.9667 10.2796C13.7134 10.0263 12.7134 9.59295 12.7134 9.59295C12.7134 9.59295 13.7134 9.15962 13.9667 8.90629Z" fill="#4748FC"/>
</g>
<defs>
<clipPath id="clip0_889_20281">
<rect width="24" height="24" fill="white"/>
</clipPath>
</defs>
</svg>
