<svg width="24" height="24" viewBox="0 0 24 24" fill="none" xmlns="http://www.w3.org/2000/svg">
<g clip-path="url(#clip0_889_20139)">
<path d="M12 24C18.6274 24 24 18.6274 24 12C24 5.37258 18.6274 0 12 0C5.37258 0 0 5.37258 0 12C0 18.6274 5.37258 24 12 24Z" fill="#FFFCE3"/>
<path fill-rule="evenodd" clip-rule="evenodd" d="M16.1465 8.28058H12.8532L14.4865 6.65392C14.6398 6.50058 14.6398 6.26058 14.4865 6.10725C14.3332 5.95392 14.0865 5.95392 13.9398 6.10725L12.1398 7.89392L10.3398 6.10725C10.1865 5.95392 9.93983 5.95392 9.79317 6.10725C9.63983 6.26058 9.63983 6.50058 9.79317 6.65392L11.4265 8.28058H8.13317C7.15984 8.28058 6.37317 9.06725 6.37317 10.0272V16.5206C6.37317 17.4872 7.15984 18.2672 8.13317 18.2672H16.1398C17.1132 18.2672 17.8998 17.4806 17.8998 16.5206V10.0272C17.9065 9.06725 17.1198 8.28058 16.1465 8.28058Z" fill="#FF8700"/>
<path fill-rule="evenodd" clip-rule="evenodd" d="M16.34 12.1804H14.3667C14.1467 12.1804 13.9733 12.0071 13.9733 11.7871C13.9733 11.5737 14.1467 11.3937 14.3667 11.3937H16.34C16.56 11.3937 16.7333 11.5671 16.7333 11.7871C16.7333 12.0004 16.5533 12.1804 16.34 12.1804Z" fill="#FFC900"/>
<path fill-rule="evenodd" clip-rule="evenodd" d="M15.3866 15.3408C14.68 15.3408 14.1066 14.7741 14.1066 14.0675C14.1066 13.3675 14.68 12.7941 15.3866 12.7941C16.0933 12.7941 16.6666 13.3608 16.6666 14.0675C16.6666 14.7741 16.0933 15.3408 15.3866 15.3408Z" fill="#FFC900"/>
<path d="M5.50658 10.8803H11.3799C12.0866 10.8803 12.6666 11.4536 12.6666 12.167V14.7403C12.6666 15.447 12.0932 16.027 11.3799 16.027H5.50658C4.99324 16.027 4.57324 15.607 4.57324 15.0936V11.8203C4.57324 11.3003 4.99324 10.8803 5.50658 10.8803Z" fill="#FFC900"/>
</g>
<defs>
<clipPath id="clip0_889_20139">
<rect width="24" height="24" fill="white"/>
</clipPath>
</defs>
</svg>
