<svg width="24" height="24" viewBox="0 0 24 24" fill="none" xmlns="http://www.w3.org/2000/svg">
<g clip-path="url(#clip0_889_20087)">
<path d="M12 24C18.6274 24 24 18.6274 24 12C24 5.37258 18.6274 0 12 0C5.37258 0 0 5.37258 0 12C0 18.6274 5.37258 24 12 24Z" fill="#D7F7D7"/>
<path d="M12.0001 4.77405C10.4534 4.77405 9.20006 6.02738 9.20006 7.57405C9.20006 9.08738 10.3867 10.314 11.9267 10.3674C11.9734 10.3607 12.0201 10.3607 12.0534 10.3674C12.0667 10.3674 12.0734 10.3674 12.0801 10.3674C12.0867 10.3674 12.0867 10.3674 12.0934 10.3674C13.6001 10.314 14.7867 9.08738 14.7934 7.57405C14.8001 6.02738 13.5401 4.77405 12.0001 4.77405Z" fill="#62D819"/>
<path d="M14.9933 11.9339C13.3467 10.8406 10.6667 10.8406 9.01335 11.9339C8.26668 12.4339 7.85335 13.1139 7.85335 13.8339C7.85335 14.5606 8.26668 15.2272 9.00668 15.7272C9.83335 16.2806 10.9133 16.5606 12 16.5606C13.0867 16.5606 14.1667 16.2806 14.9933 15.7272C15.7333 15.2272 16.1467 14.5539 16.1467 13.8272C16.14 13.1006 15.7333 12.4272 14.9933 11.9339ZM13.18 14.2739H12.4467V15.0072C12.4467 15.2472 12.2467 15.4472 12.0067 15.4472C11.7667 15.4472 11.5667 15.2472 11.5667 15.0072V14.2739H10.8333C10.5933 14.2739 10.3933 14.0739 10.3933 13.8339C10.3933 13.5939 10.5933 13.3939 10.8333 13.3939H11.5667V12.6606C11.5667 12.4206 11.7667 12.2206 12.0067 12.2206C12.2467 12.2206 12.4467 12.4206 12.4467 12.6606V13.3939H13.18C13.42 13.3939 13.62 13.5939 13.62 13.8339C13.62 14.0739 13.42 14.2739 13.18 14.2739Z" fill="#62D819"/>
<path d="M14.8333 19.2267H9.16001C8.66668 19.2267 8.26668 18.8267 8.26668 18.3334C8.26668 17.8401 8.66668 17.4401 9.16001 17.4401H14.8333C15.3267 17.4401 15.7267 17.8401 15.7267 18.3334C15.7333 18.8201 15.3267 19.2267 14.8333 19.2267Z" fill="#62D819"/>
</g>
<defs>
<clipPath id="clip0_889_20087">
<rect width="24" height="24" fill="white"/>
</clipPath>
</defs>
</svg>
