<svg width="60" height="60" viewBox="0 0 60 60" fill="none" xmlns="http://www.w3.org/2000/svg">
<path d="M30 60C46.5685 60 60 46.5685 60 30C60 13.4315 46.5685 0 30 0C13.4315 0 0 13.4315 0 30C0 46.5685 13.4315 60 30 60Z" fill="#6138E0" fill-opacity="0.1"/>
<rect x="11" y="17" width="36.25" height="25" rx="5" fill="#6138E0"/>
<path d="M11 23H47.2497V27H11V23Z" fill="#BE79E2"/>
<circle cx="41" cy="36" r="10.0625" fill="white" stroke="#F0FBFC" stroke-width="1.875"/>
<path d="M41.5082 27.283C41.1678 27.283 40.8274 27.283 40.4869 27.283C40.4438 27.2925 40.4006 27.3069 40.3575 27.3117C39.293 27.3836 38.2717 27.6328 37.3176 28.1025C34.6325 29.4157 32.9974 31.5437 32.4221 34.4816C32.3549 34.8123 32.331 35.1526 32.283 35.488V36.5089C32.2926 36.5568 32.307 36.6047 32.3118 36.6575C32.3837 37.7214 32.633 38.7423 33.1125 39.696C34.666 42.7873 37.1785 44.4791 40.6356 44.6996C42.3521 44.8098 43.9776 44.3929 45.4448 43.4918C48.0867 41.8527 49.5203 39.466 49.7025 36.3603C49.7937 34.7835 49.4532 33.2786 48.6861 31.8935C47.3291 29.4445 45.2626 27.9396 42.5008 27.4172C42.1747 27.3548 41.8391 27.3261 41.5082 27.283ZM40.9952 37.0552C41.5466 37.0552 42.098 37.0552 42.6446 37.0552C44.1981 37.0696 45.3968 38.1384 45.5838 39.6721C45.6413 40.1513 45.5359 40.5779 45.1523 40.899C44.1214 41.7665 42.9323 42.2745 41.5897 42.3943C40.0266 42.5333 38.5978 42.1499 37.3128 41.2536C37.0634 41.0811 36.8237 40.8798 36.6319 40.645C36.3442 40.2951 36.373 39.8638 36.4497 39.442C36.7038 38.0425 37.8834 37.0648 39.341 37.0505C39.8924 37.0457 40.439 37.0505 40.9904 37.0505L40.9952 37.0552ZM38.1135 32.7658C38.1231 31.1746 39.4081 29.895 41 29.895C42.5871 29.895 43.8769 31.1794 43.8817 32.7706C43.8817 34.357 42.5727 35.6654 40.9904 35.6558C39.4033 35.6462 38.1087 34.3426 38.1135 32.7706V32.7658Z" fill="#6138E0"/>
</svg>
