<svg width="28" height="28" viewBox="0 0 28 28" fill="none" xmlns="http://www.w3.org/2000/svg">
<path d="M22.6495 5.25793H5.35053C4.32947 5.25793 3.5 6.08741 3.5 7.10846V12.1527C3.5 11.3864 4.12105 10.7653 4.88737 10.7653H4.92316V8.94214C4.92316 7.88951 5.77579 7.03478 6.83053 7.03478H21.1695C22.2221 7.03478 23.0768 7.88951 23.0768 8.94214V10.7632H23.1126C23.8789 10.7632 24.5 11.3843 24.5 12.1506V7.10846C24.5 6.08741 23.6726 5.25793 22.6495 5.25793Z" fill="url(#paint0_linear_22180_11107)"/>
<path d="M11.1697 11.0306L12.1276 12.0158L13.2286 13.1169L13.2328 13.1211C13.5339 13.4222 14.0244 13.4222 14.3254 13.1211L16.3886 11.0264C16.5528 10.8601 16.7781 10.7653 17.0139 10.7653H23.077V8.94216C23.077 7.88953 22.2244 7.03479 21.1697 7.03479H6.83071C5.77808 7.03479 4.92334 7.88953 4.92334 8.94216V10.7632H10.5402C10.7781 10.7653 11.0054 10.8601 11.1697 11.0306Z" fill="url(#paint1_linear_22180_11107)"/>
<path d="M11.1697 11.0306L12.1276 12.0158L13.2286 13.1169L13.2328 13.1211C13.5339 13.4222 14.0244 13.4222 14.3254 13.1211L16.3886 11.0264C16.5528 10.8601 16.7781 10.7653 17.0139 10.7653H23.077V8.94216C23.077 7.88953 22.2244 7.03479 21.1697 7.03479H6.83071C5.77808 7.03479 4.92334 7.88953 4.92334 8.94216V10.7632H10.5402C10.7781 10.7653 11.0054 10.8601 11.1697 11.0306Z" fill="url(#paint2_linear_22180_11107)"/>
<path d="M23.1126 10.7653H23.0768H17.0137C16.7779 10.7653 16.5547 10.86 16.3884 11.0263L14.3253 13.121C14.0242 13.4221 13.5337 13.4221 13.2326 13.121L13.2284 13.1168L11.1695 11.0305C11.0053 10.86 10.7779 10.7653 10.54 10.7653H4.92316H4.88737C4.12105 10.7653 3.5 11.3863 3.5 12.1526V21.3547C3.5 22.121 4.12105 22.7421 4.88737 22.7421H23.1126C23.8789 22.7421 24.5 22.121 24.5 21.3547V12.1526C24.5 11.3863 23.8789 10.7653 23.1126 10.7653ZM22.3274 14.5253C22.6411 14.2116 23.1484 14.2116 23.46 14.5253C23.7737 14.8389 23.7737 15.3463 23.46 15.6579L21.9358 17.1821L21.3316 16.5779C21.0011 16.2137 21.1484 15.7063 21.2474 15.6053C21.4474 15.4032 22.3274 14.5253 22.3274 14.5253ZM21.7589 12.8242C22.0726 13.1379 22.0726 13.6453 21.7589 13.9568L19.4895 16.2284C19.1779 16.54 18.6747 16.54 18.3653 16.2284L17.4789 15.3421C17.4789 15.3421 17.9021 15.5484 18.3611 15.0916L20.6263 12.8263C20.94 12.5126 21.4474 12.5126 21.7589 12.8242ZM16.0958 12.8242C16.4095 12.5105 16.9168 12.5105 17.2284 12.8242L18.7526 14.3484L18.1484 14.9526C17.7842 15.2832 17.2768 15.1358 17.1758 15.0368C16.9737 14.8347 16.0958 13.9568 16.0958 13.9568C15.7821 13.6453 15.7821 13.1379 16.0958 12.8242ZM14.3947 14.5253C14.7084 14.2116 15.2158 14.2116 15.5274 14.5253L17.7968 16.7947C18.1084 17.1063 18.1084 17.6095 17.7968 17.9189L16.9105 18.8053C16.9105 18.8053 17.1168 18.3821 16.66 17.9232L14.3947 15.6579C14.0811 15.3442 14.0811 14.8368 14.3947 14.5253ZM14.3947 20.1884C14.0811 19.8747 14.0811 19.3674 14.3947 19.0558L15.9189 17.5316L16.5232 18.1358C16.8537 18.5 16.7063 19.0074 16.6074 19.1084C16.4053 19.3105 15.5274 20.1884 15.5274 20.1884C15.2137 20.5021 14.7084 20.5021 14.3947 20.1884ZM16.0958 21.8895C15.7821 21.5758 15.7821 21.0684 16.0958 20.7568L18.3653 18.4874C18.6768 18.1758 19.18 18.1758 19.4895 18.4874L20.3758 19.3737C20.3758 19.3737 19.9526 19.1674 19.4937 19.6242L17.2284 21.8895C16.9147 22.201 16.4074 22.201 16.0958 21.8895ZM21.7589 21.8895C21.4453 22.2032 20.9379 22.2032 20.6263 21.8895L19.1021 20.3653L19.7063 19.761C20.0705 19.4305 20.5779 19.5779 20.6789 19.6768C20.8811 19.8789 21.7589 20.7568 21.7589 20.7568C22.0726 21.0684 22.0726 21.5758 21.7589 21.8895ZM23.46 20.1884C23.1463 20.5021 22.6389 20.5021 22.3274 20.1884L20.0558 17.9189C19.7442 17.6074 19.7442 17.1042 20.0558 16.7947L20.9421 15.9084C20.9421 15.9084 20.7358 16.3316 21.1926 16.7905L23.4579 19.0558C23.7716 19.3695 23.7716 19.8768 23.46 20.1884Z" fill="url(#paint3_linear_22180_11107)"/>
<defs>
<linearGradient id="paint0_linear_22180_11107" x1="14.0004" y1="13.7636" x2="14.0004" y2="5.39164" gradientUnits="userSpaceOnUse">
<stop offset="0.00217805" stop-color="#00B200"/>
<stop offset="1" stop-color="#00E300"/>
</linearGradient>
<linearGradient id="paint1_linear_22180_11107" x1="14.0006" y1="13.7636" x2="14.0006" y2="5.39165" gradientUnits="userSpaceOnUse">
<stop offset="0.00217805" stop-color="#00B200"/>
<stop offset="1" stop-color="#00E300"/>
</linearGradient>
<linearGradient id="paint2_linear_22180_11107" x1="14.0006" y1="6.97967" x2="14.0006" y2="15.139" gradientUnits="userSpaceOnUse">
<stop stop-color="#00049E"/>
<stop offset="0.9983" stop-color="#120455"/>
</linearGradient>
<linearGradient id="paint3_linear_22180_11107" x1="14.0004" y1="11.1219" x2="14.0004" y2="31.677" gradientUnits="userSpaceOnUse">
<stop offset="0.00167605" stop-color="#44E600"/>
<stop offset="1" stop-color="#00E300"/>
</linearGradient>
</defs>
</svg>
