<svg width="60" height="60" viewBox="0 0 60 60" fill="none" xmlns="http://www.w3.org/2000/svg">
<path d="M30 60C46.5685 60 60 46.5685 60 30C60 13.4315 46.5685 0 30 0C13.4315 0 0 13.4315 0 30C0 46.5685 13.4315 60 30 60Z" fill="#F0FBFC"/>
<rect x="10" y="20" width="40" height="21" rx="3" fill="#62D819"/>
<path d="M14.6261 14.0872C25.182 8.82616 33.8187 8.82616 45.3371 14.124L39.1931 15.6522" stroke="#45E4FF" stroke-width="3" stroke-linecap="round" stroke-linejoin="round"/>
<path d="M45.3739 45.9129C34.818 51.1739 26.1813 51.1739 14.6628 45.8761L20.8069 44.3479" stroke="#45E4FF" stroke-width="3" stroke-linecap="round" stroke-linejoin="round"/>
<path d="M29.5903 36.4V35.126C28.9089 35.0607 28.3536 34.9067 27.9243 34.664C27.5043 34.4213 27.1776 34.1413 26.9443 33.824C26.7109 33.4973 26.5429 33.18 26.4403 32.872C26.3469 32.564 26.2909 32.3073 26.2723 32.102C26.2536 31.8967 26.2443 31.794 26.2443 31.794H27.6303C27.6303 31.794 27.6349 31.8593 27.6443 31.99C27.6629 32.1113 27.7003 32.27 27.7563 32.466C27.8123 32.6527 27.9103 32.8487 28.0503 33.054C28.1903 33.25 28.3816 33.432 28.6243 33.6C28.8763 33.7587 29.1983 33.866 29.5903 33.922V30.268L29.5343 30.254C28.9369 30.1233 28.4096 29.946 27.9523 29.722C27.5043 29.498 27.1543 29.1993 26.9023 28.826C26.6596 28.4527 26.5383 27.9813 26.5383 27.412C26.5383 26.8427 26.6783 26.3527 26.9583 25.942C27.2476 25.522 27.6256 25.1953 28.0923 24.962C28.5589 24.7193 29.0583 24.57 29.5903 24.514V23.268H30.6963V24.542C31.2749 24.6167 31.7509 24.766 32.1243 24.99C32.5069 25.214 32.8056 25.4707 33.0203 25.76C33.2349 26.04 33.3889 26.32 33.4823 26.6C33.5849 26.8707 33.6503 27.0947 33.6783 27.272C33.7063 27.4493 33.7203 27.538 33.7203 27.538H32.3343C32.3343 27.538 32.3203 27.4633 32.2923 27.314C32.2643 27.1647 32.1989 26.9827 32.0963 26.768C31.9936 26.5533 31.8303 26.348 31.6063 26.152C31.3916 25.956 31.0883 25.816 30.6963 25.732V29.176L30.7943 29.204C31.1583 29.288 31.5223 29.3907 31.8863 29.512C32.2503 29.6333 32.5769 29.7967 32.8663 30.002C33.1649 30.2073 33.4029 30.4827 33.5803 30.828C33.7576 31.164 33.8463 31.5887 33.8463 32.102C33.8463 32.6527 33.7063 33.1427 33.4263 33.572C33.1556 34.0013 32.7823 34.3513 32.3063 34.622C31.8396 34.8927 31.3029 35.0607 30.6963 35.126V36.4H29.5903ZM27.8963 27.398C27.8963 27.7993 28.0316 28.1167 28.3023 28.35C28.5729 28.5833 29.0023 28.7747 29.5903 28.924V25.69C29.0769 25.7647 28.6663 25.9607 28.3583 26.278C28.0503 26.5953 27.8963 26.9687 27.8963 27.398ZM32.4883 32.102C32.4883 31.6353 32.3296 31.2853 32.0123 31.052C31.6949 30.8187 31.2563 30.6367 30.6963 30.506V33.922C31.2003 33.8287 31.6249 33.6233 31.9703 33.306C32.3156 32.9887 32.4883 32.5873 32.4883 32.102Z" fill="white"/>
<path d="M15.5 20C15.5 24 14 25.5 10 25.5" stroke="white" stroke-opacity="0.5"/>
<path d="M44.5 20C44.5 24 46 25.5 50 25.5" stroke="white" stroke-opacity="0.5"/>
<path d="M44.5 41C44.5 37 46 35.5 50 35.5" stroke="white" stroke-opacity="0.5"/>
<path d="M15.5 41C15.5 37 14 35.5 10 35.5" stroke="white" stroke-opacity="0.5"/>
</svg>
