<svg width="28" height="28" viewBox="0 0 28 28" fill="none"
    xmlns="http://www.w3.org/2000/svg">
    <g clip-path="url(#clip0_7295_5713)">
        <path d="M14 28C21.732 28 28 21.732 28 14C28 6.26801 21.732 0 14 0C6.26801 0 0 6.26801 0 14C0 21.732 6.26801 28 14 28Z" fill="#F0FBFC"/>
        <path d="M17.6089 21.8087H10.6944C8.64889 21.8087 7 20.152 7 18.1142V14.6687C7 12.6231 8.65667 10.9742 10.6944 10.9742H17.6089C19.6544 10.9742 21.3033 12.6309 21.3033 14.6687V18.1142C21.3033 20.152 19.6467 21.8087 17.6089 21.8087Z" fill="#2EE5A8"/>
        <path d="M18.5811 14.5052C17.1111 14.5052 15.8044 13.3229 15.6566 11.8607L15.1511 6.79738C15.1355 6.64182 15.19 6.49404 15.2911 6.37738C15.3922 6.26071 15.54 6.19849 15.6955 6.19849H17.8888C20.0122 6.19849 21 7.08515 21.3033 9.27071L21.5055 11.2774C21.5911 12.1329 21.3344 12.9418 20.7744 13.5563C20.2222 14.1629 19.4366 14.5052 18.5811 14.5052Z" fill="#E24D3D"/>
        <path d="M9.41883 14.5052C8.5555 14.5052 7.77772 14.163 7.2255 13.5486C6.6655 12.9341 6.40883 12.1252 6.49439 11.2697L6.68883 9.27857C6.99217 7.07746 7.97995 6.1908 10.1111 6.1908H12.3122C12.4677 6.1908 12.6077 6.25302 12.7166 6.36968C12.8255 6.48635 12.8722 6.63413 12.8566 6.78968L12.3511 11.853C12.1955 13.3152 10.8888 14.5052 9.41883 14.5052Z" fill="#E24D3D"/>
        <path d="M14.0156 14.5052C13.2223 14.5052 12.499 14.194 11.9856 13.6263C11.4723 13.0585 11.2312 12.3118 11.3167 11.5185L11.799 6.68849C11.8301 6.41626 12.0556 6.19849 12.3434 6.19849H15.719C15.999 6.19849 16.2323 6.40849 16.2634 6.68849L16.7456 11.5185C16.8234 12.3118 16.5901 13.0585 16.0767 13.6263C15.5323 14.194 14.809 14.5052 14.0156 14.5052Z" fill="#FFC900"/>
        <path d="M15.9522 20.8596H12.3356C12.04 20.8596 11.7911 20.6108 11.7911 20.3152V18.5108C11.7911 16.9941 12.6234 16.1619 14.14 16.1619C15.6567 16.1619 16.4889 16.9941 16.4889 18.5108V20.3152C16.4967 20.6185 16.2478 20.8596 15.9522 20.8596Z" fill="#E24D3D"/>
    </g>
    <defs>
        <clipPath id="clip0_7295_5713">
            <rect width="28" height="28" fill="white"/>
        </clipPath>
    </defs>
</svg>
