<svg width="60" height="60" viewBox="0 0 60 60" fill="none" xmlns="http://www.w3.org/2000/svg">
<path d="M30 60C46.5685 60 60 46.5685 60 30C60 13.4315 46.5685 0 30 0C13.4315 0 0 13.4315 0 30C0 46.5685 13.4315 60 30 60Z" fill="#FFF9E6"/>
<path d="M20.4117 18L26.2013 18.0001L28.0952 22.4574L30.6607 18L38.9577 18C44.9005 18 46.3861 19.1779 46.3861 23.8761L43 25.6579L46.3861 27.3933V34.8652C46.3861 39.5633 44.9005 40.7412 38.9744 40.7412H20.4117C14.4857 40.7546 13 39 13 32.4806L15.9017 30.537L13 29V23.8761C13 19.1779 14.4857 18 20.4117 18Z" fill="#FBBC05"/>
<path d="M22.2398 29.2901C23.9656 29.2901 25.3647 27.8459 25.3647 26.0643C25.3647 24.2828 23.9656 22.8386 22.2398 22.8386C20.5139 22.8386 19.1149 24.2828 19.1149 26.0643C19.1149 27.8459 20.5139 29.2901 22.2398 29.2901Z" stroke="white" stroke-width="2" stroke-linecap="round" stroke-linejoin="round"/>
<path d="M27.6079 35.7415C27.6079 33.2448 25.2018 31.2255 22.2394 31.2255C19.2769 31.2255 16.8708 33.2448 16.8708 35.7415" stroke="white" stroke-width="2" stroke-linecap="round" stroke-linejoin="round"/>
<path d="M29.7807 26.0643H39.2343" stroke="white" stroke-width="2" stroke-miterlimit="10" stroke-linecap="round" stroke-linejoin="round"/>
<path d="M29.7807 29.9351H39.2343" stroke="white" stroke-width="2" stroke-miterlimit="10" stroke-linecap="round" stroke-linejoin="round"/>
<path d="M29.7807 33.3229H35.6892" stroke="white" stroke-width="2" stroke-miterlimit="10" stroke-linecap="round" stroke-linejoin="round"/>
<path d="M41.7058 44.4322C40.1264 44.4322 38.6118 43.8048 37.495 42.688C36.3782 41.5711 35.7508 40.0564 35.7508 38.4772C35.7508 36.898 36.3782 35.3833 37.495 34.2664C38.6118 33.1496 40.1266 32.5222 41.7058 32.5222C43.2849 32.5222 44.7997 33.1496 45.9166 34.2664C47.0333 35.3832 47.6607 36.898 47.6607 38.4772C47.6589 40.056 47.031 41.5697 45.9146 42.6861C44.7982 43.8024 43.2847 44.4304 41.7058 44.4322Z" fill="#EA4335"/>
<path d="M41.7057 40.315C41.5335 40.3202 41.3657 40.2607 41.2353 40.148C41.1049 40.0354 41.0215 39.8781 41.0016 39.707C40.9799 39.4799 40.9544 39.2058 40.9256 38.9045C40.8139 37.7446 40.6613 36.1557 40.6236 35.2682C40.6148 35.0174 40.7096 34.774 40.8858 34.5952C41.1029 34.3771 41.3979 34.2545 41.7057 34.2545C42.0135 34.2545 42.3085 34.3771 42.5256 34.5952C42.7018 34.7739 42.7967 35.0172 42.788 35.268C42.7503 36.1554 42.5977 37.7447 42.4849 38.9043C42.4562 39.2056 42.43 39.4797 42.409 39.7068C42.3891 39.8777 42.3059 40.035 42.1756 40.1477C42.0455 40.2603 41.8778 40.32 41.7057 40.315Z" fill="white"/>
<path d="M41.7058 42.4797C41.4762 42.4797 41.2559 42.3884 41.0935 42.2261C40.9312 42.0637 40.84 41.8434 40.84 41.6139C40.84 41.3843 40.9312 41.164 41.0935 41.0016C41.256 40.8393 41.4762 40.748 41.7058 40.748C41.9354 40.748 42.1556 40.8393 42.318 41.0016C42.4804 41.164 42.5716 41.3843 42.5716 41.6139C42.5716 41.8434 42.4804 42.0637 42.318 42.2261C42.1556 42.3884 41.9354 42.4797 41.7058 42.4797Z" fill="white"/>
</svg>
