<svg width="24" height="24" viewBox="0 0 24 24" fill="none" xmlns="http://www.w3.org/2000/svg">
<g clip-path="url(#clip0_889_20122)">
<path d="M12 24C18.6274 24 24 18.6274 24 12C24 5.37258 18.6274 0 12 0C5.37258 0 0 5.37258 0 12C0 18.6274 5.37258 24 12 24Z" fill="#F0FBFC"/>
<path d="M11.4866 17.9199C8.97993 17.9199 6.94659 15.8799 6.94659 13.3799C6.97326 10.7199 8.27326 8.57985 11.2799 6.30652C11.6733 7.86652 12.7199 8.72652 13.7266 9.55319L13.9199 9.71319C15.0733 10.6599 16.0266 11.5932 16.0266 13.3799C16.0266 15.8865 13.9933 17.9199 11.4866 17.9199Z" fill="#4748FC"/>
<path d="M10.9932 7.27353C11.5398 8.51353 12.4932 9.29353 13.3598 10.0069L13.5532 10.1669C14.6265 11.0535 15.4465 11.8469 15.4465 13.3869C15.4465 15.5669 13.6732 17.3469 11.4865 17.3469C9.29985 17.3469 7.52652 15.5735 7.52652 13.4002C7.54652 11.7469 7.99318 9.7602 10.9932 7.27353ZM11.4798 5.49353C11.4265 5.49353 11.3665 5.51353 11.3265 5.54686C7.55318 8.29353 6.39318 10.7135 6.36652 13.3802C6.36652 16.2069 8.65985 18.5069 11.4932 18.5069C14.3265 18.5069 16.6198 16.2135 16.6198 13.3802C16.6198 11.3002 15.4532 10.2135 14.2998 9.2602C13.1465 8.31353 12.0265 7.48686 11.7665 5.72686C11.7465 5.59353 11.6332 5.49353 11.4998 5.49353C11.4865 5.49353 11.4798 5.49353 11.4798 5.49353Z" fill="#4748FC"/>
<path fill-rule="evenodd" clip-rule="evenodd" d="M15.0731 7.54626C15.1064 7.54626 15.1331 7.55293 15.1598 7.56627C17.0464 8.75293 17.6264 9.80627 17.6398 10.9596C17.6398 12.1863 16.4931 13.1796 15.0798 13.1796C13.6664 13.1796 12.5198 12.1863 12.5198 10.9596C12.5198 10.0596 13.1064 9.58627 13.6798 9.17293C14.2531 8.7596 14.8131 8.40626 14.9464 7.6396C14.9464 7.58626 15.0064 7.54626 15.0731 7.54626Z" fill="#45E4FF"/>
<path fill-rule="evenodd" clip-rule="evenodd" d="M12.2131 16.9331C12.1664 16.9531 12.1131 16.9598 12.0598 16.9598C9.87976 16.9331 8.50643 15.7198 7.9731 13.3464C7.92643 13.1264 8.06643 12.9131 8.27976 12.8598C8.49976 12.8131 8.7131 12.9464 8.75976 13.1664C9.20643 15.1531 10.2864 16.1264 12.0664 16.1464C12.2864 16.1464 12.4664 16.3331 12.4664 16.5531C12.4664 16.7331 12.3598 16.8798 12.2131 16.9331Z" fill="#45E4FF"/>
<path fill-rule="evenodd" clip-rule="evenodd" d="M8.03982 11.9797C8.23316 11.9397 8.42649 12.0663 8.45982 12.2597C8.49982 12.453 8.37316 12.6463 8.17982 12.6797C7.98649 12.7197 7.79316 12.593 7.75982 12.3997C7.71982 12.2063 7.84649 12.0197 8.03982 11.9797Z" fill="#45E4FF"/>
</g>
<defs>
<clipPath id="clip0_889_20122">
<rect width="24" height="24" fill="white"/>
</clipPath>
</defs>
</svg>
