<svg width="24" height="24" viewBox="0 0 24 24" fill="none" xmlns="http://www.w3.org/2000/svg">
<g clip-path="url(#clip0_889_20105)">
<path d="M12 24C18.6274 24 24 18.6274 24 12C24 5.37258 18.6274 0 12 0C5.37258 0 0 5.37258 0 12C0 18.6274 5.37258 24 12 24Z" fill="#F2EDF9"/>
<path d="M10.1733 16.4597H13.8333C14.1 16.4597 14.3133 16.673 14.3133 16.9397V17.5464C14.3133 18.1464 13.28 18.6331 12.0066 18.6331C10.7333 18.6331 9.69998 18.1464 9.69998 17.5464V16.933C9.69331 16.673 9.90665 16.4597 10.1733 16.4597Z" fill="#6138E0"/>
<path d="M12 5.37305C9.32664 5.37305 7.15997 7.53971 7.15997 10.213C7.15997 12.8864 9.32664 15.053 12 15.053C14.6733 15.053 16.84 12.8864 16.84 10.213C16.84 7.53971 14.6733 5.37305 12 5.37305Z" fill="#6138E0"/>
<path fill-rule="evenodd" clip-rule="evenodd" d="M11.3267 8.38611H12.6667C12.72 8.38611 12.7734 8.41277 12.7934 8.46611C12.82 8.51277 12.82 8.57277 12.7867 8.62611L12.1267 9.71944H13.2334C13.3134 9.71944 13.3867 9.76611 13.4267 9.84611C13.46 9.91944 13.4534 10.0128 13.4067 10.0794L11.4934 12.6794C11.4467 12.7394 11.3734 12.7594 11.3067 12.7328C11.24 12.7061 11.2 12.6328 11.2134 12.5528L11.5067 10.2861H10.84C10.7534 10.2861 10.6667 10.2461 10.6134 10.1728C10.56 10.0994 10.54 10.0061 10.56 9.91944L10.8267 8.80611C10.88 8.55944 11.0867 8.38611 11.3267 8.38611Z" fill="#FFC900"/>
<path d="M13.9467 16.3266H10.0533C9.78001 16.3266 9.55334 16.1 9.55334 15.8266V15.7C9.55334 15.4266 9.78001 15.2 10.0533 15.2H13.9467C14.22 15.2 14.4467 15.4266 14.4467 15.7V15.8266C14.4467 16.1 14.2267 16.3266 13.9467 16.3266Z" fill="#6138E0"/>
</g>
<defs>
<clipPath id="clip0_889_20105">
<rect width="24" height="24" fill="white"/>
</clipPath>
</defs>
</svg>
