<svg width="28" height="28" viewBox="0 0 28 28" fill="none"
    xmlns="http://www.w3.org/2000/svg">
    <g clip-path="url(#clip0_7615_7906)">
        <path d="M14 28C21.732 28 28 21.732 28 14C28 6.26801 21.732 0 14 0C6.26801 0 0 6.26801 0 14C0 21.732 6.26801 28 14 28Z" fill="#F0FBFC"/>
        <path d="M19.6958 11.4207C19.2959 11.4207 19.0103 11.308 18.896 11.1179C18.7818 10.9277 18.8389 10.6179 19.0317 10.2799C19.2673 9.87845 19.3245 9.40663 19.2031 8.94888C19.0746 8.49114 18.7818 8.11086 18.3676 7.87846L17.2109 7.22354C16.4469 6.77283 15.4401 7.0334 14.9831 7.801L14.9117 7.92776C14.5118 8.60381 13.9691 8.60381 13.5764 7.92776L13.4978 7.79396C13.0408 7.0334 12.0412 6.77283 11.2771 7.21649L10.1133 7.87142C9.6991 8.10381 9.3992 8.48409 9.27781 8.94184C9.15643 9.39254 9.22069 9.87141 9.44919 10.2728C9.64912 10.6108 9.6991 10.9137 9.58485 11.1108C9.47061 11.301 9.18499 11.4137 8.78512 11.4137C7.80687 11.4137 7 12.2024 7 13.1742V14.3432C7 15.308 7.79973 16.1038 8.78512 16.1038C9.18499 16.1038 9.47061 16.2165 9.58485 16.4066C9.6991 16.5967 9.64198 16.9066 9.44919 17.2446C9.21355 17.646 9.15643 18.1179 9.27781 18.5756C9.40634 19.0333 9.6991 19.4136 10.1133 19.646L11.27 20.3009C11.6413 20.5192 12.0769 20.5826 12.4982 20.47C12.9123 20.3643 13.2622 20.0967 13.4836 19.7305L13.555 19.6038C13.9548 18.9277 14.4975 18.9277 14.8902 19.6038L14.9688 19.7376C15.1901 20.1038 15.54 20.3643 15.9542 20.477C16.097 20.5122 16.2398 20.5333 16.3755 20.5333C16.6611 20.5333 16.9324 20.4629 17.1895 20.3221L18.3534 19.6671C18.7675 19.4347 19.0674 19.0545 19.1888 18.5967C19.3173 18.146 19.2459 17.6671 19.0174 17.2657C18.8175 16.9277 18.7675 16.6249 18.8818 16.4277C18.996 16.2376 19.2816 16.1249 19.6815 16.1249C20.6597 16.1249 21.4666 15.3362 21.4666 14.3643V13.1953C21.4738 12.2094 20.674 11.4207 19.6958 11.4207ZM14.2404 16.2446C12.8481 16.2446 11.7199 15.1319 11.7199 13.7587C11.7199 12.3855 12.8481 11.2728 14.2404 11.2728C15.6328 11.2728 16.761 12.3855 16.761 13.7587C16.761 15.1319 15.6328 16.2446 14.2404 16.2446Z" fill="#4748FC"/>
    </g>
    <defs>
        <clipPath id="clip0_7615_7906">
            <rect width="28" height="28" fill="white"/>
        </clipPath>
    </defs>
</svg>
