<svg width="24" height="24" viewBox="0 0 24 24" fill="none" xmlns="http://www.w3.org/2000/svg">
<g clip-path="url(#clip0_889_20230)">
<path d="M12.0034 0C18.6308 0 24.0067 5.37595 24.0067 12.0034C24.0067 18.6308 18.6308 24.0067 12.0034 24.0067C5.37595 24 0 18.6308 0 12.0034C0 5.37595 5.37595 0 12.0034 0Z" fill="#FCF0F0"/>
<path fill-rule="evenodd" clip-rule="evenodd" d="M18.6307 9.12371C18.4019 8.5518 18.0521 8.0539 17.5945 7.66366C17.0361 7.12539 16.3162 6.82934 15.5626 6.81589H15.4684H15.3405C14.661 6.81589 13.9881 7.02447 13.4162 7.40798C13.1336 7.59638 12.8107 7.70403 12.4743 7.70403H11.5794C11.2363 7.70403 10.8998 7.59638 10.6172 7.39452C9.69546 6.75533 8.54492 6.60058 7.50202 6.97737C6.45913 7.35415 5.63827 8.21538 5.28167 9.31883C4.9789 10.0589 4.83087 10.8596 4.83087 11.667C4.83087 14.3449 5.645 17.2314 7.62986 17.2314C8.7064 17.2314 9.91077 15.7579 10.7855 14.7957C11.0748 14.4727 11.4785 14.2843 11.9024 14.2843H12.0908C12.5146 14.2911 12.9183 14.4727 13.2077 14.8024C14.0823 15.7646 15.2867 17.2381 16.3633 17.2381C18.3548 17.2381 19.1622 14.3516 19.1622 11.6738C19.169 10.7856 18.9873 9.91765 18.6307 9.12371Z" fill="#E530A4"/>
<path fill-rule="evenodd" clip-rule="evenodd" d="M7.8385 9.36606C7.8385 9.0902 8.06053 8.86816 8.3364 8.86816C8.61226 8.86816 8.83429 9.0902 8.83429 9.36606V10.2609H9.64169C9.93101 10.2609 10.1665 10.4964 10.1665 10.7857C10.1665 11.0751 9.93101 11.3106 9.64169 11.3106H8.83429V12.2054C8.83429 12.4813 8.61226 12.7033 8.3364 12.7033C8.06053 12.7033 7.8385 12.4813 7.8385 12.2054V11.3038H7.0311C6.74178 11.3038 6.50629 11.0683 6.50629 10.779C6.50629 10.4897 6.74178 10.2542 7.0311 10.2542H7.8385V9.36606Z" fill="#45E4FF"/>
<path fill-rule="evenodd" clip-rule="evenodd" d="M16.1682 9.73621C16.1682 10.2206 15.7981 10.6042 15.3339 10.6042C14.8764 10.6042 14.4996 10.2139 14.4996 9.73621C14.4996 9.25177 14.8696 8.86825 15.3339 8.86825C15.7914 8.86152 16.1682 9.25177 16.1682 9.73621Z" fill="#45E4FF"/>
<path fill-rule="evenodd" clip-rule="evenodd" d="M18.1666 10.7791C18.1666 11.2635 17.7966 11.647 17.3323 11.647C16.8748 11.647 16.498 11.2568 16.498 10.7791C16.498 10.2946 16.868 9.91113 17.3323 9.91113C17.7898 9.91113 18.1666 10.3014 18.1666 10.7791Z" fill="#45E4FF"/>
<path d="M15.3339 12.6966C15.7947 12.6966 16.1682 12.308 16.1682 11.8286C16.1682 11.3493 15.7947 10.9607 15.3339 10.9607C14.8731 10.9607 14.4996 11.3493 14.4996 11.8286C14.4996 12.308 14.8731 12.6966 15.3339 12.6966Z" fill="#45E4FF"/>
</g>
<defs>
<clipPath id="clip0_889_20230">
<rect width="24" height="24" fill="white"/>
</clipPath>
</defs>
</svg>
