<svg width="24" height="24" viewBox="0 0 24 24" fill="none" xmlns="http://www.w3.org/2000/svg">
<g clip-path="url(#clip0_889_20211)">
<path d="M12 24C18.6274 24 24 18.6274 24 12C24 5.37258 18.6274 0 12 0C5.37258 0 0 5.37258 0 12C0 18.6274 5.37258 24 12 24Z" fill="#F2EDF9"/>
<path d="M16.5467 12.2396L9.96001 14.8663C8.96001 15.2663 7.82001 14.7796 7.42668 13.773L6.16001 10.593C5.76001 9.59296 6.24668 8.45296 7.25335 8.05963L13.84 5.43296C14.84 5.03296 15.98 5.51963 16.3733 6.5263L17.64 9.7063C18.0333 10.7063 17.5467 11.8396 16.5467 12.2396Z" fill="#6138E0"/>
<path d="M16.56 18.7063H7.43998C6.27331 18.7063 5.33331 17.7597 5.33331 16.593V11.9197C5.33331 10.753 6.27998 9.81299 7.43998 9.81299H16.56C17.7266 9.81299 18.6666 10.7597 18.6666 11.9197V16.593C18.6666 17.7597 17.7266 18.7063 16.56 18.7063Z" fill="#FFC900"/>
<path d="M8.35339 14.4468H7.30672C6.88005 14.4468 6.53339 14.1002 6.53339 13.6735V12.6268C6.53339 12.2002 6.88005 11.8535 7.30672 11.8535H8.35339C8.78005 11.8535 9.12672 12.2002 9.12672 12.6268V13.6735C9.12672 14.1002 8.78005 14.4468 8.35339 14.4468Z" fill="#6138E0"/>
<path d="M8.20005 17.2265H7.08672C6.78005 17.2265 6.53339 16.9799 6.53339 16.6732C6.53339 16.3665 6.78005 16.1199 7.08672 16.1199H8.20005C8.50672 16.1199 8.75339 16.3665 8.75339 16.6732C8.76005 16.9732 8.50672 17.2265 8.20005 17.2265Z" fill="#6138E0"/>
<path d="M11.1067 17.2265H9.99334C9.68667 17.2265 9.44 16.9798 9.44 16.6731C9.44 16.3665 9.68667 16.1198 9.99334 16.1198H11.1067C11.4133 16.1198 11.66 16.3665 11.66 16.6731C11.66 16.9731 11.4133 17.2265 11.1067 17.2265Z" fill="#6138E0"/>
<path d="M14.0067 17.2265H12.8934C12.5867 17.2265 12.34 16.9798 12.34 16.6731C12.34 16.3665 12.5867 16.1198 12.8934 16.1198H14.0067C14.3134 16.1198 14.56 16.3665 14.56 16.6731C14.56 16.9731 14.3134 17.2265 14.0067 17.2265Z" fill="#6138E0"/>
<path d="M16.9066 17.2265H15.8C15.4933 17.2265 15.2466 16.9798 15.2466 16.6731C15.2466 16.3665 15.4933 16.1198 15.8 16.1198H16.9133C17.22 16.1198 17.4666 16.3665 17.4666 16.6731C17.4666 16.9731 17.2133 17.2265 16.9066 17.2265Z" fill="#6138E0"/>
</g>
<defs>
<clipPath id="clip0_889_20211">
<rect width="24" height="24" fill="white"/>
</clipPath>
</defs>
</svg>
