<svg width="24" height="24" viewBox="0 0 24 24" fill="none" xmlns="http://www.w3.org/2000/svg">
<mask id="mask0_12969_66196" style="mask-type:luminance" maskUnits="userSpaceOnUse" x="2" y="1" width="20" height="22">
<path fill-rule="evenodd" clip-rule="evenodd" d="M2 1H22V23H2V1Z" fill="white"/>
</mask>
<g mask="url(#mask0_12969_66196)">
<path fill-rule="evenodd" clip-rule="evenodd" d="M11.7361 22.12H12.2735C12.8183 22.0078 13.2233 21.6925 13.6273 21.3603C15.759 19.6073 17.8951 17.8589 20.0312 16.1106C20.5277 15.7043 21.0241 15.2979 21.5205 14.8915C21.758 14.6971 21.9757 14.4965 21.9977 14.1778C22.032 13.6802 21.6852 13.2791 21.1463 13.2529C20.783 13.2353 20.4187 13.2369 20.0545 13.2386C19.8963 13.2393 19.7381 13.24 19.58 13.2391C19.5209 13.2388 19.4619 13.2389 19.3931 13.2389C19.3597 13.239 19.3239 13.239 19.2848 13.239V12.956C19.2848 12.0989 19.2847 11.2418 19.2845 10.3847C19.2842 7.86712 19.2839 5.34954 19.2864 2.83192C19.287 2.2349 19.0943 1.72586 18.5685 1.34938C18.238 1.11273 17.8579 1.00246 17.4448 1.00217C13.8183 0.999811 10.1918 0.998829 6.56538 1.00207C5.57969 1.00295 4.71518 1.68619 4.71997 2.83172C4.73006 5.2024 4.7282 7.57313 4.72634 9.94387C4.72561 10.8791 4.72488 11.8144 4.72488 12.7496V13.2391C4.56239 13.2391 4.40248 13.2385 4.24442 13.2378C3.85087 13.2361 3.46877 13.2345 3.08688 13.2434C2.8977 13.2479 2.69401 13.2701 2.52422 13.3402C1.98757 13.5619 1.82759 14.215 2.21054 14.6246C2.37227 14.7976 2.56088 14.95 2.74878 15.1019C2.79121 15.1362 2.8336 15.1704 2.87563 15.2049C3.75444 15.9257 4.63365 16.6461 5.51288 17.3665C7.19803 18.7472 8.88322 20.128 10.5656 21.5118C10.9114 21.7961 11.2839 22.0186 11.7361 22.12ZM14.1402 6.15486C13.8853 6.15783 13.7027 6.33151 13.5676 6.58733C12.7393 8.15582 11.9085 9.72317 11.0777 11.2905L11.0769 11.2919L10.3881 12.5914C10.2686 12.8169 10.1486 13.0422 10.0285 13.2675C9.76528 13.7615 9.50202 14.2556 9.24404 14.7522C9.02011 15.1831 9.27591 15.6473 9.74798 15.6738C10.0828 15.6926 10.2787 15.5048 10.4216 15.2343C11.4497 13.2895 12.4795 11.3456 13.5093 9.40168L13.5101 9.4003L14.7044 7.1456C14.7346 7.08822 14.765 7.03043 14.7875 6.97018C14.9349 6.57505 14.6368 6.16192 14.1402 6.15486ZM9.05551 6.79909C10.3157 6.79971 11.3441 7.78861 11.3416 8.99742C11.3392 10.2069 10.3088 11.1898 9.04656 11.1867C7.79451 11.1839 6.76 10.1815 6.76682 8.97809C6.77364 7.78769 7.81263 6.79848 9.05551 6.79909ZM14.9618 10.6404C16.2045 10.6483 17.2393 11.6421 17.2428 12.8312C17.2466 14.0294 16.2033 15.0367 14.9566 15.0388C13.7069 15.041 12.6666 14.0402 12.6678 12.837C12.6689 11.634 13.7147 10.6326 14.9618 10.6404Z" fill="url(#paint0_linear_12969_66196)"/>
<path d="M9.04591 8.02211C9.59216 8.01311 10.0625 8.45345 10.0715 8.98226C10.0802 9.50505 9.6203 9.95582 9.0684 9.96543C8.51981 9.97505 8.05649 9.53767 8.04988 9.00385C8.04316 8.46981 8.48805 8.03142 9.04591 8.02211Z" fill="url(#paint1_linear_12969_66196)"/>
<path d="M14.957 13.8069C14.4007 13.8082 13.9416 13.374 13.938 12.8433C13.9346 12.3157 14.395 11.8726 14.9487 11.8706C15.5065 11.8688 15.9585 12.2997 15.961 12.8356C15.9632 13.3722 15.5152 13.8055 14.957 13.8069Z" fill="url(#paint2_linear_12969_66196)"/>
</g>
<defs>
<linearGradient id="paint0_linear_12969_66196" x1="-5.63908" y1="1.21875" x2="-5.63908" y2="40.0246" gradientUnits="userSpaceOnUse">
<stop stop-color="#7882F5"/>
<stop offset="1" stop-color="#444FC2"/>
</linearGradient>
<linearGradient id="paint1_linear_12969_66196" x1="7.27757" y1="8.0413" x2="7.27757" y2="11.4697" gradientUnits="userSpaceOnUse">
<stop stop-color="#7882F5"/>
<stop offset="1" stop-color="#444FC2"/>
</linearGradient>
<linearGradient id="paint2_linear_12969_66196" x1="13.1653" y1="11.8899" x2="13.1653" y2="15.3053" gradientUnits="userSpaceOnUse">
<stop stop-color="#7882F5"/>
<stop offset="1" stop-color="#444FC2"/>
</linearGradient>
</defs>
</svg>
