<svg width="34" height="34" viewBox="0 0 34 34" fill="none" xmlns="http://www.w3.org/2000/svg">
<rect width="34" height="34" rx="8" fill="#E6F9E6"/>
<mask id="mask0_22055_17226" style="mask-type:luminance" maskUnits="userSpaceOnUse" x="5" y="4" width="24" height="26">
<path fill-rule="evenodd" clip-rule="evenodd" d="M5.6665 4.72223H28.3332V29.6556H5.6665V4.72223Z" fill="white"/>
</mask>
<g mask="url(#mask0_22055_17226)">
<path fill-rule="evenodd" clip-rule="evenodd" d="M16.7008 28.6582H17.3098C17.9272 28.531 18.3862 28.1737 18.8441 27.7972C21.2598 25.8107 23.6804 23.8295 26.101 21.8483C26.6639 21.3875 27.2269 20.9268 27.7897 20.466C28.0589 20.2456 28.3056 20.0183 28.3305 19.657C28.3694 19.0931 27.9764 18.6385 27.3656 18.6088C26.9539 18.5889 26.5411 18.5907 26.1283 18.5926C25.949 18.5934 25.7697 18.5942 25.5905 18.5932C25.5236 18.5929 25.4566 18.5929 25.3788 18.593C25.3408 18.5931 25.3003 18.5931 25.2559 18.5931V18.2724C25.2559 17.3006 25.2558 16.3289 25.2557 15.3572C25.2553 12.5042 25.2549 9.65135 25.2577 6.7984C25.2584 6.12178 25.04 5.54487 24.4442 5.1182C24.0696 4.84999 23.6388 4.72502 23.1706 4.72469C19.0605 4.72201 14.9506 4.7209 10.8406 4.72457C9.72348 4.72558 8.7437 5.49991 8.74914 6.79818C8.76057 9.48494 8.75847 12.1718 8.75636 14.8586C8.75553 15.9186 8.7547 16.9785 8.7547 18.0385V18.5932C8.57054 18.5932 8.3893 18.5925 8.21015 18.5917C7.76414 18.5899 7.3311 18.588 6.8983 18.5981C6.68389 18.6031 6.45305 18.6283 6.26062 18.7078C5.65242 18.959 5.4711 19.6992 5.90512 20.1635C6.08841 20.3595 6.30218 20.5323 6.51513 20.7044C6.56321 20.7432 6.61125 20.782 6.65889 20.8211C7.65488 21.638 8.65134 22.4545 9.64781 23.2709C11.5576 24.8358 13.4675 26.4006 15.3742 27.9689C15.7661 28.2911 16.1882 28.5433 16.7008 28.6582ZM19.4251 10.5645C19.1361 10.5678 18.9292 10.7647 18.7761 11.0546C17.8371 12.8326 16.8953 14.6093 15.9536 16.3859L15.9533 16.3864L15.1727 17.8592C15.0372 18.1148 14.9012 18.37 14.7652 18.6253L14.7651 18.6254L14.7651 18.6255C14.4668 19.1854 14.1684 19.7453 13.8761 20.3081C13.6223 20.7965 13.9122 21.3225 14.4472 21.3526C14.8266 21.3739 15.0486 21.1611 15.2106 20.8544C16.3759 18.6503 17.5431 16.4471 18.7102 14.2439L18.7108 14.2427L20.0644 11.6873C20.0987 11.6223 20.1332 11.5568 20.1586 11.4885C20.3257 11.0407 19.9878 10.5725 19.4251 10.5645ZM13.6625 11.2947C15.0907 11.2954 16.2563 12.4162 16.2535 13.7861C16.2507 15.1569 15.083 16.2708 13.6524 16.2674C12.2334 16.2641 11.0609 15.1281 11.0687 13.7642C11.0764 12.4151 12.2539 11.294 13.6625 11.2947ZM20.3566 15.6481C21.765 15.657 22.9378 16.7833 22.9418 18.1309C22.946 19.489 21.7637 20.6305 20.3507 20.6329C18.9344 20.6353 17.7554 19.5011 17.7568 18.1375C17.758 16.7741 18.9432 15.6392 20.3566 15.6481Z" fill="url(#paint0_linear_22055_17226)"/>
<path d="M13.6519 12.6807C14.271 12.6705 14.804 13.1695 14.8142 13.7689C14.8241 14.3614 14.3028 14.8722 13.6774 14.8831C13.0556 14.894 12.5305 14.3983 12.523 13.7933C12.5154 13.1881 13.0196 12.6912 13.6519 12.6807Z" fill="url(#paint1_linear_22055_17226)"/>
<path d="M13.6519 12.6807C14.271 12.6705 14.804 13.1695 14.8142 13.7689C14.8241 14.3614 14.3028 14.8722 13.6774 14.8831C13.0556 14.894 12.5305 14.3983 12.523 13.7933C12.5154 13.1881 13.0196 12.6912 13.6519 12.6807Z" fill="url(#paint2_linear_22055_17226)"/>
<path d="M20.3511 19.2367C19.7207 19.2382 19.2004 18.7461 19.1963 18.1447C19.1924 17.5466 19.7143 17.0444 20.3418 17.0422C20.9739 17.0402 21.4862 17.5285 21.489 18.1359C21.4916 18.744 20.9838 19.2352 20.3511 19.2367Z" fill="url(#paint3_linear_22055_17226)"/>
<path d="M20.3511 19.2367C19.7207 19.2382 19.2004 18.7461 19.1963 18.1447C19.1924 17.5466 19.7143 17.0444 20.3418 17.0422C20.9739 17.0402 21.4862 17.5285 21.489 18.1359C21.4916 18.744 20.9838 19.2352 20.3511 19.2367Z" fill="url(#paint4_linear_22055_17226)"/>
</g>
<defs>
<linearGradient id="paint0_linear_22055_17226" x1="17.0003" y1="5.43497" x2="17.0003" y2="46.5149" gradientUnits="userSpaceOnUse">
<stop offset="0.00167605" stop-color="#44E600"/>
<stop offset="1" stop-color="#00E300"/>
</linearGradient>
<linearGradient id="paint1_linear_22055_17226" x1="11.6478" y1="12.7024" x2="11.6478" y2="16.5879" gradientUnits="userSpaceOnUse">
<stop stop-color="#7882F5"/>
<stop offset="1" stop-color="#444FC2"/>
</linearGradient>
<linearGradient id="paint2_linear_22055_17226" x1="13.6687" y1="12.7461" x2="13.6687" y2="16.5266" gradientUnits="userSpaceOnUse">
<stop offset="0.00167605" stop-color="#44E600"/>
<stop offset="1" stop-color="#00E300"/>
</linearGradient>
<linearGradient id="paint3_linear_22055_17226" x1="18.3206" y1="17.0641" x2="18.3206" y2="20.9349" gradientUnits="userSpaceOnUse">
<stop stop-color="#7882F5"/>
<stop offset="1" stop-color="#444FC2"/>
</linearGradient>
<linearGradient id="paint4_linear_22055_17226" x1="20.3427" y1="17.1076" x2="20.3427" y2="20.8738" gradientUnits="userSpaceOnUse">
<stop offset="0.00167605" stop-color="#44E600"/>
<stop offset="1" stop-color="#00E300"/>
</linearGradient>
</defs>
</svg>
