<svg width="24" height="24" viewBox="0 0 24 24" fill="none" xmlns="http://www.w3.org/2000/svg">
<path d="M21.9872 7.17802C21.9371 6.97081 21.9006 6.75634 21.8249 6.56258C21.4426 5.5847 20.7833 5.06399 19.8596 5.00615C19.6715 4.99434 19.4822 5.00318 19.2935 5.00318C14.2883 5.00312 9.28318 5.00269 4.27797 5.00348C3.23859 5.00366 2.41115 5.67894 2.10672 6.7733C2.06943 6.90746 2.04161 7.04519 2.01083 7.18177C2.00375 7.21333 2 7.24573 2 7.27832V8.62137C2 8.79369 2.09823 8.95159 2.24297 8.98878C2.25917 8.9929 2.27536 8.99526 2.29156 8.99532C8.76385 9.00156 15.2361 9.00156 21.7084 8.99532C21.7246 8.99526 21.7408 8.9929 21.757 8.98878C21.9017 8.95159 22 8.79369 22 8.62137V7.2825C22 7.24713 21.9955 7.21206 21.9872 7.17802Z" fill="url(#paint0_linear_12969_66183)"/>
<mask id="mask0_12969_66183" style="mask-type:luminance" maskUnits="userSpaceOnUse" x="2" y="10" width="20" height="9">
<path fill-rule="evenodd" clip-rule="evenodd" d="M2 10H22V19H2V10Z" fill="white"/>
</mask>
<g mask="url(#mask0_12969_66183)">
<path fill-rule="evenodd" clip-rule="evenodd" d="M21.7085 10.004C21.7247 10.004 21.7409 10.0061 21.7571 10.0096C21.9018 10.0414 22 10.1761 22 10.3232V16.7803C22 17.0183 21.9678 17.2561 21.8945 17.4827L21.8933 17.4866C21.5886 18.4231 20.7638 18.9986 19.7228 18.9987C15.7943 18.9993 11.8658 18.9992 7.93737 18.9991C6.76319 18.999 5.58902 18.999 4.41484 18.999C4.38816 18.999 4.36145 18.9992 4.33474 18.9995C4.26375 19.0002 4.19272 19.0009 4.12203 18.9965C3.25859 18.9429 2.61562 18.5422 2.22708 17.7722C2.17182 17.6626 2.1325 17.5451 2.09703 17.4256C2.03198 17.2067 2 16.9794 2 16.7512V10.3231C2 10.1761 2.09813 10.0413 2.24276 10.0096C2.25896 10.0061 2.27516 10.004 2.29135 10.004C8.76375 9.99866 15.2361 9.99866 21.7085 10.004ZM18.1619 13.1341H16.4117V14.0141H18.0571V14.6594H16.4117V15.6035H18.1619V16.2489H15.6152V12.4888H18.1619V13.1341ZM15.0549 13.1343H13.3047V14.0143H14.9501V14.6596H13.3047V15.6037H15.0549V16.2491H12.5082V12.489H15.0549V13.1343ZM10.5118 15.0491L11.1512 16.2491H12.042L11.4447 15.1344C11.3118 14.9033 11.1494 14.7629 10.9573 14.713C11.2403 14.6526 11.4594 14.5263 11.615 14.3344C11.7703 14.1424 11.8481 13.9042 11.8481 13.6196C11.8481 13.2535 11.7372 12.9735 11.5153 12.7796C11.2935 12.5858 10.966 12.489 10.5329 12.489H8.83502V16.2491H9.64205V14.7877H10.0455C10.1573 14.7877 10.2499 14.8082 10.3233 14.8491C10.3966 14.89 10.4594 14.9567 10.5118 15.0491ZM8.33204 13.145H6.64475V14.009H8.22725V14.6651H6.64475V16.2491H5.83777V12.489H8.33204V13.145Z" fill="url(#paint1_linear_12969_66183)"/>
<path d="M11.0776 13.6409C11.0776 13.4595 11.0252 13.3281 10.9204 13.2462C10.8156 13.1645 10.6461 13.1235 10.4121 13.1235H9.63135V14.1583H10.4121C10.6461 14.1583 10.8156 14.1165 10.9204 14.0329C11.0252 13.9494 11.0776 13.8187 11.0776 13.6409Z" fill="url(#paint2_linear_12969_66183)"/>
</g>
<defs>
<linearGradient id="paint0_linear_12969_66183" x1="-5.63908" y1="5.03977" x2="-5.63908" y2="12.0954" gradientUnits="userSpaceOnUse">
<stop stop-color="#7882F5"/>
<stop offset="1" stop-color="#444FC2"/>
</linearGradient>
<linearGradient id="paint1_linear_12969_66183" x1="-5.63908" y1="10.0917" x2="-5.63908" y2="26.3637" gradientUnits="userSpaceOnUse">
<stop stop-color="#7882F5"/>
<stop offset="1" stop-color="#444FC2"/>
</linearGradient>
<linearGradient id="paint2_linear_12969_66183" x1="9.07895" y1="13.1338" x2="9.07895" y2="14.959" gradientUnits="userSpaceOnUse">
<stop stop-color="#7882F5"/>
<stop offset="1" stop-color="#444FC2"/>
</linearGradient>
</defs>
</svg>
