<svg width="34" height="34" viewBox="0 0 34 34" fill="none" xmlns="http://www.w3.org/2000/svg">
<rect width="34" height="34" rx="8" fill="#E6F9E6"/>
<path d="M28.3158 10.5176C28.2476 10.2358 28.198 9.94416 28.095 9.68065C27.5751 8.35073 26.6785 7.64257 25.4223 7.5639C25.1664 7.54784 24.909 7.55987 24.6523 7.55987C17.8453 7.55978 15.5716 7.55921 8.76454 7.56028C7.35099 7.56052 6.22566 8.47891 5.81164 9.96723C5.76092 10.1497 5.7231 10.337 5.68124 10.5228C5.6716 10.5657 5.6665 10.6097 5.6665 10.6541V12.4806C5.6665 12.715 5.8001 12.9297 5.99694 12.9803C6.01897 12.9859 6.041 12.9891 6.06303 12.9892C14.8653 12.9977 19.1343 12.9977 27.9366 12.9892C27.9586 12.9891 27.9807 12.9859 28.0027 12.9803C28.1995 12.9297 28.3332 12.715 28.3332 12.4806V10.6597C28.3332 10.6116 28.327 10.5639 28.3158 10.5176Z" fill="url(#paint0_linear_22055_17227)"/>
<path d="M28.3158 10.5176C28.2476 10.2358 28.198 9.94416 28.095 9.68065C27.5751 8.35073 26.6785 7.64257 25.4223 7.5639C25.1664 7.54784 24.909 7.55987 24.6523 7.55987C17.8453 7.55978 15.5716 7.55921 8.76454 7.56028C7.35099 7.56052 6.22566 8.47891 5.81164 9.96723C5.76092 10.1497 5.7231 10.337 5.68124 10.5228C5.6716 10.5657 5.6665 10.6097 5.6665 10.6541V12.4806C5.6665 12.715 5.8001 12.9297 5.99694 12.9803C6.01897 12.9859 6.041 12.9891 6.06303 12.9892C14.8653 12.9977 19.1343 12.9977 27.9366 12.9892C27.9586 12.9891 27.9807 12.9859 28.0027 12.9803C28.1995 12.9297 28.3332 12.715 28.3332 12.4806V10.6597C28.3332 10.6116 28.327 10.5639 28.3158 10.5176Z" fill="url(#paint1_linear_22055_17227)"/>
<path fill-rule="evenodd" clip-rule="evenodd" d="M27.9368 14.361C27.9587 14.361 27.9808 14.3638 28.0029 14.3685C28.1996 14.4118 28.3332 14.595 28.3332 14.7951V23.5767C28.3332 23.9004 28.2893 24.2238 28.1897 24.5321L28.188 24.5373C27.7737 25.8109 26.6519 26.5936 25.2362 26.5938C20.1527 26.5945 17.5018 26.5944 13.7198 26.5943C12.3387 26.5942 10.8069 26.5942 8.95069 26.5942C8.9144 26.5942 8.87807 26.5945 8.84174 26.5949C8.7452 26.5958 8.64861 26.5967 8.55247 26.5907C7.37819 26.5179 6.50375 25.9729 5.97534 24.9257C5.90018 24.7767 5.8467 24.6168 5.79847 24.4543C5.71 24.1567 5.6665 23.8475 5.6665 23.5372V14.795C5.6665 14.595 5.79995 14.4117 5.99666 14.3685C6.01869 14.3638 6.04072 14.361 6.06275 14.361C14.8652 14.3537 19.1343 14.3537 27.9368 14.361ZM25.3803 18.618H23V19.8148H25.2377V20.6925H23V21.9764H25.3803V22.8541H21.9168V17.7403H25.3803V18.618ZM21.1547 18.6183H18.7745V19.8151H21.0122V20.6927H18.7745V21.9766H21.1547V22.8543H17.6913V17.7406H21.1547V18.6183ZM14.9768 21.2223L15.8462 22.8543H17.0578L16.2455 21.3383C16.0647 21.024 15.8438 20.8331 15.5826 20.7652C15.9674 20.6831 16.2655 20.5113 16.477 20.2503C16.6883 19.9891 16.7941 19.6653 16.7941 19.2782C16.7941 18.7803 16.6433 18.3995 16.3414 18.1358C16.0398 17.8723 15.5944 17.7405 15.0054 17.7405H12.6963V22.8543H13.7939V20.8668H14.3425C14.4945 20.8668 14.6205 20.8947 14.7203 20.9503C14.82 21.0059 14.9055 21.0966 14.9768 21.2223ZM12.0116 18.6328H9.71693V19.8078H11.8691V20.7001H9.71693V22.8543H8.61944V17.7406H12.0116V18.6328Z" fill="url(#paint2_linear_22055_17227)"/>
<path fill-rule="evenodd" clip-rule="evenodd" d="M27.9368 14.361C27.9587 14.361 27.9808 14.3638 28.0029 14.3685C28.1996 14.4118 28.3332 14.595 28.3332 14.7951V23.5767C28.3332 23.9004 28.2893 24.2238 28.1897 24.5321L28.188 24.5373C27.7737 25.8109 26.6519 26.5936 25.2362 26.5938C20.1527 26.5945 17.5018 26.5944 13.7198 26.5943C12.3387 26.5942 10.8069 26.5942 8.95069 26.5942C8.9144 26.5942 8.87807 26.5945 8.84174 26.5949C8.7452 26.5958 8.64861 26.5967 8.55247 26.5907C7.37819 26.5179 6.50375 25.9729 5.97534 24.9257C5.90018 24.7767 5.8467 24.6168 5.79847 24.4543C5.71 24.1567 5.6665 23.8475 5.6665 23.5372V14.795C5.6665 14.595 5.79995 14.4117 5.99666 14.3685C6.01869 14.3638 6.04072 14.361 6.06275 14.361C14.8652 14.3537 19.1343 14.3537 27.9368 14.361ZM25.3803 18.618H23V19.8148H25.2377V20.6925H23V21.9764H25.3803V22.8541H21.9168V17.7403H25.3803V18.618ZM21.1547 18.6183H18.7745V19.8151H21.0122V20.6927H18.7745V21.9766H21.1547V22.8543H17.6913V17.7406H21.1547V18.6183ZM14.9768 21.2223L15.8462 22.8543H17.0578L16.2455 21.3383C16.0647 21.024 15.8438 20.8331 15.5826 20.7652C15.9674 20.6831 16.2655 20.5113 16.477 20.2503C16.6883 19.9891 16.7941 19.6653 16.7941 19.2782C16.7941 18.7803 16.6433 18.3995 16.3414 18.1358C16.0398 17.8723 15.5944 17.7405 15.0054 17.7405H12.6963V22.8543H13.7939V20.8668H14.3425C14.4945 20.8668 14.6205 20.8947 14.7203 20.9503C14.82 21.0059 14.9055 21.0966 14.9768 21.2223ZM12.0116 18.6328H9.71693V19.8078H11.8691V20.7001H9.71693V22.8543H8.61944V17.7406H12.0116V18.6328Z" fill="url(#paint3_linear_22055_17227)"/>
<path d="M15.7457 19.3072C15.7457 19.0606 15.6745 18.8818 15.5319 18.7705C15.3894 18.6594 15.1589 18.6036 14.8407 18.6036H13.7788V20.0109H14.8407C15.1589 20.0109 15.3894 19.9541 15.5319 19.8404C15.6745 19.7268 15.7457 19.549 15.7457 19.3072Z" fill="url(#paint4_linear_22055_17227)"/>
<path d="M15.7457 19.3072C15.7457 19.0606 15.6745 18.8818 15.5319 18.7705C15.3894 18.6594 15.1589 18.6036 14.8407 18.6036H13.7788V20.0109H14.8407C15.1589 20.0109 15.3894 19.9541 15.5319 19.8404C15.6745 19.7268 15.7457 19.549 15.7457 19.3072Z" fill="url(#paint5_linear_22055_17227)"/>
<defs>
<linearGradient id="paint0_linear_22055_17227" x1="-6.9893" y1="7.60963" x2="-6.9893" y2="17.2053" gradientUnits="userSpaceOnUse">
<stop stop-color="#7882F5"/>
<stop offset="1" stop-color="#444FC2"/>
</linearGradient>
<linearGradient id="paint1_linear_22055_17227" x1="17.0004" y1="7.71753" x2="17.0004" y2="17.0539" gradientUnits="userSpaceOnUse">
<stop offset="0.00167605" stop-color="#44E600"/>
<stop offset="1" stop-color="#00E300"/>
</linearGradient>
<linearGradient id="paint2_linear_22055_17227" x1="-2.99111" y1="14.4803" x2="-2.99111" y2="36.6101" gradientUnits="userSpaceOnUse">
<stop stop-color="#7882F5"/>
<stop offset="1" stop-color="#444FC2"/>
</linearGradient>
<linearGradient id="paint3_linear_22055_17227" x1="17.0003" y1="14.72" x2="17.0003" y2="35.7268" gradientUnits="userSpaceOnUse">
<stop offset="0.00167605" stop-color="#44E600"/>
<stop offset="1" stop-color="#00E300"/>
</linearGradient>
<linearGradient id="paint4_linear_22055_17227" x1="13.0275" y1="18.6176" x2="13.0275" y2="21.0999" gradientUnits="userSpaceOnUse">
<stop stop-color="#7882F5"/>
<stop offset="1" stop-color="#444FC2"/>
</linearGradient>
<linearGradient id="paint5_linear_22055_17227" x1="14.7623" y1="18.6455" x2="14.7623" y2="21.0607" gradientUnits="userSpaceOnUse">
<stop offset="0.00167605" stop-color="#44E600"/>
<stop offset="1" stop-color="#00E300"/>
</linearGradient>
</defs>
</svg>
