<svg width="24" height="24" viewBox="0 0 24 24" fill="none" xmlns="http://www.w3.org/2000/svg">
<path fill-rule="evenodd" clip-rule="evenodd" d="M12.625 2H11.375C11.2568 2.01612 11.1385 2.03136 11.0201 2.04659C10.7653 2.07938 10.5106 2.11217 10.2572 2.15385C6.26354 2.81089 2.94026 6.06224 2.19396 10.0466C2.13767 10.347 2.09752 10.6504 2.05737 10.9539C2.03878 11.0943 2.02019 11.2348 2 11.375V12.625C2.01638 12.7452 2.03194 12.8655 2.04751 12.9858C2.08105 13.245 2.11459 13.5042 2.15625 13.7621C2.78484 17.6556 5.9987 20.9917 9.87578 21.7677C10.1793 21.8284 10.4869 21.8683 10.7946 21.9081C10.9447 21.9275 11.0948 21.9469 11.2444 21.9688C11.2744 21.9732 11.304 21.9812 11.3335 21.9892C11.3473 21.9929 11.3611 21.9966 11.375 22H12.625C12.7425 21.9839 12.86 21.9687 12.9776 21.9534C13.2329 21.9202 13.4882 21.887 13.7422 21.8458C17.645 21.2129 20.9546 18.0461 21.7617 14.1637C21.8258 13.8555 21.866 13.5424 21.9063 13.2294C21.9257 13.0781 21.9451 12.9268 21.9672 12.7761C21.9724 12.7413 21.9806 12.707 21.9889 12.6727C21.9927 12.6568 21.9965 12.6409 22 12.625V11.375C21.9841 11.2588 21.9692 11.1424 21.9543 11.026C21.9222 10.7755 21.8901 10.525 21.8484 10.2761C21.1957 6.37865 18.1662 3.15536 14.3144 2.27479C13.972 2.19649 13.6223 2.14952 13.2727 2.10254C13.1068 2.08024 12.9408 2.05794 12.7756 2.03229C12.741 2.02693 12.7069 2.01893 12.6728 2.01093C12.6569 2.0072 12.641 2.00347 12.625 2ZM14.2781 12.544C14.6292 13.0145 14.8144 13.6036 14.8123 14.1858C14.8079 15.3926 14.0574 16.4493 12.9053 16.842C12.6864 16.9166 12.5979 17.0274 12.6226 17.2519C12.6349 17.3642 12.6298 17.479 12.6248 17.5926C12.6244 17.6026 12.6239 17.6126 12.6235 17.6226C12.6082 17.9753 12.3351 18.2488 12.002 18.2497C11.6532 18.2506 11.3839 17.9777 11.3757 17.6121C11.3751 17.5854 11.3743 17.5587 11.3735 17.532C11.3702 17.4218 11.3669 17.3112 11.3776 17.2022C11.3971 17.0019 11.3013 16.9131 11.1218 16.8511C10.1818 16.5261 9.56819 15.8805 9.2923 14.9261C9.2298 14.7101 9.20402 14.4792 9.19272 14.2536C9.17319 13.8648 9.44772 13.5678 9.80434 13.563C10.1594 13.5581 10.4215 13.8272 10.4382 14.2138C10.4744 15.0522 11.1088 15.7109 11.9153 15.7475C12.782 15.7869 13.5282 15.1147 13.5604 14.2657C13.5941 13.3782 12.9185 12.6458 12.033 12.6278C11.0708 12.6083 10.2905 12.2311 9.72215 11.4549C8.61012 9.93634 9.31053 7.74837 11.0948 7.15764C11.3 7.08967 11.4037 6.99186 11.3777 6.76753C11.3645 6.65302 11.3696 6.53586 11.3747 6.41966C11.3753 6.40553 11.3759 6.39142 11.3765 6.37733C11.3911 6.0242 11.6629 5.75191 11.9974 5.75045C12.3459 5.74894 12.6152 6.02144 12.6242 6.38733C12.6249 6.41265 12.6258 6.43804 12.6267 6.46345C12.6301 6.56206 12.6336 6.66098 12.6225 6.75805C12.5976 6.97649 12.687 7.08201 12.8961 7.15498C13.8271 7.48019 14.4344 8.12602 14.7069 9.07352C14.7691 9.28972 14.7957 9.52035 14.8071 9.74597C14.827 10.1347 14.5519 10.4325 14.1956 10.437C13.84 10.4416 13.5786 10.1732 13.5618 9.78634C13.5248 8.93238 12.8689 8.268 12.046 8.25118C11.1855 8.23352 10.4618 8.91003 10.4391 9.75326C10.4155 10.6322 11.0891 11.3544 11.9665 11.3722C12.9287 11.3916 13.7026 11.7727 14.2781 12.544Z" fill="url(#paint0_linear_12969_66177)"/>
<defs>
<linearGradient id="paint0_linear_12969_66177" x1="-5.63908" y1="2.19886" x2="-5.63908" y2="37.477" gradientUnits="userSpaceOnUse">
<stop stop-color="#7882F5"/>
<stop offset="1" stop-color="#444FC2"/>
</linearGradient>
</defs>
</svg>
