<svg width="34" height="34" viewBox="0 0 34 34" fill="none" xmlns="http://www.w3.org/2000/svg">
<rect width="34" height="34" rx="8" fill="#E6F9E6"/>
<path fill-rule="evenodd" clip-rule="evenodd" d="M17.7673 4.72223H16.2326C16.0875 4.74203 15.9422 4.76073 15.7969 4.77943C15.4841 4.81969 15.1712 4.85995 14.8602 4.91113C9.95685 5.71782 5.8766 9.70976 4.96031 14.6017C4.8912 14.9705 4.8419 15.343 4.7926 15.7156C4.76978 15.8881 4.74696 16.0605 4.72217 16.2326V17.7674C4.74227 17.9149 4.76139 18.0626 4.7805 18.2103C4.82168 18.5286 4.86286 18.8469 4.91401 19.1635C5.68578 23.9439 9.63168 28.0398 14.3919 28.9926C14.7645 29.0672 15.1422 29.116 15.5199 29.1649C15.7042 29.1888 15.8885 29.2126 16.0722 29.2395C16.1091 29.2449 16.1454 29.2547 16.1816 29.2645C16.1986 29.2691 16.2156 29.2737 16.2326 29.2778H17.7673C17.9115 29.2581 18.0559 29.2393 18.2002 29.2205C18.5137 29.1798 18.8271 29.1391 19.139 29.0885C23.9307 28.3114 27.9942 24.4233 28.9852 19.6565C29.0639 19.2782 29.1132 18.8938 29.1626 18.5094C29.1865 18.3236 29.2103 18.1379 29.2375 17.9529C29.2438 17.9101 29.2539 17.868 29.2641 17.8259C29.2687 17.8064 29.2734 17.7869 29.2777 17.7674V16.2326C29.2582 16.09 29.2399 15.9471 29.2216 15.8042C29.1822 15.4966 29.1428 15.1891 29.0916 14.8835C28.2902 10.0982 24.5706 6.14076 19.8416 5.05961C19.4211 4.96348 18.9918 4.90581 18.5626 4.84813C18.3588 4.82075 18.155 4.79337 17.9522 4.76188C17.9098 4.75529 17.8679 4.74547 17.826 4.73565C17.8065 4.73107 17.7869 4.72648 17.7673 4.72223ZM19.7974 17.668C20.2285 18.2456 20.4559 18.9689 20.4532 19.6836C20.4479 21.1653 19.5265 22.4627 18.1119 22.9449C17.8432 23.0365 17.7345 23.1726 17.7648 23.4481C17.7799 23.5861 17.7737 23.7269 17.7675 23.8665C17.767 23.8788 17.7665 23.891 17.7659 23.9033C17.7471 24.3363 17.4119 24.6722 17.0029 24.6732C16.5746 24.6744 16.244 24.3393 16.2339 23.8904C16.2332 23.8576 16.2322 23.8248 16.2312 23.792C16.2271 23.6567 16.2231 23.521 16.2362 23.3872C16.2602 23.1412 16.1426 23.0322 15.9222 22.956C14.7681 22.5571 14.0147 21.7643 13.676 20.5926C13.5992 20.3274 13.5676 20.0439 13.5537 19.7669C13.5297 19.2896 13.8668 18.925 14.3046 18.919C14.7405 18.913 15.0623 19.2434 15.0829 19.718C15.1273 20.7474 15.9062 21.5561 16.8964 21.6011C17.9605 21.6495 18.8768 20.8242 18.9163 19.7817C18.9576 18.6921 18.1281 17.7929 17.041 17.7709C15.8596 17.7469 14.9015 17.2837 14.2037 16.3308C12.8384 14.4663 13.6983 11.7799 15.889 11.0547C16.1409 10.9712 16.2683 10.8511 16.2364 10.5757C16.2201 10.4351 16.2264 10.2912 16.2326 10.1486C16.2334 10.1312 16.2341 10.1139 16.2349 10.0966C16.2528 9.66304 16.5865 9.32873 16.9972 9.32694C17.4251 9.32508 17.7557 9.65965 17.7668 10.1089C17.7676 10.14 17.7687 10.1711 17.7698 10.2023C17.774 10.3234 17.7783 10.4449 17.7647 10.5641C17.7341 10.8322 17.8439 10.9618 18.1006 11.0514C19.2437 11.4507 19.9894 12.2436 20.3239 13.4069C20.4002 13.6724 20.4329 13.9555 20.447 14.2326C20.4713 14.7098 20.1336 15.0754 19.6961 15.081C19.2595 15.0866 18.9385 14.757 18.9179 14.2821C18.8725 13.2336 18.0672 12.4179 17.0569 12.3973C16.0004 12.3756 15.1119 13.2062 15.084 14.2415C15.055 15.3207 15.882 16.2074 16.9592 16.2292C18.1407 16.253 19.0908 16.7209 19.7974 17.668Z" fill="url(#paint0_linear_22055_17228)"/>
<defs>
<linearGradient id="paint0_linear_22055_17228" x1="17.0005" y1="5.45341" x2="17.0005" y2="47.5966" gradientUnits="userSpaceOnUse">
<stop offset="0.00167605" stop-color="#44E600"/>
<stop offset="1" stop-color="#00E300"/>
</linearGradient>
</defs>
</svg>
