<svg width="18" height="18" viewBox="0 0 18 18" fill="none" xmlns="http://www.w3.org/2000/svg">
<path fill-rule="evenodd" clip-rule="evenodd" d="M7.23119 11.6714C4.02784 11.6714 1.29199 12.1556 1.29199 14.0955C1.29199 16.0347 4.01034 16.5371 7.23119 16.5371C10.4345 16.5371 13.1704 16.0522 13.1704 14.113C13.1704 12.1739 10.452 11.6714 7.23119 11.6714Z" stroke="white" stroke-width="1.5" stroke-linecap="round" stroke-linejoin="round"/>
<path fill-rule="evenodd" clip-rule="evenodd" d="M7.231 8.90462C9.34435 8.90462 11.0377 7.2105 11.0377 5.09806C11.0377 2.98479 9.34435 1.2915 7.231 1.2915C5.11849 1.2915 3.42432 2.98479 3.42432 5.09806C3.42432 7.2105 5.11849 8.90462 7.231 8.90462Z" stroke="white" stroke-width="1.5" stroke-linecap="round" stroke-linejoin="round"/>
<path d="M15.0036 6.22406V9.56563" stroke="white" stroke-width="1.5" stroke-linecap="round" stroke-linejoin="round"/>
<path d="M16.7086 7.89474H13.3003" stroke="white" stroke-width="1.75" stroke-linecap="round" stroke-linejoin="round"/>
</svg>
