<svg width="16" height="16" viewBox="0 0 16 16" fill="none" xmlns="http://www.w3.org/2000/svg">
<path fill-rule="evenodd" clip-rule="evenodd" d="M7.99992 1.8335C11.4059 1.8335 14.1666 4.59483 14.1666 8.00016C14.1666 11.4055 11.4059 14.1668 7.99992 14.1668C4.59459 14.1668 1.83325 11.4055 1.83325 8.00016C1.83325 4.59483 4.59459 1.8335 7.99992 1.8335Z" stroke="#4567FF" stroke-width="1.16667" stroke-linecap="round" stroke-linejoin="round"/>
<path d="M5.713 7.5571C5.4684 7.34744 5.10014 7.37576 4.89047 7.62037C4.68081 7.86498 4.70914 8.23324 4.95375 8.4429L5.713 7.5571ZM7.66671 10L7.28708 10.4429C7.40955 10.5479 7.57002 10.5975 7.73036 10.5799C7.8907 10.5622 8.03659 10.479 8.13337 10.35L7.66671 10ZM11.1334 6.35C11.3267 6.09227 11.2744 5.72663 11.0167 5.53333C10.759 5.34003 10.3933 5.39227 10.2 5.65L11.1334 6.35ZM4.95375 8.4429L7.28708 10.4429L8.04634 9.5571L5.713 7.5571L4.95375 8.4429ZM8.13337 10.35L11.1334 6.35L10.2 5.65L7.20004 9.65L8.13337 10.35Z" fill="#4567FF"/>
</svg>
