<svg width="24" height="24" viewBox="0 0 24 24" fill="none" xmlns="http://www.w3.org/2000/svg">
<path d="M15.22 6.55H5.78C5.5 6.55 5.24 6.56 5 6.57C2.63 6.71 2 7.58 2 10.28V10.86C2 11.41 2.45 11.86 3 11.86H18C18.55 11.86 19 11.41 19 10.86V10.28C19 7.3 18.24 6.55 15.22 6.55Z" fill="#33CB33"/>
<path d="M3 13.36C2.45 13.36 2 13.81 2 14.36V17.27C2 20.25 2.76 21 5.78 21H15.22C18.19 21 18.97 20.28 19 17.43V14.36C19 13.81 18.55 13.36 18 13.36H3ZM6.96 18.56H5.25C4.84 18.56 4.5 18.22 4.5 17.81C4.5 17.4 4.84 17.06 5.25 17.06H6.97C7.38 17.06 7.72 17.4 7.72 17.81C7.72 18.22 7.38 18.56 6.96 18.56ZM12.55 18.56H9.11C8.7 18.56 8.36 18.22 8.36 17.81C8.36 17.4 8.7 17.06 9.11 17.06H12.55C12.96 17.06 13.3 17.4 13.3 17.81C13.3 18.22 12.97 18.56 12.55 18.56Z" fill="#33CB33"/>
<path d="M22.0001 13.33V8.09001C22.0001 4.96001 20.2101 3.60001 17.5101 3.60001H8.58011C7.82011 3.60001 7.14011 3.71001 6.54011 3.94001C6.07011 4.11001 5.65011 4.36001 5.31011 4.69001C5.13011 4.86001 5.27011 5.14001 5.53011 5.14001H16.4001C18.6501 5.14001 20.4701 6.96001 20.4701 9.21001V16.38C20.4701 16.63 20.7401 16.77 20.9201 16.59C21.6101 15.86 22.0001 14.79 22.0001 13.33Z" fill="#33CB33"/>
</svg>
