<svg width="17" height="16" viewBox="0 0 17 16" fill="none" xmlns="http://www.w3.org/2000/svg">
<path fill-rule="evenodd" clip-rule="evenodd" d="M14.5 8C14.5 11.3137 11.8137 14 8.5 14C5.18629 14 2.5 11.3137 2.5 8C2.5 4.68629 5.18629 2 8.5 2C11.8137 2 14.5 4.68629 14.5 8ZM6.20045 6.42661C5.99992 6.22608 5.99992 5.90096 6.20045 5.70042C6.40098 5.49989 6.72611 5.49989 6.92664 5.70042L8.50005 7.27384L10.0735 5.70042C10.274 5.49989 10.5991 5.49989 10.7997 5.70042C11.0002 5.90096 11.0002 6.22608 10.7997 6.42661L9.22624 8.00002L10.7997 9.57344C11.0002 9.77397 11.0002 10.0991 10.7997 10.2996C10.5991 10.5002 10.274 10.5002 10.0735 10.2996L8.50005 8.72621L6.92664 10.2996C6.72611 10.5002 6.40098 10.5002 6.20045 10.2996C5.99992 10.0991 5.99992 9.77397 6.20045 9.57344L7.77386 8.00002L6.20045 6.42661Z" fill="#EA4335"/>
</svg>
