<svg width="17" height="16" viewBox="0 0 17 16" fill="none" xmlns="http://www.w3.org/2000/svg">
<path fill-rule="evenodd" clip-rule="evenodd" d="M8.5 2C11.8139 2 14.5 4.6867 14.5 8C14.5 11.3133 11.8139 14 8.5 14C5.1867 14 2.5 11.3133 2.5 8C2.5 4.6867 5.1867 2 8.5 2Z" fill="#33CB33"/>
<path d="M6.32135 7.43056C6.00685 7.16099 5.53338 7.19741 5.26381 7.51191C4.99424 7.8264 5.03066 8.29988 5.34516 8.56944L6.32135 7.43056ZM8.16659 10L7.67849 10.5694C7.83595 10.7044 8.04227 10.7682 8.24842 10.7455C8.45457 10.7229 8.64215 10.6159 8.76659 10.45L8.16659 10ZM11.7666 6.45C12.0151 6.11863 11.948 5.64853 11.6166 5.4C11.2852 5.15147 10.8151 5.21863 10.5666 5.55L11.7666 6.45ZM5.34516 8.56944L7.67849 10.5694L8.65468 9.43056L6.32135 7.43056L5.34516 8.56944ZM8.76659 10.45L11.7666 6.45L10.5666 5.55L7.56659 9.55L8.76659 10.45Z" fill="white"/>
</svg>
