<svg width="24" height="24" viewBox="0 0 24 24" fill="none" xmlns="http://www.w3.org/2000/svg">
<path fill-rule="evenodd" clip-rule="evenodd" d="M12 2C9.34784 2 6.8043 3.05357 4.92893 4.92893C3.05357 6.8043 2 9.34784 2 12C2 14.6522 3.05357 17.1957 4.92893 19.0711C6.8043 20.9464 9.34784 22 12 22C14.6522 22 17.1957 20.9464 19.0711 19.0711C20.9464 17.1957 22 14.6522 22 12C22 9.34784 20.9464 6.8043 19.0711 4.92893C17.1957 3.05357 14.6522 2 12 2ZM6.08339 6.08339C7.65257 4.51421 9.78084 3.63265 12 3.63265C14.2192 3.63265 16.3474 4.51421 17.9166 6.08339C19.4858 7.65257 20.3673 9.78084 20.3673 12C20.3673 14.2192 19.4858 16.3474 17.9166 17.9166C16.3474 19.4858 14.2192 20.3673 12 20.3673C9.78084 20.3673 7.65257 19.4858 6.08339 17.9166C4.51421 16.3474 3.63265 14.2192 3.63265 12C3.63265 9.78084 4.51421 7.65257 6.08339 6.08339Z" fill="#4567FF"/>
<path d="M13.4952 9.84738L10.3725 10.2387L10.2607 10.7569L10.8743 10.8701C11.2752 10.9656 11.3543 11.1101 11.267 11.5097L10.2607 16.2387C9.99612 17.4619 10.4038 18.0374 11.3625 18.0374C12.1057 18.0374 12.9688 17.6937 13.3602 17.2219L13.4802 16.6547C13.2075 16.8947 12.8093 16.9901 12.5448 16.9901C12.1698 16.9901 12.0334 16.7269 12.1302 16.2633L13.4952 9.84738ZM13.5907 7.00011C13.5907 7.36177 13.447 7.70862 13.1913 7.96435C12.9355 8.22008 12.5887 8.36375 12.227 8.36375C11.8654 8.36375 11.5185 8.22008 11.2628 7.96435C11.0071 7.70862 10.8634 7.36177 10.8634 7.00011C10.8634 6.63845 11.0071 6.29161 11.2628 6.03587C11.5185 5.78014 11.8654 5.63647 12.227 5.63647C12.5887 5.63647 12.9355 5.78014 13.1913 6.03587C13.447 6.29161 13.5907 6.63845 13.5907 7.00011Z" fill="#4567FF"/>
</svg>
