<svg width="25" height="24" viewBox="0 0 25 24" fill="none" xmlns="http://www.w3.org/2000/svg">
<circle cx="12.5" cy="12" r="5" fill="white"/>
<path fill-rule="evenodd" clip-rule="evenodd" d="M20.5 12C20.5 16.4183 16.9183 20 12.5 20C8.08172 20 4.5 16.4183 4.5 12C4.5 7.58172 8.08172 4 12.5 4C16.9183 4 20.5 7.58172 20.5 12ZM9.21486 9.75227C8.92838 9.4658 8.92838 9.00133 9.21486 8.71486C9.50133 8.42838 9.9658 8.42838 10.2523 8.71486L12.5 10.9626L14.7477 8.71486C15.0342 8.42838 15.4987 8.42838 15.7851 8.71486C16.0716 9.00133 16.0716 9.4658 15.7851 9.75227L13.5374 12L15.7851 14.2477C16.0716 14.5342 16.0716 14.9987 15.7851 15.2851C15.4987 15.5716 15.0342 15.5716 14.7477 15.2851L12.5 13.0374L10.2523 15.2851C9.9658 15.5716 9.50133 15.5716 9.21486 15.2851C8.92838 14.9987 8.92838 14.5342 9.21486 14.2477L11.4626 12L9.21486 9.75227Z" fill="#929292"/>
</svg>
