<svg width="24" height="24" viewBox="0 0 24 24" fill="none" xmlns="http://www.w3.org/2000/svg">
<path d="M16.9092 2H8.72733C7.93225 2.00107 7.15471 2.23809 6.48978 2.68208C5.82485 3.12608 5.30137 3.7578 4.98333 4.5H3.81824C3.60125 4.5 3.39314 4.5878 3.2397 4.74408C3.08626 4.90036 3.00006 5.11232 3.00006 5.33333C3.00006 5.55435 3.08626 5.76631 3.2397 5.92259C3.39314 6.07887 3.60125 6.16667 3.81824 6.16667H4.63642V7.83333H3.81824C3.60125 7.83333 3.39314 7.92113 3.2397 8.07741C3.08626 8.23369 3.00006 8.44565 3.00006 8.66667C3.00006 8.88768 3.08626 9.09964 3.2397 9.25592C3.39314 9.4122 3.60125 9.5 3.81824 9.5H4.63642V11.1667H3.81824C3.60125 11.1667 3.39314 11.2545 3.2397 11.4107C3.08626 11.567 3.00006 11.779 3.00006 12C3.00006 12.221 3.08626 12.433 3.2397 12.5893C3.39314 12.7455 3.60125 12.8333 3.81824 12.8333H4.63642V14.5H3.81824C3.60125 14.5 3.39314 14.5878 3.2397 14.7441C3.08626 14.9004 3.00006 15.1123 3.00006 15.3333C3.00006 15.5543 3.08626 15.7663 3.2397 15.9226C3.39314 16.0789 3.60125 16.1667 3.81824 16.1667H4.63642V17.8333H3.81824C3.60125 17.8333 3.39314 17.9211 3.2397 18.0774C3.08626 18.2337 3.00006 18.4457 3.00006 18.6667C3.00006 18.8877 3.08626 19.0996 3.2397 19.2559C3.39314 19.4122 3.60125 19.5 3.81824 19.5H4.98333C5.30137 20.2422 5.82485 20.8739 6.48978 21.3179C7.15471 21.7619 7.93225 21.9989 8.72733 22H16.9092C17.9937 21.9987 19.0335 21.5593 19.8004 20.7782C20.5673 19.997 20.9988 18.938 21.0001 17.8333V6.16667C20.9988 5.062 20.5673 4.00296 19.8004 3.22185C19.0335 2.44073 17.9937 2.00132 16.9092 2V2ZM19.3637 17.8333C19.3637 18.4964 19.1051 19.1323 18.6448 19.6011C18.1845 20.0699 17.5601 20.3333 16.9092 20.3333H8.72733C8.07635 20.3333 7.45202 20.0699 6.99171 19.6011C6.53139 19.1323 6.27279 18.4964 6.27279 17.8333V6.16667C6.27279 5.50363 6.53139 4.86774 6.99171 4.3989C7.45202 3.93006 8.07635 3.66667 8.72733 3.66667H16.9092C17.5601 3.66667 18.1845 3.93006 18.6448 4.3989C19.1051 4.86774 19.3637 5.50363 19.3637 6.16667V17.8333ZM12.8182 12C13.4692 12 14.0936 11.7366 14.5539 11.2678C15.0142 10.7989 15.2728 10.163 15.2728 9.5C15.2728 8.83696 15.0142 8.20107 14.5539 7.73223C14.0936 7.26339 13.4692 7 12.8182 7C12.1673 7 11.5429 7.26339 11.0826 7.73223C10.6223 8.20107 10.3637 8.83696 10.3637 9.5C10.3637 10.163 10.6223 10.7989 11.0826 11.2678C11.5429 11.7366 12.1673 12 12.8182 12ZM16.9092 17C16.9092 17.221 16.823 17.433 16.6695 17.5893C16.5161 17.7455 16.308 17.8333 16.091 17.8333C15.874 17.8333 15.6659 17.7455 15.5124 17.5893C15.359 17.433 15.2728 17.221 15.2728 17C15.2728 16.337 15.0142 15.7011 14.5539 15.2322C14.0936 14.7634 13.4692 14.5 12.8182 14.5C12.1673 14.5 11.5429 14.7634 11.0826 15.2322C10.6223 15.7011 10.3637 16.337 10.3637 17C10.3637 17.221 10.2775 17.433 10.1241 17.5893C9.97062 17.7455 9.76251 17.8333 9.54552 17.8333C9.32852 17.8333 9.12041 17.7455 8.96697 17.5893C8.81353 17.433 8.72733 17.221 8.72733 17C8.89997 11.4933 16.7382 11.495 16.9092 17Z" fill="#121212"/>
</svg>
