<svg width="24" height="24" viewBox="0 0 24 24" fill="none" xmlns="http://www.w3.org/2000/svg">
<path d="M3.39599 22.0001H5.55078V20.8468H3.76018C3.42634 20.8468 3.1532 20.5737 3.1532 20.2398V18.4492H1.99993V20.604C1.99993 21.3627 2.63726 22.0001 3.39599 22.0001Z" fill="#121212"/>
<path d="M20.8467 5.5205H22V3.36571C22 2.60698 21.393 2 20.6343 2H18.4795V3.15327H20.2397C20.5736 3.15327 20.8467 3.42641 20.8467 3.76025V5.5205Z" fill="#121212"/>
<path d="M1.99993 5.5205H3.1532V3.76025C3.1532 3.42641 3.42634 3.15327 3.76018 3.15327H5.55078V2H3.39599C2.63726 2 2.03028 2.60698 2.03028 3.36571V5.5205H1.99993Z" fill="#121212"/>
<path d="M18.4795 22.001H20.6343C21.393 22.001 22 21.394 22 20.6353V18.4805H20.8467V20.2711C20.8467 20.6049 20.5736 20.8781 20.2397 20.8781H18.4491V22.001H18.4795Z" fill="#121212"/>
<g clip-path="url(#clip0_26455_7838)">
<path d="M12.6714 5.97461L9.17383 13.7768H13" fill="#121212"/>
<path d="M6.88702 9.60789C6.24804 9.60789 5.70996 9.06981 5.70996 8.43084V6.74932C5.70996 6.11035 6.24804 5.57227 6.88702 5.57227C7.52599 5.57227 8.06408 6.11035 8.06408 6.74932V8.43084C8.06408 9.06981 7.52599 9.60789 6.88702 9.60789Z" fill="#121212"/>
<path d="M17.2449 9.03563C16.606 9.03563 16.0679 8.49755 16.0679 7.85857V6.17706C16.0679 5.53808 16.606 5 17.2449 5C17.8839 5 18.422 5.53808 18.422 6.17706V7.85857C18.422 8.49755 17.9175 9.03563 17.2449 9.03563Z" fill="#121212"/>
<path d="M18.5903 15.8633C17.4469 17.8811 15.2609 19.2599 12.7386 19.2599C10.4181 19.2599 8.36669 18.0829 7.15601 16.3005" fill="#121212"/>
</g>
<defs>
<clipPath id="clip0_26455_7838">
<rect width="12.8804" height="14.2256" fill="white" transform="translate(5.70996 5)"/>
</clipPath>
</defs>
</svg>
