<svg width="24" height="24" viewBox="0 0 24 24" fill="none" xmlns="http://www.w3.org/2000/svg">
<path d="M3.39624 22.0001H5.55103V20.8468H3.76043C3.42658 20.8468 3.15344 20.5737 3.15344 20.2398V18.4492H2.00017V20.604C2.00017 21.3627 2.63751 22.0001 3.39624 22.0001Z" fill="#121212"/>
<path d="M20.8469 5.5205H22.0001V3.36571C22.0001 2.60698 21.3931 2 20.6344 2H18.4796V3.15327H20.2399C20.5737 3.15327 20.8469 3.42641 20.8469 3.76025V5.5205Z" fill="#121212"/>
<path d="M2.00017 5.5205H3.15344V3.76025C3.15344 3.42641 3.42658 3.15327 3.76043 3.15327H5.55103V2H3.39624C2.63751 2 2.03052 2.60698 2.03052 3.36571V5.5205H2.00017Z" fill="#121212"/>
<path d="M18.4796 22H20.6344C21.3931 22 22.0001 21.393 22.0001 20.6343V18.4795H20.8469V20.2701C20.8469 20.6039 20.5737 20.8771 20.2399 20.8771H18.4493V22H18.4796Z" fill="#121212"/>
<g clip-path="url(#clip0_4522_38597)">
<path d="M12.6714 5.9751L9.17383 13.7773H13" fill="#121212"/>
<path d="M6.88714 9.60741C6.24817 9.60741 5.71008 9.06932 5.71008 8.43035V6.74884C5.71008 6.10986 6.24817 5.57178 6.88714 5.57178C7.52612 5.57178 8.0642 6.10986 8.0642 6.74884V8.43035C8.0642 9.06932 7.52612 9.60741 6.88714 9.60741Z" fill="#121212"/>
<path d="M17.2451 9.03563C16.6061 9.03563 16.068 8.49755 16.068 7.85857V6.17706C16.068 5.53808 16.6061 5 17.2451 5C17.884 5 18.4221 5.53808 18.4221 6.17706V7.85857C18.4221 8.49755 17.9177 9.03563 17.2451 9.03563Z" fill="#121212"/>
<path d="M18.5903 15.8628C17.4469 17.8806 15.2609 19.2594 12.7386 19.2594C10.4181 19.2594 8.36669 18.0824 7.15601 16.3" fill="#121212"/>
</g>
<defs>
<clipPath id="clip0_4522_38597">
<rect width="12.8804" height="14.2256" fill="white" transform="translate(5.71008 5)"/>
</clipPath>
</defs>
</svg>
