<svg width="25" height="24" viewBox="0 0 25 24" fill="none" xmlns="http://www.w3.org/2000/svg">
<path fill-rule="evenodd" clip-rule="evenodd" d="M8.17 2H16.84C20.23 2 22.5 4.38 22.5 7.92V16.091C22.5 19.621 20.23 22 16.84 22H8.17C4.78 22 2.5 19.621 2.5 16.091V7.92C2.5 4.38 4.78 2 8.17 2ZM12.49 9.061C12.02 9.061 11.63 8.67 11.63 8.191C11.63 7.701 12.02 7.311 12.51 7.311C12.99 7.311 13.38 7.701 13.38 8.191C13.38 8.67 12.99 9.061 12.49 9.061ZM13.37 15.781C13.37 16.261 12.98 16.651 12.49 16.651C12.01 16.651 11.62 16.261 11.62 15.781V11.361C11.62 10.88 12.01 10.481 12.49 10.481C12.98 10.481 13.37 10.88 13.37 11.361V15.781Z" fill="#33CB33"/>
</svg>
