<svg width="20" height="24" viewBox="0 0 20 24" fill="none"
    xmlns="http://www.w3.org/2000/svg">
    <path d="M10.2083 23.1587C15.4211 23.1587 19.5881 18.9834 19.5881 13.7539C19.5881 13.314 19.2727 12.9985 18.8245 12.9985C18.3928 12.9985 18.1189 13.314 18.1189 13.7539C18.1189 18.1699 14.6077 21.6895 10.2083 21.6895C5.80054 21.6895 2.28931 18.1699 2.28931 13.7539C2.28931 9.36279 5.80054 5.85986 10.2083 5.85986C11.1296 5.85986 11.9846 5.94287 12.7151 6.11719L9.18726 9.63672C9.03784 9.78613 8.97144 9.96875 8.97144 10.1597C8.97144 10.5747 9.28687 10.8901 9.6936 10.8901C9.91772 10.8901 10.092 10.8237 10.2249 10.6826L14.7322 6.13379C14.9148 5.94287 14.9895 5.76025 14.9895 5.55273C14.9895 5.34521 14.9065 5.1377 14.7322 4.97168L10.2249 0.381348C10.1003 0.231934 9.92603 0.157227 9.6936 0.157227C9.27856 0.157227 8.97144 0.489258 8.97144 0.904297C8.97144 1.09521 9.03784 1.28613 9.17896 1.43555L12.3748 4.61475C11.6858 4.47363 10.947 4.39062 10.2083 4.39062C4.98706 4.39062 0.820068 8.54932 0.820068 13.7539C0.820068 18.9834 4.98706 23.1587 10.2083 23.1587Z" fill="black"/>
</svg>
