<svg width="24" height="24" viewBox="0 0 24 24" fill="none" xmlns="http://www.w3.org/2000/svg">
<path fill-rule="evenodd" clip-rule="evenodd" d="M12 22C13.3717 22 14.6612 21.7377 15.8683 21.213C17.0754 20.6883 18.1385 19.9664 19.0576 19.0473C19.9767 18.1283 20.6968 17.0669 21.2181 15.8632C21.7394 14.6595 22 13.3717 22 12C22 10.6283 21.7394 9.34054 21.2181 8.13683C20.6968 6.93313 19.975 5.87003 19.0525 4.94753C18.13 4.02503 17.0652 3.30316 15.858 2.78189C14.6509 2.26063 13.3615 2 11.9897 2C10.6317 2 9.34911 2.26063 8.14198 2.78189C6.93484 3.30316 5.87003 4.02503 4.94753 4.94753C4.02503 5.87003 3.30316 6.93313 2.78189 8.13683C2.26063 9.34054 2 10.6283 2 12C2 13.3717 2.26235 14.6595 2.78704 15.8632C3.31173 17.0669 4.03361 18.1283 4.95267 19.0473C5.87174 19.9664 6.93484 20.6883 8.14198 21.213C9.34911 21.7377 10.6351 22 12 22ZM12 20.1584C10.8752 20.1584 9.81897 19.9475 8.83132 19.5257C7.84366 19.1039 6.97775 18.5209 6.23358 17.7767C5.48941 17.0326 4.90814 16.1667 4.48975 15.179C4.07137 14.1913 3.86218 13.1317 3.86218 12C3.86218 10.8752 4.07137 9.81892 4.48975 8.83126C4.90814 7.84361 5.48941 6.97598 6.23358 6.22838C6.97775 5.48078 7.84195 4.89608 8.82617 4.47427C9.8104 4.05246 10.8649 3.84155 11.9898 3.84155C13.1283 3.84155 14.1897 4.05246 15.1739 4.47427C16.1581 4.89608 17.024 5.48078 17.7716 6.22838C18.5192 6.97598 19.104 7.84361 19.5258 8.83126C19.9476 9.81892 20.1585 10.8752 20.1585 12C20.1653 13.1317 19.9561 14.1913 19.5309 15.179C19.1057 16.1667 18.5227 17.0326 17.7819 17.7767C17.0412 18.5209 16.177 19.1039 15.1893 19.5257C14.2017 19.9475 13.1386 20.1584 12 20.1584ZM10.9404 16.6296C11.2902 16.6296 11.5679 16.4685 11.7737 16.1461L16.1976 9.24281C16.2524 9.13993 16.3056 9.03362 16.357 8.92388C16.4085 8.81414 16.4342 8.7044 16.4342 8.59466C16.4342 8.36832 16.3467 8.18485 16.1718 8.04425C15.9969 7.90365 15.8032 7.83334 15.5906 7.83334C15.3025 7.83334 15.059 7.99109 14.8601 8.30659L10.9095 14.6235L9.05765 12.2366C8.94105 12.0926 8.82274 11.9914 8.70271 11.9331C8.58268 11.8748 8.45408 11.8457 8.31691 11.8457C8.08371 11.8457 7.88995 11.9263 7.73563 12.0875C7.58131 12.2486 7.50415 12.4424 7.50415 12.6687C7.50415 12.8814 7.58645 13.094 7.75106 13.3066L10.0762 16.1461C10.2065 16.3176 10.3402 16.441 10.4774 16.5165C10.6146 16.5919 10.7689 16.6296 10.9404 16.6296Z" fill="#33CB33"/>
</svg>
