<svg width="24" height="24" viewBox="0 0 24 24" fill="none" xmlns="http://www.w3.org/2000/svg">
<path fill-rule="evenodd" clip-rule="evenodd" d="M12 2C9.34784 2 6.8043 3.05357 4.92893 4.92893C3.05357 6.8043 2 9.34784 2 12C2 14.6522 3.05357 17.1957 4.92893 19.0711C6.8043 20.9464 9.34784 22 12 22C14.6522 22 17.1957 20.9464 19.0711 19.0711C20.9464 17.1957 22 14.6522 22 12C22 9.34784 20.9464 6.8043 19.0711 4.92893C17.1957 3.05357 14.6522 2 12 2ZM6.08339 6.08339C7.65257 4.51421 9.78084 3.63265 12 3.63265C14.2192 3.63265 16.3474 4.51421 17.9166 6.08339C19.4858 7.65257 20.3673 9.78084 20.3673 12C20.3673 14.2192 19.4858 16.3474 17.9166 17.9166C16.3474 19.4858 14.2192 20.3673 12 20.3673C9.78084 20.3673 7.65257 19.4858 6.08339 17.9166C4.51421 16.3474 3.63265 14.2192 3.63265 12C3.63265 9.78084 4.51421 7.65257 6.08339 6.08339Z" fill="#121212"/>
<path d="M13.4954 9.84728L10.3727 10.2386L10.2608 10.7568L10.8745 10.87C11.2754 10.9655 11.3545 11.11 11.2672 11.5095L10.2608 16.2386C9.9963 17.4618 10.404 18.0373 11.3627 18.0373C12.1058 18.0373 12.969 17.6936 13.3604 17.2218L13.4804 16.6545C13.2077 16.8945 12.8095 16.99 12.5449 16.99C12.1699 16.99 12.0336 16.7268 12.1304 16.2632L13.4954 9.84728ZM13.5908 7C13.5908 7.36166 13.4472 7.70851 13.1914 7.96424C12.9357 8.21997 12.5889 8.36364 12.2272 8.36364C11.8655 8.36364 11.5187 8.21997 11.263 7.96424C11.0072 7.70851 10.8636 7.36166 10.8636 7C10.8636 6.63835 11.0072 6.2915 11.263 6.03577C11.5187 5.78004 11.8655 5.63637 12.2272 5.63637C12.5889 5.63637 12.9357 5.78004 13.1914 6.03577C13.4472 6.2915 13.5908 6.63835 13.5908 7Z" fill="#121212"/>
</svg>
