<svg width="20" height="20" viewBox="0 0 20 20" fill="none" xmlns="http://www.w3.org/2000/svg">
<path fill-rule="evenodd" clip-rule="evenodd" d="M10 0C7.34784 0 4.8043 1.05357 2.92893 2.92893C1.05357 4.8043 0 7.34784 0 10C0 12.6522 1.05357 15.1957 2.92893 17.0711C4.8043 18.9464 7.34784 20 10 20C12.6522 20 15.1957 18.9464 17.0711 17.0711C18.9464 15.1957 20 12.6522 20 10C20 7.34784 18.9464 4.8043 17.0711 2.92893C15.1957 1.05357 12.6522 0 10 0ZM4.08339 4.08339C5.65257 2.51421 7.78084 1.63265 10 1.63265C12.2192 1.63265 14.3474 2.51421 15.9166 4.08339C17.4858 5.65257 18.3673 7.78084 18.3673 10C18.3673 12.2192 17.4858 14.3474 15.9166 15.9166C14.3474 17.4858 12.2192 18.3673 10 18.3673C7.78084 18.3673 5.65257 17.4858 4.08339 15.9166C2.51421 14.3474 1.63265 12.2192 1.63265 10C1.63265 7.78084 2.51421 5.65257 4.08339 4.08339Z" fill="#4567FF"/>
<path d="M11.4972 7.84738L8.37444 8.23875L8.26262 8.75693L8.87626 8.87011C9.27716 8.96557 9.35626 9.11011 9.26898 9.50966L8.26262 14.2387C7.99807 15.4619 8.4058 16.0374 9.36444 16.0374C10.1076 16.0374 10.9708 15.6937 11.3622 15.2219L11.4822 14.6547C11.2094 14.8947 10.8113 14.9901 10.5467 14.9901C10.1717 14.9901 10.0353 14.7269 10.1322 14.2633L11.4972 7.84738ZM11.5926 5.00011C11.5926 5.36177 11.449 5.70862 11.1932 5.96435C10.9375 6.22008 10.5906 6.36375 10.229 6.36375C9.86732 6.36375 9.52048 6.22008 9.26475 5.96435C9.00902 5.70862 8.86535 5.36177 8.86535 5.00011C8.86535 4.63845 9.00902 4.29161 9.26475 4.03587C9.52048 3.78014 9.86732 3.63647 10.229 3.63647C10.5906 3.63647 10.9375 3.78014 11.1932 4.03587C11.449 4.29161 11.5926 4.63845 11.5926 5.00011Z" fill="#4567FF"/>
</svg>
