<svg width="24" height="24" viewBox="0 0 24 24" fill="none" xmlns="http://www.w3.org/2000/svg">
<path fill-rule="evenodd" clip-rule="evenodd" d="M12 2C9.34784 2 6.8043 3.05357 4.92893 4.92893C3.05357 6.8043 2 9.34784 2 12C2 14.6522 3.05357 17.1957 4.92893 19.0711C6.8043 20.9464 9.34784 22 12 22C14.6522 22 17.1957 20.9464 19.0711 19.0711C20.9464 17.1957 22 14.6522 22 12C22 9.34784 20.9464 6.8043 19.0711 4.92893C17.1957 3.05357 14.6522 2 12 2ZM6.08339 6.08339C7.65257 4.51421 9.78084 3.63265 12 3.63265C14.2192 3.63265 16.3474 4.51421 17.9166 6.08339C19.4858 7.65257 20.3673 9.78084 20.3673 12C20.3673 14.2192 19.4858 16.3474 17.9166 17.9166C16.3474 19.4858 14.2192 20.3673 12 20.3673C9.78084 20.3673 7.65257 19.4858 6.08339 17.9166C4.51421 16.3474 3.63265 14.2192 3.63265 12C3.63265 9.78084 4.51421 7.65257 6.08339 6.08339Z" fill="#6E6E6E"/>
<path d="M13.4952 9.84714L10.3725 10.2385L10.2607 10.7567L10.8743 10.8699C11.2752 10.9653 11.3543 11.1099 11.267 11.5094L10.2607 16.2385C9.99612 17.4617 10.4038 18.0371 11.3625 18.0371C12.1057 18.0371 12.9688 17.6935 13.3602 17.2217L13.4802 16.6544C13.2075 16.8944 12.8093 16.9899 12.5448 16.9899C12.1698 16.9899 12.0334 16.7267 12.1302 16.263L13.4952 9.84714ZM13.5907 6.99987C13.5907 7.36153 13.447 7.70837 13.1913 7.9641C12.9355 8.21983 12.5887 8.3635 12.227 8.3635C11.8654 8.3635 11.5185 8.21983 11.2628 7.9641C11.0071 7.70837 10.8634 7.36153 10.8634 6.99987C10.8634 6.63821 11.0071 6.29136 11.2628 6.03563C11.5185 5.7799 11.8654 5.63623 12.227 5.63623C12.5887 5.63623 12.9355 5.7799 13.1913 6.03563C13.447 6.29136 13.5907 6.63821 13.5907 6.99987Z" fill="#6E6E6E"/>
</svg>
