<svg width="24" height="24" viewBox="0 0 24 24" fill="none" xmlns="http://www.w3.org/2000/svg">
<path fill-rule="evenodd" clip-rule="evenodd" d="M12 2C9.34784 2 6.8043 3.05357 4.92893 4.92893C3.05357 6.8043 2 9.34784 2 12C2 14.6522 3.05357 17.1957 4.92893 19.0711C6.8043 20.9464 9.34784 22 12 22C14.6522 22 17.1957 20.9464 19.0711 19.0711C20.9464 17.1957 22 14.6522 22 12C22 9.34784 20.9464 6.8043 19.0711 4.92893C17.1957 3.05357 14.6522 2 12 2ZM6.08339 6.08339C7.65257 4.51421 9.78084 3.63265 12 3.63265C14.2192 3.63265 16.3474 4.51421 17.9166 6.08339C19.4858 7.65257 20.3673 9.78084 20.3673 12C20.3673 14.2192 19.4858 16.3474 17.9166 17.9166C16.3474 19.4858 14.2192 20.3673 12 20.3673C9.78084 20.3673 7.65257 19.4858 6.08339 17.9166C4.51421 16.3474 3.63265 14.2192 3.63265 12C3.63265 9.78084 4.51421 7.65257 6.08339 6.08339Z" fill="#121212"/>
<path d="M13.4955 9.84763L10.3727 10.239L10.2609 10.7572L10.8745 10.8704C11.2755 10.9658 11.3545 11.1104 11.2673 11.5099L10.2609 16.239C9.99637 17.4622 10.4041 18.0376 11.3627 18.0376C12.1059 18.0376 12.9691 17.694 13.3605 17.2222L13.4805 16.6549C13.2077 16.8949 12.8095 16.9904 12.545 16.9904C12.17 16.9904 12.0336 16.7272 12.1305 16.2635L13.4955 9.84763ZM13.5909 7.00036C13.5909 7.36201 13.4472 7.70886 13.1915 7.96459C12.9358 8.22032 12.5889 8.36399 12.2273 8.36399C11.8656 8.36399 11.5188 8.22032 11.263 7.96459C11.0073 7.70886 10.8636 7.36201 10.8636 7.00036C10.8636 6.6387 11.0073 6.29185 11.263 6.03612C11.5188 5.78039 11.8656 5.63672 12.2273 5.63672C12.5889 5.63672 12.9358 5.78039 13.1915 6.03612C13.4472 6.29185 13.5909 6.6387 13.5909 7.00036Z" fill="#121212"/>
</svg>
