<svg width="20" height="20" viewBox="0 0 20 20" fill="none" xmlns="http://www.w3.org/2000/svg">
<path d="M1.00088 14.4299C1.00088 10.4106 1.00088 6.39088 1.00088 2.37117C1.10612 2.12679 1.18273 1.86435 1.32364 1.64243C1.56185 1.2664 1.95066 1.09731 2.37205 1C4.32928 1 6.28608 1 8.24332 1C8.29836 1.01761 8.3534 1.03611 8.40888 1.0524C9.06012 1.24394 9.45553 1.67369 9.57442 2.34078C9.63914 2.70317 9.67129 3.07128 9.7184 3.43675C9.75099 3.6895 9.78445 3.9418 9.81792 4.20027C9.91082 4.20027 9.98083 4.20027 10.0508 4.20027C12.4704 4.20027 14.8904 4.20027 17.31 4.20027C18.3369 4.20027 19.0004 4.86516 19.0004 5.89243C19.0004 9.69507 19.0004 13.4973 19.0004 17.2999C19.0004 18.3391 18.3391 19 17.2999 19C14.517 19 11.7338 19 8.95092 19C8.88047 19 8.81002 19.0004 8.74 18.9973C8.04473 18.9656 7.43048 18.4615 7.29266 17.7781C7.21208 17.3778 7.1751 16.9683 7.12005 16.5632C7.08571 16.3109 7.05489 16.0586 7.02186 15.801C6.93336 15.801 6.86951 15.801 6.80522 15.801C5.41072 15.801 4.01621 15.801 2.62215 15.801C2.06911 15.801 1.61117 15.5888 1.30118 15.1317C1.16116 14.9248 1.09819 14.6659 1 14.4307L1.00088 14.4299ZM9.9663 5.25352C9.9663 5.33498 9.96058 5.38826 9.96719 5.43978C10.0623 6.21211 10.1578 6.98399 10.2552 7.75588C10.4027 8.92802 10.5519 10.1002 10.699 11.2723C10.8505 12.4792 11.0002 13.6866 11.1508 14.894C11.1856 15.1722 11.2331 15.4386 11.0112 15.6874C10.3912 16.3823 9.78929 17.0934 9.17989 17.7979C9.14466 17.8388 9.11076 17.8811 9.05616 17.9463C9.14862 17.9463 9.20102 17.9463 9.25342 17.9463C11.931 17.9463 14.6086 17.9463 17.2862 17.9463C17.7525 17.9463 17.9476 17.7512 17.9476 17.284C17.9476 13.4933 17.9476 9.70255 17.9476 5.91181C17.9476 5.44815 17.7508 5.25352 17.2823 5.25352C14.9094 5.25352 12.5365 5.25352 10.1636 5.25352H9.96674H9.9663ZM10.0579 14.7473C9.98524 14.1591 9.91611 13.5963 9.8461 13.0336C9.73469 12.1397 9.62285 11.2463 9.51101 10.3529C9.39873 9.45333 9.28601 8.55419 9.17416 7.65461C9.06364 6.76692 8.95312 5.87878 8.84304 4.99065C8.74441 4.19543 8.6515 3.39976 8.54538 2.60542C8.4921 2.20781 8.29748 2.05413 7.89238 2.05413C6.17028 2.05413 4.44817 2.05413 2.72563 2.05413C2.24656 2.05413 2.05413 2.24567 2.05413 2.72387C2.05413 6.50801 2.05413 10.2921 2.05413 14.0763C2.05413 14.5549 2.24612 14.7469 2.72431 14.7469C5.10249 14.7469 7.48068 14.7469 9.85931 14.7469C9.91699 14.7469 9.97467 14.7469 10.057 14.7469L10.0579 14.7473ZM8.27238 17.2246C8.69421 16.7358 9.0861 16.2819 9.4934 15.8103H8.09669C8.15437 16.2753 8.21074 16.7288 8.27238 17.2246Z" fill="black"/>
<path d="M2.37214 1C1.95075 1.09731 1.56195 1.2664 1.32373 1.64243C1.18283 1.86391 1.10621 2.12679 1.00098 2.37117V1H2.37214Z" fill="white"/>
<path d="M8.27237 17.2249C8.21072 16.7291 8.15436 16.2755 8.09668 15.8105H9.49339C9.08609 16.2821 8.6942 16.7361 8.27237 17.2249Z" fill="white"/>
<path d="M14.9468 12.3164C15.3391 12.6343 15.7249 12.947 16.1115 13.2596C16.2863 13.4009 16.3642 13.5837 16.318 13.8029C16.2762 13.9998 16.1511 14.1354 15.9552 14.1957C15.7592 14.256 15.587 14.2023 15.4325 14.0755C15.0794 13.7858 14.7262 13.4969 14.3731 13.2076C14.3242 13.1676 14.274 13.1288 14.2247 13.0892C13.809 13.426 13.4017 13.7585 12.9918 14.0874C12.8064 14.2362 12.6003 14.2692 12.3863 14.153C12.1873 14.0447 12.0979 13.8686 12.1133 13.6431C12.1257 13.4674 12.2243 13.3424 12.3582 13.2354C12.7324 12.9359 13.1041 12.6326 13.4792 12.3292C13.2956 12.0615 13.097 11.8215 12.9539 11.552C12.7139 11.0994 12.5057 10.63 12.2934 10.1632C12.2468 10.0606 12.2195 9.99327 12.0808 9.99327C11.7945 9.99327 11.5814 9.75153 11.5845 9.46532C11.5876 9.18131 11.8073 8.95146 12.0957 8.94794C12.5581 8.94221 13.0208 8.94618 13.4836 8.94618C13.547 8.94618 13.6104 8.94618 13.6941 8.94618C13.6941 8.7652 13.6919 8.597 13.6945 8.42924C13.6994 8.11749 13.9226 7.89116 14.222 7.8916C14.521 7.89204 14.7425 8.11881 14.7469 8.43188C14.7491 8.59524 14.7469 8.7586 14.7469 8.94618C14.8944 8.94618 15.0327 8.94618 15.1705 8.94618C15.5452 8.94618 15.9199 8.94486 16.2946 8.94618C16.617 8.9475 16.8459 9.15533 16.8556 9.45035C16.8657 9.75989 16.6509 9.97697 16.3219 10.0025C16.2722 10.0065 16.196 10.0461 16.1828 10.0857C15.9138 10.8999 15.506 11.637 14.9473 12.3164H14.9468ZM13.3643 10.0052C13.5752 10.5688 13.8504 11.0663 14.2225 11.5251C14.5897 11.0509 14.875 10.5608 15.0719 10.0052H13.3643Z" fill="black"/>
<path d="M6.50578 8.95239H5.05888C4.94792 9.49927 4.8396 10.0418 4.72732 10.5838C4.65819 10.9171 4.39575 11.1078 4.09722 11.0488C3.79339 10.9884 3.62431 10.6987 3.69212 10.361C4.02808 8.68291 4.36361 7.0044 4.69694 5.32589C4.78896 4.86135 4.94704 4.72793 5.42523 4.72793C5.69471 4.72793 5.96419 4.72705 6.23366 4.72793C6.58372 4.72925 6.7691 4.8706 6.83867 5.21229C7.06323 6.31089 7.28251 7.41082 7.50312 8.51075C7.62597 9.12368 7.74617 9.73705 7.86991 10.3495C7.93948 10.6948 7.7836 10.9766 7.47978 11.0457C7.17816 11.1144 6.90824 10.9211 6.83735 10.5781C6.72595 10.0409 6.61851 9.50324 6.50666 8.95239H6.50578ZM5.68942 5.78779C5.54896 6.49143 5.41158 7.18185 5.27156 7.88373H6.29223C6.15176 7.17965 6.0135 6.4857 5.87436 5.78779H5.68898H5.68942Z" fill="black"/>
<path d="M13.3647 10.0059H15.0723C14.8755 10.562 14.5902 11.0516 14.2229 11.5259C13.8509 11.067 13.5757 10.569 13.3647 10.0059Z" fill="white"/>
<path d="M5.6894 5.78809H5.87478C6.01392 6.48556 6.15218 7.17951 6.29264 7.88403H5.27197C5.412 7.18215 5.54938 6.49216 5.68984 5.78809H5.6894Z" fill="white"/>
</svg>
