<svg width="21" height="20" viewBox="0 0 21 20" fill="none" xmlns="http://www.w3.org/2000/svg">
<path fill-rule="evenodd" clip-rule="evenodd" d="M9.5 4C8.96957 4 8.46086 3.78929 8.08579 3.41421C7.71071 3.03914 7.5 2.53043 7.5 2C7.5 1.46957 7.71071 0.960859 8.08579 0.585787C8.46086 0.210714 8.96957 0 9.5 0C10.0304 0 10.5391 0.210714 10.9142 0.585787C11.2893 0.960859 11.5 1.46957 11.5 2C11.5 2.53043 11.2893 3.03914 10.9142 3.41421C10.5391 3.78929 10.0304 4 9.5 4ZM15.759 7C15.096 7 14.4601 6.73661 13.9912 6.26777C13.5224 5.79893 13.259 5.16304 13.259 4.5C13.259 3.83696 13.5224 3.20107 13.9912 2.73223C14.4601 2.26339 15.096 2 15.759 2C16.422 2 17.0579 2.26339 17.5268 2.73223C17.9956 3.20107 18.259 3.83696 18.259 4.5C18.259 5.16304 17.9956 5.79893 17.5268 6.26777C17.0579 6.73661 16.422 7 15.759 7ZM4.181 6.5C3.65057 6.5 3.14186 6.28929 2.76679 5.91421C2.39171 5.53914 2.181 5.03043 2.181 4.5C2.181 3.96957 2.39171 3.46086 2.76679 3.08579C3.14186 2.71071 3.65057 2.5 4.181 2.5C4.71143 2.5 5.22014 2.71071 5.59521 3.08579C5.97029 3.46086 6.181 3.96957 6.181 4.5C6.181 5.03043 5.97029 5.53914 5.59521 5.91421C5.22014 6.28929 4.71143 6.5 4.181 6.5ZM2 10.681C1.60217 10.681 1.22065 10.523 0.939341 10.2417C0.658035 9.96035 0.5 9.57882 0.5 9.181C0.5 8.78318 0.658035 8.40164 0.939341 8.12034C1.22065 7.83904 1.60217 7.681 2 7.681C2.39783 7.681 2.77935 7.83904 3.06066 8.12034C3.34196 8.40164 3.5 8.78318 3.5 9.181C3.5 9.57882 3.34196 9.96035 3.06066 10.2417C2.77935 10.523 2.39783 10.681 2 10.681ZM18 14C17.337 14 16.7011 13.7366 16.2322 13.2678C15.7634 12.7989 15.5 12.163 15.5 11.5C15.5 10.837 15.7634 10.2011 16.2322 9.73223C16.7011 9.26339 17.337 9 18 9C18.663 9 19.2989 9.26339 19.7678 9.73223C20.2366 10.2011 20.5 10.837 20.5 11.5C20.5 12.163 20.2366 12.7989 19.7678 13.2678C19.2989 13.7366 18.663 14 18 14ZM2.714 14.793C2.44878 14.793 2.19443 14.6876 2.00689 14.5001C1.81936 14.3126 1.714 14.0582 1.714 13.793C1.714 13.5278 1.81936 13.2734 2.00689 13.0859C2.19443 12.8984 2.44878 12.793 2.714 12.793C2.97922 12.793 3.23357 12.8984 3.42111 13.0859C3.60864 13.2734 3.714 13.5278 3.714 13.793C3.714 14.0582 3.60864 14.3126 3.42111 14.5001C3.23357 14.6876 2.97922 14.793 2.714 14.793ZM12.5 20C11.7044 20 10.9413 19.6839 10.3787 19.1213C9.81607 18.5587 9.5 17.7956 9.5 17C9.5 16.2044 9.81607 15.4413 10.3787 14.8787C10.9413 14.3161 11.7044 14 12.5 14C13.2956 14 14.0587 14.3161 14.6213 14.8787C15.1839 15.4413 15.5 16.2044 15.5 17C15.5 17.7956 15.1839 18.5587 14.6213 19.1213C14.0587 19.6839 13.2956 20 12.5 20V20ZM5 17C4.86739 17 4.74021 16.9473 4.64645 16.8536C4.55268 16.7598 4.5 16.6326 4.5 16.5C4.5 16.3674 4.55268 16.2402 4.64645 16.1464C4.74021 16.0527 4.86739 16 5 16C5.13261 16 5.25979 16.0527 5.35355 16.1464C5.44732 16.2402 5.5 16.3674 5.5 16.5C5.5 16.6326 5.44732 16.7598 5.35355 16.8536C5.25979 16.9473 5.13261 17 5 17Z" fill="#33CB33"/>
</svg>
