<svg width="81" height="80" viewBox="0 0 81 80" fill="none" xmlns="http://www.w3.org/2000/svg">
<path fill-rule="evenodd" clip-rule="evenodd" d="M7.75805 33.7349L7.99931 33.1082C8.80503 31.2894 10.0909 29.7215 11.7243 28.5664C14.1661 27.3634 16.2262 25.5304 17.6886 23.2596C18.4228 21.3522 19.1676 19.4176 20.0684 17.5743C24.4641 8.72279 35.9879 5.86907 44.9566 9.32156L45.1787 9.40707C54.1474 12.8596 60.7831 22.7038 58.1367 32.2287C57.5691 34.2002 56.6577 36.0707 56.0623 38.0316C55.6293 40.7051 55.9246 43.453 56.9182 45.995C57.3685 47.9365 57.2746 49.9556 56.6467 51.835L56.416 52.4345C55.519 54.9495 53.7259 57.0484 51.3674 58.344C48.3633 59.7641 44.9214 60.042 41.6935 59.1253C32.1708 56.5859 22.944 53.0341 14.1766 48.5327C11.1754 47.0375 8.81179 44.527 7.52365 41.4663C6.66829 38.9319 6.75138 36.1913 7.75805 33.7349Z" fill="#EBEBEB"/>
<path fill-rule="evenodd" clip-rule="evenodd" d="M11.3901 38.7349L11.6314 38.1082C12.4371 36.2894 13.723 34.7215 15.3564 33.5664C17.7982 32.3634 19.8583 30.5304 21.3206 28.2596C22.0549 26.3522 22.7997 24.4176 23.7005 22.5743C28.0962 13.7228 39.62 10.8691 48.5887 14.3216L48.8108 14.4071C57.7795 17.8596 64.4152 27.7038 61.7688 37.2287C61.2011 39.2002 60.2898 41.0707 59.6944 43.0316C59.2613 45.7051 59.5567 48.453 60.5503 50.995C61.0005 52.9365 60.9067 54.9556 60.2788 56.835L60.0481 57.4345C59.1511 59.9495 57.358 62.0484 54.9995 63.344C51.9953 64.7641 48.5535 65.042 45.3256 64.1253C35.8029 61.5859 26.5761 58.0341 17.8087 53.5327C14.8075 52.0375 12.4439 49.527 11.1557 46.4663C10.3004 43.9319 10.3835 41.1913 11.3901 38.7349Z" fill="white" stroke="#929292" stroke-width="2.4" stroke-linecap="round" stroke-linejoin="round"/>
<path d="M20.9335 65.6235C21.672 67.9671 23.3235 69.9356 25.5225 71.0933C27.7216 72.251 30.2868 72.5025 32.6505 71.7922C33.371 71.5904 34.0616 71.299 34.7058 70.9252" stroke="#929292" stroke-width="2.4" stroke-linecap="round" stroke-linejoin="round"/>
<path fill-rule="evenodd" clip-rule="evenodd" d="M57 12C63.9041 12 69.5 17.5973 69.5 24.5C69.5 31.4027 63.9041 37 57 37C50.0973 37 44.5 31.4027 44.5 24.5C44.5 17.5973 50.0973 12 57 12Z" fill="#33CB33" stroke="#33CB33" stroke-width="1.85728" stroke-linecap="round" stroke-linejoin="round"/>
<path d="M51.3604 24.5221L56.0027 29.0696L61.9713 19.9746" stroke="white" stroke-width="1.85728" stroke-linecap="round" stroke-linejoin="round"/>
</svg>
