<svg width="25" height="25" viewBox="0 0 25 25" fill="none" xmlns="http://www.w3.org/2000/svg">
<path d="M24.2124 24.1186L0.215052 24.1445L0.212402 21.2436L24.2098 21.2177L24.2124 24.1186Z" fill="url(#paint0_linear_731_15826)"/>
<path d="M22.4982 21.2127L16.7848 21.2174L16.7839 18.8791L22.4966 18.876L22.4982 21.2127Z" fill="url(#paint1_linear_731_15826)"/>
<path d="M22.4982 11.8465L16.7848 11.8512L16.7839 9.51292L22.4966 9.50977L22.4982 11.8465Z" fill="url(#paint2_linear_731_15826)"/>
<path d="M18.5046 18.876L18.498 11.8539L20.7778 11.8516L20.7838 18.8752L18.5046 18.876Z" fill="url(#paint3_linear_731_15826)"/>
<path d="M15.0695 21.2127L9.35801 21.2174L9.35522 18.8791L15.066 18.876L15.0695 21.2127Z" fill="url(#paint4_linear_731_15826)"/>
<path d="M15.0695 11.8465L9.35801 11.8512L9.35522 9.51292L15.066 9.50977L15.0695 11.8465Z" fill="url(#paint5_linear_731_15826)"/>
<path d="M11.0755 18.876L11.0696 11.8529L13.3494 11.8516L13.3553 18.8746L11.0755 18.876Z" fill="url(#paint6_linear_731_15826)"/>
<path d="M7.6408 21.2137L1.93002 21.2174L1.92651 18.8808L7.63994 18.876L7.6408 21.2137Z" fill="url(#paint7_linear_731_15826)"/>
<path d="M7.6408 11.8475L1.93002 11.8512L1.92651 9.51454L7.63994 9.50977L7.6408 11.8475Z" fill="url(#paint8_linear_731_15826)"/>
<path d="M3.64838 18.876L3.64087 11.8539L5.92065 11.8516L5.92658 18.873L3.64838 18.876Z" fill="url(#paint9_linear_731_15826)"/>
<path d="M12.0754 0.144531L0.212402 6.54477L0.214523 9.51039L24.2124 9.48383L24.2112 6.52045L12.0754 0.144531Z" fill="url(#paint10_linear_731_15826)"/>
<defs>
<linearGradient id="paint0_linear_731_15826" x1="-0.345762" y1="24.1717" x2="-0.314314" y2="21.1068" gradientUnits="userSpaceOnUse">
<stop stop-color="#D7D7D8"/>
<stop offset="1" stop-color="#EEEEEE"/>
</linearGradient>
<linearGradient id="paint1_linear_731_15826" x1="16.651" y1="21.2392" x2="16.7355" y2="18.7899" gradientUnits="userSpaceOnUse">
<stop stop-color="#D7D7D8"/>
<stop offset="1" stop-color="#EEEEEE"/>
</linearGradient>
<linearGradient id="paint2_linear_731_15826" x1="16.651" y1="11.873" x2="16.7355" y2="9.42369" gradientUnits="userSpaceOnUse">
<stop stop-color="#D7D7D8"/>
<stop offset="1" stop-color="#EEEEEE"/>
</linearGradient>
<linearGradient id="paint3_linear_731_15826" x1="18.4449" y1="18.9412" x2="20.2278" y2="12.0456" gradientUnits="userSpaceOnUse">
<stop stop-color="#D7D7D8"/>
<stop offset="1" stop-color="#EEEEEE"/>
</linearGradient>
<linearGradient id="paint4_linear_731_15826" x1="9.22233" y1="21.2392" x2="9.30677" y2="18.7899" gradientUnits="userSpaceOnUse">
<stop stop-color="#D7D7D8"/>
<stop offset="1" stop-color="#EEEEEE"/>
</linearGradient>
<linearGradient id="paint5_linear_731_15826" x1="9.22233" y1="11.873" x2="9.30677" y2="9.42369" gradientUnits="userSpaceOnUse">
<stop stop-color="#D7D7D8"/>
<stop offset="1" stop-color="#EEEEEE"/>
</linearGradient>
<linearGradient id="paint6_linear_731_15826" x1="11.0164" y1="18.9412" x2="12.7994" y2="12.0456" gradientUnits="userSpaceOnUse">
<stop stop-color="#D7D7D8"/>
<stop offset="1" stop-color="#EEEEEE"/>
</linearGradient>
<linearGradient id="paint7_linear_731_15826" x1="1.79362" y1="21.2392" x2="1.87806" y2="18.7899" gradientUnits="userSpaceOnUse">
<stop stop-color="#D7D7D8"/>
<stop offset="1" stop-color="#EEEEEE"/>
</linearGradient>
<linearGradient id="paint8_linear_731_15826" x1="1.79362" y1="11.873" x2="1.87806" y2="9.42369" gradientUnits="userSpaceOnUse">
<stop stop-color="#D7D7D8"/>
<stop offset="1" stop-color="#EEEEEE"/>
</linearGradient>
<linearGradient id="paint9_linear_731_15826" x1="3.58771" y1="18.9412" x2="5.37064" y2="12.0456" gradientUnits="userSpaceOnUse">
<stop stop-color="#D7D7D8"/>
<stop offset="1" stop-color="#EEEEEE"/>
</linearGradient>
<linearGradient id="paint10_linear_731_15826" x1="-0.345762" y1="9.5974" x2="-0.0240554" y2="-0.20084" gradientUnits="userSpaceOnUse">
<stop stop-color="#D7D7D8"/>
<stop offset="1" stop-color="#EEEEEE"/>
</linearGradient>
</defs>
</svg>
