<svg width="24" height="24" viewBox="0 0 24 24" fill="none" xmlns="http://www.w3.org/2000/svg">
<g clip-path="url(#clip0_963_39397)">
<path d="M12 24C18.6274 24 24 18.6274 24 12C24 5.37258 18.6274 0 12 0C5.37258 0 0 5.37258 0 12C0 18.6274 5.37258 24 12 24Z" fill="#D7F7D7"/>
<path d="M14.8323 18.313H9.15896C8.66563 18.313 8.26562 17.913 8.26562 17.4197C8.26562 16.9264 8.66563 16.5264 9.15896 16.5264H14.8323C15.3256 16.5264 15.7256 16.9264 15.7256 17.4197C15.7323 17.913 15.3256 18.313 14.8323 18.313Z" fill="#62D819"/>
<path d="M12.0002 14.7332C11.6468 14.7332 11.3535 14.4399 11.3535 14.0865V6.33319C11.3535 5.97986 11.6468 5.68652 12.0002 5.68652C12.3535 5.68652 12.6468 5.97986 12.6468 6.33319V14.0865C12.6468 14.4399 12.3535 14.7332 12.0002 14.7332Z" fill="#62D819"/>
<path d="M12.3727 14.773C12.1193 15.0264 11.7127 15.0264 11.4593 14.773L8.41266 11.7264C8.15932 11.473 8.15932 11.0664 8.41266 10.813C8.66599 10.5597 9.07266 10.5597 9.32599 10.813L12.3727 13.8597C12.626 14.1064 12.626 14.5197 12.3727 14.773Z" fill="#62D819"/>
<path d="M11.6255 14.773C11.3722 14.5197 11.3722 14.113 11.6255 13.8597L14.6722 10.813C14.9255 10.5597 15.3322 10.5597 15.5855 10.813C15.8389 11.0664 15.8389 11.473 15.5855 11.7264L12.5389 14.773C12.2855 15.0264 11.8722 15.0264 11.6255 14.773Z" fill="#62D819"/>
</g>
<defs>
<clipPath id="clip0_963_39397">
<rect width="24" height="24" fill="white"/>
</clipPath>
</defs>
</svg>
