<svg width="65" height="70" viewBox="0 0 65 70" fill="none"
    xmlns="http://www.w3.org/2000/svg">
    <path fill-rule="evenodd" clip-rule="evenodd" d="M14.2658 0.668945C9.29525 0.668945 5.26581 4.69838 5.26581 9.66894V16.5161H2.29441C1.47725 16.5161 0.808838 17.4074 0.808838 18.497C0.808838 19.5865 1.47729 20.4778 2.29441 20.4778H5.26581V46.2291H2.29441C1.47725 46.2291 0.808838 47.1205 0.808838 48.21C0.808838 49.2996 1.47729 50.1909 2.29441 50.1909H5.26581V59.0187C5.26581 63.9893 9.29525 68.0187 14.2658 68.0187H14.4302H49.7495H50.7539C55.7485 68.0187 59.8346 63.9326 59.8346 58.938V9.74972C59.8346 4.75508 55.7485 0.668945 50.7539 0.668945H49.7495H14.4302H14.2658Z" fill="#E8E9EB"/>
    <rect x="10.7131" y="2.65039" width="53.4837" height="67.3498" rx="9.7" fill="white"/>
    <path d="M38.0739 27.8493C38.0739 27.2438 37.9985 26.3359 37.09 25.4274L33.3063 21.1898C33.0793 20.8873 32.3224 20.0549 31.0359 19.9034C30.355 19.8279 29.3711 19.9034 28.3117 20.7359C28.0847 20.8874 26.3443 22.2492 25.5874 24.1411C25.0574 25.2005 21.1983 33.7518 31.0359 44.6488L31.2629 44.8758C37.3924 51.8378 43.2195 53.2756 47.0032 53.2756C49.1974 53.2756 50.6354 52.8216 51.0893 52.6702C52.9812 52.1402 54.5706 50.5513 54.7215 50.3998C55.7055 49.4159 55.9324 48.4324 55.9324 47.7509C55.9324 46.4645 55.1755 45.632 54.873 45.3291L51.0893 41.0915C50.2569 40.1075 49.3489 39.8805 48.7436 39.8051C47.6087 39.7296 46.7762 40.335 46.4732 40.562L44.3548 42.3789C42.3875 41.244 40.6467 39.73 38.9817 37.9142L38.8302 37.7627C37.2408 35.9464 35.9545 34.0546 35.0465 31.9357L37.0898 29.9683C37.3168 29.8168 38.0739 29.0602 38.0739 27.8493Z" fill="#66D866"/>
    <path d="M64.7869 60.9194V11.7312C64.7869 6.73653 60.7008 2.65039 55.7062 2.65039H19.3825C14.3879 2.65039 10.3018 6.73653 10.3018 11.7312V14.7579C10.3018 15.5903 10.9827 16.2712 11.8151 16.2712C12.6475 16.2712 13.3285 15.5903 13.3285 14.7579V11.7312C13.3285 8.40136 16.0527 5.67709 19.3825 5.67709H55.7062C59.036 5.67709 61.7602 8.40136 61.7602 11.7312V60.9194C61.7602 64.2492 59.036 66.9735 55.7062 66.9735H19.3825C16.0527 66.9735 13.3285 64.2492 13.3285 60.9194V57.1357C13.3285 56.3033 12.6475 55.6224 11.8151 55.6224C10.9827 55.6224 10.3018 56.3033 10.3018 57.1357V60.9194C10.3018 65.914 14.3879 70.0002 19.3825 70.0002H55.7062C60.7008 70.0002 64.7869 65.914 64.7869 60.9194Z" fill="#929292"/>
    <path d="M10.3018 27.6227V45.0278C10.3018 45.8602 10.9827 46.5411 11.8151 46.5411C12.6475 46.5411 13.3285 45.8602 13.3285 45.0278V27.6227C13.3285 26.7903 12.6475 26.1094 11.8151 26.1094C10.9827 26.1094 10.3018 26.7903 10.3018 27.6227Z" fill="#929292"/>
    <path d="M7.27434 22.3255H16.3551C17.1876 22.3255 17.8685 21.6446 17.8685 20.8122C17.8685 19.9798 17.1875 19.2988 16.3551 19.2988H7.27434C6.44189 19.2988 5.76099 19.9798 5.76099 20.8122C5.76099 21.6446 6.44193 22.3255 7.27434 22.3255Z" fill="#929292"/>
    <path d="M7.27434 52.5951H16.3551C17.1876 52.5951 17.8685 51.9141 17.8685 51.0817C17.8685 50.2493 17.1875 49.5684 16.3551 49.5684H7.27434C6.44189 49.5684 5.76099 50.2493 5.76099 51.0817C5.76099 51.9141 6.44193 52.5951 7.27434 52.5951Z" fill="#929292"/>
</svg>
