<svg width="52" height="52" viewBox="0 0 52 52" fill="none" xmlns="http://www.w3.org/2000/svg">
<path fill-rule="evenodd" clip-rule="evenodd" d="M40.3666 19.7678C39.8709 18.5287 39.1128 17.4499 38.1215 16.6044C36.9116 15.4381 35.3517 14.7967 33.719 14.7675H33.5149H33.2379C31.7655 14.7675 30.3077 15.2194 29.0685 16.0504C28.4563 16.4586 27.7565 16.6918 27.0276 16.6918H25.0887C24.3452 16.6918 23.6163 16.4586 23.0041 16.0212C21.0069 14.6363 18.514 14.301 16.2544 15.1174C13.9948 15.9338 12.2163 17.7998 11.4437 20.1906C10.7876 21.7941 10.4669 23.5289 10.4669 25.2783C10.4669 31.0804 12.2309 37.3344 16.5314 37.3344C18.8639 37.3344 21.4734 34.1418 23.3685 32.0571C23.9954 31.3574 24.8701 30.9492 25.7885 30.9492H26.1967C27.1151 30.9638 27.9898 31.3574 28.6166 32.0717C30.5118 34.1564 33.1213 37.349 35.4537 37.349C39.7689 37.349 41.5182 31.095 41.5182 25.2929C41.5328 23.3686 41.1392 21.488 40.3666 19.7678Z" fill="#E530A4"/>
<path fill-rule="evenodd" clip-rule="evenodd" d="M16.9834 20.2931C16.9834 19.6954 17.4645 19.2144 18.0622 19.2144C18.6599 19.2144 19.1409 19.6954 19.1409 20.2931V22.232H20.8903C21.5172 22.232 22.0274 22.7423 22.0274 23.3691C22.0274 23.996 21.5172 24.5062 20.8903 24.5062H19.1409V26.4451C19.1409 27.0428 18.6599 27.5239 18.0622 27.5239C17.4645 27.5239 16.9834 27.0428 16.9834 26.4451V24.4916H15.234C14.6072 24.4916 14.0969 23.9814 14.0969 23.3545C14.0969 22.7277 14.6072 22.2174 15.234 22.2174H16.9834V20.2931Z" fill="#45E4FF"/>
<path fill-rule="evenodd" clip-rule="evenodd" d="M35.0311 21.0951C35.0311 22.1447 34.2293 22.9757 33.2235 22.9757C32.2321 22.9757 31.4158 22.1302 31.4158 21.0951C31.4158 20.0455 32.2176 19.2145 33.2235 19.2145C34.2148 19.2 35.0311 20.0455 35.0311 21.0951Z" fill="#45E4FF"/>
<path fill-rule="evenodd" clip-rule="evenodd" d="M39.361 23.3547C39.361 24.4043 38.5592 25.2353 37.5533 25.2353C36.562 25.2353 35.7456 24.3897 35.7456 23.3547C35.7456 22.3051 36.5474 21.4741 37.5533 21.4741C38.5446 21.4741 39.361 22.3197 39.361 23.3547Z" fill="#45E4FF"/>
<path d="M33.2235 27.5092C34.2218 27.5092 35.0311 26.6672 35.0311 25.6286C35.0311 24.59 34.2218 23.748 33.2235 23.748C32.2251 23.748 31.4158 24.59 31.4158 25.6286C31.4158 26.6672 32.2251 27.5092 33.2235 27.5092Z" fill="#45E4FF"/>
</svg>
