<svg width="52" height="52" viewBox="0 0 52 52" fill="none" xmlns="http://www.w3.org/2000/svg">
<path d="M21.9843 39.1009C16.7554 39.1009 15.5565 37.9021 15.5565 32.6732V19.3121C15.5565 14.0832 16.7554 12.8843 21.9843 12.8843H30.001C35.2299 12.8843 36.4287 14.0832 36.4287 19.3121V32.6732C36.4287 37.9021 35.2299 39.1009 30.001 39.1009H21.9843Z" fill="#2EE5A8"/>
<path d="M30.0154 14.1552C34.4932 14.1552 35.1721 14.8341 35.1721 19.3119V32.673C35.1721 37.1508 34.4932 37.8297 30.0154 37.8297H21.9988C17.521 37.8297 16.8421 37.1508 16.8421 32.673V19.3119C16.8421 14.8341 17.521 14.1552 21.9988 14.1552H30.0154ZM30.0154 11.6274H21.9988C16.1054 11.6274 14.3143 13.4186 14.3143 19.3119V32.673C14.3143 38.5663 16.1054 40.3574 21.9988 40.3574H30.0154C35.9088 40.3574 37.6999 38.5663 37.6999 32.673V19.3119C37.6999 13.4186 35.9088 11.6274 30.0154 11.6274Z" fill="#2EE5A8"/>
<path d="M25.9998 36.5007C24.9165 36.5007 24.0354 35.6196 24.0354 34.5362C24.0354 33.4529 24.9165 32.5718 25.9998 32.5718C27.0832 32.5718 27.9643 33.4529 27.9643 34.5362C27.9643 35.6196 27.0832 36.5007 25.9998 36.5007Z" fill="#CAFFE3"/>
<path d="M28.2821 19.2681C26.751 19.2681 25.5088 20.5103 25.5088 22.0414C25.5088 23.5725 26.751 24.8147 28.2821 24.8147C29.8132 24.8147 31.0555 23.5725 31.0555 22.0414C31.0555 20.5103 29.8277 19.2681 28.2821 19.2681ZM28.2821 23.847C27.2999 23.847 26.491 23.0525 26.491 22.0558C26.491 21.0736 27.2855 20.2647 28.2821 20.2647C29.2643 20.2647 30.0732 21.0592 30.0732 22.0558C30.0732 23.0381 29.2788 23.847 28.2821 23.847Z" fill="#CAFFE3"/>
<path d="M31.1712 24.8294C30.839 24.8294 30.579 24.5694 30.579 24.2372V15.9028C30.579 15.5705 30.839 15.3105 31.1712 15.3105C31.5034 15.3105 31.7634 15.5705 31.7634 15.9028V24.2372C31.7634 24.5694 31.489 24.8294 31.1712 24.8294Z" fill="#CAFFE3"/>
<path d="M32.5576 18.1849H29.7842C29.452 18.1849 29.192 17.9249 29.192 17.5927C29.192 17.2605 29.452 17.0005 29.7842 17.0005H32.5576C32.8898 17.0005 33.1498 17.2605 33.1498 17.5927C33.1498 17.9105 32.8898 18.1849 32.5576 18.1849Z" fill="#CAFFE3"/>
<path d="M32.4997 27.5161H26.1442C25.7108 27.5161 25.3497 27.155 25.3497 26.7217C25.3497 26.2884 25.7108 25.9272 26.1442 25.9272H32.4997C32.9331 25.9272 33.2942 26.2884 33.2942 26.7217C33.2942 27.155 32.9475 27.5161 32.4997 27.5161Z" fill="#CAFFE3"/>
</svg>
