<svg width="52" height="52" viewBox="0 0 52 52" fill="none" xmlns="http://www.w3.org/2000/svg">
<g clip-path="url(#clip0_2327_38706)">
<path d="M26 52C40.3594 52 52 40.3594 52 26C52 11.6406 40.3594 0 26 0C11.6406 0 0 11.6406 0 26C0 40.3594 11.6406 52 26 52Z" fill="#F2EDF9"/>
<path d="M22.0422 35.6627H29.9722C30.55 35.6627 31.0122 36.1249 31.0122 36.7027V38.0172C31.0122 39.3172 28.7734 40.3716 26.0145 40.3716C23.2556 40.3716 21.0167 39.3172 21.0167 38.0172V36.6883C21.0022 36.1249 21.4645 35.6627 22.0422 35.6627Z" fill="#6138E0"/>
<path d="M26 11.6416C20.2078 11.6416 15.5133 16.336 15.5133 22.1283C15.5133 27.9205 20.2078 32.6149 26 32.6149C31.7922 32.6149 36.4866 27.9205 36.4866 22.1283C36.4866 16.336 31.7922 11.6416 26 11.6416Z" fill="#6138E0"/>
<path fill-rule="evenodd" clip-rule="evenodd" d="M24.5411 18.1699H27.4445C27.56 18.1699 27.6756 18.2277 27.7189 18.3433C27.7767 18.4444 27.7767 18.5744 27.7045 18.6899L26.2745 21.0588H28.6722C28.8456 21.0588 29.0045 21.1599 29.0911 21.3333C29.1633 21.4921 29.1489 21.6944 29.0478 21.8388L24.9022 27.4721C24.8011 27.6021 24.6422 27.6455 24.4978 27.5877C24.3533 27.5299 24.2667 27.371 24.2956 27.1977L24.9311 22.2866H23.4867C23.2989 22.2866 23.1111 22.1999 22.9956 22.041C22.88 21.8821 22.8367 21.6799 22.88 21.4921L23.4578 19.0799C23.5733 18.5455 24.0211 18.1699 24.5411 18.1699Z" fill="#FFC900"/>
<path d="M30.2179 35.3743H21.7823C21.1901 35.3743 20.699 34.8832 20.699 34.291V34.0166C20.699 33.4243 21.1901 32.9332 21.7823 32.9332H30.2179C30.8101 32.9332 31.3012 33.4243 31.3012 34.0166V34.291C31.3012 34.8832 30.8245 35.3743 30.2179 35.3743Z" fill="#6138E0"/>
</g>
<defs>
<clipPath id="clip0_2327_38706">
<rect width="52" height="52" fill="white"/>
</clipPath>
</defs>
</svg>
