<svg width="52" height="52" viewBox="0 0 52 52" fill="none"
  xmlns="http://www.w3.org/2000/svg">
  <g clip-path="url(#clip0_10424_49256)">
    <path d="M26 52C40.3594 52 52 40.3594 52 26C52 11.6406 40.3594 0 26 0C11.6406 0 0 11.6406 0 26C0 40.3594 11.6406 52 26 52Z" fill="#F0FBFC"/>
    <rect x="10.3999" y="13.7583" width="31.4167" height="21.6667" rx="5" fill="#4748FC"/>
    <circle cx="17.9834" cy="21.3417" r="3.25" fill="#F0FBFC"/>
    <circle cx="22.3167" cy="21.3417" r="3.25" fill="#F0FBFC"/>
    <rect x="10.3999" y="27.8417" width="27.0833" height="3.25" fill="#45E4FF"/>
    <path d="M44.1291 33.2584C44.1291 36.9288 41.1536 39.9042 37.4832 39.9042C33.8128 39.9042 30.8374 36.9288 30.8374 33.2584C30.8374 29.588 33.8128 26.6125 37.4832 26.6125C41.1536 26.6125 44.1291 29.588 44.1291 33.2584Z" fill="#2EE5A8" stroke="#F0FBFC" stroke-width="1.875"/>
    <line x1="37.6748" y1="30.0917" x2="37.6748" y2="36.425" stroke="#F0FBFC" stroke-width="1.25" stroke-linecap="round"/>
    <line x1="34.4248" y1="33.175" x2="40.7581" y2="33.175" stroke="#F0FBFC" stroke-width="1.25" stroke-linecap="round"/>
  </g>
  <defs>
    <clipPath id="clip0_10424_49256">
      <rect width="52" height="52" fill="white"/>
    </clipPath>
  </defs>
</svg>
