<svg width="52" height="52" viewBox="0 0 52 52" fill="none" xmlns="http://www.w3.org/2000/svg">
<path d="M24.8877 38.8263C19.4566 38.8263 15.051 34.4063 15.051 28.9896C15.1088 23.2263 17.9255 18.5896 24.4399 13.6641C25.2921 17.0441 27.5599 18.9074 29.741 20.6985L30.1599 21.0452C32.6588 23.0963 34.7244 25.1185 34.7244 28.9896C34.7244 34.4207 30.3188 38.8263 24.8877 38.8263Z" fill="#4748FC"/>
<path d="M23.8186 15.7595C25.0031 18.4462 27.0686 20.1362 28.9464 21.6817L29.3653 22.0284C31.6909 23.9495 33.4675 25.6684 33.4675 29.0051C33.4675 33.7284 29.6253 37.5851 24.8875 37.5851C20.1497 37.5851 16.3075 33.7428 16.3075 29.0339C16.3509 25.4517 17.3186 21.1473 23.8186 15.7595ZM24.8731 11.9028C24.7575 11.9028 24.6275 11.9462 24.5409 12.0184C16.3653 17.9695 13.852 23.2128 13.7942 28.9906C13.7942 35.1151 18.7631 40.0984 24.902 40.0984C31.0409 40.0984 36.0097 35.1295 36.0097 28.9906C36.0097 24.4839 33.482 22.1295 30.9831 20.0639C28.4842 18.0128 26.0575 16.2217 25.4942 12.4084C25.4509 12.1195 25.2053 11.9028 24.9164 11.9028C24.8875 11.9028 24.8731 11.9028 24.8731 11.9028Z" fill="#4748FC"/>
<path fill-rule="evenodd" clip-rule="evenodd" d="M32.6586 16.3506C32.7308 16.3506 32.7886 16.365 32.8463 16.3939C36.9341 18.965 38.1908 21.2473 38.2197 23.7461C38.2197 26.4039 35.7352 28.5561 32.673 28.5561C29.6108 28.5561 27.1263 26.4039 27.1263 23.7461C27.1263 21.7961 28.3975 20.7706 29.6397 19.875C30.8819 18.9795 32.0952 18.2139 32.3841 16.5528C32.3841 16.4373 32.5141 16.3506 32.6586 16.3506Z" fill="#45E4FF"/>
<path fill-rule="evenodd" clip-rule="evenodd" d="M26.4619 36.6885C26.3608 36.7318 26.2452 36.7462 26.1296 36.7462C21.4063 36.6885 18.4308 34.0596 17.2752 28.9173C17.1741 28.4407 17.4774 27.9785 17.9396 27.8629C18.4163 27.7618 18.8785 28.0507 18.9796 28.5273C19.9474 32.8318 22.2874 34.9407 26.1441 34.984C26.6208 34.984 27.0108 35.3885 27.0108 35.8651C27.0108 36.2551 26.7796 36.5729 26.4619 36.6885Z" fill="#45E4FF"/>
<path fill-rule="evenodd" clip-rule="evenodd" d="M17.4198 25.9564C17.8387 25.8698 18.2576 26.1442 18.3298 26.5631C18.4164 26.982 18.142 27.4009 17.7231 27.4731C17.3042 27.5598 16.8853 27.2853 16.8131 26.8664C16.7264 26.4475 17.0009 26.0431 17.4198 25.9564Z" fill="#45E4FF"/>
</svg>
