<svg width="52" height="52" viewBox="0 0 52 52" fill="none" xmlns="http://www.w3.org/2000/svg">
<g clip-path="url(#clip0_2327_38703)">
<path d="M26 52C40.3594 52 52 40.3594 52 26C52 11.6406 40.3594 0 26 0C11.6406 0 0 11.6406 0 26C0 40.3594 11.6406 52 26 52Z" fill="#F0FBFC"/>
<path d="M24.8877 38.8264C19.4566 38.8264 15.051 34.4064 15.051 28.9897C15.1088 23.2264 17.9255 18.5897 24.4399 13.6642C25.2921 17.0442 27.5599 18.9075 29.741 20.6986L30.1599 21.0453C32.6588 23.0964 34.7244 25.1186 34.7244 28.9897C34.7244 34.4209 30.3188 38.8264 24.8877 38.8264Z" fill="#4748FC"/>
<path d="M23.8186 15.7594C25.0031 18.446 27.0686 20.136 28.9464 21.6816L29.3653 22.0283C31.6909 23.9494 33.4675 25.6683 33.4675 29.0049C33.4675 33.7283 29.6253 37.5849 24.8875 37.5849C20.1497 37.5849 16.3075 33.7427 16.3075 29.0338C16.3509 25.4516 17.3186 21.1472 23.8186 15.7594ZM24.8731 11.9027C24.7575 11.9027 24.6275 11.946 24.5409 12.0183C16.3653 17.9694 13.852 23.2127 13.7942 28.9905C13.7942 35.1149 18.7631 40.0983 24.902 40.0983C31.0409 40.0983 36.0097 35.1294 36.0097 28.9905C36.0097 24.4838 33.482 22.1294 30.9831 20.0638C28.4842 18.0127 26.0575 16.2216 25.4942 12.4083C25.4509 12.1194 25.2053 11.9027 24.9164 11.9027C24.8875 11.9027 24.8731 11.9027 24.8731 11.9027Z" fill="#4748FC"/>
<path fill-rule="evenodd" clip-rule="evenodd" d="M32.6586 16.3505C32.7308 16.3505 32.7886 16.3649 32.8463 16.3938C36.9341 18.9649 38.1908 21.2471 38.2197 23.746C38.2197 26.4038 35.7352 28.556 32.673 28.556C29.6108 28.556 27.1263 26.4038 27.1263 23.746C27.1263 21.796 28.3975 20.7705 29.6397 19.8749C30.8819 18.9794 32.0952 18.2138 32.3841 16.5527C32.3841 16.4371 32.5141 16.3505 32.6586 16.3505Z" fill="#45E4FF"/>
<path fill-rule="evenodd" clip-rule="evenodd" d="M26.4619 36.6886C26.3608 36.7319 26.2452 36.7464 26.1296 36.7464C21.4063 36.6886 18.4308 34.0597 17.2752 28.9175C17.1741 28.4408 17.4774 27.9786 17.9396 27.863C18.4163 27.7619 18.8785 28.0508 18.9796 28.5275C19.9474 32.8319 22.2874 34.9408 26.1441 34.9841C26.6208 34.9841 27.0108 35.3886 27.0108 35.8652C27.0108 36.2552 26.7796 36.573 26.4619 36.6886Z" fill="#45E4FF"/>
<path fill-rule="evenodd" clip-rule="evenodd" d="M17.4198 25.9562C17.8387 25.8695 18.2576 26.144 18.3298 26.5628C18.4164 26.9817 18.142 27.4006 17.7231 27.4728C17.3042 27.5595 16.8853 27.2851 16.8131 26.8662C16.7264 26.4473 17.0009 26.0428 17.4198 25.9562Z" fill="#45E4FF"/>
</g>
<defs>
<clipPath id="clip0_2327_38703">
<rect width="52" height="52" fill="white"/>
</clipPath>
</defs>
</svg>
