<svg width="335" height="72" viewBox="0 0 335 72" fill="none" xmlns="http://www.w3.org/2000/svg">
<rect width="335" height="72" rx="10" fill="white"/>
<rect width="335" height="72" rx="10" fill="url(#paint0_radial_26519_36735)"/>
<mask id="mask0_26519_36735" style="mask-type:alpha" maskUnits="userSpaceOnUse" x="0" y="0" width="335" height="72">
<rect width="335" height="72" rx="10" fill="white"/>
<rect width="335" height="72" rx="10" fill="url(#paint1_radial_26519_36735)"/>
</mask>
<g mask="url(#mask0_26519_36735)">
<g clip-path="url(#clip0_26519_36735)">
<path d="M337.671 -11H-3.66683C-3.85065 -11 -4 -10.8509 -4 -10.6675V38V86.6675C-4 86.8509 -3.85065 87 -3.66683 87H337.671C337.854 87 338 86.8509 338 86.6675V38V-10.6675C338 -10.8509 337.851 -11 337.671 -11ZM337.337 45.7819H329.874V38.3325H337.337V45.7819ZM304.829 37.6713H297.365V30.2219H304.829V37.6713ZM296.702 37.6713H289.239V30.2219H296.702V37.6713ZM289.239 29.5607V22.1113H296.702V29.5607H289.239ZM288.576 37.6713H281.112V30.2219H288.576V37.6713ZM280.45 37.6713H272.986V30.2219H280.45V37.6713ZM272.324 37.6713H264.86V30.2219H272.324V37.6713ZM264.197 37.6713H256.734V30.2219H264.197V37.6713ZM256.071 37.6713H248.607V30.2219H256.071V37.6713ZM247.945 37.6713H240.481V30.2219H247.945V37.6713ZM240.481 29.5607V22.1113H247.945V29.5607H240.481ZM239.819 37.6713H232.355V30.2219H239.819V37.6713ZM231.692 37.6713H224.228V30.2219H231.692V37.6713ZM223.566 37.6713H216.102V30.2219H223.566V37.6713ZM215.44 37.6713H207.976V30.2219H215.44V37.6713ZM207.313 37.6713H199.85V30.2219H207.313V37.6713ZM199.187 37.6713H191.723V30.2219H199.187V37.6713ZM191.723 29.5607V22.1113H199.187V29.5607H191.723ZM191.061 37.6713H183.597V30.2219H191.061V37.6713ZM182.935 37.6713H175.471V30.2219H182.935V37.6713ZM174.808 37.6713H167.345V30.2219H174.808V37.6713ZM166.682 37.6713H159.218V30.2219H166.682V37.6713ZM158.556 37.6713H151.092V30.2219H158.556V37.6713ZM150.43 37.6713H142.966V30.2219H150.43V37.6713ZM142.966 29.5607V22.1113H150.43V29.5607H142.966ZM142.303 37.6713H134.84V30.2219H142.303V37.6713ZM134.177 37.6713H126.713V30.2219H134.177V37.6713ZM126.051 37.6713H118.587V30.2219H126.051V37.6713ZM117.925 37.6713H110.461V30.2219H117.925V37.6713ZM109.798 37.6713H102.335V30.2219H109.798V37.6713ZM101.672 37.6713H94.2083V30.2219H101.672V37.6713ZM94.2083 29.5607V22.1113H101.672V29.5607H94.2083ZM93.5458 37.6713H86.082V30.2219H93.5458V37.6713ZM85.4195 37.6713H77.9558V30.2219H85.4195V37.6713ZM77.2933 37.6713H69.8295V30.2219H77.2933V37.6713ZM69.167 37.6713H61.7032V30.2219H69.167V37.6713ZM61.0407 37.6713H53.577V30.2219H61.0407V37.6713ZM52.9145 37.6713H45.4507V30.2219H52.9145V37.6713ZM45.4507 29.5607V22.1113H52.9145V29.5607H45.4507ZM44.7882 37.6713H37.3245V30.2219H44.7882V37.6713ZM36.6619 37.6713H29.1982V30.2219H36.6619V37.6713ZM28.5357 37.6713H21.0719V30.2219H28.5357V37.6713ZM21.0719 38.3325H28.5357V45.7819H21.0719V38.3325ZM29.1982 38.3325H36.6619V45.7819H29.1982V38.3325ZM37.3245 38.3325H44.7882V45.7819H37.3245V38.3325ZM44.7882 46.4431V53.8925H37.3245V46.4431H44.7882ZM45.4507 38.3325H52.9145V45.7819H45.4507V38.3325ZM53.577 38.3325H61.0407V45.7819H53.577V38.3325ZM61.7032 38.3325H69.167V45.7819H61.7032V38.3325ZM69.8295 38.3325H77.2933V45.7819H69.8295V38.3325ZM77.9558 38.3325H85.4195V45.7819H77.9558V38.3325ZM86.082 38.3325H93.5458V45.7819H86.082V38.3325ZM93.5458 46.4431V53.8925H86.082V46.4431H93.5458ZM94.2083 38.3325H101.672V45.7819H94.2083V38.3325ZM102.335 38.3325H109.798V45.7819H102.335V38.3325ZM110.461 38.3325H117.925V45.7819H110.461V38.3325ZM118.587 38.3325H126.051V45.7819H118.587V38.3325ZM126.713 38.3325H134.177V45.7819H126.713V38.3325ZM134.84 38.3325H142.303V45.7819H134.84V38.3325ZM142.303 46.4431V53.8925H134.84V46.4431H142.303ZM142.966 38.3325H150.43V45.7819H142.966V38.3325ZM151.092 38.3325H158.556V45.7819H151.092V38.3325ZM159.218 38.3325H166.682V45.7819H159.218V38.3325ZM167.345 38.3325H174.808V45.7819H167.345V38.3325ZM175.471 38.3325H182.935V45.7819H175.471V38.3325ZM183.597 38.3325H191.061V45.7819H183.597V38.3325ZM191.061 46.4431V53.8925H183.597V46.4431H191.061ZM191.723 38.3325H199.187V45.7819H191.723V38.3325ZM199.85 38.3325H207.313V45.7819H199.85V38.3325ZM207.976 38.3325H215.44V45.7819H207.976V38.3325ZM216.102 38.3325H223.566V45.7819H216.102V38.3325ZM224.228 38.3325H231.692V45.7819H224.228V38.3325ZM232.355 38.3325H239.819V45.7819H232.355V38.3325ZM239.819 46.4431V53.8925H232.355V46.4431H239.819ZM240.481 38.3325H247.945V45.7819H240.481V38.3325ZM248.607 38.3325H256.071V45.7819H248.607V38.3325ZM256.734 38.3325H264.197V45.7819H256.734V38.3325ZM264.86 38.3325H272.324V45.7819H264.86V38.3325ZM272.986 38.3325H280.45V45.7819H272.986V38.3325ZM281.112 38.3325H288.576V45.7819H281.112V38.3325ZM288.576 46.4431V53.8925H281.112V46.4431H288.576ZM289.239 38.3325H296.702V45.7819H289.239V38.3325ZM297.365 38.3325H304.829V45.7819H297.365V38.3325ZM305.491 38.3325H312.955V45.7819H305.491V38.3325ZM312.955 37.6713H305.491V30.2219H312.955V37.6713ZM305.491 29.5607V22.1113H312.955V29.5607H305.491ZM304.829 29.5607H297.365V22.1113H304.829V29.5607ZM297.365 21.4501V14.0007H304.829V21.4501H297.365ZM296.702 21.4501H289.239V14.0007H296.702V21.4501ZM288.576 29.5607H281.112V22.1113H288.576V29.5607ZM280.45 29.5607H272.986V22.1113H280.45V29.5607ZM272.324 29.5607H264.86V22.1113H272.324V29.5607ZM264.197 29.5607H256.734V22.1113H264.197V29.5607ZM256.071 29.5607H248.607V22.1113H256.071V29.5607ZM248.607 21.4501V14.0007H256.071V21.4501H248.607ZM247.945 21.4501H240.481V14.0007H247.945V21.4501ZM239.819 29.5607H232.355V22.1113H239.819V29.5607ZM231.692 29.5607H224.228V22.1113H231.692V29.5607ZM223.566 29.5607H216.102V22.1113H223.566V29.5607ZM215.44 29.5607H207.976V22.1113H215.44V29.5607ZM207.313 29.5607H199.85V22.1113H207.313V29.5607ZM199.85 21.4501V14.0007H207.313V21.4501H199.85ZM199.187 21.4501H191.723V14.0007H199.187V21.4501ZM191.061 29.5607H183.597V22.1113H191.061V29.5607ZM182.935 29.5607H175.471V22.1113H182.935V29.5607ZM174.808 29.5607H167.345V22.1113H174.808V29.5607ZM166.682 29.5607H159.218V22.1113H166.682V29.5607ZM158.556 29.5607H151.092V22.1113H158.556V29.5607ZM151.092 21.4501V14.0007H158.556V21.4501H151.092ZM150.43 21.4501H142.966V14.0007H150.43V21.4501ZM142.303 29.5607H134.84V22.1113H142.303V29.5607ZM134.177 29.5607H126.713V22.1113H134.177V29.5607ZM126.051 29.5607H118.587V22.1113H126.051V29.5607ZM117.925 29.5607H110.461V22.1113H117.925V29.5607ZM109.798 29.5607H102.335V22.1113H109.798V29.5607ZM102.335 21.4501V14.0007H109.798V21.4501H102.335ZM101.672 21.4501H94.2083V14.0007H101.672V21.4501ZM93.5458 29.5607H86.082V22.1113H93.5458V29.5607ZM85.4195 29.5607H77.9558V22.1113H85.4195V29.5607ZM77.2933 29.5607H69.8295V22.1113H77.2933V29.5607ZM69.167 29.5607H61.7032V22.1113H69.167V29.5607ZM61.0407 29.5607H53.577V22.1113H61.0407V29.5607ZM53.577 21.4501V14.0007H61.0407V21.4501H53.577ZM52.9145 21.4501H45.4507V14.0007H52.9145V21.4501ZM44.7882 29.5607H37.3245V22.1113H44.7882V29.5607ZM36.6619 29.5607H29.1982V22.1113H36.6619V29.5607ZM28.5357 29.5607H21.0719V22.1113H28.5357V29.5607ZM20.4094 29.5607H12.9457V22.1113H20.4094V29.5607ZM20.4094 30.2219V37.6713H12.9457V30.2219H20.4094ZM12.9457 38.3325H20.4094V45.7819H12.9457V38.3325ZM20.4094 46.4431V53.8925H12.9457V46.4431H20.4094ZM21.0719 46.4431H28.5357V53.8925H21.0719V46.4431ZM29.1982 46.4431H36.6619V53.8925H29.1982V46.4431ZM36.6619 54.5537V62.0031H29.1982V54.5537H36.6619ZM37.3245 54.5537H44.7882V62.0031H37.3245V54.5537ZM45.4507 46.4431H52.9145V53.8925H45.4507V46.4431ZM53.577 46.4431H61.0407V53.8925H53.577V46.4431ZM61.7032 46.4431H69.167V53.8925H61.7032V46.4431ZM69.8295 46.4431H77.2933V53.8925H69.8295V46.4431ZM77.9558 46.4431H85.4195V53.8925H77.9558V46.4431ZM85.4195 54.5537V62.0031H77.9558V54.5537H85.4195ZM86.082 54.5537H93.5458V62.0031H86.082V54.5537ZM94.2083 46.4431H101.672V53.8925H94.2083V46.4431ZM102.335 46.4431H109.798V53.8925H102.335V46.4431ZM110.461 46.4431H117.925V53.8925H110.461V46.4431ZM118.587 46.4431H126.051V53.8925H118.587V46.4431ZM126.713 46.4431H134.177V53.8925H126.713V46.4431ZM134.177 54.5537V62.0031H126.713V54.5537H134.177ZM134.84 54.5537H142.303V62.0031H134.84V54.5537ZM142.966 46.4431H150.43V53.8925H142.966V46.4431ZM151.092 46.4431H158.556V53.8925H151.092V46.4431ZM159.218 46.4431H166.682V53.8925H159.218V46.4431ZM167.345 46.4431H174.808V53.8925H167.345V46.4431ZM175.471 46.4431H182.935V53.8925H175.471V46.4431ZM182.935 54.5537V62.0031H175.471V54.5537H182.935ZM183.597 54.5537H191.061V62.0031H183.597V54.5537ZM191.723 46.4431H199.187V53.8925H191.723V46.4431ZM199.85 46.4431H207.313V53.8925H199.85V46.4431ZM207.976 46.4431H215.44V53.8925H207.976V46.4431ZM216.102 46.4431H223.566V53.8925H216.102V46.4431ZM224.228 46.4431H231.692V53.8925H224.228V46.4431ZM231.692 54.5537V62.0031H224.228V54.5537H231.692ZM232.355 54.5537H239.819V62.0031H232.355V54.5537ZM240.481 46.4431H247.945V53.8925H240.481V46.4431ZM248.607 46.4431H256.071V53.8925H248.607V46.4431ZM256.734 46.4431H264.197V53.8925H256.734V46.4431ZM264.86 46.4431H272.324V53.8925H264.86V46.4431ZM272.986 46.4431H280.45V53.8925H272.986V46.4431ZM280.45 54.5537V62.0031H272.986V54.5537H280.45ZM281.112 54.5537H288.576V62.0031H281.112V54.5537ZM289.239 46.4431H296.702V53.8925H289.239V46.4431ZM297.365 46.4431H304.829V53.8925H297.365V46.4431ZM305.491 46.4431H312.955V53.8925H305.491V46.4431ZM313.617 46.4431H321.081V53.8925H313.617V46.4431ZM313.617 45.7819V38.3325H321.081V45.7819H313.617ZM321.081 37.6713H313.617V30.2219H321.081V37.6713ZM313.617 29.5607V22.1113H321.081V29.5607H313.617ZM313.617 21.4501V14.0007H321.081V21.4501H313.617ZM312.955 21.4501H305.491V14.0007H312.955V21.4501ZM305.491 13.3395V5.89009H312.955V13.3395H305.491ZM304.829 13.3395H297.365V5.89009H304.829V13.3395ZM296.702 13.3395H289.239V5.89009H296.702V13.3395ZM288.576 21.4501H281.112V14.0007H288.576V21.4501ZM280.45 21.4501H272.986V14.0007H280.45V21.4501ZM272.324 21.4501H264.86V14.0007H272.324V21.4501ZM264.197 21.4501H256.734V14.0007H264.197V21.4501ZM256.734 13.3395V5.89009H264.197V13.3395H256.734ZM256.071 13.3395H248.607V5.89009H256.071V13.3395ZM247.945 13.3395H240.481V5.89009H247.945V13.3395ZM239.819 21.4501H232.355V14.0007H239.819V21.4501ZM231.692 21.4501H224.228V14.0007H231.692V21.4501ZM223.566 21.4501H216.102V14.0007H223.566V21.4501ZM215.44 21.4501H207.976V14.0007H215.44V21.4501ZM207.976 13.3395V5.89009H215.44V13.3395H207.976ZM207.313 13.3395H199.85V5.89009H207.313V13.3395ZM199.187 13.3395H191.723V5.89009H199.187V13.3395ZM191.061 21.4501H183.597V14.0007H191.061V21.4501ZM182.935 21.4501H175.471V14.0007H182.935V21.4501ZM174.808 21.4501H167.345V14.0007H174.808V21.4501ZM166.682 21.4501H159.218V14.0007H166.682V21.4501ZM159.218 13.3395V5.89009H166.682V13.3395H159.218ZM158.556 13.3395H151.092V5.89009H158.556V13.3395ZM150.43 13.3395H142.966V5.89009H150.43V13.3395ZM142.303 21.4501H134.84V14.0007H142.303V21.4501ZM134.177 21.4501H126.713V14.0007H134.177V21.4501ZM126.051 21.4501H118.587V14.0007H126.051V21.4501ZM117.925 21.4501H110.461V14.0007H117.925V21.4501ZM110.461 13.3395V5.89009H117.925V13.3395H110.461ZM109.798 13.3395H102.335V5.89009H109.798V13.3395ZM101.672 13.3395H94.2083V5.89009H101.672V13.3395ZM93.5458 21.4501H86.082V14.0007H93.5458V21.4501ZM85.4195 21.4501H77.9558V14.0007H85.4195V21.4501ZM77.2933 21.4501H69.8295V14.0007H77.2933V21.4501ZM69.167 21.4501H61.7032V14.0007H69.167V21.4501ZM61.7032 13.3395V5.89009H69.167V13.3395H61.7032ZM61.0407 13.3395H53.577V5.89009H61.0407V13.3395ZM52.9145 13.3395H45.4507V5.89009H52.9145V13.3395ZM44.7882 21.4501H37.3245V14.0007H44.7882V21.4501ZM36.6619 21.4501H29.1982V14.0007H36.6619V21.4501ZM28.5357 21.4501H21.0719V14.0007H28.5357V21.4501ZM20.4094 21.4501H12.9457V14.0007H20.4094V21.4501ZM12.2832 21.4501H4.78877V14.0007H12.2525V21.4501H12.2832ZM12.2832 22.1113V29.5607H4.78877V22.1113H12.2525H12.2832ZM12.2832 30.2219V37.6713H4.78877V30.2219H12.2525H12.2832ZM4.81941 38.3325H12.2832V45.7819H4.78877V38.3325H4.81941ZM12.2832 46.4431V53.8925H4.78877V46.4431H12.2525H12.2832ZM12.2832 54.5537V62.0031H4.78877V54.5537H12.2525H12.2832ZM12.9457 54.5537H20.4094V62.0031H12.9457V54.5537ZM21.0719 54.5537H28.5357V62.0031H21.0719V54.5537ZM28.5357 62.6644V70.1137H21.0719V62.6644H28.5357ZM29.1982 62.6644H36.6619V70.1137H29.1982V62.6644ZM37.3245 62.6644H44.7882V70.1137H37.3245V62.6644ZM45.4507 54.5537H52.9145V62.0031H45.4507V54.5537ZM53.577 54.5537H61.0407V62.0031H53.577V54.5537ZM61.7032 54.5537H69.167V62.0031H61.7032V54.5537ZM69.8295 54.5537H77.2933V62.0031H69.8295V54.5537ZM77.2933 62.6644V70.1137H69.8295V62.6644H77.2933ZM77.9558 62.6644H85.4195V70.1137H77.9558V62.6644ZM86.082 62.6644H93.5458V70.1137H86.082V62.6644ZM94.2083 54.5537H101.672V62.0031H94.2083V54.5537ZM102.335 54.5537H109.798V62.0031H102.335V54.5537ZM110.461 54.5537H117.925V62.0031H110.461V54.5537ZM118.587 54.5537H126.051V62.0031H118.587V54.5537ZM126.051 62.6644V70.1137H118.587V62.6644H126.051ZM126.713 62.6644H134.177V70.1137H126.713V62.6644ZM134.84 62.6644H142.303V70.1137H134.84V62.6644ZM142.966 54.5537H150.43V62.0031H142.966V54.5537ZM151.092 54.5537H158.556V62.0031H151.092V54.5537ZM159.218 54.5537H166.682V62.0031H159.218V54.5537ZM167.345 54.5537H174.808V62.0031H167.345V54.5537ZM174.808 62.6644V70.1137H167.345V62.6644H174.808ZM175.471 62.6644H182.935V70.1137H175.471V62.6644ZM183.597 62.6644H191.061V70.1137H183.597V62.6644ZM191.723 54.5537H199.187V62.0031H191.723V54.5537ZM199.85 54.5537H207.313V62.0031H199.85V54.5537ZM207.976 54.5537H215.44V62.0031H207.976V54.5537ZM216.102 54.5537H223.566V62.0031H216.102V54.5537ZM223.566 62.6644V70.1137H216.102V62.6644H223.566ZM224.228 62.6644H231.692V70.1137H224.228V62.6644ZM232.355 62.6644H239.819V70.1137H232.355V62.6644ZM240.481 54.5537H247.945V62.0031H240.481V54.5537ZM248.607 54.5537H256.071V62.0031H248.607V54.5537ZM256.734 54.5537H264.197V62.0031H256.734V54.5537ZM264.86 54.5537H272.324V62.0031H264.86V54.5537ZM272.324 62.6644V70.1137H264.86V62.6644H272.324ZM272.986 62.6644H280.45V70.1137H272.986V62.6644ZM281.112 62.6644H288.576V70.1137H281.112V62.6644ZM289.239 54.5537H296.702V62.0031H289.239V54.5537ZM297.365 54.5537H304.829V62.0031H297.365V54.5537ZM305.491 54.5537H312.955V62.0031H305.491V54.5537ZM313.617 54.5537H321.081V62.0031H313.617V54.5537ZM321.744 54.5537H329.207V62.0031H321.744V54.5537ZM321.744 53.8925V46.4431H329.207V53.8925H321.744ZM321.744 45.7819V38.3325H329.207V45.7819H321.744ZM329.207 37.6713H321.744V30.2219H329.207V37.6713ZM321.744 29.5607V22.1113H329.207V29.5607H321.744ZM321.744 21.4501V14.0007H329.207V21.4501H321.744ZM321.744 13.3395V5.89009H329.207V13.3395H321.744ZM321.081 13.3395H313.617V5.89009H321.081V13.3395ZM313.617 5.22886V-2.22816H321.081V5.22122H313.617V5.22886ZM312.955 5.22886H305.491V-2.22816H312.955V5.22122V5.22886ZM304.829 5.22886H297.365V-2.22816H304.829V5.22122V5.22886ZM296.702 5.22886H289.239V-2.22816H296.702V5.22122V5.22886ZM288.576 13.3395H281.112V5.89009H288.576V13.3395ZM280.45 13.3395H272.986V5.89009H280.45V13.3395ZM272.324 13.3395H264.86V5.89009H272.324V13.3395ZM264.86 5.22886V-2.22816H272.324V5.22122H264.86V5.22886ZM264.197 5.22886H256.734V-2.22816H264.197V5.22122V5.22886ZM256.071 5.22886H248.607V-2.22816H256.071V5.22122V5.22886ZM247.945 5.22886H240.481V-2.22816H247.945V5.22122V5.22886ZM239.819 13.3395H232.355V5.89009H239.819V13.3395ZM231.692 13.3395H224.228V5.89009H231.692V13.3395ZM223.566 13.3395H216.102V5.89009H223.566V13.3395ZM216.102 5.22886V-2.22816H223.566V5.22122H216.102V5.22886ZM215.44 5.22886H207.976V-2.22816H215.44V5.22122V5.22886ZM207.313 5.22886H199.85V-2.22816H207.313V5.22122V5.22886ZM199.187 5.22886H191.723V-2.22816H199.187V5.22122V5.22886ZM191.061 13.3395H183.597V5.89009H191.061V13.3395ZM182.935 13.3395H175.471V5.89009H182.935V13.3395ZM174.808 13.3395H167.345V5.89009H174.808V13.3395ZM167.345 5.22886V-2.22816H174.808V5.22122H167.345V5.22886ZM166.682 5.22886H159.218V-2.22816H166.682V5.22122V5.22886ZM158.556 5.22886H151.092V-2.22816H158.556V5.22122V5.22886ZM150.43 5.22886H142.966V-2.22816H150.43V5.22122V5.22886ZM142.303 13.3395H134.84V5.89009H142.303V13.3395ZM134.177 13.3395H126.713V5.89009H134.177V13.3395ZM126.051 13.3395H118.587V5.89009H126.051V13.3395ZM118.587 5.22886V-2.22816H126.051V5.22122H118.587V5.22886ZM117.925 5.22886H110.461V-2.22816H117.925V5.22122V5.22886ZM109.798 5.22886H102.335V-2.22816H109.798V5.22122V5.22886ZM101.672 5.22886H94.2083V-2.22816H101.672V5.22122V5.22886ZM93.5458 13.3395H86.082V5.89009H93.5458V13.3395ZM85.4195 13.3395H77.9558V5.89009H85.4195V13.3395ZM77.2933 13.3395H69.8295V5.89009H77.2933V13.3395ZM69.8295 5.22886V-2.22816H77.2933V5.22122H69.8295V5.22886ZM69.167 5.22886H61.7032V-2.22816H69.167V5.22122V5.22886ZM61.0407 5.22886H53.577V-2.22816H61.0407V5.22122V5.22886ZM52.9145 5.22886H45.4507V-2.22816H52.9145V5.22122V5.22886ZM44.7882 13.3395H37.3245V5.89009H44.7882V13.3395ZM36.6619 13.3395H29.1982V5.89009H36.6619V13.3395ZM28.5357 13.3395H21.0719V5.89009H28.5357V13.3395ZM21.0719 5.22886V-2.22816H28.5357V5.22122H21.0719V5.22886ZM20.4094 5.22886H12.9457V-2.22816H20.4094V5.22122V5.22886ZM20.4094 5.89009V13.3395H12.9457V5.89009H20.4094ZM12.2832 13.3395H4.78877V5.89009H12.2525V13.3395H12.2832ZM4.1569 13.3395H-3.33749V5.89009H4.12626V13.3395H4.1569ZM4.1569 14.0007V21.4501H-3.33749V14.0007H4.12626H4.1569ZM4.1569 22.1113V29.5607H-3.33749V22.1113H4.12626H4.1569ZM4.1569 30.2219V37.6713H-3.33749V30.2219H4.12626H4.1569ZM4.1569 38.3325V45.7819H-3.33749V38.3325H4.12626H4.1569ZM4.1569 46.4431V53.8925H-3.33749V46.4431H4.12626H4.1569ZM4.1569 54.5537V62.0031H-3.33749V54.5537H4.12626H4.1569ZM4.1569 62.6644V70.1137H-3.33749V62.6644H4.12626H4.1569ZM4.81941 62.6644H12.2832V70.1137H4.78877V62.6644H4.81941ZM12.9457 62.6644H20.4094V70.1137H12.9457V62.6644ZM20.4094 70.775V78.2243H12.9457V70.775H20.4094ZM21.0719 70.775H28.5357V78.2243H21.0719V70.775ZM29.1982 70.775H36.6619V78.2243H29.1982V70.775ZM37.3245 70.775H44.7882V78.2243H37.3245V70.775ZM45.4507 62.6644H52.9145V70.1137H45.4507V62.6644ZM53.577 62.6644H61.0407V70.1137H53.577V62.6644ZM61.7032 62.6644H69.167V70.1137H61.7032V62.6644ZM69.167 70.775V78.2243H61.7032V70.775H69.167ZM69.8295 70.775H77.2933V78.2243H69.8295V70.775ZM77.9558 70.775H85.4195V78.2243H77.9558V70.775ZM86.082 70.775H93.5458V78.2243H86.082V70.775ZM94.2083 62.6644H101.672V70.1137H94.2083V62.6644ZM102.335 62.6644H109.798V70.1137H102.335V62.6644ZM110.461 62.6644H117.925V70.1137H110.461V62.6644ZM117.925 70.775V78.2243H110.461V70.775H117.925ZM118.587 70.775H126.051V78.2243H118.587V70.775ZM126.713 70.775H134.177V78.2243H126.713V70.775ZM134.84 70.775H142.303V78.2243H134.84V70.775ZM142.966 62.6644H150.43V70.1137H142.966V62.6644ZM151.092 62.6644H158.556V70.1137H151.092V62.6644ZM159.218 62.6644H166.682V70.1137H159.218V62.6644ZM166.682 70.775V78.2243H159.218V70.775H166.682ZM167.345 70.775H174.808V78.2243H167.345V70.775ZM175.471 70.775H182.935V78.2243H175.471V70.775ZM183.597 70.775H191.061V78.2243H183.597V70.775ZM191.723 62.6644H199.187V70.1137H191.723V62.6644ZM199.85 62.6644H207.313V70.1137H199.85V62.6644ZM207.976 62.6644H215.44V70.1137H207.976V62.6644ZM215.44 70.775V78.2243H207.976V70.775H215.44ZM216.102 70.775H223.566V78.2243H216.102V70.775ZM224.228 70.775H231.692V78.2243H224.228V70.775ZM232.355 70.775H239.819V78.2243H232.355V70.775ZM240.481 62.6644H247.945V70.1137H240.481V62.6644ZM248.607 62.6644H256.071V70.1137H248.607V62.6644ZM256.734 62.6644H264.197V70.1137H256.734V62.6644ZM264.197 70.775V78.2243H256.734V70.775H264.197ZM264.86 70.775H272.324V78.2243H264.86V70.775ZM272.986 70.775H280.45V78.2243H272.986V70.775ZM281.112 70.775H288.576V78.2243H281.112V70.775ZM289.239 62.6644H296.702V70.1137H289.239V62.6644ZM297.365 62.6644H304.829V70.1137H297.365V62.6644ZM305.491 62.6644H312.955V70.1137H305.491V62.6644ZM312.955 70.775V78.2243H305.491V70.775H312.955ZM313.617 70.775H321.081V78.2243H313.617V70.775ZM313.617 70.1137V62.6644H321.081V70.1137H313.617ZM321.744 62.6644H329.207V70.1137H321.744V62.6644ZM329.87 62.6644H337.334V70.1137H329.87V62.6644ZM329.87 62.0031V54.5537H337.334V62.0031H329.87ZM329.87 53.8925V46.4431H337.334V53.8925H329.87ZM329.87 37.6713V30.2219H337.334V37.6713H329.87ZM329.87 29.5607V22.1113H337.334V29.5607H329.87ZM329.87 21.4501V14.0007H337.334V21.4501H329.87ZM329.87 13.3395V5.89009H337.334V13.3395H329.87ZM329.87 5.22886V-2.22816H337.334V5.22122H329.87V5.22886ZM329.207 5.22886H321.744V-2.22816H329.207V5.22122V5.22886ZM321.744 -2.88175V-10.3388H329.207V-2.88939H321.744V-2.88175ZM321.081 -2.88175H313.617V-10.3388H321.081V-2.88939V-2.88175ZM312.955 -2.88175H305.491V-10.3388H312.955V-2.88939V-2.88175ZM304.829 -2.88175H297.365V-10.3388H304.829V-2.88939V-2.88175ZM296.702 -2.88175H289.239V-10.3388H296.702V-2.88939V-2.88175ZM288.576 5.22886H281.112V-2.22816H288.576V5.22122V5.22886ZM280.45 5.22886H272.986V-2.22816H280.45V5.22122V5.22886ZM272.986 -2.88175V-10.3388H280.45V-2.88939H272.986V-2.88175ZM272.324 -2.88175H264.86V-10.3388H272.324V-2.88939V-2.88175ZM264.197 -2.88175H256.734V-10.3388H264.197V-2.88939V-2.88175ZM256.071 -2.88175H248.607V-10.3388H256.071V-2.88939V-2.88175ZM247.945 -2.88175H240.481V-10.3388H247.945V-2.88939V-2.88175ZM239.819 5.22886H232.355V-2.22816H239.819V5.22122V5.22886ZM231.692 5.22886H224.228V-2.22816H231.692V5.22122V5.22886ZM224.228 -2.88175V-10.3388H231.692V-2.88939H224.228V-2.88175ZM223.566 -2.88175H216.102V-10.3388H223.566V-2.88939V-2.88175ZM215.44 -2.88175H207.976V-10.3388H215.44V-2.88939V-2.88175ZM207.313 -2.88175H199.85V-10.3388H207.313V-2.88939V-2.88175ZM199.187 -2.88175H191.723V-10.3388H199.187V-2.88939V-2.88175ZM191.061 5.22886H183.597V-2.22816H191.061V5.22122V5.22886ZM182.935 5.22886H175.471V-2.22816H182.935V5.22122V5.22886ZM175.471 -2.88175V-10.3388H182.935V-2.88939H175.471V-2.88175ZM174.808 -2.88175H167.345V-10.3388H174.808V-2.88939V-2.88175ZM166.682 -2.88175H159.218V-10.3388H166.682V-2.88939V-2.88175ZM158.556 -2.88175H151.092V-10.3388H158.556V-2.88939V-2.88175ZM150.43 -2.88175H142.966V-10.3388H150.43V-2.88939V-2.88175ZM142.303 5.22886H134.84V-2.22816H142.303V5.22122V5.22886ZM134.177 5.22886H126.713V-2.22816H134.177V5.22122V5.22886ZM126.713 -2.88175V-10.3388H134.177V-2.88939H126.713V-2.88175ZM126.051 -2.88175H118.587V-10.3388H126.051V-2.88939V-2.88175ZM117.925 -2.88175H110.461V-10.3388H117.925V-2.88939V-2.88175ZM109.798 -2.88175H102.335V-10.3388H109.798V-2.88939V-2.88175ZM101.672 -2.88175H94.2083V-10.3388H101.672V-2.88939V-2.88175ZM93.5458 5.22886H86.082V-2.22816H93.5458V5.22122V5.22886ZM85.4195 5.22886H77.9558V-2.22816H85.4195V5.22122V5.22886ZM77.9558 -2.88175V-10.3388H85.4195V-2.88939H77.9558V-2.88175ZM77.2933 -2.88175H69.8295V-10.3388H77.2933V-2.88939V-2.88175ZM69.167 -2.88175H61.7032V-10.3388H69.167V-2.88939V-2.88175ZM61.0407 -2.88175H53.577V-10.3388H61.0407V-2.88939V-2.88175ZM52.9145 -2.88175H45.4507V-10.3388H52.9145V-2.88939V-2.88175ZM44.7882 5.22886H37.3245V-2.22816H44.7882V5.22122V5.22886ZM36.6619 5.22886H29.1982V-2.22816H36.6619V5.22122V5.22886ZM29.1982 -2.88175V-10.3388H36.6619V-2.88939H29.1982V-2.88175ZM28.5357 -2.88175H21.0719V-10.3388H28.5357V-2.88939V-2.88175ZM20.4094 -2.88175H12.9457V-10.3388H20.4094V-2.88939V-2.88175ZM12.2832 -2.88175H4.78877V-10.3388H12.2525V-2.88939L12.2832 -2.88175ZM12.2832 -2.22052V5.22886H4.78877V-2.22816H12.2525L12.2832 -2.22052ZM4.1569 5.22886H-3.33749V-2.22816H4.12626V5.22122L4.1569 5.22886ZM-3.33749 70.775H4.12626V78.2243H-3.33749V70.775ZM4.78877 70.775H12.2525V78.2243H4.78877V70.775ZM12.2525 78.8856V86.3349H4.78877V78.8856H12.2525ZM12.915 78.8856H20.3788V86.3349H12.915V78.8856ZM21.0413 78.8856H28.505V86.3349H21.0413V78.8856ZM29.1676 78.8856H36.6313V86.3349H29.1676V78.8856ZM37.2938 78.8856H44.7576V86.3349H37.2938V78.8856ZM45.4201 70.775H52.8838V78.2243H45.4201V70.775ZM53.5463 70.775H61.0101V78.2243H53.5463V70.775ZM61.0101 78.8856V86.3349H53.5463V78.8856H61.0101ZM61.6726 78.8856H69.1364V86.3349H61.6726V78.8856ZM69.7989 78.8856H77.2626V86.3349H69.7989V78.8856ZM77.9251 78.8856H85.3889V86.3349H77.9251V78.8856ZM86.0514 78.8856H93.5152V86.3349H86.0514V78.8856ZM94.1777 70.775H101.641V78.2243H94.1777V70.775ZM102.304 70.775H109.768V78.2243H102.304V70.775ZM109.768 78.8856V86.3349H102.304V78.8856H109.768ZM110.43 78.8856H117.894V86.3349H110.43V78.8856ZM118.556 78.8856H126.02V86.3349H118.556V78.8856ZM126.683 78.8856H134.146V86.3349H126.683V78.8856ZM134.809 78.8856H142.273V86.3349H134.809V78.8856ZM142.935 70.775H150.399V78.2243H142.935V70.775ZM151.061 70.775H158.525V78.2243H151.061V70.775ZM158.525 78.8856V86.3349H151.061V78.8856H158.525ZM159.188 78.8856H166.652V86.3349H159.188V78.8856ZM167.314 78.8856H174.778V86.3349H167.314V78.8856ZM175.44 78.8856H182.904V86.3349H175.44V78.8856ZM183.567 78.8856H191.03V86.3349H183.567V78.8856ZM191.693 70.775H199.157V78.2243H191.693V70.775ZM199.819 70.775H207.283V78.2243H199.819V70.775ZM207.283 78.8856V86.3349H199.819V78.8856H207.283ZM207.945 78.8856H215.409V86.3349H207.945V78.8856ZM216.072 78.8856H223.535V86.3349H216.072V78.8856ZM224.198 78.8856H231.662V86.3349H224.198V78.8856ZM232.324 78.8856H239.788V86.3349H232.324V78.8856ZM240.45 70.775H247.914V78.2243H240.45V70.775ZM248.577 70.775H256.04V78.2243H248.577V70.775ZM256.04 78.8856V86.3349H248.577V78.8856H256.04ZM256.703 78.8856H264.167V86.3349H256.703V78.8856ZM264.829 78.8856H272.293V86.3349H264.829V78.8856ZM272.955 78.8856H280.419V86.3349H272.955V78.8856ZM281.082 78.8856H288.545V86.3349H281.082V78.8856ZM289.208 70.775H296.672V78.2243H289.208V70.775ZM297.334 70.775H304.798V78.2243H297.334V70.775ZM304.798 78.8856V86.3349H297.334V78.8856H304.798ZM305.46 78.8856H312.924V86.3349H305.46V78.8856ZM313.587 78.8856H321.051V86.3349H313.587V78.8856ZM321.713 78.8856H329.177V86.3349H321.713V78.8856ZM321.713 78.2243V70.775H329.177V78.2243H321.713ZM329.839 70.775H337.303V78.2243H329.839V70.775ZM337.303 -2.88939H329.839V-10.3388H337.303V-2.88939ZM288.542 -2.88939H281.078V-10.3388H288.542V-2.88939ZM239.78 -2.88939H232.316V-10.3388H239.78V-2.88939ZM191.019 -2.88939H183.555V-10.3388H191.019V-2.88939ZM142.257 -2.88939H134.794V-10.3388H142.257V-2.88939ZM93.496 -2.88939H86.0322V-10.3388H93.496V-2.88939ZM44.7346 -2.88939H37.2708V-10.3388H44.7346V-2.88939ZM4.12626 -10.3388V-2.88939H-3.33749V-10.3388H4.12626ZM-3.33749 78.8856H4.12626V86.3349H-3.33749V78.8856ZM45.4239 78.8856H52.8877V86.3349H45.4239V78.8856ZM94.1853 78.8856H101.649V86.3349H94.1853V78.8856ZM142.947 78.8856H150.41V86.3349H142.947V78.8856ZM191.708 78.8856H199.172V86.3349H191.708V78.8856ZM240.47 78.8856H247.933V86.3349H240.47V78.8856ZM289.231 78.8856H296.695V86.3349H289.231V78.8856ZM329.866 86.3349V78.8856H337.33V86.3349H329.866Z" fill="url(#paint2_linear_26519_36735)"/>
</g>
<g clip-path="url(#clip1_26519_36735)">
<path d="M41.2814 68.6268C41.2448 68.6268 41.2106 68.6196 41.1763 68.605L34.8086 65.853L34.789 65.8385L34.7768 65.8336L34.7499 65.8143C34.7499 65.8143 34.7377 65.7997 34.7328 65.7949H34.7279L34.7133 65.7731L34.5788 65.5817C34.1364 65.0172 32.8139 63.1446 28.9249 57.5679L28.9151 57.5534L28.9102 57.5413C28.8931 57.5171 28.8857 57.5001 28.8809 57.4832L24.9502 45.6273C24.9404 45.603 24.938 45.574 24.938 45.5473V32.8266L25.9353 18.5578C25.9353 18.5287 25.9451 18.5021 25.9549 18.4754L29.0275 11.2418L29.0349 11.2345C29.0495 11.2078 29.0691 11.186 29.0911 11.1691L29.096 11.1642L35.3341 6.78186C35.3586 6.7649 35.3879 6.75279 35.4197 6.7431H35.4246L35.4466 6.73583L45.1583 5.41797H45.2048L54.9605 6.73825L54.9678 6.7431C54.9996 6.75036 55.0289 6.76248 55.0534 6.78186L61.3062 11.1763V11.1836C61.3258 11.1981 61.338 11.2175 61.3502 11.2369L61.3551 11.2418L61.3673 11.2684L64.4302 18.4779C64.4424 18.5045 64.4497 18.5336 64.4497 18.5627L65.4446 32.812V45.5522C65.4446 45.5812 65.4397 45.6079 65.4324 45.6321L61.5018 57.488C61.4944 57.5122 61.4822 57.534 61.47 57.5534L61.4553 57.5728C57.5662 63.1519 56.2414 65.0294 55.7989 65.5938L55.6596 65.7925L55.6522 65.7973L55.64 65.8118L55.6131 65.8336L55.5887 65.8458L55.5667 65.8579L49.2112 68.605C49.1794 68.6196 49.1427 68.6268 49.1061 68.6268H41.2814ZM48.9252 68.1108L50.1058 64.8428L48.1087 63.1422H45.4565V68.1108H48.9252ZM44.9359 68.1108V63.1422H42.2837L40.2866 64.8428L41.4672 68.1108H44.9359ZM49.5558 67.8928L54.5645 65.7295L50.5825 65.0536L49.5558 67.8928ZM40.8341 67.8928L39.8075 65.0536L35.8255 65.7295L40.8341 67.8928ZM34.7402 59.3267C34.9919 62.7449 35.1264 64.6514 35.163 65.3176L39.8637 64.5206L41.763 62.9024L36.7079 59.3267H34.7402ZM55.2245 65.3176C55.2611 64.6539 55.3931 62.7982 55.6474 59.3267H53.6796L48.6245 62.9024L50.5238 64.5206L55.2245 65.3176ZM56.1876 59.0893L55.7891 64.7096L61.0031 57.3208L61.3478 46.0657L56.9209 49.2296L56.1876 59.0917V59.0893ZM34.5984 64.7096L34.1999 59.0893L33.4666 49.2296L29.0397 46.0657L29.3844 57.3208L34.5984 64.7096ZM48.1185 62.6262L49.5363 61.6233H45.4516V62.6262H48.1185ZM44.931 62.6262V61.6233H40.8488L42.2666 62.6262H44.9334H44.931ZM50.2647 61.1073L52.7116 59.3776L51.3403 59.4551L49.9787 61.1097H50.2647V61.1073ZM49.3065 61.1073L50.8563 59.2225L48.253 56.7467H46.4612L45.4516 57.3887V61.1073H49.3065ZM44.931 61.1073V57.3887L43.9214 56.7467H42.1297L39.5263 59.2225L41.0761 61.1073H44.931ZM40.4039 61.1073L39.0423 59.4527L37.671 59.3752L40.1179 61.1048H40.4039V61.1073ZM51.3085 58.9391L53.2665 58.8301L51.7534 52.6429L48.7076 56.4657L51.3085 58.9391ZM39.0741 58.9391L41.675 56.4657L38.6292 52.6429L37.1161 58.8301L39.0741 58.9391ZM55.684 58.8131C55.8502 56.5602 56.0727 53.5659 56.3709 49.5784L52.1787 52.1875L53.7994 58.8107H55.684V58.8131ZM36.5857 58.8131L38.2064 52.1899L34.0142 49.5808C34.3124 53.5659 34.5348 56.5626 34.701 58.8156H36.5857V58.8131ZM45.4541 56.7782L46.1287 56.3494V53.5223H45.4541V56.7782ZM44.9334 56.7782V53.5223H44.2588V56.3494L44.9334 56.7782ZM48.2334 56.2331L50.9223 52.8537C50.6289 53.0039 49.6512 53.4957 49.6512 53.4957C49.6145 53.515 49.573 53.5247 49.5338 53.5247H46.647V56.2355H48.2334V56.2331ZM43.7405 56.2331V53.5223H40.8537C40.8121 53.5223 40.773 53.5126 40.7363 53.4932C40.2035 53.2243 39.7903 53.016 39.4652 52.8513L42.1541 56.2307H43.7405V56.2331ZM28.8124 55.6299L28.5044 45.6297L25.4709 41.0147L25.4562 45.5061L28.8124 55.6275V55.6299ZM61.5751 55.6299L64.9289 45.5086L64.9142 41.0172L61.8807 45.6321L61.5751 55.6299ZM49.4727 53.0063C50.1254 52.6768 51.1521 52.1584 51.5701 51.9428L50.7536 49.3483H49.7001L47.879 50.4844C47.8374 50.5111 47.7885 50.5232 47.7396 50.5232C47.6981 50.5232 47.659 50.5135 47.6223 50.4941C47.5392 50.4529 47.4854 50.3706 47.4805 50.2809L46.581 35.5883H45.4541V53.0039H49.4727V53.0063ZM44.9334 53.0063V35.5907H43.8065L42.907 50.2834C42.9021 50.373 42.8483 50.4554 42.7652 50.4966C42.7285 50.5159 42.687 50.5256 42.6454 50.5256C42.5965 50.5256 42.5477 50.5111 42.5061 50.4869L40.685 49.3483H39.6315L38.815 51.9428C39.2159 52.1487 40.1961 52.6453 40.9123 53.0063H44.931H44.9334ZM38.3579 51.6715L39.0912 49.3458H34.6228L38.3579 51.6715ZM52.032 51.6715L55.7671 49.3458H51.2987L52.032 51.6715ZM47.9743 49.8158L49.4874 48.871C49.529 48.8444 49.5778 48.8323 49.6267 48.8323H50.6681L49.8003 37.0927L47.1163 35.7627L47.9767 49.8158H47.9743ZM40.7657 48.8323C40.8146 48.8323 40.8634 48.8468 40.905 48.871L42.4181 49.8158L43.2785 35.7627L40.5946 37.0927L39.7268 48.8323H40.7681H40.7657ZM56.5885 48.8323L61.2842 45.4771L57.3413 38.6067H52.0467C51.9905 38.6067 51.9392 38.5898 51.8952 38.5583L50.3454 37.456L51.1863 48.8323H56.586H56.5885ZM39.2037 48.8323L40.0446 37.456L38.4948 38.5583C38.4508 38.5898 38.397 38.6067 38.3432 38.6067H33.0486L29.1057 45.4771L33.8015 48.8323H39.2012H39.2037ZM61.6411 45.0555L64.7846 40.2734L58.9253 37.8994L57.8522 38.4541L61.6411 45.0555ZM28.7513 45.0555L32.5402 38.4541L31.4671 37.8994L25.6078 40.2734L28.7513 45.0555ZM64.9142 39.7696V33.127L60.7464 36.6106L59.4436 37.5505L64.9166 39.7671L64.9142 39.7696ZM25.4782 39.7696L30.9513 37.5529L29.6631 36.6227L25.4807 33.127V39.7696H25.4782ZM57.4293 38.0932L58.7836 37.393L60.0742 36.4604L57.0138 34.9947H53.1369L50.4872 36.9255L52.1298 38.0932H57.4269H57.4293ZM38.2601 38.0932L39.9028 36.9255L37.253 34.9947H33.3762L30.3157 36.4604L31.6235 37.4027L32.9606 38.0932H38.2577H38.2601ZM40.3697 36.6275L43.215 35.2176L41.1739 31.1114L37.7272 34.7016L40.3672 36.6275H40.3697ZM50.0203 36.6275L52.6603 34.7016L49.2136 31.1114L47.1725 35.2176L50.0178 36.6275H50.0203ZM29.8513 36.1115L33.0413 34.5829L32.5622 29.4423L25.6933 32.6352L29.8513 36.1115ZM60.5387 36.1115L64.6966 32.6376L57.8278 29.4447L57.3487 34.5853L60.5387 36.1139V36.1115ZM46.6616 35.0771L48.7321 30.7819H45.4541V35.0771H46.6616ZM44.9334 35.0771V30.7819H41.6554L43.7283 35.0771H44.9359H44.9334ZM56.8353 34.4787L57.312 29.3648L49.6585 30.6947L53.1663 34.4763H56.8353V34.4787ZM37.2237 34.4787L40.7314 30.6972L33.0779 29.3672L33.5546 34.4812H37.2237V34.4787ZM64.8824 32.1531L64.286 23.633L57.8596 26.5982V28.8899L64.88 32.1531H64.8824ZM25.5051 32.1531L32.5255 28.8899V26.5982L26.0991 23.633L25.5027 32.1507L25.5051 32.1531ZM48.9178 30.2659L50.1743 21.4237L49.0621 13.5601H45.4541V30.2635H48.9178V30.2659ZM44.9334 30.2659V13.5601H41.3254L40.2132 21.4237L41.4697 30.2659H44.9334ZM49.4532 30.2078L57.3413 28.8366V26.5667L50.6363 21.8767L49.4532 30.2054V30.2078ZM40.9368 30.2078L39.7537 21.8791L33.0486 26.5691V28.8391L40.9368 30.2102V30.2078ZM57.6298 26.1379L64.2493 23.0831L63.9486 18.7952L57.6469 17.6348L50.9198 21.4479L57.6273 26.1379H57.6298ZM32.7602 26.1379L39.4677 21.4479L32.7406 17.6348L26.4389 18.7952L26.1382 23.0831L32.7577 26.1379H32.7602ZM50.6436 21.0118L57.0505 17.3805L49.617 13.7491L50.6436 21.0118ZM39.7488 21.0118L40.7754 13.7491L33.3419 17.3805L39.7488 21.0118ZM26.6222 18.238L32.3764 17.177L29.2964 11.9419L26.6222 18.2356V18.238ZM63.7702 18.238L61.096 11.9443L58.016 17.177L63.7702 18.238ZM32.8922 17.0268L40.6826 13.221L35.4441 7.33662L29.602 11.4404L32.8897 17.0243L32.8922 17.0268ZM57.5027 17.0268L60.7904 11.4428L54.9483 7.33904L49.7123 13.2234L57.5027 17.0292V17.0268ZM49.1745 13.0465L54.3909 7.184L45.4541 5.96788V13.0441H49.1721L49.1745 13.0465ZM44.9359 13.0465V5.96788L35.999 7.18158L41.2154 13.0441H44.9334L44.9359 13.0465Z" fill="white" stroke="white" stroke-width="0.5"/>
<mask id="mask1_26519_36735" style="mask-type:luminance" maskUnits="userSpaceOnUse" x="30" y="35" width="11" height="4">
<path d="M37.524 35L40.5306 37.19L38.5311 38.6144H33.0849L31.6647 37.8804L30 36.6788L33.5029 35H37.524Z" fill="white"/>
</mask>
<g mask="url(#mask1_26519_36735)">
<path d="M36.6088 37.9432C37.5499 37.2289 37.7284 35.8938 37.0076 34.9612C36.2869 34.0287 34.9398 33.8517 33.9988 34.566C33.0578 35.2803 32.8792 36.6154 33.6 37.548C34.3207 38.4805 35.6678 38.6575 36.6088 37.9432Z" fill="#58ACFF"/>
</g>
<mask id="mask2_26519_36735" style="mask-type:luminance" maskUnits="userSpaceOnUse" x="50" y="34" width="11" height="5">
<path d="M53.0516 34.7344L50.0449 36.9243L52.0469 38.3488H57.4907L58.9109 37.6148L60.5755 36.4132L57.0727 34.7344H53.0516Z" fill="white"/>
</mask>
<g mask="url(#mask2_26519_36735)">
<path d="M56.5236 37.7134C57.4862 37.0279 57.7058 35.6989 57.0141 34.7449C56.3224 33.791 54.9814 33.5733 54.0188 34.2588C53.0562 34.9443 52.8366 36.2733 53.5283 37.2273C54.22 38.1812 55.561 38.3989 56.5236 37.7134Z" fill="#80B7FF"/>
</g>
<path d="M56.2046 36.7762C55.7475 36.7762 55.3735 36.408 55.3735 35.9526C55.3735 35.4971 55.7451 35.1289 56.2046 35.1289C56.6642 35.1289 57.0357 35.4971 57.0357 35.9526C57.0357 36.408 56.6642 36.7762 56.2046 36.7762ZM56.2046 35.7321C56.0824 35.7321 55.9822 35.8314 55.9822 35.9526C55.9822 36.0737 56.0824 36.173 56.2046 36.173C56.3269 36.173 56.4271 36.0737 56.4271 35.9526C56.4271 35.8314 56.3269 35.7321 56.2046 35.7321Z" fill="white"/>
<path d="M36.1119 36.7762C35.6548 36.7762 35.2808 36.408 35.2808 35.9526C35.2808 35.4971 35.6523 35.1289 36.1119 35.1289C36.5714 35.1289 36.943 35.4971 36.943 35.9526C36.943 36.408 36.5714 36.7762 36.1119 36.7762ZM36.1119 35.7321C35.9896 35.7321 35.8894 35.8314 35.8894 35.9526C35.8894 36.0737 35.9896 36.173 36.1119 36.173C36.2341 36.173 36.3343 36.0737 36.3343 35.9526C36.3343 35.8314 36.2341 35.7321 36.1119 35.7321Z" fill="white"/>
<path d="M65.1736 44.5234C65.137 44.5234 65.1003 44.5137 65.0661 44.4968C64.9903 44.458 64.9438 44.3805 64.9438 44.2957V38.2902C64.9438 38.1642 65.0465 38.0625 65.1736 38.0625H68.3881C68.5152 38.0625 68.6178 38.1642 68.6178 38.2902V42.159C68.6178 42.2341 68.5787 42.3068 68.5152 42.348L65.3007 44.4847C65.2616 44.5113 65.2176 44.5234 65.1736 44.5234ZM65.4034 38.5179V43.8693L68.1583 42.0379V38.5179H65.4034Z" fill="#F5FAFF"/>
<path d="M68.3881 38.5212H65.1736C65.0465 38.5212 64.9438 38.4195 64.9438 38.2935V32.5715C64.9438 32.4455 65.0465 32.3438 65.1736 32.3438H68.3881C68.5152 32.3438 68.6178 32.4455 68.6178 32.5715V38.2935C68.6178 38.4195 68.5152 38.5212 68.3881 38.5212ZM65.4034 38.0658H68.1583V32.7992H65.4034V38.0658Z" fill="white"/>
<path d="M50.0497 13.3003C50.0497 12.8836 49.71 12.5469 49.2895 12.5469C48.8691 12.5469 48.5293 12.8836 48.5293 13.3003C48.5293 13.717 48.8691 14.0537 49.2895 14.0537C49.71 14.0537 50.0497 13.717 50.0497 13.3003Z" fill="#80B7FF"/>
<path d="M69.1484 38.2925C69.1484 37.8758 68.8086 37.5391 68.3881 37.5391C67.9677 37.5391 67.6279 37.8758 67.6279 38.2925C67.6279 38.7091 67.9677 39.0459 68.3881 39.0459C68.8086 39.0459 69.1484 38.7091 69.1484 38.2925Z" fill="#80B7FF"/>
<path d="M69.1484 32.5737C69.1484 32.157 68.8086 31.8203 68.3881 31.8203C67.9677 31.8203 67.6279 32.157 67.6279 32.5737C67.6279 32.9904 67.9677 33.3271 68.3881 33.3271C68.8086 33.3271 69.1484 32.9904 69.1484 32.5737Z" fill="#80B7FF"/>
<path d="M25.2142 44.5234C25.1702 44.5234 25.1238 44.5113 25.0871 44.4847L21.8727 42.348C21.8091 42.3068 21.77 42.2341 21.77 42.159V38.2902C21.77 38.1642 21.8727 38.0625 21.9998 38.0625H25.2142C25.3413 38.0625 25.444 38.1642 25.444 38.2902V44.2957C25.444 44.3805 25.3976 44.458 25.3218 44.4968C25.2876 44.5137 25.2509 44.5234 25.2142 44.5234ZM22.2296 42.0355L24.9844 43.8669V38.5155H22.2296V42.0355Z" fill="#F5FAFF"/>
<path d="M25.2142 38.5212H21.9998C21.8727 38.5212 21.77 38.4195 21.77 38.2935V32.5715C21.77 32.4455 21.8727 32.3438 21.9998 32.3438H25.2142C25.3413 32.3438 25.444 32.4455 25.444 32.5715V38.2935C25.444 38.4195 25.3413 38.5212 25.2142 38.5212ZM22.2296 38.0658H24.9844V32.7992H22.2296V38.0658Z" fill="#F5FAFF"/>
<path d="M40.3379 13.3003C40.3379 12.8836 40.6777 12.5469 41.0981 12.5469C41.5186 12.5469 41.8583 12.8836 41.8583 13.3003C41.8583 13.717 41.5186 14.0537 41.0981 14.0537C40.6777 14.0537 40.3379 13.717 40.3379 13.3003Z" fill="#80B7FF"/>
<path d="M44.4326 13.3003C44.4326 12.8836 44.7724 12.5469 45.1928 12.5469C45.6133 12.5469 45.9531 12.8836 45.9531 13.3003C45.9531 13.717 45.6133 14.0537 45.1928 14.0537C44.7724 14.0537 44.4326 13.717 44.4326 13.3003Z" fill="#80B7FF"/>
<path d="M44.4326 68.3667C44.4326 67.95 44.7724 67.6133 45.1928 67.6133C45.6133 67.6133 45.9531 67.95 45.9531 68.3667C45.9531 68.7834 45.6133 69.1201 45.1928 69.1201C44.7724 69.1201 44.4326 68.7834 44.4326 68.3667Z" fill="#80B7FF"/>
<path d="M21.2397 38.2925C21.2397 37.8758 21.5795 37.5391 22 37.5391C22.4204 37.5391 22.7602 37.8758 22.7602 38.2925C22.7602 38.7091 22.4204 39.0459 22 39.0459C21.5795 39.0459 21.2397 38.7091 21.2397 38.2925Z" fill="#80B7FF"/>
<path d="M21.2397 32.5737C21.2397 32.157 21.5795 31.8203 22 31.8203C22.4204 31.8203 22.7602 32.157 22.7602 32.5737C22.7602 32.9904 22.4204 33.3271 22 33.3271C21.5795 33.3271 21.2397 32.9904 21.2397 32.5737Z" fill="#F5FAFF"/>
<path d="M65.3276 45.5473V32.8168L64.3327 18.5675C64.3327 18.5529 64.3279 18.5384 64.323 18.5239L61.2601 11.3144C61.2601 11.3144 61.2552 11.3095 61.2552 11.3071C61.2454 11.2877 61.2332 11.2684 61.2137 11.2563L54.9877 6.88115C54.9706 6.86904 54.951 6.86419 54.9315 6.85935H54.9266L45.2124 5.53906C45.2124 5.53906 45.2002 5.53906 45.1929 5.53906C45.1855 5.53906 45.1806 5.53906 45.1733 5.53906L35.464 6.85692C35.464 6.85692 35.4616 6.85692 35.4591 6.85692C35.4396 6.85935 35.42 6.86661 35.4029 6.87873L29.177 11.2538C29.1574 11.2684 29.1452 11.2853 29.1354 11.3047C29.1354 11.3071 29.1305 11.3095 29.1305 11.312L26.0676 18.5239C26.0628 18.5384 26.0579 18.5529 26.0579 18.5675L25.7328 23.2309L25.0801 32.5601V32.5673L25.063 32.8241V45.5473C25.063 45.5618 25.063 45.5764 25.0703 45.5909L29.001 57.4468C29.0059 57.4589 29.0107 57.471 29.0181 57.4807L29.0303 57.4977C32.9976 63.1858 34.2516 64.9591 34.6818 65.509L34.8138 65.698C34.8138 65.698 34.8187 65.7004 34.8187 65.7028C34.8236 65.7101 34.8309 65.7173 34.8383 65.7246C34.8383 65.7246 34.8383 65.7246 34.8407 65.727C34.8456 65.7294 34.8505 65.7319 34.8554 65.7343C34.8603 65.7367 34.8652 65.7416 34.87 65.744L41.228 68.4911C41.2451 68.4984 41.2647 68.5033 41.2842 68.5033H49.1088C49.1284 68.5033 49.1455 68.4984 49.1651 68.4911L55.5206 65.744C55.5206 65.744 55.5304 65.7367 55.5352 65.7343C55.5401 65.7319 55.545 65.7294 55.5499 65.727C55.5499 65.727 55.5499 65.727 55.5524 65.7246C55.5597 65.7173 55.567 65.7101 55.5719 65.7028C55.5719 65.7028 55.5768 65.7028 55.5768 65.698L55.7064 65.5138C56.1341 64.9688 57.3857 63.1979 61.3725 57.4831V57.4807C61.3799 57.471 61.3848 57.4589 61.3897 57.4468L65.3203 45.5909C65.3252 45.5764 65.3276 45.5618 65.3276 45.5473ZM65.0367 40.6077L65.0539 45.5255L61.4288 56.4632L61.7245 46.8433L61.7637 45.5933L63.3134 43.2362L65.0392 40.6101L65.0367 40.6077ZM45.3322 61.2284V57.3232L46.4273 56.6255H48.3046L51.0253 59.2128L49.3655 61.2284H45.3298H45.3322ZM41.0202 61.2284L39.3605 59.2128L42.0811 56.6255H43.9584L45.0535 57.3232V61.2284H41.0178H41.0202ZM28.1796 24.4591L32.6481 26.5207V28.965L25.3685 32.3493L25.9894 23.4489L28.1772 24.4591H28.1796ZM32.7727 26.276L26.0114 23.1582L26.3243 18.6934L32.7629 17.5064L39.5487 21.3534L39.6929 21.4358L34.6769 24.9436L32.7727 26.276ZM49.17 13.439L50.2993 21.4236L49.0257 30.387H45.3322V13.439H49.17ZM38.4267 51.8604L36.5763 50.7097L34.1978 49.2295H39.2553L38.4267 51.8628V51.8604ZM32.9316 38.2143L31.5529 37.4996L30.0814 36.4385L33.3496 34.8712H37.2949L40.1109 36.9255L38.2996 38.2143H32.9316ZM25.3539 32.8677L29.7245 36.5209C29.7245 36.5209 29.7294 36.5257 29.7318 36.5257L31.1985 37.582L25.3539 39.9488V32.8653V32.8677ZM33.1712 34.6555L29.8345 36.2544L25.4712 32.6061L32.6701 29.2606L33.1736 34.6555H33.1712ZM40.3578 36.7704L37.5467 34.721L41.2084 30.9055L43.3815 35.2757L40.3602 36.7704H40.3578ZM39.7687 46.572L40.4751 37.0175L43.4109 35.564L42.5235 50.0314L40.8369 48.9776C40.8149 48.9631 40.7904 48.9558 40.7636 48.9558H39.5902L39.7662 46.572H39.7687ZM37.2778 34.5998H33.4425L32.9414 29.2194L40.9713 30.6148L37.2778 34.5998ZM31.4723 37.7685L32.7067 38.4081L30.7952 41.739L28.7565 45.2905L25.4223 40.2177L31.4723 37.7685ZM28.9472 45.5134L32.9805 38.488H38.346C38.3754 38.488 38.4022 38.4783 38.4267 38.4614L40.1891 37.2089L39.3189 48.9534H33.7676L29.2356 45.7169L28.9496 45.5134H28.9472ZM39.1258 59.065L36.9674 58.9439L37.1922 58.0233L38.5758 52.374L41.8464 56.4778L39.1282 59.065H39.1258ZM42.0982 56.3542L39.1698 52.6744C39.116 52.6066 39.0671 52.546 39.0207 52.4879C39.3776 52.672 39.9325 52.953 40.7929 53.3866C40.8124 53.3963 40.8344 53.4011 40.8564 53.4011H43.8655V56.3542H42.0982ZM40.8882 53.1274C40.1085 52.735 38.9987 52.1729 38.6736 52.0033L39.5487 49.2271H40.7293L42.5798 50.3827C42.6018 50.3972 42.6287 50.4045 42.6531 50.4045C42.6751 50.4045 42.6971 50.3996 42.7167 50.3899C42.7607 50.3681 42.7875 50.3245 42.7924 50.2761L43.6993 35.4695H45.0633V53.1274H40.8931H40.8882ZM57.3075 17.3707L50.5462 21.2032L49.4608 13.5383L57.3075 17.3707ZM50.5413 21.6635L54.6772 24.556L57.4615 26.5037V28.9359L49.3068 30.3531L50.5413 21.6611V21.6635ZM64.917 32.6037L62.6314 34.5126L60.5512 36.2496L57.2146 34.6507L57.4223 32.4123L57.7157 29.2557L58.5175 29.6288L64.9145 32.6037H64.917ZM65.0319 32.8653V39.9488L59.1872 37.582L60.6539 36.5257C60.6539 36.5257 60.6588 36.5209 60.6612 36.5209L65.0319 32.8677V32.8653ZM47.234 35.6875L49.9106 37.0127L50.7931 48.9509H49.6197C49.5928 48.9509 49.5684 48.9582 49.5464 48.9727L47.8597 50.0266L46.9749 35.5592L47.234 35.6875ZM50.0304 36.7656L47.0091 35.2709L49.1822 30.9006L52.8439 34.7161L50.0328 36.7656H50.0304ZM53.1104 34.5974L49.4144 30.6123L57.4443 29.2169L56.9432 34.5974H53.1079H53.1104ZM46.7377 35.1958H45.3322V30.6584H48.928L46.7402 35.1958H46.7377ZM44.1369 53.4011H45.056V56.9986L44.1369 56.4148V53.4011ZM45.3298 53.4011H46.2489V56.4148L45.3298 56.9986V53.4011ZM45.3298 53.1274V35.4695H46.6937L47.6006 50.2761C47.6031 50.3245 47.6324 50.3681 47.674 50.3899C47.6935 50.3996 47.7155 50.4045 47.7375 50.4045C47.762 50.4045 47.7888 50.3972 47.8108 50.3827L49.6613 49.2271H50.8419L51.717 52.0033C51.3919 52.1729 50.2822 52.735 49.5024 53.1274H45.3322H45.3298ZM46.5226 53.4011H49.5317C49.5537 53.4011 49.5757 53.3963 49.5953 53.3866C50.4533 52.953 51.0082 52.6744 51.3675 52.4879C51.3235 52.5436 51.2722 52.6066 51.2184 52.6744L48.29 56.3542H46.5226V53.4011ZM51.8124 52.374L53.4208 58.9439L51.2624 59.065L48.5442 56.4778L51.8148 52.374H51.8124ZM51.959 51.858L51.1304 49.2247H56.1904L55.6012 49.5905L51.959 51.858ZM56.623 48.9509H51.0717L50.6073 42.6814L50.2015 37.2041L51.9639 38.4565C51.9884 38.4735 52.0153 38.4832 52.0446 38.4832H57.4101L58.1435 39.7598L61.4434 45.5085L58.4588 47.6404L56.6279 48.9485L56.623 48.9509ZM57.4541 38.2118H52.0862L50.2748 36.923L53.0908 34.8687H57.0361L60.3043 36.4361L58.8328 37.4972L57.4541 38.2118ZM63.2841 31.5426L57.7377 28.9626V26.5182L64.3939 23.4465L65.0147 32.3469L63.2816 31.5426H63.2841ZM45.0535 35.1958H43.648L41.4602 30.6584H45.0535V35.1958ZM32.9218 28.9359V26.5037L32.9976 26.4504L39.8445 21.6635L41.0789 30.3555L32.9243 28.9384L32.9218 28.9359ZM39.8396 21.2032L33.0783 17.3707L38.0429 14.9458L40.9249 13.5383L39.8396 21.2032ZM32.5649 17.2617L30.8685 17.5742L26.4148 18.3955L29.2723 11.6705L30.365 13.5262L32.5649 17.2617ZM28.9056 45.821L29.3163 46.1142L33.5794 49.1593L34.3152 59.0772L34.7454 65.1359L29.2576 57.3572L28.9032 45.821H28.9056ZM33.8703 49.3458L38.3411 52.1293L36.6765 58.9318H34.5816C34.4105 56.6231 34.1807 53.5199 33.8678 49.3458H33.8703ZM37.2534 59.2298L39.1013 59.3315L40.6609 61.2259H40.0767L37.2534 59.2298ZM51.2746 59.3315L53.1226 59.2298L50.2993 61.2259H49.7151L51.2746 59.3315ZM53.6995 58.9294L52.0348 52.1269L53.0933 51.468L56.5081 49.3434C56.1952 53.515 55.9655 56.6207 55.7944 58.9294H53.6995ZM56.0608 59.0772L56.7966 49.1593L58.1752 48.1733L61.4728 45.8186L61.1183 57.3547L55.6306 65.1335L56.0608 59.0747V59.0772ZM61.6268 45.2856L57.6766 38.4032L58.9134 37.7637L64.9634 40.2129L64.2887 41.24L61.6292 45.2856H61.6268ZM64.3719 23.1533L64.1665 23.2478L57.6106 26.2711L50.6879 21.4309L57.6203 17.5016L64.059 18.6886L64.2325 21.1838L64.3694 23.1533H64.3719ZM63.9636 18.3931L57.8159 17.2593L61.1085 11.6681L62.5996 15.1783L63.9661 18.3931H63.9636ZM60.9448 11.4016L59.5074 13.8411L57.5421 17.1794L49.5073 13.2548L51.4188 11.1061L54.9217 7.16943L60.4999 11.0891L60.9448 11.4016ZM49.2237 13.1604H45.3298V5.82977L54.6284 7.09191L49.2237 13.1652V13.1604ZM45.0535 30.3798H41.36L40.0865 21.4164L41.2158 13.4317H45.0535V30.3846V30.3798ZM35.4616 7.17428L35.8478 7.60791L40.876 13.2573L32.8412 17.1818L29.441 11.404L35.1243 7.41168L35.4616 7.17428ZM25.3514 40.6101L28.627 45.5933L28.9619 56.4632L25.3368 45.5255L25.3539 40.6077L25.3514 40.6101ZM35.4029 65.6786L39.8885 64.9179L41.0447 68.1181L35.4029 65.681V65.6786ZM39.9202 64.6345L39.5145 64.7023L35.0534 65.4605L35.046 65.3418C35.0143 64.7895 34.9116 63.2948 34.6109 59.208H36.7498L41.5653 62.6141L41.9638 62.8975L39.9202 64.6369V64.6345ZM42.2302 62.7473L40.9347 61.8316L40.4702 61.5021H45.0584V62.7473H42.2302ZM45.3322 61.5021H49.9204L48.1604 62.7473H45.3322V61.5021ZM53.6408 59.2055H55.7797C55.479 63.3069 55.3764 64.7968 55.3446 65.3443L55.3372 65.4581L51.8564 64.867L50.4704 64.632L48.4268 62.8927L53.6408 59.2055ZM50.4997 64.9155L54.9853 65.6762L49.3435 68.1132L50.4997 64.913V64.9155ZM45.056 13.1652H41.162L35.7574 7.09191L45.056 5.82977V13.1652ZM41.3771 68.2319L40.1402 64.8065L42.2351 63.0235H45.056V68.2343H41.3771V68.2319ZM45.3298 63.021H48.1506L50.2455 64.804L49.0086 68.2295H45.3298V63.0186V63.021Z" fill="#F5FAFF"/>
<path d="M56.205 35.25C55.8139 35.25 55.4961 35.5649 55.4961 35.9525C55.4961 36.3401 55.8139 36.6551 56.205 36.6551C56.5961 36.6551 56.9139 36.3401 56.9139 35.9525C56.9139 35.5649 56.5961 35.25 56.205 35.25ZM56.205 36.2941C56.0143 36.2941 55.8603 36.1415 55.8603 35.9525C55.8603 35.7636 56.0143 35.611 56.205 35.611C56.3956 35.611 56.5496 35.7636 56.5496 35.9525C56.5496 36.1415 56.3956 36.2941 56.205 36.2941Z" fill="#F5FAFF"/>
<path d="M49.4312 61.593H40.9539C40.8855 61.593 40.8195 61.5615 40.7755 61.5082L38.9959 59.3449C38.9519 59.2892 38.9348 59.2165 38.9495 59.1487C38.9666 59.0808 39.013 59.0227 39.079 58.9936L41.301 58.0077C41.3303 57.9955 41.3621 57.9883 41.3939 57.9883H43.6721C43.699 57.9883 43.7234 57.9931 43.7479 58.0004L45.1901 58.5043L46.6323 58.0004C46.6568 57.9907 46.6837 57.9883 46.7081 57.9883H48.9863C49.0181 57.9883 49.0499 57.9955 49.0792 58.0077L51.3012 58.9936C51.3672 59.0227 51.4136 59.0808 51.4307 59.1487C51.4478 59.2189 51.4307 59.2892 51.3843 59.3449L49.6023 61.5082C49.5583 61.5615 49.4923 61.593 49.4239 61.593H49.4312ZM41.0639 61.1376H49.3212L50.8441 59.2892L48.9423 58.4437H46.7521L45.2683 58.9621C45.2194 58.9791 45.1657 58.9791 45.1168 58.9621L43.6354 58.4437H41.4452L39.5435 59.2892L41.0664 61.1376H41.0639Z" fill="#F5FAFF"/>
<path d="M50.0497 13.3003C50.0497 12.8836 49.71 12.5469 49.2895 12.5469C48.8691 12.5469 48.5293 12.8836 48.5293 13.3003C48.5293 13.717 48.8691 14.0537 49.2895 14.0537C49.71 14.0537 50.0497 13.717 50.0497 13.3003Z" fill="#58ACFF"/>
<path d="M69.1484 38.2925C69.1484 37.8758 68.8086 37.5391 68.3881 37.5391C67.9677 37.5391 67.6279 37.8758 67.6279 38.2925C67.6279 38.7091 67.9677 39.0459 68.3881 39.0459C68.8086 39.0459 69.1484 38.7091 69.1484 38.2925Z" fill="white"/>
<path d="M69.1484 32.5737C69.1484 32.157 68.8086 31.8203 68.3881 31.8203C67.9677 31.8203 67.6279 32.157 67.6279 32.5737C67.6279 32.9904 67.9677 33.3271 68.3881 33.3271C68.8086 33.3271 69.1484 32.9904 69.1484 32.5737Z" fill="#58ACFF"/>
<path d="M40.3379 13.3003C40.3379 12.8836 40.6777 12.5469 41.0981 12.5469C41.5186 12.5469 41.8583 12.8836 41.8583 13.3003C41.8583 13.717 41.5186 14.0537 41.0981 14.0537C40.6777 14.0537 40.3379 13.717 40.3379 13.3003Z" fill="#58ACFF"/>
<path d="M44.4326 13.3003C44.4326 12.8836 44.7724 12.5469 45.1928 12.5469C45.6133 12.5469 45.9531 12.8836 45.9531 13.3003C45.9531 13.717 45.6133 14.0537 45.1928 14.0537C44.7724 14.0537 44.4326 13.717 44.4326 13.3003Z" fill="#58ACFF"/>
<path d="M21.2397 38.2925C21.2397 37.8758 21.5795 37.5391 22 37.5391C22.4204 37.5391 22.7602 37.8758 22.7602 38.2925C22.7602 38.7091 22.4204 39.0459 22 39.0459C21.5795 39.0459 21.2397 38.7091 21.2397 38.2925Z" fill="#F5FAFF"/>
<path d="M50.0497 13.3003C50.0497 12.8836 49.71 12.5469 49.2895 12.5469C48.8691 12.5469 48.5293 12.8836 48.5293 13.3003C48.5293 13.717 48.8691 14.0537 49.2895 14.0537C49.71 14.0537 50.0497 13.717 50.0497 13.3003Z" fill="#58ACFF"/>
<path d="M69.1484 32.5737C69.1484 32.157 68.8086 31.8203 68.3881 31.8203C67.9677 31.8203 67.6279 32.157 67.6279 32.5737C67.6279 32.9904 67.9677 33.3271 68.3881 33.3271C68.8086 33.3271 69.1484 32.9904 69.1484 32.5737Z" fill="white"/>
<path d="M40.3379 13.3003C40.3379 12.8836 40.6777 12.5469 41.0981 12.5469C41.5186 12.5469 41.8583 12.8836 41.8583 13.3003C41.8583 13.717 41.5186 14.0537 41.0981 14.0537C40.6777 14.0537 40.3379 13.717 40.3379 13.3003Z" fill="#58ACFF"/>
<path d="M44.4326 13.3003C44.4326 12.8836 44.7724 12.5469 45.1928 12.5469C45.6133 12.5469 45.9531 12.8836 45.9531 13.3003C45.9531 13.717 45.6133 14.0537 45.1928 14.0537C44.7724 14.0537 44.4326 13.717 44.4326 13.3003Z" fill="#58ACFF"/>
</g>
<path d="M76.8582 42.4961L61.9236 73.3952H29.4795L13 42.4961H76.8582Z" fill="url(#paint3_linear_26519_36735)"/>
<path d="M70.6783 -9V15.7193H19.1797V-9H70.6783Z" fill="url(#paint4_linear_26519_36735)"/>
<path d="M72.7381 15.7188C51.0177 15.7188 38.84 15.7188 17.1196 15.7188" stroke="#42DDFF" stroke-width="2" stroke-linecap="round"/>
<path d="M117.512 31.16C116.531 31.16 115.672 30.9893 114.936 30.648C114.211 30.296 113.603 29.832 113.112 29.256C112.621 28.6693 112.253 28.0133 112.008 27.288C111.763 26.5627 111.64 25.8213 111.64 25.064C111.64 24.3173 111.763 23.5813 112.008 22.856C112.253 22.1307 112.621 21.48 113.112 20.904C113.603 20.3173 114.211 19.8533 114.936 19.512C115.672 19.1707 116.531 19 117.512 19C118.333 19 119.032 19.1067 119.608 19.32C120.195 19.5227 120.68 19.7893 121.064 20.12C121.459 20.44 121.773 20.7867 122.008 21.16C122.253 21.5227 122.435 21.8693 122.552 22.2C122.669 22.52 122.744 22.7867 122.776 23C122.819 23.2027 122.84 23.304 122.84 23.304H120.392C120.392 23.304 120.371 23.2347 120.328 23.096C120.296 22.9467 120.227 22.7707 120.12 22.568C120.013 22.3547 119.853 22.1467 119.64 21.944C119.437 21.7413 119.16 21.5707 118.808 21.432C118.467 21.2827 118.04 21.208 117.528 21.208C116.792 21.208 116.173 21.4 115.672 21.784C115.181 22.1573 114.808 22.6373 114.552 23.224C114.307 23.8107 114.184 24.424 114.184 25.064C114.184 25.704 114.307 26.3227 114.552 26.92C114.808 27.5067 115.181 27.992 115.672 28.376C116.173 28.7493 116.792 28.936 117.528 28.936C118.04 28.936 118.467 28.8667 118.808 28.728C119.16 28.5893 119.437 28.4187 119.64 28.216C119.853 28.0027 120.013 27.7947 120.12 27.592C120.227 27.3787 120.296 27.2027 120.328 27.064C120.371 26.9253 120.392 26.856 120.392 26.856H122.84C122.84 26.856 122.819 26.9627 122.776 27.176C122.744 27.3787 122.669 27.6453 122.552 27.976C122.435 28.296 122.253 28.6427 122.008 29.016C121.773 29.3787 121.459 29.7253 121.064 30.056C120.68 30.376 120.195 30.6427 119.608 30.856C119.032 31.0587 118.333 31.16 117.512 31.16ZM125.772 21.464L127.836 18.584H129.772L131.836 21.464H129.932L128.796 19.8L127.676 21.464H125.772ZM128.06 22.36C128.604 22.36 129.052 22.4507 129.404 22.632C129.756 22.8027 130.023 22.9893 130.204 23.192C130.396 23.3947 130.514 23.5333 130.556 23.608H130.684V22.52H133.116V31H130.684V29.912H130.556C130.514 29.9867 130.396 30.1253 130.204 30.328C130.023 30.5307 129.756 30.7227 129.404 30.904C129.052 31.0747 128.604 31.16 128.06 31.16C127.431 31.16 126.882 31.0373 126.412 30.792C125.954 30.536 125.57 30.2 125.26 29.784C124.951 29.3573 124.716 28.8827 124.556 28.36C124.407 27.8373 124.332 27.304 124.332 26.76C124.332 26.216 124.407 25.6827 124.556 25.16C124.716 24.6373 124.951 24.168 125.26 23.752C125.57 23.3253 125.954 22.9893 126.412 22.744C126.882 22.488 127.431 22.36 128.06 22.36ZM128.764 24.328C128.327 24.328 127.959 24.4507 127.66 24.696C127.372 24.9307 127.154 25.2347 127.004 25.608C126.866 25.9813 126.796 26.3653 126.796 26.76C126.796 27.1547 126.866 27.5387 127.004 27.912C127.154 28.2853 127.372 28.5947 127.66 28.84C127.959 29.0747 128.327 29.192 128.764 29.192C129.202 29.192 129.564 29.0747 129.852 28.84C130.151 28.5947 130.37 28.2853 130.508 27.912C130.658 27.5387 130.732 27.1547 130.732 26.76C130.732 26.3653 130.658 25.9813 130.508 25.608C130.37 25.2347 130.151 24.9307 129.852 24.696C129.564 24.4507 129.202 24.328 128.764 24.328ZM128.796 34.952C128.423 34.952 128.114 34.824 127.868 34.568C127.634 34.3227 127.516 34.024 127.516 33.672C127.516 33.32 127.634 33.0213 127.868 32.776C128.114 32.5307 128.423 32.408 128.796 32.408C129.159 32.408 129.458 32.5307 129.692 32.776C129.938 33.0213 130.06 33.32 130.06 33.672C130.06 34.024 129.938 34.3227 129.692 34.568C129.458 34.824 129.159 34.952 128.796 34.952ZM135.229 34.12V22.52H137.661V23.608H137.773C137.826 23.5333 137.943 23.3947 138.125 23.192C138.317 22.9893 138.589 22.8027 138.941 22.632C139.293 22.4507 139.741 22.36 140.285 22.36C140.914 22.36 141.458 22.488 141.917 22.744C142.386 22.9893 142.775 23.3253 143.085 23.752C143.394 24.168 143.623 24.6373 143.773 25.16C143.933 25.6827 144.013 26.216 144.013 26.76C144.013 27.304 143.933 27.8373 143.773 28.36C143.623 28.8827 143.394 29.3573 143.085 29.784C142.775 30.2 142.386 30.536 141.917 30.792C141.458 31.0373 140.914 31.16 140.285 31.16C139.741 31.16 139.293 31.0747 138.941 30.904C138.589 30.7227 138.317 30.5307 138.125 30.328C137.943 30.1253 137.826 29.9867 137.773 29.912H137.661V34.12H135.229ZM137.613 26.76C137.613 27.1547 137.682 27.5387 137.821 27.912C137.97 28.2853 138.189 28.5947 138.477 28.84C138.775 29.0747 139.143 29.192 139.581 29.192C140.018 29.192 140.381 29.0747 140.669 28.84C140.967 28.5947 141.186 28.2853 141.325 27.912C141.474 27.5387 141.549 27.1547 141.549 26.76C141.549 26.3653 141.474 25.9813 141.325 25.608C141.186 25.2347 140.967 24.9307 140.669 24.696C140.381 24.4507 140.018 24.328 139.581 24.328C139.143 24.328 138.775 24.4507 138.477 24.696C138.189 24.9307 137.97 25.2347 137.821 25.608C137.682 25.9813 137.613 26.3653 137.613 26.76ZM149.444 31V22.52H151.876V23.736H151.956C152.052 23.5653 152.19 23.3733 152.372 23.16C152.564 22.9467 152.814 22.76 153.124 22.6C153.444 22.44 153.849 22.36 154.34 22.36C155.001 22.36 155.54 22.5147 155.956 22.824C156.372 23.1227 156.676 23.512 156.868 23.992C157.06 24.4613 157.156 24.9573 157.156 25.48V31H154.724V25.896C154.724 25.4907 154.612 25.1333 154.388 24.824C154.174 24.5147 153.828 24.36 153.348 24.36C152.985 24.36 152.697 24.4453 152.484 24.616C152.27 24.7867 152.116 25.0053 152.02 25.272C151.924 25.5387 151.876 25.8213 151.876 26.12V31H149.444ZM159.166 31V18.84H161.598V23.736H161.678C161.774 23.5653 161.913 23.3733 162.094 23.16C162.286 22.9467 162.537 22.76 162.846 22.6C163.166 22.44 163.571 22.36 164.062 22.36C164.723 22.36 165.262 22.5147 165.678 22.824C166.094 23.1227 166.398 23.512 166.59 23.992C166.782 24.4613 166.878 24.9573 166.878 25.48V31H164.446V25.896C164.446 25.4907 164.334 25.1333 164.11 24.824C163.897 24.5147 163.55 24.36 163.07 24.36C162.707 24.36 162.419 24.4453 162.206 24.616C161.993 24.7867 161.838 25.0053 161.742 25.272C161.646 25.5387 161.598 25.8213 161.598 26.12V31H159.166ZM170.007 21.464L172.071 18.584H174.007L176.071 21.464H174.167L173.031 19.8L171.911 21.464H170.007ZM172.295 22.36C172.839 22.36 173.287 22.4507 173.639 22.632C173.991 22.8027 174.257 22.9893 174.439 23.192C174.631 23.3947 174.748 23.5333 174.791 23.608H174.919V22.52H177.351V31H174.919V29.912H174.791C174.748 29.9867 174.631 30.1253 174.439 30.328C174.257 30.5307 173.991 30.7227 173.639 30.904C173.287 31.0747 172.839 31.16 172.295 31.16C171.665 31.16 171.116 31.0373 170.647 30.792C170.188 30.536 169.804 30.2 169.495 29.784C169.185 29.3573 168.951 28.8827 168.791 28.36C168.641 27.8373 168.567 27.304 168.567 26.76C168.567 26.216 168.641 25.6827 168.791 25.16C168.951 24.6373 169.185 24.168 169.495 23.752C169.804 23.3253 170.188 22.9893 170.647 22.744C171.116 22.488 171.665 22.36 172.295 22.36ZM172.999 24.328C172.561 24.328 172.193 24.4507 171.895 24.696C171.607 24.9307 171.388 25.2347 171.239 25.608C171.1 25.9813 171.031 26.3653 171.031 26.76C171.031 27.1547 171.1 27.5387 171.239 27.912C171.388 28.2853 171.607 28.5947 171.895 28.84C172.193 29.0747 172.561 29.192 172.999 29.192C173.436 29.192 173.799 29.0747 174.087 28.84C174.385 28.5947 174.604 28.2853 174.743 27.912C174.892 27.5387 174.967 27.1547 174.967 26.76C174.967 26.3653 174.892 25.9813 174.743 25.608C174.604 25.2347 174.385 24.9307 174.087 24.696C173.799 24.4507 173.436 24.328 172.999 24.328ZM173.031 34.952C172.657 34.952 172.348 34.824 172.103 34.568C171.868 34.3227 171.751 34.024 171.751 33.672C171.751 33.32 171.868 33.0213 172.103 32.776C172.348 32.5307 172.657 32.408 173.031 32.408C173.393 32.408 173.692 32.5307 173.927 32.776C174.172 33.0213 174.295 33.32 174.295 33.672C174.295 34.024 174.172 34.3227 173.927 34.568C173.692 34.824 173.393 34.952 173.031 34.952ZM183.083 31.16C182.422 31.16 181.894 31.064 181.499 30.872C181.104 30.6693 180.806 30.4187 180.603 30.12C180.4 29.8107 180.267 29.4853 180.203 29.144C180.139 28.8027 180.107 28.488 180.107 28.2V24.456H178.667V22.52H180.107V20.424H182.539V22.52H184.347V24.456H182.539V28.136C182.539 28.488 182.63 28.76 182.811 28.952C183.003 29.144 183.318 29.24 183.755 29.24C183.947 29.24 184.123 29.224 184.283 29.192C184.443 29.16 184.523 29.144 184.523 29.144V31.016C184.523 31.016 184.379 31.0373 184.091 31.08C183.803 31.1333 183.467 31.16 183.083 31.16ZM189.994 31V18.84H192.426V25.848L195.226 22.52H197.994L194.666 26.392L198.138 31H195.274L192.426 27.192V31H189.994ZM199.572 31V18.84H202.004V23.736H202.084C202.18 23.5653 202.319 23.3733 202.5 23.16C202.692 22.9467 202.943 22.76 203.252 22.6C203.572 22.44 203.978 22.36 204.468 22.36C205.13 22.36 205.668 22.5147 206.084 22.824C206.5 23.1227 206.804 23.512 206.996 23.992C207.188 24.4613 207.284 24.9573 207.284 25.48V31H204.852V25.896C204.852 25.4907 204.74 25.1333 204.516 24.824C204.303 24.5147 203.956 24.36 203.476 24.36C203.114 24.36 202.826 24.4453 202.612 24.616C202.399 24.7867 202.244 25.0053 202.148 25.272C202.052 25.5387 202.004 25.8213 202.004 26.12V31H199.572ZM211.787 31.16C211.189 31.16 210.693 31.032 210.299 30.776C209.915 30.52 209.627 30.1787 209.435 29.752C209.243 29.3147 209.147 28.824 209.147 28.28V22.52H211.563V27.8C211.563 28.2053 211.669 28.536 211.883 28.792C212.096 29.0373 212.411 29.16 212.827 29.16C213.179 29.16 213.456 29.0747 213.659 28.904C213.872 28.7333 214.027 28.5147 214.123 28.248C214.219 27.9813 214.267 27.6987 214.267 27.4V22.52H216.699V31H214.267V29.8H214.171C213.989 30.1307 213.707 30.44 213.323 30.728C212.949 31.016 212.437 31.16 211.787 31.16ZM219.849 21.464L221.929 18.584H223.849L225.929 21.464H224.025L222.889 19.8L221.753 21.464H219.849ZM222.889 31.16C221.94 31.16 221.134 30.9573 220.473 30.552C219.812 30.136 219.305 29.5973 218.953 28.936C218.612 28.264 218.441 27.5387 218.441 26.76C218.441 25.9813 218.612 25.2613 218.953 24.6C219.305 23.928 219.812 23.3893 220.473 22.984C221.134 22.568 221.94 22.36 222.889 22.36C223.838 22.36 224.644 22.568 225.305 22.984C225.966 23.3893 226.468 23.928 226.809 24.6C227.161 25.2613 227.337 25.9813 227.337 26.76C227.337 27.5387 227.161 28.264 226.809 28.936C226.468 29.5973 225.966 30.136 225.305 30.552C224.644 30.9573 223.838 31.16 222.889 31.16ZM222.889 29.176C223.316 29.176 223.678 29.064 223.977 28.84C224.276 28.616 224.5 28.3227 224.649 27.96C224.809 27.5867 224.889 27.1867 224.889 26.76C224.889 26.3227 224.809 25.9227 224.649 25.56C224.5 25.1973 224.276 24.904 223.977 24.68C223.678 24.456 223.316 24.344 222.889 24.344C222.462 24.344 222.1 24.456 221.801 24.68C221.502 24.904 221.273 25.1973 221.113 25.56C220.964 25.9227 220.889 26.3227 220.889 26.76C220.889 27.1867 220.964 27.5867 221.113 27.96C221.273 28.3227 221.502 28.616 221.801 28.84C222.1 29.064 222.462 29.176 222.889 29.176ZM228.991 31V22.52H231.423V23.736H231.503C231.599 23.5653 231.737 23.3733 231.919 23.16C232.111 22.9467 232.361 22.76 232.671 22.6C232.991 22.44 233.396 22.36 233.887 22.36C234.548 22.36 235.087 22.5147 235.503 22.824C235.919 23.1227 236.223 23.512 236.415 23.992C236.607 24.4613 236.703 24.9573 236.703 25.48V31H234.271V25.896C234.271 25.4907 234.159 25.1333 233.935 24.824C233.721 24.5147 233.375 24.36 232.895 24.36C232.532 24.36 232.244 24.4453 232.031 24.616C231.817 24.7867 231.663 25.0053 231.567 25.272C231.471 25.5387 231.423 25.8213 231.423 26.12V31H228.991ZM242.241 31V22.52H244.673V23.672H244.753C244.934 23.3627 245.206 23.0693 245.569 22.792C245.931 22.504 246.427 22.36 247.057 22.36C247.697 22.36 248.209 22.5093 248.593 22.808C248.987 23.1067 249.275 23.4747 249.457 23.912H249.489C249.627 23.6667 249.809 23.4267 250.033 23.192C250.267 22.9467 250.555 22.7493 250.897 22.6C251.249 22.44 251.659 22.36 252.129 22.36C252.715 22.36 253.201 22.4933 253.585 22.76C253.969 23.0267 254.251 23.3787 254.433 23.816C254.625 24.2427 254.721 24.7013 254.721 25.192V31H252.289V25.8C252.289 25.384 252.182 25.0427 251.969 24.776C251.766 24.4987 251.457 24.36 251.041 24.36C250.721 24.36 250.459 24.44 250.257 24.6C250.065 24.76 249.921 24.968 249.825 25.224C249.739 25.4693 249.697 25.7253 249.697 25.992V31H247.265V25.8C247.265 25.384 247.158 25.0427 246.945 24.776C246.742 24.4987 246.433 24.36 246.016 24.36C245.696 24.36 245.435 24.44 245.233 24.6C245.041 24.76 244.897 24.968 244.801 25.224C244.715 25.4693 244.673 25.7253 244.673 25.992V31H242.241ZM260.875 21.448C260.277 21.448 259.792 21.3573 259.419 21.176C259.056 20.984 258.773 20.7547 258.571 20.488C258.379 20.2107 258.24 19.9333 258.155 19.656C258.069 19.3787 258.016 19.1493 257.995 18.968C257.984 18.776 257.979 18.68 257.979 18.68H259.579C259.579 18.68 259.584 18.7493 259.595 18.888C259.616 19.0267 259.664 19.1867 259.739 19.368C259.824 19.5387 259.952 19.6933 260.123 19.832C260.304 19.96 260.555 20.024 260.875 20.024C261.195 20.024 261.44 19.96 261.611 19.832C261.792 19.6933 261.92 19.5387 261.995 19.368C262.069 19.1867 262.112 19.0267 262.123 18.888C262.144 18.7493 262.155 18.68 262.155 18.68H263.755C263.755 18.68 263.749 18.776 263.739 18.968C263.728 19.1493 263.68 19.3787 263.595 19.656C263.509 19.9333 263.365 20.2107 263.163 20.488C262.96 20.7547 262.672 20.984 262.299 21.176C261.936 21.3573 261.461 21.448 260.875 21.448ZM260.139 22.36C260.683 22.36 261.131 22.4507 261.483 22.632C261.835 22.8027 262.101 22.9893 262.283 23.192C262.475 23.3947 262.592 23.5333 262.635 23.608H262.763V22.52H265.195V31H262.763V29.912H262.635C262.592 29.9867 262.475 30.1253 262.283 30.328C262.101 30.5307 261.835 30.7227 261.483 30.904C261.131 31.0747 260.683 31.16 260.139 31.16C259.509 31.16 258.96 31.0373 258.491 30.792C258.032 30.536 257.648 30.2 257.339 29.784C257.029 29.3573 256.795 28.8827 256.635 28.36C256.485 27.8373 256.411 27.304 256.411 26.76C256.411 26.216 256.485 25.6827 256.635 25.16C256.795 24.6373 257.029 24.168 257.339 23.752C257.648 23.3253 258.032 22.9893 258.491 22.744C258.96 22.488 259.509 22.36 260.139 22.36ZM260.843 24.328C260.405 24.328 260.037 24.4507 259.739 24.696C259.451 24.9307 259.232 25.2347 259.083 25.608C258.944 25.9813 258.875 26.3653 258.875 26.76C258.875 27.1547 258.944 27.5387 259.083 27.912C259.232 28.2853 259.451 28.5947 259.739 28.84C260.037 29.0747 260.405 29.192 260.843 29.192C261.28 29.192 261.643 29.0747 261.931 28.84C262.229 28.5947 262.448 28.2853 262.587 27.912C262.736 27.5387 262.811 27.1547 262.811 26.76C262.811 26.3653 262.736 25.9813 262.587 25.608C262.448 25.2347 262.229 24.9307 261.931 24.696C261.643 24.4507 261.28 24.328 260.843 24.328ZM260.875 34.952C260.501 34.952 260.192 34.824 259.947 34.568C259.712 34.3227 259.595 34.024 259.595 33.672C259.595 33.32 259.712 33.0213 259.947 32.776C260.192 32.5307 260.501 32.408 260.875 32.408C261.237 32.408 261.536 32.5307 261.771 32.776C262.016 33.0213 262.139 33.32 262.139 33.672C262.139 34.024 262.016 34.3227 261.771 34.568C261.536 34.824 261.237 34.952 260.875 34.952ZM270.927 31.16C270.266 31.16 269.738 31.064 269.343 30.872C268.948 30.6693 268.65 30.4187 268.447 30.12C268.244 29.8107 268.111 29.4853 268.047 29.144C267.983 28.8027 267.951 28.488 267.951 28.2V24.456H266.511V22.52H267.951V20.424H270.383V22.52H272.191V24.456H270.383V28.136C270.383 28.488 270.474 28.76 270.655 28.952C270.847 29.144 271.162 29.24 271.599 29.24C271.791 29.24 271.967 29.224 272.127 29.192C272.287 29.16 272.367 29.144 272.367 29.144V31.016C272.367 31.016 272.223 31.0373 271.935 31.08C271.647 31.1333 271.311 31.16 270.927 31.16ZM112.088 53V41.16H114.344L119.448 48.712V41.16H121.896V53H119.608L114.536 45.656V53H112.088ZM125.179 43.464L127.243 40.584H129.179L131.243 43.464H129.339L128.203 41.8L127.083 43.464H125.179ZM127.467 44.36C128.011 44.36 128.459 44.4507 128.811 44.632C129.163 44.8027 129.429 44.9893 129.611 45.192C129.803 45.3947 129.92 45.5333 129.963 45.608H130.091V44.52H132.523V53H130.091V51.912H129.963C129.92 51.9867 129.803 52.1253 129.611 52.328C129.429 52.5307 129.163 52.7227 128.811 52.904C128.459 53.0747 128.011 53.16 127.467 53.16C126.837 53.16 126.288 53.0373 125.819 52.792C125.36 52.536 124.976 52.2 124.667 51.784C124.357 51.3573 124.123 50.8827 123.963 50.36C123.813 49.8373 123.739 49.304 123.739 48.76C123.739 48.216 123.813 47.6827 123.963 47.16C124.123 46.6373 124.357 46.168 124.667 45.752C124.976 45.3253 125.36 44.9893 125.819 44.744C126.288 44.488 126.837 44.36 127.467 44.36ZM128.171 46.328C127.733 46.328 127.365 46.4507 127.067 46.696C126.779 46.9307 126.56 47.2347 126.411 47.608C126.272 47.9813 126.203 48.3653 126.203 48.76C126.203 49.1547 126.272 49.5387 126.411 49.912C126.56 50.2853 126.779 50.5947 127.067 50.84C127.365 51.0747 127.733 51.192 128.171 51.192C128.608 51.192 128.971 51.0747 129.259 50.84C129.557 50.5947 129.776 50.2853 129.915 49.912C130.064 49.5387 130.139 49.1547 130.139 48.76C130.139 48.3653 130.064 47.9813 129.915 47.608C129.776 47.2347 129.557 46.9307 129.259 46.696C128.971 46.4507 128.608 46.328 128.171 46.328ZM134.475 53V44.52H136.907V45.736H136.987C137.083 45.5653 137.222 45.3733 137.403 45.16C137.595 44.9467 137.846 44.76 138.155 44.6C138.475 44.44 138.88 44.36 139.371 44.36C140.032 44.36 140.571 44.5147 140.987 44.824C141.403 45.1227 141.707 45.512 141.899 45.992C142.091 46.4613 142.187 46.9573 142.187 47.48V53H139.755V47.896C139.755 47.4907 139.643 47.1333 139.419 46.824C139.206 46.5147 138.859 46.36 138.379 46.36C138.016 46.36 137.728 46.4453 137.515 46.616C137.302 46.7867 137.147 47.0053 137.051 47.272C136.955 47.5387 136.907 47.8213 136.907 48.12V53H134.475ZM148.296 56.392C147.506 56.392 146.856 56.296 146.344 56.104C145.842 55.912 145.442 55.6667 145.144 55.368C144.845 55.08 144.626 54.792 144.488 54.504C144.349 54.216 144.258 53.9707 144.216 53.768C144.184 53.576 144.168 53.48 144.168 53.48H146.536C146.536 53.48 146.552 53.528 146.584 53.624C146.626 53.7307 146.706 53.848 146.824 53.976C146.941 54.1147 147.112 54.232 147.336 54.328C147.57 54.4347 147.88 54.488 148.264 54.488C148.925 54.488 149.41 54.3013 149.72 53.928C150.04 53.5547 150.2 53.064 150.2 52.456V51.56H150.088C149.981 51.7307 149.821 51.9173 149.608 52.12C149.394 52.3227 149.122 52.4933 148.792 52.632C148.461 52.7707 148.061 52.84 147.592 52.84C146.962 52.84 146.413 52.7227 145.944 52.488C145.474 52.2427 145.08 51.9173 144.76 51.512C144.45 51.1067 144.216 50.6533 144.056 50.152C143.906 49.6507 143.832 49.1333 143.832 48.6C143.832 48.0773 143.906 47.5653 144.056 47.064C144.216 46.552 144.45 46.0933 144.76 45.688C145.08 45.2827 145.474 44.9627 145.944 44.728C146.413 44.4827 146.962 44.36 147.592 44.36C148.061 44.36 148.461 44.4347 148.792 44.584C149.122 44.7227 149.394 44.8933 149.608 45.096C149.832 45.288 149.992 45.4747 150.088 45.656H150.2V44.52H152.632V52.456C152.632 53.16 152.477 53.8107 152.168 54.408C151.858 55.0053 151.384 55.4853 150.744 55.848C150.104 56.2107 149.288 56.392 148.296 56.392ZM148.264 50.92C148.712 50.92 149.08 50.808 149.368 50.584C149.666 50.36 149.89 50.072 150.04 49.72C150.189 49.3573 150.264 48.984 150.264 48.6C150.264 48.2053 150.189 47.832 150.04 47.48C149.89 47.128 149.666 46.84 149.368 46.616C149.08 46.392 148.712 46.28 148.264 46.28C147.826 46.28 147.458 46.392 147.16 46.616C146.872 46.84 146.653 47.128 146.504 47.48C146.354 47.832 146.28 48.2053 146.28 48.6C146.28 48.984 146.354 49.3573 146.504 49.72C146.653 50.072 146.872 50.36 147.16 50.584C147.458 50.808 147.826 50.92 148.264 50.92ZM162.482 53.16C161.735 53.16 161.085 53.0373 160.53 52.792C159.975 52.536 159.517 52.2 159.154 51.784C158.791 51.368 158.519 50.8987 158.338 50.376C158.157 49.8427 158.066 49.304 158.066 48.76C158.066 48.216 158.157 47.6827 158.338 47.16C158.519 46.6373 158.791 46.168 159.154 45.752C159.517 45.3253 159.975 44.9893 160.53 44.744C161.085 44.488 161.735 44.36 162.482 44.36C163.239 44.36 163.863 44.472 164.354 44.696C164.845 44.9093 165.234 45.1813 165.522 45.512C165.821 45.832 166.039 46.1573 166.178 46.488C166.317 46.808 166.402 47.08 166.434 47.304C166.477 47.5173 166.498 47.624 166.498 47.624H164.226C164.226 47.624 164.205 47.56 164.162 47.432C164.13 47.2933 164.055 47.1387 163.938 46.968C163.831 46.7867 163.666 46.632 163.442 46.504C163.218 46.3653 162.919 46.296 162.546 46.296C162.087 46.296 161.703 46.4133 161.394 46.648C161.095 46.872 160.871 47.1707 160.722 47.544C160.573 47.9173 160.498 48.3227 160.498 48.76C160.498 49.1973 160.573 49.6027 160.722 49.976C160.871 50.3493 161.095 50.6533 161.394 50.888C161.703 51.112 162.087 51.224 162.546 51.224C162.919 51.224 163.218 51.16 163.442 51.032C163.666 50.8933 163.831 50.7387 163.938 50.568C164.055 50.3867 164.13 50.232 164.162 50.104C164.205 49.9653 164.226 49.896 164.226 49.896H166.498C166.498 49.896 166.477 50.008 166.434 50.232C166.402 50.4453 166.317 50.7173 166.178 51.048C166.039 51.368 165.821 51.6933 165.522 52.024C165.234 52.344 164.845 52.616 164.354 52.84C163.863 53.0533 163.239 53.16 162.482 53.16ZM176.371 41.4L174.563 41.384L175.859 38.52H178.115L176.371 41.4ZM169.491 43.464L171.555 41H173.491L175.555 43.464H173.651L172.531 42.104L171.395 43.464H169.491ZM171.795 44.36C172.339 44.36 172.787 44.4507 173.139 44.632C173.491 44.8027 173.757 44.9893 173.939 45.192C174.131 45.3947 174.248 45.5333 174.291 45.608H174.419V44.52H176.851V53H174.419V51.912H174.291C174.248 51.9867 174.131 52.1253 173.939 52.328C173.757 52.5307 173.491 52.7227 173.139 52.904C172.787 53.0747 172.339 53.16 171.795 53.16C171.165 53.16 170.616 53.0373 170.147 52.792C169.688 52.536 169.304 52.2 168.995 51.784C168.685 51.3573 168.451 50.8827 168.291 50.36C168.141 49.8373 168.067 49.304 168.067 48.76C168.067 48.216 168.141 47.6827 168.291 47.16C168.451 46.6373 168.685 46.168 168.995 45.752C169.304 45.3253 169.688 44.9893 170.147 44.744C170.616 44.488 171.165 44.36 171.795 44.36ZM172.499 46.328C172.061 46.328 171.693 46.4507 171.395 46.696C171.107 46.9307 170.888 47.2347 170.739 47.608C170.6 47.9813 170.531 48.3653 170.531 48.76C170.531 49.1547 170.6 49.5387 170.739 49.912C170.888 50.2853 171.107 50.5947 171.395 50.84C171.693 51.0747 172.061 51.192 172.499 51.192C172.936 51.192 173.299 51.0747 173.587 50.84C173.885 50.5947 174.104 50.2853 174.243 49.912C174.392 49.5387 174.467 49.1547 174.467 48.76C174.467 48.3653 174.392 47.9813 174.243 47.608C174.104 47.2347 173.885 46.9307 173.587 46.696C173.299 46.4507 172.936 46.328 172.499 46.328ZM178.963 56.12V44.52H181.395V45.608H181.507C181.56 45.5333 181.678 45.3947 181.859 45.192C182.051 44.9893 182.323 44.8027 182.675 44.632C183.027 44.4507 183.475 44.36 184.019 44.36C184.648 44.36 185.192 44.488 185.651 44.744C186.12 44.9893 186.51 45.3253 186.819 45.752C187.128 46.168 187.358 46.6373 187.507 47.16C187.667 47.6827 187.747 48.216 187.747 48.76C187.747 49.304 187.667 49.8373 187.507 50.36C187.358 50.8827 187.128 51.3573 186.819 51.784C186.51 52.2 186.12 52.536 185.651 52.792C185.192 53.0373 184.648 53.16 184.019 53.16C183.475 53.16 183.027 53.0747 182.675 52.904C182.323 52.7227 182.051 52.5307 181.859 52.328C181.678 52.1253 181.56 51.9867 181.507 51.912H181.395V56.12H178.963ZM181.347 48.76C181.347 49.1547 181.416 49.5387 181.555 49.912C181.704 50.2853 181.923 50.5947 182.211 50.84C182.51 51.0747 182.878 51.192 183.315 51.192C183.752 51.192 184.115 51.0747 184.403 50.84C184.702 50.5947 184.92 50.2853 185.059 49.912C185.208 49.5387 185.283 49.1547 185.283 48.76C185.283 48.3653 185.208 47.9813 185.059 47.608C184.92 47.2347 184.702 46.9307 184.403 46.696C184.115 46.4507 183.752 46.328 183.315 46.328C182.878 46.328 182.51 46.4507 182.211 46.696C181.923 46.9307 181.704 47.2347 181.555 47.608C181.416 47.9813 181.347 48.3653 181.347 48.76ZM196.794 53.16C196.165 53.16 195.615 53.0373 195.146 52.792C194.687 52.536 194.303 52.2 193.994 51.784C193.685 51.3573 193.45 50.8827 193.29 50.36C193.141 49.8373 193.066 49.304 193.066 48.76C193.066 48.216 193.141 47.6827 193.29 47.16C193.45 46.6373 193.685 46.168 193.994 45.752C194.303 45.3253 194.687 44.9893 195.146 44.744C195.615 44.488 196.165 44.36 196.794 44.36C197.338 44.36 197.786 44.4507 198.138 44.632C198.49 44.8027 198.757 44.9893 198.938 45.192C199.13 45.3947 199.247 45.5333 199.29 45.608H199.418V43.816H197.338V42.216H199.418V40.84H201.85V42.216H203.162V43.816H201.85V53H199.418V51.912H199.29C199.247 51.9867 199.13 52.1253 198.938 52.328C198.757 52.5307 198.49 52.7227 198.138 52.904C197.786 53.0747 197.338 53.16 196.794 53.16ZM197.498 51.192C197.935 51.192 198.298 51.0747 198.586 50.84C198.885 50.5947 199.103 50.2853 199.242 49.912C199.391 49.5387 199.466 49.1547 199.466 48.76C199.466 48.3653 199.391 47.9813 199.242 47.608C199.103 47.2347 198.885 46.9307 198.586 46.696C198.298 46.4507 197.935 46.328 197.498 46.328C197.061 46.328 196.693 46.4507 196.394 46.696C196.106 46.9307 195.887 47.2347 195.738 47.608C195.599 47.9813 195.53 48.3653 195.53 48.76C195.53 49.1547 195.599 49.5387 195.738 49.912C195.887 50.2853 196.106 50.5947 196.394 50.84C196.693 51.0747 197.061 51.192 197.498 51.192ZM206.057 43.368C205.641 43.368 205.299 43.2347 205.033 42.968C204.766 42.6907 204.633 42.3653 204.633 41.992C204.633 41.5973 204.766 41.2667 205.033 41C205.299 40.7227 205.641 40.584 206.057 40.584C206.473 40.584 206.814 40.7227 207.081 41C207.358 41.2667 207.497 41.5973 207.497 41.992C207.497 42.3653 207.358 42.6907 207.081 42.968C206.814 43.2347 206.473 43.368 206.057 43.368ZM204.841 53V44.52H207.273V53H204.841ZM206.057 56.952C205.683 56.952 205.379 56.824 205.145 56.568C204.91 56.3227 204.793 56.024 204.793 55.672C204.793 55.32 204.91 55.0213 205.145 54.776C205.379 54.5307 205.683 54.408 206.057 54.408C206.419 54.408 206.718 54.5307 206.953 54.776C207.198 55.0213 207.321 55.32 207.321 55.672C207.321 56.024 207.198 56.3227 206.953 56.568C206.718 56.824 206.419 56.952 206.057 56.952ZM209.397 53V44.52H211.829V45.736H211.909C212.005 45.5653 212.143 45.3733 212.325 45.16C212.517 44.9467 212.767 44.76 213.077 44.6C213.397 44.44 213.802 44.36 214.293 44.36C214.954 44.36 215.493 44.5147 215.909 44.824C216.325 45.1227 216.629 45.512 216.821 45.992C217.013 46.4613 217.109 46.9573 217.109 47.48V53H214.677V47.896C214.677 47.4907 214.565 47.1333 214.341 46.824C214.127 46.5147 213.781 46.36 213.301 46.36C212.938 46.36 212.65 46.4453 212.437 46.616C212.223 46.7867 212.069 47.0053 211.973 47.272C211.877 47.5387 211.829 47.8213 211.829 48.12V53H209.397ZM219.119 53V40.84H221.551V45.736H221.631C221.727 45.5653 221.866 45.3733 222.047 45.16C222.239 44.9467 222.49 44.76 222.799 44.6C223.119 44.44 223.525 44.36 224.015 44.36C224.677 44.36 225.215 44.5147 225.631 44.824C226.047 45.1227 226.351 45.512 226.543 45.992C226.735 46.4613 226.831 46.9573 226.831 47.48V53H224.399V47.896C224.399 47.4907 224.287 47.1333 224.063 46.824C223.85 46.5147 223.503 46.36 223.023 46.36C222.661 46.36 222.373 46.4453 222.159 46.616C221.946 46.7867 221.791 47.0053 221.695 47.272C221.599 47.5387 221.551 47.8213 221.551 48.12V53H219.119ZM235.997 53.16C235.368 53.16 234.818 53.0373 234.349 52.792C233.89 52.536 233.506 52.2 233.197 51.784C232.888 51.3573 232.653 50.8827 232.493 50.36C232.344 49.8373 232.269 49.304 232.269 48.76C232.269 48.216 232.344 47.6827 232.493 47.16C232.653 46.6373 232.888 46.168 233.197 45.752C233.506 45.3253 233.89 44.9893 234.349 44.744C234.818 44.488 235.368 44.36 235.997 44.36C236.541 44.36 236.989 44.4507 237.341 44.632C237.693 44.8027 237.96 44.9893 238.141 45.192C238.333 45.3947 238.45 45.5333 238.493 45.608H238.621V40.84H241.053V53H238.621V51.912H238.493C238.45 51.9867 238.333 52.1253 238.141 52.328C237.96 52.5307 237.693 52.7227 237.341 52.904C236.989 53.0747 236.541 53.16 235.997 53.16ZM236.701 51.192C237.138 51.192 237.501 51.0747 237.789 50.84C238.088 50.5947 238.306 50.2853 238.445 49.912C238.594 49.5387 238.669 49.1547 238.669 48.76C238.669 48.3653 238.594 47.9813 238.445 47.608C238.306 47.2347 238.088 46.9307 237.789 46.696C237.501 46.4507 237.138 46.328 236.701 46.328C236.264 46.328 235.896 46.4507 235.597 46.696C235.309 46.9307 235.09 47.2347 234.941 47.608C234.802 47.9813 234.733 48.3653 234.733 48.76C234.733 49.1547 234.802 49.5387 234.941 49.912C235.09 50.2853 235.309 50.5947 235.597 50.84C235.896 51.0747 236.264 51.192 236.701 51.192ZM246.591 44.36C247.135 44.36 247.583 44.4507 247.935 44.632C248.287 44.8027 248.554 44.9893 248.735 45.192C248.927 45.3947 249.044 45.5333 249.087 45.608H249.215V44.52H251.647V53H249.215V51.912H249.087C249.044 51.9867 248.927 52.1253 248.735 52.328C248.554 52.5307 248.287 52.7227 247.935 52.904C247.583 53.0747 247.135 53.16 246.591 53.16C245.962 53.16 245.412 53.0373 244.943 52.792C244.484 52.536 244.1 52.2 243.791 51.784C243.482 51.3573 243.247 50.8827 243.087 50.36C242.938 49.8373 242.863 49.304 242.863 48.76C242.863 48.216 242.938 47.6827 243.087 47.16C243.247 46.6373 243.482 46.168 243.791 45.752C244.1 45.3253 244.484 44.9893 244.943 44.744C245.412 44.488 245.962 44.36 246.591 44.36ZM247.295 46.328C246.858 46.328 246.49 46.4507 246.191 46.696C245.903 46.9307 245.684 47.2347 245.535 47.608C245.396 47.9813 245.327 48.3653 245.327 48.76C245.327 49.1547 245.396 49.5387 245.535 49.912C245.684 50.2853 245.903 50.5947 246.191 50.84C246.49 51.0747 246.858 51.192 247.295 51.192C247.732 51.192 248.095 51.0747 248.383 50.84C248.682 50.5947 248.9 50.2853 249.039 49.912C249.188 49.5387 249.263 49.1547 249.263 48.76C249.263 48.3653 249.188 47.9813 249.039 47.608C248.9 47.2347 248.682 46.9307 248.383 46.696C248.095 46.4507 247.732 46.328 247.295 46.328ZM253.553 53V44.52H255.985V45.736H256.065C256.161 45.5653 256.3 45.3733 256.481 45.16C256.673 44.9467 256.924 44.76 257.233 44.6C257.553 44.44 257.958 44.36 258.449 44.36C259.11 44.36 259.649 44.5147 260.065 44.824C260.481 45.1227 260.785 45.512 260.977 45.992C261.169 46.4613 261.265 46.9573 261.265 47.48V53H258.833V47.896C258.833 47.4907 258.721 47.1333 258.497 46.824C258.284 46.5147 257.937 46.36 257.457 46.36C257.094 46.36 256.806 46.4453 256.593 46.616C256.38 46.7867 256.225 47.0053 256.129 47.272C256.033 47.5387 255.985 47.8213 255.985 48.12V53H253.553ZM263.276 53V40.84H265.708V45.736H265.788C265.884 45.5653 266.022 45.3733 266.204 45.16C266.396 44.9467 266.646 44.76 266.956 44.6C267.276 44.44 267.681 44.36 268.172 44.36C268.833 44.36 269.372 44.5147 269.788 44.824C270.204 45.1227 270.508 45.512 270.7 45.992C270.892 46.4613 270.988 46.9573 270.988 47.48V53H268.556V47.896C268.556 47.4907 268.444 47.1333 268.22 46.824C268.006 46.5147 267.66 46.36 267.18 46.36C266.817 46.36 266.529 46.4453 266.316 46.616C266.102 46.7867 265.948 47.0053 265.852 47.272C265.756 47.5387 265.708 47.8213 265.708 48.12V53H263.276Z" fill="#00FFFF"/>
</g>
<defs>
<radialGradient id="paint0_radial_26519_36735" cx="0" cy="0" r="1" gradientUnits="userSpaceOnUse" gradientTransform="translate(66 36) scale(148.5 148.5)">
<stop offset="0.04" stop-color="#00149C"/>
<stop offset="1" stop-color="#00063B"/>
</radialGradient>
<radialGradient id="paint1_radial_26519_36735" cx="0" cy="0" r="1" gradientUnits="userSpaceOnUse" gradientTransform="translate(66 36) scale(148.5 148.5)">
<stop offset="0.04" stop-color="#00149C"/>
<stop offset="1" stop-color="#00063B"/>
</radialGradient>
<linearGradient id="paint2_linear_26519_36735" x1="70.5" y1="38" x2="290" y2="38" gradientUnits="userSpaceOnUse">
<stop stop-color="#0023A8"/>
<stop offset="1" stop-color="#000E42"/>
</linearGradient>
<linearGradient id="paint3_linear_26519_36735" x1="44.9291" y1="47.646" x2="44.9291" y2="73.3952" gradientUnits="userSpaceOnUse">
<stop stop-color="#00A3FF" stop-opacity="0"/>
<stop offset="1" stop-color="#001AFF"/>
</linearGradient>
<linearGradient id="paint4_linear_26519_36735" x1="44.929" y1="-4.88011" x2="44.929" y2="15.7193" gradientUnits="userSpaceOnUse">
<stop stop-color="#00A3FF" stop-opacity="0"/>
<stop offset="1" stop-color="#001AFF" stop-opacity="0.6"/>
</linearGradient>
<clipPath id="clip0_26519_36735">
<rect width="342" height="98" fill="white" transform="translate(-4 -11)"/>
</clipPath>
<clipPath id="clip1_26519_36735">
<rect width="47.9084" height="76.2179" fill="white" transform="translate(21.2397 5.41797)"/>
</clipPath>
</defs>
</svg>
