<svg width="242" height="145" viewBox="0 0 242 145" fill="none" xmlns="http://www.w3.org/2000/svg">
<rect width="241.179" height="144.385" rx="10" fill="url(#paint0_linear_26884_12567)"/>
<path fill-rule="evenodd" clip-rule="evenodd" d="M220.294 133.757C225.221 133.757 229.252 130.498 229.252 126.516V110.852C229.252 107.189 225.841 104.14 221.461 103.674H195.023C190.661 104.14 187.37 107.189 187.37 110.852V126.516C187.37 130.498 191.26 133.757 196.187 133.757H220.294Z" fill="#EEAD6E"/>
<path d="M212.363 107.085L210.198 112.791L214.281 114.693V122.431L210.136 124.319L212.178 131.841C212.178 131.841 219.137 131.836 221.705 131.848C226.994 130.82 227.103 126.205 227.103 126.205L229.227 126.219M212.363 105.107H221.086C227.087 105.894 227.087 110.889 227.087 110.889H229.19M214.323 114.831L216.57 112.8L229.19 112.812M214.343 118.581L227.025 118.598M229.252 114.812L227.025 114.817L227.045 122.35H229.252M214.281 122.35L216.508 124.329H229.19M187.412 126.161L189.35 126.154C189.35 126.154 189.288 130.642 194.427 131.802C195.66 131.834 203.896 131.818 203.896 131.818L205.929 124.176L201.908 122.35M201.908 122.35L201.928 114.718L206.039 112.943L204.073 105.126C204.073 105.126 201.939 105.128 196.031 105.13C190.154 105.158 189.411 110.944 189.411 110.944L187.409 110.963M201.908 122.35L199.805 124.289L187.384 124.261M187.434 112.765L199.813 112.749L201.969 114.764M187.37 114.743H189.392L189.411 122.401H187.37M189.35 118.538L201.908 118.542" stroke="#875330" stroke-miterlimit="33.89"/>
<rect x="11.8511" y="54.0059" width="60.1859" height="78.2416" fill="white"/>
<path d="M48.9324 90.0586H34.3691V106.511H48.9324V90.0586Z" fill="#E2988F"/>
<path d="M55.916 78.5108C55.1122 76.5874 53.4699 77.5343 53.4699 77.5343C54.4168 68.8003 49.9783 63.0352 41.6536 63.0352C33.3289 63.0352 28.8855 68.8003 29.8324 77.5343C29.8324 77.5343 28.1901 76.5923 27.3863 78.5108C26.5824 80.4292 28.052 84.9368 28.9595 86.3719C29.8669 87.8021 31.4746 88.887 31.4746 88.887C31.4746 88.887 31.5782 90.4948 31.9974 91.6093C32.4166 92.7288 37.1658 97.8676 38.5615 98.6518C40.3911 99.7318 43.0937 99.7318 44.7359 98.6518C46.1316 97.8676 50.8857 92.7288 51.3 91.6093C51.7192 90.4898 51.8227 88.887 51.8227 88.887C51.8227 88.887 53.4305 87.8021 54.3379 86.3719C55.2453 84.9417 56.715 80.4341 55.9111 78.5108H55.916Z" fill="#E2988F"/>
<path d="M41.7239 99.6414C40.5797 99.6414 39.4109 99.3652 38.469 98.8129C37.6257 98.3394 35.6776 96.3914 34.2327 94.7837L34.5088 94.5371C35.9834 96.1744 37.8821 98.0583 38.6564 98.4923C40.4269 99.5329 43.0554 99.5378 44.6385 98.4973C45.4276 98.0534 47.3263 96.1695 48.7959 94.5371L49.0721 94.7837C47.6222 96.3914 45.6791 98.3345 44.8309 98.8129C43.9925 99.3652 42.873 99.6414 41.7239 99.6414Z" fill="#C46966"/>
<path d="M31.1989 85.1149L30.8318 85.1602L31.2935 88.9045L31.6606 88.8593L31.1989 85.1149Z" fill="#C46966"/>
<path d="M52.0786 85.1225L51.6619 88.8672L52.0295 88.9081L52.4462 85.1634L52.0786 85.1225Z" fill="#C46966"/>
<path d="M28.4631 82.8337C28.3842 82.5526 27.7332 80.0473 28.6357 79.3618C28.9365 79.1694 29.1782 79.1892 29.3311 79.2385C29.7897 79.3864 30.0215 79.9585 30.0462 80.0226L29.701 80.1558C29.6516 80.0275 29.4642 79.6725 29.2177 79.5936C29.1042 79.5541 28.9809 79.5837 28.8478 79.6675C28.33 80.0621 28.5519 81.7635 28.8182 82.74L28.4631 82.8386V82.8337Z" fill="#C46966"/>
<path d="M54.8431 82.835L54.488 82.7363C54.7543 81.7599 54.9812 80.0584 54.4485 79.659C54.3253 79.5801 54.202 79.5554 54.0885 79.5899C53.7926 79.6886 53.6052 80.1472 53.6052 80.1521L53.26 80.019C53.2847 79.9549 53.5165 79.3877 53.9751 79.2348C54.128 79.1855 54.3746 79.1658 54.6606 79.3532C55.573 80.0436 54.922 82.5489 54.8431 82.83V82.835Z" fill="#C46966"/>
<path d="M31.0115 82.1257C33.4823 82.1405 31.6132 74.166 33.5513 72.2327C34.5376 71.2513 35.9728 71.4141 37.2057 71.7248C38.6408 72.0897 40.1252 72.5878 41.6393 72.6273C43.2421 72.6717 44.766 72.0799 46.3046 71.71C47.4981 71.419 48.7951 71.2908 49.742 72.2327C51.6802 74.161 49.8111 82.1356 52.2818 82.1257C52.1092 80.2812 52.1043 78.2642 53.4605 77.5343C54.4173 68.8003 49.9787 63.0352 41.6541 63.0352C33.3294 63.0352 28.8859 68.8003 29.8328 77.5343C30.9326 78.2494 31.1841 80.1974 31.0115 82.1257Z" fill="#4C224B"/>
<path d="M65.1783 107.98C57.406 104.513 48.9334 103.285 48.9334 103.285C45.0472 107.339 37.8026 107.393 34.3701 103.285C34.3701 103.285 25.8975 104.513 18.1251 107.98C11.8511 110.779 11.8511 116.2 11.8511 132.25C16.365 132.25 66.7717 132.25 72.0369 132.25C72.0369 115.197 72.0369 110.683 65.1833 107.98H65.1783Z" fill="#F4BA5D"/>
<path d="M32.4019 103.566L34.3696 100.035L40.7413 105.756L36.8404 110.027L32.4019 103.566Z" fill="#DFDFDF"/>
<path d="M50.8951 103.566L48.9274 100.035L42.5557 105.756L46.4517 110.027L50.8951 103.566Z" fill="#DFDFDF"/>
<path d="M94.374 55.2559H225.853" stroke="#274B9A" stroke-width="3" stroke-linecap="round"/>
<path d="M94.374 73.8066H225.853" stroke="#274B9A" stroke-width="3" stroke-linecap="round"/>
<path d="M94.374 92.3594H225.853" stroke="#274B9A" stroke-width="3" stroke-linecap="round"/>
<path d="M94.7866 112.422H180.756" stroke="#274B9A" stroke-width="3" stroke-linecap="round"/>
<rect x="94.374" y="16.1328" width="131.479" height="12.0993" fill="#FF0F0F"/>
<path d="M120.496 42.502V38.8809C120.473 38.0254 120.072 37.5898 119.295 37.5742C118.514 37.5898 118.115 38.0254 118.1 38.8809V42.502C118.115 43.3652 118.514 43.8008 119.295 43.8086C120.072 43.8008 120.473 43.3652 120.496 42.502ZM116.875 42.5723V38.8047C116.883 38.0156 117.135 37.4082 117.631 36.9824C118.096 36.5605 118.65 36.3496 119.295 36.3496C119.959 36.3496 120.523 36.5605 120.988 36.9824C121.461 37.4082 121.705 38.0156 121.721 38.8047V42.5723C121.705 43.3574 121.461 43.9629 120.988 44.3887C120.523 44.8105 119.959 45.0254 119.295 45.0332C118.65 45.0254 118.096 44.8105 117.631 44.3887C117.135 43.9629 116.883 43.3574 116.875 42.5723ZM127.87 37.7148L126.657 38.6055V37.3047L127.87 36.4199H129.094V44.9629H127.87V37.7148ZM135.056 44.9629V43.8086L138.39 39.6367C138.519 39.4688 138.607 39.3125 138.654 39.168C138.685 39.0312 138.701 38.9023 138.701 38.7812C138.701 38.4609 138.601 38.1816 138.402 37.9434C138.195 37.7051 137.902 37.582 137.523 37.5742C137.187 37.5742 136.908 37.6816 136.685 37.8965C136.454 38.1113 136.318 38.4141 136.275 38.8047H135.056C135.087 38.0938 135.326 37.5059 135.771 37.041C136.22 36.5879 136.773 36.3574 137.429 36.3496C138.163 36.3574 138.759 36.5918 139.216 37.0527C139.681 37.5098 139.917 38.0898 139.925 38.793C139.925 39.3555 139.753 39.8555 139.409 40.293L136.661 43.7383H139.925V44.9629H135.056ZM145.904 41.1016V40.0176H146.326C146.744 40.0176 147.068 39.9023 147.299 39.6719C147.529 39.4492 147.644 39.1602 147.644 38.8047C147.637 38.4453 147.518 38.1504 147.287 37.9199C147.057 37.6973 146.76 37.582 146.396 37.5742C146.135 37.5742 145.896 37.6582 145.682 37.8262C145.455 37.9941 145.303 38.2539 145.225 38.6055H144C144.062 37.9727 144.318 37.4395 144.768 37.0059C145.209 36.5762 145.736 36.3574 146.35 36.3496C147.127 36.3574 147.744 36.6055 148.201 37.0938C148.639 37.5703 148.861 38.1328 148.869 38.7812C148.869 39.1094 148.811 39.4258 148.693 39.7305C148.557 40.0352 148.312 40.3066 147.961 40.5449C148.32 40.7793 148.58 41.0605 148.74 41.3887C148.893 41.7168 148.969 42.0605 148.969 42.4199C148.961 43.2207 148.713 43.8516 148.225 44.3125C147.744 44.7852 147.127 45.0254 146.373 45.0332C145.791 45.0332 145.275 44.8457 144.826 44.4707C144.377 44.0957 144.086 43.5527 143.953 42.8418H145.178C145.287 43.127 145.441 43.3574 145.641 43.5332C145.844 43.7168 146.113 43.8086 146.449 43.8086C146.809 43.8086 147.111 43.6855 147.357 43.4395C147.607 43.209 147.736 42.8809 147.744 42.4551C147.736 42.0215 147.607 41.6855 147.357 41.4473C147.111 41.2168 146.799 41.1016 146.42 41.1016H145.904ZM153.067 43.6914V42.5371L155.921 36.4199H157.286L154.397 42.5371H156.629V40.082H157.854V42.5371H158.534V43.6914H157.854V44.9629H156.629V43.6914H153.067ZM162.644 41.0371V36.4199H167.197V37.6445H163.798V39.5781C164.197 39.2656 164.652 39.1094 165.163 39.1094C165.491 39.1172 165.792 39.1758 166.066 39.2852C166.323 39.4062 166.532 39.5547 166.693 39.7305C166.931 39.9648 167.103 40.2363 167.208 40.5449C167.263 40.7129 167.302 40.918 167.325 41.1602C167.349 41.4062 167.361 41.709 167.361 42.0684C167.361 42.623 167.322 43.0488 167.243 43.3457C167.161 43.6387 167.025 43.8984 166.833 44.125C166.665 44.3477 166.421 44.5508 166.101 44.7344C165.788 44.9258 165.417 45.0254 164.988 45.0332C164.409 45.0332 163.88 44.8613 163.4 44.5176C162.911 44.166 162.609 43.5977 162.491 42.8125H163.716C163.849 43.4688 164.257 43.8008 164.941 43.8086C165.234 43.8086 165.468 43.75 165.644 43.6328C165.812 43.5195 165.929 43.3711 165.995 43.1875C166.066 43.0039 166.109 42.8047 166.124 42.5898C166.132 42.3789 166.136 42.1738 166.136 41.9746C166.144 41.4863 166.068 41.0898 165.907 40.7852C165.822 40.6406 165.695 40.5254 165.527 40.4395C165.359 40.3691 165.15 40.334 164.9 40.334C164.677 40.334 164.474 40.3848 164.29 40.4863C164.107 40.5918 163.943 40.7754 163.798 41.0371H162.644ZM175.625 36.332C175.629 36.332 175.609 36.375 175.566 36.4609C175.527 36.543 175.473 36.6562 175.402 36.8008C175.332 36.9453 175.25 37.1113 175.156 37.2988C175.062 37.4863 174.963 37.6836 174.857 37.8906C174.756 38.0977 174.65 38.3066 174.541 38.5176C174.435 38.7285 174.332 38.9297 174.23 39.1211C174.133 39.3125 174.043 39.4863 173.961 39.6426C173.879 39.7988 173.81 39.9238 173.756 40.0176C173.869 39.9512 173.996 39.9121 174.137 39.9004C174.281 39.8848 174.447 39.8809 174.635 39.8887C174.904 39.8965 175.139 39.9434 175.338 40.0293C175.541 40.1152 175.715 40.2227 175.859 40.3516C176.004 40.4805 176.123 40.625 176.217 40.7852C176.314 40.9414 176.391 41.0957 176.445 41.248C176.5 41.3965 176.537 41.5371 176.557 41.6699C176.58 41.7988 176.592 41.9004 176.592 41.9746C176.592 41.998 176.592 42.041 176.592 42.1035C176.592 42.166 176.592 42.2363 176.592 42.3145C176.592 42.3887 176.59 42.4648 176.586 42.543C176.586 42.6211 176.584 42.6875 176.58 42.7422C176.576 42.7695 176.562 42.8418 176.539 42.959C176.519 43.0723 176.48 43.209 176.422 43.3691C176.367 43.5254 176.287 43.6953 176.182 43.8789C176.076 44.0586 175.937 44.2305 175.766 44.3945C175.594 44.5547 175.385 44.6934 175.139 44.8105C174.892 44.9277 174.599 45 174.26 45.0273C173.904 45.0586 173.59 45.0352 173.316 44.957C173.043 44.8789 172.807 44.7676 172.607 44.623C172.408 44.4785 172.242 44.3125 172.109 44.125C171.976 43.9336 171.871 43.7383 171.793 43.5391C171.719 43.3398 171.668 43.1484 171.641 42.9648C171.617 42.7812 171.613 42.625 171.629 42.4961C171.652 42.3047 171.678 42.1348 171.705 41.9863C171.732 41.834 171.764 41.6895 171.799 41.5527C171.838 41.416 171.881 41.2812 171.928 41.1484C171.974 41.0156 172.029 40.8711 172.092 40.7148C172.107 40.6758 172.15 40.584 172.221 40.4395C172.291 40.291 172.377 40.1094 172.478 39.8945C172.584 39.6797 172.701 39.4434 172.83 39.1855C172.959 38.9277 173.088 38.666 173.217 38.4004C173.521 37.7832 173.863 37.0938 174.242 36.332H175.625ZM175.379 42.584C175.379 42.4355 175.373 42.2715 175.361 42.0918C175.349 41.9121 175.305 41.7422 175.226 41.582C175.152 41.418 175.029 41.2773 174.857 41.1602C174.685 41.043 174.441 40.9727 174.125 40.9492C173.976 40.9375 173.842 40.9531 173.721 40.9961C173.599 41.0391 173.492 41.0977 173.398 41.1719C173.305 41.2461 173.223 41.332 173.152 41.4297C173.086 41.5234 173.029 41.6172 172.982 41.7109C172.939 41.8047 172.908 41.8926 172.889 41.9746C172.869 42.0527 172.859 42.1133 172.859 42.1562C172.859 42.2539 172.861 42.3633 172.865 42.4844C172.869 42.6016 172.881 42.7207 172.9 42.8418C172.924 42.959 172.961 43.0742 173.012 43.1875C173.062 43.2969 173.135 43.3945 173.228 43.4805C173.322 43.5664 173.441 43.6367 173.586 43.6914C173.734 43.7461 173.918 43.7734 174.137 43.7734C174.312 43.7773 174.465 43.7559 174.594 43.709C174.726 43.6582 174.838 43.5957 174.928 43.5215C175.021 43.4434 175.098 43.3574 175.156 43.2637C175.215 43.1699 175.26 43.0781 175.291 42.9883C175.326 42.8984 175.349 42.8184 175.361 42.748C175.373 42.6738 175.379 42.6191 175.379 42.584ZM180.907 38.8809V36.4199H185.77V37.6445L182.876 44.9629H181.51L184.399 37.6445H182.131V38.8809H180.907ZM191.081 38.793C191.089 39.1875 191.216 39.4883 191.462 39.6953C191.704 39.9102 191.984 40.0176 192.3 40.0176C192.628 40.0176 192.913 39.9102 193.155 39.6953C193.394 39.4883 193.517 39.1875 193.525 38.793C193.517 38.3867 193.394 38.0801 193.155 37.873C192.913 37.6738 192.628 37.5742 192.3 37.5742C191.984 37.5742 191.704 37.6738 191.462 37.873C191.216 38.0801 191.089 38.3867 191.081 38.793ZM189.698 42.4668C189.706 41.6426 190.042 41.002 190.706 40.5449C190.452 40.3223 190.253 40.0664 190.109 39.7773C189.941 39.5078 189.857 39.1875 189.857 38.8164C189.864 38.1055 190.105 37.5176 190.577 37.0527C191.023 36.5918 191.597 36.3574 192.3 36.3496C193.015 36.3574 193.599 36.5918 194.052 37.0527C194.509 37.5176 194.741 38.1055 194.749 38.8164C194.749 39.1875 194.673 39.5078 194.521 39.7773C194.361 40.0664 194.153 40.3223 193.9 40.5449C194.564 41.002 194.9 41.6426 194.907 42.4668C194.9 43.2363 194.648 43.8516 194.152 44.3125C193.648 44.7852 193.03 45.0254 192.3 45.0332C191.573 45.0254 190.966 44.7852 190.478 44.3125C189.966 43.8516 189.706 43.2363 189.698 42.4668ZM190.923 42.4551C190.931 42.8457 191.071 43.166 191.345 43.416C191.607 43.6777 191.925 43.8086 192.3 43.8086C192.687 43.8086 193.011 43.6777 193.273 43.416C193.538 43.166 193.675 42.8457 193.683 42.4551C193.675 42.0566 193.538 41.7324 193.273 41.4824C193.011 41.2363 192.687 41.1094 192.3 41.1016C191.925 41.1094 191.607 41.2363 191.345 41.4824C191.071 41.7324 190.931 42.0566 190.923 42.4551ZM199.814 44.9629C199.81 44.9629 199.844 44.8926 199.914 44.752C199.984 44.6074 200.076 44.4219 200.189 44.1953C200.303 43.9688 200.429 43.7168 200.57 43.4395C200.711 43.1621 200.849 42.8887 200.986 42.6191C201.123 42.3496 201.25 42.1016 201.367 41.875C201.488 41.6484 201.586 41.4707 201.66 41.3418C201.547 41.4082 201.418 41.4492 201.273 41.4648C201.133 41.4766 200.969 41.4785 200.781 41.4707C200.523 41.4629 200.297 41.416 200.101 41.3301C199.91 41.2441 199.744 41.1367 199.603 41.0078C199.463 40.8789 199.346 40.7363 199.252 40.5801C199.158 40.4199 199.082 40.2656 199.023 40.1172C198.969 39.9648 198.928 39.8242 198.9 39.6953C198.877 39.5625 198.865 39.459 198.865 39.3848C198.865 39.3613 198.863 39.3184 198.859 39.2559C198.859 39.1934 198.859 39.125 198.859 39.0508C198.859 38.9727 198.859 38.8945 198.859 38.8164C198.863 38.7383 198.869 38.6719 198.877 38.6172C198.881 38.5898 198.892 38.5215 198.912 38.4121C198.935 38.2988 198.976 38.1641 199.035 38.0078C199.094 37.8516 199.176 37.6855 199.281 37.5098C199.387 37.3301 199.523 37.1621 199.691 37.0059C199.863 36.8496 200.072 36.7148 200.318 36.6016C200.568 36.4883 200.863 36.416 201.203 36.3848C201.558 36.3535 201.871 36.375 202.14 36.4492C202.414 36.5234 202.648 36.6309 202.844 36.7715C203.039 36.9121 203.201 37.0762 203.33 37.2637C203.459 37.4512 203.558 37.6426 203.629 37.8379C203.703 38.0293 203.752 38.2168 203.775 38.4004C203.799 38.5801 203.803 38.7344 203.787 38.8633C203.763 39.0547 203.738 39.2266 203.711 39.3789C203.683 39.5273 203.65 39.6699 203.611 39.8066C203.576 39.9434 203.535 40.0781 203.488 40.2109C203.441 40.3438 203.387 40.4883 203.324 40.6445C203.308 40.6875 203.265 40.7812 203.195 40.9258C203.129 41.0703 203.043 41.248 202.937 41.459C202.836 41.666 202.722 41.8984 202.597 42.1562C202.476 42.4102 202.351 42.666 202.222 42.9238C201.922 43.5332 201.586 44.2129 201.215 44.9629H199.814ZM200.078 38.7754C200.078 38.9277 200.086 39.0957 200.101 39.2793C200.117 39.4629 200.162 39.6367 200.236 39.8008C200.314 39.9609 200.435 40.0996 200.599 40.2168C200.763 40.3301 200.994 40.3945 201.291 40.4102C201.439 40.418 201.574 40.4004 201.695 40.3574C201.816 40.3105 201.924 40.25 202.017 40.1758C202.111 40.1016 202.191 40.0176 202.258 39.9238C202.328 39.8301 202.385 39.7383 202.428 39.6484C202.474 39.5547 202.508 39.4688 202.527 39.3906C202.547 39.3125 202.556 39.25 202.556 39.2031C202.553 39.1055 202.549 38.9961 202.545 38.875C202.545 38.7539 202.533 38.6309 202.51 38.5059C202.49 38.3809 202.455 38.2617 202.404 38.1484C202.353 38.0312 202.281 37.9297 202.187 37.8438C202.094 37.7578 201.972 37.6914 201.824 37.6445C201.679 37.5938 201.498 37.5742 201.279 37.5859C201.037 37.5977 200.838 37.6582 200.681 37.7676C200.529 37.877 200.408 37.998 200.318 38.1309C200.228 38.2637 200.166 38.3926 200.131 38.5176C200.096 38.6426 200.078 38.7285 200.078 38.7754Z" fill="#FF0F0F"/>
<circle cx="40.2293" cy="24.7999" r="15.9815" fill="#FF0F0F"/>
<defs>
<linearGradient id="paint0_linear_26884_12567" x1="-2.68258e-07" y1="67.4654" x2="241.179" y2="67.4654" gradientUnits="userSpaceOnUse">
<stop stop-color="#5BBCB6"/>
<stop offset="0.15" stop-color="#7FDFD9"/>
<stop offset="0.5" stop-color="#EED6B5"/>
<stop offset="0.85" stop-color="#7FDFD9"/>
<stop offset="1" stop-color="#5BBCB6"/>
</linearGradient>
</defs>
</svg>
