<svg width="241" height="145" viewBox="0 0 241 145" fill="none" xmlns="http://www.w3.org/2000/svg">
<rect width="241" height="144.16" rx="10" fill="#86C2B0"/>
<path d="M112.543 42.4531V38.832C112.52 37.9766 112.119 37.541 111.342 37.5254C110.561 37.541 110.162 37.9766 110.147 38.832V42.4531C110.162 43.3164 110.561 43.752 111.342 43.7598C112.119 43.752 112.52 43.3164 112.543 42.4531ZM108.922 42.5234V38.7559C108.93 37.9668 109.182 37.3594 109.678 36.9336C110.143 36.5117 110.697 36.3008 111.342 36.3008C112.006 36.3008 112.571 36.5117 113.035 36.9336C113.508 37.3594 113.752 37.9668 113.768 38.7559V42.5234C113.752 43.3086 113.508 43.9141 113.035 44.3398C112.571 44.7617 112.006 44.9766 111.342 44.9844C110.697 44.9766 110.143 44.7617 109.678 44.3398C109.182 43.9141 108.93 43.3086 108.922 42.5234ZM119.917 37.666L118.704 38.5566V37.2559L119.917 36.3711H121.141V44.9141H119.917V37.666ZM127.103 44.9141V43.7598L130.437 39.5879C130.566 39.4199 130.654 39.2637 130.701 39.1191C130.732 38.9824 130.748 38.8535 130.748 38.7324C130.748 38.4121 130.648 38.1328 130.449 37.8945C130.242 37.6562 129.949 37.5332 129.57 37.5254C129.234 37.5254 128.955 37.6328 128.732 37.8477C128.501 38.0625 128.365 38.3652 128.322 38.7559H127.103C127.134 38.0449 127.373 37.457 127.818 36.9922C128.267 36.5391 128.82 36.3086 129.476 36.3008C130.21 36.3086 130.806 36.543 131.263 37.0039C131.728 37.4609 131.964 38.041 131.972 38.7441C131.972 39.3066 131.8 39.8066 131.457 40.2441L128.709 43.6895H131.972V44.9141H127.103ZM137.951 41.0527V39.9688H138.373C138.791 39.9688 139.115 39.8535 139.346 39.623C139.576 39.4004 139.692 39.1113 139.692 38.7559C139.684 38.3965 139.565 38.1016 139.334 37.8711C139.104 37.6484 138.807 37.5332 138.444 37.5254C138.182 37.5254 137.944 37.6094 137.729 37.7773C137.502 37.9453 137.35 38.2051 137.272 38.5566H136.047C136.11 37.9238 136.365 37.3906 136.815 36.957C137.256 36.5273 137.783 36.3086 138.397 36.3008C139.174 36.3086 139.791 36.5566 140.248 37.0449C140.686 37.5215 140.908 38.084 140.916 38.7324C140.916 39.0605 140.858 39.377 140.74 39.6816C140.604 39.9863 140.36 40.2578 140.008 40.4961C140.367 40.7305 140.627 41.0117 140.787 41.3398C140.94 41.668 141.016 42.0117 141.016 42.3711C141.008 43.1719 140.76 43.8027 140.272 44.2637C139.791 44.7363 139.174 44.9766 138.42 44.9844C137.838 44.9844 137.322 44.7969 136.873 44.4219C136.424 44.0469 136.133 43.5039 136 42.793H137.225C137.334 43.0781 137.488 43.3086 137.688 43.4844C137.891 43.668 138.16 43.7598 138.496 43.7598C138.856 43.7598 139.158 43.6367 139.404 43.3906C139.654 43.1602 139.783 42.832 139.791 42.4062C139.783 41.9727 139.654 41.6367 139.404 41.3984C139.158 41.168 138.846 41.0527 138.467 41.0527H137.951ZM145.114 43.6426V42.4883L147.968 36.3711H149.333L146.444 42.4883H148.677V40.0332H149.901V42.4883H150.581V43.6426H149.901V44.9141H148.677V43.6426H145.114ZM154.691 40.9883V36.3711H159.244V37.5957H155.845V39.5293C156.244 39.2168 156.699 39.0605 157.21 39.0605C157.539 39.0684 157.839 39.127 158.113 39.2363C158.371 39.3574 158.58 39.5059 158.74 39.6816C158.978 39.916 159.15 40.1875 159.255 40.4961C159.31 40.6641 159.349 40.8691 159.372 41.1113C159.396 41.3574 159.408 41.6602 159.408 42.0195C159.408 42.5742 159.369 43 159.29 43.2969C159.208 43.5898 159.072 43.8496 158.88 44.0762C158.712 44.2988 158.468 44.502 158.148 44.6855C157.835 44.877 157.464 44.9766 157.035 44.9844C156.456 44.9844 155.927 44.8125 155.447 44.4688C154.958 44.1172 154.656 43.5488 154.539 42.7637H155.763C155.896 43.4199 156.304 43.752 156.988 43.7598C157.281 43.7598 157.515 43.7012 157.691 43.584C157.859 43.4707 157.976 43.3223 158.042 43.1387C158.113 42.9551 158.156 42.7559 158.171 42.541C158.179 42.3301 158.183 42.125 158.183 41.9258C158.191 41.4375 158.115 41.041 157.955 40.7363C157.869 40.5918 157.742 40.4766 157.574 40.3906C157.406 40.3203 157.197 40.2852 156.947 40.2852C156.724 40.2852 156.521 40.3359 156.337 40.4375C156.154 40.543 155.99 40.7266 155.845 40.9883H154.691ZM167.672 36.2832C167.676 36.2832 167.656 36.3262 167.613 36.4121C167.574 36.4941 167.52 36.6074 167.449 36.752C167.379 36.8965 167.297 37.0625 167.203 37.25C167.109 37.4375 167.01 37.6348 166.904 37.8418C166.803 38.0488 166.697 38.2578 166.588 38.4688C166.482 38.6797 166.379 38.8809 166.277 39.0723C166.18 39.2637 166.09 39.4375 166.008 39.5938C165.926 39.75 165.857 39.875 165.803 39.9688C165.916 39.9023 166.043 39.8633 166.184 39.8516C166.328 39.8359 166.494 39.832 166.682 39.8398C166.951 39.8477 167.186 39.8945 167.385 39.9805C167.588 40.0664 167.762 40.1738 167.906 40.3027C168.051 40.4316 168.17 40.5762 168.264 40.7363C168.361 40.8926 168.438 41.0469 168.492 41.1992C168.547 41.3477 168.584 41.4883 168.604 41.6211C168.627 41.75 168.639 41.8516 168.639 41.9258C168.639 41.9492 168.639 41.9922 168.639 42.0547C168.639 42.1172 168.639 42.1875 168.639 42.2656C168.639 42.3398 168.637 42.416 168.633 42.4941C168.633 42.5723 168.631 42.6387 168.627 42.6934C168.623 42.7207 168.609 42.793 168.586 42.9102C168.566 43.0234 168.527 43.1602 168.469 43.3203C168.414 43.4766 168.334 43.6465 168.229 43.8301C168.123 44.0098 167.984 44.1816 167.813 44.3457C167.641 44.5059 167.432 44.6445 167.186 44.7617C166.94 44.8789 166.647 44.9512 166.307 44.9785C165.951 45.0098 165.637 44.9863 165.363 44.9082C165.09 44.8301 164.854 44.7188 164.654 44.5742C164.455 44.4297 164.289 44.2637 164.156 44.0762C164.024 43.8848 163.918 43.6895 163.84 43.4902C163.766 43.291 163.715 43.0996 163.688 42.916C163.664 42.7324 163.66 42.5762 163.676 42.4473C163.699 42.2559 163.725 42.0859 163.752 41.9375C163.779 41.7852 163.811 41.6406 163.846 41.5039C163.885 41.3672 163.928 41.2324 163.975 41.0996C164.022 40.9668 164.076 40.8223 164.139 40.666C164.154 40.627 164.197 40.5352 164.268 40.3906C164.338 40.2422 164.424 40.0605 164.525 39.8457C164.631 39.6309 164.748 39.3945 164.877 39.1367C165.006 38.8789 165.135 38.6172 165.264 38.3516C165.568 37.7344 165.91 37.0449 166.289 36.2832H167.672ZM167.426 42.5352C167.426 42.3867 167.42 42.2227 167.408 42.043C167.397 41.8633 167.352 41.6934 167.274 41.5332C167.199 41.3691 167.076 41.2285 166.904 41.1113C166.732 40.9941 166.488 40.9238 166.172 40.9004C166.024 40.8887 165.889 40.9043 165.768 40.9473C165.647 40.9902 165.539 41.0488 165.445 41.123C165.352 41.1973 165.27 41.2832 165.199 41.3809C165.133 41.4746 165.076 41.5684 165.029 41.6621C164.986 41.7559 164.955 41.8438 164.936 41.9258C164.916 42.0039 164.906 42.0645 164.906 42.1074C164.906 42.2051 164.908 42.3145 164.912 42.4355C164.916 42.5527 164.928 42.6719 164.947 42.793C164.971 42.9102 165.008 43.0254 165.059 43.1387C165.109 43.248 165.182 43.3457 165.275 43.4316C165.369 43.5176 165.488 43.5879 165.633 43.6426C165.781 43.6973 165.965 43.7246 166.184 43.7246C166.359 43.7285 166.512 43.707 166.641 43.6602C166.774 43.6094 166.885 43.5469 166.975 43.4727C167.068 43.3945 167.145 43.3086 167.203 43.2148C167.262 43.1211 167.307 43.0293 167.338 42.9395C167.373 42.8496 167.397 42.7695 167.408 42.6992C167.42 42.625 167.426 42.5703 167.426 42.5352ZM172.954 38.832V36.3711H177.817V37.5957L174.923 44.9141H173.557L176.446 37.5957H174.178V38.832H172.954ZM183.128 38.7441C183.136 39.1387 183.263 39.4395 183.509 39.6465C183.751 39.8613 184.031 39.9688 184.347 39.9688C184.675 39.9688 184.96 39.8613 185.202 39.6465C185.441 39.4395 185.564 39.1387 185.572 38.7441C185.564 38.3379 185.441 38.0312 185.202 37.8242C184.96 37.625 184.675 37.5254 184.347 37.5254C184.031 37.5254 183.751 37.625 183.509 37.8242C183.263 38.0312 183.136 38.3379 183.128 38.7441ZM181.745 42.418C181.753 41.5938 182.089 40.9531 182.753 40.4961C182.499 40.2734 182.3 40.0176 182.156 39.7285C181.988 39.459 181.904 39.1387 181.904 38.7676C181.911 38.0566 182.152 37.4688 182.624 37.0039C183.07 36.543 183.644 36.3086 184.347 36.3008C185.062 36.3086 185.646 36.543 186.099 37.0039C186.556 37.4688 186.788 38.0566 186.796 38.7676C186.796 39.1387 186.72 39.459 186.568 39.7285C186.408 40.0176 186.201 40.2734 185.947 40.4961C186.611 40.9531 186.947 41.5938 186.954 42.418C186.947 43.1875 186.695 43.8027 186.199 44.2637C185.695 44.7363 185.077 44.9766 184.347 44.9844C183.62 44.9766 183.013 44.7363 182.525 44.2637C182.013 43.8027 181.753 43.1875 181.745 42.418ZM182.97 42.4062C182.978 42.7969 183.119 43.1172 183.392 43.3672C183.654 43.6289 183.972 43.7598 184.347 43.7598C184.734 43.7598 185.058 43.6289 185.32 43.3672C185.585 43.1172 185.722 42.7969 185.73 42.4062C185.722 42.0078 185.585 41.6836 185.32 41.4336C185.058 41.1875 184.734 41.0605 184.347 41.0527C183.972 41.0605 183.654 41.1875 183.392 41.4336C183.119 41.6836 182.978 42.0078 182.97 42.4062ZM191.861 44.9141C191.857 44.9141 191.891 44.8438 191.961 44.7031C192.031 44.5586 192.123 44.373 192.236 44.1465C192.35 43.9199 192.477 43.668 192.617 43.3906C192.758 43.1133 192.896 42.8398 193.033 42.5703C193.17 42.3008 193.297 42.0527 193.414 41.8262C193.535 41.5996 193.633 41.4219 193.707 41.293C193.594 41.3594 193.465 41.4004 193.32 41.416C193.18 41.4277 193.016 41.4297 192.828 41.4219C192.57 41.4141 192.344 41.3672 192.148 41.2812C191.957 41.1953 191.791 41.0879 191.65 40.959C191.51 40.8301 191.393 40.6875 191.299 40.5312C191.205 40.3711 191.129 40.2168 191.07 40.0684C191.016 39.916 190.975 39.7754 190.947 39.6465C190.924 39.5137 190.912 39.4102 190.912 39.3359C190.912 39.3125 190.91 39.2695 190.906 39.207C190.906 39.1445 190.906 39.0762 190.906 39.002C190.906 38.9238 190.906 38.8457 190.906 38.7676C190.91 38.6895 190.916 38.623 190.924 38.5684C190.928 38.541 190.939 38.4727 190.959 38.3633C190.982 38.25 191.023 38.1152 191.082 37.959C191.141 37.8027 191.223 37.6367 191.328 37.4609C191.434 37.2812 191.57 37.1133 191.738 36.957C191.91 36.8008 192.119 36.666 192.365 36.5527C192.615 36.4395 192.91 36.3672 193.25 36.3359C193.605 36.3047 193.918 36.3262 194.188 36.4004C194.461 36.4746 194.695 36.582 194.891 36.7227C195.086 36.8633 195.248 37.0273 195.377 37.2148C195.506 37.4023 195.605 37.5938 195.676 37.7891C195.75 37.9805 195.799 38.168 195.822 38.3516C195.846 38.5312 195.85 38.6855 195.834 38.8145C195.811 39.0059 195.785 39.1777 195.758 39.3301C195.73 39.4785 195.697 39.6211 195.658 39.7578C195.623 39.8945 195.582 40.0293 195.535 40.1621C195.488 40.2949 195.434 40.4395 195.371 40.5957C195.355 40.6387 195.312 40.7324 195.242 40.877C195.176 41.0215 195.09 41.1992 194.984 41.4102C194.883 41.6172 194.77 41.8496 194.645 42.1074C194.523 42.3613 194.398 42.6172 194.27 42.875C193.969 43.4844 193.633 44.1641 193.262 44.9141H191.861ZM192.125 38.7266C192.125 38.8789 192.133 39.0469 192.148 39.2305C192.164 39.4141 192.209 39.5879 192.283 39.752C192.361 39.9121 192.482 40.0508 192.646 40.168C192.811 40.2812 193.041 40.3457 193.338 40.3613C193.486 40.3691 193.621 40.3516 193.742 40.3086C193.863 40.2617 193.971 40.2012 194.064 40.127C194.158 40.0527 194.238 39.9688 194.305 39.875C194.375 39.7812 194.432 39.6895 194.475 39.5996C194.521 39.5059 194.555 39.4199 194.574 39.3418C194.594 39.2637 194.604 39.2012 194.604 39.1543C194.6 39.0566 194.596 38.9473 194.592 38.8262C194.592 38.7051 194.58 38.582 194.557 38.457C194.537 38.332 194.502 38.2129 194.451 38.0996C194.4 37.9824 194.328 37.8809 194.234 37.7949C194.141 37.709 194.02 37.6426 193.871 37.5957C193.727 37.5449 193.545 37.5254 193.326 37.5371C193.084 37.5488 192.885 37.6094 192.729 37.7188C192.576 37.8281 192.455 37.9492 192.365 38.082C192.275 38.2148 192.213 38.3438 192.178 38.4688C192.143 38.5938 192.125 38.6797 192.125 38.7266Z" fill="black"/>
<rect x="8.25024" y="49.125" width="60.0921" height="78.1198" fill="white"/>
<path d="M45.2742 85.123H30.7336V101.55H45.2742V85.123Z" fill="#FFD3CE"/>
<path d="M52.247 73.5921C51.4444 71.6718 49.8047 72.6172 49.8047 72.6172C50.7501 63.8968 46.3185 58.1406 38.0068 58.1406C29.6951 58.1406 25.2585 63.8968 26.2039 72.6172C26.2039 72.6172 24.5642 71.6767 23.7616 73.5921C22.959 75.5076 24.4264 80.0081 25.3324 81.441C26.2384 82.869 27.8436 83.9522 27.8436 83.9522C27.8436 83.9522 27.947 85.5575 28.3656 86.6703C28.7841 87.788 33.5259 92.9189 34.9194 93.7018C36.7462 94.7801 39.4446 94.7801 41.0843 93.7018C42.4778 92.9189 47.2245 87.788 47.6381 86.6703C48.0567 85.5525 48.1601 83.9522 48.1601 83.9522C48.1601 83.9522 49.7653 82.869 50.6713 81.441C51.5773 80.013 53.0447 75.5125 52.2421 73.5921H52.247Z" fill="#FFD3CE"/>
<path d="M38.0767 94.6901C36.9344 94.6901 35.7674 94.4144 34.8269 93.8629C33.9849 93.3902 32.0399 91.4452 30.5972 89.84L30.8729 89.5938C32.3452 91.2285 34.2409 93.1095 35.014 93.5428C36.7817 94.5818 39.4062 94.5867 40.9868 93.5477C41.7747 93.1046 43.6704 91.2236 45.1377 89.5938L45.4135 89.84C43.9658 91.4452 42.0258 93.3852 41.1789 93.8629C40.3418 94.4144 39.224 94.6901 38.0767 94.6901Z" fill="#C46966"/>
<path d="M27.5682 80.1853L27.2017 80.2305L27.6627 83.969L28.0292 83.9238L27.5682 80.1853Z" fill="#C46966"/>
<path d="M48.4151 80.1928L47.999 83.9316L48.3661 83.9725L48.7821 80.2336L48.4151 80.1928Z" fill="#C46966"/>
<path d="M24.8364 77.9081C24.7576 77.6274 24.1077 75.126 25.0088 74.4416C25.3091 74.2496 25.5504 74.2693 25.703 74.3185C26.161 74.4662 26.3924 75.0374 26.417 75.1014L26.0723 75.2344C26.0231 75.1063 25.836 74.7518 25.5898 74.673C25.4765 74.6336 25.3534 74.6632 25.2205 74.7469C24.7035 75.1408 24.9251 76.8396 25.1909 77.8145L24.8364 77.913V77.9081Z" fill="#C46966"/>
<path d="M51.1753 77.9094L50.8208 77.8109C51.0867 76.836 51.3132 75.1372 50.7814 74.7383C50.6583 74.6595 50.5352 74.6349 50.422 74.6694C50.1265 74.7679 49.9394 75.2258 49.9394 75.2307L49.5947 75.0978C49.6193 75.0338 49.8508 74.4675 50.3087 74.3149C50.4614 74.2656 50.7076 74.2459 50.9931 74.433C51.9041 75.1224 51.2541 77.6238 51.1753 77.9045V77.9094Z" fill="#C46966"/>
<path d="M27.3813 77.2014C29.8482 77.2162 27.982 69.2541 29.9172 67.3239C30.902 66.344 32.3348 66.5065 33.5658 66.8167C34.9987 67.1811 36.4808 67.6784 37.9925 67.7178C39.5928 67.7621 41.1143 67.1712 42.6506 66.8019C43.8422 66.5114 45.1372 66.3834 46.0827 67.3239C48.0178 69.2492 46.1516 77.2113 48.6185 77.2014C48.4462 75.3599 48.4413 73.3459 49.7954 72.6172C50.7506 63.8968 46.319 58.1406 38.0073 58.1406C29.6956 58.1406 25.259 63.8968 26.2045 72.6172C27.3025 73.3312 27.5536 75.2762 27.3813 77.2014Z" fill="#2C2C2C"/>
<path d="M61.495 103.016C53.7347 99.5542 45.2753 98.3281 45.2753 98.3281C41.3952 102.376 34.1618 102.43 30.7347 98.3281C30.7347 98.3281 22.2753 99.5542 14.515 103.016C8.25073 105.81 8.25073 111.223 8.25073 127.247C12.7576 127.247 63.0858 127.247 68.3429 127.247C68.3429 110.221 68.3429 105.714 61.4999 103.016H61.495Z" fill="#A9E0FF"/>
<path d="M28.7693 98.6076L30.734 95.082L37.0958 100.794L33.2009 105.058L28.7693 98.6076Z" fill="#3867E0"/>
<path d="M47.234 98.6076L45.2693 95.082L38.9075 100.794L42.7974 105.058L47.234 98.6076Z" fill="#3867E0"/>
<path d="M85.8354 69.3281H217.89" stroke="black" stroke-width="3" stroke-linecap="round"/>
<path d="M85.8354 89.1367H217.89" stroke="black" stroke-width="3" stroke-linecap="round"/>
<path d="M86 108H150" stroke="black" stroke-width="3" stroke-linecap="round"/>
<path d="M86 127H152" stroke="black" stroke-width="3" stroke-linecap="round"/>
<rect x="85.8354" y="16.5078" width="132.055" height="12.105" fill="#FF5B5B"/>
<circle cx="37.9659" cy="22.5601" r="15.9566" fill="#FF5B5B"/>
<rect x="158" y="99" width="61" height="30" rx="4" fill="white"/>
<path d="M179.054 101.01H185.66V125.969H179.054V101.01Z" fill="black"/>
<path d="M168.649 101.014H172.929V125.972H168.649V101.014Z" fill="black"/>
<path d="M201.751 125.985H199.002V101.023H201.751V125.985Z" fill="black"/>
<path d="M204.122 101.021H206.559V125.98H204.122V101.021Z" fill="black"/>
<path d="M213.279 125.98H211.456V101.016H213.279V125.98Z" fill="black"/>
<path d="M216 125.985H214.177V101.029H216V125.985Z" fill="black"/>
<path d="M178.02 125.98H176.203V101.033H178.02V125.98Z" fill="black"/>
<path d="M161 101.016H162.83V125.964H161V101.016Z" fill="black"/>
<path d="M190.681 125.98H188.877V101.016H190.681V125.98Z" fill="black"/>
<path d="M166.164 125.98H165.312V101.016H166.164V125.98Z" fill="black"/>
<path d="M209.436 125.98H208.583V101.016H209.436V125.98Z" fill="black"/>
<path d="M195.041 101.035V125.96C194.255 126.044 193.828 126.016 193.847 125.683C193.889 124.96 193.86 124.236 193.86 123.512C193.86 116.158 193.86 108.804 193.86 101.449C193.86 101.207 193.647 100.894 195.037 101.035H195.041Z" fill="black"/>
</svg>
