<svg width="41" height="36" viewBox="0 0 41 36" fill="none" xmlns="http://www.w3.org/2000/svg">
<g clip-path="url(#clip0_3177_40272)">
<path d="M24.8251 25.2051C35.7097 19.4725 42.5417 11.0435 40.0847 6.3784C37.6278 1.71333 26.8123 2.57877 15.9276 8.31142C5.04298 14.0441 -1.789 22.4731 0.667963 27.1381C3.12493 31.8032 13.9404 30.9378 24.8251 25.2051Z" stroke="#606060" stroke-linecap="round" stroke-linejoin="round" stroke-dasharray="3 3"/>
<path d="M4.63213 15.3306L5.38943 16.2917L7.35228 15.7687L8.21485 16.4581L1.27354 21.0159L4.63213 15.3306ZM4.63213 14.991C4.62534 14.991 4.61855 14.991 4.60836 14.991C4.49629 14.9978 4.39442 15.0623 4.34008 15.1574L0.981493 20.8427C0.89999 20.9785 0.923762 21.1517 1.03922 21.2604C1.10375 21.3215 1.18865 21.3555 1.27354 21.3555C1.33807 21.3555 1.40259 21.3385 1.46032 21.3012L8.40503 16.7434C8.49672 16.6823 8.55445 16.5838 8.55784 16.4751C8.56124 16.3664 8.51709 16.2612 8.43219 16.1932L7.56962 15.5038C7.5085 15.4563 7.43379 15.4291 7.35907 15.4291C7.32851 15.4291 7.30134 15.4325 7.27078 15.4393L5.52187 15.9046L4.90381 15.12C4.83249 15.0385 4.73401 14.991 4.63213 14.991Z" fill="#474747"/>
<path d="M1.27371 21.1857C1.23295 21.1857 1.18881 21.1687 1.15824 21.1381C1.09372 21.077 1.08693 20.9785 1.14126 20.9106L5.83785 14.811C5.85144 14.7906 5.87181 14.777 5.89219 14.7634L11.8215 11.6083C11.8453 11.5947 11.8724 11.588 11.8996 11.588C11.9539 11.588 12.0083 11.6151 12.0388 11.6627C12.0864 11.734 12.0762 11.8291 12.0117 11.8868L1.38238 21.1449C1.35181 21.1721 1.31106 21.1857 1.27371 21.1857Z" fill="#FBBC05"/>
<mask id="path-4-inside-1_3177_40272" fill="white">
<path d="M11.8963 11.7611L1.27379 21.0158L5.97038 14.9162L11.8963 11.7611ZM11.8963 11.4215C11.842 11.4215 11.7876 11.4351 11.7367 11.4623L5.80737 14.614C5.76323 14.6377 5.72587 14.6683 5.69871 14.7057L1.00211 20.8087C0.89684 20.9479 0.910424 21.1449 1.03947 21.2638C1.10399 21.3249 1.18889 21.3555 1.27379 21.3555C1.3519 21.3555 1.4334 21.3283 1.49792 21.2706L12.1204 12.0158C12.2495 11.9038 12.2766 11.7102 12.1782 11.5675C12.1102 11.4725 12.005 11.4215 11.8963 11.4215Z"/>
</mask>
<path d="M11.8963 11.7611L1.27379 21.0158L5.97038 14.9162L11.8963 11.7611ZM11.8963 11.4215C11.842 11.4215 11.7876 11.4351 11.7367 11.4623L5.80737 14.614C5.76323 14.6377 5.72587 14.6683 5.69871 14.7057L1.00211 20.8087C0.89684 20.9479 0.910424 21.1449 1.03947 21.2638C1.10399 21.3249 1.18889 21.3555 1.27379 21.3555C1.3519 21.3555 1.4334 21.3283 1.49792 21.2706L12.1204 12.0158C12.2495 11.9038 12.2766 11.7102 12.1782 11.5675C12.1102 11.4725 12.005 11.4215 11.8963 11.4215Z" fill="#474747"/>
<path d="M11.8963 11.7611L12.5532 12.5151L11.4263 10.8784L11.8963 11.7611ZM1.27379 21.0158L0.481453 20.4058L1.93069 21.7698L1.27379 21.0158ZM5.97038 14.9162L5.50042 14.0335L5.3098 14.135L5.17804 14.3061L5.97038 14.9162ZM11.7367 11.4623L12.2061 12.3453L12.2073 12.3446L11.7367 11.4623ZM5.80737 14.614L5.33801 13.7309L5.33324 13.7335L5.80737 14.614ZM5.69871 14.7057L6.49121 15.3155L6.49948 15.3048L6.50746 15.2938L5.69871 14.7057ZM1.00211 20.8087L0.209585 20.1988L0.204431 20.2056L1.00211 20.8087ZM1.03947 21.2638L1.72731 20.5378L1.71698 20.5283L1.03947 21.2638ZM1.49792 21.2706L0.840969 20.5165L0.831097 20.5254L1.49792 21.2706ZM12.1204 12.0158L11.4647 11.2608L11.4635 11.2619L12.1204 12.0158ZM12.1782 11.5675L13.0011 10.9994L12.9966 10.9928L12.9919 10.9863L12.1782 11.5675ZM11.2394 11.0072L0.616894 20.2619L1.93069 21.7698L12.5532 12.5151L11.2394 11.0072ZM2.06613 21.6259L6.76272 15.5263L5.17804 14.3061L0.481453 20.4058L2.06613 21.6259ZM6.44034 15.7989L12.3663 12.6438L11.4263 10.8784L5.50042 14.0335L6.44034 15.7989ZM11.8963 10.4215C11.6727 10.4215 11.4573 10.4779 11.2661 10.5799L12.2073 12.3446C12.118 12.3923 12.0112 12.4215 11.8963 12.4215V10.4215ZM11.2673 10.5793L5.33802 13.731L6.27673 15.497L12.2061 12.3453L11.2673 10.5793ZM5.33324 13.7335C5.18342 13.8142 5.02139 13.9368 4.88995 14.1175L6.50746 15.2938C6.43035 15.3998 6.34304 15.4613 6.28151 15.4944L5.33324 13.7335ZM4.9062 14.0958L0.209614 20.1988L1.79462 21.4185L6.49121 15.3155L4.9062 14.0958ZM0.204431 20.2056C-0.198635 20.7387 -0.160937 21.5176 0.361964 21.9993L1.71698 20.5283C1.98179 20.7722 1.99232 21.1571 1.7998 21.4118L0.204431 20.2056ZM0.351695 21.9897C0.615728 22.2399 0.952617 22.3555 1.27379 22.3555V20.3555C1.42517 20.3555 1.59226 20.41 1.72724 20.5378L0.351695 21.9897ZM1.27379 22.3555C1.57834 22.3555 1.90276 22.2502 2.16475 22.0158L0.831097 20.5254C0.964039 20.4064 1.12545 20.3555 1.27379 20.3555V22.3555ZM2.15482 22.0245L12.7773 12.7698L11.4635 11.2619L0.841027 20.5166L2.15482 22.0245ZM12.7762 12.7709C13.282 12.3315 13.3949 11.5698 13.0011 10.9994L11.3552 12.1357C11.1584 11.8506 11.217 11.476 11.4647 11.2608L12.7762 12.7709ZM12.9919 10.9863C12.7323 10.6228 12.321 10.4215 11.8963 10.4215V12.4215C11.689 12.4215 11.4882 12.3221 11.3644 12.1488L12.9919 10.9863Z" fill="#474747" mask="url(#path-4-inside-1_3177_40272)"/>
<path d="M1.27354 21.1857C1.25317 21.1857 1.23279 21.1823 1.21241 21.1755C1.1343 21.1449 1.09015 21.0668 1.10713 20.9853L2.46222 13.9279C2.47241 13.8702 2.51317 13.8261 2.56411 13.8023C2.58449 13.7921 2.60826 13.7887 2.62864 13.7887C2.6626 13.7887 2.69656 13.7989 2.72373 13.8193L4.72751 15.1913C4.80222 15.2423 4.8226 15.3408 4.77845 15.4189L1.41958 21.1042C1.38562 21.1551 1.33128 21.1857 1.27354 21.1857Z" fill="#FBBC05"/>
<path d="M2.62533 13.9585L4.6291 15.3306L1.27363 21.0159L2.62533 13.9585ZM2.62533 13.6189C2.58118 13.6189 2.53703 13.6257 2.49627 13.6461C2.39099 13.6902 2.31288 13.7853 2.2925 13.8974L0.937404 20.9513C0.906838 21.1144 0.99514 21.274 1.15137 21.3317C1.19212 21.3453 1.23288 21.3521 1.27023 21.3521C1.3891 21.3521 1.50118 21.291 1.56231 21.1857L4.92118 15.5004C5.01288 15.3476 4.96873 15.1472 4.81929 15.0487L2.81552 13.6766C2.76118 13.6393 2.69325 13.6189 2.62533 13.6189Z" fill="#474747"/>
<path d="M21.4522 17.4159C21.4149 17.4498 21.296 17.6604 21.459 17.8913C21.4692 17.9049 21.476 17.9185 21.4794 17.9287C23.4422 19.1072 29.3274 23.8789 29.3274 27.2411V34.5838H11.5632V27.2377C11.5632 23.8551 17.5299 19.0087 19.4486 17.8913C19.5097 17.8064 19.5301 17.7215 19.5301 17.6502C19.5301 17.5076 19.4962 17.4498 19.4486 17.4057C17.754 15.9453 11.5632 11.4555 11.5632 8.06944V1.10718H29.3274V8.07623C29.3308 11.4521 23.0993 15.9045 21.4522 17.4159Z" stroke="#474747" stroke-miterlimit="10"/>
<path d="M30.2036 36H10.4868C10.4426 36 10.4053 35.9626 10.4053 35.9185V35.7351C10.4053 34.8894 11.0913 34.2068 11.9334 34.2068H28.8826C29.6908 34.2068 30.3497 34.8623 30.3497 35.674V35.8574C30.3497 35.9355 30.2851 36 30.2036 36Z" fill="#474747"/>
<path d="M27.0282 5.73622C25.9517 5.7532 24.1009 5.94678 21.1057 6.70075C19.0545 7.21697 15.5194 6.8298 13.6482 6.5615C12.9928 6.46641 12.4053 6.97584 12.4053 7.6381V8.43961C12.4053 10.6506 18.3584 15.4426 19.9307 16.6721C20.1684 16.8589 20.3076 17.1441 20.3076 17.4464V29.7509C20.3076 30.1721 20.1005 30.5626 19.7575 30.8038C18.5214 31.6698 16.4329 34.2068 16.4329 34.2068H24.3216C24.3216 34.2068 22.206 31.7615 21.0208 30.8513C20.7491 30.6441 20.5895 30.3249 20.5895 29.9819V17.4464C20.5895 17.1441 20.7253 16.8623 20.9597 16.6721C22.5014 15.4358 28.3255 10.6268 28.3255 8.41584V7.0098C28.3221 6.29999 27.7414 5.72603 27.0282 5.73622Z" fill="#FBBC05"/>
<path d="M28.8215 1.79321H11.8791C11.0641 1.79321 10.4053 1.13434 10.4053 0.319245V0.135849C10.4053 0.0611321 10.4664 0 10.5411 0H30.2681C30.3123 0 30.3497 0.0373585 30.3497 0.0815094V0.264906C30.3497 1.11057 29.6637 1.79321 28.8215 1.79321Z" fill="#474747"/>
</g>
<defs>
<clipPath id="clip0_3177_40272">
<rect width="40.7547" height="36" fill="white"/>
</clipPath>
</defs>
</svg>
