<svg width="20" height="20" viewBox="0 0 20 20" fill="none" xmlns="http://www.w3.org/2000/svg">
<path d="M18.2708 9.05938L17.0042 7.79271C16.7875 7.57604 16.6125 7.15104 16.6125 6.85104V5.05104C16.6125 4.31771 16.0125 3.71771 15.2792 3.71771H13.4875C13.1875 3.71771 12.7625 3.54271 12.5458 3.32604L11.2792 2.05938C10.7625 1.54271 9.9125 1.54271 9.39583 2.05938L8.1125 3.32604C7.90417 3.54271 7.47917 3.71771 7.17083 3.71771H5.37917C4.64583 3.71771 4.04583 4.31771 4.04583 5.05104V6.84271C4.04583 7.14271 3.87083 7.56771 3.65417 7.78438L2.3875 9.05104C1.87083 9.56771 1.87083 10.4177 2.3875 10.9344L3.65417 12.201C3.87083 12.4177 4.04583 12.8427 4.04583 13.1427V14.9344C4.04583 15.6677 4.64583 16.2677 5.37917 16.2677H7.17083C7.47083 16.2677 7.89583 16.4427 8.1125 16.6594L9.37917 17.926C9.89583 18.4427 10.7458 18.4427 11.2625 17.926L12.5292 16.6594C12.7458 16.4427 13.1708 16.2677 13.4708 16.2677H15.2625C15.9958 16.2677 16.5958 15.6677 16.5958 14.9344V13.1427C16.5958 12.8427 16.7708 12.4177 16.9875 12.201L18.2542 10.9344C18.7958 10.426 18.7958 9.57604 18.2708 9.05938Z" fill="#FF6B43"/>
<path fill-rule="evenodd" clip-rule="evenodd" d="M10.5 6.25C10.9142 6.25 11.25 6.58579 11.25 7V11.419C11.25 11.8332 10.9142 12.169 10.5 12.169C10.0858 12.169 9.75 11.8332 9.75 11.419V7C9.75 6.58579 10.0858 6.25 10.5 6.25Z" fill="#F8E4DF"/>
<path fill-rule="evenodd" clip-rule="evenodd" d="M9.75 14.5938C9.75 14.1795 10.0858 13.8438 10.5 13.8438H10.51C10.9242 13.8438 11.26 14.1795 11.26 14.5938C11.26 15.008 10.9242 15.3438 10.51 15.3438H10.5C10.0858 15.3438 9.75 15.008 9.75 14.5938Z" fill="#F8E4DF"/>
</svg>
