<svg width="101" height="100" viewBox="0 0 101 100" fill="none" xmlns="http://www.w3.org/2000/svg">
<path d="M32.7135 94.9234C32.7135 94.9234 22.9441 82.2195 25.9062 78.9538C34.1025 69.9387 47.2388 71.7509 50.992 70.831V70.6562C50.992 70.6562 51.1208 70.6839 51.3416 70.739C51.5624 70.6839 51.6912 70.6562 51.6912 70.6562V70.831C55.4444 71.7601 67.8999 70.4907 76.777 78.9538C80.2083 82.2287 71.8095 94.9234 71.8095 94.9234H32.7135Z" fill="#FACEBB"/>
<path d="M52.3353 81.7407H50.3575C47.561 81.7407 45.2888 79.4685 45.2888 76.672V59.6445H57.4132V76.672C57.404 79.4777 55.1318 81.7407 52.3353 81.7407Z" fill="#FACEBB"/>
<path d="M45.2795 74.4816C47.101 75.2911 48.352 76.349 51.2865 76.349C54.221 76.349 55.5641 75.2543 57.4039 74.3804V54.9336H45.2795V74.4816Z" fill="#FACEBB"/>
<path opacity="0.86" d="M45.3072 69.6004V64.0993C45.114 64.0993 57.404 60.7969 57.404 60.7969V66.1691C57.404 66.1875 52.0777 70.8147 45.3072 69.6004Z" fill="#F5A8A4"/>
<path d="M70.5678 43.0503C70.5678 53.666 60.6236 66.7747 51.3418 66.7747C41.278 66.7747 32.1157 53.6752 32.1157 43.0503C32.1157 32.4254 40.7261 23.8242 51.3418 23.8242C61.9575 23.8242 70.5678 32.4346 70.5678 43.0503Z" fill="#FACEBB"/>
<path opacity="0.86" d="M60.0348 49.7175C59.9796 50.4903 61.1664 51.2079 62.6844 51.3183C64.2024 51.4287 65.4812 50.8859 65.5364 50.1131C65.5916 49.3403 64.4048 48.6227 62.8868 48.5123C61.3688 48.4111 60.09 48.9447 60.0348 49.7175Z" fill="#F5A8A4"/>
<path d="M53.5684 59.38C53.1452 60.3828 52.1516 61.0912 50.9832 61.0912C49.4376 61.0912 48.1772 59.84 48.1772 58.2852" stroke="#333072" stroke-width="0.5" stroke-miterlimit="10" stroke-linecap="round" stroke-linejoin="round"/>
<path d="M31.9223 46.1517C31.2232 43.9715 31.1128 42.564 30.9472 40.2918C30.4045 32.7118 32.4927 30.0717 32.4927 30.0717C32.4927 30.0717 41.1306 28.6826 37.9845 32.8222C36.0067 35.4163 33.8817 44.2107 33.8817 45.1858L31.9223 46.1517Z" fill="#FF8700"/>
<path d="M36.4392 48.4762C37.2395 51.3739 37.3499 54.3452 35.4273 54.8787C33.5047 55.4123 30.285 53.3057 29.4847 50.408C28.6844 47.5103 29.5859 44.7322 31.5085 44.1986C33.4311 43.6651 35.6389 45.5785 36.4392 48.4762Z" fill="#FACEBB"/>
<path opacity="0.86" d="M42.9158 49.7175C42.971 50.4903 41.7842 51.2079 40.2662 51.3183C38.7482 51.4287 37.4694 50.8859 37.4142 50.1131C37.359 49.3403 38.5458 48.6227 40.0638 48.5123C41.5818 48.4111 42.8606 48.9447 42.9158 49.7175Z" fill="#F5A8A4"/>
<path d="M46.7425 46.474C46.7333 47.4676 45.9145 48.268 44.9209 48.2588C43.9273 48.2496 43.1269 47.4308 43.1361 46.4372C43.1453 45.4436 43.9641 44.6432 44.9577 44.6524C45.9513 44.6616 46.7517 45.4804 46.7425 46.474Z" fill="#333072"/>
<path d="M41.0754 41.3866C41.0754 41.3866 41.8206 38.6726 45.0774 38.5898" stroke="#333072" stroke-width="0.5" stroke-miterlimit="10" stroke-linecap="round" stroke-linejoin="round"/>
<path d="M56.4195 46.4255C56.4103 47.4191 57.2015 48.2379 58.2043 48.2471C59.1979 48.2563 60.0167 47.4651 60.0259 46.4623C60.0351 45.4687 59.2439 44.6499 58.2411 44.6407C57.2475 44.6315 56.4287 45.4319 56.4195 46.4255Z" fill="#333072"/>
<path d="M61.8658 41.4865C61.8658 41.4865 61.185 38.7541 57.9282 38.5977" stroke="#333072" stroke-width="0.5" stroke-miterlimit="10" stroke-linecap="round" stroke-linejoin="round"/>
<path d="M68.084 50.0578C68.8843 45.5411 68.2588 38.5406 68.084 39.0557C68.084 39.0557 63.3373 40.5552 64.0916 31.3193C64.0916 31.3193 42.4738 41.0519 33.4863 33.3155C24.4988 25.5791 33.983 21.5775 37.727 22.0834C37.727 22.0834 36.476 17.8427 41.4711 17.3367C46.4662 16.8308 50.3482 21.8351 57.8454 21.8351C65.3427 21.8351 69.0775 22.3318 68.3324 28.578C68.3324 28.578 72.0764 26.3334 73.3275 30.5742C74.5785 34.8149 71.5428 44.7039 70.0434 49.0919L68.084 50.0578Z" fill="#FF8700"/>
<path d="M67.3205 48.5339C66.5293 51.3856 66.4281 54.3201 68.314 54.8445C70.209 55.3688 73.3734 53.2898 74.1738 50.4381C74.9649 47.5864 74.0726 44.8451 72.1868 44.3208C70.2918 43.7872 68.1116 45.673 67.3205 48.5339Z" fill="#FACEBB"/>
<path d="M66.4465 72.625C63.2728 75.5043 58.5813 77.5005 53.2367 78.0157L50.3574 88.3922L48.8303 78.0985C43.0349 77.7673 37.9294 75.6975 34.5442 72.6342C27.0101 75.0444 16.008 80.2786 17.6455 95.9998H49.9066H51.0933H83.3544C84.9919 80.2786 73.9806 75.0444 66.4465 72.625Z" fill="#62D819"/>
<path d="M49.2259 80.7372L48.8303 78.0971C43.0349 77.7659 37.9294 75.6961 34.5442 72.6328C33.2655 73.0468 31.904 73.5343 30.5518 74.1507C33.2195 77.7751 40.4868 80.4428 49.2259 80.7372Z" fill="#2EE5A8"/>
<path d="M70.8898 74.3452C69.3811 73.6369 67.8725 73.085 66.4466 72.625C63.2729 75.5043 58.5814 77.5005 53.2367 78.0157L52.4824 80.7294C61.0008 80.4258 68.1116 77.8593 70.8898 74.3452Z" fill="#2EE5A8"/>
<path d="M49.7041 90.8952C49.7041 91.5576 50.2377 92.0912 50.9001 92.0912C51.5625 92.0912 52.0961 91.5576 52.0961 90.8952C52.0961 90.2328 51.5625 89.6992 50.9001 89.6992C50.2377 89.6992 49.7041 90.2328 49.7041 90.8952Z" fill="#2EE5A8"/>
<path d="M32.2812 76.9848H17.7283C10.4334 76.9848 4.5 71.0515 4.5 63.7566V49.2037C4.5 47.5294 5.86146 46.168 7.53569 46.168C9.20992 46.168 10.5714 47.5294 10.5714 49.2037V63.7566C10.5714 67.703 13.7819 70.9135 17.7375 70.9135H32.2812C33.9554 70.9135 35.3169 72.2749 35.3169 73.9492C35.3169 75.6234 33.9554 76.9848 32.2812 76.9848Z" fill="#45E4FF"/>
<path d="M65.6738 73.9584C65.6738 72.2841 67.0353 70.9227 68.7095 70.9227H83.2625C87.2089 70.9227 90.4285 67.7122 90.4285 63.7658V49.2037C90.4285 47.5294 91.79 46.168 93.4642 46.168C95.1385 46.168 96.4999 47.5294 96.4999 49.2037V63.7566C96.4999 71.0515 90.5665 76.9848 83.2717 76.9848H68.7095C67.0353 76.9848 65.6738 75.6234 65.6738 73.9584Z" fill="#45E4FF"/>
<path d="M35.3169 7.03569C35.3169 8.70992 33.9554 10.0714 32.2812 10.0714H17.7283C13.7819 10.0714 10.5622 13.2819 10.5622 17.2283V31.7812C10.5622 33.4554 9.20073 34.8169 7.52649 34.8169C5.85226 34.8169 4.5 33.4554 4.5 31.7812V17.2283C4.5 9.9334 10.4334 4 17.7283 4H32.2812C33.9554 4 35.3169 5.36146 35.3169 7.03569Z" fill="#45E4FF"/>
<path d="M68.7095 4H83.2625C90.5573 4 96.4907 9.9334 96.4907 17.2283V31.7812C96.4907 33.4554 95.1292 34.8169 93.455 34.8169C91.7808 34.8169 90.4193 33.4554 90.4193 31.7812V17.2283C90.4193 13.2819 87.2089 10.0714 83.2533 10.0714H68.7095C67.0353 10.0714 65.6738 8.70992 65.6738 7.03569C65.6738 5.36146 67.0353 4 68.7095 4Z" fill="#45E4FF"/>
<path d="M83.152 29.7577H17.8386C16.3207 29.7577 15.0789 28.5158 15.0789 26.998C15.0789 25.4802 16.3207 24.2383 17.8386 24.2383H83.152C84.6698 24.2383 85.9117 25.4802 85.9117 26.998C85.9117 28.5158 84.6698 29.7577 83.152 29.7577Z" fill="#FFC900"/>
</svg>
