<svg width="41" height="41" viewBox="0 0 41 41" fill="none"
    xmlns="http://www.w3.org/2000/svg">
    <path d="M27.9295 27.4358C28.2784 26.6253 28.4581 25.7628 28.4581 24.8796C28.4581 23.9964 28.2784 23.1339 27.9295 22.3234C27.5912 21.5441 27.1154 20.8375 26.5022 20.2348C25.889 19.6322 25.17 19.1542 24.3771 18.832C23.5524 18.4891 22.6749 18.3125 21.7762 18.3125C20.8775 18.3125 20 18.4891 19.1753 18.832C18.3823 19.1646 17.6634 19.6322 17.0502 20.2348C16.437 20.8375 15.9506 21.5441 15.6229 22.3234C15.274 23.1339 15.0942 23.9964 15.0942 24.8796C15.0942 25.7628 15.274 26.6253 15.6229 27.4358C15.9612 28.2151 16.437 28.9217 17.0502 29.5243C17.6634 30.127 18.3823 30.605 19.1753 30.9271C20 31.27 20.8775 31.4467 21.7762 31.4467C22.6749 31.4467 23.5524 31.27 24.3771 30.9271C25.17 30.5946 25.889 30.127 26.5022 29.5243C27.1154 28.9217 27.5912 28.2255 27.9295 27.4358ZM26.0898 28.5892V28.9528H25.7198H25.0009H24.6308V28.5892V27.893C24.6308 27.4358 24.3876 27.0097 23.9859 26.7811C23.3198 26.3863 22.5586 26.1888 21.7762 26.1888C20.9938 26.1888 20.2326 26.3967 19.5665 26.7811C19.1753 27.0097 18.9216 27.4358 18.9216 27.893V28.5892V28.9528H18.5515H17.8326H17.4625V28.5892V27.893C17.4625 27.4254 17.5894 26.9578 17.822 26.5421C18.0546 26.1265 18.4035 25.7836 18.8158 25.5446C19.3868 25.2121 20.0211 24.9731 20.666 24.8484C19.9471 24.4639 19.4608 23.7158 19.4608 22.8637V22.0429C19.4608 20.7959 20.4969 19.7776 21.7656 19.7776C23.0343 19.7776 24.0705 20.7959 24.0705 22.0429V22.8637C24.0705 23.7158 23.5841 24.4639 22.8652 24.8484C23.5207 24.9731 24.1445 25.2017 24.7154 25.5446C25.1277 25.7836 25.4766 26.1369 25.7092 26.5421C25.9418 26.9578 26.0687 27.415 26.0687 27.893V28.5892H26.0898Z" fill="#FBBC05"/>
    <path d="M21.8528 23.6859C22.2287 23.6859 22.5362 23.3262 22.5362 22.8865V22.0972C22.5362 21.6576 22.2287 21.2979 21.8528 21.2979C21.477 21.2979 21.1694 21.6576 21.1694 22.0972V22.8865C21.1694 23.3362 21.477 23.6859 21.8528 23.6859Z" fill="#FBBC05"/>
    <path d="M28.5374 27.4358C28.8863 26.6253 29.066 25.7628 29.066 24.8796C29.066 23.9964 28.8863 23.1339 28.5374 22.3234C28.1991 21.5441 27.7233 20.8375 27.1101 20.2348C26.4969 19.6322 25.7779 19.1542 24.985 18.832C24.1603 18.4891 23.2828 18.3125 22.3841 18.3125C21.4854 18.3125 20.6079 18.4891 19.7832 18.832C18.9903 19.1646 18.2713 19.6322 17.6581 20.2348C17.0449 20.8375 16.5585 21.5441 16.2308 22.3234C15.8819 23.1339 15.7021 23.9964 15.7021 24.8796C15.7021 25.7628 15.8819 26.6253 16.2308 27.4358C16.5691 28.2151 17.0449 28.9217 17.6581 29.5243C18.2713 30.127 18.9903 30.605 19.7832 30.9271C20.6079 31.27 21.4854 31.4467 22.3841 31.4467C23.2828 31.4467 24.1603 31.27 24.985 30.9271C25.7779 30.5946 26.4969 30.127 27.1101 29.5243C27.7233 28.9217 28.1991 28.2255 28.5374 27.4358ZM26.6977 28.5892V28.9528H26.3277H25.6088H25.2387V28.5892V27.893C25.2387 27.4358 24.9955 27.0097 24.5938 26.7811C23.9277 26.3863 23.1665 26.1888 22.3841 26.1888C21.6017 26.1888 20.8405 26.3967 20.1744 26.7811C19.7832 27.0097 19.5295 27.4358 19.5295 27.893V28.5892V28.9528H19.1594H18.4405H18.0704V28.5892V27.893C18.0704 27.4254 18.1973 26.9578 18.4299 26.5421C18.6625 26.1265 19.0114 25.7836 19.4237 25.5446C19.9947 25.2121 20.629 24.9731 21.274 24.8484C20.555 24.4639 20.0687 23.7158 20.0687 22.8637V22.0429C20.0687 20.7959 21.1048 19.7776 22.3735 19.7776C23.6422 19.7776 24.6784 20.7959 24.6784 22.0429V22.8637C24.6784 23.7158 24.192 24.4639 23.4731 24.8484C24.1286 24.9731 24.7524 25.2017 25.3233 25.5446C25.7356 25.7836 26.0845 26.1369 26.3171 26.5421C26.5497 26.9578 26.6766 27.415 26.6766 27.893V28.5892H26.6977Z" stroke="#474747" stroke-width="0.45559" stroke-miterlimit="10"/>
    <path d="M22.4597 23.6859C22.8356 23.6859 23.1431 23.3262 23.1431 22.8865V22.0972C23.1431 21.6576 22.8356 21.2979 22.4597 21.2979C22.0839 21.2979 21.7764 21.6576 21.7764 22.0972V22.8865C21.7764 23.3362 22.0839 23.6859 22.4597 23.6859Z" stroke="#474747" stroke-width="0.45559" stroke-miterlimit="10"/>
    <path d="M39.3927 38.0146H36.3555V40.9997H39.3927V38.0146Z" fill="#FBBC05"/>
    <path d="M39.9996 36.8203H36.9624V39.8054H39.9996V36.8203Z" stroke="#474747" stroke-width="0.45559" stroke-miterlimit="10"/>
    <path d="M10.2296 1L7.80518 4.58205H12.6648L10.2296 1Z" fill="#FBBC05"/>
    <path d="M11.4498 1L9.02002 5.17905H13.8796L11.4498 1Z" stroke="#474747" stroke-width="0.45559" stroke-miterlimit="10"/>
    <path d="M1.02854 31.1835L0 32.1914L0.393264 32.5768L1.4218 31.5689L1.02854 31.1835Z" fill="#333333"/>
    <path d="M2.93674 29.3241L1.9082 30.332L2.30147 30.7174L3.33001 29.7095L2.93674 29.3241Z" fill="#333333"/>
    <path d="M2.2961 31.181L1.90283 31.5664L2.93137 32.5743L3.32464 32.1889L2.2961 31.181Z" fill="#333333"/>
    <path d="M0.398148 29.3119L0.00488281 29.6973L1.03342 30.7052L1.42669 30.3198L0.398148 29.3119Z" fill="#333333"/>
    <path d="M33.7395 5.85732L32.7109 6.86523L33.1042 7.25061L34.1327 6.2427L33.7395 5.85732Z" fill="#333333"/>
    <path d="M35.6472 3.99795L34.6187 5.00586L35.0119 5.39124L36.0405 4.38333L35.6472 3.99795Z" fill="#333333"/>
    <path d="M35.0065 5.85486L34.6133 6.24023L35.6418 7.24815L36.0351 6.86277L35.0065 5.85486Z" fill="#333333"/>
    <path d="M33.1091 3.98572L32.7158 4.37109L33.7444 5.379L34.1376 4.99363L33.1091 3.98572Z" fill="#333333"/>
    <path d="M37.5191 30.7357C38.3596 28.7856 38.7852 26.7097 38.7852 24.5814C38.7852 22.4531 38.3596 20.3773 37.5191 18.4272C36.7105 16.54 35.5508 14.8521 34.0825 13.3948C32.6036 11.9375 30.8906 10.8052 28.9755 10.0084C26.9965 9.18011 24.8899 8.76074 22.73 8.76074C19.6977 8.76074 16.7399 9.59948 14.1758 11.1931C13.0054 11.9165 11.9415 12.7867 11.0052 13.7827C10.0689 14.7682 9.26028 15.8795 8.60062 17.0747L8.47294 17.3054L5.75984 16.7183C5.73856 16.7183 5.71729 16.7078 5.69601 16.7078C5.60025 16.7078 5.50449 16.7497 5.44066 16.8336C5.36618 16.928 5.35554 17.0643 5.40874 17.1691L9.06876 24.3613C9.11132 24.4451 9.19644 24.5081 9.29219 24.529C9.31347 24.529 9.33475 24.5395 9.35603 24.5395C9.43051 24.5395 9.50499 24.5185 9.55819 24.4661L15.8462 19.3393C15.942 19.2659 15.9845 19.1401 15.9526 19.0248C15.9207 18.9095 15.8249 18.8151 15.7079 18.7941L13.4523 18.3224L13.7928 17.882C15.9313 15.1037 19.1977 13.5101 22.7407 13.5101C25.741 13.5101 28.5605 14.6634 30.6885 16.7497C32.8057 18.8361 33.9761 21.6249 33.9761 24.5814C33.9761 27.538 32.8057 30.3163 30.6885 32.4132C28.5712 34.4995 25.741 35.6528 22.7407 35.6528C19.2509 35.6528 16.0164 34.0906 13.8672 31.3752C13.5906 31.0292 13.2182 30.7567 12.7926 30.5994C12.5266 30.505 12.25 30.4526 11.9627 30.4526C11.7925 30.4526 11.6329 30.4736 11.4733 30.505C10.6541 30.6728 9.99441 31.2389 9.70714 32.0148C9.41987 32.7906 9.55819 33.6398 10.0689 34.2898C10.803 35.2229 11.6435 36.0722 12.5692 36.8165C13.4948 37.5714 14.5056 38.2214 15.5802 38.7456C16.6761 39.2803 17.8252 39.6997 19.0062 39.9723C20.2297 40.2554 21.4852 40.4021 22.7513 40.4021C24.9218 40.4021 27.0178 39.9828 28.9968 39.1545C30.9119 38.3577 32.6249 37.2149 34.1038 35.7681C35.5508 34.3108 36.7105 32.6124 37.5191 30.7357Z" fill="#FBBC05"/>
    <path d="M36.2629 29.97C37.1346 27.9804 37.5704 25.8687 37.5704 23.6913C37.5704 21.5139 37.1346 19.4022 36.2629 17.4125C35.4202 15.4886 34.2289 13.771 32.6986 12.2882C31.1682 10.8053 29.3958 9.64153 27.4102 8.83439C25.3569 7.98972 23.1776 7.56738 20.9306 7.56738C17.7827 7.56738 14.7221 8.42144 12.0682 10.0451C10.8575 10.7865 9.75339 11.6687 8.77514 12.6824C7.7969 13.696 6.96394 14.8222 6.28595 16.0329L6.16003 16.2675L3.34153 15.695C3.32216 15.695 3.2931 15.6856 3.27373 15.6856C3.16719 15.6856 3.07033 15.7326 3.01222 15.8077C2.93473 15.9015 2.92505 16.0423 2.98316 16.1455L6.77991 23.4754C6.82834 23.5599 6.90582 23.6256 7.01237 23.6444C7.03174 23.6444 7.06079 23.6537 7.08017 23.6537C7.15765 23.6537 7.23513 23.6256 7.29325 23.5787L13.8117 18.3511C13.9085 18.276 13.9569 18.1446 13.9182 18.0226C13.8891 17.9006 13.7923 17.8067 13.6664 17.7879L11.3225 17.3093L11.6711 16.8682C13.8891 14.0338 17.2694 12.4102 20.9499 12.4102C24.059 12.4102 26.9841 13.5833 29.1827 15.7138C31.3813 17.8443 32.592 20.6786 32.592 23.6913C32.592 26.704 31.3813 29.5383 29.1827 31.6688C26.9841 33.7992 24.059 34.9724 20.9499 34.9724C17.3275 34.9724 13.9763 33.3863 11.7486 30.6082C11.4581 30.2516 11.0803 29.9794 10.6348 29.8199C10.3539 29.726 10.073 29.6697 9.77276 29.6697C9.59842 29.6697 9.43376 29.6885 9.25942 29.7166C8.40709 29.8856 7.7291 30.4674 7.42885 31.2558C7.12859 32.0442 7.27388 32.9076 7.7969 33.574C8.55237 34.5219 9.42408 35.3853 10.383 36.1455C11.3418 36.9151 12.3976 37.5721 13.5017 38.1071C14.6349 38.6514 15.8263 39.0737 17.0563 39.3647C18.3155 39.6556 19.623 39.8058 20.9402 39.8058C23.1873 39.8058 25.3666 39.3835 27.4199 38.5388C29.4055 37.7223 31.1779 36.5679 32.7082 35.085C34.2289 33.6115 35.4299 31.894 36.2629 29.97Z" stroke="#474747" stroke-width="0.607453" stroke-miterlimit="10"/>
</svg>
