<svg xmlns="http://www.w3.org/2000/svg" xmlns:xlink="http://www.w3.org/1999/xlink" width="214" height="166" viewBox="0 0 214 166">
    <defs>
        <path id="o4g582rgoa" d="M0 0.4L94.551 0.4 94.551 124.5 0 124.5z"/>
        <path id="wv1ua8x5pd" d="M0 0.02L4.98 0.02 4.98 5 0 5z"/>
        <path id="616trahveg" d="M146.352.168c-2.259 0-4.615.187-7.07.582-26.253 4.225-33.609 23.316-40.903 36.212-10.478 18.524-21.752 22.304-42.227 19.346-20.475-2.958-35.636-2.384-46.343 5.538-8.501 6.29-15.211 23.107-3.606 43.912 14.966 26.83 40.738 36.508 58.368 40.346 21.853 4.758 54.78 2.264 76.277-10.436 18.72-11.06 34.307-29.21 41.724-53.551 3.193-10.482 4.595-19.816 4.606-28.636v-.21c-.01-7.424-1.004-14.485-2.745-21.563C180.971 17.625 168.27.178 146.384.168"/>
        <path id="sxbtr1aiyi" d="M146.352.168c-2.259 0-4.615.187-7.07.582-26.253 4.225-33.609 23.316-40.903 36.212-10.478 18.524-21.752 22.304-42.227 19.346-20.475-2.958-35.636-2.384-46.343 5.538-8.501 6.29-15.211 23.107-3.606 43.912 14.966 26.83 40.738 36.508 58.368 40.346 21.853 4.758 54.78 2.264 76.277-10.436 18.72-11.06 34.307-29.21 41.724-53.551 3.193-10.482 4.595-19.816 4.606-28.636v-.21c-.01-7.424-1.004-14.485-2.745-21.563C180.971 17.625 168.27.178 146.384.168h-.032z"/>
        <path id="g809f7uy7k" d="M.058.176l8.38.014C5.737 1.32 2.932 2.328.052 3.216L.058.176z"/>
        <path id="w9wydm57hm" d="M146.352.168c-2.259 0-4.615.187-7.07.582-26.253 4.225-33.609 23.316-40.903 36.212-10.478 18.524-21.752 22.304-42.227 19.346-20.475-2.958-35.636-2.384-46.343 5.538-8.501 6.29-15.211 23.107-3.606 43.912 14.966 26.83 40.738 36.508 58.368 40.346 21.853 4.758 54.78 2.264 76.277-10.436 18.72-11.06 34.307-29.21 41.724-53.551 3.193-10.482 4.595-19.816 4.606-28.636v-.21c-.01-7.424-1.004-14.485-2.745-21.563C180.971 17.625 168.27.178 146.384.168h-.032z"/>
        <path id="d1tc3t6peo" d="M0.365 0.256L9.588 0.27 9.558 19.149 0.335 19.134z"/>
        <filter id="hldf5lzzec">
            <feColorMatrix in="SourceGraphic" values="0 0 0 0 0.830673 0 0 0 0 0.830673 0 0 0 0 0.830673 0 0 0 1.000000 0"/>
        </filter>
        <filter id="j03mi7n8zf">
            <feColorMatrix in="SourceGraphic" values="0 0 0 0 0.918280 0 0 0 0 0.918280 0 0 0 0 0.918280 0 0 0 1.000000 0"/>
        </filter>
        <filter id="4kcwd1hoaq">
            <feColorMatrix in="SourceGraphic" values="0 0 0 0 0.917647 0 0 0 0 0.917647 0 0 0 0 0.917647 0 0 0 1.000000 0"/>
        </filter>
    </defs>
    <g fill="none" fill-rule="evenodd">
        <g>
            <g>
                <g>
                    <g>
                        <g>
                            <g fill="#F3F3F3" opacity=".65">
                                <path d="M7.327 117.004c16.47 29.694 44.835 40.404 64.237 44.652 24.05 5.266 60.288 2.505 83.947-11.55 20.602-12.24 37.757-32.328 45.92-59.268 6.503-21.465 6.255-38.586 2.049-55.789C199.274 17.847 182.68-3.89 153.788.786S116.8 26.59 108.772 40.863C97.24 61.366 84.832 65.55 62.299 62.275c-22.534-3.273-39.22-2.639-51.003 6.128-9.357 6.962-16.741 25.574-3.97 48.6" transform="translate(-81 -445) translate(0 383) translate(81 62) translate(0 .2)"/>
                            </g>
                            <path fill="#D3D3D3" d="M78.616 134.397c34.571 0 62.597 2.734 62.597 6.108 0 3.372-28.026 6.106-62.597 6.106-34.572 0-62.598-2.734-62.598-6.106 0-3.374 28.026-6.108 62.598-6.108" opacity=".8" transform="translate(-81 -445) translate(0 383) translate(81 62) translate(0 .2)"/>
                        </g>
                        <g>
                            <g transform="translate(-81 -445) translate(0 383) translate(81 62) translate(21 11) translate(0 .1)">
                                <mask id="h4b4l7vl2b" fill="#fff">
                                    <use xlink:href="#o4g582rgoa"/>
                                </mask>
                                <path fill="#DBDBDB" d="M10.89 124.425l72.67.075c6.01.006 10.906-4.878 10.912-10.89l.08-76.788-25.435-.027c-6.011-.006-10.896-4.9-10.89-10.911L58.254.449 11.018.399C5.007.395.112 5.28.106 11.29L0 113.513c-.006 6.01 4.879 10.905 10.89 10.912" mask="url(#h4b4l7vl2b)"/>
                            </g>
                            <path fill="#DBDBDB" d="M69.124 29.628l23.306.025L65.52 2.685l-.024 23.306c-.003 2.005 1.625 3.635 3.63 3.637" transform="translate(-81 -445) translate(0 383) translate(81 62) translate(21 11)"/>
                            <path fill="#C9C9C9" d="M76.86 100.77l-61.85-.065c-1.415-.001-2.56-1.149-2.56-2.563.002-1.415 1.15-2.56 2.565-2.559l61.85.064c1.415.002 2.56 1.15 2.559 2.564-.001 1.415-1.149 2.56-2.564 2.558M76.846 111.353l-61.851-.064c-1.415-.002-2.56-1.15-2.559-2.564.002-1.414 1.15-2.56 2.564-2.558l61.85.064c1.416.001 2.56 1.15 2.56 2.564-.002 1.414-1.15 2.559-2.564 2.558" transform="translate(-81 -445) translate(0 383) translate(81 62) translate(21 11)"/>
                            <path fill="#EC2A2A" d="M68.495 62.594c-.006 11.46-9.3 20.746-20.761 20.74-11.46-.006-20.746-9.301-20.74-20.762.006-11.46 9.3-20.745 20.761-20.74 11.46.006 20.746 9.301 20.74 20.762" transform="translate(-81 -445) translate(0 383) translate(81 62) translate(21 11)"/>
                            <path fill="#FFF" d="M38.765 73.36c-.423 0-.846-.16-1.17-.481-.658-.647-.665-1.704-.018-2.36l17.959-18.217c.647-.657 1.704-.662 2.36-.015.657.647.663 1.703.017 2.36L39.954 72.863c-.327.331-.758.498-1.189.498" transform="translate(-81 -445) translate(0 383) translate(81 62) translate(21 11)"/>
                            <path fill="#FFF" d="M56.712 73.37c-.43 0-.862-.167-1.188-.499l-17.94-18.234c-.645-.658-.638-1.715.02-2.36.657-.646 1.714-.64 2.36.017L57.903 70.53c.646.657.638 1.714-.02 2.36-.325.32-.748.482-1.17.481" transform="translate(-81 -445) translate(0 383) translate(81 62) translate(21 11)"/>
                        </g>
                    </g>
                    <g>
                        <g filter="url(#hldf5lzzec)" transform="translate(-81 -445) translate(0 383) translate(81 62) translate(26 11)">
                            <g>
                                <g transform="translate(124 7)">
                                    <mask id="r0p6hl20qe" fill="#fff">
                                        <use xlink:href="#wv1ua8x5pd"/>
                                    </mask>
                                    <path fill="#00BE00" d="M0 2.51C0 3.885 1.115 5 2.49 5c1.375 0 2.49-1.115 2.49-2.49C4.98 1.135 3.865.02 2.49.02 1.115.02 0 1.135 0 2.51" mask="url(#r0p6hl20qe)"/>
                                </g>
                                <path fill="#00BE00" d="M20 2.5C20 3.88 21.12 5 22.5 5 23.881 5 25 3.88 25 2.5S23.881 0 22.5 0C21.12 0 20 1.12 20 2.5M10 2.5C10 3.88 11.119 5 12.5 5 13.88 5 15 3.88 15 2.5S13.88 0 12.5 0C11.119 0 10 1.12 10 2.5" transform="translate(124 7)"/>
                            </g>
                        </g>
                        <g filter="url(#j03mi7n8zf)" transform="translate(-81 -445) translate(0 383) translate(81 62) translate(26 11)">
                            <g fill="#EFEFEF">
                                <path d="M26.651 37.83L6.585 36.004C2.602 35.64-.332 32.118.03 28.135c.363-3.983 3.886-6.917 7.869-6.554l20.066 1.827c3.982.363 6.917 3.886 6.554 7.868-.363 3.983-3.885 6.917-7.868 6.555" transform="translate(87.104 39.836)"/>
                                <path d="M32.072 9.242L12.134 32.347c-3.17 2.318-7.617 1.627-9.935-1.542-2.317-3.17-1.626-7.617 1.543-9.934l27.07-16.666 1.26 5.037z" transform="translate(87.104 39.836)"/>
                                <path d="M30.533 4.727L37.207 0l.811 8.19s-4.337 2.204-6.667.855l-.818-4.318z" transform="translate(87.104 39.836)"/>
                            </g>
                        </g>
                        <g transform="translate(-81 -445) translate(0 383) translate(81 62) translate(26 11) translate(0 .182)">
                            <mask id="wufh8tbwyh" fill="#fff">
                                <use xlink:href="#616trahveg"/>
                            </mask>
                            <path fill="#EFEFEF" d="M129.766 42.555l.114 2.167c.071 1.373-.917 2.573-2.278 2.767l-2.478.354-.813-8.189 3.14.405c1.273.164 2.247 1.215 2.315 2.496" mask="url(#wufh8tbwyh)"/>
                        </g>
                        <g transform="translate(-81 -445) translate(0 383) translate(81 62) translate(26 11) translate(0 .182)">
                            <mask id="fk5nnlxvoj" fill="#fff">
                                <use xlink:href="#sxbtr1aiyi"/>
                            </mask>
                            <path fill="#B2B2B2" d="M113.23 117.72s-7.533 36.926-10.417 55.138c-3.245 20.41-11.79 57.693-11.79 57.693L102 234.883s15.743-38.16 17.958-56.648c6.606-15.018 19.766-59.223 19.766-59.223l-26.494-1.291z" mask="url(#fk5nnlxvoj)"/>
                        </g>
                        <g transform="translate(-81 -445) translate(0 383) translate(81 62) translate(26 11) translate(123.484 140.108)">
                            <mask id="c877ifbtpl" fill="#fff">
                                <use xlink:href="#g809f7uy7k"/>
                            </mask>
                            <path fill="#000" d="M5.819.186C1.67 5.308.012 18.379.01 29.276c2.806-7.689 6.024-17.493 8.856-26.323L5.819.186z" mask="url(#c877ifbtpl)"/>
                        </g>
                        <g transform="translate(-81 -445) translate(0 383) translate(81 62) translate(26 11) translate(0 .182)">
                            <mask id="f36a2edcun" fill="#fff">
                                <use xlink:href="#w9wydm57hm"/>
                            </mask>
                            <path fill="#B2B2B2" d="M123.973 118.203s4.85 41.168 5.86 55.985c1.405 20.624 6.902 61.345 6.902 61.345l11.794.02s1.33-41.578-.77-60.08c2.963-16.135 2.1-55.988 2.1-55.988l-25.886-1.282z" mask="url(#f36a2edcun)"/>
                        </g>
                        <g fill="#C6C6C6">
                            <path d="M21.254 15.344C15.1 22.334.328 19.693.328 19.693l.843-17.44C6.238 1.149 11.403.558 16.59.49c8.675-.002 9.588 9.246 4.663 14.854" transform="translate(-81 -445) translate(0 383) translate(81 62) translate(26 11) translate(111 60.182)"/>
                        </g>
                        <g fill="#C6C6C6">
                            <path d="M4.872 9.952c-.37 2.814-.772 6.603-1.017 11.702C.625 37.856-.588 49.338 2.229 57.721c2.234 2.765 31.387 2.28 36.63 1.756 3.056-7.528 3.41-29.155 3.798-47.333.102-5.177-3.594-9.65-8.695-10.531C27.402.44 20.71.205 14.087.912c-4.786.536-8.589 4.267-9.215 9.04" transform="translate(-81 -445) translate(0 383) translate(81 62) translate(26 11) translate(111 60.182)"/>
                        </g>
                        <g transform="translate(-81 -445) translate(0 383) translate(81 62) translate(26 11) translate(143.773 80.99)">
                            <mask id="xqyhi9xo7p" fill="#fff">
                                <use xlink:href="#d1tc3t6peo"/>
                            </mask>
                            <path fill="#B2B2B2" d="M.365.255c.09 5.54 4.093 14.396 8.606 18.894.281-4.68.465-9.756.61-14.876L.366.255z" mask="url(#xqyhi9xo7p)"/>
                        </g>
                        <g filter="url(#4kcwd1hoaq)" transform="translate(-81 -445) translate(0 383) translate(81 62) translate(26 11) translate(141 63.182)">
                            <g fill="#EFEFEF">
                                <path d="M26.496 28.442l-.207-.609c-.847-2.54-1.84-5.001-2.972-7.363-1.083-2.285-2.25-4.44-3.461-6.52-1.212-2.08-2.496-4.067-3.812-6.002-.669-.96-1.333-1.92-2.033-2.85l-1.053-1.385-1.122-1.419C9.396-.72 5.474-.77 2.982 2.182.489 5.134.326 10.02 2.615 13.215l.183.251 3.575 4.975c1.217 1.692 2.38 3.413 3.538 5.127.559.86 1.138 1.722 1.66 2.598.524.876 1.078 1.721 1.601 2.589.755 1.318 1.486 2.628 2.137 3.916-.1.648-.227 1.29-.381 1.923-.442 1.843-.96 3.656-1.553 5.431-.614 1.879-1.264 3.803-1.939 5.697-.674 1.894-1.397 3.871-2.042 5.772l-.06.168c-.583 1.73-.123 3.733 1.108 4.815 1.229 1.082 2.897.954 4.01-.31 1.35-1.551 2.631-3.196 3.835-4.924 1.23-1.716 2.38-3.519 3.445-5.398.545-.95 1.065-1.938 1.58-2.965.534-1.044 1.023-2.123 1.463-3.232.497-1.21.927-2.46 1.288-3.742.472-1.64.738-3.362.79-5.104.016-.81-.105-1.613-.357-2.36" transform="translate(.225 .43)"/>
                                <path d="M10.574 51.272l-6.537-.056 3.367 7.507s5.58-1.185 5.28-4.214l-2.11-3.237z" transform="translate(.225 .43)"/>
                                <path d="M.704 56.362l1.07 2.116c.596 1.17 1.983 1.692 3.202 1.208l2.428-.962-3.367-7.508L1.44 53.19c-.981.739-1.291 2.076-.735 3.172" transform="translate(.225 .43)"/>
                            </g>
                        </g>
                        <g fill="#C6C6C6">
                            <path d="M9.479.713c10.262 1.775 16.928 15.68 16.928 15.68l-12.395 13.29S6.894 22.412 2.621 15.678C-1.986 8.35 2.129-.547 9.479.713" transform="translate(-81 -445) translate(0 383) translate(81 62) translate(26 11) translate(136 61.182)"/>
                        </g>
                        <g fill="#253B64">
                            <path d="M2.764 16.664C1.049 13.777.492 9.812 3.649 5.776 2.395 5.931 1.167 5.333.516 4.25 3.97 1.433 8.31-.07 12.766.007c9.209.015 9.888 3.57 9.572 5.997 6.3.414 10.87 16.804-5.107 19.678-9.124-9.641-14.467-9.018-14.467-9.018" transform="translate(-81 -445) translate(0 383) translate(81 62) translate(26 11) translate(124 25.182)"/>
                        </g>
                        <g fill="#253B64">
                            <path d="M.76 5.93S3.327 3.315.144.145C1.6.544 2.737 1.679 3.137 3.134 3.584 4.974 2.341 6.449.76 5.93" transform="translate(-81 -445) translate(0 383) translate(81 62) translate(26 11) translate(145 26.182)"/>
                        </g>
                        <g fill="#E5E5E5">
                            <path d="M15.2.793c-.251 5.045-.718 10.781.121 14.809-1.313 2.06-4.665 4.429-10.662 4.951C2.53 19.34-.28 16.375.704 14.855 3.255 13.222 4.344 8.27 3.62 4.564L15.2.793z" transform="translate(-81 -445) translate(0 383) translate(81 62) translate(26 11) translate(127 46.182)"/>
                        </g>
                        <g fill="#EFEFEF">
                            <path d="M19.74 11.696c-1.615 6.184-2.247 9.888-6.04 12.478C7.994 28.068.833 23.682.562 17.144.328 11.254 3.007 2.127 9.629.836c2.965-.59 6.023.399 8.083 2.61 2.06 2.213 2.826 5.335 2.028 8.25" transform="translate(-81 -445) translate(0 383) translate(81 62) translate(26 11) translate(125 29.182)"/>
                        </g>
                        <g fill="#253B64">
                            <path d="M3.476.837c-2.72 1.928-6.105 10.11.738 13.409C10.372 8.853 8.794.845 3.476.836" transform="translate(-81 -445) translate(0 383) translate(81 62) translate(26 11) translate(140 31.182)"/>
                        </g>
                        <g fill="#253B64">
                            <path d="M17.042 5.82C18.214.436 4.62-2.372.303 3.915c-1.467 3.787 15.908 7.163 16.739 1.907" transform="translate(-81 -445) translate(0 383) translate(81 62) translate(26 11) translate(128 27.182)"/>
                        </g>
                        <g fill="#EFEFEF">
                            <path d="M7.213 5.463c-1.105 1.17-2.628 1.853-4.235 1.904-2.13.041-2.667-1.99-1.637-3.725C2.27 2.122 4.497.178 6.429.958c1.93.778 2.125 3.055.784 4.505" transform="translate(-81 -445) translate(0 383) translate(81 62) translate(26 11) translate(139 42.182)"/>
                        </g>
                        <g fill="#253B64">
                            <path d="M.248 1.18s.328.855 1.108 1.276c.78.42 2.038.285 1.985-.013-.054-.297-1.162-.568-1.448-.686C1.607 1.64.348.502.248 1.181" transform="translate(-81 -445) translate(0 383) translate(81 62) translate(26 11) translate(136 38.182)"/>
                        </g>
                        <g fill="#253B64">
                            <path d="M.61.437s.539.68 1.362.839c.822.16 1.92-.318 1.789-.571C3.628.45 2.55.519 2.26.494 1.968.468.51-.204.61.437" transform="translate(-81 -445) translate(0 383) translate(81 62) translate(26 11) translate(128 37.182)"/>
                        </g>
                        <g stroke="#253B64" stroke-linecap="round" stroke-linejoin="round" stroke-width=".847">
                            <path d="M2.525.95C2.365 1.575 1.2 2.86.61 3.21c-.59.349.266 1.237.519 1.552" transform="translate(-81 -445) translate(0 383) translate(81 62) translate(26 11) translate(130 41.182)"/>
                        </g>
                        <g fill="#253B64">
                            <path d="M.44 1.5S2.696-.08 4.22.94s-.28 1.008-.703.899c-.424-.11-2.762.193-2.762.193S.332 1.923.441 1.5" transform="translate(-81 -445) translate(0 383) translate(81 62) translate(26 11) translate(129 48.182)"/>
                        </g>
                        <g fill="#253B64">
                            <path d="M2.252 1.34c-.12.468-.598.75-1.066.63-.468-.12-.75-.598-.63-1.066.12-.469.598-.75 1.066-.63.468.12.75.598.63 1.066" transform="translate(-81 -445) translate(0 383) translate(81 62) translate(26 11) translate(128 39.182)"/>
                        </g>
                        <g fill="#253B64">
                            <path d="M1.882 1.302c-.12.468-.597.75-1.066.63-.468-.12-.75-.598-.63-1.066.12-.468.598-.75 1.066-.63.469.12.75.598.63 1.066" transform="translate(-81 -445) translate(0 383) translate(81 62) translate(26 11) translate(136 41.182)"/>
                        </g>
                    </g>
                </g>
            </g>
        </g>
    </g>
</svg>
