<svg xmlns="http://www.w3.org/2000/svg" width="128" height="120" viewBox="0 0 128 120">
    <g fill="none" fill-rule="evenodd">
        <g fill-rule="nonzero">
            <g transform="translate(-124 -223) translate(124 223)">
                <path fill="#F2F2F2" d="M.39 85.456c-3.78 28.903 37.097 40.802 70.365 31.245 21.217-6.096 67.73-33.793 46.146-60.799-5.198-6.501-13.108-7.727-16.861-15.876-2.33-5.048-1.492-10.863-2.832-16.112C92.494 5.484 71.11-.766 55.198 8.262c-17.974 10.19-14.47 23.547-24.302 38.442C21.124 61.49 3.014 65.387.391 85.456z"/>
                <path fill="#2DBB54" d="M45.99 53.9H16.38c-.675-.033-1.206-.59-1.206-1.266 0-.677.53-1.234 1.206-1.267h29.61c.468-.023.91.214 1.15.615.24.401.24.902 0 1.303-.24.402-.682.638-1.15.615zM45.99 61.49H29.282c-.676-.032-1.207-.59-1.207-1.266s.531-1.234 1.207-1.266H45.99c.468-.023.91.213 1.15.614.24.402.24.903 0 1.304s-.682.637-1.15.615zM126.687 74.646h-1.286v-1.247c0-.56-.454-1.015-1.014-1.015s-1.015.454-1.015 1.015v1.256h-1.253c-.375-.02-.73.168-.924.49-.194.321-.194.724 0 1.046.194.322.55.51.924.49h1.253v1.286c0 .56.454 1.014 1.015 1.014.56 0 1.014-.454 1.014-1.014V76.68h1.286c.375.02.73-.168.924-.49.194-.322.194-.725 0-1.046-.193-.322-.549-.51-.924-.49v-.01zM5.299 39.018h1.286V37.76c0-.56.454-1.014 1.014-1.014s1.015.454 1.015 1.014v1.257h1.253c.375-.02.73.168.924.49.194.321.194.724 0 1.046-.193.321-.549.51-.924.49H8.614v1.286c0 .56-.454 1.014-1.015 1.014-.56 0-1.014-.454-1.014-1.014v-1.286H5.299c-.375.02-.73-.169-.924-.49-.194-.322-.194-.725 0-1.046.193-.322.549-.51.924-.49zM11.759 27.587c0-1.508 1.222-2.73 2.73-2.73s2.73 1.222 2.73 2.73-1.222 2.73-2.73 2.73c-1.507-.001-2.729-1.223-2.73-2.73zm1.906 0c0 .335.2.637.51.766.308.129.664.058.901-.178.237-.237.307-.593.179-.903-.129-.309-.431-.51-.766-.508-.454.001-.822.369-.824.823z"/>
                <path fill="#2DBB54" stroke="#236DF0" stroke-width=".69" d="M116.411 55.386c0-1.508 1.223-2.73 2.73-2.73 1.508 0 2.73 1.222 2.73 2.73s-1.222 2.73-2.73 2.73c-1.506-.003-2.726-1.223-2.73-2.73h0zm1.907 0c-.001.335.2.637.509.766s.665.058.902-.179c.237-.236.307-.592.178-.902-.128-.309-.43-.51-.766-.508-.454.001-.821.369-.823.823h0z"/>
                <path fill="#E5E5E5" d="M11.47 103.608V78.393h14.822c.907.002 1.641.737 1.641 1.644v33.588c0 .906-.734 1.642-1.64 1.644H11.468v-4.139"/>
                <path fill="#2DBB54" d="M26.292 116.25H11.47c-.544 0-.984-.44-.984-.984v-4.136c0-.544.44-.984.984-.984s.985.44.985.984v3.145h13.838c.363 0 .657-.294.657-.656V80.037c0-.363-.294-.657-.657-.66H12.454v24.231c0 .544-.44.985-.985.985-.544 0-.984-.44-.984-.985V78.393c0-.544.44-.984.984-.984h14.823c1.45.003 2.624 1.178 2.626 2.628v33.588c-.002 1.449-1.176 2.624-2.626 2.625z"/>
                <path fill="#FFF" d="M80.518 20.698l25.15.018c.852 0 1.67.339 2.272.942.603.603.941 1.421.94 2.274l-.044 62.389c-.003 1.773-1.44 3.209-3.214 3.21l-44.988-.02c-.852 0-1.67-.34-2.273-.943-.603-.603-.94-1.421-.94-2.274l.045-62.389c.003-1.773 1.44-3.209 3.213-3.21h9.748"/>
                <path fill="#2DBB54" d="M105.622 90.728l-44.99-.024c-1.17 0-2.292-.466-3.118-1.294-.826-.827-1.29-1.95-1.29-3.119l.045-62.389c.004-2.433 1.976-4.405 4.41-4.407h9.748c.426 0 .82.228 1.033.597.214.37.214.824 0 1.194-.213.369-.607.596-1.033.596h-9.745c-1.114 0-2.017.903-2.017 2.017l-.045 62.386c0 .536.212 1.05.59 1.428.378.38.892.592 1.427.592l44.988.03c1.113 0 2.016-.901 2.017-2.014l.045-62.389c-.002-1.114-.903-2.017-2.017-2.02l-25.152-.018c-.66 0-1.194-.534-1.194-1.193 0-.66.535-1.194 1.194-1.194l25.152.018c1.17.001 2.292.467 3.119 1.295.826.828 1.29 1.951 1.288 3.121l-.045 62.386c-.006 2.431-1.978 4.4-4.41 4.4z"/>
                <path fill="#E5E5E5" d="M96.301 64.668l-24.615-.018c-1.172 0-2.121.95-2.121 2.122 0 1.171.95 2.121 2.121 2.121l24.615.018c1.172 0 2.122-.95 2.122-2.121 0-1.172-.95-2.122-2.122-2.122zM96.295 73.995c-1.171-.001-2.122.947-2.124 2.119-.002 1.171.947 2.122 2.118 2.124 1.172.002 2.123-.947 2.125-2.118 0-1.171-.948-2.121-2.119-2.125zM87.443 73.995H71.68c-.777-.029-1.509.37-1.906 1.038-.397.669-.397 1.501 0 2.17.397.67 1.129 1.067 1.906 1.038h15.763c1.171 0 2.121-.95 2.121-2.121 0-1.172-.95-2.122-2.121-2.122v-.003z"/>
                <circle cx="83.158" cy="42.691" r="13.686" fill="#E4EAEF"/>
                <path fill="#2DBB54" d="M83.15 57.442c-8.148-.007-14.747-6.616-14.74-14.763.006-8.147 6.616-14.746 14.763-14.74 8.147.007 14.746 6.617 14.74 14.763-.015 8.144-6.62 14.738-14.764 14.74zm.017-27.375c-5.106-.006-9.713 3.064-11.673 7.78-1.959 4.716-.884 10.147 2.723 13.762 3.608 3.614 9.037 4.699 13.757 2.749 4.719-1.95 7.799-6.552 7.802-11.659-.003-6.966-5.643-12.616-12.609-12.632z"/>
                <path fill="#2DBB54" d="M91.002 37.153c.564.565.564 1.479 0 2.044L81.3 48.873c-.564.563-1.479.563-2.043 0l-4.607-4.613c-.412-.352-.593-.906-.467-1.433.126-.527.537-.94 1.064-1.068.526-.128 1.08.05 1.435.46l3.58 3.58 8.67-8.652c.271-.271.638-.424 1.021-.424.383 0 .75.153 1.02.424l.03.006z"/>
                <circle cx="52.778" cy="19.185" r="17.556" fill="#E4EAEF"/>
                <path fill="#2DBB54" d="M71.516 21.835c-1.422 10.097-10.587 17.253-20.728 16.184-10.14-1.069-17.612-9.978-16.898-20.15C34.605 7.697 43.248-.081 53.438.278 63.628.637 71.704 9.003 71.701 19.2v.263m0 0c-.01.798-.07 1.596-.182 2.387M52.79 2.984c-6.55-.005-12.457 3.936-14.967 9.985-2.51 6.05-1.13 13.015 3.498 17.65 4.628 4.634 11.593 6.023 17.645 3.52 6.052-2.502 10.001-8.404 10.005-14.954-.003-8.938-7.242-16.187-16.18-16.201z"/>
                <path fill="#2DBB54" d="M47.557 23.016c.449.502.995.909 1.605 1.194.633.291 1.323.439 2.02.432 1.54-.01 2.97-.795 3.804-2.088l.018.763c.03.345.2.661.469.878.293.251.67.384 1.056.373.327-.023.653-.063.976-.12v-1.79c-.177.005-.348-.065-.469-.194-.105-.158-.155-.347-.14-.537v-9.655h1.322v-1.388h-1.32v-1.28h-2.237v1.28h-2.133v1.379h2.133v3.616c-.374-.624-.892-1.15-1.513-1.53-.665-.42-1.438-.638-2.225-.627-.883-.015-1.748.24-2.48.734-.728.499-1.313 1.178-1.698 1.972-.42.855-.633 1.796-.623 2.748-.006.72.121 1.434.376 2.107.243.638.602 1.226 1.059 1.733zm1.11-5.147c.14-.418.358-.805.641-1.142.278-.326.617-.595.997-.791.393-.202.83-.304 1.27-.299.435.001.863.104 1.251.299.413.207.79.48 1.116.808.323.321.57.71.722 1.14v2.76c-.086.301-.23.582-.427.827-.201.258-.442.483-.713.668-.264.185-.555.33-.862.43-.289.095-.59.145-.895.149-.451.005-.898-.088-1.31-.272-.4-.18-.758-.439-1.056-.76-.304-.33-.543-.715-.701-1.134-.162-.43-.244-.885-.242-1.343-.005-.455.066-.908.209-1.34zM58.215 26.352H47.38c-.647.032-1.154.565-1.154 1.213 0 .647.507 1.18 1.154 1.213h10.83c.67 0 1.212-.543 1.212-1.212 0-.669-.542-1.211-1.211-1.211l.003-.003z"/>
                <path fill="#FFF" d="M69.114 104.002c1.06-.678 1.701-1.85 1.7-3.109.002-2.036-1.645-3.689-3.681-3.694H60.27c-1.306 0-2.56-.518-3.485-1.44l-8.748-8.779c-1.54-1.54-3.628-2.405-5.806-2.405H27.909v23.357l7.409 4.475c3.079 1.866 6.61 2.852 10.21 2.853h24.308c4.517 0 8.897-1.552 12.406-4.395l8.402-6.806c.957-.774 1.54-1.918 1.604-3.147.064-1.23-.396-2.428-1.267-3.298-1.606-1.605-4.13-1.835-6-.546l-9.195 6.934"/>
                <path fill="#2DBB54" d="M69.86 116.25H45.552c-3.78.004-7.487-1.027-10.72-2.983l-7.883-4.774V83.59h15.294c2.44-.008 4.781.959 6.504 2.685l8.737 8.778c.737.74 1.741 1.155 2.786 1.152h6.863c2.077 0 3.905 1.369 4.489 3.362.583 1.993-.218 4.133-1.968 5.252-.296.208-.682.238-1.006.076-.325-.161-.534-.487-.545-.85-.012-.361.176-.7.489-.882 1.002-.653 1.458-1.885 1.122-3.033-.336-1.147-1.385-1.939-2.581-1.947H60.27c-1.567.004-3.071-.619-4.177-1.73l-8.742-8.778c-1.352-1.36-3.191-2.121-5.108-2.116H28.918v21.817l6.934 4.213c2.927 1.764 6.282 2.693 9.7 2.685H69.86c4.29-.004 8.45-1.479 11.786-4.177l8.402-6.806c.74-.598 1.19-1.482 1.24-2.431.05-.95-.305-1.876-.978-2.549-1.264-1.267-3.25-1.455-4.729-.447l-9.199 6.922c-.28.213-.654.26-.979.124-.325-.137-.553-.437-.597-.787-.044-.35.102-.696.383-.91l9.25-6.948c2.261-1.558 5.313-1.28 7.256.662 1.069 1.064 1.636 2.532 1.561 4.04-.075 1.506-.785 2.91-1.955 3.864l-8.405 6.805c-3.69 2.983-8.291 4.61-13.036 4.613z"/>
                <path fill="#2DBB54" d="M69.057 104.957H52.793c-.544 0-.984-.44-.984-.985 0-.543.44-.984.984-.984h16.264c.544 0 .985.44.985.984s-.44.985-.985.985z"/>
            </g>
        </g>
    </g>
</svg>
