<svg xmlns="http://www.w3.org/2000/svg" width="48" height="48" viewBox="0 0 48 48">
    <g fill="none" fill-rule="evenodd">
        <g>
            <g>
                <g transform="translate(-28 -484) translate(14 469) translate(14 15)">
                    <rect width="48" height="48" fill="#F2F2F2" fill-rule="nonzero" rx="14.44"/>
                    <path fill="#2DBB54" fill-rule="nonzero" d="M33.877 27.293h-.06c-2.085 6.1-8.428 9.653-14.719 8.244C12.808 34.13 8.585 28.21 9.3 21.803c.715-6.407 6.138-11.249 12.585-11.236 1.886.001 3.748.43 5.445 1.253l.128-.127c.292-.302.444-.712.42-1.131-.024-.419-.223-.809-.548-1.074-5.673-2.26-12.151-.797-16.303 3.68-4.151 4.479-5.12 11.049-2.438 16.535 2.682 5.485 8.462 8.756 14.545 8.23 6.084-.525 11.217-4.739 12.919-10.603-.634-.501-1.525-.517-2.175-.037z"/>
                    <path fill="#2DBB54" d="M35.947 24.195c.38 0 .73-.2.923-.525l5.715-5.715c.371-.374.415-.962.105-1.387l-.105-.12c-.415-.412-1.085-.412-1.5 0l-4.05 4.05v-10.8c.034-.404-.162-.792-.507-1.004-.344-.212-.78-.212-1.124 0-.344.212-.54.6-.507 1.003v10.786l-4.042-4.035c-.374-.379-.969-.424-1.395-.105l-.12.105c-.408.416-.408 1.083 0 1.5l5.692 5.692c.185.335.533.546.916.555z"/>
                    <path fill="#2DBB54" fill-rule="nonzero" d="M17.797 26.205c.352.388.778.702 1.253.923.495.233 1.036.35 1.582.345.586 0 1.162-.15 1.673-.435.528-.283.975-.696 1.297-1.2v.592c.025.268.155.516.36.69.23.196.524.3.826.293.195 0 .45-.046.75-.098V25.92c-.136.002-.267-.052-.36-.15-.085-.123-.125-.271-.113-.42v-7.545H26.1v-1.08h-.998v-.975h-1.747v.975H21.69v1.08h1.672v2.828c-.29-.49-.693-.901-1.177-1.2-.522-.326-1.125-.495-1.74-.488-.689-.01-1.364.191-1.935.578-.564.377-1.02.894-1.328 1.5-.328.666-.496 1.401-.487 2.145-.004.56.095 1.117.293 1.642.181.511.456.984.81 1.395zm.87-4.02c.219-.644.675-1.18 1.275-1.5.31-.153.652-.233.998-.233.34.004.674.09.975.248.324.158.619.371.87.63.256.249.448.555.563.893v2.152c-.066.235-.178.454-.33.645-.162.201-.351.378-.563.525-.208.143-.435.254-.675.33-.226.08-.465.12-.705.12-.35.002-.698-.07-1.02-.21-.312-.143-.592-.347-.825-.6-.24-.256-.426-.556-.547-.885-.127-.335-.191-.691-.188-1.05-.005-.362.053-.723.172-1.065zM26.122 28.808h-8.46c-.49.043-.868.455-.868.948 0 .494.377.905.869.949h8.46c.521 0 .944-.423.944-.945s-.423-.945-.945-.945v-.008z"/>
                </g>
            </g>
        </g>
    </g>
</svg>
