<svg xmlns="http://www.w3.org/2000/svg" width="48" height="48" viewBox="0 0 48 48">
    <g fill="none" fill-rule="evenodd">
        <g fill-rule="nonzero">
            <g>
                <g transform="translate(-30 -558) translate(14 469) translate(16 89)">
                    <rect width="48" height="48" fill="#F2F2F2" rx="14.44"/>
                    <path fill="#2DBB54" d="M20.468 40.252h-3.886c-3.877 0-7.035-2.745-7.035-6.12v-9c0-5.16 4.898-9.382 10.92-9.382 2.915-.044 5.74.999 7.928 2.925.244.222.35.558.28.88-.07.323-.308.583-.623.683-.314.1-.658.024-.902-.198-1.852-1.608-4.23-2.481-6.682-2.453-5.003 0-9.075 3.398-9.075 7.576v9c0 2.355 2.324 4.275 5.19 4.275h3.885c.509 0 .922.413.922.922 0 .51-.413.922-.922.922v-.03z"/>
                    <path fill="#2DBB54" d="M25.5 17.663H15.457l-3.39-7.268.218-.428c.687-1.265 1.957-2.108 3.39-2.25.712.072 1.393.33 1.973.75.294.217.614.396.952.533.177-.048.341-.135.48-.255.46-.353 1.018-.554 1.598-.577.536.017 1.056.186 1.5.487.292.209.638.328.997.345.36-.016.708-.124 1.012-.315.582-.33 1.237-.509 1.905-.518 1.194.02 2.245.794 2.618 1.928l.127.382-3.337 7.186zm-8.767-1.995h7.5l2.437-5.25c-.129-.174-.332-.276-.548-.278-.359.016-.707.124-1.012.315-.581.33-1.236.509-1.905.518-.717-.008-1.418-.222-2.017-.616-.488-.277-.525-.262-.968 0-.458.358-1.017.563-1.598.586-.711-.074-1.391-.332-1.972-.75-.308-.188-.638-.337-.982-.443-.516.101-.986.364-1.343.75l2.408 5.168zM31.77 40.185c-4.875 0-8.828-3.952-8.828-8.828 0-4.875 3.953-8.827 8.828-8.827s8.827 3.952 8.827 8.828c0 4.875-3.952 8.827-8.827 8.827zm0-16.058c-3.993 0-7.23 3.237-7.23 7.23 0 3.994 3.237 7.23 7.23 7.23 1.917.002 3.756-.758 5.112-2.112C38.238 35.12 39 33.282 39 31.365c.011-1.92-.75-3.764-2.115-5.115-1.355-1.359-3.196-2.123-5.115-2.123z"/>
                    <path fill="#2DBB54" d="M29.378 33.112c.212.228.466.412.75.54.288.136.603.205.922.203.344-.003.681-.09.982-.255.307-.166.566-.41.75-.705v.352c.019.156.097.299.218.398.135.112.305.173.48.172.113 0 .263 0 .45-.052v-.825c-.081.006-.16-.024-.218-.082-.044-.075-.065-.161-.06-.248v-4.418h.608v-.63h-.607V27h-1.02v.585h-.976v.63h.976v1.635c-.175-.286-.414-.527-.698-.705-.303-.19-.655-.289-1.012-.285-.404-.008-.8.11-1.133.338-.322.23-.58.54-.75.9-.193.391-.29.823-.285 1.26-.001.327.057.653.172.96.102.29.255.558.45.794zm.51-2.362c.062-.192.161-.37.292-.525.126-.15.282-.273.457-.36.18-.091.377-.137.578-.135.201 0 .4.05.578.142.188.095.36.22.51.368.145.15.257.329.33.525v1.26c-.038.137-.104.265-.196.375-.088.12-.197.225-.322.308-.123.082-.257.148-.398.195-.133.044-.272.067-.412.067-.206.003-.41-.038-.6-.12-.182-.084-.345-.204-.48-.352-.14-.15-.25-.326-.323-.518-.075-.196-.113-.405-.112-.615-.002-.209.031-.417.098-.615zM34.252 34.635h-4.95c-.306 0-.555.248-.555.555 0 .307.249.555.555.555h4.95c.307 0 .555-.248.555-.555 0-.307-.248-.555-.555-.555z"/>
                </g>
            </g>
        </g>
    </g>
</svg>
