<svg xmlns="http://www.w3.org/2000/svg" width="24" height="24" viewBox="0 0 24 24">
    <g fill="none" fill-rule="evenodd">
        <g fill="#000">
            <g>
                <g>
                    <path d="M9.94 18.785c.339 0 .62-.108.843-.323.223-.214.335-.483.335-.805 0-.165-.031-.32-.093-.465-.062-.145-.147-.27-.254-.378l-2.628-2.677-3.648-3.324 2.768.163h14.501c.347 0 .63-.11.85-.328.218-.22.328-.506.328-.862 0-.347-.11-.63-.329-.849-.219-.219-.502-.328-.849-.328H7.263l-2.757.165 3.637-3.326 2.628-2.677c.107-.107.192-.233.254-.378.062-.144.093-.3.093-.465 0-.33-.112-.603-.335-.818-.223-.214-.504-.322-.843-.322-.149 0-.295.031-.44.093-.144.062-.291.163-.44.304L1.34 8.906c-.265.248-.397.542-.397.88 0 .347.132.64.397.88l7.758 7.76c.257.239.537.359.843.359z" transform="translate(-16 -414) translate(0 392) translate(16 22) translate(0 2)"/>
                </g>
            </g>
        </g>
    </g>
</svg>
