<svg xmlns="http://www.w3.org/2000/svg" xmlns:xlink="http://www.w3.org/1999/xlink" width="375" height="265" viewBox="0 0 375 265">
    <defs>
        <linearGradient id="bldgxwmydb" x1="7.6%" x2="91.978%" y1="60.173%" y2="31.815%">
            <stop offset="0%" stop-color="#8896A1"/>
            <stop offset="100%" stop-color="#7E8D99"/>
        </linearGradient>
        <path id="rcdckyfz1a" d="M1 0h373c.552 0 1 .448 1 1v229c0 19.33-15.67 35-35 35H35c-19.33 0-35-15.67-35-35V1c0-.552.448-1 1-1z"/>
    </defs>
    <g fill="none" fill-rule="evenodd">
        <g>
            <g transform="translate(0 1) translate(0 -1)">
                <mask id="3jeic3710c" fill="#fff">
                    <use xlink:href="#rcdckyfz1a"/>
                </mask>
                <use fill="url(#bldgxwmydb)" xlink:href="#rcdckyfz1a"/>
                <g fill="#D6D7DE" mask="url(#3jeic3710c)">
                    <g>
                        <path d="M3 72.5c0 .828-.671 1.5-1.5 1.5S0 73.328 0 72.5C0 71.67.671 71 1.5 71s1.5.671 1.5 1.5M75 72.5c0 .828-.672 1.5-1.5 1.5-.829 0-1.5-.672-1.5-1.5 0-.829.671-1.5 1.5-1.5.828 0 1.5.671 1.5 1.5M146 72.5c0 .828-.672 1.5-1.5 1.5s-1.5-.672-1.5-1.5c0-.829.672-1.5 1.5-1.5s1.5.671 1.5 1.5M218 72.5c0 .828-.672 1.5-1.5 1.5-.829 0-1.5-.672-1.5-1.5 0-.829.671-1.5 1.5-1.5.828 0 1.5.671 1.5 1.5M289 72.5c0 .828-.672 1.5-1.5 1.5-.829 0-1.5-.672-1.5-1.5 0-.829.671-1.5 1.5-1.5.828 0 1.5.671 1.5 1.5M3 144.5c0 .828-.671 1.5-1.5 1.5s-1.5-.672-1.5-1.5.671-1.5 1.5-1.5 1.5.672 1.5 1.5M75 144.5c0 .828-.672 1.5-1.5 1.5-.829 0-1.5-.672-1.5-1.5s.671-1.5 1.5-1.5c.828 0 1.5.672 1.5 1.5M146 144.5c0 .828-.672 1.5-1.5 1.5s-1.5-.672-1.5-1.5.672-1.5 1.5-1.5 1.5.672 1.5 1.5M218 144.5c0 .828-.672 1.5-1.5 1.5-.829 0-1.5-.672-1.5-1.5s.671-1.5 1.5-1.5c.828 0 1.5.672 1.5 1.5M289 144.5c0 .828-.672 1.5-1.5 1.5-.829 0-1.5-.672-1.5-1.5s.671-1.5 1.5-1.5c.828 0 1.5.672 1.5 1.5M3 215.5c0 .828-.671 1.5-1.5 1.5s-1.5-.672-1.5-1.5.671-1.5 1.5-1.5 1.5.672 1.5 1.5M75 215.5c0 .828-.672 1.5-1.5 1.5-.829 0-1.5-.672-1.5-1.5s.671-1.5 1.5-1.5c.828 0 1.5.672 1.5 1.5M146 215.5c0 .828-.672 1.5-1.5 1.5s-1.5-.672-1.5-1.5.672-1.5 1.5-1.5 1.5.672 1.5 1.5M218 215.5c0 .828-.672 1.5-1.5 1.5-.829 0-1.5-.672-1.5-1.5s.671-1.5 1.5-1.5c.828 0 1.5.672 1.5 1.5M289 215.5c0 .828-.672 1.5-1.5 1.5-.829 0-1.5-.672-1.5-1.5s.671-1.5 1.5-1.5c.828 0 1.5.672 1.5 1.5" transform="translate(42 -7)"/>
                    </g>
                </g>
                <g stroke="#C7D2DC" mask="url(#3jeic3710c)" opacity=".236">
                    <g>
                        <path d="M22 0s29.848 52.738 103.59 43.362c82.683-10.512 118.221 50.394 97.737 91.999-20.483 41.604-111.475 50.394-98.754 117.78C137.295 320.53 26.682 351 26.682 351" transform="translate(-56 26)"/>
                        <path d="M0 61s63.105 22.795 125.893 14.612c62.789-8.183 70.132 28.605 62.789 43.251-15.235 30.393-96.685 36.238-101.959 85.334-3.964 36.906 27.54 86.502-43.947 112.803" transform="translate(-56 26)"/>
                        <path d="M27.838 84.8s64.262-8.238 52.79 28.154c-13.147 41.713-44.033 41.058-14.843 93.846C76.167 225.576 79.212 301.234 22 285.984M166 112c0 8.836-12.984 16-29 16s-29-7.164-29-16 12.984-16 29-16 29 7.164 29 16z" transform="translate(-56 26)"/>
                    </g>
                </g>
                <g stroke="#B2C0CC" mask="url(#3jeic3710c)" opacity=".279">
                    <g>
                        <path d="M162 1.44S102.557-12.4 84.6 45.732c-12.886 41.716-13.985 64.46-40.713 75.93C17.16 133.13 1.597 135.581 0 148" transform="translate(213 194)"/>
                        <path d="M70.895 148S55.32 109.514 96.422 89.404c27.744-13.575 14.736-59.66 32.718-74.329C143.4 3.443 162 28.56 162 28.56M83 159s.473-29.93 32.127-49.553c31.655-19.623 19.265-53.517 37.469-58.67C170.799 45.622 189 67.822 189 67.822" transform="translate(213 194)"/>
                    </g>
                </g>
                <path stroke="#9BB5C6" stroke-width="4" d="M48.871 255L42 261.872 35.129 255 30 260.129 36.871 267 30 273.871 35.129 279 42 272.129 48.871 279 54 273.871 47.129 267 54 260.129z" mask="url(#3jeic3710c)" opacity=".429" transform="matrix(-1 0 0 1 84 0)"/>
                <path fill="#96AAB8" d="M343.5 56.053c-21.844 0-39.553-17.709-39.553-39.553 0-21.845 17.709-39.553 39.553-39.553 21.844 0 39.553 17.708 39.553 39.553 0 21.844-17.709 39.553-39.553 39.553M343.5-63C299.594-63 264-27.406 264 16.5S299.594 96 343.5 96c43.907 0 79.5-35.594 79.5-79.5S387.407-63 343.5-63M405.332 137L383 159.332 360.668 137 344 153.668 366.332 176 344 198.332 360.668 215 383 192.668 405.332 215 422 198.332 399.668 176 422 153.668z" mask="url(#3jeic3710c)" opacity=".372"/>
            </g>
        </g>
    </g>
</svg>
