<svg xmlns="http://www.w3.org/2000/svg" xmlns:xlink="http://www.w3.org/1999/xlink" width="343" height="299" viewBox="0 0 343 299">
    <defs>
        <path id="2767b1zprc" d="M0 0.067L70 0.067 70 64 0 64z"/>
        <path id="ug9fqk5m3e" d="M0 0.029L30 0.029 30 27.429 0 27.429z"/>
        <path id="l3bsequ6hg" d="M0 0.015L16 0.015 16 14.629 0 14.629z"/>
        <rect id="p3ed8eki0a" width="343" height="297" x="0" y=".326" rx="12"/>
    </defs>
    <g fill="none" fill-rule="evenodd">
        <g>
            <g>
                <g transform="translate(-16 -255) translate(16 255) translate(0 .674)">
                    <mask id="ckn2nir1nb" fill="#fff">
                        <use xlink:href="#p3ed8eki0a"/>
                    </mask>
                    <use fill="#FFF" xlink:href="#p3ed8eki0a"/>
                    <g mask="url(#ckn2nir1nb)">
                        <g>
                            <g transform="rotate(-23 142.44 -684.778)">
                                <mask id="cao62ecmbd" fill="#fff">
                                    <use xlink:href="#2767b1zprc"/>
                                </mask>
                                <path fill="#FFC4C4" d="M58.72 61.94H11.28c-5.09 0-9.23-4.159-9.23-9.27 0-1.624.427-3.224 1.234-4.627l23.72-41.272c1.647-2.864 4.71-4.644 7.996-4.644 3.285 0 6.35 1.78 7.996 4.644l23.72 41.273c.807 1.403 1.233 3.002 1.233 4.626 0 5.111-4.14 9.27-9.228 9.27m9.772-14.927L44.772 5.741C42.76 2.24 39.016.067 35 .067s-7.76 2.174-9.772 5.674L1.508 47.013C.52 48.73 0 50.685 0 52.67 0 58.917 5.06 64 11.28 64h47.44C64.94 64 70 58.917 70 52.67c0-1.985-.521-3.94-1.507-5.657" mask="url(#cao62ecmbd)"/>
                            </g>
                            <path fill="#FFC4C4" d="M39.53 8.875C38.494 7.102 36.566 6 34.5 6c-2.066 0-3.994 1.101-5.03 2.875L18.646 27.39c-.283.484-.115 1.103.375 1.382.49.28 1.116.114 1.4-.37L31.243 9.886c.672-1.149 1.92-1.863 3.256-1.863 1.337 0 2.584.714 3.256 1.864L61.452 50.42c.331.567.5 1.189.5 1.846 0 2.046-1.686 3.71-3.756 3.71H10.804c-2.07 0-3.755-1.664-3.755-3.71 0-.657.168-1.279.5-1.846l10.823-18.515c.282-.484.115-1.103-.375-1.382-.49-.28-1.117-.114-1.4.37L5.774 49.41C5.26 50.288 5 51.25 5 52.267 5 55.428 7.604 58 10.804 58h47.392c3.2 0 5.804-2.572 5.804-5.733 0-1.017-.26-1.979-.774-2.857L39.53 8.875z" transform="rotate(-23 142.44 -684.778)"/>
                            <path fill="#FFC4C4" d="M32.077 19.387c0-1.302 1.087-2.362 2.423-2.362s2.423 1.06 2.423 2.363v18.224c0 1.303-1.087 2.363-2.423 2.363s-2.423-1.06-2.423-2.363V19.387zM34.5 42c2.481 0 4.5-1.968 4.5-4.388V19.387C39 16.968 36.981 15 34.5 15S30 16.968 30 19.387v18.225C30 40.032 32.019 42 34.5 42zM34.5 46.077c1.336 0 2.423 1.087 2.423 2.423s-1.087 2.423-2.423 2.423-2.423-1.087-2.423-2.423 1.087-2.423 2.423-2.423m0 6.923c2.481 0 4.5-2.019 4.5-4.5S36.981 44 34.5 44 30 46.019 30 48.5s2.019 4.5 4.5 4.5" transform="rotate(-23 142.44 -684.778)"/>
                        </g>
                    </g>
                    <g mask="url(#ckn2nir1nb)">
                        <g>
                            <g transform="rotate(46 82.22 336.893)">
                                <mask id="5nvry9zn7f" fill="#fff">
                                    <use xlink:href="#ug9fqk5m3e"/>
                                </mask>
                                <path fill="#FFC4C4" d="M25.166 26.546H4.834c-2.18 0-3.955-1.783-3.955-3.973 0-.696.183-1.382.528-1.983L11.573 2.902C12.28 1.674 13.592.912 15 .912s2.721.762 3.427 1.99L28.593 20.59c.345.601.528 1.287.528 1.983 0 2.19-1.774 3.973-3.955 3.973m4.188-6.397L19.188 2.46C18.326.96 16.72.03 15 .03c-1.721 0-3.326.932-4.188 2.432L.646 20.149C.223 20.884 0 21.722 0 22.573c0 2.677 2.169 4.856 4.834 4.856h20.332c2.665 0 4.834-2.179 4.834-4.856 0-.85-.223-1.689-.646-2.424" mask="url(#5nvry9zn7f)"/>
                            </g>
                            <path fill="#FFC4C4" d="M16.942 3.804c-.445-.76-1.27-1.233-2.156-1.233-.886 0-1.712.472-2.156 1.232L7.99 11.74c-.121.207-.05.472.16.592.21.12.48.049.6-.159l4.64-7.935c.287-.492.822-.798 1.395-.798.573 0 1.107.306 1.395.798L26.337 21.61c.142.243.214.51.214.791 0 .877-.723 1.59-1.61 1.59H4.631c-.888 0-1.61-.713-1.61-1.59 0-.282.072-.548.214-.79l4.639-7.936c.12-.207.049-.473-.161-.592-.21-.12-.479-.049-.6.158l-4.638 7.936c-.22.376-.332.788-.332 1.224 0 1.355 1.116 2.457 2.487 2.457h20.311c1.372 0 2.488-1.102 2.488-2.457 0-.436-.112-.848-.332-1.224L16.942 3.804z" transform="rotate(46 82.22 336.893)"/>
                            <path fill="#FFC4C4" d="M13.747 8.309c0-.558.466-1.013 1.039-1.013.572 0 1.038.455 1.038 1.013v7.81c0 .559-.466 1.013-1.038 1.013-.573 0-1.039-.454-1.039-1.012V8.309zM14.786 18c1.063 0 1.928-.843 1.928-1.88V8.309c0-1.037-.865-1.88-1.928-1.88-1.064 0-1.929.843-1.929 1.88v7.81c0 1.038.865 1.881 1.929 1.881zM14.786 19.747c.572 0 1.038.466 1.038 1.039 0 .572-.466 1.038-1.038 1.038-.573 0-1.039-.466-1.039-1.038 0-.573.466-1.039 1.039-1.039m0 2.967c1.063 0 1.928-.865 1.928-1.928 0-1.064-.865-1.929-1.928-1.929-1.064 0-1.929.865-1.929 1.929 0 1.063.865 1.928 1.929 1.928" transform="rotate(46 82.22 336.893)"/>
                        </g>
                    </g>
                    <g mask="url(#ckn2nir1nb)">
                        <g>
                            <g transform="rotate(-37 151.082 -382.01)">
                                <mask id="po8268911h" fill="#fff">
                                    <use xlink:href="#l3bsequ6hg"/>
                                </mask>
                                <path fill="#FFC4C4" d="M13.422 14.158H2.578c-1.163 0-2.11-.95-2.11-2.12 0-.37.098-.736.283-1.057l5.421-9.433C6.55.893 7.25.486 8 .486c.75 0 1.451.407 1.828 1.062l5.421 9.433c.185.321.282.687.282 1.058 0 1.168-.946 2.119-2.11 2.119m2.234-3.412l-5.421-9.434C9.774.512 8.918.015 8 .015c-.918 0-1.774.497-2.234 1.297L.345 10.746c-.226.392-.345.84-.345 1.293 0 1.428 1.157 2.59 2.578 2.59h10.844c1.421 0 2.578-1.162 2.578-2.59 0-.454-.12-.9-.345-1.293" mask="url(#po8268911h)"/>
                            </g>
                            <path fill="#FFC4C4" d="M9.036 2.029c-.237-.406-.678-.658-1.15-.658-.473 0-.913.252-1.15.658L4.262 6.26c-.065.11-.026.252.086.315.112.064.255.026.32-.084L7.14 2.26c.154-.263.44-.426.745-.426s.59.163.744.426l5.416 9.265c.076.13.114.271.114.422 0 .467-.385.848-.858.848H2.47c-.474 0-.859-.38-.859-.848 0-.15.039-.292.114-.422L4.2 7.293c.065-.11.026-.252-.085-.316-.113-.064-.256-.026-.32.085L1.32 11.294c-.118.2-.177.42-.177.653 0 .722.595 1.31 1.327 1.31h10.832c.731 0 1.327-.588 1.327-1.31 0-.233-.06-.453-.177-.653L9.036 2.029z" transform="rotate(-37 151.082 -382.01)"/>
                            <path fill="#FFC4C4" d="M7.332 4.431c0-.297.248-.54.554-.54.305 0 .554.243.554.54v4.166c0 .298-.249.54-.554.54-.306 0-.554-.242-.554-.54V4.431zM7.886 9.6c.567 0 1.028-.45 1.028-1.003V4.431c0-.553-.461-1.002-1.028-1.002s-1.029.45-1.029 1.002v4.166c0 .553.462 1.003 1.029 1.003zM7.886 10.532c.305 0 .554.248.554.554 0 .305-.249.554-.554.554-.306 0-.554-.249-.554-.554 0-.306.248-.554.554-.554m0 1.582c.567 0 1.028-.461 1.028-1.028s-.461-1.029-1.028-1.029-1.029.462-1.029 1.029.462 1.028 1.029 1.028" transform="rotate(-37 151.082 -382.01)"/>
                        </g>
                    </g>
                </g>
            </g>
        </g>
    </g>
</svg>
