<svg xmlns="http://www.w3.org/2000/svg" xmlns:xlink="http://www.w3.org/1999/xlink" width="375" height="254" viewBox="0 0 375 254">
    <defs>
        <path id="r786hi0moa" d="M1 0h373c.552 0 1 .448 1 1v218c0 19.33-15.67 35-35 35H35c-19.33 0-35-15.67-35-35V1c0-.552.448-1 1-1z"/>
    </defs>
    <g fill="none" fill-rule="evenodd">
        <g>
            <mask id="3ote8eaulb" fill="#fff">
                <use xlink:href="#r786hi0moa"/>
            </mask>
            <path fill="#FFF" fill-rule="nonzero" d="M-33.565 24.754l.29.485.153.249.345.543.395.604c1.002 1.508 2.221 3.19 3.663 5.004 4.124 5.184 9.2 10.37 15.27 15.21C7.502 63.55 34.629 72.062 68.499 67.993l1.029-.127c38.522-4.898 69.536 5.445 87.996 26.623 16.694 19.154 20.645 44.985 10.253 66.093-3.474 7.054-9.073 13.486-16.97 19.926l-.72.583-1.092.867-.738.575-.748.573-.759.573-.77.574-1.184.864-.81.58-.826.585-.845.59-.867.597-1.34.91-1.397.932-.963.634-2.013 1.307-1.59 1.016-2.236 1.412-1.77 1.106-2.498 1.544-8.732 5.343-2.775 1.712-1.997 1.246-1.928 1.214-1.86 1.185-1.204.774-1.753 1.14-1.692 1.117-1.094.732-1.069.723-1.043.714-1.52 1.056-.984.695-.96.688-1.4 1.022-.906.674-1.321 1.004-.856.664-.837.662-1.222.987-.987.82-.962.818-.377.328-.744.655-.729.655-.715.657-1.046.989-.682.662-.67.666-.659.67-.648.675-.637.68-.629.685-.62.691-.306.349-.608.702-.6.71-.298.357c-10.761 13.01-14.9 27.76-11.624 45.955l.118.643c3.16 16.737-1.023 32.105-11.454 46.104-8.696 11.671-21.461 22.046-37.223 31.163-10.844 6.274-22.46 11.585-34.074 15.958-2.814 1.06-5.49 2.01-7.994 2.854l-1.644.546-.802.261-1.228.393-1.24.387-.762.232-1.828.535-.266-.964.873-.25 1.305-.391 1.617-.503.436-.138c.779-.248 1.577-.508 2.396-.78l1.662-.56c2.25-.767 4.631-1.62 7.123-2.558 11.567-4.355 23.133-9.644 33.926-15.887 15.653-9.055 28.317-19.348 36.922-30.896 10.14-13.608 14.272-28.486 11.389-44.688l-.116-.632c-3.547-18.79.644-34.033 11.717-47.42l.604-.723.61-.713.774-.881.786-.87.319-.346.644-.686.654-.681.33-.34.67-.674.34-.335.688-.669.7-.666.713-.663.728-.662.742-.66.757-.66.773-.66.789-.661.4-.331.816-.663.833-.665.852-.667.871-.67.891-.675.912-.68.933-.684.955-.69.978-.695 1.001-.703 1.025-.71 1.049-.718 1.621-1.094 1.113-.74 1.14-.751 1.762-1.146 1.826-1.173 1.892-1.2 1.298-.816 2.007-1.252 1.378-.852 10.116-6.195 2.445-1.512 1.736-1.083 1.657-1.044 1.584-1.008 1.515-.975 1.45-.947 1.392-.92 1.336-.9 1.285-.88 1.24-.864.804-.57.787-.566.771-.562 1.131-.84.74-.558.727-.56.72-.56.71-.563.705-.566.35-.284c7.794-6.356 13.303-12.683 16.705-19.593 10.21-20.738 6.325-46.138-10.11-64.994-18.047-20.705-48.298-30.94-85.972-26.429l-1.144.141c-34.628 4.403-62.36-4.193-83.725-21.228-6.132-4.89-11.261-10.128-15.43-15.369-1.46-1.836-2.696-3.541-3.713-5.073l-.403-.616-.183-.286-.519-.842-.115-.198.87-.492zM-55.83 85.53l.783.274.914.311.852.284 1.07.35 1.137.365 1.2.377 1.264.391.656.2c2.995.908 6.172 1.816 9.515 2.71l2.254.595c3.037.789 6.203 1.565 9.486 2.318 31.634 7.26 64.004 10.288 94.275 6.692l1.315-.16.937-.12c28.49-3.713 47.846 1.488 58.135 13.23 8.022 9.155 9.543 22.009 5.166 30.74-1.594 3.18-3.77 6.072-6.726 8.885l-.582.543-.601.542-.309.27-.632.54-.323.27-.663.54-.34.269-.694.538-.716.539-.738.54-.377.27-.772.54-.394.271-.805.543-.829.545-1.069.684-1.106.689-.453.276-.924.556-.949.56-.974.563-1 .567-1.024.572-1.051.577-1.077.582-1.104.588-1.707.893-1.172.603-1.2.61-1.227.617-1.256.625-1.285.632-3.453 1.67-12.589 6.01-1.597.775-2.322 1.14-1.5.745-1.46.735-1.426.725-1.389.716-1.354.708-1.321.7-1.289.695-1.256.688-1.226.683-1.196.678-1.168.674c-.577.337-1.143.672-1.7 1.007l-1.1.668c-.906.557-1.786 1.112-2.643 1.668l-1.016.668c-.67.446-1.326.893-1.97 1.341l-.954.675c-.787.563-1.555 1.131-2.306 1.704l-.894.691c-.442.347-.88.697-1.312 1.05l-.857.708c-.284.237-.565.476-.845.716C38.514 207.1 32.52 217.15 31.221 229.25l-.07.676-.063.67-.082 1-.068.997-.052.998-.036 1.007-.016.677-.01.685v1.045l.008.71.025 1.09.026.746.032.762.063 1.178.078 1.225.061.845.144 1.766.127 1.397.195 1.97.224 2.102.254 2.25.36 3.035.89 7.23.408 3.477.148 1.35.198 1.93.123 1.283c1.535 16.579.329 28.424-5.226 39.237-6.769 13.176-19.927 23.627-41.274 31.607l-.74.274-.345-.938c21.564-7.934 34.748-18.316 41.47-31.4 5.362-10.438 6.599-21.905 5.19-37.897l-.132-1.433-.25-2.488-.3-2.677-.439-3.65-.716-5.798-.361-3.052-.256-2.262-.225-2.115-.15-1.497-.09-.96-.122-1.384-.072-.888-.095-1.286-.054-.828-.047-.807-.057-1.172-.03-.76-.021-.744-.015-.73-.008-.716-.001-.706.006-.696.013-.688.02-.682.026-.677.034-.674.063-1.008.05-.673.058-.675.064-.68.07-.685c1.33-12.375 7.455-22.647 18.03-31.737l.424-.363.86-.72c.432-.357.87-.712 1.313-1.064l.894-.7c1.202-.93 2.445-1.843 3.74-2.748l1.23-.846 1.263-.843 1.035-.672c.524-.336 1.055-.672 1.597-1.008l1.094-.672c.37-.225.743-.45 1.12-.674l1.147-.676 1.175-.679 1.816-1.025 1.884-1.036 1.295-.698 1.328-.705 1.361-.712 1.397-.72 1.432-.729 1.468-.738 1.507-.75 1.545-.76 1.585-.772 7.872-3.765 6.996-3.342 1.33-.645 1.938-.952 1.873-.934 1.81-.917 1.17-.603 1.143-.597 1.664-.883 1.075-.581 1.562-.862 1.009-.57.983-.563.958-.56.932-.556.907-.552.883-.55.433-.273.846-.545.823-.542c.27-.18.537-.36.8-.54l.776-.54.753-.537.368-.268.72-.536.352-.268.687-.535.335-.267.655-.536.634-.535c.52-.447 1.018-.895 1.495-1.344l.563-.54.543-.542c.178-.18.353-.362.524-.544l.505-.547c1.9-2.102 3.39-4.269 4.552-6.586 4.197-8.371 2.727-20.787-5.024-29.633C117.27 102.662 98.524 97.537 70.8 101l-1.786.228c-30.78 3.86-63.741.841-95.938-6.548-6.586-1.511-12.701-3.114-18.256-4.73l-2.057-.608-1.666-.504-1.881-.583-1.736-.555-1.589-.522-1.657-.565-.405-.143.34-.94zm54.81 23.68c20.924 2.537 31.614 11.484 26.125 28.894-2.575 8.172-5.887 15.09-10.383 22.362l-.687 1.096-.954 1.463-5.776 8.714-1.51 2.304-.906 1.407-.31.487-.562.91-.078.129c-.715 1.207-1.368 2.403-1.957 3.596l-.383.794c-4.918 10.46-4.851 20.783 1.59 35.991l.502 1.165c.171.391.346.786.526 1.183l.55 1.204c.189.405.38.812.577 1.224l.6 1.244.706 1.424c1.082 2.156 2.272 4.405 3.572 6.757 5.996 10.845 8.163 35.004 3.502 52.72-6.024 22.896-21.655 33.867-47.08 27.39l-.773-.201.258-.966c25.31 6.746 40.676-3.855 46.627-26.477 4.6-17.479 2.456-41.374-3.409-51.982-.292-.528-.579-1.052-.86-1.57l-.827-1.54c-12.837-24.164-13.334-37.405-4.852-52.004l.377-.639.248-.404.453-.722.94-1.464 1.6-2.443 6.062-9.148.882-1.364c4.712-7.503 8.138-14.555 10.782-22.94 5.244-16.639-4.9-25.129-25.293-27.602-7.43-.9-15.367-.88-22.831-.303l-.94.076-.883.078-.822.08-1.022.108-.46.055-.127-.992.673-.078.835-.089 1.268-.12 1.4-.115c7.525-.581 15.524-.602 23.03.308zM81 120.5c16.256 0 29.5 7.307 29.5 16.5S97.256 153.5 81 153.5c-16.255 0-29.5-7.307-29.5-16.5s13.245-16.5 29.5-16.5zm0 1c-2.556 0-5.031.184-7.386.53l-.78.12-.856.148c-.744.136-1.474.288-2.189.455l-.71.173-.798.21C58.914 125.694 52.5 130.979 52.5 137c0 5.928 6.218 11.143 15.35 13.744l.43.12.8.21c.704.178 1.424.34 2.159.487l.739.141.856.148c2.586.423 5.326.65 8.166.65 2.556 0 5.032-.184 7.386-.529l.78-.12.856-.149c11.335-2.068 19.478-7.918 19.478-14.702 0-6.698-7.938-12.485-19.049-14.622l-.429-.08-.856-.148c-2.585-.423-5.326-.65-8.166-.65zM392.986 251.518c2.5 1.964 4.795 4.068 6.837 6.172l.351.363.66.7.408.444.194.215.418.47.533.624-.774.634-.331-.391-.316-.361-.563-.626-.62-.669-.445-.467-.232-.24c-2.013-2.073-4.276-4.147-6.738-6.082-9.025-7.092-18.164-10.446-26.636-8.047-4.653 1.317-7.258 4.126-9.531 10.234l-.266.734-.132.378-.328.981-.326 1.031-.26.863-.39 1.356-.261.948-.263.983-1.502 5.666-.738 2.715-.488 1.725-.254.864-.3.98-.175.543-.344 1.017-.114.323-.126.346-.259.684-.271.685-.143.349-.3.72-.328.764-.359.826c-4.055 9.28-10.071 16.67-19.313 22.542l-.57.358c-7.54 4.674-13.689 10.17-18.576 16.319-5.714 7.189-9.435 14.891-11.557 22.592-.742 2.693-1.23 5.193-1.515 7.434-.034.26-.063.512-.09.752l-.068.692-.05.629-.031.585-.004.133-1-.016.02-.478.041-.608.06-.68c.036-.355.079-.734.13-1.135.29-2.287.788-4.833 1.543-7.574 2.156-7.825 5.936-15.648 11.738-22.949 4.793-6.03 10.78-11.439 18.073-16.07l.759-.476c9.194-5.7 15.185-12.86 19.243-21.884l.432-.982.647-1.513.422-1.035.37-.964.173-.477.286-.827.288-.886.362-1.182.392-1.352.361-1.29.848-3.134 1.451-5.482.263-.966.26-.932.262-.9.261-.868.262-.835.132-.407.265-.79.267-.758c.134-.373.27-.734.407-1.084l.276-.687c2.271-5.49 5-8.171 9.665-9.492 8.85-2.506 18.276.953 27.527 8.223zM350.548 204.5c5.494.023 11.316 3.178 17.124 8.41 2.028 1.826 3.91 3.781 5.599 5.737l.569.668.768.933.537.679.257.337-.804.595-.432-.56-.337-.424-.492-.602-.263-.315-.56-.657c-1.663-1.926-3.517-3.852-5.511-5.648-5.642-5.082-11.268-8.131-16.46-8.152-2.904-.012-5.606.939-8.087 2.963-3.424 2.793-5.871 6.877-7.701 12.473l-.175.546-.18.582-.257.866-.162.572-.158.578-.154.585-.15.596-.148.608-.218.938-.213.979-.141.678-.141.7-.212 1.1-.214 1.164-.366 2.103-.228 1.371-.483 3.025-1.012 6.515-.196 1.213-.227 1.362-.227 1.319-.287 1.588-.29 1.526-.117.593-.237 1.16-.12.566-.243 1.108-.124.541-.252 1.06-.128.519-.26 1.015c-.22.836-.449 1.643-.686 2.427l-.289.93-.299.91c-.303.9-.622 1.772-.96 2.624l-.344.846c-.175.42-.355.836-.54 1.25-3.278 7.303-7.978 12.577-14.676 15.854-12.108 5.924-19.997 13.78-24.295 23.095-4.544 9.852-4.765 20.362-2.412 30.14.313 1.301.648 2.47.983 3.485l.209.612.232.627-.926.376-.13-.341-.078-.214-.256-.747c-.344-1.04-.687-2.235-1.007-3.565-2.4-9.977-2.174-20.707 2.477-30.791 4.32-9.366 12.176-17.275 24.13-23.262l.634-.313c6.474-3.168 11.015-8.264 14.203-15.366.788-1.758 1.481-3.578 2.108-5.544l.285-.918c.14-.464.278-.937.412-1.42l.264-.977c.087-.33.173-.665.258-1.005l.251-1.033.246-1.064c.081-.36.162-.725.241-1.096l.237-1.13.233-1.167.23-1.205.227-1.244.226-1.286.338-2.01.552-3.483.66-4.28.417-2.614.39-2.342.3-1.702.22-1.19.292-1.484.219-1.048.147-.672.149-.653.228-.95.234-.922.162-.602.25-.892.262-.884.183-.59c1.901-6.047 4.491-10.47 8.198-13.494 2.66-2.17 5.588-3.2 8.724-3.189zm20.303-11.274c.336.045.662.091.977.138l.913.143.846.145.63.117.417.083.48.102-.227.974-.285-.062-.801-.158-.799-.143-.865-.142-.93-.139-.49-.067c-11.693-1.578-24.612-.859-36.776 3.82-16.585 6.377-29.025 19.28-35.656 40.181l-.627 2.037-.602 2.011-1.254 4.267-1.395 4.816-6.089 21.282-.52 1.717-.441 1.42c-.147.468-.295.931-.442 1.388l-.443 1.356-.444 1.325-.445 1.294c-.298.852-.598 1.684-.9 2.496l-.454 1.205-.228.59-.46 1.162-.464 1.133c-5.91 14.175-12.986 21.707-25.496 27.19l-.738.318-2.044.854-3.804 1.546-16.332 6.533-4.208 1.707-1.413.585-1.36.578-.814.362-.45.21-.871.42-.423.208-.82.417c-6.83 3.54-10.01 7.028-10.766 12.118l-.042.302-.992-.128c.739-5.747 4.23-9.567 11.75-13.39l.851-.425.886-.425.73-.339 1.31-.567 1.785-.744 3.21-1.307 5.786-2.321 11.801-4.718 2.755-1.117 1.686-.693 1.142-.478.494-.21c.797-.342 1.571-.692 2.325-1.05l.893-.436.874-.445c9.94-5.168 16.027-12.276 21.207-24.544l.448-1.08.444-1.106.44-1.134.448-1.189.445-1.219c.148-.41.295-.827.442-1.248l.44-1.279.439-1.31.437-1.34.437-1.373.218-.698.437-1.422.385-1.292 5.944-20.783 2.135-7.348 1.063-3.577.449-1.478.082-.266c6.669-21.588 19.418-34.93 36.46-41.483 12.345-4.747 25.424-5.475 37.27-3.877zm2.41 131.36c3.273 2.635 6.247 5.457 8.867 8.28.656.706 1.255 1.377 1.796 2.002l.621.73.492.595.359.45-.792.61-.492-.612-.333-.4c-.681-.813-1.478-1.719-2.384-2.695-2.589-2.79-5.528-5.579-8.76-8.182-10.538-8.487-21.617-13.039-32.593-11.607-9.818 1.28-15.934 6.119-19.127 13.407-1.941 4.43-2.546 9.048-2.403 12.898l.027.565.023.326-.995.096-.02-.243-.014-.251c-.215-4.077.378-9.026 2.466-13.792 3.33-7.601 9.738-12.67 19.914-13.998 11.297-1.473 22.619 3.178 33.349 11.82z" mask="url(#3ote8eaulb)" opacity=".15"/>
            <path fill="#FFF" fill-rule="nonzero" d="M48.871 237.172L42 244.043l-6.871-6.871-7.957 7.957L34.043 252l-6.871 6.871 7.957 7.957L42 259.957l6.871 6.871 7.957-7.957L49.957 252l6.871-6.871-7.957-7.957zm0 5.656l2.3 2.3-6.87 6.872 6.87 6.871-2.3 2.3-6.871-6.87-6.872 6.87-2.3-2.3 6.872-6.87-6.872-6.873 2.3-2.3L42 249.7l6.871-6.872z" mask="url(#3ote8eaulb)" opacity=".15" transform="matrix(-1 0 0 1 84 0)"/>
            <path fill="#FFF" d="M343.5 55.053c-21.844 0-39.553-17.709-39.553-39.553 0-21.845 17.709-39.553 39.553-39.553 21.844 0 39.553 17.708 39.553 39.553 0 21.844-17.709 39.553-39.553 39.553M343.5-64C299.594-64 264-28.406 264 15.5S299.594 95 343.5 95c43.907 0 79.5-35.594 79.5-79.5S387.407-64 343.5-64M405.332 136L383 158.332 360.668 136 344 152.668 366.332 175 344 197.332 360.668 214 383 191.668 405.332 214 422 197.332 399.668 175 422 152.668z" mask="url(#3ote8eaulb)" opacity=".15"/>
        </g>
    </g>
</svg>
