<svg xmlns="http://www.w3.org/2000/svg" width="20" height="20" viewBox="0 0 20 20">
    <g fill="none" fill-rule="evenodd">
        <g fill="#CECECE" fill-rule="nonzero">
            <g>
                <g>
                    <path d="M4.999 0c-.395 0-.714.32-.714.714v1.428h1.428V.714C5.713.32 5.393 0 4.999 0zM14.996 0c-.395 0-.714.32-.714.714v1.428h1.428V.714c0-.394-.32-.714-.714-.714zM17.852 2.142H15.71V5c0 .394-.32.714-.714.714-.395 0-.714-.32-.714-.714V2.142h-8.57V5c0 .394-.319.714-.713.714-.395 0-.715-.32-.715-.714V2.142H2.142C.96 2.142 0 3.102 0 4.285v13.567c0 1.183.96 2.142 2.142 2.142h15.71c1.183 0 2.142-.959 2.142-2.142V4.285c0-1.184-.959-2.143-2.142-2.143zm.714 15.71c0 .395-.32.714-.714.714H2.142c-.394 0-.714-.32-.714-.714V8.57h17.138v9.283z" transform="translate(-328 -259) translate(15 249) translate(313 10)"/>
                    <path d="M5.713 9.997H4.285c-.395 0-.715.32-.715.714 0 .395.32.714.715.714h1.428c.394 0 .714-.32.714-.714 0-.394-.32-.714-.714-.714zM10.711 9.997H9.283c-.394 0-.714.32-.714.714 0 .395.32.714.714.714h1.428c.395 0 .714-.32.714-.714 0-.394-.32-.714-.714-.714zM15.71 9.997h-1.428c-.395 0-.714.32-.714.714 0 .395.32.714.714.714h1.428c.394 0 .714-.32.714-.714 0-.394-.32-.714-.714-.714zM5.713 12.854H4.285c-.395 0-.715.32-.715.714 0 .394.32.714.715.714h1.428c.394 0 .714-.32.714-.714 0-.395-.32-.714-.714-.714zM10.711 12.854H9.283c-.394 0-.714.32-.714.714 0 .394.32.714.714.714h1.428c.395 0 .714-.32.714-.714 0-.395-.32-.714-.714-.714zM15.71 12.854h-1.428c-.395 0-.714.32-.714.714 0 .394.32.714.714.714h1.428c.394 0 .714-.32.714-.714 0-.395-.32-.714-.714-.714zM5.713 15.71H4.285c-.395 0-.715.32-.715.714 0 .394.32.714.715.714h1.428c.394 0 .714-.32.714-.714 0-.394-.32-.714-.714-.714zM10.711 15.71H9.283c-.394 0-.714.32-.714.714 0 .394.32.714.714.714h1.428c.395 0 .714-.32.714-.714 0-.394-.32-.714-.714-.714zM15.71 15.71h-1.428c-.395 0-.714.32-.714.714 0 .394.32.714.714.714h1.428c.394 0 .714-.32.714-.714 0-.394-.32-.714-.714-.714z" transform="translate(-328 -259) translate(15 249) translate(313 10)"/>
                </g>
            </g>
        </g>
    </g>
</svg>
