<svg xmlns="http://www.w3.org/2000/svg" width="32" height="32" viewBox="0 0 32 32">
    <g fill="none" fill-rule="evenodd">
        <g>
            <g>
                <g transform="translate(-59 -98) translate(59 56) translate(0 42)">
                    <circle cx="16" cy="16" r="16" fill="#FFF"/>
                    <path fill="#181A41" d="M20.396 17.543c0-2.425-1.971-4.395-4.396-4.395-2.423 0-4.396 1.97-4.396 4.395 0 2.424 1.973 4.395 4.396 4.395 2.425 0 4.396-1.97 4.396-4.395M25 13.42v8.247c0 1.098-.889 1.99-1.99 1.99H8.99c-1.098 0-1.99-.892-1.99-1.99V13.42c0-1.1.892-1.99 1.99-1.99h2.45v-.689c0-.961.78-1.741 1.742-1.741h5.64c.962 0 1.742.78 1.742 1.741v.689h2.446c1.101 0 1.99.89 1.99 1.99m-6.096 4.123c0 1.6-1.303 2.904-2.904 2.904-1.6 0-2.9-1.303-2.9-2.904s1.3-2.904 2.9-2.904c1.601 0 2.904 1.303 2.904 2.904"/>
                </g>
            </g>
        </g>
    </g>
</svg>
