<svg xmlns="http://www.w3.org/2000/svg" width="15" height="12" viewBox="0 0 15 12">
    <defs>
        <linearGradient id="oqg6bgo5ha" x1="0%" x2="100%" y1="82%" y2="18%">
            <stop offset="0%" stop-color="#08941F"/>
            <stop offset="100%" stop-color="#0EB92A"/>
        </linearGradient>
    </defs>
    <g fill="none" fill-rule="evenodd">
        <g fill="url(#oqg6bgo5ha)" transform="translate(-37 -500)">
            <g>
                <g>
                    <g>
                        <path d="M5.426 13c-.576-.002-1.126-.26-1.531-.718L.636 8.63c-.848-.95-.848-2.494 0-3.445.849-.95 2.226-.95 3.074 0l1.836 2.057 6.071-5.83c.996-.75 2.346-.451 3.014.665.555.927.477 2.158-.19 2.987l-7.603 7.302c-.388.394-.888.62-1.412.633" transform="translate(15 149) translate(18 22) translate(4 328)"/>
                    </g>
                </g>
            </g>
        </g>
    </g>
</svg>
