<svg xmlns="http://www.w3.org/2000/svg" width="12" height="15" viewBox="0 0 12 15">
    <g fill="none" fill-rule="evenodd">
        <g fill="#B71A1A" fill-rule="nonzero">
            <g>
                <g>
                    <g>
                        <g>
                            <path d="M2.985 1.295c0-.425.347-.735.79-.735h3.25c.443 0 .79.31.79.735V2.1H8.4v-.805C8.4.562 7.791 0 7.024 0H3.776C3.009 0 2.4.562 2.4 1.295V2.1h.585v-.805zM2.048 14.7h6.704c.646 0 1.148-.578 1.148-1.298V4.5h-9v8.902c0 .72.502 1.298 1.148 1.298zm5.16-8.823c0-.16.126-.289.283-.289.156 0 .283.13.283.289v6.812c0 .159-.127.288-.283.288-.157 0-.284-.129-.284-.288V5.877zm-2.091 0c0-.16.126-.289.283-.289.157 0 .283.13.283.289v6.812c0 .159-.126.288-.283.288-.157 0-.283-.129-.283-.288V5.877zm-2.091 0c0-.16.127-.289.283-.289.157 0 .284.13.284.289v6.812c0 .159-.127.288-.284.288-.156 0-.283-.129-.283-.288V5.877zM.715 3.9h9.67c.395 0 .715-.336.715-.75s-.32-.75-.715-.75H.715C.32 2.4 0 2.736 0 3.15s.32.75.715.75z" transform="translate(-327 -481) translate(15 424) translate(219 51) translate(81) translate(12 6)"/>
                        </g>
                    </g>
                </g>
            </g>
        </g>
    </g>
</svg>
