<svg xmlns="http://www.w3.org/2000/svg" width="14" height="10" viewBox="0 0 14 10">
    <g fill="none" fill-rule="evenodd">
        <g fill="#8193A1">
            <g>
                <g>
                    <g>
                        <path d="M6.85 2.822c-1.03 0-1.868.837-1.868 1.868 0 1.03.838 1.868 1.868 1.868 1.03 0 1.869-.837 1.869-1.868 0-1.03-.838-1.868-1.869-1.868z" transform="translate(-104 -484) translate(15 424) translate(17 54) translate(72 6)"/>
                        <path d="M6.85.02C3.737.02 1.077 1.955 0 4.69c1.077 2.734 3.737 4.67 6.85 4.67 3.117 0 5.773-1.936 6.85-4.67C12.624 1.956 9.968.02 6.85.02zm0 7.784c-1.719 0-3.113-1.395-3.113-3.114 0-1.719 1.394-3.114 3.113-3.114 1.72 0 3.114 1.395 3.114 3.114 0 1.719-1.395 3.114-3.114 3.114z" transform="translate(-104 -484) translate(15 424) translate(17 54) translate(72 6)"/>
                    </g>
                </g>
            </g>
        </g>
    </g>
</svg>
