<svg xmlns="http://www.w3.org/2000/svg" width="24" height="16" viewBox="0 0 24 16">
    <defs>
        <filter id="z3wncy02ta">
            <feColorMatrix in="SourceGraphic" values="0 0 0 0 0.403922 0 0 0 0 0.337255 0 0 0 0 0.839216 0 0 0 1.000000 0"/>
        </filter>
    </defs>
    <g fill="none" fill-rule="evenodd">
        <g filter="url(#z3wncy02ta)" transform="translate(-2807.000000, -7355.000000)">
            <g fill="#00BE00">
                <path d="M17.806 14.887c.17.002.32-.061.45-.191.13-.136.193-.287.19-.454-.003-.167-.066-.313-.19-.437L4.722.289C4.603.165 4.457.103 4.28.103c-.175 0-.328.062-.458.186-.113.119-.17.267-.17.446 0 .178.057.326.17.445l13.541 13.516c.125.124.272.188.442.19zm.254-2.465c.843-.554 1.563-1.138 2.16-1.752.596-.614 1.054-1.19 1.374-1.727.32-.537.48-.964.48-1.28 0-.272-.121-.63-.361-1.074-.24-.444-.587-.926-1.04-1.447-.452-.52-1.002-1.04-1.65-1.557-.648-.517-1.379-.99-2.193-1.417-.815-.427-1.704-.77-2.668-1.03-.965-.26-1.993-.39-3.085-.39-.7 0-1.37.055-2.006.165-.636.11-1.252.264-1.845.462l1.196 1.188c.418-.119.847-.214 1.285-.284.439-.07.895-.106 1.37-.106.86 0 1.69.111 2.49.335.801.223 1.548.515 2.24.874.693.359 1.323.752 1.888 1.18.566.426 1.052.848 1.46 1.263.407.416.72.786.937 1.112.218.325.327.567.327.725 0 .215-.14.526-.42.933-.28.408-.68.852-1.2 1.332-.521.481-1.138.942-1.85 1.383l1.111 1.112zm-6.983 2.163c.741 0 1.451-.062 2.13-.186.679-.125 1.332-.292 1.96-.5l-1.196-1.189c-.453.136-.92.244-1.4.323-.481.079-.979.119-1.494.119-.865 0-1.696-.108-2.494-.323-.797-.215-1.544-.498-2.24-.848-.696-.351-1.326-.736-1.892-1.154-.565-.419-1.052-.833-1.46-1.243-.406-.41-.719-.786-.937-1.129-.217-.342-.326-.606-.326-.793 0-.18.148-.48.445-.895.297-.416.721-.875 1.273-1.379.551-.503 1.206-.987 1.964-1.45L4.28 2.817C3.4 3.372 2.644 3.963 2.016 4.59 1.388 5.219.908 5.807.574 6.356c-.334.548-.5.984-.5 1.306 0 .272.12.63.364 1.073.243.444.594.927 1.052 1.447.458.52 1.013 1.038 1.663 1.553.65.514 1.384.987 2.202 1.417.817.43 1.705.776 2.664 1.039.959.263 1.978.394 3.058.394zM15.125 9.3c.113-.25.2-.512.263-.79.062-.277.093-.56.093-.848 0-.814-.198-1.554-.594-2.219-.396-.664-.926-1.192-1.59-1.582-.665-.39-1.405-.585-2.22-.585-.294 0-.578.028-.852.085-.275.056-.539.138-.793.246L15.125 9.3zm-4.048 2.757c.334 0 .652-.037.955-.11.303-.074.595-.178.878-.314L7.09 5.82c-.136.272-.24.563-.314.874-.074.311-.11.633-.11.967 0 .798.198 1.53.594 2.198.395.667.926 1.2 1.59 1.599.665.399 1.407.598 2.227.598z" transform="translate(2807.500000, 7355.208107)"/>
            </g>
        </g>
    </g>
</svg>
