<svg xmlns="http://www.w3.org/2000/svg" width="21" height="13" viewBox="0 0 21 13">
    <g fill="none" fill-rule="evenodd">
        <g fill="#0CAA26" fill-rule="nonzero">
            <g>
                <g>
                    <g>
                        <path d="M10.04 12.617c.989 0 1.925-.12 2.808-.36.882-.239 1.696-.554 2.441-.944.745-.391 1.412-.82 2-1.29.589-.468 1.09-.941 1.504-1.418.414-.476.73-.916.945-1.32.216-.403.325-.73.325-.98s-.109-.576-.325-.977c-.216-.4-.531-.84-.945-1.316-.414-.477-.917-.95-1.508-1.422s-1.259-.902-2.004-1.293c-.745-.39-1.557-.705-2.437-.942C11.964.118 11.029 0 10.039 0c-.98 0-1.907.118-2.785.355-.878.237-1.689.551-2.434.942-.744.39-1.414.821-2.008 1.293-.593.471-1.1.945-1.519 1.422-.42.476-.74.915-.961 1.316C.111 5.73 0 6.055 0 6.305s.11.577.332.98c.221.404.542.844.961 1.32.42.477.926.95 1.52 1.418.593.47 1.263.899 2.007 1.29.745.39 1.556.705 2.434.945.878.24 1.806.36 2.785.36zm0-2.242c-.761 0-1.45-.185-2.067-.555-.618-.37-1.108-.863-1.473-1.48s-.55-1.296-.555-2.035c0-.756.183-1.44.547-2.055.365-.615.857-1.104 1.477-1.469.62-.364 1.31-.547 2.07-.547.75 0 1.435.183 2.055.547.62.365 1.113.854 1.48 1.469.367.615.551 1.3.551 2.055 0 .557-.105 1.08-.316 1.57-.211.49-.504.922-.88 1.297-.374.375-.808.67-1.3.883-.492.213-1.022.32-1.59.32zm0-2.57c.41 0 .765-.147 1.062-.442.296-.294.445-.647.445-1.058 0-.412-.149-.765-.445-1.059-.297-.294-.651-.441-1.063-.441-.417 0-.773.147-1.07.441-.297.294-.446.647-.446 1.059 0 .411.149.764.446 1.058.297.295.653.442 1.07.442z" transform="translate(-130 -489) translate(16 383) translate(114 102) translate(0 4.367)"/>
                    </g>
                </g>
            </g>
        </g>
    </g>
</svg>
