<svg xmlns="http://www.w3.org/2000/svg" width="24" height="16" viewBox="0 0 24 16">
    <g fill="none" fill-rule="evenodd">
        <g fill="#00BE00">
            <path d="M11.077 14.757c1.092 0 2.12-.132 3.085-.395.964-.263 1.853-.609 2.668-1.039.814-.43 1.545-.902 2.193-1.417.648-.515 1.198-1.032 1.65-1.552.453-.52.8-1.003 1.04-1.447.24-.444.36-.802.36-1.073 0-.272-.12-.63-.36-1.074-.24-.444-.587-.926-1.04-1.446-.452-.52-1.002-1.04-1.65-1.557-.648-.518-1.379-.99-2.193-1.417-.815-.427-1.704-.77-2.668-1.03-.965-.261-1.993-.391-3.085-.391-1.08 0-2.098.13-3.054.39s-1.842.604-2.66 1.031c-.817.427-1.551.9-2.201 1.417-.65.518-1.207 1.036-1.668 1.557-.46.52-.813 1.002-1.056 1.446-.243.444-.365.802-.365 1.074 0 .271.122.629.365 1.073.243.444.594.926 1.052 1.447.458.52 1.013 1.037 1.663 1.552.65.515 1.384.987 2.202 1.417.817.43 1.705.776 2.664 1.04.959.262 1.978.394 3.058.394zm0-1.434c-.865 0-1.696-.107-2.494-.322-.797-.215-1.544-.498-2.24-.849-.696-.35-1.326-.735-1.892-1.154-.565-.418-1.052-.832-1.46-1.243-.406-.41-.719-.786-.937-1.128-.217-.342-.326-.607-.326-.793 0-.159.109-.4.326-.726.218-.325.53-.695.938-1.111.407-.416.894-.837 1.46-1.264.565-.427 1.195-.82 1.891-1.18.696-.359 1.443-.65 2.24-.874.798-.223 1.63-.335 2.494-.335.86 0 1.689.112 2.486.335.798.224 1.543.515 2.236.874.693.36 1.322.753 1.888 1.18.565.427 1.052.848 1.46 1.264.406.416.72.786.94 1.111.221.326.332.567.332.726 0 .186-.11.45-.331.793-.22.342-.535.718-.942 1.128-.407.41-.894.825-1.46 1.243-.565.419-1.194.804-1.887 1.154-.693.351-1.438.634-2.236.849-.797.215-1.626.322-2.486.322zm0-1.094c.611 0 1.183-.116 1.714-.348.532-.232 1-.55 1.404-.955.405-.404.72-.87.947-1.4.226-.529.339-1.093.339-1.692 0-.815-.198-1.554-.594-2.219-.396-.665-.926-1.192-1.59-1.582-.665-.39-1.405-.586-2.22-.586-.82 0-1.563.195-2.23.586-.668.39-1.2.917-1.596 1.582-.396.665-.591 1.404-.585 2.219.005.797.205 1.528.598 2.193s.922 1.198 1.586 1.6c.665.4 1.407.602 2.227.602zm0-2.961c-.401 0-.743-.142-1.026-.425-.283-.282-.424-.619-.424-1.01 0-.395.141-.733.424-1.013.283-.28.625-.42 1.026-.42.396 0 .736.14 1.019.42.282.28.424.618.424 1.014 0 .39-.142.727-.424 1.01-.283.282-.623.424-1.019.424z" transform="translate(-2493.000000, -7417.000000) translate(2493.500000, 7417.500000)"/>
        </g>
    </g>
</svg>
