<svg xmlns="http://www.w3.org/2000/svg" xmlns:xlink="http://www.w3.org/1999/xlink" width="112" height="112" viewBox="0 0 112 112">
    <defs>
        <path id="lytcpt992a" d="M0 0.409L91.253 0.409 91.253 95.666 0 95.666z"/>
    </defs>
    <g fill="none" fill-rule="evenodd">
        <g>
            <g>
                <g>
                    <g transform="translate(-132 -60) translate(132 60) translate(10.5 8.167) translate(0 .758)">
                        <mask id="79uq54bd7b" fill="#fff">
                            <use xlink:href="#lytcpt992a"/>
                        </mask>
                        <path fill="#F2F2F2" d="M.788 44.899c-1.824 6.2-.343 10.777 3.032 16.29 2.386 3.896 6.001 7.284 6.748 11.791.493 2.979-.364 6.065.187 9.033.982 5.299 6.088 8.775 11.065 10.845 7.767 3.23 17.217 4.347 24.212-.323 3.86-2.577 6.702-6.737 11.06-8.334 5.8-2.125 12.328.967 18.39-.23 4.934-.975 8.955-4.74 11.44-9.112 3.998-7.03 4.55-15.479 4.27-23.56-.236-6.899-1.028-13.865-3.496-20.312-2.467-6.446-6.75-12.376-12.739-15.81-3.734-2.14-7.98-3.245-11.78-5.264-2.878-1.531-5.458-3.562-8.286-5.18-10.23-5.85-23.505-5.68-33.832-.004C10.73 10.405 4.34 17.322 2.633 28.982 2.12 32.485 2.577 40.93.788 44.899" mask="url(#79uq54bd7b)"/>
                    </g>
                    <path fill="#E2E2E2" d="M72.106 85.133c0 1.982-11.949 3.59-26.69 3.59-14.742 0-26.69-1.608-26.69-3.59 0-1.983 11.948-3.59 26.69-3.59 14.741 0 26.69 1.607 26.69 3.59" transform="translate(-132 -60) translate(132 60) translate(10.5 8.167)"/>
                    <path stroke="#B2B2B2" stroke-dasharray="1.777" stroke-width=".553" d="M89.094 20.464s-8.95-.164-12.024-3.971c-3.072-3.808 1.481-9.315 4.042-5.163 2.562 4.151-5.475 6.57-9.65.231-4.176-6.337-4.85-8.782-4.85-8.782" transform="translate(-132 -60) translate(132 60) translate(10.5 8.167)"/>
                    <path fill="#19313D" d="M53.23 76.404L21.4 67.83c-7.453-2.005-11.868-9.675-9.86-17.127l8.573-31.831c2.007-7.453 9.675-11.867 17.129-9.86l31.83 8.573c7.452 2.008 11.867 9.677 9.86 17.13l-8.573 31.83c-2.007 7.452-9.676 11.867-17.128 9.859" transform="translate(-132 -60) translate(132 60) translate(10.5 8.167)"/>
                    <path fill="#EF2B28" d="M66.894 69.208l-30.522 6.556c-8.017 1.724-15.914-3.38-17.636-11.398l-6.557-30.522c-1.722-8.018 3.381-15.914 11.4-17.637l30.52-6.555c8.017-1.722 15.914 3.38 17.636 11.4l6.558 30.52c1.722 8.018-3.382 15.913-11.4 17.636" transform="translate(-132 -60) translate(132 60) translate(10.5 8.167)"/>
                    <path stroke="#FFF" stroke-linecap="round" stroke-linejoin="round" stroke-width="4.154" d="M35.324 52.772L55.147 32.645M55.147 52.772L35.324 32.645" transform="translate(-132 -60) translate(132 60) translate(10.5 8.167)"/>
                </g>
            </g>
        </g>
    </g>
</svg>
