<svg xmlns="http://www.w3.org/2000/svg" width="21" height="32" viewBox="0 0 21 32">
    <g fill="none" fill-rule="evenodd">
        <g fill="#FFF">
            <g>
                <g>
                    <path d="M19.264 12.883H11.68L18.228 1.37c.162-.284.16-.632-.004-.914C18.06.173 17.758 0 17.432 0H6.442c-.395 0-.745.253-.87.627L.078 17.174c-.093.28-.046.586.127.825.172.238.448.38.742.38H8.72L3.768 29.987c-.177.413-.027.893.352 1.133.38.24.878.17 1.176-.166L19.95 14.407c.522-.59.102-1.524-.686-1.524zM7.668 25.513l3.28-7.69c.257-.604-.186-1.276-.843-1.276h-7.89L7.104 1.832h8.755L9.309 13.346c-.346.61.094 1.37.796 1.37h7.125L7.668 25.511z" transform="translate(-249 -596) translate(223 575) translate(26 21)"/>
                </g>
            </g>
        </g>
    </g>
</svg>
