<svg xmlns="http://www.w3.org/2000/svg" width="56" height="56" viewBox="0 0 56 56">
    <defs>
        <linearGradient id="d41tbdchoa" x1="23.568%" x2="93.592%" y1="15.031%" y2="107.24%">
            <stop offset="0%" stop-color="#F96E68"/>
            <stop offset="100%" stop-color="#FF0016"/>
        </linearGradient>
    </defs>
    <g fill="none" fill-rule="evenodd">
        <g>
            <g>
                <g>
                    <g transform="translate(-206 -515) translate(9 293) translate(189 222) translate(8)">
                        <rect width="56" height="56" fill="#FFEDF0" rx="20"/>
                        <path fill="url(#d41tbdchoa)" d="M30.462 24.008c.47 0 .85.38.85.85v1.16h1.716c.233 0 .456.095.616.263L36.3 29.07c2.081 2.185 3.228 5.05 3.228 8.069v3.499c0 .47-.381.85-.85.85H17.824c-.47 0-.85-.38-.85-.85v-3.499c0-3.018 1.146-5.884 3.227-8.07l2.655-2.787c.16-.168.383-.264.615-.264h1.716v-1.159c0-.47.38-.85.85-.85s.85.38.85.85v1.16h2.724v-1.16c0-.47.38-.85.85-.85zm-2.212 5.469c-2.454 0-4.45 1.996-4.45 4.45 0 2.455 1.996 4.451 4.45 4.451s4.451-1.996 4.451-4.45c0-2.455-1.997-4.451-4.45-4.451zm0 1.7c1.517 0 2.75 1.234 2.75 2.75 0 1.517-1.233 2.75-2.75 2.75-1.516 0-2.75-1.233-2.75-2.75 0-1.516 1.234-2.75 2.75-2.75zM28.264 14c2.627.004 5.38.533 7.751 1.489 2.384.961 4.3 2.32 5.393 3.824 1.051 1.446 1.35 3.003.867 4.5-.313.97-1.22 1.622-2.258 1.622h-.004l-3.56-.004c-.711 0-1.379-.314-1.831-.858-.447-.537-.63-1.239-.504-1.924l.014-.062.19-.724c-1.039-.496-3.387-1.451-6.07-1.465-2.684-.015-5.034.941-6.071 1.436l.187.728.014.06c.124.686-.062 1.387-.51 1.923-.453.543-1.12.853-1.83.853h-.004l-3.56-.003c-1.039-.002-1.946-.656-2.257-1.628-.48-1.498-.176-3.052.879-4.494 1.097-1.501 3.017-2.853 5.405-3.808 2.374-.948 5.13-1.471 7.759-1.465z"/>
                    </g>
                </g>
            </g>
        </g>
    </g>
</svg>
