<svg xmlns="http://www.w3.org/2000/svg" width="16" height="16" viewBox="0 0 16 16">
    <g fill="none" fill-rule="evenodd">
        <g fill="#D83145">
            <g>
                <path d="M21 31.216c-.777 0-1.408-.632-1.408-1.408 0-.776.631-1.408 1.407-1.408.777 0 1.408.632 1.408 1.408 0 .776-.631 1.408-1.408 1.408zm-.939-8.446c0-.519.42-.939.938-.939.519 0 .939.42.939.939v3.753c0 .519-.42.939-.939.939-.518 0-.938-.42-.938-.939V22.77zm8.627 9.137c.422-.743.414-1.624-.013-2.342l-5.658-10.417C22.59 18.43 21.836 18 20.999 18c-.836 0-1.59.43-2.017 1.148l-.01.017-5.639 10.384c-.436.734-.444 1.615-.022 2.358.423.742 1.185 1.186 2.04 1.186h11.266c.855 0 1.648-.444 2.071-1.186z" transform="translate(-29 -297) translate(16 279)"/>
            </g>
        </g>
    </g>
</svg>
