<svg xmlns="http://www.w3.org/2000/svg" width="16" height="20" viewBox="0 0 16 20">
    <g fill="none" fill-rule="evenodd">
        <g fill="#6F8496">
            <g>
                <g>
                    <g>
                        <g>
                            <path d="M14.462 2.462h-3.385v-.616C11.077.826 10.25 0 9.23 0H6.769C5.75 0 4.923.827 4.923 1.846v.616H1.538C.688 2.462 0 3.15 0 4v1.23c0 .34.276.616.615.616h14.77c.34 0 .615-.275.615-.615V4c0-.85-.689-1.538-1.538-1.538zm-8.308-.616c0-.34.276-.615.615-.615h2.462c.339 0 .615.276.615.615v.616H6.154v-.616zM1.168 7.077c-.11 0-.197.092-.192.201l.507 10.656c.047.986.857 1.758 1.844 1.758h9.346c.987 0 1.797-.772 1.844-1.758l.507-10.656c.005-.11-.082-.201-.192-.201H1.168zm9.294 1.538c0-.34.275-.615.615-.615.34 0 .615.275.615.615v8c0 .34-.275.616-.615.616-.34 0-.615-.276-.615-.616v-8zm-3.077 0C7.385 8.275 7.66 8 8 8c.34 0 .615.275.615.615v8c0 .34-.275.616-.615.616-.34 0-.615-.276-.615-.616v-8zm-3.077 0c0-.34.275-.615.615-.615.34 0 .615.275.615.615v8c0 .34-.275.616-.615.616-.34 0-.615-.276-.615-.616v-8z" transform="translate(-318 -332) translate(16 309) translate(298 21) translate(4 2)"/>
                        </g>
                    </g>
                </g>
            </g>
        </g>
    </g>
</svg>
