<svg xmlns="http://www.w3.org/2000/svg" width="56" height="56" viewBox="0 0 56 56">
    <defs>
        <linearGradient id="2ufms0l96a" x1="16.484%" x2="100%" y1="6.888%" y2="93.112%">
            <stop offset="0%" stop-color="#00E4B2"/>
            <stop offset="100%" stop-color="#00B55F"/>
        </linearGradient>
    </defs>
    <g fill="none" fill-rule="evenodd">
        <g>
            <g>
                <g>
                    <g transform="translate(-304 -419) translate(9 293) translate(284 126) translate(11)">
                        <rect width="56" height="56" fill="#D4FBF1" rx="20"/>
                        <path fill="url(#2ufms0l96a)" d="M39.116 25.786h-4.018c-.37 0-.67-.24-.67-.536 0-.296.3-.536.67-.536h4.018c.37 0 .67.24.67.536 0 .296-.3.536-.67.536zm0 4.285h-4.018c-.37 0-.67-.24-.67-.535 0-.296.3-.536.67-.536h4.018c.37 0 .67.24.67.536 0 .296-.3.535-.67.535zM37.107 36.5c-1.492 0-2.678-1.186-2.678-2.679 0-1.492 1.186-2.678 2.678-2.678 1.493 0 2.679 1.186 2.679 2.678 0 1.493-1.186 2.679-2.679 2.679zm-5.893-.959c0 1.117-.942 2.03-2.093 2.03H18.307c-1.15 0-2.093-.913-2.093-2.03v-8.797c0-1.116.942-2.03 2.093-2.03h10.814c1.151 0 2.093.914 2.093 2.03v8.797zm9.027-15.508H29.69l4.855-4.822c.27-.268.271-.706.003-.976-.265-.267-.695-.269-.962-.004l-5.069 5.004-5.069-5.037c-.267-.265-.697-.264-.962.003-.268.27-.267.707.003.975l4.856 4.823H15.759c-1.518 0-2.759 1.249-2.759 2.775v16.307c0 1.527 1.241 2.776 2.759 2.776H40.24c1.518 0 2.759-1.249 2.759-2.776V22.774c0-1.492-1.241-2.74-2.759-2.74z"/>
                    </g>
                </g>
            </g>
        </g>
    </g>
</svg>
