<svg xmlns="http://www.w3.org/2000/svg" width="32" height="32" viewBox="0 0 32 32">
    <g fill="none" fill-rule="evenodd">
        <g fill="#FF4B49">
            <g>
                <path d="M21.917 0c8.777 0 15.917 7.14 15.917 15.917 0 8.777-7.14 15.917-15.917 15.917C13.14 31.834 6 24.694 6 15.917 6 7.14 13.14 0 21.917 0zm-.478 9.381l-10.013 3.951c-.35.138-.58.477-.578.853 0 .377.232.714.583.85l4.53 1.758v3.225c0 .505.409.914.914.914h9.586c.505 0 .915-.41.915-.914v-3.105c.01-.004.022-.007.032-.012l3.334-1.353v2.47c0 .504.41.914.915.914.505 0 .914-.41.914-.915v-3.585c0-.018-.002-.035-.003-.053.014-.064.022-.131.022-.199-.001-.373-.229-.708-.576-.846l-9.9-3.951c-.217-.087-.458-.087-.675-.002zm.502 5.8c1.326 0 2.855.645 3.606 1.007v2.916H17.79v-2.872c.904-.367 2.773-1.052 4.152-1.052zm-.168-3.966l7.454 2.975-2.075.842c-.068-.079-.148-.148-.242-.2-.107-.06-2.653-1.48-4.97-1.48-2.276 0-5.319 1.387-5.447 1.446-.085.039-.162.09-.23.151l-1.992-.773 7.502-2.96z" transform="translate(-1016 -692) translate(1010 692)"/>
            </g>
        </g>
    </g>
</svg>
