<svg xmlns="http://www.w3.org/2000/svg" width="14" height="14" viewBox="0 0 14 14">
    <g fill="none" fill-rule="evenodd">
        <g fill="#181A41">
            <g>
                <g>
                    <path d="M174.355 33.744l2.9 2.901-.29.29c-.048.05-.109.085-.175.105l-3.265.944c-.038.01-.077.016-.115.016-.107 0-.212-.042-.29-.12-.106-.106-.145-.26-.104-.404l.944-3.266c.02-.066.056-.127.105-.176l.29-.29zm7.543-7.543l2.901 2.901-6.963 6.963-2.9-2.901 6.962-6.963zm2.085-2.086c.154-.153.427-.153.58 0l2.322 2.322c.077.076.12.18.12.29 0 .109-.043.213-.12.29l-1.506 1.505-2.9-2.901z" transform="translate(-204 -128) translate(13 88) translate(18 16)"/>
                </g>
            </g>
        </g>
    </g>
</svg>
