<svg xmlns="http://www.w3.org/2000/svg" width="46" height="50" viewBox="0 0 46 50">
    <g fill="none" fill-rule="evenodd">
        <g fill="#94EFA3">
            <g>
                <path d="M276.335 30.99c.383-.086.764.156.85.54 2.158 9.604 8.762 17.933 18.117 22.85l2.171 1.142c.14.073.308.073.448 0l2.17-1.141c9.342-4.91 15.942-13.225 18.11-22.812.086-.384.467-.624.85-.538.384.087.625.468.538.851-2.26 9.994-9.124 18.654-18.835 23.759l-2.171 1.14c-.277.146-.582.219-.886.219-.304 0-.608-.073-.886-.219l-2.17-1.14c-9.727-5.113-16.595-13.787-18.845-23.8-.086-.383.155-.764.539-.85zm30.278-20.694c.862 0 1.657.5 2.024 1.272 1.352 2.842 3.784 5.074 6.847 6.287.86.34 1.415 1.158 1.415 2.086v4.337c0 5.685-1.659 11.302-4.795 16.242-3.168 4.989-7.756 9.158-13.271 12.056l-.09.048c-.328.172-.687.258-1.046.258-.36 0-.718-.086-1.046-.258l-.09-.048c-5.514-2.898-10.104-7.067-13.271-12.056-3.137-4.94-4.794-10.557-4.794-16.242v-4.337c0-.928.555-1.747 1.414-2.086 3.064-1.213 5.495-3.445 6.846-6.287.368-.773 1.162-1.272 2.025-1.272zm0 1.423h-17.832c-.316 0-.607.18-.74.46-1.506 3.168-4.208 5.654-7.607 6.999-.313.124-.515.423-.515.763v4.337c0 5.415 1.58 10.768 4.572 15.48 3.034 4.779 7.438 8.776 12.732 11.56l.09.046c.24.127.527.127.767 0l.09-.047c5.296-2.784 9.698-6.78 12.732-11.56 2.992-4.711 4.573-10.064 4.573-15.478V19.94c0-.34-.202-.64-.515-.763-3.399-1.345-6.1-3.83-7.608-6.999-.132-.28-.423-.46-.739-.46zm-8.889 2.692c3.834 0 6.953 3.119 6.953 6.953v3.396h1.17c1.248 0 2.264 1.015 2.264 2.263v10.189c0 1.248-1.016 2.263-2.264 2.263h-16.246c-1.248 0-2.263-1.015-2.263-2.263V27.023c0-1.248 1.015-2.263 2.263-2.263h1.17v-3.396c0-3.834 3.12-6.953 6.953-6.953zm8.123 11.772h-16.246c-.463 0-.84.377-.84.84v10.189c0 .463.377.84.84.84h16.246c.463 0 .84-.377.84-.84V27.023c0-.463-.377-.84-.84-.84zm-8.123 3.498c.92 0 1.667.746 1.667 1.667 0 .665-.391 1.238-.955 1.506v2.025c0 .394-.319.712-.712.712-.393 0-.711-.318-.711-.712v-2.025c-.564-.268-.955-.84-.955-1.506 0-.92.746-1.667 1.666-1.667zM309.551 7c.945 0 1.756.712 1.889 1.657.478 3.418 3.465 6.084 7.265 6.485.963.102 1.689.915 1.689 1.892v7.641c0 1.099-.057 2.21-.168 3.302-.04.391-.389.676-.78.636-.39-.04-.675-.388-.636-.78.107-1.044.16-2.107.16-3.158v-7.64c0-.243-.181-.453-.414-.477-4.451-.47-7.957-3.638-8.526-7.704-.035-.25-.236-.43-.479-.43h-23.709c-.242 0-.443.18-.478.43-.569 4.066-4.075 7.234-8.526 7.704-.232.024-.415.234-.415.476v7.641c0 1.062.055 2.136.164 3.191.04.391-.244.741-.635.78-.025.003-.05.005-.074.005-.36 0-.67-.273-.707-.64-.114-1.103-.171-2.225-.171-3.336v-7.64c0-.978.726-1.791 1.69-1.893 3.799-.4 6.786-3.067 7.264-6.485.133-.945.944-1.657 1.888-1.657zm-11.827 8.834c-3.049 0-5.53 2.48-5.53 5.53v3.396h11.06v-3.396c0-3.05-2.48-5.53-5.53-5.53z" transform="translate(-289 -359) translate(14 352)"/>
            </g>
        </g>
    </g>
</svg>
