<svg width="125" height="125" xmlns="http://www.w3.org/2000/svg" xmlns:xlink="http://www.w3.org/1999/xlink">
    <defs>
        <path id="a" d="M0 0h124.715v95.267H0z"/>
    </defs>
    <g fill="none" fill-rule="evenodd">
        <g transform="translate(.285 18.99)">
            <mask id="b" fill="#fff">
                <use xlink:href="#a"/>
            </mask>
            <path d="M2.898 65.276C10.907 83 25.95 90.579 37.121 93.265c17.85 4.294 38.876 1.523 53.99-6.793 12.113-6.666 22.824-17.835 28.882-32.758 4.827-11.89 5.543-21.647 3.98-31.648-1.562-10-10.039-23.203-26.934-21.988-16.895 1.215-22.623 12.834-27.968 20.555-7.677 11.09-16.219 10.705-29.048 7.713-12.83-2.99-22.856-2.49-30.06 1.957C1.11 35.765-3.312 51.532 2.897 65.276" fill-opacity=".2" fill="#000" opacity=".15" mask="url(#b)"/>
        </g>
        <path d="m62.504 107.839-62.22-.336.084-15.335c.078-14.572 11.95-26.32 26.517-26.242l9.468.052c14.567.078 26.312 11.954 26.234 26.526l-.083 15.335z" fill="#C9C9C9"/>
        <path d="m50.813 107.776 11.674.063.072-13.39s-1.715-2.556-5.372-2.576c-5.119-.028-6.302 2.511-6.302 2.511l-.072 13.392z" fill="#FFF"/>
        <path d="M31.368 73.367c-3.71-.02-6.732-3.073-6.71-6.786l.005-1.333c.021-3.712 3.073-6.734 6.785-6.713 3.711.02 6.732 3.073 6.711 6.786l-.008 1.333c-.019 3.712-3.072 6.733-6.783 6.713" fill="#F2F2F2"/>
        <path d="M51.172 42.492c-.066 12.29-8.825 22.207-19.562 22.149-10.738-.058-19.388-10.069-19.321-22.36.066-12.29 8.825-22.206 19.562-22.148 10.736.058 19.387 10.068 19.32 22.36" fill="#FFF"/>
        <path d="M12.736 35.391c2.555.704 15.448.206 26.719-7.635 8.144 4.87 10.306 5.52 10.306 5.52.564 4.878 3.255 7.355 3.255 7.355l1.412 2.642a24.11 24.11 0 0 0 1.497-8.257c.072-13.334-10.676-24.202-24.005-24.274-13.33-.071-24.194 10.68-24.266 24.013a24.046 24.046 0 0 0 4.596 14.3c-1.06-5.894-.24-10.907.486-13.664" fill="#C9C9C9"/>
        <path d="M12.277 44.476c.009-1.63.175-3.216.474-4.746a5.245 5.245 0 0 0-2.149-.475 5.262 5.262 0 0 0-5.29 5.236 5.263 5.263 0 0 0 5.233 5.294 5.228 5.228 0 0 0 2.173-.462 25.401 25.401 0 0 1-.44-4.847M53.022 39.484a5.238 5.238 0 0 0-2.274.509 25.374 25.374 0 0 1-.07 9.478c.691.34 1.465.539 2.288.542a5.265 5.265 0 0 0 .056-10.53M0 107.501l11.673.064.073-13.392S10.03 91.62 6.374 91.6C1.254 91.57.072 94.11.072 94.11L0 107.501z" fill="#FFF"/>
        <path d="M81.666 56.124V39.316a3.141 3.141 0 0 1 3.132-3.132h27.158c4 0 7.27 3.272 7.27 7.273V63.69c0 4-3.27 7.273-7.27 7.273H84.798a3.141 3.141 0 0 1-3.132-3.132" fill="#D6D6D6"/>
        <path d="M75.416 56.124V39.316a3.14 3.14 0 0 1 3.131-3.132h27.158c4 0 7.271 3.272 7.271 7.273V63.69c0 4-3.271 7.273-7.271 7.273H78.547a3.14 3.14 0 0 1-3.13-3.132" fill="#D8D8D8"/>
        <path d="M120.368 60.04H110.02a1.397 1.397 0 0 1-1.393-1.393v-10.05c0-.766.627-1.393 1.393-1.393h10.347c.765 0 1.392.627 1.392 1.393v10.05c0 .766-.627 1.392-1.392 1.392" fill="#DDD"/>
        <path d="M114.89 60.04h-10.347a1.397 1.397 0 0 1-1.392-1.393v-10.05c0-.766.627-1.393 1.392-1.393h10.347c.766 0 1.392.627 1.392 1.393v10.05c0 .766-.626 1.392-1.392 1.392" fill="#F2F2F2"/>
        <path d="M108.845 50.982h-2.17a.846.846 0 0 1-.843-.843c0-.464.38-.843.843-.843h2.17c.463 0 .843.38.843.843 0 .463-.38.843-.843.843" fill="#C9C9C9"/>
        <path d="M89.51 44.063h-8.703a.807.807 0 0 1-.807-.806V41.43c0-.445.362-.807.807-.807h8.703c.445 0 .806.362.806.807v1.827c0 .444-.36.806-.806.806M85.159 46.814h-4.471a.688.688 0 0 1 0-1.375h4.47a.688.688 0 0 1 0 1.375" fill="#F2F2F2"/>
        <path d="M92.078 73.465c0 11.385-9.226 20.614-20.608 20.614S50.862 84.85 50.862 73.465c0-11.385 9.226-20.614 20.608-20.614s20.608 9.229 20.608 20.614" fill="#FFF"/>
        <path d="m69.453 60.12-10.65 17.592c-1.103 1.823.209 4.152 2.338 4.152h21.302c2.129 0 3.44-2.329 2.338-4.152L74.131 60.12c-1.066-1.758-3.614-1.758-4.678 0" fill="#EC2A2A"/>
        <path d="M70.625 69.504c-.082-1.672-.122-2.855-.122-3.547 0-.71.643-1.054 1.35-1.054.649 0 1.192.375 1.192 1.054 0 .692-.017 1.875-.052 3.547a202 202 0 0 0-.051 3.529c0 .526-.626.761-1.09.761-.737 0-1.106-.252-1.106-.761 0-.68-.041-1.856-.121-3.53M73.132 76.32c0 .71-.56 1.333-1.26 1.333-.816 0-1.421-.635-1.421-1.333 0-.72.581-1.332 1.421-1.332.703 0 1.26.627 1.26 1.332" fill="#FFF"/>
    </g>
</svg>
