<svg width="120" height="112" viewBox="0 0 120 112" xmlns="http://www.w3.org/2000/svg">
    <g transform="translate(.469 .688)" fill="none" fill-rule="evenodd">
        <path d="M65.33 29.182c-15.953-3.26-22.331-14.117-40.471-9.108C8.799 24.517-.99 42.313 7.85 57.208c2.523 4.245 6.814 7.451 8.573 12.215 2.83 7.635-1.476 13.544-.643 21.08 3.495 31.3 51.368 19.17 68.98 9.435 27.623-15.269 46.314-49.25 25.237-65.427-14.645-11.246-28.838-2.092-44.669-5.33z" fill="#000" fill-opacity=".2" fill-rule="nonzero" opacity=".15"/>
        <path d="M8.413 26.874a3.569 3.569 0 0 1-3.318-2.178 3.555 3.555 0 0 1 .755-3.89 3.574 3.574 0 0 1 3.892-.786 3.56 3.56 0 0 1-1.33 6.854M3.357 81.195A3.324 3.324 0 0 1 .262 79.17a3.311 3.311 0 0 1 .701-3.626 3.329 3.329 0 0 1 3.627-.731 3.316 3.316 0 0 1 2.057 3.07 3.305 3.305 0 0 1-3.29 3.312M98.211 88.36h-1.598v-1.57a1.258 1.258 0 0 0-.609-1.146c-.4-.24-.9-.24-1.3 0s-.635.682-.61 1.147v1.569h-1.572c-.7 0-1.269.567-1.269 1.266 0 .699.568 1.266 1.27 1.266h1.557v1.605a1.264 1.264 0 0 0 1.91 1.146c.4-.24.634-.68.609-1.146v-1.605h1.598c.7 0 1.268-.567 1.268-1.266 0-.7-.568-1.266-1.268-1.266M97.418 1.875h-.896v-.624A1.322 1.322 0 0 0 95.2 0c-.704 0-1.284.55-1.321 1.251v.624h-.648c-.706 0-1.28.572-1.28 1.277 0 .706.574 1.277 1.28 1.277h.648v.861A1.322 1.322 0 0 0 95.2 6.542c.704 0 1.285-.55 1.322-1.252v-.875h.896c.707 0 1.28-.572 1.28-1.277 0-.706-.573-1.277-1.28-1.277M27.112 91.368h-.998v-.73c0-.812-.66-1.47-1.473-1.47-.814 0-1.474.658-1.474 1.47v.73h-.731c-.82 0-1.485.663-1.485 1.481 0 .818.665 1.481 1.485 1.481h.731v1.004c0 .812.66 1.47 1.474 1.47.813 0 1.473-.658 1.473-1.47V94.33h.998c.82 0 1.485-.663 1.485-1.48 0-.819-.665-1.482-1.485-1.482" fill="#D8D8D8"/>
        <path d="M94.637 52.735c.002 14.86-8.967 28.258-22.725 33.947-13.758 5.688-29.595 2.546-40.125-7.962a36.683 36.683 0 0 1-7.984-40.039C29.502 24.951 42.927 16 57.82 16c20.332 0 36.815 16.446 36.818 36.735" fill="#FC8C00"/>
        <rect fill="#FFF" x="54" y="33" width="7" height="29" rx="3.5"/>
        <path d="M62 69.994c.028 2.14-1.64 3.916-3.764 4.004-2.264.065-4.156-1.724-4.236-4.004a4.067 4.067 0 0 1 1.276-2.902 4.007 4.007 0 0 1 2.96-1.086c2.121.08 3.792 1.85 3.764 3.988" fill="#FFF"/>
    </g>
</svg>
