<svg xmlns="http://www.w3.org/2000/svg" width="32" height="32" viewBox="0 0 32 32">
    <g fill="none" fill-rule="evenodd">
        <g fill="#577AFB">
            <g>
                <path d="M23.897 0c8.712 0 16.022 7.036 16.022 15.897 0 8.795-7.254 16.021-16.022 16.021-8.85 0-15.897-7.3-15.897-16.021C8 7.11 15.11 0 23.897 0zm0 5.61c-5.672 0-10.286 4.615-10.286 10.287 0 5.693 4.605 10.41 10.286 10.41 2.299 0 4.624-.772 6.38-2.119.41-.314.487-.901.172-1.311-.314-.41-.901-.487-1.31-.173-1.436 1.102-3.347 1.746-5.242 1.746-4.64 0-8.416-3.844-8.416-8.553 0-4.64 3.775-8.429 8.416-8.429 4.71 0 8.54 3.788 8.54 8.429v.935c0 1.031-.838 1.87-1.87 1.87-1.03 0-1.87-.839-1.87-1.87v-4.676c0-.516-.418-.935-.935-.935-.516 0-.935.419-.935.935v.06c-.845-.644-1.866-.995-2.93-.995-2.578 0-4.676 2.098-4.676 4.676 0 2.578 2.098 4.675 4.676 4.675 1.398 0 2.684-.6 3.6-1.609.675.972 1.8 1.61 3.07 1.61 2.063 0 3.74-1.679 3.74-3.741v-.935c0-5.689-4.724-10.286-10.41-10.286zm0 7.47c1.588 0 2.93 1.296 2.93 2.817 0 1.52-1.342 2.818-2.93 2.818-1.547 0-2.805-1.271-2.805-2.818 0-1.547 1.258-2.818 2.805-2.818z" transform="translate(-1164 -612) translate(1156 612)"/>
            </g>
        </g>
    </g>
</svg>
