<svg xmlns="http://www.w3.org/2000/svg" width="32" height="32" viewBox="0 0 32 32">
    <g fill="none" fill-rule="evenodd">
        <g fill="#55DCD4">
            <g>
                <path d="M32.917 0c8.777 0 15.917 7.14 15.917 15.917 0 8.777-7.14 15.917-15.917 15.917C24.14 31.834 17 24.694 17 15.917 17 7.14 24.14 0 32.917 0zm8.465 7.335c-.741-.741-1.51-.86-2.022-.826-1.278.08-2.22 1.131-2.443 1.403l-2.392 2.392-7.908-1.895c-.303-.072-.623.015-.848.232l-2.246 2.169c-.207.2-.308.484-.273.77.035.284.202.536.451.68l5.626 3.242-1.672 1.936-3.238-.371c-.271-.031-.543.06-.74.25l-1.123 1.085c-.363.35-.373.929-.023 1.292l6.391 6.624c.173.178.41.28.658.28h.012c.252-.004.492-.111.662-.297l1.279-1.395c.184-.201.27-.475.23-.745l-.4-2.84 2.063-2.064 3.058 5.66c.135.25.379.423.66.468.28.045.566-.043.773-.238l2.13-2.015c.234-.22.334-.548.265-.861l-1.757-7.941 2.615-2.852c.263-.22 1.032-.95 1.107-2.017.037-.525-.088-1.32-.895-2.126zm-1.907.999c.13-.008.333.013.614.294.255.254.377.49.365.7-.02.328-.346.658-.465.753-.049.035-.08.065-.12.11l-2.983 3.254c-.202.22-.284.524-.22.815l1.748 7.9-.888.839-3.074-5.691c-.137-.254-.387-.429-.672-.47-.285-.042-.575.054-.78.258l-3.253 3.254c-.203.203-.299.49-.259.774l.405 2.865-.33.36-5.081-5.267.155-.15 3.29.377c.3.035.598-.082.796-.31l2.711-3.14c.179-.206.255-.48.21-.75-.046-.268-.209-.503-.445-.639l-5.533-3.188 1.013-.978 7.917 1.898c.31.074.635-.018.86-.243l2.789-2.789c.027-.027.052-.056.076-.086.11-.141.66-.719 1.154-.75z" transform="translate(-1081 -612) translate(1064 612)"/>
            </g>
        </g>
    </g>
</svg>
