<svg xmlns="http://www.w3.org/2000/svg" width="56" height="56" viewBox="0 0 56 56">
    <defs>
        <linearGradient id="zq67nvbmoa" x1="29.883%" x2="79.255%" y1="29.752%" y2="75.636%">
            <stop offset="0%" stop-color="#93A6FF"/>
            <stop offset="100%" stop-color="#0039F2"/>
        </linearGradient>
    </defs>
    <g fill="none" fill-rule="evenodd">
        <g>
            <g>
                <g>
                    <g transform="translate(-15 -419) translate(9 293) translate(0 126) translate(6)">
                        <rect width="56" height="56" fill="#E8EBFF" rx="20"/>
                        <path fill="url(#zq67nvbmoa)" d="M36.266 24.219h-5.157c-.57 0-1.03-.462-1.03-1.032 0-.57.46-1.03 1.03-1.03h5.157c.57 0 1.03.46 1.03 1.03 0 .57-.46 1.032-1.03 1.032m0 4.125h-5.157c-.57 0-1.03-.462-1.03-1.032 0-.57.46-1.03 1.03-1.03h5.157c.57 0 1.03.46 1.03 1.03 0 .57-.46 1.032-1.03 1.032m0 4.125h-5.157c-.57 0-1.03-.462-1.03-1.032 0-.57.46-1.03 1.03-1.03h5.157c.57 0 1.03.46 1.03 1.03 0 .57-.46 1.032-1.03 1.032m-10.1-8.552l-2.096 2.097 1.81 4.525c.211.529-.046 1.129-.575 1.34-.126.05-.255.074-.383.074-.409 0-.796-.245-.958-.648L22.483 27.6l-3.122 3.122.374 1.496c.138.552-.198 1.112-.75 1.25-.084.021-.169.031-.251.031-.463 0-.883-.313-1-.781l-.366-1.462-1.462-.366c-.552-.138-.888-.698-.75-1.25.138-.553.698-.889 1.25-.75l1.497.373 3.165-3.166-3.268-1.453c-.52-.23-.755-.84-.524-1.36.232-.521.841-.755 1.362-.524l3.993 1.775 2.077-2.078c.403-.402 1.056-.402 1.459 0 .402.403.402 1.056 0 1.459M44 24.875V18.05c0-.58-.462-1.05-1.031-1.05H12.03c-.57 0-1.031.47-1.031 1.05v18.9c0 .58.462 1.05 1.031 1.05H42.97c.57 0 1.031-.47 1.031-1.05v-6.825c0-.58-.462-1.05-1.031-1.05-.853 0-1.547-.706-1.547-1.575s.694-1.575 1.547-1.575c.57 0 1.031-.47 1.031-1.05z"/>
                    </g>
                </g>
            </g>
        </g>
    </g>
</svg>
