<svg xmlns="http://www.w3.org/2000/svg" width="32" height="32" viewBox="0 0 32 32">
    <defs>
        <linearGradient id="jx6ihuuqaa" x1="100%" x2="0%" y1="29.737%" y2="76.446%">
            <stop offset="0%" stop-color="#0E0EAD"/>
            <stop offset="100%" stop-color="#000050"/>
        </linearGradient>
    </defs>
    <g fill="none" fill-rule="evenodd">
        <g fill="url(#jx6ihuuqaa)" transform="translate(-31 -569)">
            <g>
                <g>
                    <g>
                        <g>
                            <path d="M24.545 0C27.558 0 30 2.442 30 5.455v10.909c0 3.012-2.442 5.454-5.455 5.454H5.455C2.442 21.818 0 19.376 0 16.364V5.454C0 2.443 2.442 0 5.455 0h19.09zm-2.65 14.532c-.22-.154-.963-.327-1.504.164l-.96.96 2.418 2.417.103.092c.5.402 1.23.37 1.694-.092.496-.497.496-1.301 0-1.797l-.34-.34-.104-.104-.232-.232-.37-.37-.668-.667zm-1.85-1.857c-.493-.493-1.291-.493-1.784 0l-3.6 3.6c-.497.497-.497 1.302 0 1.798.496.496 1.3.496 1.796 0l3.595-3.595c.725-.725 1.398-.398 1.398-.398zm2.303-4.087l-1.404 1.404c-.493.493-.493 1.292 0 1.784l3.6 3.6c.497.497 1.302.497 1.798 0 .496-.495.496-1.3 0-1.796l-3.595-3.594c-.725-.726-.399-1.398-.399-1.398zm-7.968 2.575l-2.417 2.417-.093.103c-.401.5-.37 1.231.093 1.694.496.496 1.301.496 1.797 0l1.713-1.713.03-.037c.154-.221.328-.964-.164-1.505l-.959-.96zm-.62-4.771c-.496-.496-1.3-.496-1.797 0-.496.496-.496 1.3 0 1.797l3.594 3.594c.725.725.4 1.398.4 1.398l1.403-1.405c.494-.492.494-1.291 0-1.784zm12.582 0c-.496-.497-1.301-.497-1.797 0l-.012.01-.233.234-.678.678-.6.6-.057.057-.133.134-.03.037c-.155.22-.328.964.163 1.504l.96.96 2.417-2.417.092-.103c.402-.5.371-1.231-.092-1.694zm-2.696-2.696c-.496-.496-1.3-.496-1.797 0L18.255 7.29c-.726.726-1.398.4-1.398.4l1.404 1.404c.493.493 1.292.493 1.784 0l3.601-3.6c.496-.497.496-1.302 0-1.798zm-7.292-.093c-.498-.4-1.23-.37-1.693.093-.497.496-.497 1.3 0 1.797l1.713 1.713.037.03c.22.155.963.328 1.504-.164l.96-.959-2.417-2.417zM7.24 2.727H5.375c-.574 0-1.047.435-1.107.992l-.007.122v1.864c0 .574.435 1.046.992 1.107l.122.006h1.864c.574 0 1.046-.434 1.107-.992l.006-.121V3.84c0-.615-.498-1.114-1.113-1.114z" transform="translate(15 506) translate(1 56) translate(15 7) translate(1 5)"/>
                        </g>
                    </g>
                </g>
            </g>
        </g>
    </g>
</svg>
