<svg xmlns="http://www.w3.org/2000/svg" width="32" height="32" viewBox="0 0 32 32">
    <defs>
        <linearGradient id="wmoxhlsdua" x1="0%" x2="100%" y1="100%" y2="0%">
            <stop offset="0%" stop-color="#C06FFF"/>
            <stop offset="100%" stop-color="#D4AAFF"/>
        </linearGradient>
    </defs>
    <g fill="none" fill-rule="evenodd">
        <g fill="url(#wmoxhlsdua)" transform="translate(-31 -737)">
            <g>
                <g>
                    <g>
                        <g>
                            <path d="M17.297 21.843c.507 0 .917.407.917.91v2.338c0 .502-.41.909-.917.909h-2.356c-.506 0-.917-.407-.917-.91v-2.337c0-.503.41-.91.917-.91h2.356zm1.683-7.789c.776 0 1.404.624 1.404 1.393v3.583c0 .357-.136.684-.359.93.25-.234.589-.377.96-.377h3.61c.776 0 1.405.624 1.405 1.393v3.583c0 .77-.629 1.393-1.404 1.393h-3.61c-.776 0-1.405-.624-1.405-1.393v-3.583c0-.357.136-.684.36-.93-.251.234-.59.377-.96.377h-3.612c-.775 0-1.404-.624-1.404-1.393v-3.583c0-.769.63-1.393 1.404-1.393h3.611zm-9.514-.124c1.443 0 2.617 1.144 2.65 2.569l.001.06v6.763c0 1.432-1.154 2.597-2.59 2.63H2.652c-1.444 0-2.618-1.145-2.65-2.569L0 23.322V16.56c0-1.432 1.154-2.597 2.59-2.63H9.465zm-2.038 3.254H4.69c-.762 0-1.383.6-1.408 1.351V21.3c0 .756.604 1.372 1.36 1.397H7.43c.761 0 1.382-.6 1.407-1.35l.001-.047v-2.718c0-.756-.605-1.372-1.361-1.397l-.048-.001zm17.591-3.13c.506 0 .917.407.917.91v2.338c0 .502-.41.909-.917.909h-2.356c-.507 0-.917-.407-.917-.91v-2.337c0-.503.41-.91.917-.91h2.356zM9.466 0c1.443 0 2.617 1.145 2.65 2.569l.001.061v6.762c0 1.432-1.154 2.597-2.59 2.63H2.652c-1.444 0-2.618-1.144-2.65-2.569L0 9.393V2.63C0 1.198 1.154.033 2.59 0H9.465zM23.35 0c1.443 0 2.617 1.145 2.65 2.569V9.392c0 1.432-1.153 2.597-2.588 2.63H16.534c-1.444 0-2.618-1.144-2.65-2.569l-.001-.06V2.63c0-1.432 1.153-2.597 2.59-2.63H23.348zM7.43 3.254h-2.74c-.762 0-1.383.6-1.408 1.351V7.37c0 .756.604 1.372 1.36 1.397H7.43c.761 0 1.382-.6 1.407-1.35l.001-.047V4.652c0-.756-.605-1.372-1.361-1.397h-.048zm13.882 0h-2.739c-.762 0-1.383.6-1.408 1.351l-.001.047V7.37c0 .756.605 1.372 1.362 1.397h2.786c.762 0 1.383-.6 1.408-1.35V4.652c0-.756-.604-1.372-1.36-1.397h-.048z" transform="translate(15 506) translate(0 224) translate(16 7) translate(3 3)"/>
                        </g>
                    </g>
                </g>
            </g>
        </g>
    </g>
</svg>
