<svg xmlns="http://www.w3.org/2000/svg" width="25" height="24" viewBox="0 0 25 24">
    <g fill="none" fill-rule="evenodd">
        <g>
            <g>
                <g>
                    <g transform="translate(-17 -511) translate(0 325) translate(1 186) translate(16.428)">
                        <rect width="24" height="24" fill="#C2FFFA" rx="8"/>
                        <g>
                            <path fill="#0DAAD8" d="M2.969 3.438c-.345 0-.625-.28-.625-.626V.626c0-.345.28-.625.625-.625s.625.28.625.625v2.188c0 .345-.28.624-.625.624M5.938 3.438c-.345 0-.625-.28-.625-.626V.626c0-.345.28-.625.625-.625s.625.28.625.625v2.188c0 .345-.28.624-.625.624M8.906 3.438c-.345 0-.625-.28-.625-.626V.626c0-.345.28-.625.625-.625s.625.28.625.625v2.188c0 .345-.28.624-.625.624" transform="translate(6 5)"/>
                            <path fill="#00C6FF" d="M10.156 15H1.72C.77 15 0 14.23 0 13.281V3.125c0-.948.77-1.719 1.719-1.719h8.437c.948 0 1.719.77 1.719 1.719v10.156c0 .948-.77 1.719-1.719 1.719" transform="translate(6 5)"/>
                            <path fill="#FFF" d="M8.906 10.078h-6.25c-.345 0-.625-.28-.625-.625s.28-.625.625-.625h6.25c.345 0 .625.28.625.625s-.28.625-.625.625M8.906 7.578h-6.25c-.345 0-.625-.28-.625-.625s.28-.625.625-.625h6.25c.345 0 .625.28.625.625s-.28.625-.625.625" transform="translate(6 5)"/>
                        </g>
                    </g>
                </g>
            </g>
        </g>
    </g>
</svg>
