<svg xmlns="http://www.w3.org/2000/svg" xmlns:xlink="http://www.w3.org/1999/xlink" width="128" height="140" viewBox="0 0 128 140">
    <defs>
        <path id="azx0ip13ra" d="M0.206 0.326L103.011 0.326 103.011 139.272 0.206 139.272z"/>
        <path id="8tsqwrutgc" d="M0 139.31L127.074 139.31 127.074 0.365 0 0.365z"/>
    </defs>
    <g fill="none" fill-rule="evenodd">
        <g>
            <g>
                <g transform="translate(-124 -152) translate(82 152) translate(42)">
                    <g transform="translate(24.063 .038)">
                        <mask id="kcob9itbmb" fill="#fff">
                            <use xlink:href="#azx0ip13ra"/>
                        </mask>
                        <path fill="#F2F2F2" d="M9.45 128.01c2.003 5.048 5.105 9.817 13.378 10.82 8.273 1.002 17.92.764 28.503-5.744 5.393-3.316 13.686-17.066 15.647-41.073 1.806-22.116 17.339-26.18 24.035-32.363 6.695-6.184 17.736-19.361 8.413-42.002C90.104-4.993 53.492-.162 47.13 3.264 40.77 6.691 30.537 17.518 30.062 22.881 29.586 28.245 10.22 39.89 5.826 41.28 1.43 42.67.026 47.048.224 48.296c.198 1.248.397 8.268 9.459 7.093 1.384 7.338 2.22 11.986 9.18 19.475 6.963 7.49-1.566 24.47-6.95 29.938-5.385 5.468-2.464 23.208-2.464 23.208" mask="url(#kcob9itbmb)"/>
                    </g>
                    <path fill="#D8D8D8" d="M104.229 130.625H23.686V110.78c0-18.857 15.287-34.144 34.144-34.144h12.255c18.857 0 34.144 15.287 34.144 34.144v19.845z"/>
                    <mask id="xq80wye1vd" fill="#fff">
                        <use xlink:href="#8tsqwrutgc"/>
                    </mask>
                    <path fill="#FFF" d="M24.264 130.625L39.375 130.625 39.375 113.295 24.264 113.295zM88.149 130.625L103.26 130.625 103.26 113.295 88.149 113.295z" mask="url(#xq80wye1vd)"/>
                    <path fill="#E4EAEF" d="M63.684 86.233c-4.804 0-8.735-3.93-8.735-8.735v-1.724c0-4.805 3.93-8.735 8.735-8.735 4.804 0 8.735 3.93 8.735 8.735v1.724c0 4.805-3.93 8.735-8.735 8.735" mask="url(#xq80wye1vd)"/>
                    <path fill="#FFF" d="M89.104 46.14c0 15.905-11.268 28.799-25.167 28.799-13.9 0-25.168-12.894-25.168-28.799s11.268-28.798 25.168-28.798c13.899 0 25.167 12.893 25.167 28.798" mask="url(#xq80wye1vd)"/>
                    <path fill="#D8D8D8" d="M39.3 37.22c3.314.892 19.999.159 34.534-10.066 10.576 6.244 13.38 7.071 13.38 7.071.764 6.308 4.264 9.494 4.264 9.494l1.847 3.41c1.215-3.337 1.88-6.94 1.88-10.697 0-17.255-13.989-31.243-31.244-31.243S32.718 19.177 32.718 36.432c0 6.913 2.25 13.298 6.05 18.473-1.416-7.62-.39-14.112.532-17.685" mask="url(#xq80wye1vd)"/>
                    <path fill="#E4EAEF" d="M38.77 46.14c0-2.11.203-4.164.58-6.145-.851-.382-1.792-.6-2.785-.6-3.762 0-6.812 3.05-6.812 6.813s3.05 6.813 6.812 6.813c1.003 0 1.953-.222 2.81-.612-.392-2.019-.605-4.115-.605-6.269M91.478 39.395c-1.054 0-2.048.247-2.94.674.368 1.958.565 3.988.565 6.071 0 2.128-.207 4.199-.59 6.195.898.435 1.901.686 2.965.686 3.763 0 6.813-3.05 6.813-6.813s-3.05-6.813-6.813-6.813" mask="url(#xq80wye1vd)"/>
                    <path fill="#2DBB54" d="M71.301 77.44c0 4.085-3.323 7.408-7.407 7.408h-.152c-4.085 0-7.408-3.323-7.408-7.407v-2.336c.699.236 1.409.444 2.132.613.106.025.212.037.317.037.629 0 1.198-.432 1.347-1.07.175-.745-.288-1.49-1.033-1.665-10.976-2.57-18.942-13.996-18.942-27.169 0-3.801.647-7.48 1.915-10.94 2.726.402 5.237.584 7.552.583 10.644 0 17.221-3.743 22.366-6.673.425-.242.837-.476 1.24-.702 3.716 3.722 7.575 4.994 11.895 6.09.011.037.017.074.031.111 1.417 3.628 2.135 7.507 2.135 11.531 0 13.18-7.972 24.608-18.956 27.172-.745.174-1.208.919-1.034 1.664.15.64.719 1.07 1.348 1.07.104 0 .21-.01.316-.036.795-.185 1.573-.416 2.338-.681v2.4zM36.366 51.895c-3.104 0-5.63-2.526-5.63-5.63s2.526-5.63 5.63-5.63c.47 0 .932.06 1.382.173-.238 1.655-.364 3.338-.364 5.044 0 1.988.173 3.937.495 5.833-.49.136-.998.21-1.513.21zM89.707 40.86c.508-.147 1.034-.226 1.57-.226 3.104 0 5.629 2.526 5.629 5.63s-2.525 5.63-5.63 5.63c-.581 0-1.153-.09-1.702-.264.315-1.878.486-3.81.486-5.779 0-1.688-.12-3.354-.353-4.99zm6.49 46.016c-5.823-6.388-13.652-10.445-22.125-11.509v-1.405c0-.027-.007-.053-.009-.08 7.255-3.592 12.744-10.825 14.942-19.535.737.206 1.499.317 2.271.317 4.632 0 8.4-3.768 8.4-8.4 0-4.632-3.768-8.4-8.4-8.4-.703 0-1.398.09-2.072.262-.239-1.056-.53-2.096-.867-3.12.694.173 1.397.354 2.116.554.124.035.249.051.372.051.606 0 1.163-.402 1.334-1.014.204-.738-.227-1.501-.964-1.706-1.28-.357-2.504-.656-3.687-.946-5.096-1.248-9.121-2.234-12.99-6.488-.428-.472-1.124-.59-1.685-.286-.72.391-1.447.805-2.216 1.242-6.809 3.877-15.282 8.702-32.339 4.993-.75-.163-1.485.312-1.648 1.06-.163.748.312 1.486 1.06 1.648.543.118 1.078.227 1.605.329-.416 1.19-.767 2.403-1.047 3.636-.615-.141-1.245-.215-1.882-.215-.822 0-1.616.12-2.367.342-.028-.53-.044-1.061-.044-1.591 0-16.478 13.405-29.883 29.883-29.883 7.125 0 14.026 2.55 19.43 7.178 5.345 4.58 8.916 10.904 10.054 17.808.124.756.837 1.266 1.592 1.142.755-.124 1.266-.837 1.141-1.592-1.243-7.547-5.144-14.46-10.985-19.462C79.164 6.747 71.624 3.96 63.838 3.96c-18.006 0-32.654 14.649-32.654 32.654 0 .98.05 1.966.137 2.938-2.036 1.534-3.355 3.971-3.355 6.711 0 4.632 3.768 8.4 8.4 8.4.708 0 1.407-.092 2.087-.266 2.225 8.76 7.78 16.018 15.11 19.572v1.392c-8.42 1.05-16.202 5.057-22.025 11.38-6.151 6.68-9.539 15.33-9.539 24.356v19.442c0 .765.62 1.385 1.386 1.385.765 0 1.385-.62 1.385-1.385v-19.442c0-8.329 3.127-16.312 8.806-22.479 5.305-5.76 12.366-9.443 20.015-10.472.364 5.283 4.776 9.472 10.15 9.472h.153c5.372 0 9.782-4.184 10.15-9.464 7.697 1.042 14.8 4.769 20.106 10.588 5.606 6.148 8.693 14.088 8.693 22.355v19.527c0 .765.62 1.385 1.386 1.385.765 0 1.385-.62 1.385-1.385v-19.527c0-8.96-3.344-17.562-9.417-24.222z" mask="url(#xq80wye1vd)"/>
                    <path fill="#FFF" d="M13.634 55.725L1.832 75.214c-1.223 2.019.23 4.598 2.59 4.598h23.605c2.36 0 3.813-2.58 2.591-4.598L18.816 55.725c-1.18-1.947-4.003-1.947-5.182 0" mask="url(#xq80wye1vd)"/>
                    <path fill="#FF2812" d="M16.225 55.65c-.589 0-1.101.289-1.406.793L3.017 75.93c-.45.742-.168 1.407-.026 1.659.142.252.565.837 1.432.837h23.604c.867 0 1.29-.585 1.432-.837.142-.252.423-.917-.026-1.659L17.631 56.443c-.305-.504-.817-.793-1.406-.793zm11.802 25.548H4.423c-1.615 0-3.054-.84-3.846-2.248-.793-1.407-.767-3.073.07-4.454l11.802-19.488c.807-1.333 2.218-2.129 3.776-2.129 1.558 0 2.97.796 3.776 2.129l11.802 19.488c.837 1.381.863 3.047.07 4.454-.793 1.408-2.231 2.248-3.846 2.248z" mask="url(#xq80wye1vd)"/>
                    <path fill="#2DBB54" d="M100.695 72.777c-.653 0-1.185.532-1.185 1.185s.532 1.185 1.185 1.185c.654 0 1.185-.532 1.185-1.185s-.531-1.185-1.185-1.185m0 5.104c-2.16 0-3.919-1.758-3.919-3.919s1.758-3.92 3.92-3.92c2.16 0 3.919 1.759 3.919 3.92s-1.758 3.92-3.92 3.92M15.705 95.098c-.654 0-1.185.532-1.185 1.185 0 .654.531 1.185 1.185 1.185.653 0 1.184-.531 1.184-1.185 0-.653-.531-1.185-1.184-1.185m0 5.105c-2.162 0-3.92-1.758-3.92-3.92 0-2.161 1.758-3.92 3.92-3.92 2.16 0 3.919 1.759 3.919 3.92 0 2.162-1.758 3.92-3.92 3.92M31.212 9.406h-1.734v-1.69c0-.756-.612-1.368-1.367-1.368s-1.367.612-1.367 1.367v1.691h-1.691c-.755 0-1.367.612-1.367 1.367s.612 1.367 1.367 1.367h1.69v1.734c0 .755.613 1.367 1.368 1.367.755 0 1.367-.612 1.367-1.367V12.14h1.734c.755 0 1.367-.612 1.367-1.367s-.612-1.367-1.367-1.367M120.776 89.819h-.926v-.672c0-.755-.612-1.367-1.368-1.367-.755 0-1.367.612-1.367 1.367v.672h-.672c-.755 0-1.367.612-1.367 1.367s.612 1.367 1.367 1.367h.672v.927c0 .755.612 1.367 1.367 1.367.756 0 1.368-.612 1.368-1.367v-.927h.926c.755 0 1.367-.612 1.367-1.367s-.612-1.367-1.367-1.367M106.395 27.358h-.926v-.672c0-.755-.612-1.367-1.367-1.367s-1.368.612-1.368 1.367v.672h-.671c-.756 0-1.368.612-1.368 1.367s.612 1.367 1.368 1.367h.671v.927c0 .755.613 1.367 1.368 1.367.755 0 1.367-.612 1.367-1.367v-.927h.926c.755 0 1.367-.612 1.367-1.367s-.612-1.367-1.367-1.367" mask="url(#xq80wye1vd)"/>
                    <path fill="#FF2812" d="M14.932 66.12c-.09-1.851-.135-3.161-.135-3.928 0-.787.712-1.169 1.496-1.169.719 0 1.321.416 1.321 1.17 0 .766-.019 2.076-.057 3.928-.038 1.853-.058 3.156-.058 3.91 0 .582-.693.842-1.206.842-.819 0-1.228-.28-1.228-.843 0-.753-.045-2.056-.133-3.91M17.71 73.671c0 .785-.62 1.476-1.397 1.476-.903 0-1.573-.703-1.573-1.476 0-.798.644-1.475 1.573-1.475.78 0 1.397.694 1.397 1.475" mask="url(#xq80wye1vd)"/>
                </g>
            </g>
        </g>
    </g>
</svg>
