<svg xmlns="http://www.w3.org/2000/svg" xmlns:xlink="http://www.w3.org/1999/xlink" width="144" height="144" viewBox="0 0 144 144">
    <defs>
        <path id="rl6b2g0nqa" d="M0 0.573L121.591 0.573 121.591 127.5 0 127.5z"/>
    </defs>
    <g fill="none" fill-rule="evenodd">
        <g>
            <g>
                <g>
                    <g transform="translate(-116 -181) translate(116 181) translate(10.5 7.5) translate(0 .927)">
                        <mask id="6xxk5pyl3b" fill="#fff">
                            <use xlink:href="#rl6b2g0nqa"/>
                        </mask>
                        <path fill="#F2F2F2" d="M1.049 59.854c-2.429 8.262-.458 14.361 4.04 21.707 3.178 5.191 7.997 9.705 8.992 15.71.657 3.97-.485 8.081.249 12.035 1.31 7.062 8.113 11.694 14.745 14.453 10.348 4.303 22.94 5.791 32.26-.434 5.142-3.433 8.931-8.974 14.736-11.101 7.731-2.834 16.428 1.287 24.506-.308 6.573-1.299 11.93-6.316 15.243-12.142 5.325-9.366 6.06-20.624 5.691-31.39-.317-9.193-1.371-18.478-4.659-27.065-3.288-8.59-8.996-16.493-16.974-21.065-4.977-2.854-10.634-4.326-15.7-7.018-3.833-2.039-7.271-4.745-11.038-6.9-13.63-7.797-31.32-7.57-45.08-.006C14.3 13.89 5.78 23.11 3.508 38.646c-.684 4.67-.074 15.92-2.46 21.208" mask="url(#6xxk5pyl3b)"/>
                    </g>
                    <path stroke="#B2B2B2" stroke-dasharray="2.107" stroke-width=".655" d="M58.298 7.354s-3.183 13.774-10.073 17.275c-6.89 3.501-13.902-5.337-6.65-7.933 7.252-2.598 8.354 10.608-2.803 14.985-11.157 4.375-15.156 4.615-15.156 4.615" transform="translate(-116 -181) translate(116 181) translate(10.5 7.5)"/>
                    <g>
                        <g>
                            <path fill="#FFF" d="M0.459 1.341L12.638 1.341" transform="translate(-116 -181) translate(116 181) translate(10.5 7.5) translate(88.5 75.927) translate(13)"/>
                            <path stroke="#B2B2B2" stroke-linecap="round" stroke-linejoin="round" stroke-width=".5" d="M0.459 1.341L12.638 1.341" transform="translate(-116 -181) translate(116 181) translate(10.5 7.5) translate(88.5 75.927) translate(13)"/>
                        </g>
                        <g>
                            <path fill="#FFF" d="M0.495 1.555L27.602 1.555" transform="translate(-116 -181) translate(116 181) translate(10.5 7.5) translate(88.5 75.927) translate(0 4.5)"/>
                            <path stroke="#B2B2B2" stroke-linecap="round" stroke-linejoin="round" stroke-width=".5" d="M0.495 1.555L27.602 1.555" transform="translate(-116 -181) translate(116 181) translate(10.5 7.5) translate(88.5 75.927) translate(0 4.5)"/>
                        </g>
                    </g>
                    <path fill="#E2E2E2" d="M97.238 102.806c0 2.643-15.921 4.783-35.564 4.783-19.64 0-35.563-2.14-35.563-4.783 0-2.643 15.922-4.785 35.563-4.785 19.643 0 35.564 2.142 35.564 4.785" transform="translate(-116 -181) translate(116 181) translate(10.5 7.5)"/>
                    <path fill="#EFEFF0" d="M90.45 46.449v3.228h-3.198l-.038-.038-.039.038h-5.163l-.027-.026-.025.026h-2.78l-.103-.103-.104.103H76.91l-.012-.01-.012.01H74.98l-.008-.008-.009.008h-1.086v-3.228c0-4.576 3.711-8.286 8.288-8.286 2.287 0 4.36.929 5.859 2.427 1.498 1.498 2.427 3.571 2.427 5.859" transform="translate(-116 -181) translate(116 181) translate(10.5 7.5)"/>
                    <path fill="#FFF" d="M65.641 102.484c-.207 0-.375-.167-.375-.374s.165-.375.372-.376c2.096-.014 4.065-.837 5.546-2.316 1.336-1.338 2.15-3.108 2.295-4.985.013-.198.178-.348.373-.348.008 0 .018 0 .027.002.207.015.362.195.347.402-.338 4.558-4.005 7.995-8.532 7.995h-.053z" transform="translate(-116 -181) translate(116 181) translate(10.5 7.5)"/>
                    <path fill="#D8D8D8" d="M73.852 93.71c-.39 0-.719.3-.747.694-.137 1.788-.912 3.474-2.187 4.749-1.41 1.408-3.285 2.193-5.283 2.206-.413.003-.746.34-.744.753.001.413.336.747.75.747 4.779 0 8.608-3.586 8.96-8.344.03-.411-.281-.773-.694-.803l-.055-.001zm0 .75c-.317 4.28-3.794 7.65-8.157 7.65h-.054c2.272-.016 4.321-.941 5.808-2.428 1.359-1.359 2.247-3.187 2.403-5.221z" transform="translate(-116 -181) translate(116 181) translate(10.5 7.5)"/>
                    <path fill="#FFF" d="M65.386 102.509c-2.583-.015-5.016-.912-6.847-2.526-1.865-1.643-2.89-3.83-2.89-6.16v-2.828h-8.882c-.222 0-.4-.179-.4-.4V46.45c0-2.33 1.027-4.518 2.89-6.159 1.848-1.629 4.305-2.527 6.916-2.527h27.963c.22 0 .4.178.4.4 0 .22-.18.4-.4.4-4.965 0-9.003 3.538-9.003 7.886v47.373c0 .225-.012.45-.028.67-.179 2.074-1.194 4.022-2.862 5.49-1.83 1.615-4.265 2.512-6.85 2.527h-.007z" transform="translate(-116 -181) translate(116 181) translate(10.5 7.5)"/>
                    <path fill="#D8D8D8" d="M84.144 37.363H56.175c-2.71 0-5.26.933-7.184 2.628-1.948 1.717-3.022 4.012-3.022 6.459l-.002 44.145c0 .211.084.415.234.564.15.151.353.235.566.235h8.482v2.429c0 2.446 1.074 4.74 3.026 6.459 1.903 1.677 4.43 2.611 7.11 2.626 2.692-.015 5.22-.95 7.123-2.626 1.743-1.536 2.807-3.58 2.994-5.753.02-.234.03-.47.03-.706l.002-47.373c0-4.13 3.86-7.49 8.602-7.49.441 0 .803-.357.803-.798 0-.44-.353-.8-.795-.8m-.008.8c-5.193 0-9.402 3.711-9.402 8.288v47.373c0 .214-.01.429-.027.637-.175 2.036-1.185 3.864-2.727 5.223-1.686 1.485-4.012 2.41-6.59 2.426-2.57-.015-4.9-.94-6.589-2.426-1.7-1.5-2.75-3.571-2.75-5.86v-3.228h-9.284V46.45c0-2.29 1.053-4.362 2.754-5.86 1.7-1.5 4.051-2.428 6.654-2.428h27.961" transform="translate(-116 -181) translate(116 181) translate(10.5 7.5)"/>
                    <path fill="#D8D8D8" d="M59.835 99.683c-1.499-1.5-2.427-3.572-2.427-5.86v-3.229H48.14l-.01.006-.005-.006h-1.907l-.012.011-.013-.01H32.653v3.227c0 2.29.929 4.361 2.427 5.861 1.499 1.498 3.572 2.425 5.86 2.425H65.64c-2.266-.015-4.318-.939-5.806-2.425" transform="translate(-116 -181) translate(116 181) translate(10.5 7.5)"/>
                    <path stroke="#E2E2E2" stroke-linecap="round" stroke-linejoin="round" stroke-width="1.5" d="M52.422 52.779L69.746 52.779M52.422 59.113L63.131 59.113M52.422 66.969L69.746 66.969M52.422 73.303L63.131 73.303" transform="translate(-116 -181) translate(116 181) translate(10.5 7.5)"/>
                    <path fill="#0AB81F" d="M41.82 93.226c-1.385 2.287-2.852 4.512-4.344 6.717-1.494 2.202-3.02 4.38-4.57 6.54-1.559 2.154-3.13 4.299-4.734 6.417-.794 1.065-1.61 2.113-2.414 3.17-.393.538-.837 1.034-1.387 1.448-.273.209-.575.396-.903.561-.334.164-.688.31-1.121.395-1.176.23-2.315-.534-2.547-1.71-.017-.09-.03-.194-.036-.282-.029-.441.024-.82.096-1.184.076-.361.18-.7.314-1.017.26-.639.628-1.194 1.048-1.71.816-1.045 1.624-2.101 2.452-3.14 1.642-2.09 3.317-4.153 5.005-6.208 1.695-2.047 3.414-4.078 5.165-6.082 1.755-2.003 3.533-3.987 5.393-5.907.63-.653 1.671-.668 2.32-.038.561.543.651 1.39.263 2.03" transform="translate(-116 -181) translate(116 181) translate(10.5 7.5)"/>
                    <path fill="#0AB81F" d="M41.445 91.04c-5.646-4.354-6.693-12.462-2.339-18.108 4.356-5.647 12.464-6.693 18.11-2.338 5.646 4.354 6.696 12.463 2.338 18.108-4.354 5.647-12.462 6.693-18.109 2.338m17.879-23.18c-7.155-5.52-17.43-4.192-22.95 2.963-5.519 7.155-4.193 17.432 2.963 22.95 7.157 5.52 17.432 4.193 22.952-2.96 5.519-7.157 4.191-17.432-2.965-22.952" transform="translate(-116 -181) translate(116 181) translate(10.5 7.5)"/>
                    <path fill="#FFF" d="M62.243 80.817c0 7.131-5.781 12.912-12.912 12.912-7.131 0-12.912-5.78-12.912-12.912 0-7.13 5.78-12.912 12.912-12.912 7.13 0 12.912 5.781 12.912 12.912" transform="translate(-116 -181) translate(116 181) translate(10.5 7.5)"/>
                    <path fill="#0AB81F" d="M91.771 34.673c0 4.796-3.886 8.682-8.68 8.682-4.796 0-8.682-3.886-8.682-8.682 0-4.794 3.886-8.68 8.682-8.68 4.794 0 8.68 3.886 8.68 8.68" transform="translate(-116 -181) translate(116 181) translate(10.5 7.5)"/>
                    <path stroke="#FFF" stroke-linecap="round" stroke-linejoin="round" stroke-width="1.482" d="M79.106 38.719L87.074 30.628M87.073 38.719L79.105 30.628" transform="translate(-116 -181) translate(116 181) translate(10.5 7.5)"/>
                </g>
            </g>
        </g>
    </g>
</svg>
