<svg xmlns="http://www.w3.org/2000/svg" width="32" height="32" viewBox="0 0 32 32">
    <g fill="none" fill-rule="evenodd">
        <g>
            <g>
                <path d="M0 0H32V32H0z" transform="translate(-15 -48) translate(15 48)"/>
                <path fill="#FFF" d="M28 15H8.05l7.64-7.276c.4-.38.415-1.014.034-1.414-.38-.4-1.013-.415-1.414-.034l-8.724 8.31C5.209 14.964 5 15.466 5 16c0 .534.209 1.037.604 1.431l8.707 8.293c.193.185.44.276.689.276.264 0 .528-.104.725-.31.38-.4.365-1.033-.035-1.414L8.02 17H28c.552 0 1-.448 1-1s-.448-1-1-1" transform="translate(-15 -48) translate(15 48)"/>
            </g>
        </g>
    </g>
</svg>
