<svg xmlns="http://www.w3.org/2000/svg" xmlns:xlink="http://www.w3.org/1999/xlink" width="200" height="200" viewBox="0 0 200 200">
    <defs>
        <path id="yxldsyfq7a" d="M0 0.046L187.169 0.046 187.169 85.428 0 85.428z"/>
        <path id="xfrkxvr98c" d="M0.053 0.298L155.161 0.298 155.161 22.556 0.053 22.556z"/>
        <path id="rvbw59mcae" d="M0.377 0.148L25.669 0.148 25.669 13.178 0.377 13.178z"/>
    </defs>
    <g fill="none" fill-rule="evenodd">
        <g>
            <g>
                <g>
                    <g transform="translate(-87 -290) translate(87 290) translate(6.25 26.563) translate(0 47.784)">
                        <mask id="usgr8u0peb" fill="#fff">
                            <use xlink:href="#yxldsyfq7a"/>
                        </mask>
                        <path fill="#F4F4F4" d="M30.43 85.428h126.308c16.807 0 30.431-13.374 30.431-29.87v-22.45C161.761 12.459 129.15.047 93.585.047 58.02.046 25.409 12.458 0 33.109v22.448c0 16.497 13.624 29.871 30.43 29.871" mask="url(#usgr8u0peb)"/>
                    </g>
                    <path fill="#FFF" d="M94.758 48.089h47.503c.957 0 1.732.775 1.732 1.732v69.967c0 3.301-2.676 5.977-5.976 5.977h-32.984c-7.033 0-12.734-5.702-12.734-12.736V50.548c0-1.358 1.1-2.46 2.459-2.46" transform="translate(-87 -290) translate(87 290) translate(6.25 26.563)"/>
                    <path fill="#F4F4F4" d="M92.903 48.089h50.161c.513 0 .93.415.93.929v71.048c0 3.148-2.552 5.699-5.699 5.699h-34.394c-6.408 0-11.602-5.195-11.602-11.603V48.693c0-.334.27-.604.604-.604" transform="translate(-87 -290) translate(87 290) translate(6.25 26.563)"/>
                    <path fill="#D6D6D6" d="M97.3 48.089h45.96c.404 0 .733.328.733.734v71.438c0 3.04-2.464 5.504-5.504 5.504H108.3c-6.3 0-11.409-5.108-11.409-11.409V48.5c0-.227.184-.41.41-.41" transform="translate(-87 -290) translate(87 290) translate(6.25 26.563)"/>
                    <path fill="#F4F4F4" d="M104.104 125.752v.013h41.521c4.78 0 8.653-3.875 8.653-8.653v-3.287h-41.99v3.287c0 4.621-3.623 8.395-8.184 8.64" transform="translate(-87 -290) translate(87 290) translate(6.25 26.563)"/>
                    <path fill="#E2E2E2" d="M109.609 125.752v.013h36.966c4.254 0 7.704-3.875 7.704-8.653v-3.287h-37.384v3.287c0 4.621-3.225 8.395-7.286 8.64" transform="translate(-87 -290) translate(87 290) translate(6.25 26.563)"/>
                    <path fill="#FFF" d="M136.147 104.872h-29.854c-.206 0-.372-.167-.372-.372 0-.206.166-.373.372-.373h29.854c.206 0 .372.167.372.373 0 .205-.166.372-.372.372" transform="translate(-87 -290) translate(87 290) translate(6.25 26.563)"/>
                    <path stroke="#FFF" stroke-width="1.805" d="M136.147 104.872h-29.854c-.206 0-.372-.167-.372-.372 0-.206.166-.373.372-.373h29.854c.206 0 .372.167.372.373 0 .205-.166.372-.372.372z" transform="translate(-87 -290) translate(87 290) translate(6.25 26.563)"/>
                    <path fill="#FFF" d="M136.773 92.302h-31.038c-.206 0-.373-.167-.373-.372 0-.206.167-.373.373-.373h31.038c.206 0 .372.167.372.373 0 .205-.166.372-.372.372" transform="translate(-87 -290) translate(87 290) translate(6.25 26.563)"/>
                    <path stroke="#FFF" stroke-width="1.805" d="M136.773 92.302h-31.038c-.206 0-.373-.167-.373-.372 0-.206.167-.373.373-.373h31.038c.206 0 .372.167.372.373 0 .205-.166.372-.372.372z" transform="translate(-87 -290) translate(87 290) translate(6.25 26.563)"/>
                    <path fill="#FFF" d="M121.22 98.582h-15.86c-.206 0-.372-.167-.372-.373 0-.205.166-.372.372-.372h15.86c.205 0 .372.167.372.372 0 .206-.167.373-.372.373" transform="translate(-87 -290) translate(87 290) translate(6.25 26.563)"/>
                    <path stroke="#FFF" stroke-width="1.805" d="M121.22 98.582h-15.86c-.206 0-.372-.167-.372-.373 0-.205.166-.372.372-.372h15.86c.205 0 .372.167.372.372 0 .206-.167.373-.372.373z" transform="translate(-87 -290) translate(87 290) translate(6.25 26.563)"/>
                    <path fill="#FFF" d="M120.018 98.582h-13.457c-.205 0-.372-.167-.372-.373 0-.205.167-.372.372-.372h13.457c.206 0 .373.167.373.372 0 .206-.167.373-.373.373" transform="translate(-87 -290) translate(87 290) translate(6.25 26.563)"/>
                    <path stroke="#FFF" stroke-width="1.805" d="M120.018 98.582h-13.457c-.205 0-.372-.167-.372-.373 0-.205.167-.372.372-.372h13.457c.206 0 .373.167.373.372 0 .206-.167.373-.373.373z" transform="translate(-87 -290) translate(87 290) translate(6.25 26.563)"/>
                    <path fill="#FFF" d="M126.383 78.862H105.95c-.206 0-.373-.167-.373-.372 0-.206.167-.373.373-.373h20.432c.205 0 .372.167.372.373 0 .205-.167.372-.372.372" transform="translate(-87 -290) translate(87 290) translate(6.25 26.563)"/>
                    <path stroke="#FFF" stroke-width="1.805" d="M126.383 78.862H105.95c-.206 0-.373-.167-.373-.372 0-.206.167-.373.373-.373h20.432c.205 0 .372.167.372.373 0 .205-.167.372-.372.372z" transform="translate(-87 -290) translate(87 290) translate(6.25 26.563)"/>
                    <path fill="#FFF" d="M135.854 78.862h-6.223c-.206 0-.372-.167-.372-.372 0-.206.166-.373.372-.373h6.223c.206 0 .373.167.373.373 0 .205-.167.372-.373.372" transform="translate(-87 -290) translate(87 290) translate(6.25 26.563)"/>
                    <path stroke="#FFF" stroke-width="1.805" d="M135.854 78.862h-6.223c-.206 0-.372-.167-.372-.372 0-.206.166-.373.372-.373h6.223c.206 0 .373.167.373.373 0 .205-.167.372-.373.372z" transform="translate(-87 -290) translate(87 290) translate(6.25 26.563)"/>
                    <path fill="#FFF" d="M136.773 85.141H114.65c-.206 0-.372-.166-.372-.372 0-.205.166-.372.372-.372h22.124c.206 0 .372.167.372.372 0 .206-.166.372-.372.372" transform="translate(-87 -290) translate(87 290) translate(6.25 26.563)"/>
                    <path stroke="#FFF" stroke-width="1.805" d="M136.773 85.141H114.65c-.206 0-.372-.166-.372-.372 0-.205.166-.372.372-.372h22.124c.206 0 .372.167.372.372 0 .206-.166.372-.372.372z" transform="translate(-87 -290) translate(87 290) translate(6.25 26.563)"/>
                    <path fill="#FFF" d="M112.463 85.141h-6.728c-.206 0-.372-.166-.372-.372 0-.205.166-.372.372-.372h6.728c.206 0 .372.167.372.372 0 .206-.166.372-.372.372" transform="translate(-87 -290) translate(87 290) translate(6.25 26.563)"/>
                    <path stroke="#FFF" stroke-width="1.805" d="M112.463 85.141h-6.728c-.206 0-.372-.166-.372-.372 0-.205.166-.372.372-.372h6.728c.206 0 .372.167.372.372 0 .206-.166.372-.372.372z" transform="translate(-87 -290) translate(87 290) translate(6.25 26.563)"/>
                    <path fill="#FFF" d="M136.147 73.545h-29.854c-.206 0-.372-.167-.372-.373 0-.205.166-.372.372-.372h29.854c.206 0 .372.167.372.372 0 .206-.166.373-.372.373" transform="translate(-87 -290) translate(87 290) translate(6.25 26.563)"/>
                    <path stroke="#FFF" stroke-width="1.805" d="M136.147 73.545h-29.854c-.206 0-.372-.167-.372-.373 0-.205.166-.372.372-.372h29.854c.206 0 .372.167.372.372 0 .206-.166.373-.372.373z" transform="translate(-87 -290) translate(87 290) translate(6.25 26.563)"/>
                    <path fill="#FFF" d="M136.147 60.974h-29.854c-.206 0-.372-.166-.372-.372 0-.205.166-.372.372-.372h29.854c.206 0 .372.167.372.372 0 .206-.166.372-.372.372" transform="translate(-87 -290) translate(87 290) translate(6.25 26.563)"/>
                    <path stroke="#FFF" stroke-width="1.805" d="M136.147 60.974h-29.854c-.206 0-.372-.166-.372-.372 0-.205.166-.372.372-.372h29.854c.206 0 .372.167.372.372 0 .206-.166.372-.372.372z" transform="translate(-87 -290) translate(87 290) translate(6.25 26.563)"/>
                    <path fill="#FFF" d="M117.25 67.254h-11.3c-.205 0-.372-.166-.372-.372 0-.205.167-.372.372-.372h11.3c.205 0 .372.167.372.372 0 .206-.167.372-.372.372" transform="translate(-87 -290) translate(87 290) translate(6.25 26.563)"/>
                    <path stroke="#FFF" stroke-width="1.805" d="M117.25 67.254h-11.3c-.205 0-.372-.166-.372-.372 0-.205.167-.372.372-.372h11.3c.205 0 .372.167.372.372 0 .206-.167.372-.372.372z" transform="translate(-87 -290) translate(87 290) translate(6.25 26.563)"/>
                    <path fill="#FFF" d="M135.92 67.254h-13.457c-.206 0-.372-.166-.372-.372 0-.205.166-.372.372-.372h13.457c.205 0 .372.167.372.372 0 .206-.167.372-.372.372" transform="translate(-87 -290) translate(87 290) translate(6.25 26.563)"/>
                    <path stroke="#FFF" stroke-width="1.805" d="M135.92 67.254h-13.457c-.206 0-.372-.166-.372-.372 0-.205.166-.372.372-.372h13.457c.205 0 .372.167.372.372 0 .206-.167.372-.372.372z" transform="translate(-87 -290) translate(87 290) translate(6.25 26.563)"/>
                    <path fill="#FFF" d="M87.076 60.537h32.539c.655 0 1.187.531 1.187 1.187v47.927c0 2.26-1.833 4.094-4.094 4.094H94.115c-4.818 0-8.724-3.906-8.724-8.724v-42.8c0-.93.755-1.684 1.685-1.684" transform="translate(-87 -290) translate(87 290) translate(6.25 26.563)"/>
                    <path fill="#F4F4F4" d="M85.806 60.537h34.36c.35 0 .636.285.636.637v48.667c0 2.156-1.748 3.904-3.904 3.904H93.34c-4.39 0-7.948-3.56-7.948-7.948V60.95c0-.228.186-.414.415-.414" transform="translate(-87 -290) translate(87 290) translate(6.25 26.563)"/>
                    <path stroke="#B2B2B2" stroke-width="1.203" d="M88.818 60.537h31.48c.278 0 .504.226.504.503v48.934c0 2.083-1.688 3.77-3.77 3.77h-20.68c-4.316 0-7.816-3.498-7.816-7.814V60.818c0-.155.126-.28.282-.28z" transform="translate(-87 -290) translate(87 290) translate(6.25 26.563)"/>
                    <path fill="#F4F4F4" d="M93.478 113.736v.009h28.441c3.274 0 5.928-2.654 5.928-5.928v-2.251H99.084v2.251c0 3.166-2.482 5.751-5.606 5.919" transform="translate(-87 -290) translate(87 290) translate(6.25 26.563)"/>
                    <path fill="#E2E2E2" d="M94.021 113.736v.009h25.321c2.914 0 5.277-2.654 5.277-5.928v-2.251H99.012v2.251c0 3.166-2.21 5.751-4.99 5.919M115.427 99.433h-20.45c-.14 0-.255-.114-.255-.255 0-.14.115-.255.255-.255h20.45c.141 0 .255.114.255.255 0 .141-.114.255-.255.255M115.856 90.823h-21.26c-.142 0-.256-.114-.256-.255 0-.14.114-.255.255-.255h21.261c.141 0 .255.114.255.255 0 .14-.114.255-.255.255M105.202 95.124H94.338c-.14 0-.255-.114-.255-.255 0-.14.114-.255.255-.255h10.864c.141 0 .255.114.255.255 0 .141-.114.255-.255.255" transform="translate(-87 -290) translate(87 290) translate(6.25 26.563)"/>
                    <path fill="#E2E2E2" d="M104.38 95.124H95.16c-.14 0-.255-.114-.255-.255 0-.14.115-.255.255-.255h9.218c.14 0 .255.114.255.255 0 .141-.114.255-.255.255M108.738 81.617H94.743c-.14 0-.255-.115-.255-.256 0-.14.114-.254.255-.254h13.995c.141 0 .256.114.256.254 0 .141-.115.256-.256.256M115.226 81.617h-4.263c-.14 0-.254-.115-.254-.256 0-.14.114-.254.254-.254h4.263c.141 0 .256.114.256.254 0 .141-.115.256-.256.256M115.856 85.918h-15.155c-.141 0-.255-.114-.255-.255 0-.14.114-.255.255-.255h15.155c.141 0 .255.114.255.255 0 .141-.114.255-.255.255M99.204 85.918h-4.609c-.14 0-.255-.114-.255-.255 0-.14.114-.255.255-.255h4.609c.14 0 .255.114.255.255 0 .141-.114.255-.255.255M115.427 77.974h-20.45c-.14 0-.255-.114-.255-.255 0-.14.115-.255.255-.255h20.45c.141 0 .255.114.255.255 0 .141-.114.255-.255.255M115.427 69.364h-20.45c-.14 0-.255-.114-.255-.255 0-.14.115-.255.255-.255h20.45c.141 0 .255.114.255.255 0 .14-.114.255-.255.255M102.482 73.666h-7.74c-.14 0-.254-.114-.254-.255 0-.141.114-.255.255-.255h7.74c.14 0 .255.114.255.255 0 .14-.115.255-.256.255M115.271 73.666h-9.217c-.141 0-.255-.114-.255-.255 0-.141.114-.255.255-.255h9.217c.141 0 .256.114.256.255 0 .14-.115.255-.256.255" transform="translate(-87 -290) translate(87 290) translate(6.25 26.563)"/>
                    <g transform="translate(-87 -290) translate(87 290) translate(6.25 26.563) translate(15.977 124.852)">
                        <mask id="kugyb8eljd" fill="#fff">
                            <use xlink:href="#xfrkxvr98c"/>
                        </mask>
                        <path fill="#D1D1D1" d="M155.161 11.427c0 6.146-34.722 11.13-77.554 11.13S.053 17.573.053 11.427C.053 5.281 34.775.298 77.607.298s77.554 4.983 77.554 11.13" mask="url(#kugyb8eljd)"/>
                    </g>
                    <path fill="#E2E2E2" d="M29.617 43.053c3.513 0 3.707-5.945.198-6.137-.095-.006-.192-.008-.289-.008-.626 0-1.23.112-1.795.316-.47-3.218-2.953-5.673-5.947-5.673-3.06 0-5.587 2.564-5.975 5.887-.726-.392-1.54-.611-2.398-.611-.48 0-.946.068-1.39.197-3.072.89-2.427 6.029.745 6.029h16.851z" transform="translate(-87 -290) translate(87 290) translate(6.25 26.563)"/>
                    <g transform="translate(-87 -290) translate(87 290) translate(6.25 26.563) translate(72.368 .321)">
                        <mask id="560semi8sf" fill="#fff">
                            <use xlink:href="#rvbw59mcae"/>
                        </mask>
                        <path fill="#E2E2E2" d="M22.571 13.178c3.98 0 4.2-6.735.225-6.952-.108-.006-.217-.009-.328-.009-.71 0-1.392.126-2.033.358C19.903 2.93 17.091.148 13.7.148c-3.467 0-6.328 2.906-6.768 6.67-.822-.444-1.744-.693-2.717-.693-.543 0-1.071.078-1.574.224-3.48 1.007-2.75 6.829.844 6.829h19.087z" mask="url(#560semi8sf)"/>
                    </g>
                    <path stroke="#B2B2B2" stroke-dasharray="4.314" stroke-width="1.343" d="M174.116 47.857s-22.785 4.515-32.675-3.446c-9.891-7.962-1.377-24.43 7.404-15.315 8.78 9.115-10.264 19.672-24.343 5.904s-17.135-19.597-17.135-19.597" transform="translate(-87 -290) translate(87 290) translate(6.25 26.563)"/>
                    <g>
                        <path fill="#FFF" d="M7.486.117h6.001s5.95.13 4.208 7.385c-1.74 7.254-9.43 34.385-9.43 34.385S7.142 46.01 1.61 44.674C-3.923 43.338 7.486.117 7.486.117" transform="translate(-87 -290) translate(87 290) translate(6.25 26.563) translate(127.35 84.908)"/>
                        <path stroke="#B2B2B2" stroke-width="1.26" d="M7.486.117h6.001s5.95.13 4.208 7.385c-1.74 7.254-9.43 34.385-9.43 34.385S7.142 46.01 1.61 44.674C-3.923 43.338 7.486.117 7.486.117" transform="translate(-87 -290) translate(87 290) translate(6.25 26.563) translate(127.35 84.908)"/>
                    </g>
                    <path fill="#0AB822" d="M63.573 72.976h24.589l9.6 9.442h31.94s4.944-.95 5.133 4.943v39.372s.711 5.465-5.875 5.186H61.403s-4.234-.035-4.155-5.019V77.86s.462-5.713 6.325-4.884" transform="translate(-87 -290) translate(87 290) translate(6.25 26.563)"/>
                    <path stroke="#FFF" stroke-linecap="round" stroke-width="3.492" d="M94.13 100.403L94.13 109.773 104.009 109.773M76.117 103.619L80.313 107.437 84.806 104.364" transform="translate(-87 -290) translate(87 290) translate(6.25 26.563)"/>
                    <path stroke="#FFF" stroke-linecap="round" stroke-width="3.492" d="M80.313 106.26c0-8.692 7.047-15.74 15.74-15.74 8.692 0 15.74 7.048 15.74 15.74 0 8.693-7.048 15.74-15.74 15.74-5.433 0-10.224-2.752-13.052-6.94" transform="translate(-87 -290) translate(87 290) translate(6.25 26.563)"/>
                    <path fill="#FFF" d="M32.2 114.132c-.632 0-1.256-.167-1.807-.483-.841-.484-1.443-1.266-1.696-2.203-.253-.936-.126-1.915.358-2.756l15.259-26.546c.036-.063.103-.099.172-.099.033 0 .067.008.098.026l5.954 3.423c.046.026.079.07.093.12.013.05.006.105-.02.15L35.352 112.31c-.646 1.124-1.854 1.823-3.152 1.823" transform="translate(-87 -290) translate(87 290) translate(6.25 26.563)"/>
                    <path fill="#B6B6B7" d="M44.486 81.847c-.137 0-.27.071-.343.199l-15.26 26.545c-.51.887-.643 1.919-.377 2.907.266.987.902 1.812 1.789 2.322.58.333 1.239.51 1.905.51 1.369 0 2.642-.736 3.323-1.922l15.26-26.545c.052-.091.066-.2.038-.3-.027-.102-.093-.188-.184-.24L44.682 81.9c-.062-.036-.13-.053-.196-.053m0 .396l5.954 3.423-15.26 26.545c-.635 1.105-1.79 1.723-2.98 1.723-.58 0-1.169-.147-1.708-.457-1.644-.945-2.211-3.045-1.266-4.689l15.26-26.545" transform="translate(-87 -290) translate(87 290) translate(6.25 26.563)"/>
                    <path fill="#FFF" d="M59.957 43.89c-6.508 0-12.563 3.5-15.803 9.137-5.003 8.704-1.993 19.857 6.711 24.86 2.76 1.587 5.892 2.426 9.058 2.426 6.508 0 12.563-3.502 15.803-9.138 2.424-4.216 3.06-9.124 1.793-13.82-1.268-4.695-4.288-8.616-8.505-11.04-2.76-1.586-5.892-2.425-9.057-2.425m-9.031 43.448c-.348 0-.692-.092-.996-.265l-6.251-3.594c-.463-.266-.795-.697-.934-1.213-.14-.516-.07-1.055.196-1.519.33-.573.927-.945 1.581-.996-8.43-7.34-10.506-19.57-4.898-29.328 4.17-7.253 11.963-11.758 20.338-11.758 4.073 0 8.104 1.08 11.656 3.121 5.426 3.12 9.313 8.165 10.944 14.208 1.632 6.042.812 12.36-2.307 17.785-4.17 7.253-11.962 11.758-20.335 11.758h-.002c-2.467 0-4.896-.386-7.23-1.15.32.597.326 1.335-.026 1.948-.356.62-1.021 1.003-1.736 1.003" transform="translate(-87 -290) translate(87 290) translate(6.25 26.563)"/>
                    <path fill="#B6B6B7" d="M59.923 80.115c-3.13 0-6.228-.83-8.959-2.4-4.17-2.397-7.158-6.275-8.412-10.92-1.254-4.644-.624-9.499 1.774-13.67 3.204-5.574 9.193-9.038 15.63-9.038 3.132 0 6.23.83 8.96 2.4 8.61 4.949 11.588 15.98 6.639 24.59-3.205 5.574-9.195 9.038-15.632 9.038m.039-41.648c-8.446 0-16.304 4.543-20.509 11.857-2.797 4.866-3.772 10.58-2.746 16.09.95 5.106 3.558 9.76 7.38 13.214-.549.154-1.027.516-1.317 1.02-.604 1.052-.24 2.398.81 3.002l6.251 3.594c.334.191.712.292 1.094.292.786 0 1.517-.422 1.908-1.102.31-.54.367-1.166.198-1.73 2.23.685 4.542 1.031 6.887 1.031 8.446 0 16.304-4.543 20.509-11.857 3.145-5.472 3.972-11.842 2.326-17.936-1.645-6.094-5.564-11.182-11.036-14.327-3.582-2.06-7.648-3.148-11.755-3.148m-.04 42.043c6.374 0 12.572-3.314 15.975-9.236 5.066-8.813 2.03-20.064-6.784-25.13-2.892-1.662-6.044-2.452-9.156-2.452-6.373 0-12.57 3.314-15.975 9.236-5.066 8.813-2.028 20.065 6.786 25.13 2.89 1.662 6.043 2.452 9.155 2.452m.039-41.647c3.926 0 7.908.997 11.557 3.095 11.125 6.395 14.96 20.598 8.564 31.723-4.297 7.475-12.12 11.659-20.165 11.659-2.614 0-5.253-.442-7.801-1.357.632.555.809 1.496.373 2.253-.333.58-.94.905-1.565.905-.304 0-.613-.077-.896-.24l-6.251-3.594c-.863-.496-1.16-1.598-.665-2.461.333-.58.94-.903 1.563-.903.148 0 .297.019.444.056-8.572-7.081-11.052-19.513-5.324-29.477 4.298-7.476 12.12-11.66 20.166-11.66" transform="translate(-87 -290) translate(87 290) translate(6.25 26.563)"/>
                    <path fill="#E2E2E2" d="M43.778 83.307L43.918 97.05 49.73 86.94z" transform="translate(-87 -290) translate(87 290) translate(6.25 26.563)"/>
                    <g fill="#BFBFBF">
                        <path d="M6.058 6.379L6.535 5.548.552 2.176.075 3.006zM7.124 4.523L7.602 3.692 1.619.32 1.141 1.15z" transform="translate(-87 -290) translate(87 290) translate(6.25 26.563) translate(30.075 104.175)"/>
                    </g>
                    <path fill="#F0F0F0" d="M78.226 62.225c0 10.099-8.187 18.286-18.286 18.286-10.099 0-18.286-8.187-18.286-18.286 0-10.1 8.187-18.286 18.286-18.286 10.1 0 18.286 8.187 18.286 18.286" transform="translate(-87 -290) translate(87 290) translate(6.25 26.563)"/>
                    <path fill="#B2B2B2" d="M52.137 63.482c0 1.278-1.036 2.314-2.316 2.314-1.278 0-2.314-1.036-2.314-2.314 0-1.28 1.036-2.316 2.314-2.316 1.28 0 2.316 1.036 2.316 2.316M61.584 63.482c0 1.278-1.037 2.314-2.315 2.314-1.279 0-2.316-1.036-2.316-2.314 0-1.28 1.037-2.316 2.316-2.316 1.278 0 2.315 1.036 2.315 2.316M71.031 63.482c0 1.278-1.037 2.314-2.315 2.314S66.4 64.76 66.4 63.482c0-1.28 1.037-2.316 2.315-2.316s2.315 1.036 2.315 2.316" transform="translate(-87 -290) translate(87 290) translate(6.25 26.563)"/>
                </g>
            </g>
        </g>
    </g>
</svg>
