<svg xmlns="http://www.w3.org/2000/svg" width="16" height="22" viewBox="0 0 16 22">
    <g fill="none" fill-rule="evenodd">
        <g fill="#0CAA26">
            <g>
                <g>
                    <g>
                        <g>
                            <g>
                                <path d="M14.67 0h-1.836v6.21c0 .437-.441.653-.783.105l-1.212-1.94-1.212 1.94c-.345.546-.783.332-.783-.104V0H2.69C1.204.004 0 1.21 0 2.698v15.927c.004 1.485 1.206 2.687 2.69 2.691h11.982c.327 0 .641-.131.872-.363.233-.231.363-.545.364-.873V1.239C15.907.555 15.353 0 14.669 0zm.23 18.116l-11.69.015c-.255.017-.458.22-.475.475-.02.282.193.526.475.546H14.9l-.003.94c0 .056-.022.11-.06.15-.04.04-.095.061-.15.061H2.69c-.92 0-1.667-.746-1.667-1.667 0-.92.746-1.666 1.667-1.666h11.995c.117.001.212.096.213.213v.933z" transform="translate(-330 -241) translate(15 103) translate(0 79) translate(1) translate(0 50) translate(314 9)"/>
                            </g>
                        </g>
                    </g>
                </g>
            </g>
        </g>
    </g>
</svg>
