<svg xmlns="http://www.w3.org/2000/svg" width="24" height="24" viewBox="0 0 24 24">
    <g fill="none" fill-rule="evenodd">
        <g>
            <g>
                <g>
                    <g transform="translate(-17 -468) translate(0 325) translate(0 143) translate(17)">
                        <rect width="24" height="24" fill="#E6C2FF" rx="8"/>
                        <g transform="translate(6 5)">
                            <path fill="#B365EA" d="M8.635 8.071c-.478 0-.866-.384-.866-.858V3.794c0-1.147-.938-2.078-2.095-2.078-1.158 0-2.096.93-2.096 2.078v3.42c0 .475-.387.859-.865.859s-.866-.384-.866-.858v-3.42c0-1.356.73-2.609 1.913-3.287 1.184-.677 2.643-.677 3.827 0C8.77 1.186 9.5 2.438 9.5 3.794v3.42c0 .474-.388.857-.865.857z"/>
                            <ellipse cx="5.383" cy="10.313" fill="#FFF" rx="2.217" ry="2.188"/>
                            <path fill="#B365EA" d="M11.308 11.294l-.512-3.038c-.22-1.298-1.45-2.275-2.745-2.266l-4.793.032C1.976 6.03.765 7.015.548 8.305l-.509 3.013c-.289 1.717 1.073 3.261 2.495 3.261l6.236.004c1.428.001 2.831-1.555 2.538-3.29zm-5.196-.246v.504c0 .236-.196.428-.438.429-.242-.001-.437-.193-.438-.43v-.501c-.524-.187-.871-.675-.87-1.22 0-.714.584-1.293 1.305-1.293.72 0 1.306.58 1.306 1.294.001.543-.344 1.029-.865 1.217z"/>
                            <path fill="#9B50D0" fill-rule="nonzero" d="M3.578 6.019v1.207c0 .468-.387.847-.865.847s-.866-.38-.866-.847v-.76c.428-.278.93-.441 1.444-.445l.287-.002zm4.415-.03c.538-.003 1.064.167 1.508.46l-.001.777c0 .467-.388.845-.865.845-.478 0-.866-.379-.866-.846V5.991z"/>
                        </g>
                    </g>
                </g>
            </g>
        </g>
    </g>
</svg>
