<svg xmlns="http://www.w3.org/2000/svg" width="56" height="56" viewBox="0 0 56 56">
    <defs>
        <linearGradient id="h7a0l0svca" x1="16.953%" x2="100%" y1="10.342%" y2="74.5%">
            <stop offset="0%" stop-color="#FBB5FF"/>
            <stop offset="100%" stop-color="#D000FA"/>
        </linearGradient>
    </defs>
    <g fill="none" fill-rule="evenodd">
        <g>
            <g>
                <g transform="translate(-206 -419) translate(9 293) translate(197 126)">
                    <rect width="56" height="56" fill="#FBEFFF" rx="20"/>
                    <path fill="url(#h7a0l0svca)" d="M38 33.852c0 .703-.56 1.273-1.25 1.273s-1.25-.57-1.25-1.273V22.398c0-.703.56-1.273 1.25-1.273s1.25.57 1.25 1.273v11.454zm-4.375-5.013c0 .71-.56 1.286-1.25 1.286s-1.25-.576-1.25-1.286v-6.428c0-.71.56-1.286 1.25-1.286s1.25.576 1.25 1.286v6.428zm0 5.086c0 .662-.56 1.2-1.25 1.2s-1.25-.538-1.25-1.2v-.6c0-.662.56-1.2 1.25-1.2s1.25.538 1.25 1.2v.6zm-4.375-2.063c0 .697-.56 1.263-1.25 1.263s-1.25-.566-1.25-1.263v-9.474c0-.697.56-1.263 1.25-1.263s1.25.566 1.25 1.263v9.474zm-4.375-5.01c0 .703-.56 1.273-1.25 1.273s-1.25-.57-1.25-1.273v-4.454c0-.703.56-1.273 1.25-1.273s1.25.57 1.25 1.273v4.454zm0 7.023c0 .69-.56 1.25-1.25 1.25s-1.25-.56-1.25-1.25v-2.5c0-.69.56-1.25 1.25-1.25s1.25.56 1.25 1.25v2.5zm-4.375-.023c0 .703-.56 1.273-1.25 1.273S18 34.555 18 33.852V22.398c0-.703.56-1.273 1.25-1.273s1.25.57 1.25 1.273v11.454zM40.5 17h-25c-1.379 0-2.5 1.047-2.5 2.333v16.334C13 36.953 14.121 38 15.5 38h25c1.379 0 2.5-1.047 2.5-2.333V19.333C43 18.047 41.879 17 40.5 17z"/>
                </g>
            </g>
        </g>
    </g>
</svg>
