<svg xmlns="http://www.w3.org/2000/svg" xmlns:xlink="http://www.w3.org/1999/xlink" width="24" height="24" viewBox="0 0 24 24">
    <defs>
        <path id="wvgo20clua" d="M8.72.213c-.101.06-.99.725-2.274.715C5.163.938 4.273.273 4.172.213c-.1-.06-.16-.255-.677-.161S2.528.28 1.81.682C1.092 1.086.431 1.935.28 2.207c-.15.272-.392.594-.221.876 0 0 .332.579.94 1.231.95 1.022 2.2 1.691 3.247 2.013 1.047.323 2.2.327 2.2.327s1.153-.004 2.2-.327c1.047-.322 2.297-.991 3.248-2.013.607-.652.94-1.231.94-1.231.17-.282-.071-.604-.222-.876-.151-.272-.812-1.12-1.53-1.523C10.364.28 9.914.146 9.397.052 9.3.034 9.218.027 9.15.027c-.294 0-.349.137-.43.186"/>
    </defs>
    <g fill="none" fill-rule="evenodd">
        <g>
            <g>
                <g>
                    <g transform="translate(-17 -335) translate(0 325) translate(1 10) translate(16)">
                        <rect width="24" height="24" fill="#FFE9D8" rx="8"/>
                        <g>
                            <path fill="#FF7113" d="M12.612 9.93c-.151-.272-.812-1.12-1.53-1.523-.718-.403-1.168-.537-1.685-.63-.516-.095-.577.1-.677.16-.101.06-.99.725-2.274.715-1.283.01-2.173-.654-2.274-.715-.1-.06-.16-.255-.677-.16-.517.093-.967.227-1.685.63C1.092 8.81.431 9.658.28 9.93c-.15.272-.392.594-.221.876 0 0 .332.579.94 1.231.95 1.022 2.2 1.692 3.247 2.014 1.047.322 2.2.326 2.2.326s1.153-.004 2.2-.326c1.047-.322 2.297-.992 3.248-2.014.607-.652.94-1.231.94-1.231.17-.282-.071-.604-.222-.876" transform="translate(5.4 4.8)"/>
                            <g transform="translate(5.4 4.8) translate(0 7.724)">
                                <mask id="z9pt1lqhyb" fill="#fff">
                                    <use xlink:href="#wvgo20clua"/>
                                </mask>
                                <path fill="#CD4409" d="M12.175-3.365c0 3.173-2.572 5.745-5.745 5.745C3.256 2.38.684-.192.684-3.365c0-3.174 2.572-5.746 5.746-5.746 3.173 0 5.745 2.572 5.745 5.746" mask="url(#z9pt1lqhyb)"/>
                            </g>
                            <path fill="#FF7113" d="M10.182 3.759c0 2.072-1.68 3.752-3.752 3.752-2.073 0-3.753-1.68-3.753-3.752 0-2.073 1.68-3.753 3.753-3.753 2.072 0 3.752 1.68 3.752 3.753" transform="translate(5.4 4.8)"/>
                        </g>
                    </g>
                </g>
            </g>
        </g>
    </g>
</svg>
