<svg width="16" height="16" xmlns="http://www.w3.org/2000/svg">
    <path d="M9.207 11.898c.603-.55 1.447-.305 1.612-.14l.218.217 1.15 1.15.192.192.233.233a1.33 1.33 0 0 1-1.88 1.88L8.203 12.9zm-.362-2.115 1.47 1.47s-.705-.342-1.463.417l-3.76 3.76a1.33 1.33 0 1 1-1.88-1.88l3.766-3.767a1.32 1.32 0 0 1 1.867 0zm2.41-4.276s-.342.704.417 1.463l3.76 3.76a1.33 1.33 0 1 1-1.88 1.88L9.785 8.843a1.32 1.32 0 0 1 0-1.866l1.47-1.47zM2.917 8.2l1.004 1.004c.548.603.305 1.448.14 1.612l-.218.218-1.15 1.15-.192.192-.233.233a1.33 1.33 0 0 1-1.88-1.88L2.919 8.2zM2.269 3.21l3.767 3.767a1.32 1.32 0 0 1 0 1.867l-1.47 1.47s.342-.704-.416-1.463L.39 5.09a1.33 1.33 0 1 1 1.88-1.88zm11.283 0a1.33 1.33 0 0 1 1.88 1.88l-2.53 2.53L11.9 6.613c-.55-.603-.306-1.447-.14-1.612l.534-.535.364-.364zm-.94-2.82a1.33 1.33 0 0 1 0 1.88L8.845 6.036a1.32 1.32 0 0 1-1.867 0L5.51 4.566s.704.342 1.462-.416l3.76-3.76a1.33 1.33 0 0 1 1.88 0zm-9.4 0a1.33 1.33 0 0 1 1.88 0L7.62 2.92 6.617 3.92c-.604.55-1.448.306-1.613.141l-.058-.058-.477-.477-.364-.364-.469-.469-.425-.424a1.33 1.33 0 0 1 0-1.88z" fill="#A5AEB8" fill-rule="evenodd"/>
</svg>
