<svg width="120" height="120" viewBox="0 0 120 120" xmlns="http://www.w3.org/2000/svg">
    <g fill="none" fill-rule="evenodd">
        <path d="M65.54 34.214c-15.89-3.246-22.242-14.056-40.31-9.07C9.233 29.57-.517 47.29 8.289 62.123c2.513 4.227 6.787 7.42 8.539 12.163 2.818 7.602-1.47 13.487-.64 20.99 3.48 31.169 51.166 19.089 68.709 9.396 27.514-15.204 46.13-49.041 25.137-65.15-14.587-11.198-28.725-2.083-44.493-5.307z" fill-opacity=".2" fill="#000" fill-rule="nonzero" opacity=".15"/>
        <g fill="#00BE00">
            <path d="M8.848 31.916a3.555 3.555 0 0 1-3.304-2.168 3.54 3.54 0 0 1 .752-3.874 3.56 3.56 0 0 1 3.877-.782 3.546 3.546 0 0 1-1.325 6.824M3.812 86.007A3.31 3.31 0 0 1 .73 83.991a3.297 3.297 0 0 1 .698-3.61 3.316 3.316 0 0 1 3.613-.73A3.302 3.302 0 0 1 7.09 82.71a3.292 3.292 0 0 1-3.278 3.298M98.293 93.142h-1.591v-1.563a1.253 1.253 0 0 0-.607-1.141 1.26 1.26 0 0 0-1.295 0c-.399.239-.632.678-.607 1.141v1.563h-1.566c-.698 0-1.264.564-1.264 1.26 0 .696.566 1.26 1.264 1.26h1.551v1.6c-.025.463.209.902.607 1.141.399.24.897.24 1.295 0 .399-.24.632-.678.607-1.142v-1.598h1.592c.698 0 1.264-.565 1.264-1.26 0-.697-.566-1.261-1.264-1.261M97.503 7.024h-.892v-.622a1.317 1.317 0 0 0-1.317-1.246c-.7 0-1.28.548-1.316 1.246v.622h-.645c-.704 0-1.275.569-1.275 1.271s.571 1.272 1.275 1.272h.645v.857a1.317 1.317 0 0 0 1.316 1.246c.701 0 1.28-.547 1.317-1.246v-.872h.892c.704 0 1.275-.57 1.275-1.271 0-.703-.57-1.272-1.275-1.272M18.306 95.12h-.994v-.726c0-.809-.658-1.464-1.468-1.464-.81 0-1.468.655-1.468 1.464v.727h-.728c-.817 0-1.479.66-1.479 1.475 0 .814.662 1.475 1.479 1.475h.728v.999c0 .808.657 1.464 1.468 1.464.81 0 1.468-.656 1.468-1.464v-1h.994c.816 0 1.478-.66 1.478-1.474 0-.815-.662-1.475-1.478-1.475M94.99 57.376c.002 14.797-8.932 28.138-22.636 33.802-13.703 5.664-29.478 2.536-39.967-7.927a36.52 36.52 0 0 1-7.952-39.87c5.676-13.67 19.049-22.585 33.882-22.585 20.252 0 36.67 16.377 36.673 36.58"/>
        </g>
        <path d="M74.138 46.02a2.841 2.841 0 0 1 0 4.028L54.982 69.162a2.867 2.867 0 0 1-4.042 0l-9.105-9.083a2.844 2.844 0 0 1 0-4.029 2.86 2.86 0 0 1 4.039 0l7.101 7.085L70.1 46.019a2.864 2.864 0 0 1 4.038 0" stroke="#FFF" stroke-width="2.169" fill="#FFF"/>
    </g>
</svg>
