<svg xmlns="http://www.w3.org/2000/svg" width="32" height="32" viewBox="0 0 32 32">
    <g fill="none" fill-rule="evenodd">
        <g>
            <g>
                <path fill="#FF83C0" d="M15.973 0C7.143 0 0 7.145 0 15.973c0 8.829 7.145 15.973 15.973 15.973 8.829 0 15.973-7.146 15.973-15.973C31.946 7.143 24.8 0 15.973 0" transform="translate(-1157 -543) translate(1157 543)"/>
                <path fill="#FFF" d="M20.36 22.487c-.159.176-1.112.235-2.693-.422-2.997-1.244-6.107-4.508-7.381-6.945-.406-.776-1.303-3.078-.805-3.527.204-.193 1.574-1.592 1.924-1.931.933 1.768 1.387 2.595 1.538 2.932-.268.414-1.126.739-1.126 1.755.377 1.985 2.96 4.419 4.505 5.324 1.575.924 2.08.307 2.654-.282.512-.525.468-.493.522-.498l2.819 1.657c-.33.345-1.729 1.697-1.957 1.937m1.219-4.548c-.783-.464-2.15-1.597-3.425-.384l-.629.643c-1.157-.549-3.216-2.536-3.75-3.79 1.892-1.72 1.016-2.333-.844-5.866-.318-.548-.833-.912-1.462-.912-.77 0-1.07.38-2.171 1.493-1.378 1.393-2.186 1.831-1.668 4.193C9.105 20.038 18.945 26.77 21.732 23.76c2.276-2.26 2.715-2.475 2.582-3.497-.168-1.018-.95-1.268-2.735-2.324" transform="translate(-1157 -543) translate(1157 543)"/>
            </g>
        </g>
    </g>
</svg>
