<svg xmlns="http://www.w3.org/2000/svg" width="14" height="20" viewBox="0 0 14 20">
    <g fill="none" fill-rule="evenodd">
        <g fill="#FFF" fill-rule="nonzero">
            <g>
                <g>
                    <g>
                        <path d="M11.866 19.933c.652 0 1.138-.167 1.457-.5.32-.333.48-.85.48-1.55v-7.307c0-.701-.16-1.218-.48-1.551-.255-.267-.617-.427-1.086-.48l-.038-.003V6.089c0-.93-.139-1.74-.416-2.43-.278-.69-.658-1.265-1.14-1.723-.482-.458-1.025-.801-1.629-1.03C8.41.677 7.786.562 7.141.562c-.653 0-1.28.115-1.884.344-.604.229-1.145.572-1.624 1.03-.479.458-.859 1.033-1.14 1.723-.28.69-.421 1.5-.421 2.43v2.495l-.097.017c-.374.073-.687.22-.939.44-.378.329-.567.84-.567 1.535v7.306c0 .701.161 1.218.484 1.551.322.333.806.5 1.452.5h9.461zM3.82 8.543V5.893c0-.791.153-1.46.458-2.004.306-.545.71-.956 1.213-1.233.503-.278 1.053-.417 1.65-.417.596 0 1.146.14 1.65.417.502.277.905.688 1.207 1.233.302.545.453 1.213.453 2.004v2.636l-6.631.016z" transform="translate(-139 -692) translate(15 458) translate(1 221) translate(123 13)"/>
                    </g>
                </g>
            </g>
        </g>
    </g>
</svg>
