<svg xmlns="http://www.w3.org/2000/svg" width="16" height="16" viewBox="0 0 16 16">
    <g fill="none" fill-rule="evenodd">
        <g>
            <g>
                <g>
                    <g>
                        <path d="M0 0H16V16H0z" transform="translate(-261.000000, -130.000000) translate(15.000000, 97.000000) translate(180.000000, 0.500000) translate(66.000000, 32.500000)"/>
                        <path fill="#181A41" fill-rule="nonzero" d="M12.444 2.143c.195-.19.5-.19.69 0 .194.19.194.505 0 .695L11.95 4.033c.943.866 1.743 2.034 2.341 3.438.052.125.052.269 0 .387-1.392 3.268-3.87 5.223-6.627 5.223-1.262 0-2.465-.413-3.525-1.168l-1.261 1.273c-.098.099-.221.145-.345.145-.124 0-.254-.046-.345-.145-.162-.164-.188-.426-.058-.617l.02-.026 9.618-9.705c.013-.013.026-.026.032-.04.013-.012.026-.025.033-.038zm-4.778.114c.93 0 1.834.223 2.666.643L8.16 5.092c-.156-.027-.325-.046-.494-.046-1.437 0-2.601 1.174-2.601 2.624 0 .17.02.341.045.499l-2.406 2.428c-.65-.761-1.216-1.68-1.665-2.736-.052-.119-.052-.263 0-.388 1.392-3.267 3.87-5.216 6.62-5.216zM9.81 6.19l-.709.716c.117.223.182.485.182.76 0 .9-.728 1.635-1.619 1.635-.273 0-.533-.066-.754-.184l-.71.715c.417.282.924.453 1.464.453 1.43 0 2.595-1.175 2.595-2.618 0-.545-.17-1.057-.449-1.477z" transform="translate(-261.000000, -130.000000) translate(15.000000, 97.000000) translate(180.000000, 0.500000) translate(66.000000, 32.500000)"/>
                    </g>
                </g>
            </g>
        </g>
    </g>
</svg>
