<svg xmlns="http://www.w3.org/2000/svg" width="120" height="120" viewBox="0 0 120 120">
    <g fill="none" fill-rule="evenodd">
        <g>
            <g>
                <g>
                    <g>
                        <path fill="#000" fill-opacity=".2" fill-rule="nonzero" d="M64.362 1.14C42.246 7.61 46.678 23.078 44.203 40.179c-3.08 21.338-16.431 10.398-31.755 21.92-26.499 19.924-7.278 63.877 25.658 57.223 17.475-3.55 21.025-16.43 28.173-30.192 9.218-17.789 24.51-12.937 38.224-24.58 27.809-23.57-8.766-72.634-40.14-63.408" opacity=".15" transform="translate(-127.000000, -224.000000) translate(-0.000000, 0.000000) translate(127.000000, 224.000000) translate(2.812500, 0.000000)"/>
                        <path fill="#DDD" d="M66.238 103.643H24.473c-3.79-.009-6.86-3.02-6.874-6.738v-82.97c.013-3.72 3.084-6.73 6.874-6.738h41.765c3.79.009 6.86 3.019 6.874 6.737v82.971c-.014 3.719-3.084 6.729-6.874 6.738" transform="translate(-127.000000, -224.000000) translate(-0.000000, 0.000000) translate(127.000000, 224.000000) translate(2.812500, 0.000000)"/>
                        <path fill="#E8E8E8" d="M73.047 16.657H17.6V13.82c0-3.657 2.965-6.622 6.623-6.622h42.194c1.758-.002 3.445.694 4.689 1.937 1.243 1.242 1.942 2.927 1.942 4.685v2.838z" transform="translate(-127.000000, -224.000000) translate(-0.000000, 0.000000) translate(127.000000, 224.000000) translate(2.812500, 0.000000)"/>
                        <path fill="#D1D1D1" d="M49.2 13.31h-7.997c-.417.035-.818-.167-1.038-.523-.22-.356-.22-.806 0-1.162.22-.356.621-.558 1.038-.523h7.998c.416-.035.818.167 1.037.523.22.356.22.806 0 1.162-.22.356-.62.558-1.037.523M55.338 12.218c0 .442-.267.84-.676 1.01-.409.168-.879.073-1.19-.241-.312-.314-.403-.785-.232-1.192.172-.408.572-.672 1.014-.669.6.005 1.084.492 1.084 1.092" transform="translate(-127.000000, -224.000000) translate(-0.000000, 0.000000) translate(127.000000, 224.000000) translate(2.812500, 0.000000)"/>
                        <path fill="#E9E9E9" d="M45.32 29.327c-9.182 0-17.46 5.531-20.972 14.013-3.513 8.482-1.57 18.245 4.924 24.735 6.493 6.491 16.257 8.43 24.739 4.915 8.481-3.515 14.01-11.794 14.006-20.974-.013-12.528-10.169-22.68-22.698-22.689m0 46.897c-13.362 0-24.194-10.831-24.194-24.192S31.957 27.84 45.319 27.84c13.362 0 24.194 10.83 24.194 24.192-.035 13.346-10.847 24.157-24.194 24.192" transform="translate(-127.000000, -224.000000) translate(-0.000000, 0.000000) translate(127.000000, 224.000000) translate(2.812500, 0.000000)"/>
                        <path fill="#E9E9E9" d="M45.32 35.327c-9.218.004-16.686 7.478-16.683 16.694.003 9.216 7.476 16.685 16.693 16.684 9.217-.002 16.687-7.473 16.687-16.69-.009-9.216-7.48-16.684-16.698-16.688m0 34.881c-10.048 0-18.194-8.145-18.194-18.192 0-10.048 8.146-18.193 18.194-18.193 10.048 0 18.194 8.145 18.194 18.193-.013 10.042-8.151 18.18-18.194 18.192" transform="translate(-127.000000, -224.000000) translate(-0.000000, 0.000000) translate(127.000000, 224.000000) translate(2.812500, 0.000000)"/>
                        <path fill="#E9E9E9" d="M45.32 41.553c-5.78 0-10.465 4.684-10.465 10.463 0 5.778 4.685 10.463 10.464 10.463 5.779 0 10.464-4.685 10.464-10.463-.027-5.768-4.696-10.437-10.464-10.463m0 22.421c-6.604-.004-11.955-5.36-11.952-11.964.003-6.603 5.359-11.954 11.963-11.953 6.604.001 11.957 5.355 11.957 11.959-.01 6.604-5.363 11.954-11.968 11.958" transform="translate(-127.000000, -224.000000) translate(-0.000000, 0.000000) translate(127.000000, 224.000000) translate(2.812500, 0.000000)"/>
                        <path fill="#FFF" d="M86.859 36.732c.003 5.577-3.355 10.606-8.509 12.74-5.153 2.133-11.084.95-15.024-2.998-3.94-3.948-5.11-9.88-2.966-15.029 2.144-5.148 7.18-8.496 12.758-8.481 7.593.016 13.74 6.175 13.74 13.768" transform="translate(-127.000000, -224.000000) translate(-0.000000, 0.000000) translate(127.000000, 224.000000) translate(2.812500, 0.000000)"/>
                        <g fill="#0AB81F">
                            <g>
                                <path fill-rule="nonzero" d="M59.475 42.411c4.56-.002 8.936 1.808 12.161 5.032 3.226 3.224 5.039 7.598 5.039 12.158 0 9.499-7.7 17.199-17.2 17.199H17.192c-4.561 0-8.935-1.813-12.16-5.038-3.224-3.226-5.034-7.6-5.032-12.16 0-9.494 7.697-17.19 17.192-17.19h42.283zM42.122 18.03l-.286-.805c-.625-1.875-2.582-2.933-4.466-2.413-.952.303-1.743.984-2.191 1.888-.449.904-.517 1.954-.189 2.91l1.329 3.742c.073.18.07.384-.01.561-.081.178-.231.313-.415.374-.177.075-.376.072-.551-.007-.175-.08-.31-.23-.371-.414l-1.273-3.573c-.93-2.494.155-5.295 2.509-6.482 1.28-.616 2.757-.655 4.068-.108 1.31.546 2.332 1.628 2.814 2.98l.333.935c.072.184.065.391-.021.57-.087.178-.243.31-.432.365-.18.048-.373.019-.533-.08-.16-.098-.274-.259-.315-.444z" transform="translate(-127.000000, -224.000000) translate(-0.000000, 0.000000) translate(127.000000, 224.000000) translate(2.812500, 0.000000) translate(34.200365, 14.237472)"/>
                                <path fill-rule="nonzero" d="M38.254 17.911h2.17c2.19 0 3.966 1.776 3.966 3.967v6.764c0 2.19-1.776 3.967-3.967 3.967h-2.17c-2.19 0-3.967-1.776-3.967-3.967v-6.764c0-2.19 1.777-3.967 3.968-3.967z" transform="translate(-127.000000, -224.000000) translate(-0.000000, 0.000000) translate(127.000000, 224.000000) translate(2.812500, 0.000000) translate(34.200365, 14.237472) translate(39.338401, 25.260008) rotate(-89.900000) translate(-39.338401, -25.260008)"/>
                                <path d="M60.81 14.29l-4.796.46c-.603.027-1.07.537-1.043 1.14.027.603.537 1.07 1.14 1.043h.105l4.803-.452c.568-.098.964-.617.909-1.19-.055-.573-.543-1.006-1.119-.994M57.21 6.293c-.185-.224-.453-.365-.743-.39-.29-.027-.578.064-.8.252l-3.542 2.943c-.356.295-.488.78-.33 1.215.158.433.571.721 1.033.718.254 0 .5-.088.695-.25l3.542-2.952c.465-.384.53-1.072.146-1.536M47.758.002c-.29-.018-.575.082-.791.277-.216.194-.345.468-.357.758l-.26 5.086c-.015.29.086.573.28.789.194.215.466.344.756.36h.057c.583.004 1.065-.453 1.091-1.036l.259-5.086c.018-.29-.082-.575-.277-.791-.194-.216-.468-.345-.758-.357" transform="translate(-127.000000, -224.000000) translate(-0.000000, 0.000000) translate(127.000000, 224.000000) translate(2.812500, 0.000000) translate(34.200365, 14.237472)"/>
                            </g>
                            <path d="M38.742 42.411h20.733c4.56-.002 8.936 1.808 12.161 5.032 3.226 3.224 5.039 7.598 5.039 12.158 0 9.499-7.7 17.199-17.2 17.199H17.192c-4.561 0-8.935-1.813-12.16-5.038-3.224-3.226-5.034-7.6-5.032-12.16 0-9.494 7.697-17.19 17.192-17.19h10.512" transform="translate(-127.000000, -224.000000) translate(-0.000000, 0.000000) translate(127.000000, 224.000000) translate(2.812500, 0.000000) translate(34.200365, 14.237472)"/>
                        </g>
                        <path fill="#FFF" fill-rule="nonzero" d="M91.545 67.322c.6 0 1.087.487 1.087 1.087v3.549l3.072-1.772c.52-.3 1.185-.122 1.485.398.28.485.144 1.097-.298 1.42l-.1.065-3.073 1.774 3.074 1.774c.485.28.673.878.452 1.38l-.054.106c-.3.52-.966.698-1.486.398l-3.072-1.774v3.55c0 .6-.487 1.087-1.087 1.087-.601 0-1.088-.487-1.088-1.088v-3.55l-3.078 1.777c-.52.3-1.185.122-1.485-.398-.3-.52-.123-1.185.398-1.486l3.076-1.776-3.076-1.776c-.52-.3-.698-.965-.398-1.485.3-.52.966-.699 1.486-.399l3.077 1.777v-3.55c0-.601.487-1.088 1.088-1.088zM72.448 67.053c.6 0 1.087.487 1.087 1.088v3.548l3.072-1.772c.52-.3 1.185-.122 1.485.398.28.486.144 1.098-.298 1.421l-.1.065-3.073 1.773 3.074 1.775c.485.28.673.878.452 1.38l-.054.105c-.3.52-.966.699-1.486.398l-3.072-1.774v3.55c0 .6-.487 1.088-1.087 1.088-.601 0-1.088-.487-1.088-1.088v-3.55l-3.078 1.777c-.52.3-1.185.122-1.485-.398-.3-.52-.123-1.186.398-1.486l3.076-1.777-3.076-1.775c-.52-.3-.698-.966-.398-1.486.3-.52.965-.698 1.486-.398l3.077 1.776v-3.55c0-.6.487-1.088 1.088-1.088zM53.53 67.322c.601 0 1.088.487 1.088 1.087v3.549l3.079-1.776c.52-.3 1.185-.122 1.485.398.28.485.144 1.097-.298 1.42l-.1.065-3.072 1.773 3.07 1.772c.485.28.673.879.452 1.38l-.054.106c-.3.52-.965.698-1.486.398l-3.077-1.776.001 3.558c0 .601-.487 1.088-1.087 1.088s-1.088-.487-1.088-1.088v-3.55l-3.071 1.773c-.52.3-1.185.122-1.486-.398-.3-.52-.122-1.185.398-1.486l3.077-1.777-3.079-1.778c-.52-.3-.698-.965-.398-1.485.3-.52.966-.699 1.486-.398l3.072 1.773.001-3.54c0-.601.487-1.088 1.088-1.088zM74.917 38.104c0-.752-.617-1.362-1.378-1.362-.761 0-1.378.61-1.378 1.362.007.422.214.816.56 1.064l-.452 3.085h2.518l-.43-3.085c.347-.247.555-.642.56-1.064z" transform="translate(-127.000000, -224.000000) translate(-0.000000, 0.000000) translate(127.000000, 224.000000) translate(2.812500, 0.000000)"/>
                    </g>
                </g>
            </g>
        </g>
    </g>
</svg>
