<svg xmlns="http://www.w3.org/2000/svg" width="13" height="13" viewBox="0 0 13 13">
    <g fill="none" fill-rule="evenodd">
        <g fill="#B7B7B7" fill-rule="nonzero">
            <path d="M880.5 359c-3.584 0-6.5 2.916-6.5 6.5s2.916 6.5 6.5 6.5 6.5-2.916 6.5-6.5-2.916-6.5-6.5-6.5zm0 10.292c-.299 0-.542-.243-.542-.542 0-.299.243-.542.542-.542.299 0 .542.243.542.542 0 .299-.243.542-.542.542zm.857-3.444c-.191.088-.315.281-.315.492v.243c0 .3-.242.542-.542.542-.3 0-.542-.243-.542-.542v-.243c0-.632.372-1.212.946-1.476.552-.254.95-.929.95-1.26 0-.746-.607-1.354-1.354-1.354-.747 0-1.354.608-1.354 1.354 0 .3-.242.542-.542.542-.3 0-.542-.243-.542-.542 0-1.344 1.094-2.437 2.438-2.437s2.438 1.093 2.438 2.437c0 .732-.635 1.808-1.58 2.244z" transform="translate(-874 -359)"/>
        </g>
    </g>
</svg>
