<svg xmlns="http://www.w3.org/2000/svg" width="32" height="32" viewBox="0 0 32 32">
    <g fill="none" fill-rule="evenodd">
        <g fill="#FFF">
            <g>
                <g>
                    <path d="M1.964 26.873v-4.546L8.4 15.855l5.49 5.49c.365.364.983.364 1.383 0l8.109-8.145 6.036 6.036V26.873c0 .873-.363 1.672-.945 2.254-.582.582-1.382.946-2.255.946H5.128c-.873 0-1.673-.364-2.255-.946-.582-.618-.91-1.381-.91-2.254zm.909-23.964c.582-.582 1.382-.945 2.254-.945h21.091c.873 0 1.673.363 2.255.945.582.582.945 1.382.945 2.255v11.345l-5.345-5.382c-.364-.363-.982-.4-1.382 0l-8.11 8.146-5.49-5.491c-.364-.364-.982-.4-1.382 0l-5.745 5.782V5.127c0-.872.327-1.636.909-2.218zM26.218 32c1.418 0 2.691-.582 3.637-1.49.945-.946 1.49-2.219 1.49-3.637V5.127c0-1.418-.581-2.69-1.49-3.636C28.909.545 27.636 0 26.218 0H5.128C3.708 0 2.435.582 1.49 1.49.545 2.437 0 3.71 0 5.128v21.709c0 1.419.582 2.691 1.49 3.637.946.945 2.22 1.49 3.637 1.49h21.091V32zM14.4 8.327c1.446 0 2.618 1.172 2.618 2.618 0 1.447-1.172 2.619-2.618 2.619s-2.618-1.172-2.618-2.619c0-1.446 1.172-2.618 2.618-2.618" transform="translate(-29 -717) translate(15 717) translate(14)"/>
                </g>
            </g>
        </g>
    </g>
</svg>
