<svg xmlns="http://www.w3.org/2000/svg" width="7" height="13" viewBox="0 0 7 13">
    <g fill="none" fill-rule="evenodd">
        <g fill="#787878">
            <g>
                <g>
                    <path d="M4.14 10c-.22 0-.44-.084-.608-.252l-5.28-5.28c-.336-.336-.336-.88 0-1.216.336-.336.88-.336 1.216 0L4.14 7.924l4.672-4.672c.336-.336.88-.336 1.216 0 .336.336.336.88 0 1.216l-5.28 5.28C4.58 9.916 4.36 10 4.14 10z" transform="translate(-329 -499) translate(14 469) translate(314.364 30.367) matrix(0 1 1 0 -2.36 2.36)"/>
                </g>
            </g>
        </g>
    </g>
</svg>
