<svg xmlns="http://www.w3.org/2000/svg" width="25" height="24" viewBox="0 0 25 24">
    <g fill="none" fill-rule="evenodd">
        <g>
            <g>
                <g>
                    <g transform="translate(-17 -424) translate(0 325) translate(1 99) translate(16.428)">
                        <rect width="24" height="24" fill="#F0E3FF" rx="8"/>
                        <g fill-rule="nonzero">
                            <g>
                                <path fill="#B87AFF" d="M8.759.018c-3.86-.011-7.02 2.987-7.269 6.78H.48c-.369 0-.6.4-.415.719L1.19 9.466l1.126 1.949c.184.32.645.32.83 0L4.27 9.466l1.125-1.95c.184-.318-.046-.718-.415-.718H3.783C4.03 4.253 6.201 2.262 8.82 2.305c2.65.043 4.817 2.182 4.893 4.831.08 2.81-2.182 5.123-4.975 5.123-.716 0-1.397-.153-2.013-.426-.535-.237-1.162-.033-1.454.474-.339.586-.098 1.34.52 1.615.901.4 1.898.622 2.947.622 4.006 0 7.255-3.243 7.263-7.247C16.008 3.274 12.78.03 8.759.018z" transform="translate(3.572 5)"/>
                                <path fill="#994BF2" d="M8.759.018v2.286h.06c2.65.044 4.817 2.183 4.893 4.832.08 2.803-2.17 5.11-4.953 5.122v2.286c3.996-.012 7.233-3.25 7.241-7.247C16.008 3.274 12.78.03 8.759.018z" transform="translate(3.572 5)"/>
                            </g>
                            <g>
                                <g transform="translate(3.572 5) translate(7.344 5.063) translate(.469 1.406)">
                                    <circle cx=".946" cy=".968" r="1" fill="#F5EDFF"/>
                                    <path fill="#FFF" d="M.946.03v1.875c.514-.004.929-.422.929-.937 0-.515-.415-.933-.929-.937z"/>
                                </g>
                                <path fill="#B87AFF" d="M3.281 1.905h-.55c-.14-.398-.457-.715-.856-.856v-.57c0-.257-.205-.465-.46-.47-.26 0-.478.21-.478.47v.57C.392 1.242 0 1.763 0 2.374 0 3.15.64 3.78 1.415 3.78c.607-.003 1.124-.394 1.317-.937h.55c.258 0 .468-.21.468-.469s-.21-.469-.469-.469zm-1.875.938c-.19 0-.367-.12-.436-.298-.07-.18-.02-.39.123-.519.153-.138.384-.159.56-.05.158.098.24.28.215.465-.03.228-.23.402-.462.402z" transform="translate(3.572 5) translate(7.344 5.063)"/>
                                <path fill="#994BF2" d="M3.281 1.905h-.55c-.14-.398-.457-.715-.856-.856v-.57c0-.257-.205-.465-.46-.47v1.898c.082.001.165.024.237.069.16.098.241.28.216.465-.03.225-.226.397-.453.402v.937c.607-.003 1.124-.394 1.317-.937h.55c.258 0 .468-.21.468-.469s-.21-.469-.469-.469z" transform="translate(3.572 5) translate(7.344 5.063)"/>
                            </g>
                        </g>
                    </g>
                </g>
            </g>
        </g>
    </g>
</svg>
