<svg xmlns="http://www.w3.org/2000/svg" width="56" height="56" viewBox="0 0 56 56">
    <defs>
        <linearGradient id="yofld6cbwa" x1="41.016%" x2="81.406%" y1="20.057%" y2="73.203%">
            <stop offset="0%" stop-color="#FFACD5"/>
            <stop offset="100%" stop-color="#FB0083"/>
        </linearGradient>
    </defs>
    <g fill="none" fill-rule="evenodd">
        <g>
            <g>
                <g>
                    <g transform="translate(-304 -325) translate(9 293) translate(293 32) translate(2)">
                        <rect width="56" height="56" fill="#FEF2F6" rx="20"/>
                        <path fill="url(#yofld6cbwa)" d="M39.194 26.798c-1.019 0-1.842-.792-1.842-1.773 0-.979.823-1.77 1.842-1.77 1.015 0 1.845.791 1.845 1.77 0 .981-.83 1.773-1.845 1.773m-4.591-2.618c-1.022 0-1.842-.79-1.842-1.77s.82-1.772 1.842-1.772c1.015 0 1.845.791 1.845 1.773 0 .978-.83 1.77-1.845 1.77m0 4.874c-1.022 0-1.842-.791-1.842-1.773 0-.978.82-1.77 1.842-1.77 1.015 0 1.845.792 1.845 1.77 0 .982-.83 1.773-1.845 1.773m-10.684-2.46h-2.331v2.159s-.492.36-1.257.352c-.762-.012-1.105-.396-1.105-.396v-2.112h-2.2s-.276-.27-.348-.984c-.074-.711.304-1.288.304-1.288h2.327v-2.237s.48-.246 1.171-.229c.69.021 1.195.271 1.195.271l-.01 2.195h2.198s.388.473.419 1.047c.03.574-.363 1.222-.363 1.222m18.042-5.767c-4.492-7.09-11.256-2.159-11.256-2.159-.44.318-1.247.58-1.798.583h-1.811c-.552.003-1.36-.262-1.796-.58 0 0-6.767-4.932-11.26 2.156-4.488 7.088-2.68 14.803-2.68 14.803.318 1.89 1.362 3.15 3.334 2.992 1.966-.157 6.235-5.089 6.235-5.089.353-.405 1.09-.738 1.638-.738l10.865-.002c.548 0 1.285.333 1.638.74 0 0 4.27 4.928 6.238 5.09 1.969.157 3.015-1.107 3.33-2.993 0 0 1.812-7.718-2.677-14.803"/>
                    </g>
                </g>
            </g>
        </g>
    </g>
</svg>
