<svg xmlns="http://www.w3.org/2000/svg" width="20" height="21" viewBox="0 0 20 21">
    <g fill="none" fill-rule="evenodd">
        <g fill="#00BE00">
            <g>
                <g>
                    <path d="M14.142 4.142c5.523 0 10 4.477 10 10s-4.477 10-10 10-10-4.477-10-10 4.477-10 10-10zm0 4.193c-.506 0-.917.41-.917.917v3.973H9.252c-.47 0-.858.354-.911.81l-.006.107c0 .507.41.917.917.917h3.973v3.974c0 .47.354.857.81.91l.107.007c.507 0 .917-.411.917-.917v-3.975l3.974.001c.47 0 .857-.354.91-.81l.007-.107c0-.506-.411-.917-.917-.917h-3.975l.001-3.973c0-.47-.354-.858-.81-.911z" transform="translate(-34.000000, -736.000000) translate(15.000000, 724.000000) translate(29.449747, 22.621320) rotate(-315.000000) translate(-29.449747, -22.621320) translate(14.671573, 8.479185) translate(0.000000, -0.000000) translate(14.142136, 14.142136) rotate(-315.000000) translate(-14.142136, -14.142136)"/>
                </g>
            </g>
        </g>
    </g>
</svg>
