<svg xmlns="http://www.w3.org/2000/svg" width="56" height="56" viewBox="0 0 56 56">
    <defs>
        <linearGradient id="xphl78bbra" x1="18.663%" x2="72.964%" y1="116.523%" y2="21.478%">
            <stop offset="0%" stop-color="#29E849"/>
            <stop offset="100%" stop-color="#055C13"/>
        </linearGradient>
    </defs>
    <g fill="none" fill-rule="evenodd">
        <g>
            <g>
                <g transform="translate(-111 -325) translate(9 293) translate(102 32)">
                    <rect width="56" height="56" fill="#D2FCE3" rx="20"/>
                    <g fill-rule="nonzero">
                        <path fill="#0DAA27" d="M8.401 32.972c-.361 0-.666-.284-.705-.66-.04-.377.2-.724.553-.805.231-.051.46-.11.686-.174.36-.06.704.174.797.541.094.368-.094.75-.434.884-.246.068-.493.131-.741.188-.051.014-.103.023-.156.026zm3.168-1.063c-.337 0-.628-.25-.694-.596-.066-.346.11-.693.422-.829 1.61-.749 3.11-1.731 4.459-2.917.19-.175.455-.23.695-.145.24.085.417.297.467.557.05.26-.038.527-.228.702-1.464 1.293-3.097 2.359-4.851 3.165-.085.04-.177.062-.27.063zm-7.082-1.994c-.39 0-.708-.332-.708-.741 0-.41.317-.741.708-.741 3.2-.003 6.304-1.154 8.79-3.262.19-.201.474-.27.73-.18.256.09.44.326.475.606.035.28-.086.557-.311.713-2.734 2.328-6.148 3.604-9.673 3.616l-.01-.011zM1.535 29.6c-.048.001-.096-.004-.142-.014-.272-.057-.545-.12-.793-.194-.267-.043-.488-.242-.568-.513-.08-.27-.006-.565.191-.759.198-.194.484-.253.737-.153.237.066.477.126.716.177.352.08.59.424.554.798-.036.375-.335.662-.695.667V29.6z" transform="translate(14 11)"/>
                        <path fill="url(#xphl78bbra)" d="M25.937 19.18l-5.841 7.406c-.67.846-1.898.99-2.744.32l-5.916-4.683c-.847-.67-.99-1.9-.321-2.746L21.81 5.94l2.85 2.254c3.385 2.681 3.956 7.6 1.277 10.986z" transform="translate(14 11)"/>
                        <path fill="#00D84B" d="M21.541 24.952l.179-2.402c.319-3.517-2.399-5.778-4.843-7.71L9.63 9.11c-.82-.65-.959-1.84-.311-2.66L13.851.72c.648-.82 1.838-.96 2.658-.311L25.64 7.63c1.576 1.245 2.592 3.066 2.825 5.061.233 1.995-.335 4.001-1.58 5.577l-5.344 6.684z" transform="translate(14 11)"/>
                    </g>
                </g>
            </g>
        </g>
    </g>
</svg>
