<svg xmlns="http://www.w3.org/2000/svg" width="56" height="56" viewBox="0 0 56 56">
    <defs>
        <linearGradient id="1xyvbjvhpa" x1="40.98%" x2="57.767%" y1="-8.069%" y2="105.483%">
            <stop offset="0%" stop-color="#FFD22D"/>
            <stop offset="100%" stop-color="#FF9052"/>
        </linearGradient>
    </defs>
    <g fill="none" fill-rule="evenodd">
        <g>
            <g>
                <g transform="translate(-111 -323) translate(9 291) translate(102 32)">
                    <rect width="56" height="56" fill="#FFF9E3" rx="20"/>
                    <path fill="url(#1xyvbjvhpa)" d="M28.46 12c6.33 0 11.462 5.13 11.462 11.46 0 4.784-2.93 8.882-7.093 10.6.323.232.532.612.532 1.04v1.66c0 .71-.574 1.286-1.284 1.286h-.152V40c0 1.657-1.342 3-3 3h-.888c-1.657 0-3-1.343-3-3v-1.96c-.645-.07-1.148-.616-1.148-1.28V35.1c0-.378.163-.718.423-.953C20.034 32.487 17 28.327 17 23.46 17 17.13 22.131 12 28.46 12zm2.626 5.74h-5.895l-1.302 5.262h3.132l-1.056 7.717 7.11-9.239h-4.33l2.341-3.74z"/>
                </g>
            </g>
        </g>
    </g>
</svg>
