<svg xmlns="http://www.w3.org/2000/svg" width="24" height="24" viewBox="0 0 24 24">
    <g fill="none" fill-rule="evenodd">
        <g fill="#647081">
            <g>
                <path d="M9.583 11.24c.16 0 .309-.028.45-.086.14-.058.265-.152.373-.282l7.858-8.03c.217-.21.325-.463.325-.759 0-.202-.049-.386-.146-.552-.098-.166-.228-.297-.39-.395-.162-.097-.348-.146-.557-.146-.296 0-.556.108-.78.325l-7.128 7.3-7.137-7.3C2.234 1.098 1.978.99 1.682.99c-.21 0-.395.049-.557.146-.163.098-.293.23-.39.395-.097.166-.146.35-.146.552 0 .152.029.29.086.417.058.126.138.24.239.341l7.847 8.042c.245.238.52.357.822.357z" transform="translate(-320.000000, -132.000000) translate(320.000000, 132.000000) translate(2.000000, 6.000000)"/>
            </g>
        </g>
    </g>
</svg>
