<svg xmlns="http://www.w3.org/2000/svg" width="32" height="19" viewBox="0 0 32 19">
    <g fill="none" fill-rule="evenodd">
        <g fill-rule="nonzero">
            <g>
                <g>
                    <g>
                        <g>
                            <path fill="#647081" d="M27.245 12.402l1.633-.509-.53-1.164c-.39.484-.78 1.107-1.103 1.673zm-.555-5.323L23.49.025.066 1.337l6.49 17.52 12.491-3.896c-.795-1.132-1.085-2.477-.165-3.133 1.027-.738 2.577.115 3.564 1.32.953-1.574 3.63-5.24 4.244-6.07z" transform="translate(-327 -751) translate(0 743) translate(16 8) translate(197) translate(114)"/>
                            <g fill="#FEFEFE">
                                <path d="M18.285 3.371c.978 0 1.774-.738 1.774-1.657 0-.918-.796-1.657-1.774-1.657S16.51.796 16.51 1.714c0 .91.796 1.657 1.774 1.657zm-1.45.714h2.9v7.505h-2.9V4.085zM15.4 6.275c.025.008.042 0 .042-.025V4.347c0-.024-.017-.049-.042-.065 0 0-.38-.246-1.541-.312-.058-.033-1.078-.041-1.351 0-4.228.336-4.385 3.363-4.385 3.494v.738c0 .09 0 3.183 4.385 3.454.43.032 1.268 0 1.35 0 1.012 0 1.708-.304 1.708-.304.025-.008.042-.033.042-.057v-1.78c0-.025-.017-.033-.034-.017 0 0-.314.246-1.69.386-.39.04-.58.024-.722 0-1.956-.328-2.047-1.74-2.047-1.74 0-.024-.008-.065-.008-.081v-.541c0-.025 0-.066.008-.082 0 0 .133-1.518 2.047-1.682h.722c.837.107 1.516.517 1.516.517zM.066 11.565c0 .025.017.041.042.041h2.826c.025 0 .042-.016.042-.04V9.383c0-.025.016-.042.041-.042 0 0 4.517.32 4.517-2.673 0-2.371-2.834-2.625-3.763-2.584H.108c-.025 0-.042.016-.042.04v7.44zm2.86-3.888v-1.96h.696s1.003.041 1.086.722c.017.05.017.385 0 .402-.133.795-1.003.836-1.003.836h-.78z" transform="translate(-327 -751) translate(0 743) translate(16 8) translate(197) translate(114) translate(4.476 1.751)"/>
                            </g>
                            <path fill="#647081" d="M22.844 16.962c.232 0 .414 0 .713-.13 1.027-.534 4.5-8.925 8.164-11.509.025-.016.05-.04.066-.065.025-.033.025-.066.025-.066s0-.172-.539-.172c-3.257-.09-6.647 6.677-8.43 9.35-.024.033-.14 0-.14 0s-1.194-1.394-2.23-1.927c-.025-.008-.14-.05-.265-.041-.083 0-.564.098-.788.328-.265.279-.257.435-.257.771 0 .025.017.14.05.197.257.443 1.41 2.018 2.363 2.887.14.107.364.377 1.268.377z" transform="translate(-327 -751) translate(0 743) translate(16 8) translate(197) translate(114)"/>
                        </g>
                    </g>
                </g>
            </g>
        </g>
    </g>
</svg>
