<svg xmlns="http://www.w3.org/2000/svg" width="24" height="24" viewBox="0 0 24 24">
    <g fill="none" fill-rule="evenodd">
        <g>
            <g>
                <path d="M0 0H24V24H0z" transform="translate(-336.000000, -48.000000) translate(336.000000, 48.000000)"/>
                <path fill="#FFF" d="M23.826 10.05c1.068 6.01-2.892 11.765-8.8 12.792-4.444.773-8.91-1.34-11.143-5.267-.253-.444-.283-.888-.017-1.326.246-.406.623-.603 1.092-.573.47.029.787.298 1.024.703.672 1.152 1.566 2.09 2.67 2.819 5 3.301 11.763.307 12.808-5.67.835-4.77-2.313-9.25-7.022-9.994-4.065-.642-8.092 1.947-9.275 5.963-.013.044-.022.09-.051.213.711-.414 1.37-.794 2.026-1.178.278-.163.57-.243.889-.174.505.108.858.485.95 1.007.087.497-.129.98-.594 1.257-.939.557-1.885 1.1-2.828 1.649-.44.255-.876.515-1.319.764-.676.381-1.38.17-1.736-.532-.787-1.55-1.568-3.104-2.344-4.66-.331-.664-.12-1.374.488-1.695.615-.325 1.31-.078 1.656.595.234.456.462.916.693 1.374.008.015.025.026.056.058.038-.082.076-.155.108-.23 1.64-3.874 4.489-6.218 8.595-6.83 5.705-.852 11.044 3.137 12.074 8.935zM12.333 6.498c.656-.016 1.202.522 1.22 1.234.017.696.004 1.394.004 2.09 0 .688-.008 1.375.008 2.062.003.133.07.297.162.392 1.006 1.04 2.026 2.067 3.035 3.105.61.627.483 1.595-.253 1.986-.44.235-.996.18-1.358-.184-1.234-1.24-2.456-2.492-3.679-3.745-.227-.233-.322-.528-.322-.859.002-1.604-.002-3.207.002-4.81.002-.717.509-1.256 1.181-1.271z" transform="translate(-336.000000, -48.000000) translate(336.000000, 48.000000)"/>
            </g>
        </g>
    </g>
</svg>
