<svg xmlns="http://www.w3.org/2000/svg" width="26" height="26" viewBox="0 0 26 26">
    <g fill="none" fill-rule="evenodd">
        <g fill="#231F20">
            <path d="M707 695.003h18.975V676.03H707v18.974zm1.497-1.497h15.98v-15.98h-15.98v15.98zm14.356-20.179h2.567c.486 0 .88-.394.88-.88s-.394-.88-.88-.88h-.497c.604-.307 1.275-.471 1.971-.471 1.162 0 2.254.452 3.075 1.274 1.695 1.695 1.695 4.454 0 6.149-.344.344-.344.901 0 1.245.172.172.397.258.622.258.226 0 .45-.086.623-.258 2.381-2.382 2.381-6.258 0-8.64-2.026-2.025-5.132-2.327-7.481-.906v-.338c0-.486-.394-.88-.88-.88-.487 0-.88.394-.88.88v2.567c0 .486.394.88.88.88" transform="translate(-707 -669)"/>
        </g>
    </g>
</svg>
