<svg xmlns="http://www.w3.org/2000/svg" width="26" height="26" viewBox="0 0 26 26">
    <g fill="none" fill-rule="evenodd">
        <g fill="#231F20">
            <path d="M826 676.049v18.832h-18.833V676.05H826zm-1.486 1.485h-15.86v15.862h15.86v-15.862zM810.072 669c.482 0 .873.391.873.874v2.548c0 .482-.391.873-.874.873h-2.547c-.483 0-.874-.391-.874-.874 0-.482.391-.873.874-.873h.492c-.598-.305-1.265-.468-1.956-.468-1.153 0-2.237.45-3.052 1.264-1.682 1.683-1.682 4.421 0 6.104.341.34.341.894 0 1.235-.17.17-.394.256-.617.256-.224 0-.448-.085-.618-.256-2.364-2.364-2.364-6.21 0-8.574 2.01-2.01 5.094-2.31 7.425-.9v-.335c0-.483.391-.874.874-.874z" transform="translate(-800 -669)"/>
        </g>
    </g>
</svg>
