<svg xmlns="http://www.w3.org/2000/svg" width="8" height="8" viewBox="0 0 8 8">
    <g fill="none" fill-rule="evenodd">
        <g fill="#FFF" fill-rule="nonzero">
            <g>
                <g>
                    <path d="M8 5C5.794 5 4 6.794 4 9s1.794 4 4 4 4-1.794 4-4-1.794-4-4-4zm1.814 4.552H7.9c-.187 0-.338-.151-.338-.338v-2.75c0-.186.15-.337.338-.337.186 0 .338.151.338.338v2.411h1.577c.187 0 .338.151.338.338 0 .187-.151.338-.338.338z" transform="translate(-176 -343) translate(14 240) translate(158 98)"/>
                </g>
            </g>
        </g>
    </g>
</svg>
