<svg xmlns="http://www.w3.org/2000/svg" width="56" height="56" viewBox="0 0 56 56">
    <defs>
        <linearGradient id="p477gxv11a" x1="31.761%" x2="72.881%" y1="-7.731%" y2="100%">
            <stop offset="0%" stop-color="#FEA673"/>
            <stop offset="100%" stop-color="#FE4200"/>
        </linearGradient>
    </defs>
    <g fill="none" fill-rule="evenodd">
        <g>
            <g>
                <g transform="translate(-111 -419) translate(9 293) translate(102 126)">
                    <rect width="56" height="56" fill="#FFEFE9" rx="20"/>
                    <path fill="url(#p477gxv11a)" d="M33.647 12c2.761 0 5 2.239 5 5v22c0 2.761-2.239 5-5 5H22c-2.761 0-5-2.239-5-5V17c0-2.761 2.239-5 5-5h11.647zm-5.823 26.332c-1.087 0-1.968.88-1.968 1.967 0 1.087.88 1.968 1.968 1.968 1.086 0 1.967-.88 1.967-1.968 0-1.086-.88-1.967-1.967-1.967zm5.871-23.615H21.952c-1.105 0-2 .895-2 2v17.647c0 1.104.895 2 2 2h11.743c1.105 0 2-.896 2-2V16.717c0-1.105-.895-2-2-2zm-5.12 3.935c.054 0 .098.019.135.056.037.037.056.082.056.134l-.016 1.188c0 .042.026.074.08.095.876.18 1.572.563 2.09 1.149.517.586.776 1.3.776 2.146v.237c0 .053-.018.098-.055.135-.038.037-.082.055-.135.055H29.78c-.053 0-.098-.018-.135-.055-.037-.037-.055-.082-.055-.135v-.126c0-.444-.175-.821-.523-1.133-.348-.311-.824-.467-1.426-.467-.475 0-.844.105-1.108.317-.264.21-.396.501-.396.87 0 .265.076.487.23.666.152.18.382.343.688.491.306.148.782.338 1.426.57.707.264 1.267.502 1.679.713.411.211.781.528 1.108.95.328.423.491.966.491 1.632 0 .844-.259 1.541-.776 2.09-.517.55-1.225.898-2.122 1.046-.053.02-.08.052-.08.095l.017 1.03c0 .052-.019.097-.056.134-.037.037-.082.055-.135.055h-1.583c-.053 0-.098-.018-.135-.055-.037-.037-.055-.082-.055-.135l.016-1.045c0-.043-.027-.074-.08-.095-.897-.18-1.602-.55-2.114-1.109-.513-.56-.768-1.262-.768-2.107v-.348c0-.053.018-.097.055-.135.037-.037.082-.055.135-.055h1.71c.053 0 .098.018.135.055.037.038.055.082.055.135v.238c0 .422.185.778.555 1.069.369.29.876.435 1.52.435.539 0 .937-.118 1.196-.356.259-.238.388-.53.388-.879 0-.254-.08-.467-.237-.642-.159-.174-.378-.327-.658-.46-.28-.13-.72-.313-1.322-.545-.687-.243-1.262-.491-1.727-.745-.464-.253-.858-.599-1.18-1.037-.322-.438-.483-.98-.483-1.624 0-.812.246-1.486.737-2.02.49-.532 1.153-.878 1.988-1.036.052-.022.079-.053.079-.095l-.032-1.157c0-.052.018-.097.055-.134.037-.037.082-.056.135-.056h1.584z"/>
                </g>
            </g>
        </g>
    </g>
</svg>
