<svg xmlns="http://www.w3.org/2000/svg" width="17" height="16" viewBox="0 0 17 16">
    <g fill="none" fill-rule="evenodd">
        <g fill="#FFF" fill-rule="nonzero">
            <g>
                <g>
                    <path d="M16.505 7.111L8.973.248c-.33-.301-.829-.301-1.16 0L.283 7.111c-.265.241-.352.613-.223.947.13.334.444.55.803.55h1.203v6.876c0 .273.22.494.493.494h4.129c.272 0 .493-.221.493-.494V11.31h2.427v4.175c0 .273.22.494.493.494h4.128c.273 0 .494-.221.494-.494V8.608h1.203c.359 0 .674-.216.803-.55.13-.334.042-.706-.223-.947zM14.593 1.008h-3.315l3.809 3.463v-2.97c0-.272-.221-.493-.494-.493z" transform="translate(-335 -57) translate(326 50) translate(9 7)"/>
                </g>
            </g>
        </g>
    </g>
</svg>
