<svg xmlns="http://www.w3.org/2000/svg" width="33" height="32" viewBox="0 0 33 32">
    <g fill="none" fill-rule="evenodd">
        <g>
            <g>
                <g transform="translate(-1162 -692) translate(1157 692) translate(5.5)">
                    <circle cx="15.915" cy="15.915" r="15.915" fill="#C4C7CC" fill-rule="nonzero"/>
                    <path stroke="#FFF" stroke-linecap="round" stroke-linejoin="round" stroke-width="1.9" d="M23.561 6.05v16.102c0 .88-.36 1.726-1.007 2.348-.634.609-1.493.953-2.385.95h0H8.05V10.033l3.786-3.983h11.725z"/>
                    <path stroke="#FFF" stroke-linecap="round" stroke-linejoin="round" stroke-width="1.9" d="M13.816 7.618L13.816 11.618 9.816 11.618"/>
                    <g fill-rule="nonzero">
                        <path fill="#FFF" d="M10.458 11.652c-.766 0-1.524-.158-2.225-.465h-.131c-.631-.309-1.199-.733-1.673-1.251L1.382 6.24l5.047-3.738c.463-.487 1.01-.886 1.615-1.178h.13c.7-.319 1.458-.483 2.226-.48 2.907.15 5.187 2.55 5.187 5.462 0 2.91-2.28 5.311-5.187 5.461l.058-.116z" transform="translate(12.627 10.142)"/>
                        <path fill="#C4C7CC" d="M10.458 1.543c1.9-.005 3.613 1.145 4.327 2.906.714 1.762.285 3.78-1.083 5.1-1.368 1.318-3.4 1.673-5.135.896-.516-.256-.984-.6-1.382-1.018l-.218-.204h-.116L2.749 6.227 6.851 3.23l.116-.087.102-.116c.398-.414.866-.753 1.382-1.004h.102c.593-.272 1.238-.411 1.89-.407m0-1.615c-.878-.017-1.75.152-2.56.495-.708.42-1.375.908-1.992 1.454L0 6.314l5.89 4.29c.614.552 1.282 1.04 1.994 1.455 2.334 1.052 5.074.577 6.919-1.198 1.846-1.774 2.426-4.493 1.467-6.867-.96-2.374-3.266-3.926-5.826-3.92V0z" transform="translate(12.627 10.142)"/>
                        <path fill="#C4C7CC" d="M13.425 4.103c-.266-.263-.693-.263-.96 0L9.731 6.838 8.684 5.79c-.271-.264-.704-.264-.975 0-.262.266-.262.694 0 .96l1.542 1.528c.126.13.3.202.48.202s.354-.073.48-.202l3.214-3.215c.13-.127.202-.3.204-.48.002-.181-.072-.355-.204-.48z" transform="translate(12.627 10.142)"/>
                    </g>
                </g>
            </g>
        </g>
    </g>
</svg>
