<svg xmlns="http://www.w3.org/2000/svg" width="32" height="32" viewBox="0 0 32 32">
    <g fill="none" fill-rule="evenodd">
        <g fill="#FFC627">
            <g>
                <path d="M16 0c8.823 0 16 7.178 16 16 0 8.823-7.177 16-16 16S0 24.823 0 16C0 7.178 7.177 0 16 0zm2.322 5.325L7.276 17.375c-.55.6-.124 1.57.69 1.57h4.964l-.873 6.98c-.113.907 1.008 1.42 1.622.75l11.045-12.05c.55-.6.124-1.57-.69-1.57H19.07l.873-6.98c.113-.904-1.006-1.422-1.621-.75zm-.604 3.433l-.64 5.118c-.033.266.05.534.228.736.178.202.434.317.702.317h3.894l-7.62 8.313.64-5.117c.033-.267-.05-.536-.228-.737-.178-.202-.433-.317-.702-.317h-3.894l7.62-8.313z" transform="translate(-1013 -612) translate(1013 612)"/>
            </g>
        </g>
    </g>
</svg>
