<svg xmlns="http://www.w3.org/2000/svg" width="24" height="24" viewBox="0 0 24 24">
    <g fill="none" fill-rule="evenodd">
        <g fill-rule="nonzero">
            <g>
                <g>
                    <g transform="translate(-17 -379) translate(0 325) translate(0 54) translate(17)">
                        <rect width="24" height="24" fill="#CBD7FF" rx="8"/>
                        <g>
                            <path fill="#406CFF" d="M3.803 12.768L1.596 12.768 1.596 5.544 3.803 5.544zM14.52 12.768L12.313 12.768 12.313 5.544 14.52 5.544z" transform="translate(4 4)"/>
                            <path fill="#4A73FF" d="M4.747 14.531h-4.1v-1.763c-.002-.128.047-.251.137-.342.09-.09.212-.142.34-.142h3.15c.26.003.47.213.473.472v1.775zM15.464 14.531h-4.095v-1.763c0-.261.211-.472.472-.472h3.151c.125 0 .245.05.334.138.088.088.138.208.138.334v1.763z" transform="translate(4 4)"/>
                            <path fill="#6E8FFF" d="M15.655 16.143H.489c-.131.005-.258-.045-.35-.138-.094-.092-.143-.22-.139-.35V14.25c0-.26.212-.471.472-.471h15.183c.125 0 .245.05.334.138.088.088.138.208.138.333v1.405c.004.128-.043.252-.132.344-.09.092-.212.144-.34.144z" transform="translate(4 4)"/>
                            <path fill="#406CFF" d="M15.655 13.779h-7.6v2.364h7.6c.125 0 .245-.05.334-.138.088-.088.138-.208.138-.333V14.25c0-.125-.05-.245-.138-.333-.089-.089-.209-.138-.334-.138z" transform="translate(4 4)"/>
                            <path fill="#6E8FFF" d="M15.655 5.993H.489c-.259.01-.477-.19-.489-.449V3.629C0 3.439.112 3.265.287 3.19L7.864.04c.117-.051.249-.051.365 0l7.594 3.15c.178.074.293.247.293.439v1.915c-.012.248-.213.444-.461.45z" transform="translate(4 4)"/>
                            <path fill="#406CFF" d="M15.835 3.19L8.24.04C8.182.012 8.12 0 8.055 0v5.993h7.6c.126 0 .247-.05.336-.14.088-.09.137-.211.136-.337V3.629c0-.192-.115-.365-.292-.439z" transform="translate(4 4)"/>
                            <path fill="#C6E1F5" d="M10.897 4.1H5.22c-.243-.026-.426-.23-.426-.474 0-.244.183-.448.426-.475h5.678c.243.027.426.231.426.475 0 .243-.183.448-.426.474z" transform="translate(4 4)"/>
                            <path fill="#6E8FFF" d="M8.055 9.364c-.26-.004-.468-.216-.466-.476.002-.26.214-.469.474-.468.26.001.47.212.47.472s.21.472.471.472.472-.212.472-.472c0-.6-.378-1.135-.943-1.337v-.242c-.027-.242-.231-.425-.475-.425-.244 0-.448.183-.475.425v.242c-.647.233-1.035.898-.919 1.576.117.68.703 1.177 1.391 1.182.26 0 .472.211.472.472 0 .26-.211.472-.472.472-.26 0-.472-.212-.472-.472s-.211-.472-.472-.472c-.26 0-.471.211-.471.472 0 .6.378 1.135.943 1.337v.235c-.02.182.066.36.221.457.155.097.352.097.507 0 .156-.097.241-.275.222-.457v-.235c.648-.234 1.035-.9.918-1.58-.118-.68-.706-1.176-1.396-1.178z" transform="translate(4 4)"/>
                            <path fill="#406CFF" d="M8.533 8.914c0 .26.21.472.471.472s.472-.211.472-.472c0-.6-.378-1.135-.943-1.337v-.241c-.004-.262-.216-.472-.478-.472v1.578c.262 0 .474.21.478.472zM8.533 12.357v-.235c.648-.234 1.035-.9.918-1.58-.118-.68-.706-1.176-1.396-1.178v.949c.26 0 .472.211.472.472 0 .26-.211.472-.472.472v1.59c.129 0 .252-.053.342-.145.09-.092.139-.216.136-.345z" transform="translate(4 4)"/>
                        </g>
                    </g>
                </g>
            </g>
        </g>
    </g>
</svg>
