<svg xmlns="http://www.w3.org/2000/svg" width="56" height="56" viewBox="0 0 56 56">
    <defs>
        <linearGradient id="c9dbp997va" x1="50%" x2="50%" y1="0%" y2="98.866%">
            <stop offset="0%" stop-color="#7BDAF9"/>
            <stop offset="100%" stop-color="#00A7F9"/>
        </linearGradient>
    </defs>
    <g fill="none" fill-rule="evenodd">
        <g>
            <g>
                <g transform="translate(-206 -325) translate(9 293) translate(197 32)">
                    <rect width="56" height="56" fill="#E3F7FF" rx="20"/>
                    <path fill="url(#c9dbp997va)" d="M27.825 13c.31.003.572.234.614.54.606 4.051 3.194 5.96 5.847 8.148 2.654 2.188 5.345 4.702 5.345 9.497C39.63 37.71 34.34 43 27.815 43 21.29 43 16 37.71 16 31.185c.056-6.145 2.728-11.732 11.434-18.063.111-.085.25-.129.39-.121zm-8.048 14.922c-.503-.08-.987.26-1.071.769-.907 5.533.983 9.319 5.617 11.252.118.049.239.072.36.072.363 0 .71-.216.86-.573.198-.475-.027-1.02-.502-1.218-3.786-1.58-5.254-4.599-4.495-9.232.083-.507-.26-.987-.77-1.07zm1.193-3.74c-.686 0-1.242.558-1.242 1.243 0 .687.556 1.243 1.242 1.243.686 0 1.243-.556 1.243-1.243 0-.685-.557-1.242-1.243-1.242z"/>
                </g>
            </g>
        </g>
    </g>
</svg>
