<svg xmlns="http://www.w3.org/2000/svg" width="18" height="19" viewBox="0 0 18 19">
    <g fill="none" fill-rule="evenodd">
        <g fill="#FFF">
            <path d="M738.008 441.834c2.266-.007 4.09-1.846 4.08-4.116-.008-2.257-1.845-4.086-4.099-4.082-2.259.004-4.09 1.852-4.08 4.119.01 2.26 1.844 4.085 4.099 4.079m-4.458-.461c-2.086-2.58-1.465-6.124.713-7.99 2.103-1.802 5.192-1.855 7.356-.09.796.648 1.376 1.457 1.74 2.418.36.954.458 1.939.296 2.946-.163 1.013-.582 1.915-1.193 2.68.54.41 1.102.774 1.59 1.22 1.737 1.584 2.711 3.561 2.914 5.912.022.248.033.498.033.748 0 .454-.343.806-.79.825-.427.017-.788-.315-.838-.76-.067-.597-.082-1.208-.222-1.787-.54-2.237-1.873-3.857-3.919-4.891-.057-.03-.162-.019-.22.015-2.01 1.16-4.014 1.158-6.023 0-.06-.034-.172-.028-.237.005-2.024 1.027-3.349 2.633-3.897 4.844-.138.56-.16 1.15-.217 1.728-.04.418-.252.723-.61.814-.535.138-1.026-.243-1.027-.806 0-1.446.323-2.817.984-4.103.792-1.543 1.939-2.753 3.427-3.639.044-.026.085-.054.14-.09" transform="translate(-729 -432)"/>
        </g>
    </g>
</svg>
