<svg xmlns="http://www.w3.org/2000/svg" width="15" height="16" viewBox="0 0 15 16">
    <g fill="none" fill-rule="evenodd">
        <g fill="#5D5D5D">
            <path d="M785.995 788.051c.907.149 1.568.948 1.604 1.866.006.155 0 .31 0 .485h.337c1.206 0 2.412-.001 3.618.001.426 0 .72.222.82.602.125.475-.218.96-.708.985-.28.014-.56.002-.868.002v.258c0 2.825.006 5.65 0 8.474-.004 1.357-.624 2.35-1.833 2.967-.43.22-.894.307-1.376.307-1.594 0-3.188.007-4.781-.004-1.642-.011-2.938-1.147-3.178-2.77-.027-.185-.025-.375-.025-.562l-.001-4.2v-4.468c-.307 0-.581.01-.855-.003-.393-.017-.708-.328-.745-.713-.037-.38.2-.739.572-.842.106-.03.222-.032.333-.032l1.819-.002h2.055c.017-.25.016-.492.052-.728.143-.931.934-1.639 1.871-1.664.43-.011.868-.027 1.289.041zm3.208 3.956h-8.005V800.691c0 1.034.68 1.71 1.717 1.711 1.524.002 3.049.002 4.573 0 1.038 0 1.715-.675 1.716-1.712l-.001-8.472v-.21zm-5.065 1.802c.208.181.267.425.267.693-.002 1.455-.001 2.91 0 4.366 0 .356.002.712 0 1.068-.004.508-.346.87-.814.864-.459-.005-.789-.365-.79-.865v-2.736c0-.931-.003-1.862.002-2.793.001-.344.165-.599.482-.737.31-.136.6-.081.853.14zm2.672-.21c.462.005.79.361.79.863l.001 1.378v4.095c0 .5-.331.862-.789.865-.47.002-.812-.355-.813-.864-.003-1.824-.002-3.648 0-5.472 0-.51.342-.869.81-.864zm-2.013-3.997c-.198.007-.356.132-.377.303-.019.157-.004.319-.004.486h1.58c0-.133.005-.256 0-.38-.01-.245-.149-.4-.394-.41-.268-.012-.537-.01-.805 0z" transform="translate(-778 -788)"/>
        </g>
    </g>
</svg>
