<svg xmlns="http://www.w3.org/2000/svg" width="103" height="71" viewBox="0 0 103 71">
    <g fill="none" fill-rule="evenodd" opacity=".1">
        <g>
            <g>
                <g>
                    <path fill="#FFF" d="M31.514 7.383c-.993.137-1.917-.567-2.054-1.559-.135-.994.565-1.918 1.558-2.055.995-.137 1.918.565 2.054 1.558.137.995-.565 1.918-1.558 2.056M36.376 7.383c-.993.137-1.917-.565-2.055-1.559-.135-.994.566-1.919 1.558-2.055.994-.135 1.917.565 2.054 1.559.138.994-.565 1.918-1.557 2.055M42.45 6.167c-.992.137-1.916-.565-2.053-1.56-.135-.992.565-1.917 1.558-2.054.993-.137 1.917.565 2.054 1.558.136.996-.565 1.92-1.558 2.056" transform="translate(-245 -330) translate(245 330.372) rotate(7 -133.202 291.775)"/>
                    <path fill="#FFF" d="M46.096 6.167c-.992.137-1.916-.567-2.053-1.559-.137-.994.564-1.918 1.557-2.055.995-.137 1.918.565 2.055 1.559.136.994-.565 1.918-1.559 2.055M50.957 4.951c-.993.137-1.917-.565-2.054-1.559-.135-.994.565-1.917 1.558-2.055.994-.135 1.918.565 2.054 1.559.137.995-.564 1.918-1.558 2.055M57.033 3.735c-.991.137-1.917-.567-2.054-1.559-.135-.994.567-1.918 1.558-2.055.995-.137 1.918.565 2.054 1.559.137.994-.564 1.917-1.558 2.055" transform="translate(-245 -330) translate(245 330.372) rotate(7 -133.202 291.775)"/>
                    <path fill="#FFF" d="M60.679 3.735c-.993.137-1.917-.565-2.054-1.559-.135-.994.565-1.919 1.558-2.055.995-.135 1.916.565 2.054 1.559.137.994-.565 1.918-1.558 2.055M42.346 19.381l-8.265 1.373c-1.06.176-2.045-.727-2.189-2.011-.146-1.28.6-2.476 1.66-2.65l8.266-1.375c1.059-.175 2.044.73 2.19 2.011.145 1.282-.603 2.476-1.662 2.652M62.988 22.652L35.32 26.836c-1.071.163-2.065-.67-2.213-1.848-.147-1.18.609-2.276 1.679-2.44l27.667-4.184c1.072-.16 2.064.67 2.213 1.85.147 1.179-.608 2.276-1.678 2.438M22.558 32.088l-14.943 2.03c-2.052.278-3.945-1.142-4.226-3.173L.314 8.781c-.28-2.03 1.153-3.902 3.206-4.18l14.943-2.03c2.05-.279 3.944 1.141 4.226 3.172l3.074 22.164c.281 2.029-1.154 3.902-3.205 4.181" transform="translate(-245 -330) translate(245 330.372) rotate(7 -133.202 291.775)"/>
                    <path fill="#0AB81F" d="M7.61 15.885c-.32-2.326 1.311-4.478 3.634-4.797 2.324-.319 4.473 1.313 4.793 3.639.306 2.244-1.203 4.322-3.396 4.752-.082.008-.162.01-.244.02-.081.013-.158.034-.24.048-2.227.177-4.24-1.418-4.547-3.662" transform="translate(-245 -330) translate(245 330.372) rotate(7 -133.202 291.775)"/>
                    <path fill="#0AB81F" d="M10.247 26.827c-1.938.337-3.325-2.28-2.365-4.432.93-2.09 2.598-3.624 4.622-3.976 2.026-.35 3.959.559 5.302 2.253 1.383 1.746.604 4.738-1.333 5.074l-6.226 1.08z" transform="translate(-245 -330) translate(245 330.372) rotate(7 -133.202 291.775)"/>
                </g>
                <path fill="#00BE00" d="M95.45 69.083l-66.813-.393c-3.956-.023-7.145-3.255-7.121-7.22l.246-42.315c.024-3.965 3.249-7.159 7.205-7.137l66.815.393c3.956.024 7.143 3.256 7.12 7.22l-.247 42.315c-.022 3.965-3.249 7.16-7.205 7.137" transform="translate(-245 -330) translate(245 330.372)"/>
                <g>
                    <path fill="#FFF" d="M30.774 6.06c-.995-.006-1.806-.83-1.8-1.828.006-1.001.825-1.814 1.822-1.808.996.006 1.805.828 1.799 1.828-.006 1-.824 1.813-1.82 1.808M35.603 6.06c-.995-.006-1.807-.83-1.8-1.828.006-1.001.825-1.814 1.821-1.808.997.006 1.807.828 1.8 1.828-.006 1.002-.824 1.813-1.821 1.808M40.432 6.06c-.996-.006-1.807-.83-1.801-1.828.006-1.001.825-1.814 1.822-1.808.997.006 1.805.828 1.8 1.828-.006 1.002-.826 1.813-1.821 1.808M45.26 6.06c-.996-.006-1.807-.83-1.8-1.828.006-1.001.824-1.814 1.821-1.808.998.006 1.806.828 1.8 1.828-.005 1.002-.824 1.813-1.821 1.808M50.391 6.06c-.995-.006-1.806-.83-1.8-1.828.007-1.001.825-1.814 1.823-1.808.996.006 1.805.828 1.798 1.828-.006 1.002-.824 1.813-1.82 1.808M54.918 6.06c-.995-.006-1.806-.83-1.8-1.828.007-1.001.825-1.814 1.822-1.808.997.006 1.806.828 1.8 1.828-.006 1.002-.825 1.813-1.822 1.808M59.747 6.06c-.996-.006-1.808-.83-1.8-1.828.005-1.001.824-1.814 1.821-1.808.997.006 1.806.828 1.8 1.828-.006 1.002-.824 1.813-1.821 1.808M37.306 18.785l-8.237-.046c-1.056-.005-1.913-.818-1.907-1.806.007-.987.873-1.79 1.93-1.784l8.236.045c1.055.006 1.913.819 1.907 1.805-.006.988-.875 1.791-1.93 1.786M56.605 27.874l-27.518-.145c-1.064-.006-1.93-.796-1.925-1.756.007-.96.882-1.74 1.946-1.735l27.52.146c1.065.006 1.928.795 1.922 1.755-.006.96-.88 1.74-1.945 1.735M19.994 29.086l-16.032-.087c-2.2-.01-3.976-1.637-3.962-3.63L.14 3.59C.152 1.597 1.95-.01 4.15 0l16.03.087c2.204.01 3.978 1.637 3.964 3.63l-.14 21.778c-.014 1.994-1.808 3.602-4.01 3.59" transform="translate(-245 -330) translate(245 330.372) translate(31.806 25.115)"/>
                    <path fill="#0AB81F" d="M7.243 11.493c.014-2.342 1.921-4.234 4.25-4.222 2.33.014 4.213 1.932 4.2 4.273-.013 2.259-1.79 4.098-4.008 4.21-.082-.003-.16-.013-.24-.013-.082-.002-.161.009-.242.01-2.217-.139-3.972-1.997-3.96-4.258M8.35 24.197c-1.932-.014-3-2.603-1.823-4.392 1.143-1.737 2.944-2.851 4.964-2.838 2.02.013 3.81 1.152 4.934 2.904 1.161 1.804.067 4.382-1.866 4.367l-6.209-.041z" transform="translate(-245 -330) translate(245 330.372) translate(31.806 25.115)"/>
                </g>
                <path fill="#00BE00" d="M0 23.697s2.95-.436 3.845-4.382c0 0 .796 3.347 4.208 3.686 0 0-4.133 1.07-4.13 4.361 0 0-.161-3.15-3.923-3.665M12.885 6.135s4.13-.61 5.382-6.135c0 0 1.115 4.686 5.891 5.161 0 0-5.786 1.499-5.781 6.106 0 0-.226-4.41-5.492-5.132" opacity=".616" transform="translate(-245 -330) translate(245 330.372)"/>
            </g>
        </g>
    </g>
</svg>
