<svg xmlns="http://www.w3.org/2000/svg" width="32" height="32" viewBox="0 0 32 32">
    <g fill="none" fill-rule="evenodd">
        <g fill-rule="nonzero">
            <g>
                <g transform="translate(-1016 -769) translate(1006 769) translate(10)">
                    <circle cx="15.915" cy="15.915" r="15.672" fill="#D1428C"/>
                    <path fill="#FFF" d="M23.585 21.445H7.62c-1.45-.004-2.624-1.178-2.627-2.628v-6.503c0-1.455 1.18-2.634 2.634-2.634h15.958c1.453.004 2.628 1.182 2.628 2.634v6.503c-.003 1.45-1.178 2.624-2.628 2.628zM7.62 11.565c-.199-.002-.39.077-.531.217-.14.141-.22.333-.217.532v6.503c0 .198.079.388.22.528.14.139.33.217.528.215h15.965c.2.003.392-.074.534-.213.142-.14.222-.33.222-.53v-6.503c.001-.2-.077-.39-.218-.532-.14-.14-.332-.219-.531-.217H7.62z"/>
                    <path fill="#FFF" d="M21.22 17.095H9.986c-.48 0-.868-.389-.868-.868 0-.48.389-.867.868-.867H21.22c.48 0 .868.388.868.867 0 .48-.389.868-.868.868z"/>
                    <circle cx="23.716" cy="19.023" r="4.057" fill="#D1428C"/>
                    <path fill="#FFF" d="M23.716 23.716c-2.585 0-4.68-2.095-4.68-4.68 0-2.586 2.095-4.681 4.68-4.681 2.586 0 4.681 2.095 4.681 4.68 0 2.586-2.095 4.681-4.68 4.681zm0-8.113c-1.895 0-3.432 1.537-3.432 3.433 0 1.895 1.537 3.432 3.432 3.432 1.896 0 3.433-1.537 3.433-3.432-.003-1.895-1.538-3.43-3.433-3.433z"/>
                    <path fill="#FFF" d="M23.504 17.837c-.018.002-.037-.004-.05-.018-.014-.013-.02-.032-.018-.05v-.256c-.003-.052.018-.102.056-.138.035-.037.085-.057.137-.056h.624v-.106c-.002-.052.018-.102.056-.137.038-.038.091-.056.144-.05h.512c.018-.002.037.005.05.018.014.013.02.032.018.05v.275h.256c.019-.002.038.005.051.018.013.013.02.032.018.05v.22c.004.05-.015.1-.05.136-.037.036-.087.054-.137.05h-.138v3.003c.005.029-.005.058-.026.08-.021.02-.05.03-.08.026h-.624c-.015.002-.03-.004-.042-.015-.01-.01-.016-.026-.014-.042v-.106c-.095.06-.193.114-.293.163-.129.054-.267.08-.406.075-.2.002-.398-.039-.58-.12-.177-.071-.337-.18-.469-.317-.132-.138-.237-.299-.312-.475-.075-.18-.113-.373-.112-.568-.001-.197.037-.392.112-.574.076-.176.184-.337.319-.474.137-.131.295-.239.468-.318.18-.08.376-.121.574-.119.137-.002.274.026.4.081.103.041.2.094.293.156v-.462h-.737zm.044.999c-.094 0-.188.019-.275.056-.083.038-.16.091-.224.156s-.115.14-.15.225c-.04.086-.059.18-.056.274 0 .095.019.188.056.275.035.084.086.16.15.225.068.06.143.113.224.156.087.037.18.056.275.056.083.002.166-.013.243-.044.077-.025.147-.065.206-.118.064-.05.116-.112.156-.181.045-.07.074-.15.088-.231v-.281c-.025-.162-.112-.308-.244-.406-.126-.105-.285-.162-.449-.162z"/>
                </g>
            </g>
        </g>
    </g>
</svg>
