<svg xmlns="http://www.w3.org/2000/svg" xmlns:xlink="http://www.w3.org/1999/xlink" width="40" height="40" viewBox="0 0 40 40">
    <defs>
        <circle id="fdeh2j6xja" cx="20" cy="20" r="20"/>
    </defs>
    <g fill="none" fill-rule="evenodd">
        <g>
            <g>
                <g transform="translate(-13.000000, -543.000000) translate(13.000000, 380.000000) translate(0.000000, 163.000000)">
                    <mask id="y2l77c2qqb" fill="#fff">
                        <use xlink:href="#fdeh2j6xja"/>
                    </mask>
                    <use fill="#EFF6FC" xlink:href="#fdeh2j6xja"/>
                    <path fill="#D1DCE6" d="M23.45 29.751v-2.927c1.682-1.143 3.001-3.106 3.664-5.497.041.015.083.027.126.035.682.119 1.421-.853 1.651-2.171.066-.378.081-.743.056-1.074.389.407 1.133.425 1.517.002.412-.453.284-1.277-.245-1.584.455-.159.769-.65.721-1.129-.047-.479-.45-.899-.927-.966.421-.43.823-.945.85-1.546.028-.602-.504-1.248-1.093-1.118.346-.295.219-.9-.133-1.188-.351-.29-.831-.349-1.284-.397.401-.008.643-.522.5-.897-.143-.374-.536-.597-.926-.692-.999-.244-2.226.095-2.952-.633-.15-.15-.266-.338-.446-.45-.296-.183-.675-.114-1.019-.164-.344-.05-.72-.375-.57-.688-.475.157-.991.185-1.48.08-.181-.04-.37-.097-.55-.053-.158.038-.287.148-.4.264-.182.186-.334.393-.464.612-.131-.22-.283-.426-.464-.612-.114-.116-.243-.226-.4-.264-.181-.044-.37.013-.552.053-.488.105-1.004.077-1.478-.08.15.313-.227.638-.571.688-.344.05-.723-.02-1.019.164-.18.112-.296.3-.446.45-.726.728-1.953.389-2.952.633-.39.095-.782.318-.926.692-.143.375.099.89.5.897-.452.048-.933.108-1.284.397-.352.289-.48.893-.133 1.188-.588-.13-1.12.516-1.093 1.118.027.601.43 1.116.85 1.546-.476.067-.88.487-.927.966-.047.48.267.97.721 1.129-.53.307-.657 1.13-.245 1.584.384.423 1.128.405 1.517-.002-.025.331-.01.696.056 1.074.23 1.318.969 2.29 1.65 2.171.044-.008.086-.02.127-.035.663 2.391 1.982 4.354 3.664 5.497v2.927c-4.957.49-8.993 2.024-10.808 4.04C9.373 37.609 14.43 40 20.046 40c5.616 0 10.672-2.391 14.212-6.209-1.815-2.016-5.851-3.55-10.808-4.04" mask="url(#y2l77c2qqb)"/>
                </g>
            </g>
        </g>
    </g>
</svg>
