<svg xmlns="http://www.w3.org/2000/svg" width="24" height="24" viewBox="0 0 24 24">
    <g fill="none" fill-rule="evenodd">
        <g fill="#8A8A8A">
            <g>
                <path d="M333 0c6.617 0 12 5.383 12 12s-5.383 12-12 12-12-5.383-12-12 5.383-12 12-12zm0 1.5c-5.79 0-10.5 4.71-10.5 10.5s4.71 10.5 10.5 10.5 10.5-4.71 10.5-10.5S338.79 1.5 333 1.5zm0 5.5c.552 0 1 .28 1 .625V11h3.375c.345 0 .625.448.625 1s-.28 1-.625 1H334v3.375c0 .345-.448.625-1 .625s-1-.28-1-.625V13h-3.375c-.345 0-.625-.448-.625-1s.28-1 .625-1H332V7.625c0-.345.448-.625 1-.625z" transform="translate(-336 -260) translate(15 260)"/>
            </g>
        </g>
    </g>
</svg>
