<svg xmlns="http://www.w3.org/2000/svg" xmlns:xlink="http://www.w3.org/1999/xlink" width="115" height="120" viewBox="0 0 115 120">
    <defs>
        <path id="1li0500vla" d="M0 0L114.359 0 114.359 120 0 120z"/>
    </defs>
    <g fill="none" fill-rule="evenodd">
        <g>
            <g>
                <g transform="translate(-130 -120) translate(130 120)">
                    <mask id="iluzlni5jb" fill="#fff">
                        <use xlink:href="#1li0500vla"/>
                    </mask>
                    <path fill="#F2F2F2" d="M64.35 1.14C42.236 7.644 46.672 23.075 44.199 40.174c-3.087 21.34-16.43 10.398-31.758 21.922-26.497 19.922-7.249 63.9 25.656 57.22 17.474-3.546 21.044-16.428 28.17-30.192 9.22-17.807 24.508-12.952 38.22-24.577C132.297 40.974 95.72-8.085 64.35 1.14" mask="url(#iluzlni5jb)"/>
                </g>
                <path fill="#FFF" d="M66.231 105.463H24.464c-3.779 0-6.87-3.091-6.87-6.87v-84.53c0-3.78 3.091-6.871 6.87-6.871h41.767c3.779 0 6.87 3.092 6.87 6.87v84.531c0 3.779-3.091 6.87-6.87 6.87" transform="translate(-130 -120) translate(130 120)"/>
                <path fill="#F2F2F2" d="M73.034 16.657h-55.44V14.95c0-4.285 3.473-7.758 7.757-7.758h39.926c4.284 0 7.757 3.473 7.757 7.758v1.707z" transform="translate(-130 -120) translate(130 120)"/>
                <path fill="#D8D8D8" d="M49.196 13.307h-8.002c-.606 0-1.102-.495-1.102-1.1 0-.607.496-1.102 1.102-1.102h8.002c.605 0 1.101.495 1.101 1.101s-.495 1.101-1.101 1.101M55.333 12.217c0 .602-.488 1.09-1.09 1.09-.603 0-1.09-.488-1.09-1.09 0-.602.487-1.09 1.09-1.09.602 0 1.09.488 1.09 1.09" transform="translate(-130 -120) translate(130 120)"/>
                <path fill="#E4EAEF" d="M45.314 29.322c-12.512 0-22.692 10.18-22.692 22.692 0 12.513 10.18 22.692 22.692 22.692s22.692-10.18 22.692-22.692-10.18-22.692-22.692-22.692m0 46.885c-13.34 0-24.193-10.853-24.193-24.193 0-13.34 10.853-24.192 24.193-24.192 13.34 0 24.193 10.852 24.193 24.192S58.654 76.207 45.314 76.207" transform="translate(-130 -120) translate(130 120)"/>
                <path fill="#E4EAEF" d="M45.314 35.324c-9.203 0-16.69 7.487-16.69 16.69 0 9.204 7.487 16.691 16.69 16.691 9.203 0 16.69-7.487 16.69-16.69 0-9.204-7.487-16.691-16.69-16.691m0 34.882c-10.031 0-18.192-8.16-18.192-18.192 0-10.03 8.16-18.191 18.192-18.191 10.031 0 18.192 8.16 18.192 18.191 0 10.031-8.161 18.192-18.192 18.192" transform="translate(-130 -120) translate(130 120)"/>
                <path fill="#E4EAEF" d="M45.314 41.553c-5.769 0-10.462 4.693-10.462 10.462 0 5.768 4.693 10.46 10.462 10.46 5.768 0 10.462-4.692 10.462-10.46 0-5.77-4.694-10.462-10.462-10.462m0 22.423c-6.596 0-11.962-5.366-11.962-11.961 0-6.597 5.366-11.963 11.962-11.963s11.962 5.366 11.962 11.963c0 6.595-5.366 11.961-11.962 11.961" transform="translate(-130 -120) translate(130 120)"/>
                <g>
                    <path fill="#E4EAEF" d="M38.873.084h20.73c9.496 0 17.193 7.697 17.193 17.192 0 9.496-7.697 17.193-17.193 17.193H17.321C7.826 34.47.13 26.772.13 17.277.129 7.78 7.826.083 17.32.083h10.48" transform="translate(-130 -120) translate(130 120) translate(34.063 56.563)"/>
                    <path stroke="#FFF" d="M38.873.084h20.73c9.496 0 17.193 7.697 17.193 17.192h0c0 9.496-7.697 17.193-17.193 17.193H17.321C7.826 34.47.13 26.772.13 17.277h0C.129 7.78 7.826.083 17.32.083h10.48" transform="translate(-130 -120) translate(130 120) translate(34.063 56.563)"/>
                </g>
                <path fill="#FFF" d="M39.577 73.83v-.01c.004-6.684 5.425-12.1 12.109-12.098l41.684.01c6.687.002 12.107 5.426 12.102 12.114-.004 6.683-5.422 12.098-12.105 12.098H51.683c-6.69 0-12.11-5.425-12.106-12.114M84.89 35.713c0 6.49-5.26 11.75-11.75 11.75s-11.75-5.26-11.75-11.75 5.26-11.751 11.75-11.751 11.75 5.26 11.75 11.75" transform="translate(-130 -120) translate(130 120)"/>
                <path fill="#2DBB54" d="M56.67 79.112v-3.54c0-.042-.016-.073-.047-.095-.032-.02-.069-.02-.11 0l-3.225 1.865c-.044.022-.096.032-.159.032-.127 0-.222-.052-.283-.159l-.603-1.074c-.02-.042-.03-.095-.03-.159 0-.127.052-.22.157-.284l3.257-1.77c.041-.021.063-.053.063-.095 0-.043-.022-.073-.063-.094l-3.257-1.772c-.083-.04-.137-.104-.157-.19-.021-.084-.011-.168.03-.253l.603-1.074c.041-.085.105-.137.188-.159.085-.02.168-.01.254.032l3.224 1.834c.042.022.079.022.11 0 .032-.02.047-.052.047-.094v-3.51c0-.21.107-.316.318-.316h1.2c.21 0 .318.106.318.316v3.51c0 .042.015.074.046.094.032.022.069.022.11 0l3.225-1.834c.042-.02.095-.032.159-.032.127 0 .222.054.283.16l.571 1.073c.02.044.032.095.032.16 0 .126-.054.22-.159.283l-3.257 1.772c-.043.021-.063.051-.063.094 0 .042.02.074.063.096l3.257 1.77c.084.041.137.105.159.188.02.085.01.17-.032.254l-.57 1.074c-.042.085-.106.138-.189.159-.085.021-.17.011-.254-.032l-3.225-1.865c-.041-.02-.078-.02-.11 0-.031.022-.046.053-.046.095v3.54c0 .212-.107.317-.318.317h-1.2c-.21 0-.318-.105-.318-.317M71.623 79.112v-3.54c0-.042-.015-.073-.047-.095-.032-.02-.068-.02-.11 0l-3.225 1.865c-.043.022-.095.032-.158.032-.127 0-.222-.052-.284-.159l-.602-1.074c-.02-.042-.03-.095-.03-.159 0-.127.051-.22.156-.284l3.257-1.77c.042-.021.063-.053.063-.095 0-.043-.021-.073-.063-.094l-3.257-1.772c-.083-.04-.136-.104-.157-.19-.021-.084-.011-.168.03-.253l.603-1.074c.041-.085.105-.137.188-.159.086-.02.169-.01.254.032l3.225 1.834c.042.022.078.022.11 0 .032-.02.047-.052.047-.094v-3.51c0-.21.106-.316.317-.316h1.2c.211 0 .318.106.318.316v3.51c0 .042.015.074.046.094.032.022.069.022.11 0l3.225-1.834c.042-.02.096-.032.159-.032.127 0 .222.054.284.16l.57 1.073c.02.044.032.095.032.16 0 .126-.054.22-.159.283l-3.256 1.772c-.043.021-.064.051-.064.094 0 .042.02.074.064.096l3.256 1.77c.084.041.137.105.159.188.02.085.01.17-.032.254l-.57 1.074c-.042.085-.106.138-.189.159-.085.021-.17.011-.254-.032l-3.224-1.865c-.042-.02-.079-.02-.11 0-.032.022-.047.053-.047.095v3.54c0 .212-.107.317-.317.317H71.94c-.21 0-.317-.105-.317-.317M86.576 79.112v-3.54c0-.042-.015-.073-.047-.095-.031-.02-.068-.02-.11 0l-3.225 1.865c-.043.022-.095.032-.158.032-.127 0-.222-.052-.284-.159l-.602-1.074c-.02-.042-.03-.095-.03-.159 0-.127.052-.22.157-.284l3.256-1.77c.042-.021.064-.053.064-.095 0-.043-.022-.073-.064-.094l-3.256-1.772c-.084-.04-.137-.104-.157-.19-.022-.084-.012-.168.03-.253l.602-1.074c.042-.085.106-.137.189-.159.085-.02.168-.01.253.032l3.225 1.834c.042.022.079.022.11 0 .032-.02.047-.052.047-.094v-3.51c0-.21.107-.316.317-.316h1.201c.21 0 .317.106.317.316v3.51c0 .042.015.074.047.094.032.022.068.022.11 0l3.225-1.834c.042-.02.095-.032.159-.032.126 0 .221.054.283.16l.57 1.073c.02.044.032.095.032.16 0 .126-.053.22-.158.283l-3.257 1.772c-.043.021-.063.051-.063.094 0 .042.02.074.063.096l3.257 1.77c.083.041.137.105.158.188.02.085.01.17-.031.254l-.571 1.074c-.042.085-.105.138-.188.159-.086.021-.17.011-.254-.032l-3.225-1.865c-.042-.02-.078-.02-.11 0-.032.022-.047.053-.047.095v3.54c0 .212-.107.317-.317.317h-1.2c-.211 0-.318-.105-.318-.317" transform="translate(-130 -120) translate(130 120)"/>
                <path fill="#2DBB54" d="M93.665 89.886H51.384c-8.848 0-16.047-7.199-16.047-16.047s7.199-16.047 16.047-16.047h10.479c.633 0 1.146-.513 1.146-1.145 0-.634-.513-1.146-1.146-1.146h-10.48c-10.11 0-18.338 8.226-18.338 18.338s8.227 18.34 18.339 18.34h20.521v5.912c0 3.406-2.77 6.177-6.176 6.177h-40.83c-3.405 0-6.176-2.772-6.176-6.177V14.497c0-3.405 2.77-6.176 6.176-6.176h40.83c3.406 0 6.176 2.77 6.176 6.176v7.354c-7.009.663-12.511 6.58-12.511 13.76s5.502 13.096 12.511 13.76v6.781c-.072.15-.116.317-.116.495 0 .632.513 1.145 1.146 1.145h20.73c8.849 0 16.048 7.2 16.048 16.047 0 8.849-7.2 16.047-16.047 16.047m-8.62-54.275c0 6.522-5.306 11.829-11.829 11.829-6.522 0-11.829-5.307-11.829-11.83 0-6.522 5.307-11.828 11.83-11.828 6.522 0 11.828 5.306 11.828 11.829m8.62 19.89H74.162v-6.103c7.182-.487 12.878-6.483 12.878-13.787 0-7.304-5.696-13.3-12.878-13.788v-7.326c0-4.65-3.784-8.434-8.434-8.434h-40.83c-4.65 0-8.434 3.784-8.434 8.434v83.594c0 4.65 3.784 8.434 8.434 8.434h40.83c4.65 0 8.434-3.784 8.434-8.434v-5.913h19.502c10.112 0 18.34-8.227 18.34-18.339 0-10.112-8.228-18.338-18.34-18.338" transform="translate(-130 -120) translate(130 120)"/>
                <path fill="#2DBB54" d="M74.17 40.619h-1.906l.332-2.362c-.256-.19-.423-.494-.423-.838 0-.577.468-1.044 1.044-1.044.577 0 1.044.467 1.044 1.044 0 .344-.166.648-.422.838l.332 2.362zm4.89-6.186h-7.733l-.742-2.682c-.409-1.48.515-3.018 2.043-3.333 1.393-.287 2.758.627 3.138 1.999.046.168.221.268.39.221l.385-.107c.162-.045.257-.212.213-.374-.53-1.916-2.456-3.16-4.396-2.726-2.073.465-3.317 2.57-2.757 4.593l.666 2.41h-2.893c-.263 0-.476.213-.476.476v7.592c0 .263.213.476.476.476H79.06c.263 0 .476-.213.476-.476V34.91c0-.263-.213-.477-.476-.477zM96.28 99.284c-.478 0-.866.388-.866.866s.388.867.866.867c.477 0 .866-.389.866-.867s-.389-.866-.866-.866m0 3.732c-1.58 0-2.865-1.286-2.865-2.866s1.285-2.865 2.865-2.865c1.58 0 2.865 1.285 2.865 2.865 0 1.58-1.285 2.866-2.865 2.866M11.741 54.782h-1.195v-1.167c0-.52-.423-.943-.943-.943-.521 0-.943.423-.943.943v1.166H7.493c-.52 0-.942.423-.942.944 0 .52.422.942.942.942H8.66v1.196c0 .52.422.943.943.943.52 0 .943-.422.943-.943v-1.196h1.195c.521 0 .943-.422.943-.942 0-.521-.422-.944-.943-.944M9.822 78.912c-.464 0-.84.377-.84.84 0 .464.376.842.84.842.463 0 .84-.378.84-.841 0-.464-.377-.84-.84-.84m0 3.62c-1.534 0-2.78-1.247-2.78-2.78 0-1.533 1.246-2.78 2.78-2.78 1.533 0 2.78 1.247 2.78 2.78 0 1.533-1.247 2.78-2.78 2.78M95.004 28.528l-4.796.458c-.601.058-1.042.592-.984 1.193.054.566.53.99 1.087.99.035 0 .07-.002.105-.005l4.796-.459c.601-.057 1.042-.592.984-1.193-.057-.601-.59-1.039-1.192-.984M91.396 20.528c-.387-.464-1.077-.527-1.54-.14l-3.54 2.949c-.464.387-.527 1.076-.14 1.54.216.26.527.394.84.394.247 0 .495-.083.7-.253l3.54-2.95c.464-.387.526-1.076.14-1.54M81.947 14.236c-.607-.042-1.117.434-1.148 1.036l-.258 5.089c-.031.603.433 1.117 1.036 1.147l.057.002c.579 0 1.062-.454 1.091-1.039l.259-5.087c.03-.604-.434-1.118-1.037-1.148" transform="translate(-130 -120) translate(130 120)"/>
            </g>
        </g>
    </g>
</svg>
