<svg xmlns="http://www.w3.org/2000/svg" width="131" height="102" viewBox="0 0 131 102">
    <g fill="none" fill-rule="evenodd">
        <g>
            <g transform="translate(-123 -339) translate(123 339)">
                <path fill="#000" fill-rule="nonzero" d="M81.44 100.61S29 108.92 4.63 58.27C-15.95 15.43 40.15-19.27 63 13.77c15.69 22.63 29.1 24.67 46.52 27.94 27.68 5.18 35.79 49.43-28.08 58.9z" opacity=".05"/>
                <path fill="#0AB822" fill-rule="nonzero" d="M60.61 54.93l-3.12 15.34c-.229 1.078.264 2.181 1.22 2.73.234.131.487.226.75.28.789.16 1.606-.067 2.2-.61l11.47-10.38-12.52-7.36zM121.8 7.2c-.649-.698-1.634-.972-2.55-.71L36.9 30.19c-.977.275-1.695 1.108-1.824 2.115-.128 1.007.357 1.993 1.234 2.505L55.56 46.1l51.75-28.7-42.47 34.13L97.1 70.46c.238.14.499.238.77.29 1.229.25 2.456-.434 2.89-1.61l21.57-59.35c.327-.894.122-1.896-.53-2.59z"/>
                <rect width="44.3" height="44.3" x="33.2" y="4.12" fill="#C9C9C9" fill-rule="nonzero" rx="22.15"/>
                <path fill="#FFF" d="M48.66 19.44c-.005-3.647 2.911-6.625 6.557-6.698 3.646-.072 6.678 2.788 6.818 6.432.14 3.644-2.664 6.729-6.305 6.936h-.76c-3.538-.201-6.305-3.126-6.31-6.67M49.37 39.8c-1.712.001-3.275-.971-4.031-2.507-.756-1.535-.574-3.367.471-4.723 2.27-2.975 5.798-4.72 9.54-4.72 3.742 0 7.27 1.745 9.54 4.72 1.045 1.356 1.227 3.188.471 4.723-.756 1.536-2.32 2.508-4.031 2.507H49.37z"/>
                <path fill="#C9C9C9" fill-rule="nonzero" d="M51.29 93.12c-.592.002-1.156-.25-1.55-.69-.385-.414-.588-.965-.561-1.53.026-.564.279-1.094.701-1.47l13.61-12.31c.862-.779 2.191-.712 2.97.15.779.862.712 2.191-.15 2.97L52.7 92.58c-.386.35-.89.542-1.41.54zM32.63 93.91c-.87.002-1.651-.533-1.964-1.345-.313-.812-.092-1.733.554-2.315l18.31-16.57c.862-.779 2.191-.712 2.97.15.779.862.712 2.191-.15 2.97L34 93.37c-.377.339-.863.53-1.37.54zM38.11 71.33c-.592.002-1.156-.25-1.55-.69-.385-.414-.588-.965-.561-1.53.026-.564.279-1.094.701-1.47l8.35-7.55c.551-.53 1.348-.72 2.078-.493.731.227 1.28.833 1.435 1.583.154.75-.111 1.523-.693 2.02l-8.35 7.56c-.382.36-.885.564-1.41.57z"/>
            </g>
        </g>
    </g>
</svg>
