<svg xmlns="http://www.w3.org/2000/svg" width="32" height="32" viewBox="0 0 32 32">
    <g fill="none" fill-rule="evenodd">
        <g fill="#2DBB54">
            <path d="M739.653 743.098c.174.231.325.548.327.828.023 2.715.028 5.43.005 8.145-.014 1.597-1.33 2.882-2.933 2.916-.679.015-1.358.005-2.037.006h-1.997c-1.32 0-2.638.002-3.958 0-.808-.001-1.37-.511-1.368-1.235.002-.728.557-1.226 1.375-1.226 2.535-.002 5.071-.001 7.607-.001.72 0 .859-.135.859-.842 0-2.574-.002-5.148.002-7.722 0-.571.303-1.012.795-1.198.474-.178 1.018-.077 1.323.33zm-30.403.822c.71.008 1.217.564 1.217 1.35v6.46c0 .64.155.798.787.799 2.59.002 5.178-.003 7.767.004.927.003 1.53.867 1.198 1.69-.195.479-.641.766-1.221.767-1.346.004-2.692.001-4.037.001-1.282 0-2.563.004-3.845 0-1.809-.008-3.104-1.296-3.109-3.1-.006-2.203-.003-4.408 0-6.612 0-.81.514-1.367 1.243-1.36zm15.94-12.599c.037.147.038.305.038.457.003 1.857.003 3.715.004 5.572v.415h.445l5.572.003c.81 0 1.367.511 1.361 1.24-.006.711-.56 1.218-1.346 1.219-1.858.003-3.715.001-5.572.001h-.462c0 2.052-.003 4.05.002 6.046.001.52-.192.925-.647 1.18-.822.46-1.807-.136-1.813-1.104-.01-1.883-.004-3.766-.005-5.65v-.47h-.428c-1.857 0-3.715 0-5.572-.002-.817 0-1.375-.497-1.378-1.224-.004-.729.552-1.235 1.366-1.236 1.985-.002 3.97 0 6.014 0v-.418c0-1.908-.005-3.817.004-5.726.002-.653.472-1.164 1.092-1.232.606-.066 1.176.327 1.326.93zm-10.235-8.316v-.003c1.332 0 2.664-.002 3.996 0 .802.002 1.365.522 1.356 1.248-.009.71-.563 1.213-1.35 1.214-2.574.002-5.148 0-7.722 0-.606 0-.768.166-.768.778-.001 2.587 0 5.173-.002 7.76 0 .611-.316 1.06-.847 1.238-.503.169-1.058.014-1.358-.44-.14-.212-.244-.494-.245-.745-.016-2.702-.022-5.404-.003-8.106.012-1.618 1.327-2.919 2.948-2.94 1.332-.018 2.663-.004 3.995-.004zm14.062-.003l7.92.005c.203 0 .41.021.61.059 1.412.266 2.424 1.455 2.441 2.898.017 1.333.004 2.666.004 3.999h.001v3.921c0 .854-.486 1.417-1.222 1.422-.739.004-1.237-.56-1.238-1.407v-7.304c0-1.096-.035-1.13-1.113-1.13-2.474 0-4.947.003-7.42-.003-1.008-.002-1.62-.96-1.16-1.807.251-.46.658-.653 1.177-.653z" transform="translate(-708 -723)"/>
        </g>
    </g>
</svg>
