<svg xmlns="http://www.w3.org/2000/svg" width="14" height="16" viewBox="0 0 14 16">
    <g fill="none" fill-rule="evenodd">
        <g fill="#0DAA27">
            <g>
                <g>
                    <g>
                        <g>
                            <g>
                                <path d="M4.773 3.182c-.526 0-.955.428-.955.954v9.546c0 .526.429.954.955.954h7.636c.526 0 .955-.428.955-.954V4.136c0-.526-.429-.954-.955-.954H4.773zm7.636-.637c.877 0 1.591.714 1.591 1.591v9.546c0 .877-.714 1.59-1.59 1.59H4.772c-.877 0-1.591-.713-1.591-1.59V4.136c0-.877.714-1.59 1.59-1.59h7.637zM9.227 0c.877 0 1.591.713 1.591 1.59 0 .176-.142.32-.318.32-.176 0-.318-.144-.318-.32 0-.525-.429-.954-.955-.954H1.591c-.526 0-.955.429-.955.955v10.182c0 .526.429.954.955.954h.636c.176 0 .318.143.318.318 0 .176-.142.319-.318.319h-.636C.714 13.364 0 12.65 0 11.773V1.59C0 .713.714 0 1.59 0h7.637zm1.91 10.818H6.044c-.175 0-.318-.142-.318-.318 0-.176.143-.318.318-.318h5.091c.176 0 .319.142.319.318 0 .176-.143.318-.319.318m0 2.546h-5.09c-.176 0-.319-.143-.319-.319 0-.175.143-.318.318-.318h5.091c.176 0 .319.143.319.318 0 .176-.143.319-.319.319m0-5.091h-5.09c-.176 0-.319-.143-.319-.318 0-.176.143-.319.318-.319h5.091c.176 0 .319.143.319.319 0 .175-.143.318-.319.318m0-2.546h-5.09c-.176 0-.319-.142-.319-.318 0-.175.143-.318.318-.318h5.091c.176 0 .319.143.319.318 0 .176-.143.318-.319.318" transform="translate(-329 -362) translate(15 103) translate(0 79) translate(1) translate(16 180) translate(297)"/>
                            </g>
                        </g>
                    </g>
                </g>
            </g>
        </g>
    </g>
</svg>
