<svg xmlns="http://www.w3.org/2000/svg" xmlns:xlink="http://www.w3.org/1999/xlink" width="150" height="158" viewBox="0 0 150 158">
    <defs>
        <path id="dplly6q9aa" d="M0 0L149.888 0 149.888 157.281 0 157.281z"/>
        <path id="chnv2jzm3c" d="M0 157.282L149.889 157.282 149.889 0 0 0z"/>
    </defs>
    <g fill="none" fill-rule="evenodd">
        <g>
            <g transform="translate(-253 -227) translate(253 227)">
                <g>
                    <mask id="u9ugrxlqnb" fill="#fff">
                        <use xlink:href="#dplly6q9aa"/>
                    </mask>
                    <path fill="#F2F2F2" d="M84.342 1.494c-28.985 8.525-23.17 28.75-26.412 51.16-4.046 27.971-21.534 13.629-41.624 28.734-34.729 26.111-9.5 83.751 33.628 74.998 22.901-4.648 27.581-21.532 36.922-39.574 12.083-23.338 32.12-16.975 50.092-32.211 36.45-30.897-11.489-95.197-52.606-83.107" mask="url(#u9ugrxlqnb)"/>
                </g>
                <path fill="#E4EAEF" d="M119.046 114.804H37.828c-2.703 0-4.915-2.212-4.915-4.915v-49.94c0-2.703 2.212-4.915 4.915-4.915h81.218c2.703 0 4.915 2.212 4.915 4.915v49.94c0 2.703-2.212 4.915-4.915 4.915"/>
                <mask id="6up8yjtp3d" fill="#fff">
                    <use xlink:href="#chnv2jzm3c"/>
                </mask>
                <path fill="#FFF" d="M32.927 79.238L123.525 79.238 123.525 66.066 32.927 66.066zM116.839 99.593c0 3.984-3.23 7.214-7.214 7.214-3.985 0-7.215-3.23-7.215-7.214 0-3.984 3.23-7.214 7.215-7.214 3.984 0 7.214 3.23 7.214 7.214" mask="url(#6up8yjtp3d)"/>
                <path fill="#FFF" d="M108.126 99.593c0 3.984-3.23 7.214-7.214 7.214-3.984 0-7.214-3.23-7.214-7.214 0-3.984 3.23-7.214 7.214-7.214 3.984 0 7.214 3.23 7.214 7.214M58.818 97.173h-16.46c-1.264 0-2.299-1.034-2.299-2.299 0-1.264 1.035-2.299 2.299-2.299h16.46c1.265 0 2.3 1.035 2.3 2.3 0 1.264-1.035 2.298-2.3 2.298M58.818 105.253h-16.46c-1.264 0-2.299-1.034-2.299-2.299 0-1.264 1.035-2.299 2.299-2.299h16.46c1.265 0 2.3 1.035 2.3 2.3 0 1.264-1.035 2.298-2.3 2.298" mask="url(#6up8yjtp3d)"/>
                <path fill="#2DBB54" d="M119.046 116.36H82.84c-.86 0-1.556-.697-1.556-1.556 0-.86.697-1.557 1.556-1.557h36.206c1.852 0 3.358-1.506 3.358-3.358v-49.94c0-1.852-1.506-3.359-3.358-3.359H37.828c-1.851 0-3.358 1.507-3.358 3.359v49.94c0 1.852 1.507 3.358 3.358 3.358h26.866c.86 0 1.556.697 1.556 1.557s-.697 1.556-1.556 1.556H37.828c-3.568 0-6.471-2.903-6.471-6.471v-49.94c0-3.569 2.903-6.472 6.471-6.472h81.218c3.568 0 6.471 2.903 6.471 6.472v49.94c0 3.568-2.903 6.471-6.471 6.471" mask="url(#6up8yjtp3d)"/>
                <path fill="#FFF" d="M94.882 92.768H13.664c-2.703 0-4.915-2.212-4.915-4.915v-49.94c0-2.703 2.212-4.915 4.915-4.915h81.218c2.703 0 4.915 2.212 4.915 4.915v49.94c0 2.703-2.212 4.915-4.915 4.915" mask="url(#6up8yjtp3d)"/>
                <path fill="#D8D8D8" d="M8.75 58.903L99.347 58.903 99.347 45.732 8.75 45.732zM85.447 72.044c-3.985 0-7.214 3.23-7.214 7.214 0 3.985 3.23 7.215 7.214 7.215 3.984 0 7.214-3.23 7.214-7.215 0-3.984-3.23-7.214-7.214-7.214m0 1.639c3.074 0 5.576 2.501 5.576 5.575 0 3.075-2.502 5.576-5.576 5.576-3.075 0-5.576-2.5-5.576-5.576 0-3.074 2.501-5.575 5.576-5.575" mask="url(#6up8yjtp3d)"/>
                <path fill="#D8D8D8" d="M83.948 79.259c0 3.984-3.23 7.214-7.214 7.214-3.984 0-7.214-3.23-7.214-7.214 0-3.985 3.23-7.215 7.214-7.215 3.984 0 7.214 3.23 7.214 7.215M34.64 76.838H18.18c-1.264 0-2.299-1.034-2.299-2.299 0-1.264 1.035-2.299 2.299-2.299h16.46c1.265 0 2.3 1.035 2.3 2.3 0 1.264-1.035 2.298-2.3 2.298M34.64 84.919H18.18c-1.264 0-2.299-1.035-2.299-2.3 0-1.264 1.035-2.298 2.299-2.298h16.46c1.265 0 2.3 1.034 2.3 2.299 0 1.264-1.035 2.299-2.3 2.299" mask="url(#6up8yjtp3d)"/>
                <path fill="#2DBB54" d="M94.882 94.324H13.664c-3.568 0-6.471-2.903-6.471-6.471v-49.94c0-3.568 2.903-6.471 6.471-6.471h43.151c.86 0 1.556.696 1.556 1.556 0 .86-.696 1.556-1.556 1.556h-43.15c-1.852 0-3.36 1.507-3.36 3.359v49.94c0 1.852 1.508 3.359 3.36 3.359h81.217c1.852 0 3.358-1.507 3.358-3.359v-49.94c0-1.852-1.506-3.359-3.358-3.359H73.877c-.86 0-1.557-.696-1.557-1.556 0-.86.697-1.556 1.557-1.556h21.005c3.568 0 6.471 2.903 6.471 6.47v49.941c0 3.568-2.903 6.471-6.471 6.471M50.94 13c-.735 0-1.332.597-1.332 1.331s.597 1.331 1.331 1.331 1.331-.597 1.331-1.33c0-.735-.597-1.332-1.33-1.332m0 5.734c-2.429 0-4.404-1.975-4.404-4.403 0-2.428 1.975-4.403 4.403-4.403 2.428 0 4.403 1.975 4.403 4.403 0 2.428-1.975 4.403-4.403 4.403M34.35 125.942c-.735 0-1.332.597-1.332 1.331s.597 1.331 1.331 1.331 1.331-.597 1.331-1.33c0-.735-.597-1.332-1.33-1.332m0 5.734c-2.429 0-4.404-1.975-4.404-4.403 0-2.428 1.975-4.403 4.403-4.403 2.428 0 4.403 1.975 4.403 4.403 0 2.428-1.975 4.403-4.403 4.403M104.918 141.408h-1.948v-1.9c0-.848-.687-1.536-1.536-1.536-.848 0-1.536.688-1.536 1.536v1.9h-1.9c-.848 0-1.536.688-1.536 1.536 0 .848.688 1.536 1.536 1.536h1.9v1.948c0 .848.688 1.536 1.536 1.536.849 0 1.536-.688 1.536-1.536v-1.948h1.948c.848 0 1.536-.688 1.536-1.536 0-.848-.688-1.536-1.536-1.536M124.923 38.151h-1.04v-.754c0-.85-.688-1.536-1.536-1.536-.849 0-1.536.687-1.536 1.536v.754h-.755c-.848 0-1.536.688-1.536 1.536 0 .848.688 1.536 1.536 1.536h.755v1.041c0 .848.687 1.536 1.536 1.536.848 0 1.536-.688 1.536-1.536v-1.041h1.04c.849 0 1.536-.688 1.536-1.536 0-.848-.687-1.536-1.536-1.536M26.408 112.834h-1.04v-.755c0-.849-.689-1.536-1.537-1.536s-1.536.687-1.536 1.536v.755h-.755c-.848 0-1.536.687-1.536 1.535 0 .849.688 1.536 1.536 1.536h.755v1.042c0 .848.688 1.536 1.536 1.536.848 0 1.536-.688 1.536-1.536v-1.042h1.04c.85 0 1.537-.687 1.537-1.536 0-.848-.688-1.535-1.536-1.535" mask="url(#6up8yjtp3d)"/>
                <path fill="#FFF" d="M139.164 103.94c0 16.314-13.225 29.54-29.54 29.54-16.313 0-29.539-13.226-29.539-29.54s13.226-29.54 29.54-29.54 29.54 13.226 29.54 29.54" mask="url(#6up8yjtp3d)"/>
                <path fill="#2DBB54" d="M109.625 75.957c-15.43 0-27.983 12.553-27.983 27.983s12.553 27.984 27.983 27.984 27.983-12.554 27.983-27.984c0-15.43-12.553-27.983-27.983-27.983m0 59.08c-17.147 0-31.096-13.95-31.096-31.097 0-17.146 13.95-31.096 31.096-31.096s31.095 13.95 31.095 31.096c0 17.147-13.95 31.096-31.095 31.096" mask="url(#6up8yjtp3d)"/>
                <path fill="#2DBB54" d="M128.618 91.211l-5.305-5.255c-2.351-2.312-6.164-2.325-8.514-.025l-5.892 5.744c-2.357 2.3-2.37 6.049-.024 8.362l3.36-3.236c-.336-1.027.084-2.204.916-3.023l3.748-3.654c1.183-1.15 3.089-1.143 4.259.013l3.187 3.151c1.17 1.163 1.164 3.026-.01 4.182l-3.75 3.653c-.788.775-2.09 1.2-3.1.928l-3.3 3.233c2.347 2.32 6.16 2.326 8.516.026l5.884-5.738c2.363-2.305 2.376-6.048.025-8.361M107.06 112.23c.28 1.003-.166 2.306-.98 3.1l-3.5 3.42c-1.195 1.167-3.14 1.16-4.334-.02l-3.253-3.203c-1.189-1.176-1.182-3.094.018-4.257l3.502-3.419c.851-.831 2.077-1.251 3.151-.901l3.375-3.343c-2.39-2.357-6.279-2.37-8.68-.026l-5.674 5.542c-2.401 2.35-2.414 6.163-.025 8.526l5.4 5.344c2.39 2.35 6.278 2.364 8.68.02l5.68-5.542c2.396-2.35 2.41-6.157.026-8.52l-3.387 3.279z" mask="url(#6up8yjtp3d)"/>
                <path fill="#2DBB54" d="M103.367 110.704c.794.8 2.097.813 2.91.013l9.703-9.652c.807-.8.813-2.103.006-2.91-.794-.8-2.097-.8-2.897-.006l-9.71 9.652c-.805.794-.805 2.096-.012 2.903" mask="url(#6up8yjtp3d)"/>
            </g>
        </g>
    </g>
</svg>
