<svg xmlns="http://www.w3.org/2000/svg" width="32" height="32" viewBox="0 0 32 32">
    <g fill="none" fill-rule="evenodd">
        <g>
            <g>
                <path fill="#39A7FF" d="M16 0C7.195 0 0 7.187 0 15.993c0 8.806 7.194 15.993 16 15.993 8.807 0 15.994-7.187 15.994-15.993C31.994 7.186 24.806 0 16 0" transform="translate(-941 -542) translate(941 542)"/>
                <path fill="#FFF" d="M16 24.427c-3.1 0-5.622-2.523-5.622-5.623 0-1.75.648-2.755 2.38-5.445.826-1.28 1.905-2.956 3.243-5.238 1.337 2.281 2.416 3.956 3.241 5.236 1.733 2.688 2.381 3.694 2.381 5.447 0 3.1-2.522 5.623-5.622 5.623m.814-18.643c-.167-.293-.478-.473-.814-.473-.337 0-.648.18-.815.473-1.694 2.976-3.028 5.048-4.003 6.56-1.84 2.856-2.68 4.16-2.68 6.46 0 4.134 3.364 7.497 7.498 7.497 4.133 0 7.496-3.363 7.496-7.497 0-2.305-.84-3.608-2.68-6.462-.974-1.512-2.308-3.583-4.002-6.558" transform="translate(-941 -542) translate(941 542)"/>
            </g>
        </g>
    </g>
</svg>
