<svg xmlns="http://www.w3.org/2000/svg" width="56" height="56" viewBox="0 0 56 56">
    <defs>
        <linearGradient id="d9xu9kkwsa" x1="34.501%" x2="77.43%" y1="25.762%" y2="74.238%">
            <stop offset="0%" stop-color="#B28CFF"/>
            <stop offset="100%" stop-color="#6E1FF9"/>
        </linearGradient>
    </defs>
    <g fill="none" fill-rule="evenodd">
        <g>
            <g>
                <g>
                    <g transform="translate(-304 -515) translate(9 293) translate(284 222) translate(11)">
                        <rect width="56" height="56" fill="#F2EFFF" rx="20"/>
                        <path fill="url(#d9xu9kkwsa)" d="M38.242 29.858c0 1.812.075 3.544-.028 5.265-.06 1.022-.782 1.772-1.58 2.39-1.66 1.287-3.613 1.846-5.645 2.05-2.585.26-5.15.099-7.59-.94-.355-.152-.7-.33-1.039-.518-1.906-1.064-2.901-2.596-2.421-4.966 1.424.743 2.827 1.443 4.198 2.2 1.252.692 2.446.667 3.702-.01 3.251-1.75 6.524-3.464 9.79-5.19.174-.093.359-.165.613-.28zm3.416-7.901c.528-.283.937-.322 1.432.012.394.266.848.442 1.265.677.67.379.68.863.09 1.324-.195.153-.281.45-.405.687-.028.054 0 .135-.005.203-.123 1.977.078 3.915.612 5.828.195.696.262 1.432.344 2.154.081.712-.408 1.144-1.262 1.17-.916.028-1.475-.366-1.395-1.087.135-1.22.121-2.528.59-3.62.658-1.537.17-3.04.447-4.727-.421.197-.68.304-.926.434-5.078 2.688-10.175 5.338-15.217 8.09-1.61.879-3.073 1.012-4.616.004-.279-.182-.586-.32-.973-.527l5.765-3.053c4.754-2.519 9.513-5.028 14.254-7.57zm-9.275-5.585c2.186 1.133 4.364 2.282 6.544 3.427.096.05.18.126.365.259l-9.228 4.89c-3.606 1.911-7.216 3.816-10.812 5.747-.458.246-.806.241-1.259-.002-2.108-1.134-4.242-2.221-6.349-3.358-.283-.153-.664-.512-.643-.743.027-.293.364-.653.66-.811 5.833-3.116 11.682-6.202 17.521-9.304 1.06-.564 2.122-.664 3.2-.105zm-13.678 8.067c-1.81 0-3.276.87-3.276 1.941 0 1.072 1.467 1.942 3.276 1.942 1.809 0 3.275-.87 3.275-1.942s-1.466-1.94-3.275-1.94z"/>
                    </g>
                </g>
            </g>
        </g>
    </g>
</svg>
