<svg width="16" height="16" viewBox="0 0 16 16" fill="none" xmlns="http://www.w3.org/2000/svg">
<path d="M8 16C12.4183 16 16 12.4183 16 8C16 3.58172 12.4183 0 8 0C3.58172 0 0 3.58172 0 8C0 12.4183 3.58172 16 8 16Z" fill="#33CB33"/>
<path d="M10.3292 5.83895C10.5589 5.60923 10.9313 5.60923 11.161 5.83895C11.3908 6.06867 11.3908 6.44112 11.161 6.67084L7.63163 10.2002C7.40191 10.43 7.02946 10.43 6.79974 10.2002L4.83895 8.23946C4.60923 8.00974 4.60923 7.63729 4.83895 7.40757C5.06867 7.17785 5.44112 7.17785 5.67084 7.40757L7.21568 8.95241L10.3292 5.83895Z" fill="white"/>
</svg>
