<svg xmlns="http://www.w3.org/2000/svg" width="28" height="26" viewBox="0 0 28 26">
    <g fill="none" fill-rule="evenodd">
        <g fill="#FFF" fill-rule="nonzero">
            <path d="M764 620.104c.555-.47 1.285-.68 2.005-.578l18.565 2.108c1.498.178 2.574 1.527 2.414 3.027l-1.564 13.804c-.082.716-.435 1.372-.986 1.836-.388.27-.828.455-1.292.544v.544c0 1.496-1.36 2.653-2.856 2.653h-18.719l-.051-.001c-1.427-.038-2.553-1.225-2.515-2.652v-13.906c0-1.496 1.122-2.822 2.618-2.822h1.054l.34-2.789c.075-.698.43-1.337.986-1.768zm3.74 14.995c-.584-.545-1.476-.588-2.109-.102l-5.27 3.876v2.516c-.002.035-.003.07-.001.105.02.676.583 1.207 1.259 1.187h18.667c.748 0 1.496-.544 1.496-1.292v-6.596l-6.698 3.876c-.493.296-1.058.45-1.632.442-.735-.011-1.444-.275-2.007-.748zm-1.87-14.247c-.362-.03-.723.066-1.02.272-.265.23-.445.541-.51.884l-.307 2.653h16.253c1.55.035 2.802 1.273 2.856 2.822v12.002c0-.068.306-.136.442-.272.282-.22.445-.56.442-.918l1.598-13.804.001-.014c.071-.748-.477-1.412-1.225-1.483zm14.416 5.169h-18.667c-.748 0-1.258.714-1.258 1.462v9.69l4.488-3.264c1.136-.842 2.702-.785 3.774.136l3.74 3.298c.564.479 1.37.547 2.007.17l7.412-4.318v-5.712c-.052-.798-.697-1.43-1.496-1.462zm-7.106 2.142c1.577 0 2.856 1.278 2.856 2.856 0 1.577-1.28 2.856-2.856 2.856-1.578 0-2.857-1.279-2.857-2.856 0-1.578 1.28-2.856 2.857-2.856zm0 1.36l-.145.007c-.758.072-1.352.711-1.352 1.489 0 .826.67 1.496 1.497 1.496.826 0 1.496-.67 1.496-1.496s-.67-1.496-1.496-1.496z" transform="translate(-759 -619)"/>
        </g>
    </g>
</svg>
