<svg xmlns="http://www.w3.org/2000/svg" width="16" height="16" viewBox="0 0 16 16">
    <g fill="none" fill-rule="evenodd">
        <g fill="#CBCBCB">
            <g>
                <g>
                    <path d="M6.56 0C2.938 0 .003 2.936.003 6.557c0 3.621 2.935 6.557 6.557 6.557 3.62 0 6.556-2.936 6.556-6.557C13.113 2.937 10.18.003 6.56 0zm0 10.833c-2.362 0-4.277-1.915-4.277-4.276 0-2.362 1.915-4.276 4.277-4.276 2.361 0 4.276 1.914 4.276 4.276-.003 2.36-1.916 4.273-4.276 4.276zM15.63 14.02l-2.28-2.28c-.445-.446-1.168-.446-1.613 0-.446.445-.446 1.167 0 1.613l2.28 2.28c.446.446 1.168.446 1.614 0 .445-.445.445-1.167 0-1.613z" transform="translate(-30 -115) translate(13 103) translate(17 12)"/>
                </g>
            </g>
        </g>
    </g>
</svg>
