<svg xmlns="http://www.w3.org/2000/svg" width="32" height="32" viewBox="0 0 32 32">
    <g fill="none" fill-rule="evenodd">
        <g fill="#00BE00">
            <g>
                <g>
                    <g>
                        <g>
                            <path d="M16.111 20.821c1.057-.96 2.534-.534 2.822-.246l.344.343.233.234.402.402.29.29.879.878.502.503.354.353.057.057.077.077c.908.909.908 2.382 0 3.29-.909.909-2.382.909-3.29 0l-4.425-4.425zm-.633-3.7l2.572 2.57s-1.232-.597-2.56.731l-6.58 6.58c-.909.909-2.381.909-3.29 0-.908-.909-.908-2.381 0-3.29l6.592-6.592c.902-.902 2.364-.902 3.266 0zm4.217-7.484s-.598 1.232.73 2.56l6.58 6.58c.91.909.91 2.381 0 3.29-.908.908-2.381.908-3.29 0l-6.591-6.592c-.902-.902-.902-2.365 0-3.266l2.571-2.572zM5.106 14.352l1.757 1.756c.96 1.056.534 2.534.245 2.822l-2.65 2.65-.282.283-.071.07-.134.134c-.908.908-2.381.908-3.29 0-.908-.909-.908-2.381 0-3.29l4.425-4.425zM3.971 5.617l6.592 6.592c.902.9.902 2.364 0 3.266l-2.571 2.571s.598-1.231-.73-2.56l-6.58-6.58c-.91-.908-.91-2.38 0-3.29.908-.908 2.381-.908 3.29 0zm19.744 0c.91-.908 2.382-.908 3.29 0 .909.908.909 2.381 0 3.29l-4.425 4.425-1.756-1.757c-.96-1.056-.535-2.533-.245-2.822l2.534-2.535.22-.22zM22.07.682c.909.909.909 2.381 0 3.29l-6.592 6.591c-.902.903-2.364.902-3.266 0L9.641 7.992s1.231.598 2.56-.73l6.58-6.58c.908-.91 2.38-.91 3.29 0zm-16.45 0c.908-.909 2.382-.909 3.29 0l4.425 4.425-1.756 1.756c-1.056.96-2.534.534-2.822.245l-.148-.148-.195-.195-.113-.112-.249-.25-.134-.134L6.22 4.574l-.22-.22-.382-.382c-.908-.91-.908-2.382 0-3.29z" transform="translate(-31 -513) translate(15 506) translate(1) translate(15 7) translate(2 2)"/>
                        </g>
                    </g>
                </g>
            </g>
        </g>
    </g>
</svg>
