<svg xmlns="http://www.w3.org/2000/svg" width="32" height="32" viewBox="0 0 32 32">
    <g fill="none" fill-rule="evenodd">
        <g fill="#B47BEE">
            <g>
                <path d="M30.917 0c8.777 0 15.917 7.14 15.917 15.917 0 8.777-7.14 15.917-15.917 15.917C22.14 31.834 15 24.694 15 15.917 15 7.14 22.14 0 30.917 0zm8.128 9.059c1.461 0 2.66 1.144 2.747 2.584l.005.167v8.231c0 1.461-1.145 2.66-2.585 2.747l-.167.005H22.78c-1.461 0-2.66-1.145-2.747-2.584l-.005-.168v-8.23c0-1.462 1.145-2.66 2.585-2.747l.167-.005h16.265zm0 1.828H22.78c-.473 0-.863.357-.917.816l-.006.107v8.231c0 .473.357.864.816.917l.107.006h16.265c.473 0 .863-.357.917-.815l.006-.108v-8.23c0-.473-.357-.864-.816-.918l-.107-.006zm-14.552 2.431c.47 0 .856.353.908.808l.007.106v3.428c0 .505-.41.915-.915.915-.469 0-.855-.353-.908-.808l-.006-.107v-3.428c0-.505.41-.914.914-.914zm3.218 0c.468 0 .855.353.908.808l.006.106v3.428c0 .505-.41.915-.914.915-.47 0-.856-.353-.909-.808l-.006-.107v-3.428c0-.505.41-.914.915-.914zm3.217 0c.469 0 .855.353.908.808l.006.106v3.428c0 .505-.41.915-.914.915-.469 0-.855-.353-.908-.808l-.006-.107v-3.428c0-.505.409-.914.914-.914zm3.217 0c.47 0 .856.353.908.808l.007.106v3.428c0 .505-.41.915-.915.915-.469 0-.855-.353-.908-.808l-.006-.107v-3.428c0-.505.41-.914.914-.914zm3.218 0c.468 0 .855.353.908.808l.006.106v3.428c0 .505-.41.915-.914.915-.47 0-.856-.353-.909-.808l-.006-.107v-3.428c0-.505.41-.914.915-.914z" transform="translate(-939 -612) translate(924 612)"/>
            </g>
        </g>
    </g>
</svg>
