<svg xmlns="http://www.w3.org/2000/svg" width="18" height="18" viewBox="0 0 18 18">
    <g fill="none" fill-rule="evenodd">
        <g fill="#9E9E9E">
            <path d="M865 355.125c-4.342 0-7.875 3.533-7.875 7.875 0 4.342 3.533 7.875 7.875 7.875 4.342 0 7.875-3.533 7.875-7.875 0-4.342-3.533-7.875-7.875-7.875M865 372c-4.963 0-9-4.037-9-9s4.037-9 9-9 9 4.037 9 9-4.037 9-9 9m.384-11.04l2.683 3.22c.176.212.148.527-.064.704-.09.075-.204.116-.32.116h-5.365c-.277 0-.5-.224-.5-.5 0-.117.04-.23.115-.32l2.683-3.22c.177-.211.492-.24.704-.063.023.02.045.04.064.064z" transform="translate(-856 -354)"/>
        </g>
    </g>
</svg>
