<svg xmlns="http://www.w3.org/2000/svg" xmlns:xlink="http://www.w3.org/1999/xlink" width="36" height="12" viewBox="0 0 36 12">
    <defs>
        <path id="qxr5wooela" d="M0.107 0.216L4.888 0.216 4.888 8.148 0.107 8.148z"/>
        <path id="yk25dkbtwc" d="M0.152 0.077L5.769 0.077 5.769 7.451 0.152 7.451z"/>
    </defs>
    <g fill="none" fill-rule="evenodd">
        <g>
            <g>
                <path fill="#181148" d="M.414 7.972V1.41c0-.34.276-.616.616-.616h2.702C5.133.794 6.279 1.923 6.31 3.32c.032 1.446-1.169 2.62-2.615 2.62H2.617c-.12 0-.217-.097-.217-.217v-.626c0-.34.275-.616.616-.616h.715c.662 0 1.206-.565 1.137-1.224-.061-.576-.55-1.026-1.142-1.026H1.851v5.32c0 .341-.276.617-.616.617H.61c-.108 0-.195-.087-.195-.195M9.734 4.306c-.71.005-1.288.586-1.288 1.296 0 .71.579 1.293 1.29 1.301h.011c.615 0 1.148-.438 1.27-1.042v-.516c-.122-.603-.654-1.039-1.27-1.039h-.013zm0 4.005c-1.516-.007-2.696-1.224-2.696-2.709 0-1.484 1.21-2.699 2.695-2.708h.014c.51 0 1.018.25 1.27.426v-.198c0-.054.044-.097.097-.097h1.144c.107 0 .193.086.193.193v4.756c0 .107-.086.193-.193.193h-1.144c-.053 0-.097-.043-.097-.097v-.185c-.32.194-.682.43-1.283.426z" transform="translate(-734 -215) translate(734 215)"/>
                <g transform="translate(-734 -215) translate(734 215) translate(13.794 2.81)">
                    <mask id="7ghgg164wb" fill="#fff">
                        <use xlink:href="#qxr5wooela"/>
                    </mask>
                    <path fill="#181148" d="M2.288 8.148c-.798 0-1.544-.364-2.036-.984-.07-.09-.045-.22.052-.28l.55-.336c.29-.179.656-.205.96-.049.13.068.29.118.474.118.8 0 1.068-.514 1.068-1.28-.273.106-.561.159-.858.159-.402 0-.799-.102-1.149-.294-.092-.05-.181-.108-.267-.17-.41-.302-.718-.734-.868-1.217-.071-.23-.107-.468-.107-.71V.825c0-.337.273-.61.61-.61h.62c.107 0 .193.087.193.192v2.67c0 .397.228.768.594.921.12.05.245.075.374.075.057 0 .115-.005.173-.015.434-.08.76-.442.792-.882l.003-.07V.825c0-.338.272-.61.609-.61h.622c.105 0 .191.086.191.191v5.276c0 1.434-1.166 2.465-2.6 2.465" mask="url(#7ghgg164wb)"/>
                </g>
                <g transform="translate(-734 -215) translate(734 215) translate(29.392 .716)">
                    <mask id="f4d31moggd" fill="#fff">
                        <use xlink:href="#yk25dkbtwc"/>
                    </mask>
                    <path fill="#16A94A" d="M1.606 6.014h3.969c.107 0 .194.087.194.194v.634c0 .337-.273.61-.609.61H.346c-.107 0-.194-.088-.194-.195V.687c0-.337.272-.61.609-.61h4.814c.107 0 .194.087.194.195V1.32c0 .107-.087.194-.194.194h-3.97v4.5z" mask="url(#f4d31moggd)"/>
                </g>
                <path fill="#16A94A" d="M32.129 3.753h2.562c.108 0 .195.087.195.194v.635c0 .336-.273.608-.609.608h-2.536c-.108 0-.194-.086-.194-.193v-.662c0-.321.26-.582.582-.582M26.696.766c-.064 0-.124.031-.16.084l-1.87 2.698c-.093.134-.292.132-.383-.003L22.477.852c-.035-.053-.096-.086-.16-.086h-1.238c-.122 0-.221.099-.221.221v6.959c0 .122.099.22.22.22h.623c.321 0 .582-.26.582-.581V3.247l1.792 2.49c.193.276.602.276.795 0l1.793-2.49v4.7c0 .121.098.22.22.22h.623c.321 0 .582-.26.582-.582V.987c0-.122-.099-.221-.221-.221h-1.171z" transform="translate(-734 -215) translate(734 215)"/>
            </g>
        </g>
    </g>
</svg>
