<svg xmlns="http://www.w3.org/2000/svg" xmlns:xlink="http://www.w3.org/1999/xlink" width="24" height="24" viewBox="0 0 24 24">
    <defs>
        <path id="78rfqka2fa" d="M6.201 0c3.425 0 6.201 2.806 6.201 6.268 0 1.254-.365 2.422-.992 3.402.05.033.098.073.144.118l.016.017 4.1 4.184c.439.448.439 1.165 0 1.613l-.059.06c-.445.454-1.174.462-1.63.016l-.016-.016-4.1-4.185-.08-.093c-1.013.725-2.25 1.151-3.584 1.151C2.776 12.535 0 9.73 0 6.268 0 2.806 2.776 0 6.201 0zm0 1.32c-2.704 0-4.896 2.215-4.896 4.948 0 2.732 2.192 4.948 4.896 4.948 2.704 0 4.895-2.216 4.895-4.948 0-2.733-2.191-4.948-4.895-4.948z"/>
    </defs>
    <g fill="none" fill-rule="evenodd">
        <g>
            <g>
                <g transform="translate(-30.000000, -166.000000) translate(15.000000, 158.000000) translate(15.000000, 8.000000) translate(4.000000, 4.000000)">
                    <use fill="#A5AEB8" xlink:href="#78rfqka2fa"/>
                </g>
            </g>
        </g>
    </g>
</svg>
