<svg xmlns="http://www.w3.org/2000/svg" width="56" height="56" viewBox="0 0 56 56">
    <defs>
        <linearGradient id="u81i4e3k7a" x1="23.781%" x2="76.219%" y1="0%" y2="100%">
            <stop offset="0%" stop-color="#A8E976"/>
            <stop offset="100%" stop-color="#00B600"/>
        </linearGradient>
    </defs>
    <g fill="none" fill-rule="evenodd">
        <g>
            <g>
                <g>
                    <g transform="translate(-15 -515) translate(9 293) translate(0 222) translate(6)">
                        <rect width="56" height="56" fill="#E9FBD8" rx="20"/>
                        <path fill="url(#u81i4e3k7a)" d="M34.085 30.694l-1.191 1.188c-1.254 1.252-4.577-.125-7.523-3.065-2.947-2.94-4.263-6.256-3.072-7.507l1.191-1.188c.439-.438 1.191-.438 1.693 0l1.755 1.751c.627.626.376 1.69-.439 1.94-.564.187-.94.813-.752 1.376.313 1.313 2.006 2.94 3.26 3.253.564.125 1.19-.188 1.379-.75.25-.814 1.316-1.064 1.943-.439l1.756 1.752c.438.438.438 1.188 0 1.689M37.483 14h-18.69c-.438 0-.793.367-.793.82v23.943c0 .218.084.427.232.58l2.337 2.417c.31.32.811.32 1.121 0l1.776-1.837 1.775 1.837c.149.154.35.24.56.24.211 0 .413-.086.562-.24l1.775-1.837 1.775 1.837c.149.154.35.24.561.24.21 0 .412-.086.56-.24l1.776-1.837 1.776 1.837c.155.16.357.24.56.24.203 0 .406-.08.561-.24l2.337-2.417c.148-.153.232-.362.232-.58V14.82c0-.453-.355-.82-.793-.82"/>
                    </g>
                </g>
            </g>
        </g>
    </g>
</svg>
