<svg xmlns="http://www.w3.org/2000/svg" width="24" height="24" viewBox="0 0 24 24">
    <g fill="none" fill-rule="evenodd">
        <g fill="#FFF">
            <g>
                <g>
                    <path d="M11 0c.66 0 1.29.233 1.786.658l.161.149 8.248 8.247c1.025 1.027 1.07 2.663.14 3.744l-.14.15c-.363.363-.813.613-1.301.73l-.06.012.001 5.242c0 1.628-1.272 2.964-2.876 3.064l-.194.006h-3.227c-.768 0-1.4-.584-1.476-1.333l-.008-.151v-4.759c0-.041-.026-.078-.063-.093l-.039-.009h-1.903c-.042 0-.078.027-.094.063l-.008.04v4.758c0 .768-.584 1.4-1.333 1.476l-.151.008H5.236c-1.629 0-2.964-1.273-3.064-2.876l-.006-.194-.001-5.242-.204-.052c-.36-.108-.696-.29-.987-.535l-.168-.155C-.217 11.925-.266 10.29.659 9.213l.151-.164L9.053.807C9.573.287 10.267 0 11 0zm0 1.784c-.208 0-.404.064-.568.184l-.117.1-8.25 8.25c-.375.377-.374.992.002 1.368.138.139.31.23.524.268l.157.016h.31c.451 0 .824.336.883.771l.009.122v6.069c0 .661.503 1.208 1.146 1.278l.14.008h2.926l.001-4.459c0-.983.754-1.791 1.714-1.878l.172-.007h1.903c.983 0 1.791.753 1.878 1.714l.008.171v4.459h2.927c.661 0 1.209-.503 1.279-1.146l.007-.14v-6.07c0-.451.336-.824.771-.883l.121-.008h.305c.26 0 .501-.1.685-.284.343-.343.374-.884.094-1.263l-.093-.108-8.248-8.248c-.185-.184-.425-.284-.686-.284z" transform="translate(-336.000000, -54.000000) translate(256.000000, 44.000000) translate(79.500000, 10.000000) translate(0.500000, 0.000000) translate(0.500000, 1.000000)"/>
                </g>
            </g>
        </g>
    </g>
</svg>
