<svg xmlns="http://www.w3.org/2000/svg" width="11" height="9" viewBox="0 0 11 9">
    <g fill="none" fill-rule="evenodd">
        <g fill="#FFF" fill-rule="nonzero">
            <g>
                <g>
                    <path d="M12.273 5.013c.103 0 .2.044.27.12l3.273 3.637c.125.138.125.348 0 .487l-3.272 3.636c-.07.076-.168.12-.27.12H10.09c-.143 0-.273-.084-.332-.216-.059-.13-.034-.284.062-.391l3.054-3.393L9.82 5.62c-.096-.107-.12-.26-.062-.392.059-.13.19-.215.332-.215zm-4.727 0c.103 0 .2.044.27.12L11.09 8.77c.125.138.125.348 0 .487l-3.273 3.636c-.07.076-.167.12-.27.12H5.364c-.143 0-.273-.084-.332-.216-.06-.13-.034-.284.062-.391l3.053-3.393L5.094 5.62c-.096-.107-.12-.26-.062-.392.059-.13.189-.215.332-.215z" transform="translate(-177 -207) translate(14 104) translate(158 98)"/>
                </g>
            </g>
        </g>
    </g>
</svg>
