<svg xmlns="http://www.w3.org/2000/svg" width="32" height="32" viewBox="0 0 32 32">
    <g fill="none" fill-rule="evenodd">
        <g>
            <g>
                <path fill="#FF7A3B" d="M15.917 31.834C7.14 31.834 0 24.694 0 15.917 0 7.14 7.14 0 15.917 0c8.777 0 15.917 7.14 15.917 15.917 0 8.777-7.14 15.917-15.917 15.917" transform="translate(-1085 -542) translate(1085 542)"/>
                <path fill="#FFF" d="M20.293 24.373h-7.828c-.221 0-.408-.187-.408-.408v-1.333h8.644v1.333c0 .221-.187.408-.408.408zm-8.236-3.42h8.644v-9.758h-8.644v9.759zm.408-13.199h7.828c.221 0 .408.187.408.408v1.355h-8.644V8.162c0-.221.187-.408.408-.408zm7.828-1.678h-7.828c-1.15 0-2.086.936-2.086 2.086v15.803c0 1.15.936 2.086 2.086 2.086h7.828c1.15 0 2.086-.936 2.086-2.086V8.162c0-1.15-.936-2.086-2.086-2.086z" transform="translate(-1085 -542) translate(1085 542)"/>
            </g>
        </g>
    </g>
</svg>
