<svg width="120" height="120" viewBox="0 0 120 120" xmlns="http://www.w3.org/2000/svg">
    <g fill="none" fill-rule="evenodd">
        <path d="M65.798 33.87c-15.953-3.26-22.33-14.117-40.47-9.109C9.267 29.204-.522 47.001 8.318 61.895c2.524 4.245 6.814 7.452 8.573 12.216 2.83 7.634-1.476 13.543-.642 21.079 3.495 31.301 51.368 19.17 68.98 9.436 27.623-15.27 46.313-49.25 25.237-65.428-14.645-11.246-28.839-2.092-44.669-5.329z" fill="#000" fill-opacity=".2" fill-rule="nonzero" opacity=".15"/>
        <path d="M8.882 31.561a3.569 3.569 0 0 1-3.318-2.178 3.555 3.555 0 0 1 .755-3.89 3.574 3.574 0 0 1 3.892-.785 3.56 3.56 0 0 1-1.33 6.853M3.825 85.883a3.324 3.324 0 0 1-3.094-2.026 3.311 3.311 0 0 1 .7-3.625A3.329 3.329 0 0 1 5.06 79.5a3.316 3.316 0 0 1 2.057 3.07 3.305 3.305 0 0 1-3.29 3.313M98.68 93.047h-1.598v-1.569a1.258 1.258 0 0 0-.61-1.146c-.4-.24-.9-.24-1.3 0s-.634.681-.609 1.146v1.57h-1.572c-.7 0-1.269.566-1.269 1.265 0 .7.568 1.266 1.269 1.266h1.557v1.606a1.264 1.264 0 0 0 1.91 1.146c.4-.24.635-.681.61-1.146v-1.606h1.597c.701 0 1.27-.567 1.27-1.266 0-.699-.569-1.266-1.27-1.266M97.887 6.563h-.896v-.624a1.322 1.322 0 0 0-1.322-1.252c-.704 0-1.285.55-1.322 1.252v.624H93.7c-.707 0-1.28.571-1.28 1.277 0 .705.573 1.277 1.28 1.277h.647v.86a1.322 1.322 0 0 0 1.322 1.252c.704 0 1.285-.55 1.322-1.251v-.876h.896c.706 0 1.28-.572 1.28-1.277s-.574-1.277-1.28-1.277M27.58 96.055h-.997v-.73c0-.811-.66-1.47-1.474-1.47-.813 0-1.473.659-1.473 1.47v.73h-.731a1.483 1.483 0 1 0 0 2.963h.73v1.003c0 .812.66 1.47 1.474 1.47s1.474-.658 1.474-1.47v-1.003h.998c.82 0 1.484-.663 1.484-1.481 0-.818-.664-1.482-1.484-1.482" fill="#D8D8D8"/>
        <path d="M95.364 57.13c.002 14.86-8.968 28.258-22.725 33.946-13.758 5.688-29.595 2.546-40.126-7.961a36.683 36.683 0 0 1-7.983-40.04c5.698-13.729 19.124-22.68 34.016-22.68 20.332 0 36.815 16.445 36.818 36.734" fill="#EC2A2A"/>
        <path d="M62.772 57.27 73.7 46.367a3.29 3.29 0 0 0-.133-4.52 3.309 3.309 0 0 0-4.53-.133l-10.932 10.9L47.34 41.858a3.305 3.305 0 0 0-4.586.076 3.287 3.287 0 0 0-.077 4.577l10.776 10.756-10.776 10.756a3.287 3.287 0 0 0 1.436 5.593 3.304 3.304 0 0 0 3.227-.94l10.777-10.753 10.924 10.9a3.309 3.309 0 0 0 4.53-.133 3.29 3.29 0 0 0 .133-4.52l-10.932-10.9z" fill="#FFF"/>
    </g>
</svg>
