<svg xmlns="http://www.w3.org/2000/svg" width="32" height="32" viewBox="0 0 32 32">
    <g fill="none" fill-rule="evenodd">
        <g>
            <g>
                <path fill="#9FDB00" d="M15.917 31.834C7.14 31.834 0 24.694 0 15.917 0 7.14 7.14 0 15.917 0c8.777 0 15.917 7.14 15.917 15.917 0 8.777-7.14 15.917-15.917 15.917" transform="translate(-1013 -543) translate(1013 543)"/>
                <path fill="#FFF" d="M21.256 22.1c.493 0 .893.4.893.893s-.4.893-.893.893h-9.987c-.493 0-.893-.4-.893-.893s.4-.893.893-.893zm2.458-13.628c1.405 0 2.548 1.143 2.548 2.548v7.488c0 1.405-1.143 2.549-2.548 2.549h-6.559v1.036H15.37v-1.036H8.811c-1.405 0-2.549-1.144-2.549-2.549V11.02c0-1.405 1.144-2.548 2.549-2.548zm0 1.786H8.811c-.42 0-.763.342-.763.762v7.488c0 .42.342.763.763.763h14.903c.42 0 .762-.342.762-.763V11.02c0-.42-.341-.762-.762-.762z" transform="translate(-1013 -543) translate(1013 543)"/>
            </g>
        </g>
    </g>
</svg>
