<svg xmlns="http://www.w3.org/2000/svg" width="14" height="14" viewBox="0 0 14 14">
    <defs>
        <linearGradient id="ss6lgncv3a" x1="0%" x2="100%" y1="100%" y2="0%">
            <stop offset="0%" stop-color="#08941F"/>
            <stop offset="100%" stop-color="#0EB92A"/>
        </linearGradient>
        <linearGradient id="tqszzhc02b" x1="20.975%" x2="79.025%" y1="100%" y2="0%">
            <stop offset="0%" stop-color="#08941F"/>
            <stop offset="100%" stop-color="#0EB92A"/>
        </linearGradient>
    </defs>
    <g fill="none" fill-rule="evenodd">
        <g>
            <g>
                <g>
                    <g transform="translate(-232 -724) translate(131 721) translate(0 1) translate(101 2)">
                        <circle cx="7" cy="10.35" r="1" fill="url(#ss6lgncv3a)"/>
                        <path fill="url(#ss6lgncv3a)" d="M7 0C3.131 0 0 3.13 0 7c0 3.869 3.13 7 7 7 3.869 0 7-3.13 7-7 0-3.869-3.13-7-7-7zm0 12.906c-3.264 0-5.906-2.641-5.906-5.906 0-3.264 2.641-5.906 5.906-5.906 3.264 0 5.906 2.641 5.906 5.906 0 3.264-2.641 5.906-5.906 5.906z"/>
                        <path fill="url(#tqszzhc02b)" d="M7 3.514c-1.206 0-2.188.981-2.188 2.187 0 .302.245.547.547.547.302 0 .547-.245.547-.547 0-.603.49-1.094 1.094-1.094.603 0 1.094.491 1.094 1.094 0 .603-.49 1.094-1.094 1.094-.302 0-.547.245-.547.547v1.367c0 .302.245.547.547.547.302 0 .547-.245.547-.547v-.89c.942-.243 1.64-1.1 1.64-2.118 0-1.206-.98-2.187-2.187-2.187z"/>
                    </g>
                </g>
            </g>
        </g>
    </g>
</svg>
