<svg xmlns="http://www.w3.org/2000/svg" width="16" height="16" viewBox="0 0 16 16">
    <g fill="none" fill-rule="evenodd">
        <g fill="#FF4000">
            <g>
                <path d="M24.805 29.138c-.13.13-.301.195-.472.195-.17 0-.341-.065-.47-.195l-3.334-3.333c-.126-.125-.196-.294-.196-.472V21c0-.369.299-.667.667-.667.368 0 .667.298.667.667v4.057l3.138 3.138c.26.261.26.682 0 .943M21 17c-4.411 0-8 3.589-8 8s3.589 8 8 8 8-3.589 8-8-3.589-8-8-8" transform="translate(-29 -296) translate(16 279)"/>
            </g>
        </g>
    </g>
</svg>
