<svg xmlns="http://www.w3.org/2000/svg" width="56" height="56" viewBox="0 0 56 56">
    <defs>
        <linearGradient id="xu7ifbqhja" x1="50%" x2="50%" y1="1.494%" y2="100%">
            <stop offset="0%" stop-color="#4FF1E7"/>
            <stop offset="100%" stop-color="#00ABEB"/>
        </linearGradient>
    </defs>
    <g fill="none" fill-rule="evenodd">
        <g>
            <g>
                <g transform="translate(-111 -515) translate(9 293) translate(102 222)">
                    <rect width="56" height="56" fill="#E4FCFF" rx="20"/>
                    <path fill="url(#xu7ifbqhja)" d="M26.344 35.026c1.19-1.191 3.122-1.191 4.314 0 1.19 1.19 1.19 3.122 0 4.313-1.192 1.191-3.123 1.191-4.314 0-1.191-1.19-1.191-3.123 0-4.313zM28.5 27.77c2.513 0 4.877.98 6.653 2.757.698.698.698 1.828 0 2.525-.349.349-.804.523-1.262.523-.455 0-.913-.174-1.263-.523-1.101-1.103-2.568-1.71-4.128-1.71s-3.027.607-4.13 1.71c-.697.697-1.827.697-2.524 0-.697-.697-.697-1.828 0-2.525 1.776-1.778 4.14-2.757 6.654-2.757zm0-5.879c4.084 0 7.922 1.59 10.81 4.479.697.697.697 1.828 0 2.524-.349.35-.805.523-1.263.523-.455 0-.913-.174-1.262-.523-2.213-2.213-5.156-3.432-8.285-3.432-3.13 0-6.074 1.219-8.287 3.432-.697.698-1.827.698-2.525 0-.697-.696-.697-1.827 0-2.524 2.888-2.888 6.727-4.479 10.812-4.479zm0-5.892c5.658 0 10.977 2.203 14.977 6.205.696.697.696 1.828 0 2.525-.699.696-1.828.697-2.526 0-3.326-3.327-7.747-5.16-12.452-5.16-4.704 0-9.127 1.833-12.452 5.16-.348.348-.806.523-1.262.523-.457 0-.914-.175-1.263-.523-.697-.697-.697-1.828 0-2.525C17.523 18.203 22.842 16 28.5 16z"/>
                </g>
            </g>
        </g>
    </g>
</svg>
