<svg xmlns="http://www.w3.org/2000/svg" xmlns:xlink="http://www.w3.org/1999/xlink" width="345" height="80" viewBox="0 0 345 80">
    <defs>
        <path id="d6b10kufkc" d="M0.35 0.026L110.848 0.026 110.848 57.056 0.35 57.056z"/>
        <path id="k0ao2c1iie" d="M0 0.832L39.486 0.832 39.486 32.502 0 32.502z"/>
        <path id="zn17v3kcpg" d="M0.033 0.969L110.532 0.969 110.532 58 0.033 58z"/>
        <path id="8q54zt8pci" d="M0.398 0.543L39.885 0.543 39.885 32.21 0.398 32.21z"/>
        <path id="thk2y54elk" d="M0.044 0.297L5.728 0.297 5.728 7.675 0.044 7.675z"/>
        <path id="ck9sa8nilm" d="M0.076 0.198L5.365 0.198 5.365 7.061 0.076 7.061z"/>
        <path id="ctmtifckuo" d="M7.193.314L3.89 3.71.158 7.472c.99-.895 3.71-1.18 4.53-1.265v.003c3.163-.391 6.7-.058 9.126.91L7.193.314z"/>
        <path id="s7p3cu70or" d="M.126 1.902c-.241 1.31 4.063 1.924 4.972 2.025V.088C4.104.188.374.565.126 1.902"/>
        <path id="ycmi6wb7cu" d="M13.898.108c-.99.873-3.71 1.15-4.53 1.233v-.004C6.205 1.718 2.67 1.395.242.451l6.621 6.628 3.304-3.306L13.899.108z"/>
        <path id="txahpfmfmx" d="M.167 1.972v1.92c.994-.1 4.724-.478 4.972-1.814C5.38.768 1.077.154.167.053v1.92z"/>
        <linearGradient id="el7lfpui2p" x1="65.935%" x2="31.78%" y1="72.329%" y2="52.465%">
            <stop offset="0%" stop-color="#60B8E2"/>
            <stop offset="100%" stop-color="#0062A1"/>
        </linearGradient>
        <linearGradient id="qy1utpc6qs" x1="42.769%" x2="90.205%" y1="30.81%" y2="71.355%">
            <stop offset="0%" stop-color="#60BAE1"/>
            <stop offset="100%" stop-color="#0062A1"/>
        </linearGradient>
        <linearGradient id="5bxlfynp3v" x1="0%" x2="100.001%" y1="50%" y2="50%">
            <stop offset="0%" stop-color="#FFDB54"/>
            <stop offset="100%" stop-color="#ED8721"/>
        </linearGradient>
        <linearGradient id="uasvv6orgy" x1="50.968%" x2="33.637%" y1="66.842%" y2="20.183%">
            <stop offset="0%" stop-color="#FFDB54"/>
            <stop offset="100%" stop-color="#ED8721"/>
        </linearGradient>
        <rect id="o4lndzkpfa" width="345" height="80" x="0" y="0" rx="15"/>
    </defs>
    <g fill="none" fill-rule="evenodd">
        <g>
            <g>
                <g transform="translate(-15 -108) translate(15 108)">
                    <mask id="hobqxy5xpb" fill="#fff">
                        <use xlink:href="#o4lndzkpfa"/>
                    </mask>
                    <use fill="#FECC09" xlink:href="#o4lndzkpfa"/>
                    <g mask="url(#hobqxy5xpb)" opacity=".1">
                        <g>
                            <g transform="translate(214 -25) translate(3)">
                                <mask id="8hdtlz933d" fill="#fff">
                                    <use xlink:href="#d6b10kufkc"/>
                                </mask>
                                <path fill="#FFF" d="M110.848 54.25L57.274.024l-26.73 27.053L.35 57.057l.005-.006c8.008-7.134 30.012-9.404 36.65-10.081v.028c25.598-3.12 54.207-.47 73.843 7.252" mask="url(#8hdtlz933d)"/>
                            </g>
                            <g transform="translate(214 -25) translate(0 46)">
                                <mask id="efm63pzebf" fill="#fff">
                                    <use xlink:href="#k0ao2c1iie"/>
                                </mask>
                                <path fill="#FFF" d="M39.486 32.502V.832C31.606 1.654 2.038 4.768.077 15.798c-1.916 10.801 32.2 15.87 39.41 16.704" mask="url(#efm63pzebf)"/>
                            </g>
                            <g transform="translate(214 -25) translate(6 75)">
                                <mask id="s044nulz5h" fill="#fff">
                                    <use xlink:href="#zn17v3kcpg"/>
                                </mask>
                                <path fill="#FFF" d="M.033 3.775L53.608 58l26.73-27.053L110.532.968l-.005.003c-8.008 7.134-30.012 9.404-36.65 10.081v-.025c-25.598 3.117-54.205.47-73.844-7.252" mask="url(#s044nulz5h)"/>
                            </g>
                            <g transform="translate(214 -25) translate(80 54)">
                                <mask id="v5u71vqxdj" fill="#fff">
                                    <use xlink:href="#8q54zt8pci"/>
                                </mask>
                                <path fill="#FFF" d="M.398.543V32.21c7.88-.819 37.448-3.934 39.411-14.963C41.723 6.446 7.606 1.377.398.543" mask="url(#v5u71vqxdj)"/>
                            </g>
                        </g>
                    </g>
                </g>
                <g>
                    <g>
                        <path fill="#005D9C" d="M2.31.037L0 .265v9.223h2.31V6.727h.936c4.198 0 4.508-4.933 2.024-6.219C4.512.116 3.504 0 2.31.038m0 5.535V1.219c1.367-.138 2.057.553 2.179 1.824.074.777-.14 1.606-.715 2.088-.36.3-.847.453-1.464.442M7.04.151L10.395 9.488 11.485 9.488 12.575 9.488 15.93.151 13.091.151 11.485 5.929 9.879.151z" transform="translate(-15 -108) translate(15 108) translate(23 11) translate(0 7)"/>
                        <path fill="#F6F6F6" d="M25.272 6.028c0-.334-.033-.64-.098-.925-.068-.283-.166-.525-.301-.73-.133-.203-.303-.36-.507-.471-.207-.113-.442-.169-.71-.169-.272 0-.51.056-.716.169-.204.11-.374.268-.507.47-.135.206-.233.448-.3.731-.067.285-.1.591-.1.925 0 .339.033.65.1.935.067.283.165.526.3.729.133.205.303.364.507.478.207.116.444.173.716.173.268 0 .503-.057.71-.173.204-.114.374-.273.507-.478.135-.203.233-.446.3-.729.066-.285.099-.596.099-.935m1.608.01c0 .492-.068.947-.21 1.368-.142.422-.347.785-.616 1.09-.27.307-.607.548-1.008.726-.401.178-.864.266-1.39.266-.53 0-.995-.088-1.396-.266-.401-.178-.739-.42-1.008-.726-.27-.305-.475-.668-.616-1.09-.14-.42-.21-.876-.21-1.367 0-.49.07-.947.21-1.364.141-.417.347-.777.616-1.084.27-.304.607-.545 1.008-.721.401-.176.866-.264 1.397-.264.525 0 .988.088 1.389.264.401.176.739.417 1.008.721.269.307.474.667.616 1.084.142.417.21.873.21 1.364M34.805 9.488V4.922c0-.327-.091-.58-.271-.754-.182-.176-.428-.264-.738-.264-.378 0-.682.108-.914.33v5.254h-1.564V4.845c0-.293-.095-.522-.285-.69-.19-.167-.451-.25-.781-.25-.34 0-.627.05-.859.154v5.429h-1.54V3.205c.308-.137.66-.25 1.056-.34.395-.09.81-.134 1.244-.134.498 0 .908.07 1.228.206.32.14.572.293.754.465.187-.164.462-.315.824-.458.362-.141.772-.213 1.232-.213.687 0 1.223.196 1.604.586.384.393.574.925.574 1.595v4.576h-1.564zM20.323 2.96l-.526.853c-4.025-.965-3.826 5.466-.06 4.476l.484.798c-.441.23-.932.365-1.475.395-2.552.14-3.974-2.125-3.374-4.361.626-2.337 2.765-2.907 4.95-2.161" transform="translate(-15 -108) translate(15 108) translate(23 11) translate(0 7)"/>
                        <g transform="translate(-15 -108) translate(15 108) translate(23 11) translate(0 7) translate(15.454 9.825)">
                            <mask id="e7i4d00k1l" fill="#fff">
                                <use xlink:href="#thk2y54elk"/>
                            </mask>
                            <path fill="#F6F6F6" d="M1.687 6.749v-2.51h.725c.796 0 1.735.46 1.653 1.43-.057.673-.642 1.1-1.252 1.093L1.687 6.75zm0-5.52l1.316-.013c.428 0 .822.443.867.933.075.825-.787 1.216-1.518 1.216h-.665V1.23zM.044.335v7.342h2.809c3.186 0 3.87-3.136 1.316-3.91C6.796 2.508 5.194.269 2.929.297L.044.334z" mask="url(#e7i4d00k1l)"/>
                        </g>
                        <g transform="translate(-15 -108) translate(15 108) translate(23 11) translate(0 7) translate(21.762 10.439)">
                            <mask id="ncny57o2rn" fill="#fff">
                                <use xlink:href="#ck9sa8nilm"/>
                            </mask>
                            <path fill="#F6F6F6" d="M3.728 6.112l-.94.013c-.509.008-.997-.449-1.044-1.17-.069-1.038.715-1.53 1.379-1.53h.605v2.687zM.533.692l.505.89c.998-.338 3.037-.582 2.719 1.04-1.429.03-3.737.56-3.68 2.34.043 1.345 1.385 1.987 2.598 2.1l2.69-.058V2.557c0-.757-.133-1.173-.744-1.725C3.578-.108 1.985.128.533.692z" mask="url(#ncny57o2rn)"/>
                        </g>
                        <path fill="#F6F6F6" d="M33.577 12.951V17.5H31.95v-4.644c0-.292-.099-.52-.296-.689-.197-.167-.469-.25-.812-.25-.354 0-.651.05-.892.155V17.5H28.35v-6.283c.32-.137.686-.25 1.097-.34.411-.09.843-.134 1.293-.134.518 0 .943.07 1.277.206.962.402 1.56.914 1.56 2.002M36.369 12.946v.217l.102-.114-.102-.103zm-1.564-2.6h1.564v2.6l.102.103 1.93-2.162h2.162l-3.122 3.138L40.9 17.5h-2.161l-2.249-2.518-.12-.135V17.5h-1.564v-7.154z" transform="translate(-15 -108) translate(15 108) translate(23 11) translate(0 7)"/>
                    </g>
                    <g>
                        <g transform="translate(-15 -108) translate(15 108) translate(23 11) translate(36) translate(.517)">
                            <mask id="5zjdkedi5q" fill="#fff">
                                <use xlink:href="#ctmtifckuo"/>
                            </mask>
                            <path fill="url(#el7lfpui2p)" d="M7.193.314L3.89 3.71.158 7.472c.99-.895 3.71-1.18 4.53-1.265v.003c3.163-.391 6.7-.058 9.126.91L7.193.314z" mask="url(#5zjdkedi5q)"/>
                        </g>
                        <g transform="translate(-15 -108) translate(15 108) translate(23 11) translate(36) translate(0 6.182)">
                            <mask id="mzxwe423bt" fill="#fff">
                                <use xlink:href="#s7p3cu70or"/>
                            </mask>
                            <path fill="url(#qy1utpc6qs)" d="M.126 1.902c-.241 1.31 4.063 1.924 4.972 2.025V.088C4.104.188.374.565.126 1.902" mask="url(#mzxwe423bt)"/>
                        </g>
                        <g transform="translate(-15 -108) translate(15 108) translate(23 11) translate(36) translate(.517 9.788)">
                            <mask id="26zcmgf1hw" fill="#fff">
                                <use xlink:href="#ycmi6wb7cu"/>
                            </mask>
                            <path fill="url(#5bxlfynp3v)" d="M13.898.108c-.99.873-3.71 1.15-4.53 1.233v-.004C6.205 1.718 2.67 1.395.242.451l6.621 6.628 3.304-3.306L13.899.108z" mask="url(#26zcmgf1hw)"/>
                        </g>
                        <g transform="translate(-15 -108) translate(15 108) translate(23 11) translate(36) translate(9.828 7.212)">
                            <mask id="wnp8qmsy3z" fill="#fff">
                                <use xlink:href="#txahpfmfmx"/>
                            </mask>
                            <path fill="url(#uasvv6orgy)" d="M.167 1.972v1.92c.994-.1 4.724-.478 4.972-1.814C5.38.768 1.077.154.167.053v1.92z" mask="url(#wnp8qmsy3z)"/>
                        </g>
                    </g>
                </g>
            </g>
        </g>
    </g>
</svg>
