<svg xmlns="http://www.w3.org/2000/svg" width="24" height="24" viewBox="0 0 24 24">
    <g fill="none" fill-rule="evenodd">
        <g fill="#00A500">
            <g>
                <g>
                    <path d="M11.815 22.222c1.51 0 2.928-.289 4.256-.866 1.327-.577 2.497-1.371 3.508-2.382 1.01-1.011 1.803-2.179 2.376-3.503.574-1.324.86-2.74.86-4.25 0-1.508-.286-2.925-.86-4.249-.573-1.324-1.367-2.493-2.382-3.508-1.015-1.015-2.186-1.809-3.514-2.382-1.328-.574-2.746-.86-4.255-.86-1.494 0-2.905.286-4.232.86-1.328.573-2.5 1.367-3.514 2.382-1.015 1.015-1.81 2.184-2.382 3.508-.574 1.324-.86 2.74-.86 4.25 0 1.509.288 2.925.865 4.25.577 1.323 1.371 2.49 2.382 3.502 1.011 1.01 2.18 1.805 3.509 2.382 1.327.577 2.742.866 4.243.866zm0-2.026c-1.237 0-2.399-.232-3.485-.696-1.087-.464-2.04-1.105-2.858-1.924-.818-.818-1.458-1.771-1.918-2.857-.46-1.087-.69-2.252-.69-3.497 0-1.238.23-2.4.69-3.486.46-1.086 1.1-2.04 1.918-2.863.819-.822 1.77-1.466 2.852-1.93 1.083-.464 2.243-.696 3.48-.696 1.253 0 2.42.232 3.503.696 1.082.464 2.035 1.108 2.857 1.93.823.822 1.466 1.777 1.93 2.863.464 1.087.696 2.248.696 3.486.007 1.245-.223 2.41-.69 3.497-.468 1.086-1.11 2.039-1.924 2.857-.815.819-1.766 1.46-2.852 1.924-1.087.464-2.256.696-3.509.696zm0-7.118c.574 0 .868-.302.883-.906l.159-5.375c.007-.302-.091-.55-.295-.741-.203-.193-.456-.29-.758-.29-.317 0-.573.095-.77.284-.196.188-.29.434-.282.735l.147 5.399c.015.596.32.894.916.894zm0 3.52c.325 0 .608-.11.85-.329.24-.219.361-.49.361-.815 0-.332-.12-.607-.362-.826-.241-.219-.524-.328-.849-.328-.34 0-.626.111-.86.334-.234.222-.35.496-.35.82 0 .317.118.587.356.81.238.222.522.333.854.333z" transform="translate(-29 -449) translate(15 433) translate(14 16) translate(0 1)"/>
                </g>
            </g>
        </g>
    </g>
</svg>
