<svg xmlns="http://www.w3.org/2000/svg" width="32" height="32" viewBox="0 0 32 32">
    <g fill="none" fill-rule="evenodd">
        <g fill="#4DC600">
            <g>
                <path d="M15.917 0c8.777 0 15.917 7.14 15.917 15.917 0 8.777-7.14 15.917-15.917 15.917C7.14 31.834 0 24.694 0 15.917 0 7.14 7.14 0 15.917 0zm-1.09 24.482c-.358-.356-.937-.355-1.293.003-.585.587-1.216.913-1.641 1.083-.534.213-.93.26-1.039.26-.505 0-.914.409-.914.914 0 .505.41.914.914.914.727 0 2.493-.393 3.975-1.881.357-.358.356-.937-.002-1.293zm-1.152-1.774c-.27-.427-.836-.553-1.262-.282-1.098.697-2.946 1.396-5.519.765-.49-.12-.985.18-1.105.67-.12.49.18.986.67 1.106.852.209 1.643.295 2.368.295 2.143 0 3.711-.75 4.566-1.292.426-.271.553-.836.282-1.262zm2.684-19.263c-.58.067-1.1.358-1.464.817L11.84 8.126c-.75.947-.588 2.328.36 3.077l3.583 2.833-3.29 4.163c-.75.947-.589 2.328.359 3.077l3.864 3.055c.39.31.864.473 1.354.473.086 0 .172-.005.259-.015.581-.068 1.101-.358 1.464-.818l3.864-4.887-.013-.01 1.475-1.846c.998-1.262 1.444-2.836 1.258-4.433-.187-1.597-.985-3.026-2.246-4.024l-6.158-4.869c-.46-.363-1.032-.526-1.614-.457zm.858 11.726c1.636 1.302 2.951 2.54 2.792 4.295l-.106 1.418-1.544 1.953c-.081.103-.187.129-.242.135-.056.007-.165.006-.267-.075l-3.864-3.055c-.157-.124-.184-.353-.06-.51l3.291-4.161zm-.603-9.913c.06 0 .144.015.225.078l6.158 4.87c.878.694 1.433 1.689 1.563 2.801.13 1.112-.18 2.208-.872 3.083l-1.89 2.364c-.343-2.264-2.251-3.773-3.577-4.821l-4.887-3.864c-.157-.124-.183-.352-.06-.51l3.056-3.863c.08-.103.186-.129.242-.135.012-.002.026-.003.042-.003z" transform="translate(-1089 -692) translate(1089 692)"/>
            </g>
        </g>
    </g>
</svg>
