<svg xmlns="http://www.w3.org/2000/svg" width="26" height="27" viewBox="0 0 26 27">
    <g fill="none" fill-rule="evenodd">
        <g fill="#FFF" fill-rule="nonzero">
            <path d="M350.093 49.268c.746 0 1.354.607 1.353 1.354 0 .031-.002.129-.005.16l-.975 8.236h5.856c.747 0 1.354.608 1.354 1.354 0 .292-.096.582-.273.815l-3.426 4.9 7.794 7.794c.317.318.317.833 0 1.15-.159.16-.367.238-.575.238-.208 0-.416-.08-.574-.238l-24.375-24.376c-.318-.317-.318-.832 0-1.15.317-.317.832-.317 1.149 0l7.06 7.06 4.53-6.722c.277-.372.682-.575 1.107-.575zm-7.716 10.38c.252-.372.757-.47 1.128-.22.373.25.471.754.22 1.127l-1.518 2.255h5.178c.23 0 .45.097.604.27.154.17.228.4.204.629l-.973 9.196 3.475-4.96c.258-.369.765-.456 1.131-.2.368.257.458.764.2 1.131l-4.085 5.829c-.268.36-.673.563-1.098.563-.747 0-1.354-.608-1.354-1.354 0-.028 0-.112.005-.14l.988-9.34h-4.785c-.746 0-1.354-.607-1.354-1.354 0-.292.096-.581.273-.814zm7.32-7.954l-4.069 6.042 7.183 7.183 2.992-4.276h-6.25c-.233 0-.454-.1-.608-.273-.154-.173-.227-.404-.2-.635l.953-8.04z" transform="translate(-336 -49)"/>
        </g>
    </g>
</svg>
