<svg xmlns="http://www.w3.org/2000/svg" width="16" height="16" viewBox="0 0 16 16">
    <g fill="none" fill-rule="evenodd">
        <g fill="#2DBB54">
            <path d="M732.964 799.895c.384.003.705.306.713.695.01.554.004 1.107.005 1.661V802.485c.077-.075.126-.12.174-.169.316-.319.759-.337 1.058-.043.298.292.293.742-.02 1.058-.46.466-.924.93-1.39 1.39-.327.324-.76.325-1.085.003-.47-.465-.938-.932-1.402-1.402-.304-.307-.307-.758-.016-1.047.293-.29.74-.279 1.047.027.05.052.092.113.138.17l.053-.03v-1.283c0-.192-.006-.385.003-.576.017-.388.34-.69.722-.688zm-5.28-4.852c.282.282.285.724.004 1.022-.058.06-.128.11-.192.164l.02.052h.171c.56.001 1.119-.003 1.678.005.368.006.646.27.696.638.045.33-.172.666-.507.767-.09.027-.189.033-.284.033-.53.003-1.061 0-1.592 0-.054 0-.108.006-.162.009l-.037.052.145.104c.024.018.046.037.066.058.283.297.277.74-.008 1.02-.278.276-.722.288-1.008.009-.493-.481-.98-.969-1.462-1.461-.284-.29-.282-.735.002-1.025.478-.489.961-.972 1.45-1.45.293-.287.739-.28 1.02.003zm11.585.008c.479.472.955.947 1.426 1.427.297.303.298.748.001 1.05-.475.483-.954.963-1.438 1.438-.298.292-.75.28-1.033-.013-.279-.289-.273-.724.016-1.02.057-.059.126-.105.19-.158l-.03-.05h-.4c-.487-.001-.973.005-1.458-.005-.37-.008-.654-.293-.689-.666-.03-.332.204-.663.54-.748.085-.022.178-.023.268-.024h1.738l.036-.052c-.064-.051-.135-.096-.192-.154-.294-.302-.296-.749-.01-1.034.288-.286.735-.286 1.035.01zm-6.295.503c.796.011 1.449.676 1.435 1.46-.015.808-.678 1.455-1.472 1.438-.797-.017-1.441-.68-1.426-1.467.015-.797.676-1.443 1.463-1.431zm.525-6.274c.47.465.937.932 1.402 1.402.31.314.31.769.008 1.058-.298.286-.736.27-1.044-.045-.05-.05-.079-.12-.117-.18l-.067.047v.18c0 .558.006 1.118-.004 1.677-.006.363-.28.642-.648.688-.33.04-.666-.185-.76-.52-.025-.09-.028-.189-.029-.284-.003-.525-.002-1.05-.002-1.576v-.163l-.053-.034c-.047.06-.088.127-.142.18-.305.303-.756.308-1.046.016-.285-.289-.283-.734.013-1.034.469-.474.94-.946 1.414-1.414.315-.31.759-.31 1.075.002z" transform="translate(-725 -789)"/>
        </g>
    </g>
</svg>
