<svg xmlns="http://www.w3.org/2000/svg" width="12" height="12" viewBox="0 0 12 12">
    <g fill="none" fill-rule="evenodd">
        <g fill="#EC2A2A">
            <g>
                <g>
                    <g>
                        <path d="M5.5 11c.754 0 1.464-.144 2.128-.433.663-.288 1.248-.685 1.754-1.191.505-.505.901-1.09 1.188-1.751.287-.662.43-1.37.43-2.125 0-.754-.143-1.463-.43-2.125-.287-.662-.684-1.246-1.191-1.754C8.87 1.114 8.286.717 7.622.43 6.958.143 6.249 0 5.494 0c-.747 0-1.452.143-2.116.43-.664.287-1.25.684-1.757 1.191C1.114 2.13.717 2.713.43 3.375.143 4.037 0 4.745 0 5.5c0 .754.144 1.463.433 2.125.288.662.685 1.246 1.191 1.751.505.506 1.09.903 1.754 1.191.664.289 1.371.433 2.122.433zm0-1.013c-.619 0-1.2-.116-1.743-.348-.543-.232-1.02-.552-1.429-.962-.409-.41-.729-.885-.959-1.429-.23-.543-.345-1.126-.345-1.748 0-.619.115-1.2.345-1.743.23-.543.55-1.02.96-1.431.409-.412.884-.733 1.425-.965.542-.232 1.122-.348 1.74-.348.627 0 1.21.116 1.752.348.541.232 1.017.553 1.428.965.412.41.733.888.965 1.431.232.543.348 1.124.348 1.743.004.622-.111 1.205-.345 1.748-.234.544-.555 1.02-.962 1.43-.407.409-.883.73-1.426.961-.543.232-1.128.348-1.754.348zm0-3.559c.287 0 .434-.15.441-.453l.08-2.687c.003-.151-.046-.275-.148-.371-.101-.096-.228-.144-.379-.144-.158 0-.286.047-.384.141-.099.094-.146.217-.142.368l.074 2.699c.007.298.16.447.458.447zm0 1.76c.162 0 .304-.055.424-.164.121-.11.181-.246.181-.408 0-.166-.06-.303-.18-.413-.121-.11-.263-.164-.425-.164-.17 0-.313.056-.43.167-.117.111-.175.248-.175.41 0 .159.059.294.178.405.119.111.261.167.427.167z" transform="translate(-1694.000000, -422.000000) translate(1678.000000, 352.000000) translate(0.000000, 62.000000) translate(16.000000, 8.000000) translate(0.407715, 0.610840)"/>
                    </g>
                </g>
            </g>
        </g>
    </g>
</svg>
