<svg xmlns="http://www.w3.org/2000/svg" width="32" height="32" viewBox="0 0 32 32">
    <g fill="none" fill-rule="evenodd">
        <g fill="#FC8C00">
            <g>
                <path d="M29.917 0c8.777 0 15.917 7.14 15.917 15.917 0 8.777-7.14 15.917-15.917 15.917C21.14 31.834 14 24.694 14 15.917 14 7.14 21.14 0 29.917 0zm-2.971 5.886l-6.317 14.988c-.589 1.399.07 3.016 1.467 3.605l2.455-.228 1.012 1.689 2.808-.08 1.31 1.815c1.398.59 3.015-.069 3.605-1.467l6.316-14.988c.59-1.398-.069-3.015-1.467-3.604L30.55 4.419c-1.398-.589-3.015.07-3.604 1.467zm2.894.218l7.585 3.197c.469.197.69.74.492 1.209L31.6 25.498c-.198.47-.74.69-1.21.492l-1.524-1.905-2.451.23-1.119-1.734-2.49.213c-.47-.198-.69-.74-.493-1.21l6.317-14.988c.197-.469.74-.69 1.209-.492zm-1.128 5.35l-.601.307-.048.03c-1.732 1.09-1.17 2.712-.115 5.06.912 2.031 1.542 2.9 2.369 3.248.026.01.051.021.078.03.791.3 1.467-.008 1.755-.139l.42-.206c.618-.303.873-1.05.569-1.668-.304-.618-1.051-.873-1.669-.57l-.262.13c-.168-.221-.48-.723-.985-1.846-.51-1.136-.688-1.697-.748-1.966l.371-.19c.613-.312.857-1.063.544-1.677-.314-.613-1.065-.856-1.678-.543z" transform="translate(-934 -692) translate(920 692)"/>
            </g>
        </g>
    </g>
</svg>
