<svg xmlns="http://www.w3.org/2000/svg" width="120" height="120" viewBox="0 0 120 120">
    <g fill="none" fill-rule="evenodd">
        <g>
            <g>
                <g>
                    <g transform="translate(-128.000000, -240.000000) translate(15.000000, 240.000000) translate(113.000000, 0.000000) translate(0.000000, 9.843750)">
                        <path fill="#000" fill-opacity=".2" fill-rule="nonzero" d="M100.651 1.902C84.008-3.862 68.72 4.617 61.191 12.119c-7.527 7.502-17.3 13.902-31.528 9.83-14.227-4.074-27.88 4.716-29.375 17.64-1.611 13.965 2.734 41.792 33.999 54.616 19.92 8.177 40.768 7.758 56.342 3.988 15.575-3.77 26.844-9.24 28.997-18.666 2.153-9.426-5.546-12.63-8.674-14.313-3.13-1.684-10.634-7.929.882-20.745 13.716-15.252 7.404-36.105-11.183-42.567z" opacity=".15"/>
                        <rect width="106.412" height="41.109" x="6.747" y="32.367" fill="#DDD" fill-rule="nonzero" rx="13.281"/>
                        <rect width="44.3" height="44.375" x="37.795" y="9.094" fill="#FFF" fill-rule="nonzero" rx="19.864"/>
                        <g fill="#0AB81F" fill-rule="nonzero">
                            <path d="M24.39.003c.853.051 1.51.763 1.505 1.609l-.003.088-.457 7.618c-.053.884-.811 1.558-1.694 1.505-.853-.052-1.51-.763-1.505-1.61l.003-.087.456-7.618c.052-.855.762-1.513 1.607-1.508l.088.003zM33.337 7.124c.686-.558 1.694-.454 2.252.233.538.663.46 1.626-.161 2.195l-.072.061-5.452 4.438c-.686.558-1.695.454-2.253-.234-.537-.662-.46-1.625.162-2.194l.071-.061 5.453-4.438zM39.285 16.332c.88-.096 1.67.54 1.765 1.421.092.851-.498 1.619-1.332 1.756l-.087.012-7.272.79c-.88.096-1.67-.54-1.765-1.42-.093-.851.498-1.62 1.332-1.756l.087-.012 7.272-.791zM19.136 18.865l-.829-1.427c-1.864-3.328-5.973-4.654-9.425-3.042-1.77.873-3.1 2.442-3.67 4.333-.571 1.891-.333 3.935.657 5.644l3.826 6.618c.375.651.153 1.483-.496 1.861-.65.376-1.48.154-1.858-.496l-3.695-6.37C1.043 21.56 2.176 15.882 6.28 12.799c2.261-1.612 5.097-2.194 7.81-1.603 2.712.59 5.05 2.3 6.44 4.706l.93 1.599c.187.324.234.71.128 1.07-.105.36-.354.66-.686.83-.638.309-1.406.076-1.766-.535z" transform="translate(46.284701, 2.416175)"/>
                            <path d="M28.332 29.389c0 .001 0 .003-.004.005l.675 3.79c.727 4.11-2.01 8.033-6.116 8.771l-12.689 2.266c-4.108.739-8.035-1.998-8.769-6.107 0-.002 0-.003.004-.005l-.675-3.79c-.727-4.11 2.01-8.033 6.116-8.771l12.689-2.266c4.109-.739 8.035 1.998 8.769 6.107zm-13.871-.8c-1.1-.046-2.08.688-2.349 1.757-.268 1.069.249 2.18 1.239 2.662l.193 5.29 4.159-.775-1.665-4.996c.516-.526.747-1.268.62-1.994-.18-1.088-1.098-1.9-2.197-1.944z" transform="translate(46.284701, 2.416175)"/>
                        </g>
                        <path stroke="#FFF" stroke-linecap="round" stroke-linejoin="round" stroke-width="9.775" d="M22.236 61.847L98.134 61.847"/>
                    </g>
                </g>
            </g>
        </g>
    </g>
</svg>
