<svg xmlns="http://www.w3.org/2000/svg" width="69" height="72" viewBox="0 0 69 72">
    <g fill="none" fill-rule="evenodd">
        <g fill="#FC8C00">
            <g>
                <path d="M323.357 65.565c.543-.304 1.222-.033 1.544.617.334.672.161 1.5-.386 1.85-1.039.623-2.109 1.178-3.205 1.663-.068.03-.138.051-.21.065-.54.103-1.094-.267-1.32-.885-.261-.712.001-1.5.586-1.76 1.023-.453 2.021-.97 2.991-1.55zm-6.495 2.382c.6-.154 1.214.233 1.374.866.16.632-.197 1.27-.796 1.424-.735.212-1.492.404-2.258.567l-.576.117-.543.105c-.61.107-1.196-.328-1.31-.97-.087-.604.26-1.168.806-1.332l.093-.024.502-.097c.718-.14 1.434-.303 2.133-.49l.522-.145-.006-.004.06-.017zm-10.426 2.22c.033-.55.565-.996 1.188-.994 1.09.004 2.18-.042 3.27-.138.57-.05 1.073.283 1.17.776.107.539-.305 1.073-.92 1.193-.045.01-.09.016-.135.02-1.168.102-2.338.151-3.505.147-.623-.002-1.102-.451-1.068-1.003zm-6.939-.792c.13-.599.646-.95 1.178-.82l.084.024c.987.3 1.983.542 2.986.725.574.105.99.717.93 1.367-.061.65-.575 1.092-1.15.987-.896-.163-1.787-.371-2.672-.623l-.588-.174c-.56-.19-.904-.856-.768-1.486zm30.016-6.755c.447-.393 1.119-.318 1.5.165.381.484.328 1.194-.12 1.586-.697.612-1.42 1.191-2.166 1.736l-.471.338c-.488.333-1.149.177-1.476-.348-.327-.526-.196-1.223.292-1.556.705-.496 1.388-1.024 2.049-1.583l.392-.338zm-36.236 4.033c.26-.547.872-.772 1.402-.53l.083.042c.973.505 1.968.957 2.981 1.357.58.228.889.91.691 1.522-.197.612-.827.924-1.406.696-.904-.356-1.794-.752-2.668-1.188l-.522-.266c-.021-.01-.042-.02-.062-.032-.548-.307-.771-1.024-.499-1.6zm40.895-9.444c.391-.492 1.109-.574 1.602-.184.493.39.575 1.106.183 1.597-.734.923-1.516 1.809-2.34 2.653-.442.45-1.165.458-1.616.019-.452-.44-.46-1.16-.019-1.61.772-.787 1.503-1.612 2.19-2.475zM287.11 62.65c.36-.465 1.032-.554 1.501-.199.818.619 1.667 1.195 2.545 1.728.483.305.635.933.345 1.424-.298.505-.952.676-1.462.382-.942-.57-1.854-1.187-2.733-1.849-.469-.355-.557-1.02-.196-1.486zm16.308-48.8c13.035-2.511 25.648 5.974 28.196 18.967 2.534 13.003-5.98 25.593-19.018 28.12-13.038 2.528-25.662-5.964-28.196-18.967-2.534-13.002 5.98-25.592 19.018-28.12zm33.769 37.373c.276-.566.942-.78 1.487-.478.545.301.762 1.004.486 1.569-.503 1.067-1.058 2.105-1.663 3.11-.324.537-1.006.688-1.525.338-.519-.35-.677-1.07-.353-1.606.472-.782.91-1.586 1.315-2.41l.253-.523zm-32.196-35.291l.644 3.306c.12.62-.285 1.219-.906 1.339-.59.114-1.161-.245-1.32-.812l-.022-.091-.645-3.306c-10.67 2.667-17.648 12.851-16.298 23.705l.043.33 3.315-.643c.621-.12 1.222.284 1.343.903.115.588-.246 1.158-.814 1.317l-.092.022-3.315.642c2.674 10.643 12.886 17.601 23.77 16.255l.33-.043-.645-3.306c-.12-.62.285-1.219.906-1.34.59-.114 1.162.246 1.32.813l.022.09.645 3.307c10.671-2.667 17.648-12.851 16.298-23.705l-.043-.33-3.315.643c-.62.12-1.222-.284-1.343-.903-.114-.588.246-1.159.814-1.317l.092-.022 3.315-.643c-2.674-10.642-12.886-17.6-23.77-16.255l-.33.044zm-22.72 42.2c.511-.41 1.273-.372 1.703.085.748.799 1.542 1.56 2.377 2.283.456.41.467 1.088.025 1.536-.454.463-1.217.51-1.705.106-.895-.77-1.745-1.585-2.546-2.44-.43-.456-.364-1.16.147-1.57zm56.38-12.885c.199-.585.902-.95 1.573-.817.671.135 1.054.719.856 1.304-.37 1.097-.806 2.18-1.304 3.245-.27.551-.99.845-1.625.665-.651-.185-.972-.798-.717-1.37.466-.993.872-2.004 1.218-3.027zm-59.871 7.677c.606-.27 1.323-.079 1.6.425.447.714.93 1.409 1.449 2.083l.315.402.004.006c.093.116.154.248.182.389.109.557-.336 1.112-.995 1.24-.471.092-.944-.06-1.207-.389-.57-.715-1.104-1.453-1.598-2.212l-.292-.458c-.02-.027-.037-.056-.054-.085-.277-.504-.01-1.131.596-1.4zm61.63-14.276c.065-.572.696-1.035 1.41-1.035.713 0 1.239.463 1.174 1.035-.122 1.07-.313 2.14-.573 3.205-.138.569-.82.982-1.522.923-.703-.06-1.16-.568-1.022-1.136.241-.995.42-1.993.533-2.992zm-64.195 7.28c.533-.171 1.108.176 1.285.774.309 1.045.665 2.075 1.067 3.085.23.576.003 1.231-.509 1.463-.512.23-1.114-.05-1.344-.628-.432-1.08-.814-2.183-1.145-3.303-.177-.598.113-1.221.646-1.392zm64.766-15.041l.088-.016c.603-.095 1.17.325 1.269.938.182 1.149.307 2.306.373 3.466.031.56-.348 1.054-.888 1.16-.051.01-.103.016-.155.018-.609.03-1.13-.446-1.167-1.064-.048-.867-.133-1.732-.252-2.592l-.101-.678c-.083-.575.286-1.109.833-1.232zm-35.956-7.38c.59-.115 1.157.224 1.312.765l.02.087 1.916 9.827c1.026.136 1.923.71 2.44 1.561.942 1.55.376 3.556-1.262 4.482-1.595.902-3.618.448-4.593-1.004l-.079-.124-5.826 1.13c-.621.12-1.218-.261-1.333-.852-.11-.562.255-1.11.824-1.267l.091-.021 5.827-1.13c.155-.918.708-1.735 1.517-2.25l.146-.089-1.916-9.827c-.115-.591.295-1.168.916-1.288zm2.502 12.84c-.62.12-1.03.698-.915 1.288.115.591.712.973 1.333.853.62-.12 1.03-.697.915-1.288-.115-.591-.712-.973-1.333-.853zm-29.45-14.965c8.85-16.48 29.253-22.725 45.792-14.119l.5.266-1.266-6.497c-.12-.62.283-1.218.9-1.338.587-.114 1.157.246 1.316.813l.021.092 1.75 8.972c.003.05.003.098-.001.147.012.096.011.193-.002.288-.022.092-.056.18-.101.263l-.024.07-.03.067-.009.01c-.065.093-.145.176-.236.245-.026.022-.044.055-.073.075-.052.027-.106.05-.162.07-.052.028-.106.053-.162.073l-.085.028-8.964 1.737c-.618.12-1.216-.285-1.337-.904-.115-.589.243-1.159.809-1.317l.09-.022 5.954-1.154c-6.032-3.113-12.892-4.223-19.587-3.167-17.404 2.744-29.265 19.116-26.492 36.567.093.576-.263 1.122-.813 1.278l-.094.022-.04.008c-.62.098-1.204-.327-1.304-.95-1.182-7.419.1-15.016 3.65-21.623z" transform="translate(-290.000000, -272.000000) translate(16.000000, 272.000000)"/>
            </g>
        </g>
    </g>
</svg>
