<svg xmlns="http://www.w3.org/2000/svg" width="24" height="24" viewBox="0 0 24 24">
    <g fill="none" fill-rule="evenodd">
        <g fill="#A5AEB8">
            <g>
                <g>
                    <path d="M8 0c4.418 0 8 3.582 8 8s-3.582 8-8 8-8-3.582-8-8 3.582-8 8-8zM5.752 4.715c-.286-.287-.75-.287-1.037 0-.287.286-.287.75 0 1.037L6.962 8l-2.247 2.248c-.26.26-.284.668-.071.955l.07.082c.287.287.752.287 1.038 0L8 9.038l2.248 2.247c.26.26.668.284.955.071l.082-.07c.287-.287.287-.752 0-1.038L9.038 8l2.247-2.248c.26-.26.284-.668.071-.955l-.07-.082c-.287-.287-.752-.287-1.038 0L8 6.962z" transform="translate(-325.000000, -266.000000) translate(16.000000, 240.000000) translate(309.000000, 26.000000) translate(4.000000, 4.000000)"/>
                </g>
            </g>
        </g>
    </g>
</svg>
