<svg xmlns="http://www.w3.org/2000/svg" width="18" height="24" viewBox="0 0 18 24">
    <g fill="none" fill-rule="evenodd">
        <g fill="#2DBB54">
            <g>
                <path d="M35.483 17.062c1.015 0 1.84.826 1.84 1.84v20.242c0 1.015-.825 1.84-1.84 1.84h-.197l-2.024-1.143c-.05-.028-.11-.027-.16.003l-1.185.732c-.535.33-1.223.325-1.753-.011l-1.11-.705c-.05-.032-.114-.033-.165-.001l-1.225.746c-.501.305-1.133.32-1.648.04l-1.537-.834c-.045-.024-.1-.025-.145-.002l-2.314 1.175h-.18c-1.014 0-1.84-.825-1.84-1.84V18.903c0-1.015.826-1.84 1.84-1.84h13.643zm0 1.496H21.841c-.187 0-.345.158-.345.345v20.24c0 .143.09.268.216.32l1.945-.988c.484-.246 1.059-.238 1.536.022l1.536.834c.05.026.11.025.157-.004l1.224-.746c.542-.33 1.21-.323 1.745.016l1.11.704c.05.032.116.033.166.002l1.186-.732c.513-.316 1.157-.328 1.68-.032l1.627.918c.119-.055.203-.176.203-.313V18.903c0-.187-.157-.345-.344-.345zm-3.066 10.816c.413 0 .748.335.748.748s-.335.748-.748.748h-7.48c-.414 0-.749-.335-.749-.748s.335-.748.748-.748h7.48zm0-3.74c.413 0 .748.334.748.748 0 .413-.335.748-.748.748h-7.48c-.414 0-.749-.335-.749-.748 0-.414.335-.748.748-.748h7.48z" transform="translate(-35 -619) translate(15 602)"/>
            </g>
        </g>
    </g>
</svg>
