<svg xmlns="http://www.w3.org/2000/svg" xmlns:xlink="http://www.w3.org/1999/xlink" width="127" height="121" viewBox="0 0 127 121">
    <defs>
        <path id="1jozgog72a" d="M0.262 0.081L120.669 0.081 120.669 119.433 0.262 119.433z"/>
        <path id="av3f19sgzc" d="M36.668.081C12.73.134.136 26.707 5.13 40.264 10.197 54.016 2.236 59.806.427 73.195-1.383 86.585 12.349 91.6 12.349 91.6s14.04 4.097 17.028 7.29c6.03 6.444 6.207 12.591 19.086 18.793 13.072 6.294 43.739-5.217 47.936-21.2 5.272-20.07 22.64-24.234 24.172-46.085 1.53-21.828-15.2-35.826-28.793-28.486C78.184 29.25 62.308.819 37.7.095c-.3-.008-.598-.014-.895-.014h-.137z"/>
    </defs>
    <g fill="none" fill-rule="evenodd">
        <g>
            <g>
                <g transform="translate(-218 -887) translate(218 887) translate(4.664 .343)">
                    <mask id="jmcjnvyixb" fill="#fff">
                        <use xlink:href="#1jozgog72a"/>
                    </mask>
                    <path fill="#E0E0E0" d="M12.349 91.6S-1.383 86.584.427 73.194c1.809-13.39 9.77-19.18 4.704-32.93C.064 26.512 13.092-.629 37.701.094 62.307.82 78.183 29.251 91.777 21.911c13.594-7.34 30.324 6.658 28.793 28.486-1.533 21.851-18.9 26.015-24.171 46.085-4.198 15.983-34.865 27.494-47.937 21.2-12.88-6.202-13.056-12.35-19.086-18.793-2.988-3.193-17.028-7.29-17.028-7.29" mask="url(#jmcjnvyixb)"/>
                </g>
                <g transform="translate(-218 -887) translate(218 887) translate(4.664 .343)">
                    <mask id="l7jhr3nijd" fill="#fff">
                        <use xlink:href="#av3f19sgzc"/>
                    </mask>
                    <path fill="#EBEBEB" d="M16.778 130.601L105.052 130.601 105.052 13.009 16.778 13.009z" mask="url(#l7jhr3nijd)"/>
                    <path fill="#CCC" d="M16.778 16.993L105.052 16.993 105.052 11.497 16.778 11.497z" mask="url(#l7jhr3nijd)"/>
                    <path fill="#FFF" d="M55.22 27.913L96.814 27.913 96.814 24.915 55.22 24.915zM55.22 34.283L96.814 34.283 96.814 31.285 55.22 31.285zM55.22 40.653L75.554 40.653 75.554 37.655 55.22 37.655z" mask="url(#l7jhr3nijd)"/>
                    <path fill="#8199A3" d="M20.772 14.075c0 .532-.432.963-.964.963s-.963-.431-.963-.963c0-.533.431-.964.963-.964s.964.431.964.964M24.075 14.075c0 .532-.43.963-.963.963-.532 0-.963-.431-.963-.963 0-.533.43-.964.963-.964.532 0 .963.431.963.964M27.38 14.075c0 .532-.432.963-.964.963s-.964-.431-.964-.963c0-.533.432-.964.964-.964s.963.431.963.964" mask="url(#l7jhr3nijd)"/>
                    <path fill="#FFF" d="M24.626 24.978L48.504 24.832 48.65 48.71 24.772 48.856z" mask="url(#l7jhr3nijd)"/>
                </g>
                <g>
                    <path fill="#EFEFEF" d="M27.64 50.652c0 5.157-4.18 9.337-9.337 9.337s-9.337-4.18-9.337-9.337 4.18-9.338 9.337-9.338 9.338 4.18 9.338 9.338" transform="translate(-218 -887) translate(218 887) translate(0 7.551)"/>
                    <path fill="#07A922" d="M23.018 50.383L23.018 48.243 14.818 48.243 14.818 53.89 23.018 53.89 23.018 51.749 24.052 51.749 24.052 50.383zM11.882 53.088L14.124 52.015 14.124 50.118 11.882 49.045z" transform="translate(-218 -887) translate(218 887) translate(0 7.551)"/>
                    <g fill="#07A922">
                        <path d="M22.365 18.594L28.202 23.938 31.855 16.155z" transform="translate(-218 -887) translate(218 887) translate(0 7.551) translate(0 13.211)"/>
                        <path d="M26.661 20.284L11.26 22.775C5.966 23.631.982 20.035.126 14.743-.73 9.451 2.866 4.466 8.159 3.61L23.56 1.12c5.292-.856 10.277 2.74 11.133 8.033.856 5.292-2.74 10.276-8.033 11.132" transform="translate(-218 -887) translate(218 887) translate(0 7.551) translate(0 13.211)"/>
                    </g>
                    <path fill="#FFF" d="M24.41 18.216l-.507.076-14.35 2.17-.508.077.077.508 1.68 11.115.077.508.508-.077 14.35-2.17.508-.077-.077-.508-1.68-11.114-.077-.508zm-.43.584l1.68 11.115-14.35 2.17L9.63 20.97 23.98 18.8z" transform="translate(-218 -887) translate(218 887) translate(0 7.551)"/>
                    <path fill="#FFF" d="M13.34 30.538L15.331 25.1 18.439 28.666 19.752 26.021 22.466 29.089zM19.644 21.764c.087.578-.31 1.118-.888 1.205-.578.087-1.117-.31-1.205-.888-.087-.578.31-1.117.888-1.205.578-.087 1.117.31 1.205.888" transform="translate(-218 -887) translate(218 887) translate(0 7.551)"/>
                    <path fill="#B2B2B2" d="M78.455 81.272l7.813-2.694-6.153-19.091c-1.575-2.096-4.124-4.4-6.998-3.41l-2.61.9 7.948 24.295z" transform="translate(-218 -887) translate(218 887) translate(0 7.551)"/>
                    <path fill="#647D8C" d="M89.765 46.062L89.82 57.924 95.234 56.415 97.145 43.602z" transform="translate(-218 -887) translate(218 887) translate(0 7.551)"/>
                    <path fill="#416D82" d="M89.765 46.062L89.083 45.69 89.19 57.295 89.82 57.924z" transform="translate(-218 -887) translate(218 887) translate(0 7.551)"/>
                    <path fill="#8199A3" d="M89.765 46.062L97.145 43.602 96.308 43.376 89.083 45.69z" transform="translate(-218 -887) translate(218 887) translate(0 7.551)"/>
                    <path fill="#FFF" d="M94.222 46.432c-.111.415-.426.692-.703.617-.277-.074-.41-.471-.3-.886.112-.415.427-.692.704-.617.277.074.41.47.3.886" transform="translate(-218 -887) translate(218 887) translate(0 7.551)"/>
                    <path fill="#253B64" d="M53.576 30.064s-3.755 2.857-4.593 6.875c-.837 4.02-1.004 6.113-2.679 8.541-1.675 2.428-2.512 5.778-1.172 8.039 1.34 2.26.251 4.186.67 6.028.418 1.842 2.93 5.527 5.945 5.108 3.014-.419 11.89-7.201 13.062-7.955 1.172-.753 6.615 0 7.033-3.767.419-3.769.586-6.867-1.34-10.3-1.925-3.433-2.52-5.52-2.855-7.446-.335-1.926.168-4.019-3.6-4.94-3.768-.921-7.638-4.044-10.471-.183" transform="translate(-218 -887) translate(218 887) translate(0 7.551)"/>
                    <path fill="#E5E5E5" d="M54.585 54.858s2.46-.348 2.701-1.653c.242-1.305-.101-3.646-.101-3.646l6.807-.586s-.056 4.472.313 4.788c.498.423 3.352.828 3.352.828s1.443 3.354-1.157 4.719c-2.6 1.364-10.585 1.245-11.915-4.45" transform="translate(-218 -887) translate(218 887) translate(0 7.551)"/>
                    <path fill="#B2B2B2" d="M44.412 80.023L35.41 77.51l6.702-17.886c1.271-2.629 4.678-4.076 7.892-2.771l2.836 1.165-8.428 22.006z" transform="translate(-218 -887) translate(218 887) translate(0 7.551)"/>
                    <path fill="#B2B2B2" d="M76.135 55.96l-.962 37.866-25.965.382-3.4-37.518 8.777-1.832c.654.988 2.888 3.395 7.298 2.958 4.134-.413 4.651-2.391 5.02-3.325l9.232 1.469z" transform="translate(-218 -887) translate(218 887) translate(0 7.551)"/>
                    <path fill="#EFEFEF" d="M63.395 53.226s-1.002 0-1.685-.091c-3.055-.407-7.868-3.747-8.243-8.152l-.576-7.706c-.376-4.406 2.921-8.317 7.326-8.693 4.406-.375 8.318 2.922 8.693 7.327l.75 8.795c.375 4.405-3.294 8.457-6.265 8.52" transform="translate(-218 -887) translate(218 887) translate(0 7.551)"/>
                    <path fill="#EFEFEF" d="M52.235 41.25s-2.63-.832-2.15 2.185c.482 3.017 3.275 3.93 4.57 3.35 0 0-1.23-3.283-1.757-4.38-.2-.417-.663-1.156-.663-1.156" transform="translate(-218 -887) translate(218 887) translate(0 7.551)"/>
                    <path stroke="#253B64" stroke-linecap="round" stroke-linejoin="round" stroke-width="1.035" d="M65.2 43.493s-.171.514.978 1.987c.565.727-1.077.869-1.077.869" transform="translate(-218 -887) translate(218 887) translate(0 7.551)"/>
                    <path fill="#B2B2B2" d="M75.51 71.933l7.813-2.695-1.606-6.056c-.876-4.004-2.19-6.943-7.443-7.568l-3.533 1.242 4.769 15.077z" transform="translate(-218 -887) translate(218 887) translate(0 7.551)"/>
                    <path fill="#253B64" d="M69.374 37.72s-10.398 1.248-11.749 2.6l-1.663-2.704s-.313 3.016-.104 4.055c.207 1.04-1.768 2.911-1.768 2.911l-2.397-4.213s-1.45-4.104.422-8.47c1.871-4.368 7.75-6.405 12.684-2.808 4.99 3.639 4.575 8.63 4.575 8.63" transform="translate(-218 -887) translate(218 887) translate(0 7.551)"/>
                    <path fill="#F2F4F3" d="M47.8 56.163L51.17 67s-2.04 14.289-2.72 16.874c-.681 2.586-1.552 20.467-1.552 20.467s3.787 6.21 12.403 7.55c8.089 1.258 18.155-3.775 18.155-3.775l-1.79-25.33s-2.463-15.484-2.586-17.01c-.122-1.527 1.194-10.164 1.194-10.164l-2.202-.369-1.577 10.94-17.209.443-3.265-10.887-2.221.423z" transform="translate(-218 -887) translate(218 887) translate(0 7.551)"/>
                    <path fill="#EFEFEF" d="M91 56.769s-1.462-3.203-1.274-4.454c.189-1.253 2.1 2.47 2.1 2.47s-2.096-4.398-1.175-5.013c.921-.615 2.615 3.949 2.615 3.949s-1.245-4.044-.617-4.914c.628-.87 2.076 4.124 2.076 4.124s-.445-2.447.182-3.317c.628-.87 1.034 5.695.809 6.711-.488 2.194-3.428 6.369-3.428 6.369L88.29 61.12l2.708-4.351z" transform="translate(-218 -887) translate(218 887) translate(0 7.551)"/>
                    <path fill="#B2B2B2" d="M87.593 60.246s-5.637 9.133-7.64 13.458c-1.055 2.28-2.094 5.428-1.2 7.85.894 2.42 5.786 5.414 9.665-3.175 4.056-8.98 6.039-15.192 6.039-15.192l-6.864-2.941zM50.667 94.983s-15.174-10.097-15.915-12.69c-.74-2.593.185-5 2.13-6.668 1.944-1.666 14.971 11.532 15.437 14.168l-1.652 5.19z" transform="translate(-218 -887) translate(218 887) translate(0 7.551)"/>
                    <path fill="#CECECE" d="M52.632 88.232L50.014 96.195 51.732 97.134 54.365 88.814z" transform="translate(-218 -887) translate(218 887) translate(0 7.551)"/>
                    <path fill="#253B64" d="M61.45 42.728c0 .439-.356.795-.795.795-.439 0-.795-.356-.795-.795 0-.439.356-.795.795-.795.44 0 .795.356.795.795M68.224 42.085c0 .439-.356.794-.795.794-.439 0-.794-.355-.794-.794 0-.44.355-.795.794-.795.44 0 .795.356.795.795M57.923 41.201s.614-.805 1.572-1.01c.958-.203 2.252.331 2.103.63-.15.3-1.41.243-1.75.28-.34.035-2.03.851-1.925.1M65.718 40.398s.509-.668 1.303-.837c.794-.169 1.867.274 1.743.522-.123.248-1.168.201-1.45.231-.282.03-1.682.707-1.596.084M62.28 48.957s1.65 1.332 3.156-.114c.399-.382.505-.928-.054-.7-.96.393-2.892.05-3.023.088-.132.037-.625.216-.079.726" transform="translate(-218 -887) translate(218 887) translate(0 7.551)"/>
                    <path fill="#FFF" d="M122.777 3.282L90.81.277C89.1.116 87.587 1.37 87.426 3.079l-2.09 22.242c-.161 1.71 1.094 3.225 2.802 3.385l3.047.287 2.971 5.64 4.884-4.902 21.064 1.98c1.71.16 3.225-1.094 3.385-2.803l2.091-22.242c.16-1.708-1.094-3.224-2.803-3.384" transform="translate(-218 -887) translate(218 887) translate(0 7.551)"/>
                    <path stroke="#EFEFEF" stroke-width="1.181" d="M122.777 3.282L90.81.277C89.1.116 87.587 1.37 87.426 3.079l-2.09 22.242c-.161 1.71 1.094 3.225 2.802 3.385l3.047.287 2.971 5.64 4.884-4.902 21.064 1.98c1.71.16 3.225-1.094 3.385-2.803l2.091-22.242c.16-1.708-1.094-3.224-2.803-3.384z" transform="translate(-218 -887) translate(218 887) translate(0 7.551)"/>
                    <path fill="#07A922" d="M116.754 26.946L93.001 24.8c-1.334-.12-2.318-1.3-2.198-2.633l1.334-14.773c.12-1.334 1.3-2.318 2.634-2.198l23.753 2.145c1.334.12 2.318 1.3 2.197 2.634l-1.333 14.772c-.12 1.334-1.3 2.318-2.634 2.198" transform="translate(-218 -887) translate(218 887) translate(0 7.551)"/>
                    <path fill="#FFF" d="M118.195 11.85L107.716 10.904 107.631 11.846 118.11 12.792zM117.874 15.404L107.396 14.458 107.31 15.401 117.789 16.347zM112.625 18.514L107.075 18.013 106.99 18.956 112.54 19.457z" transform="translate(-218 -887) translate(218 887) translate(0 7.551)"/>
                    <path stroke="#FFF" stroke-width=".658" d="M103.975 14.018c-.23 2.54-2.474 4.414-5.014 4.184-2.54-.23-4.413-2.474-4.184-5.014.23-2.54 2.474-4.413 5.014-4.184 2.54.23 4.414 2.474 4.184 5.014z" transform="translate(-218 -887) translate(218 887) translate(0 7.551)"/>
                    <path fill="#FFF" d="M101.107 11.917c-.078.865-.842 1.503-1.707 1.425-.865-.078-1.504-.843-1.426-1.708.078-.865.843-1.503 1.708-1.425.865.079 1.504.843 1.425 1.708M99.353 13.86c-1.638-.149-3.16.51-4.184 1.643.664 1.466 2.074 2.544 3.792 2.7 1.717.154 3.297-.654 4.213-1.978-.805-1.298-2.183-2.218-3.821-2.366M103.127 22.401L94.109 21.587 94.204 20.542 103.222 21.357z" transform="translate(-218 -887) translate(218 887) translate(0 7.551)"/>
                </g>
            </g>
        </g>
    </g>
</svg>
