<svg xmlns="http://www.w3.org/2000/svg" width="113" height="117" viewBox="0 0 113 117">
    <defs>
        <linearGradient id="bht6b4lyha" x1="0%" x2="100%" y1="90.579%" y2="9.421%">
            <stop offset="0%" stop-color="#08941F"/>
            <stop offset="100%" stop-color="#0EB92A"/>
        </linearGradient>
        <linearGradient id="jpkgpmn2cb" x1="0%" x2="100%" y1="94.456%" y2="5.544%">
            <stop offset="0%" stop-color="#08941F"/>
            <stop offset="100%" stop-color="#0EB92A"/>
        </linearGradient>
        <linearGradient id="1vbak2k60c" x1="0%" x2="100%" y1="97.056%" y2="2.944%">
            <stop offset="0%" stop-color="#08941F"/>
            <stop offset="100%" stop-color="#0EB92A"/>
        </linearGradient>
        <linearGradient id="pu6qbndavd" x1="0%" x2="100%" y1="89.288%" y2="10.712%">
            <stop offset="0%" stop-color="#08941F"/>
            <stop offset="100%" stop-color="#0EB92A"/>
        </linearGradient>
        <linearGradient id="73kmhgdeoe" x1="0%" x2="100%" y1="50.008%" y2="49.992%">
            <stop offset="0%" stop-color="#08941F"/>
            <stop offset="100%" stop-color="#0EB92A"/>
        </linearGradient>
        <linearGradient id="bjvjgsqdlf" x1="23.218%" x2="76.782%" y1="100%" y2="0%">
            <stop offset="0%" stop-color="#08941F"/>
            <stop offset="100%" stop-color="#0EB92A"/>
        </linearGradient>
        <linearGradient id="wrpa40lmjg" x1="100%" x2="0%" y1="6.267%" y2="100%">
            <stop offset="100%" stop-color="#151515"/>
            <stop offset=".066%" stop-color="#2F2F2F"/>
        </linearGradient>
        <linearGradient id="81ua65jorh" x1="100%" x2="0%" y1="30.999%" y2="71.724%">
            <stop offset="100%" stop-color="#151515"/>
            <stop offset=".066%" stop-color="#2F2F2F"/>
        </linearGradient>
        <linearGradient id="wf7usr8oui" x1="69.545%" x2="30.455%" y1="6.267%" y2="100%">
            <stop offset="100%" stop-color="#151515"/>
            <stop offset=".066%" stop-color="#2F2F2F"/>
        </linearGradient>
    </defs>
    <g fill="none" fill-rule="evenodd">
        <g>
            <g>
                <g>
                    <g transform="translate(-132 -282) translate(16 255) translate(116 27) translate(.167 .5)">
                        <path fill="#F9F9F9" fill-rule="nonzero" d="M1.399 53.896c-2.205 7.51-.41 13.06 3.679 19.764 2.888 4.728 7.282 8.833 8.179 14.29.593 3.619-.441 7.359.228 10.946 1.186 6.431 7.373 10.642 13.409 13.15 9.41 3.908 20.873 5.26 29.356-.38 4.682-3.04 8.133-8.163 13.409-10.094 7.039-2.584 14.944 1.17 22.287-.289 5.975-1.17 10.855-5.746 13.865-11.037 4.85-8.529 5.518-18.76 5.184-28.55-.045-8.388-1.479-16.71-4.242-24.629-3.04-7.799-8.179-14.99-15.446-19.155-4.56-2.6-9.668-3.938-14.275-6.386-3.481-1.854-6.613-4.317-10.034-6.278-12.79-6.99-28.257-6.99-41.047 0C13.454 12.119 5.716 20.45 3.649 34.635c-.608 4.241-.076 14.473-2.25 19.261z"/>
                        <ellipse cx="53.209" cy="90.352" fill="#E2E2E2" fill-rule="nonzero" opacity=".6" rx="40.682" ry="4.348"/>
                        <path fill="url(#bht6b4lyha)" d="M32.777 15.411c.323 0 .585.262.585.585 0 .29-.212.532-.49.577l-.095.008H19.566c-4.02 0-7.294 3.193-7.423 7.182l-.004.245v10.991c0 .324-.262.585-.585.585-.29 0-.532-.212-.577-.49L10.969 35V24.008c0-4.662 3.71-8.457 8.339-8.593l.258-.004h13.211z"/>
                        <path fill="url(#jpkgpmn2cb)" d="M11.554 80.904c.29 0 .532.212.577.49l.008.095v11.418c0 4.02 3.193 7.293 7.182 7.422l.245.004H32.23c.323 0 .585.262.585.585 0 .291-.212.532-.49.578l-.095.007H19.566c-4.662 0-8.457-3.71-8.593-8.338l-.004-.258V81.489c0-.323.262-.585.585-.585z"/>
                        <path fill="url(#1vbak2k60c)" d="M94.865 81.27c.29 0 .532.211.577.49l.008.094v11.053c0 4.661-3.71 8.456-8.339 8.593l-.258.003H75.177c-.323 0-.585-.262-.585-.585 0-.29.213-.532.49-.577l.095-.008h11.676c4.02 0 7.294-3.193 7.423-7.181l.004-.245V81.854c0-.323.262-.585.585-.585z"/>
                        <path fill="url(#pu6qbndavd)" d="M86.853 15.411c4.662 0 8.457 3.71 8.593 8.339l.004.258v10.991c0 .324-.262.585-.585.585-.29 0-.532-.212-.577-.49L94.28 35V24.008c0-4.02-3.194-7.294-7.182-7.423l-.245-.004H73.277c-.323 0-.585-.262-.585-.585 0-.29.212-.532.49-.577l.095-.008h13.576z"/>
                        <path fill="url(#73kmhgdeoe)" d="M102.725 29.621c.342 0 .62.278.62.62 0 .311-.23.569-.529.613l-.091.007H3.695c-.343 0-.62-.278-.62-.62 0-.311.229-.569.528-.613l.091-.007h99.03z"/>
                        <rect width="36.684" height="50.123" x="34.86" y="37.021" fill="url(#bjvjgsqdlf)" rx="2.47"/>
                        <path fill="#D6D6D6" fill-rule="nonzero" d="M44.042 35.699H62.376000000000005V42.858999999999995H44.042z"/>
                        <path fill="#FFF" fill-rule="nonzero" opacity=".5" style="mix-blend-mode:soft-light" d="M58.12 35.699H62.376999999999995V42.858999999999995H58.12z"/>
                        <path fill="#D6D6D6" fill-rule="nonzero" d="M47.645 35.85v-1.93c0-.386.313-.7.7-.7h9.73c.386 0 .699.314.699.7v1.93h1.2v-1.93c0-1.05-.85-1.9-1.9-1.9h-9.73c-1.049 0-1.9.85-1.9 1.9v1.93h1.201z"/>
                        <path stroke="#FFF" stroke-linecap="round" stroke-linejoin="round" stroke-width=".77" d="M53.301 55.812L65.098 55.812M43.328 60.92L65.098 60.92M43.328 66.059L65.098 66.059M43.328 71.182L65.098 71.182M43.328 76.32L65.098 76.32"/>
                        <path fill="#F9F9F9" fill-rule="nonzero" d="M50.823 52.589c.355 1.398-.052 2.88-1.072 3.9s-2.502 1.427-3.9 1.071c-1.447-.366-2.575-1.5-2.934-2.95-.361-1.411.059-2.909 1.101-3.928 1.042-1.019 2.55-1.404 3.953-1.01 1.403.393 2.49 1.505 2.852 2.917z"/>
                        <circle cx="46.855" cy="51.753" r="1.155" fill="url(#wrpa40lmjg)"/>
                        <path fill="url(#81ua65jorh)" d="M46.87 56.678c1.033.028 2.017-.441 2.645-1.261-.229-1.289-1.352-2.225-2.66-2.22-1.329-.08-2.487.896-2.63 2.22.669.768 1.626 1.225 2.645 1.261z"/>
                        <rect width="25.601" height="18.958" x="65.204" y="58.64" fill="#FFF" fill-rule="nonzero" rx="1.64"/>
                        <path fill="#B2B2B2" fill-rule="nonzero" d="M88.313 59.005c1.169.008 2.113.958 2.113 2.128V75.18c0 1.167-.946 2.113-2.114 2.113h-20.63c-1.167 0-2.113-.946-2.113-2.113V61.133c0-1.17.944-2.12 2.113-2.128h20.63m0-.73h-20.63c-1.572.008-2.842 1.285-2.842 2.858V75.18c0 1.573 1.27 2.85 2.842 2.858h20.63c.766.013 1.505-.283 2.051-.82.546-.538.853-1.272.853-2.038V61.133c0-1.579-1.28-2.858-2.858-2.858h-.046z"/>
                        <path fill="url(#wf7usr8oui)" d="M71.042 74.086c-.114-.007-.223-.056-.304-.137-.077-.083-.12-.191-.121-.304v-.912c-.472-.065-.935-.177-1.384-.335-.546-.214-1.058-.506-1.52-.866-.167-.131-.212-.364-.107-.548l.624-1.17c.063-.13.19-.216.334-.228.122-.004.239.046.32.136.098.091.205.173.319.244.166.12.344.222.532.304.22.104.45.19.684.258l.289.076v-1.672c-.426-.122-.806-.243-1.156-.38-.332-.125-.64-.305-.912-.532-.252-.212-.454-.477-.593-.776-.14-.331-.207-.689-.197-1.049-.004-.427.08-.851.243-1.246.16-.362.4-.684.7-.943.297-.262.643-.463 1.018-.593.27-.103.55-.174.836-.213v-.85c0-.116.047-.227.13-.307.083-.08.195-.124.31-.12h.64c.112.005.22.048.303.122.077.083.12.191.122.304v.836c.407.056.806.163 1.186.32.455.174.885.41 1.277.699.18.127.233.372.121.562l-.623 1.125c-.073.119-.196.197-.334.213-.126 0-.246-.048-.335-.137-.063-.08-.14-.146-.228-.197l-.44-.228c-.176-.084-.36-.15-.548-.198h-.137v1.672c.381.097.757.214 1.125.35.366.13.709.314 1.019.547.288.224.521.51.684.836.172.371.255.777.243 1.186.014.448-.085.893-.289 1.292-.175.362-.436.675-.76.913-.329.243-.7.423-1.094.532-.28.074-.564.125-.852.152v.836c0 .243-.197.44-.44.44l-.685-.014zm.988-3.467c.185-.018.362-.08.517-.182.16-.094.248-.273.228-.456.014-.175-.067-.343-.213-.441-.17-.101-.347-.188-.532-.258v1.337zm-1.307-5.366c-.133.028-.257.085-.365.167-.15.128-.23.32-.213.517-.018.16.052.317.183.41.123.085.256.157.395.213v-1.307z"/>
                        <path fill="#B2B2B2" fill-rule="nonzero" d="M77.595 64.189H87.705V65.633H77.595zM77.595 67.336H85.54599999999999V68.78H77.595zM77.595 70.483H86.504V71.927H77.595z"/>
                        <path fill="#FFF" fill-rule="nonzero" d="M19.764 45.2H37.55c1.15 0 2.082.933 2.082 2.083V59.34c.017.556-.189 1.097-.57 1.502-.383.404-.91.64-1.467.657H19.764c-1.15 0-2.083-.933-2.083-2.083V47.283c0-1.15.932-2.083 2.083-2.083z"/>
                        <path fill="#B2B2B2" fill-rule="nonzero" d="M37.596 45.459c1.01 0 1.831.814 1.84 1.824V59.34c0 1.016-.824 1.84-1.84 1.84H19.764c-1.01-.009-1.825-.83-1.825-1.84V47.283c0-1.007.817-1.824 1.825-1.824H37.55m0-.517H19.764c-1.294 0-2.342 1.048-2.342 2.341V59.34c-.004.624.241 1.223.68 1.665.44.443 1.038.691 1.662.691H37.55c.626.004 1.228-.242 1.67-.685.443-.443.69-1.045.686-1.671V47.283c0-.623-.249-1.221-.691-1.66-.442-.44-1.042-.685-1.665-.681z"/>
                        <path fill="#EAEAEA" fill-rule="nonzero" d="M27.973 50.05H36.699V51.297H27.973zM27.973 52.756H34.829V54.003H27.973zM27.973 55.462H35.666V56.709H27.973z"/>
                        <rect width="4.196" height="7.13" x="20.721" y="49.761" fill="#EAEAEA" fill-rule="nonzero" rx=".6"/>
                    </g>
                </g>
            </g>
        </g>
    </g>
</svg>
