<svg xmlns="http://www.w3.org/2000/svg" xmlns:xlink="http://www.w3.org/1999/xlink" width="120" height="120" viewBox="0 0 120 120">
    <defs>
        <path id="n56cnc8z8a" d="M0 118.819L118.409 118.819 118.409 0.025 0 0.025z"/>
        <path id="vitlpaq4td" d="M.3.722v2.69c.003.206.161.37.346.367h1.938c.118 0 .168-.053.168-.147v-.349c0-.094-.067-.147-.168-.147l-1.57-.003c-.069 0-.145-.061-.145-.138L.868 1.127c0-.078.056-.14.125-.14l1.59-.003c.051 0 .153-.007.17-.139V.511c0-.094-.05-.169-.17-.162L.612.347C.426.349.298.517.3.722"/>
        <path id="nlh7hy91ig" d="M.007.203V.45c0 .09.066.154.138.153h1.219c.065 0 .125-.053.125-.153V.19C1.485.106 1.415.05 1.349.05L.132.05C.06.05.005.114.007.203"/>
        <path id="vha7cqqc8j" d="M3.01.347c-.128 0-.21.028-.278.125 0 0-.726.957-.775 1.016-.066.079-.123.153-.2.153-.083 0-.168-.112-.2-.153C1.323 1.194.811.46.811.46.762.388.658.347.562.347H.127C.065.347.014.396.014.45v3.207c0 .068.064.123.14.123h.362c.077 0 .14-.055.14-.123V1.596c0-.1.09-.14.152-.062l.416.539c.001.003.248.329.374.455.03.028.066.049.105.056.034.008.074.01.113.003.04-.006.077-.026.107-.053.13-.119.336-.39.378-.446.134-.178.384-.524.433-.572.076-.06.137-.013.132.081V3.65c0 .069.064.13.142.13h.35c.078 0 .141-.055.141-.123V.45c0-.054-.05-.103-.112-.103H3.01z"/>
        <path id="p2wfnc0enm" d="M0.172 0.268L0.172 4.51 62.185 4.51 63.233 0.268z"/>
        <path id="uttpqzic4o" d="M0.26 0.162L0.26 4.404 62.269 4.404 63.32 0.162z"/>
        <path id="b4v0tmhkmq" d="M0.216 0L0.216 4.245 62.227 4.245 63.276 0z"/>
        <path id="osh6nh6kmu" d="M2.026.187L.612 1.575l-.417.397-.002.001c-.249.25-.249.66.002.91l1.813 1.813c.25.25.66.25.91 0 .25-.251.25-.661 0-.911L1.571 2.438l1.357-1.33c.127-.126.191-.291.192-.457V.644c0-.162-.062-.324-.183-.448-.126-.128-.293-.192-.46-.192-.163 0-.326.061-.451.183"/>
        <path id="gcv1udna4x" d="M.644.028C.482.029.32.09.197.211-.056.46-.06.87.19 1.122l1.386 1.414.398.417v.001h.001c.25.25.66.25.91 0L4.697 1.14c.25-.25.25-.66 0-.911-.251-.25-.661-.25-.911 0L2.439 1.577 1.108.22C.983.093.818.03.653.028h-.01z"/>
        <path id="i2j0sqm9eA" d="M.202.205c-.25.25-.25.66 0 .911L1.55 2.463.192 3.793c-.253.249-.257.659-.009.911.249.253.658.257.911.01l1.414-1.388.417-.397h.001v-.001c.25-.251.25-.66 0-.91L1.113.205C.987.08.823.017.657.017.492.017.327.08.202.205"/>
        <path id="a54c1yw1rD" d="M2.032.201L.219 2.014c-.25.25-.25.66 0 .911.251.25.661.25.911 0l1.347-1.347 1.33 1.357c.249.253.659.256.912.008s.257-.657.008-.91L3.341.619 2.943.202V.2h-.001c-.125-.125-.29-.188-.455-.188-.165 0-.33.063-.455.188"/>
        <linearGradient id="a5mx0j2z8c" x1="80.767%" x2="19.233%" y1="6.267%" y2="100%">
            <stop offset="100%" stop-color="#151515"/>
            <stop offset=".066%" stop-color="#2F2F2F"/>
        </linearGradient>
        <linearGradient id="zklxywod7e" x1="37.038%" x2="51.951%" y1="139.061%" y2="36.369%">
            <stop offset="0%" stop-color="#00852A"/>
            <stop offset="100%" stop-color="#11CC23"/>
        </linearGradient>
        <linearGradient id="plcuitv6th" x1="7.469%" x2="54.748%" y1="138.924%" y2="39.966%">
            <stop offset="0%" stop-color="#00852A"/>
            <stop offset="100%" stop-color="#11CC23"/>
        </linearGradient>
        <linearGradient id="py1lxgstbk" x1="50.002%" x2="50.002%" y1="116.698%" y2="3.809%">
            <stop offset="0%" stop-color="#00852A"/>
            <stop offset="100%" stop-color="#11CC23"/>
        </linearGradient>
        <linearGradient id="zgd25ch3gs" x1="100%" x2="0%" y1="16.511%" y2="88.288%">
            <stop offset="100%" stop-color="#151515"/>
            <stop offset=".066%" stop-color="#2F2F2F"/>
        </linearGradient>
        <linearGradient id="89oqdonhft" x1="88.544%" x2="11.456%" y1="6.267%" y2="100%">
            <stop offset="100%" stop-color="#151515"/>
            <stop offset=".066%" stop-color="#2F2F2F"/>
        </linearGradient>
        <linearGradient id="avp7hb0gev" x1="0%" x2="100.001%" y1="50%" y2="50%">
            <stop offset="0%" stop-color="#11CC23"/>
            <stop offset="100%" stop-color="#00951C"/>
        </linearGradient>
        <linearGradient id="ky3xg1cw6y" x1="0%" x2="100%" y1="50%" y2="50%">
            <stop offset="0%" stop-color="#11CC23"/>
            <stop offset="100%" stop-color="#00951C"/>
        </linearGradient>
        <linearGradient id="xtdb8tin2B" x1="0%" x2="100%" y1="50%" y2="50%">
            <stop offset="0%" stop-color="#11CC23"/>
            <stop offset="100%" stop-color="#00951C"/>
        </linearGradient>
        <linearGradient id="2hzeeiwy7E" x1="0%" x2="100%" y1="50%" y2="50%">
            <stop offset="0%" stop-color="#11CC23"/>
            <stop offset="100%" stop-color="#00951C"/>
        </linearGradient>
    </defs>
    <g fill="none" fill-rule="evenodd">
        <g>
            <g>
                <g transform="translate(-68 -889) translate(68 889) translate(.385 .577)">
                    <path fill="#F4F4F4" d="M17.384 90.01S5.006 85.477 6.637 73.368c1.631-12.11 8.808-17.346 4.24-29.782C6.312 31.15 18.056 6.604 40.238 7.258c22.182.655 36.493 26.367 48.747 19.73 12.254-6.639 27.335 6.021 25.955 25.761-1.382 19.761-17.037 23.527-21.789 41.678-3.783 14.454-31.428 24.864-43.21 19.172-11.611-5.608-11.77-11.168-17.206-16.996-2.693-2.887-15.35-6.592-15.35-6.592"/>
                    <mask id="5qzj4hulpb" fill="#fff">
                        <use xlink:href="#n56cnc8z8a"/>
                    </mask>
                    <path fill="#E0E0E0" d="M39.728 90.983L41.902 90.983 41.902 39.087 39.728 39.087z" mask="url(#5qzj4hulpb)"/>
                    <path fill="url(#a5mx0j2z8c)" d="M33.81 18.574h13.918c1.453 0 2.63 1.182 2.63 2.64v19.17c0 1.458-1.177 2.64-2.63 2.64H33.81c-1.453 0-2.63-1.182-2.63-2.64v-19.17c0-1.458 1.177-2.64 2.63-2.64" mask="url(#5qzj4hulpb)"/>
                    <path fill="#FFF" d="M49.374 21.214V40.38c0 .913-.738 1.653-1.648 1.653H33.81c-.91 0-1.648-.74-1.648-1.653V21.214c0-.914.738-1.654 1.648-1.654h13.916c.91 0 1.648.74 1.648 1.654" mask="url(#5qzj4hulpb)"/>
                </g>
                <g fill="#181A41">
                    <path d="M7.848 2.239v-.756c0-.083-.064-.15-.144-.15h-.319c-.08 0-.145.066-.145.15L7.238 2.53c0 .013.003.074-.002.187-.01.278-.172.38-.38.38-.231 0-.369-.19-.369-.437V1.484c.001-.084-.065-.151-.145-.151h-.323c-.081-.001-.147.066-.147.15L5.87 2.571H5.87v.17c.05.528.481.94.978.94.145 0 .284-.035.41-.096v.153c-.018.263-.231.471-.492.471-.138 0-.262-.057-.351-.15-.054-.057-.136-.071-.204-.036l-.214.109c-.103.052-.13.19-.057.282.198.243.495.398.827.398.57 0 1.036-.455 1.075-1.032.003-.014.004-.025.004-.032l.002-1.51zM4.014 3.063c-.298-.049-.501-.336-.454-.641.047-.306.328-.514.626-.466.258.042.445.264.46.522l-.001.066c-.001.018-.003.036-.006.053-.047.306-.327.514-.625.466m1.072-1.735h-.289c-.071-.001-.131.065-.146.153-.158-.097-.344-.153-.551-.153-.637 0-1.153.529-1.153 1.182 0 .652.516 1.181 1.153 1.181.205 0 .39-.055.547-.15.015.086.074.15.145.15l.29.002c.082 0 .149-.088.15-.197l.003-1.971c0-.108-.066-.197-.149-.197M1.67.345L1.652.344h-.006L1.601.342l-.038.001L.39.341C.302.341.232.414.23.504v.293c0 .012.001.024.004.036L.23 3.487c0 .11.066.198.149.198h.29c.082 0 .148-.087.149-.197l.004-2.405C.835 1.021.87.978.966.961h.69l.038.003c.226.035.399.23.399.464 0 .26-.2.462-.461.462L1.3 1.888c-.089 0-.16.074-.16.165v.279c0 .09.07.165.159.165l.418.002c.557-.056.991-.516.991-1.075C2.708.85 2.25.38 1.671.344" transform="translate(-68 -889) translate(68 889) translate(33.454 33.262)"/>
                </g>
                <g transform="translate(-68 -889) translate(68 889) translate(45.759 32.877)">
                    <mask id="odjf29lr3f" fill="#fff">
                        <use xlink:href="#vitlpaq4td"/>
                    </mask>
                    <path fill="url(#zklxywod7e)" d="M.3.722v2.69c.003.206.161.37.346.367h1.938c.118 0 .168-.053.168-.147v-.349c0-.094-.067-.147-.168-.147l-1.57-.003c-.069 0-.145-.061-.145-.138L.868 1.127c0-.078.056-.14.125-.14l1.59-.003c.051 0 .153-.007.17-.139V.511c0-.094-.05-.169-.17-.162L.612.347C.426.349.298.517.3.722" mask="url(#odjf29lr3f)"/>
                </g>
                <g transform="translate(-68 -889) translate(68 889) translate(46.912 34.8)">
                    <mask id="f4p5ao341i" fill="#fff">
                        <use xlink:href="#nlh7hy91ig"/>
                    </mask>
                    <path fill="url(#plcuitv6th)" d="M.007.203V.45c0 .09.066.154.138.153h1.219c.065 0 .125-.053.125-.153V.19C1.485.106 1.415.05 1.349.05L.132.05C.06.05.005.114.007.203" mask="url(#f4p5ao341i)"/>
                </g>
                <g transform="translate(-68 -889) translate(68 889) translate(41.913 32.877)">
                    <mask id="a4vzekim8l" fill="#fff">
                        <use xlink:href="#vha7cqqc8j"/>
                    </mask>
                    <path fill="url(#py1lxgstbk)" d="M3.01.347c-.128 0-.21.028-.278.125 0 0-.726.957-.775 1.016-.066.079-.123.153-.2.153-.083 0-.168-.112-.2-.153C1.323 1.194.811.46.811.46.762.388.658.347.562.347H.127C.065.347.014.396.014.45v3.207c0 .068.064.123.14.123h.362c.077 0 .14-.055.14-.123V1.596c0-.1.09-.14.152-.062l.416.539c.001.003.248.329.374.455.03.028.066.049.105.056.034.008.074.01.113.003.04-.006.077-.026.107-.053.13-.119.336-.39.378-.446.134-.178.384-.524.433-.572.076-.06.137-.013.132.081V3.65c0 .069.064.13.142.13h.35c.078 0 .141-.055.141-.123V.45c0-.054-.05-.103-.112-.103H3.01z" mask="url(#a4vzekim8l)"/>
                </g>
                <g>
                    <path fill="#E0E0E0" d="M60.909 15.057L60.699 16.547 59.562 31.19 58.213 31.19 59.348 16.547 59.557 15.057zM67.729 15.057L67.939 16.547 69.074 31.19 70.423 31.19 69.288 16.547 69.079 15.057zM3.051 15.057L2.839 16.547 1.705 31.19.358 31.19 1.49 16.547 1.702 15.057zM9.869 15.057L10.079 16.547 11.218 31.19 12.568 31.19 11.433 16.547 11.221 15.057zM11.702.181L9.596 15.057 9.386 16.547 8.037 16.547 8.246 15.057 10.352.181zM69.556.181L67.451 15.057 67.241 16.547 65.892 16.547 66.101 15.057 68.207.181z" transform="translate(-68 -889) translate(68 889) translate(23.84 61.332)"/>
                    <path fill="#B2B2B2" d="M7.94 12.593L69.877 12.593 70.924 8.451 7.94 8.451z" transform="translate(-68 -889) translate(68 889) translate(23.84 61.332)"/>
                </g>
                <g transform="translate(-68 -889) translate(68 889) translate(31.916 69.407)">
                    <mask id="0zsn4dbvvn" fill="#fff">
                        <use xlink:href="#p2wfnc0enm"/>
                    </mask>
                    <path fill="#B2B2B2" d="M62.084 4.51L0.172 4.51 1.324 0.268 63.233 0.268z" mask="url(#0zsn4dbvvn)"/>
                </g>
                <path fill="#B2B2B2" d="M33.838 63.639L95.849 63.639 96.901 59.409 33.838 59.409z" transform="translate(-68 -889) translate(68 889)"/>
                <g transform="translate(-68 -889) translate(68 889) translate(33.454 59.41)">
                    <mask id="s52b1g92bp" fill="#fff">
                        <use xlink:href="#uttpqzic4o"/>
                    </mask>
                    <path fill="#B2B2B2" d="M62.171 4.404L0.259 4.404 1.411 0.162 63.32 0.162z" mask="url(#s52b1g92bp)"/>
                </g>
                <path fill="#B2B2B2" d="M32.685 69.022L94.697 69.022 95.747 64.793 32.685 64.793z" transform="translate(-68 -889) translate(68 889)"/>
                <g transform="translate(-68 -889) translate(68 889) translate(32.685 64.793)">
                    <mask id="xucs746rdr" fill="#fff">
                        <use xlink:href="#b4v0tmhkmq"/>
                    </mask>
                    <path fill="#B2B2B2" d="M62.128 4.245L0.216 4.245 1.367 0 63.276 0z" mask="url(#xucs746rdr)"/>
                </g>
                <g>
                    <path fill="#D8D8D8" d="M94.083 63.276L32.314 63.276 33.46 59.132 95.23 59.132zM93.223 68.447L31.454 68.447 32.6 64.301 94.37 64.301zM92.363 73.623L30.593 73.623 31.74 69.479 93.509 69.479zM24.975 77.579L86.471 77.579 86.471 76.088 24.975 76.088z" transform="translate(-68 -889) translate(68 889) translate(0 .192)"/>
                    <path fill="#B2B2B2" d="M86.469 77.579L94.921 77.579 94.921 76.088 86.469 76.088z" transform="translate(-68 -889) translate(68 889) translate(0 .192)"/>
                </g>
                <path fill="#B2B2B2" d="M86.518 77.867L94.978 77.867 94.978 76.328 86.518 76.328z" transform="translate(-68 -889) translate(68 889)"/>
                <g>
                    <path fill="#E6E6E6" d="M42.186 56.348L45.793 56.348 45.793 56.298 42.186 56.298z" transform="translate(-68 -889) translate(68 889) translate(30.103 27.629)"/>
                    <path fill="#FFF" d="M69.97 9.223c-.153.004-.291.095-.354.236-.855-.82-1.82-1.322-2.596-1.267-.356.013-.686.187-.898.473-.929-1.234-2.087-2.109-2.904-2.109-.464 0-.74.283-.822.756-.938-.83-1.887-1.34-2.637-1.34-.93 0-1.34.783-1.212 1.987-.448-.354-.884-.556-1.246-.556-.496 0-.729.395-.69 1.015-.042 0-.086.004-.129.01-.757.104-1.047.905-.683 1.822H71.32c-.34-.605-.925-1.056-1.35-1.027M49 3.126c-.15 0-.284.088-.344.223-.809-.775-1.717-1.25-2.457-1.202-.34.009-.657.174-.859.448C44.46 1.427 43.363.6 42.594.6c-.44 0-.703.268-.78.714C40.926.527 40.027.046 39.318.046c-.881 0-1.27.74-1.149 1.89-.424-.332-.84-.528-1.18-.528-.468 0-.686.375-.65.962-.041-.002-.083-.002-.124 0-.716.098-.992.86-.647 1.718h14.695c-.308-.562-.854-.99-1.264-.962" transform="translate(-68 -889) translate(68 889) translate(30.103 27.629)"/>
                    <path fill="#E0E0E0" d="M31.187 62.95c17.05 0 30.872 1.66 30.872 3.71 0 2.048-13.822 3.71-30.872 3.71S.315 68.708.315 66.66c0-2.05 13.821-3.71 30.872-3.71" transform="translate(-68 -889) translate(68 889) translate(30.103 27.629)"/>
                    <path fill="#B2B2B2" d="M17.36 42.746L16.965 48.467 14.089 48.467 14.012 47.333 13.772 43.879 13.694 42.746z" transform="translate(-68 -889) translate(68 889) translate(30.103 27.629)"/>
                    <path fill="#E6E6E6" d="M13.383 42.929L17.675 42.929 17.675 42.559 13.383 42.559z" transform="translate(-68 -889) translate(68 889) translate(30.103 27.629)"/>
                    <path fill="#F5F5F5" d="M15.338 43.867L15.391 47.32 14.001 47.342 13.712 43.892z" transform="translate(-68 -889) translate(68 889) translate(30.103 27.629)"/>
                    <path fill="#C6C6C6" d="M20.147 65.373L22.078 65.373 22.321 60.999 20.39 60.999z" transform="translate(-68 -889) translate(68 889) translate(30.103 27.629)"/>
                    <path fill="#636363" d="M20.067 64.269h2.094c.075 0 .14.054.152.128l.281 1.657c.023.16-.087.307-.247.33-.014.002-.028.004-.042.004-.732-.014-1.083-.058-2.006-.058-.564 0-2.436.06-3.218.06-.78 0-.845-.774-.515-.844 1.451-.315 2.715-.748 3.197-1.161.085-.074.192-.115.304-.116" transform="translate(-68 -889) translate(68 889) translate(30.103 27.629)"/>
                    <path fill="#E0E0E0" d="M38.086 28.464c-.652 1.386-1.333 2.746-2.04 4.1-.706 1.355-1.433 2.697-2.207 4.03l-.294.501-.074.127-.114.178c-.08.126-.154.211-.235.32-.283.342-.594.66-.93.95-.604.524-1.238 1.013-1.898 1.465-1.279.878-2.612 1.673-3.992 2.382l-.774-1.175c1.15-.962 2.321-1.935 3.417-2.918.547-.49 1.086-.993 1.547-1.496.217-.23.418-.474.604-.73.028-.052.074-.111.087-.148l.099-.19.257-.501c1.33-2.684 2.63-5.434 3.992-8.13l2.555 1.235z" transform="translate(-68 -889) translate(68 889) translate(30.103 27.629)"/>
                    <path fill="#07A922" d="M38.865 27.112c.544 1.67-2.894 6.583-2.894 6.583l-3.622-2.03c.641-1.535 1.438-2.997 2.38-4.367 1.42-1.961 3.543-2.016 4.136-.186" transform="translate(-68 -889) translate(68 889) translate(30.103 27.629)"/>
                    <path fill="#E0E0E0" d="M25.598 41.304l-1.735 1.004 1.256 1.847s1.343-.678 1.485-2.064l-1.006-.787z" transform="translate(-68 -889) translate(68 889) translate(30.103 27.629)"/>
                    <path fill="#E0E0E0" d="M22.757 44.578L24.178 44.436 25.119 44.155 23.863 42.308z" transform="translate(-68 -889) translate(68 889) translate(30.103 27.629)"/>
                    <path fill="#C6C6C6" d="M37.495 65.373L35.564 65.373 34.154 60.999 36.085 60.999z" transform="translate(-68 -889) translate(68 889) translate(30.103 27.629)"/>
                    <path fill="#636363" d="M35.126 64.269h2.093c.077-.001.141.054.153.128l.284 1.657c.02.161-.092.31-.253.33-.013.002-.026.004-.038.004-.73-.014-1.084-.058-2.005-.058-.567 0-2.436.06-3.22.06-.784 0-.843-.774-.516-.844 1.452-.315 2.715-.748 3.195-1.161.086-.074.195-.115.307-.116" transform="translate(-68 -889) translate(68 889) translate(30.103 27.629)"/>
                    <path fill="#E0E0E0" d="M46.652 26.444c.348.07.642.142.954.227.312.085.611.173.915.258.606.188 1.207.402 1.805.643.591.237 1.174.503 1.749.802.289.144.572.304.853.467.14.082.279.173.418.258l.21.132c.012 0 .123.08.195.134.08.063.155.13.227.201.254.271.432.605.515.968.063.265.084.538.062.81-.033.404-.12.8-.258 1.181-.229.63-.519 1.235-.866 1.807-.644 1.084-1.39 2.105-2.228 3.047l-1.145-.805c.532-1.032 1.055-2.126 1.483-3.179.21-.501.377-1.02.5-1.548.049-.197.07-.399.065-.601 0-.067-.023-.106-.026-.088.011.07.045.134.095.183.016.02.034.037.054.052 0 .013.06.041 0 .013l-.185-.093-.371-.186c-.258-.116-.516-.237-.774-.346-.515-.224-1.05-.426-1.588-.616-.54-.191-1.084-.367-1.635-.532-.276-.082-.552-.165-.828-.24l-.804-.212.608-2.737z" transform="translate(-68 -889) translate(68 889) translate(30.103 27.629)"/>
                    <path fill="#E0E0E0" d="M49.865 36.644l-1.13 1.502 2.321.16s.774-1.515-.044-1.856l-1.147.194z" transform="translate(-68 -889) translate(68 889) translate(30.103 27.629)"/>
                    <path fill="#E0E0E0" d="M48.867 40.249L50.796 40.287 51.064 38.306 48.735 38.146z" transform="translate(-68 -889) translate(68 889) translate(30.103 27.629)"/>
                    <path fill="url(#zgd25ch3gs)" d="M35.776 41.957s-12.893-.444-14.616 4.688c-1.89 5.618-2.748 16.026-2.748 16.026l5.204.065s.533-7.493 1.387-11.26c.887-3.912 13.475-2.134 15.074-3.564 1.276-1.14 1.92-3.07 2.091-5.955h-6.392z" transform="translate(-68 -889) translate(68 889) translate(30.103 27.629)"/>
                    <path fill="url(#89oqdonhft)" d="M39.31 41.957s-12.652.65-11.765 5.989c.97 5.847 5.613 14.79 5.613 14.79h4.771s-2.924-8.6-3.953-12.32c-.709-2.581 8.078-1.074 9.677-2.504 1.277-1.14 1.921-3.07 2.091-5.955h-6.433z" transform="translate(-68 -889) translate(68 889) translate(30.103 27.629)"/>
                    <path fill="#115618" d="M38.911 27.324c-.714-.346-1.547-.057-2.442 1.32-.894 1.379-1.676 3.683-1.768 4.34l1.271.71s3.176-4.536 2.94-6.37" transform="translate(-68 -889) translate(68 889) translate(30.103 27.629)"/>
                    <path fill="#07A922" d="M47.165 25.73c-.062.24-.12.48-.175.72v.02c-.39 1.701-.678 3.425-.861 5.16-.544 4.986-.274 9.21-.38 10.322h-9.973c-1.547-10.49.943-16.12.943-16.12s.833-.227 1.89-.392c.32-.052.66-.095 1.004-.126 1.411-.083 2.826-.083 4.236 0 .304.015.611.038.908.067 1.29.131 2.408.348 2.408.348" transform="translate(-68 -889) translate(68 889) translate(30.103 27.629)"/>
                    <path fill="#FFF" d="M39.801 29.77h-.06c-.631.057-1.247 1-1.348 2.064-.065.67.09 1.29.4 1.595.136.148.333.224.533.206.63-.056 1.249-.998 1.35-2.064.06-.67-.091-1.29-.403-1.594-.123-.13-.294-.202-.472-.202v-.005zm-.534 4.129c-.25-.002-.487-.106-.657-.287-.369-.369-.547-1.032-.475-1.806.116-1.213.81-2.22 1.583-2.289.277-.024.548.08.738.28.369.373.547 1.033.475 1.807-.117 1.216-.81 2.222-1.581 2.292l-.083.003z" transform="translate(-68 -889) translate(68 889) translate(30.103 27.629)"/>
                    <path fill="#CECECE" d="M43.567 21.07c-.337 1.362-.623 3.346.282 4.249 0 0-1.134 1.548-3.584 2.002-1.846-.872-.652-2.002-.652-2.002.918-.343 1.117-1.018.918-2.078l3.036-2.17z" transform="translate(-68 -889) translate(68 889) translate(30.103 27.629)"/>
                    <path fill="#253B64" d="M39.449 16.34c-.992.412-1.658 3.127-.452 3.75 1.206.624 2.324-4.526.452-3.75" transform="translate(-68 -889) translate(68 889) translate(30.103 27.629)"/>
                    <path fill="#E0E0E0" d="M44.843 18.979c-.252 2.17-.286 3.446-1.472 4.56-1.118 1.105-2.943 1.117-4.078.029-.426-.41-.711-.938-.815-1.513-.373-1.952.1-5.17 2.327-6.033 1.464-.629 3.173.018 3.818 1.444.215.475.291.999.22 1.513" transform="translate(-68 -889) translate(68 889) translate(30.103 27.629)"/>
                    <path fill="#253B64" d="M42.551 14.77c1.067-.673 2.698 0 2.368.917-.528 1.485.83.06.817 1.817 0 1.147-1.293 3.865-2.11 3.794-.816-.07-1.13-1.517-.634-3.124.37-1.21-.65-.733-2.134-.586-3.01.295-5.081-3.652-1.616-3.44 3.35.205 2.994-1.634 2.994-1.634s1.205 1.972-.697 1.98c-1.903.009-1.2 1.667 1.012.275" transform="translate(-68 -889) translate(68 889) translate(30.103 27.629)"/>
                    <path fill="#E0E0E0" d="M45.542 20.961c-.268.393-.674.67-1.138.774-.608.132-.845-.415-.62-.965.2-.495.76-1.16 1.345-1.047.585.113.738.763.413 1.238" transform="translate(-68 -889) translate(68 889) translate(30.103 27.629)"/>
                    <path fill="#253B64" d="M44.386 16.268c.537-.072 1.007-.396 1.265-.872 0 0 .053 1.544-1.265.872" transform="translate(-68 -889) translate(68 889) translate(30.103 27.629)"/>
                    <path fill="#115618" d="M46.99 26.444V26.48c-.39 1.701-.678 3.425-.861 5.16-1.086-1.53-1.406-3.129-1.215-4.128.21-1.104 1.424-1.135 2.076-1.068" transform="translate(-68 -889) translate(68 889) translate(30.103 27.629)"/>
                    <path fill="#07A922" d="M45.337 25.902c1.362-1.13 6.326 1.535 6.326 1.535l-2.925 3.667s-.515-.116-2.578-1.045c-2.164-.976-2.285-2.947-.823-4.157" transform="translate(-68 -889) translate(68 889) translate(30.103 27.629)"/>
                    <path fill="#253B64" d="M42.425 19.412s-.202-.085-.5-.016c-.297.069-.684.317-.633.358.051.04.436-.113.541-.144.105-.032.637-.066.592-.198M41.533 20.305c0 .166.135.301.301.301.167 0 .302-.135.302-.301 0-.166-.135-.301-.302-.301-.166 0-.3.135-.3.301M39.17 20.355c0 .155.126.28.28.28.156 0 .282-.125.282-.28 0-.156-.126-.281-.281-.281-.155 0-.281.125-.281.28M40.029 19.633s-.164-.162-.437-.189c-.274-.026-.658.11-.62.172.038.061.404.027.502.029.098.002.572.147.555-.012M41.754 22.657s-.434.676-1.148.336c-.189-.09-.292-.273-.064-.258.392.027 1.046-.328 1.098-.33.051-.002.25.004.114.252" transform="translate(-68 -889) translate(68 889) translate(30.103 27.629)"/>
                    <path stroke="#253B64" stroke-linecap="round" stroke-linejoin="round" stroke-width=".265" d="M40.398 20.472c0 .238-.297.802-.474.98-.179.178.207.415.326.504" transform="translate(-68 -889) translate(68 889) translate(30.103 27.629)"/>
                </g>
                <g>
                    <g transform="translate(-68 -889) translate(68 889) translate(37.684 23.456) translate(4.48 1.409)">
                        <mask id="c3xh1tcwbw" fill="#fff">
                            <use xlink:href="#osh6nh6kmu"/>
                        </mask>
                        <path fill="url(#avp7hb0gev)" d="M2.026.187L.612 1.575l-.417.397-.002.001c-.249.25-.249.66.002.91l1.813 1.813c.25.25.66.25.91 0 .25-.251.25-.661 0-.911L1.571 2.438l1.357-1.33c.127-.126.191-.291.192-.457V.644c0-.162-.062-.324-.183-.448-.126-.128-.293-.192-.46-.192-.163 0-.326.061-.451.183" mask="url(#c3xh1tcwbw)"/>
                    </g>
                    <g transform="translate(-68 -889) translate(68 889) translate(37.684 23.456) translate(1.352 .014)">
                        <mask id="lc482lamxz" fill="#fff">
                            <use xlink:href="#gcv1udna4x"/>
                        </mask>
                        <path fill="url(#ky3xg1cw6y)" d="M.644.028C.482.029.32.09.197.211-.056.46-.06.87.19 1.122l1.386 1.414.398.417v.001h.001c.25.25.66.25.91 0L4.697 1.14c.25-.25.25-.66 0-.911-.251-.25-.661-.25-.911 0L2.439 1.577 1.108.22C.983.093.818.03.653.028h-.01z" mask="url(#lc482lamxz)"/>
                    </g>
                    <g transform="translate(-68 -889) translate(68 889) translate(37.684 23.456) translate(0 1.409)">
                        <mask id="0r7hgn39tC" fill="#fff">
                            <use xlink:href="#i2j0sqm9eA"/>
                        </mask>
                        <path fill="url(#xtdb8tin2B)" d="M.202.205c-.25.25-.25.66 0 .911L1.55 2.463.192 3.793c-.253.249-.257.659-.009.911.249.253.658.257.911.01l1.414-1.388.417-.397h.001v-.001c.25-.251.25-.66 0-.91L1.113.205C.987.08.823.017.657.017.492.017.327.08.202.205" mask="url(#0r7hgn39tC)"/>
                    </g>
                    <g transform="translate(-68 -889) translate(68 889) translate(37.684 23.456) translate(1.352 4.536)">
                        <mask id="d8cdw3odgF" fill="#fff">
                            <use xlink:href="#a54c1yw1rD"/>
                        </mask>
                        <path fill="url(#2hzeeiwy7E)" d="M2.032.201L.219 2.014c-.25.25-.25.66 0 .911.251.25.661.25.911 0l1.347-1.347 1.33 1.357c.249.253.659.256.912.008s.257-.657.008-.91L3.341.619 2.943.202V.2h-.001c-.125-.125-.29-.188-.455-.188-.165 0-.33.063-.455.188" mask="url(#d8cdw3odgF)"/>
                    </g>
                </g>
            </g>
        </g>
    </g>
</svg>
