<svg xmlns="http://www.w3.org/2000/svg" width="100" height="95" viewBox="0 0 100 95">
    <g fill="none" fill-rule="evenodd">
        <g>
            <g>
                <path fill="#000" fill-rule="nonzero" d="M2.842 70.402c6.344 14.043 18.26 20.047 27.1 22.173 14.146 3.405 30.809 1.21 42.781-5.378 10.38-5.77 18.461-14.933 22.889-25.953 3.821-9.415 4.391-17.142 3.147-25.063-1.243-7.921-7.935-18.379-21.325-17.42-13.39.959-17.927 10.166-22.158 16.28-6.087 8.79-12.855 8.485-23.02 6.115-10.167-2.37-18.109-1.973-23.82 1.55-7.012 4.322-10.52 16.815-5.594 27.696z" opacity=".05" transform="translate(-138 -337) translate(138 337)"/>
                <path fill="#C9C9C9" d="M80.513 92.27H21.395V77.677c0-6.647 2.64-13.021 7.34-17.72 4.701-4.7 11.076-7.339 17.723-7.337h8.991c6.647-.002 13.022 2.637 17.722 7.337 4.7 4.699 7.342 11.073 7.342 17.72v14.591z" transform="translate(-138 -337) translate(138 337)"/>
                <path fill="#FFF" d="M21.124 92.27H32.24V79.546c-1.235-1.574-3.142-2.471-5.142-2.418-4.864 0-5.975 2.418-5.975 2.418v12.722zM69.402 92.27H80.52V79.546c-1.234-1.565-3.13-2.46-5.122-2.418-4.864 0-5.975 2.418-5.975 2.418l-.021 12.722z" transform="translate(-138 -337) translate(138 337)"/>
                <path fill="#F2F2F2" d="M50.724 59.68c-3.534-.01-6.398-2.871-6.413-6.406V52.01c0-3.542 2.871-6.414 6.413-6.414 3.542 0 6.414 2.872 6.414 6.414v1.264c-.012 3.537-2.878 6.4-6.414 6.407" transform="translate(-138 -337) translate(138 337)"/>
                <path fill="#FFF" d="M69.409 30.254c0 11.68-8.262 21.165-18.47 21.165-10.207 0-18.475-9.485-18.475-21.165s8.275-21.13 18.476-21.13c10.2 0 18.469 9.456 18.469 21.13" transform="translate(-138 -337) translate(138 337)"/>
                <path fill="#C9C9C9" d="M32.86 23.708c2.432.695 14.675.118 25.34-7.386 7.762 4.58 9.826 5.218 9.826 5.218.24 2.6 1.34 5.046 3.127 6.949l1.355 2.501c3.745-10.277-.291-21.77-9.64-27.448C53.517-2.137 41.46-.42 34.064 7.64c-7.394 8.061-8.064 20.223-1.601 29.048-.8-4.305-.664-8.731.396-12.98" transform="translate(-138 -337) translate(138 337)"/>
                <path fill="#FFF" d="M33.654 32.338c.002-1.513.146-3.023.43-4.51-1.863-.842-4.052-.466-5.527.951-1.475 1.417-1.939 3.589-1.172 5.485.768 1.896 2.612 3.134 4.657 3.126.719.005 1.43-.147 2.084-.445-.293-1.518-.442-3.06-.444-4.607M69.962 27.391c-.745.001-1.482.17-2.154.493.564 2.985.564 6.049 0 9.034 1.85.89 4.057.556 5.562-.84 1.506-1.396 2.004-3.571 1.256-5.483-.748-1.912-2.59-3.172-4.643-3.176" transform="translate(-138 -337) translate(138 337)"/>
                <path fill="#EC2A2A" d="M13.848 36.542l-9.45 15.572c-.451.75-.463 1.685-.031 2.447.432.762 1.24 1.231 2.116 1.229h18.886c.876.002 1.685-.467 2.116-1.229.432-.762.42-1.697-.031-2.447l-9.457-15.572c-.435-.739-1.228-1.192-2.085-1.192s-1.65.453-2.084 1.192" transform="translate(-138 -337) translate(138 337)"/>
                <path fill="#FFF" d="M14.884 44.86c-.07-1.48-.104-2.53-.104-3.141 0-.612.57-.938 1.195-.938.263-.03.526.052.726.225.2.173.32.42.33.685 0 .612 0 1.66-.049 3.14-.048 1.48-.041 2.53-.041 3.135 0 .465-.556.695-.966.695-.653 0-.987-.23-.987-.695 0-.605 0-1.647-.104-3.134M17.107 50.905c.013.31-.098.613-.31.84-.211.227-.505.36-.815.369-.673.02-1.235-.509-1.258-1.181-.002-.33.131-.647.369-.875.238-.229.56-.35.889-.334.632.022 1.13.548 1.118 1.18" transform="translate(-138 -337) translate(138 337)"/>
            </g>
        </g>
    </g>
</svg>
