<svg xmlns="http://www.w3.org/2000/svg" width="128" height="133" viewBox="0 0 128 133">
    <g fill="none" fill-rule="evenodd">
        <g>
            <g>
                <g transform="translate(-124 -436) translate(10 385) translate(114 51)">
                    <path fill="#F9F9F9" fill-rule="nonzero" d="M2.463 61.359C0 69.898 1.977 76.152 6.627 83.799c3.24 5.364 8.28 10.03 9.3 16.203.68 4.115-.502 8.36.26 12.444 1.344 7.307 8.392 12.087 15.246 14.938 10.694 4.488 23.656 6.028 33.377-.405 5.315-3.548 9.236-9.284 15.23-11.487 7.988-2.917 16.98 1.344 25.341-.308 6.79-1.345 12.33-6.481 15.75-12.557 5.508-9.722 6.27-21.323 5.88-32.405-.323-9.495-1.409-19.103-4.86-27.982-3.451-8.879-9.284-17.094-17.531-21.809-5.136-2.965-10.986-4.472-16.203-7.258-3.953-2.107-7.502-4.861-11.342-7.13-14.52-7.93-32.077-7.93-46.598 0-14.274 7.81-23.121 17.337-25.47 33.394-.713 4.828-.146 16.462-2.544 21.922z"/>
                    <ellipse cx="59.949" cy="116.561" fill="#E2E2E2" fill-rule="nonzero" rx="36.764" ry="4.942"/>
                    <circle cx="80.397" cy="83.281" r="12.962" fill="red" fill-rule="nonzero"/>
                    <path stroke="#FFF" stroke-linecap="round" stroke-linejoin="round" stroke-width="1.41" d="M74.451 89.308L86.343 77.237M86.343 89.308L74.451 77.237"/>
                    <path stroke="#B2B2B2" stroke-dasharray="1.4" stroke-width=".44" d="M48.915 10.467s-3.24 14.355-10.499 18c-7.259 3.646-14.485-5.557-6.934-8.262 7.55-2.706 8.716 11.05-2.917 15.619-11.633 4.569-15.797 4.86-15.797 4.86"/>
                    <path fill="#DBDBDB" fill-rule="nonzero" d="M34.139 37.525v16.672h16.688V37.525H34.14zm11.925 11.909h-7.178v-7.145h7.162l.016 7.145zM34.139 78.031v16.673h16.688V78.03H34.14zm11.925 11.91h-7.178v-7.146h7.162l.016 7.145zM74.645 37.525v16.672h16.689V37.525H74.645zM86.57 49.434h-7.178v-7.145h7.146l.032 7.145zM55.591 37.525L55.591 42.289 65.118 42.289 65.118 54.197 69.882 54.197 69.882 37.525zM60.354 89.94L60.354 78.031 55.591 78.031 55.591 94.704 65.118 94.704 65.118 89.94zM86.57 58.961H91.33399999999999V68.488H86.57zM81.807 58.961L65.118 58.961 65.118 68.504 69.882 68.504 69.882 63.741 81.807 63.741zM43.666 68.504H60.355V73.268H43.666z"/>
                    <path fill="#DBDBDB" fill-rule="nonzero" d="M55.591 47.052L55.591 58.961 34.139 58.961 34.139 73.268 38.902 73.268 38.902 63.741 60.354 63.741 60.354 47.052z"/>
                    <path fill="#FFF" fill-rule="nonzero" d="M9.365 120.239c-1.314-.005-2.444-.932-2.706-2.22-.007-.124-.007-.248 0-.372-.033-.462 0-.926.097-1.378.088-.405.213-.8.373-1.182.291-.71.696-1.366 1.2-1.945l.906-1.183c.584-.745 1.15-1.49 1.734-2.22 1.782-2.246 3.592-4.487 5.428-6.723 1.944-2.35 3.775-4.505 5.59-6.595s3.678-4.164 5.849-6.48c.41-.411.967-.642 1.547-.642s1.137.23 1.548.641c.736.708.884 1.832.356 2.706-1.62 2.69-3.386 5.298-4.715 7.275-1.523 2.252-3.143 4.57-4.958 7.097-1.815 2.527-3.386 4.65-5.12 6.95-.567.762-1.15 1.507-1.717 2.253l-.908 1.183c-.455.618-1.001 1.165-1.62 1.62-.327.244-.674.46-1.037.648-.421.211-.868.369-1.328.47-.17.047-.344.08-.519.097z"/>
                    <path fill="#B2B2B2" fill-rule="nonzero" d="M29.375 89.762c.461-.005.905.176 1.232.502.599.577.72 1.491.291 2.204-1.507 2.463-3.094 4.86-4.699 7.259-1.604 2.398-3.24 4.747-4.941 7.08-1.702 2.333-3.435 4.65-5.055 6.951-.86 1.15-1.734 2.285-2.61 3.419-.415.61-.917 1.155-1.49 1.62-.315.228-.645.433-.988.616-.388.186-.795.328-1.215.42-.151.018-.303.018-.454 0-1.12-.001-2.084-.795-2.3-1.895-.009-.102-.009-.205 0-.308-.029-.429.004-.86.097-1.28.076-.377.19-.746.34-1.101.284-.669.667-1.291 1.134-1.847.891-1.135 1.766-2.285 2.657-3.403 1.782-2.268 3.597-4.488 5.412-6.724 1.815-2.236 3.694-4.407 5.59-6.578 1.895-2.171 3.823-4.31 5.833-6.384.333-.351.795-.55 1.28-.551m0-.826c-.703.003-1.375.289-1.864.794-2.187 2.268-4.293 4.634-5.865 6.48-1.928 2.026-3.775 4.246-5.72 6.546-2.154 2.625-3.872 4.764-5.427 6.74-.584.714-1.15 1.459-1.718 2.188l-.94 1.199c-.512.623-.932 1.316-1.247 2.058-.356.868-.527 1.8-.502 2.738-.008.135-.008.27 0 .405.314 1.467 1.594 2.526 3.094 2.56.205.017.411.017.616 0 .92-.21 1.782-.62 2.528-1.199.629-.487 1.176-1.073 1.62-1.734l.923-1.199c.567-.729 1.135-1.474 1.62-2.22 1.524-2.008 3.144-4.212 5.137-6.95 1.782-2.48 3.402-4.861 4.958-7.097 1.345-1.993 3.078-4.618 4.715-7.307.654-1.039.485-2.395-.405-3.24-.486-.474-1.137-.742-1.815-.746l.292-.016z"/>
                    <path fill="#FFF" fill-rule="nonzero" d="M39.016 97.215c-7.928.022-14.95-5.115-17.329-12.678-2.379-7.562.436-15.794 6.948-20.315 6.513-4.522 15.209-4.284 21.463.588 6.076 4.758 8.474 12.84 5.977 20.142s-9.342 12.222-17.06 12.263zm0-31.676c-6.635.001-12.295 4.802-13.378 11.347-1.083 6.546 2.728 12.914 9.008 15.052 6.28 2.139 13.186-.58 16.322-6.427 3.136-5.846 1.582-13.103-3.673-17.153-2.357-1.853-5.265-2.868-8.263-2.884l-.016.065z"/>
                    <path fill="#B2B2B2" fill-rule="nonzero" d="M39.032 61.327c8.235.006 15.379 5.689 17.238 13.711 1.859 8.023-2.057 16.268-9.45 19.896-7.393 3.628-16.311 1.681-21.52-4.697-5.208-6.379-5.332-15.506-.3-22.024 3.354-4.351 8.539-6.896 14.032-6.886m0 31.676c6.833-.001 12.662-4.946 13.777-11.688 1.116-6.741-2.81-13.3-9.28-15.501-6.468-2.201-13.58.6-16.808 6.623-3.229 6.023-1.626 13.497 3.788 17.665 2.441 1.884 5.44 2.905 8.523 2.9m0-32.502c-9.065.012-16.792 6.58-18.265 15.524-1.473 8.945 3.74 17.643 12.323 20.561 8.582 2.918 18.017-.8 22.301-8.789 4.285-7.989 2.162-17.904-5.017-23.44-3.245-2.514-7.237-3.871-11.342-3.856zm0 31.676c-2.905.012-5.73-.952-8.02-2.738-5.098-3.931-6.602-10.974-3.556-16.644 3.047-5.671 9.749-8.305 15.841-6.225 6.092 2.08 9.784 8.262 8.727 14.612-1.058 6.35-6.555 11.002-12.992 10.995z"/>
                    <circle cx="39.032" cy="79.036" r="13.967" fill="#FFF" fill-rule="nonzero" opacity=".57"/>
                    <g fill="#FFF" fill-rule="nonzero" stroke="#B2B2B2" stroke-linecap="round" stroke-linejoin="round" stroke-width=".32" opacity=".7">
                        <path d="M14.031.826L27.188.826M.032 5.914L29.31 5.914" transform="translate(82.633 95.595)"/>
                    </g>
                </g>
            </g>
        </g>
    </g>
</svg>
