<svg xmlns="http://www.w3.org/2000/svg" width="80" height="59" viewBox="0 0 80 59">
    <g fill="none" fill-rule="evenodd">
        <g>
            <g>
                <g transform="translate(-711 -97) translate(711 97)">
                    <g>
                        <path fill="#D5DDE0" d="M71.462 16.113c5.236 6.908 8.004 15.154 8.004 23.845 0 5.938-1.285 11.647-3.82 16.97-.262.55-.81.87-1.38.87-.221 0-.445-.047-.657-.148-.762-.363-1.085-1.275-.722-2.037 2.337-4.908 3.523-10.175 3.523-15.655 0-8.02-2.553-15.626-7.384-21.998-.51-.673-.377-1.631.295-2.141.673-.51 1.631-.378 2.141.294zM33.326 2.523c.18.825-.343 1.639-1.168 1.819-7.997 1.743-15.267 6.218-20.47 12.602C6.41 23.417 3.506 31.59 3.506 39.958 3.506 45.414 4.68 50.66 7 55.552c.361.763.036 1.674-.727 2.035-.211.1-.434.148-.653.148-.572 0-1.12-.323-1.382-.874C1.724 51.558.449 45.87.449 39.958c0-9.07 3.15-17.928 8.87-24.945C14.957 8.095 22.837 3.245 31.507 1.356c.825-.18 1.639.343 1.819 1.167zM39.958.45c10.788 0 20.864 4.268 28.374 12.016.587.606.572 1.574-.034 2.161-.297.288-.68.43-1.064.43-.399 0-.797-.154-1.097-.464-6.929-7.15-16.226-11.086-26.18-11.086-1.14 0-2.292.053-3.421.158-.842.079-1.585-.54-1.663-1.38-.079-.84.54-1.585 1.38-1.663C37.476.507 38.723.45 39.958.45z"/>
                        <path fill="#FD0" d="M67.235 15.507c-.517 0-1.033-.202-1.42-.602-6.844-7.061-16.027-10.95-25.857-10.95-1.128 0-2.265.053-3.38.157-1.09.1-2.052-.699-2.153-1.786-.101-1.088.698-2.051 1.786-2.153C37.448.058 38.709 0 39.958 0c10.91 0 21.102 4.316 28.696 12.153.76.784.74 2.036-.043 2.796-.384.372-.88.558-1.376.558"/>
                        <path fill="#FF5918" d="M5.578 58.094c-.742 0-1.454-.42-1.79-1.135C1.273 51.62 0 45.9 0 39.958c0-9.173 3.186-18.132 8.97-25.23C14.673 7.734 22.642 2.829 31.412.918c1.066-.234 2.12.443 2.353 1.51.232 1.068-.444 2.121-1.511 2.354-7.899 1.721-15.079 6.142-20.218 12.447-5.211 6.393-8.081 14.465-8.081 22.73 0 5.356 1.148 10.51 3.41 15.316.466.988.042 2.166-.946 2.631-.273.129-.56.19-.841.19"/>
                    </g>
                    <circle cx="65.221" cy="10.674" r="5.747" fill="#15D535"/>
                    <circle cx="65.221" cy="10.674" r="3.284" fill="#FFF"/>
                </g>
                <text fill="#000" font-family="Sarabun-Bold, Sarabun" font-size="11" font-weight="bold" transform="translate(-711 -97) translate(711 97)">
                    <tspan x="12.092" y="35">TÀI KHOẢN </tspan> <tspan x="22.273" y="50">CHUẨN</tspan>
                </text>
            </g>
        </g>
    </g>
</svg>
