<svg xmlns="http://www.w3.org/2000/svg" width="16" height="16" viewBox="0 0 16 16">
    <g fill="none" fill-rule="evenodd">
        <g>
            <g transform="translate(-846 -2296) translate(846 2296)">
                <rect width="16" height="16" stroke="#183953" stroke-width=".5" rx="3"/>
                <g fill="#0CAA26">
                    <path d="M4.595 9.15c-.115.115-.27.18-.433.18-.162 0-.319-.065-.433-.18L.269 5.69c-.359-.359-.359-.941 0-1.3l.433-.433c.36-.359.941-.359 1.3 0l2.16 2.16L9.998.281c.359-.36.941-.36 1.3 0l.433.433c.359.36.359.941 0 1.3L4.595 9.15z" transform="translate(2 3)"/>
                </g>
            </g>
        </g>
    </g>
</svg>
