<svg xmlns="http://www.w3.org/2000/svg" xmlns:xlink="http://www.w3.org/1999/xlink" width="79" height="12" viewBox="0 0 79 12">
    <defs>
        <path id="czpx5gvlva" d="M0.226 0.305L5.467 0.305 5.467 9 0.226 9z"/>
        <path id="29kdo6b1ec" d="M0.415 0.298L7.99 0.298 7.99 8.697 0.415 8.697z"/>
    </defs>
    <g fill="none" fill-rule="evenodd">
        <g>
            <g>
                <g>
                    <path fill="#191248" d="M0 8.428V1.234C0 .86.302.559.675.559h2.962C5.172.56 6.429 1.797 6.463 3.33 6.498 4.912 5.182 6.2 3.596 6.2h-1.18c-.132 0-.24-.106-.24-.238v-.687c0-.373.303-.675.675-.675h.784c.727 0 1.322-.619 1.247-1.34-.067-.633-.603-1.126-1.251-1.126H1.575v5.833c0 .372-.302.675-.675.675H.213C.096 8.642 0 8.546 0 8.428M9.922 4.41c-.778.005-1.411.642-1.411 1.42 0 .778.633 1.418 1.413 1.426h.012c.675 0 1.258-.48 1.392-1.142v-.566c-.133-.66-.717-1.138-1.392-1.138h-.014zm0 4.39C8.26 8.79 6.967 7.458 6.967 5.83c0-1.626 1.325-2.958 2.954-2.968h.015c.558 0 1.116.274 1.392.467v-.218c0-.059.048-.106.107-.106h1.254c.117 0 .212.095.212.212V8.43c0 .117-.095.211-.212.211h-1.254c-.059 0-.107-.047-.107-.106v-.204c-.35.213-.747.471-1.406.468z" transform="translate(-205 -109) translate(189 97) translate(16 12)"/>
                    <g transform="translate(-205 -109) translate(189 97) translate(16 12) translate(13.714 2.702)">
                        <mask id="gbw9wwil8b" fill="#fff">
                            <use xlink:href="#czpx5gvlva"/>
                        </mask>
                        <path fill="#191248" d="M2.617 9C1.742 9 .924 8.6.385 7.92c-.077-.096-.048-.24.057-.306l.603-.369c.318-.195.72-.224 1.051-.052.143.074.319.128.52.128.878 0 1.171-.563 1.171-1.402-.3.115-.615.174-.94.174-.44 0-.875-.111-1.26-.322-.1-.055-.198-.118-.292-.187-.449-.33-.787-.805-.952-1.334C.266 4 .226 3.738.226 3.473v-2.5c0-.369.3-.668.668-.668h.682c.115 0 .21.094.21.21v2.926c0 .435.25.843.651 1.01.13.055.269.082.41.082.062 0 .126-.006.19-.017.476-.086.833-.483.867-.966.002-.025.003-.051.003-.077v-2.5c0-.369.3-.668.669-.668h.68c.117 0 .21.094.21.21v5.783C5.467 7.87 4.19 9 2.617 9" mask="url(#gbw9wwil8b)"/>
                    </g>
                    <path fill="#00B300" d="M31.299 7.066h4.35c.118 0 .213.095.213.213v.695c0 .369-.299.668-.667.668h-5.277c-.117 0-.213-.096-.213-.213V1.226c0-.368.3-.667.668-.667h5.276c.118 0 .213.095.213.212v1.15c0 .117-.095.213-.213.213H31.3v4.932z" transform="translate(-205 -109) translate(189 97) translate(16 12)"/>
                    <path fill="#00B300" d="M32.398 3.803h2.81c.117 0 .212.096.212.213v.696c0 .369-.299.667-.667.667h-2.78c-.118 0-.213-.095-.213-.213v-.725c0-.352.286-.638.638-.638M27.132.56c-.07 0-.135.033-.174.09l-2.042 2.947c-.103.146-.32.145-.42-.003L22.525.654c-.04-.06-.106-.095-.176-.095h-1.352c-.133 0-.241.108-.241.24V8.4c0 .133.108.242.241.242h.68c.35 0 .635-.285.635-.636V3.267l1.958 2.72c.21.302.657.302.868 0l1.958-2.72V8.4c0 .133.107.242.24.242h.68c.351 0 .636-.285.636-.636V.8c0-.133-.108-.24-.241-.24h-1.28z" transform="translate(-205 -109) translate(189 97) translate(16 12)"/>
                    <g transform="translate(-205 -109) translate(189 97) translate(16 12) translate(38.571 .13)">
                        <mask id="ayhhgouaxd" fill="#fff">
                            <use xlink:href="#29kdo6b1ec"/>
                        </mask>
                        <path fill="#191248" d="M.415 4.498c0-.6.106-1.158.317-1.673.212-.516.504-.96.878-1.333.372-.373.817-.665 1.332-.877C3.457.404 4.015.298 4.615.298c.692 0 1.33.15 1.916.45.584.3 1.057.712 1.419 1.234.038.062.05.126.034.19-.016.066-.054.118-.115.156l-.658.381c-.108.062-.212.092-.312.092-.184 0-.346-.069-.484-.207-.215-.239-.477-.421-.785-.548-.308-.127-.646-.19-1.015-.19-.4 0-.762.063-1.084.19-.324.127-.599.305-.825.536-.228.231-.402.51-.525.837-.123.327-.185.686-.185 1.079 0 .392.062.75.185 1.073.123.323.3.602.53.836.231.235.508.415.831.542.323.127.68.19 1.073.19.362 0 .698-.063 1.01-.19.311-.127.575-.305.79-.536.13-.146.292-.22.484-.22.108 0 .212.031.312.093l.658.38c.061.04.1.091.115.156.015.066.004.13-.034.191-.362.523-.833.934-1.414 1.235-.58.3-1.221.45-1.921.45-.6 0-1.158-.106-1.673-.318-.515-.212-.96-.504-1.332-.877-.374-.373-.666-.817-.878-1.332-.21-.516-.317-1.073-.317-1.673" mask="url(#ayhhgouaxd)"/>
                    </g>
                    <path fill="#191248" d="M53.708 8.124c.1.17.131.298.093.387-.04.088-.1.133-.185.133h-.923c-.27 0-.47-.116-.6-.347L50.72 5.932h-.807c-.07 0-.127-.023-.174-.069-.046-.046-.07-.104-.07-.173v-.635c0-.192.068-.356.203-.49.134-.135.294-.202.479-.202h.634c.285 0 .527-.11.727-.329.2-.22.3-.482.3-.79 0-.308-.1-.57-.3-.785-.2-.215-.442-.323-.727-.323H49.07v5.827c0 .184-.067.344-.202.478-.134.135-.294.203-.479.203h-.67c-.068 0-.126-.024-.172-.07-.046-.046-.07-.104-.07-.173V1.248c0-.185.069-.344.203-.479.135-.135.294-.202.479-.202h2.93c.746 0 1.38.262 1.904.784.523.524.785 1.155.785 1.893 0 .254-.035.504-.104.75-.07.246-.167.478-.294.698-.127.219-.285.415-.474.588-.188.173-.398.313-.628.421l1.43 2.423zM57.481 3.81h2.724c.069 0 .126.022.173.069.046.045.069.103.069.172v.635c0 .192-.068.356-.202.49-.135.135-.294.203-.479.203H57.02c-.061 0-.114-.022-.156-.064-.042-.042-.063-.094-.063-.156v-.67c0-.191.067-.353.202-.484.134-.13.294-.196.478-.196zM56.328 7.05h4.315c.069 0 .127.023.173.07.046.046.07.1.07.161v.658c0 .184-.066.344-.197.478-.13.135-.292.202-.484.202h-5.227c-.07 0-.127-.023-.173-.069-.047-.046-.07-.104-.07-.173V1.225c0-.185.068-.344.202-.479.135-.135.294-.202.48-.202h5.226c.069 0 .127.023.173.07.046.045.07.103.07.172v.646c0 .193-.066.354-.197.485-.13.13-.292.196-.484.196h-3.877V7.05zM67.992 1.72c.746.77 1.12 1.728 1.12 2.874 0 1.146-.374 2.104-1.12 2.873-.738.777-1.661 1.165-2.769 1.165h-.784c-.062 0-.117-.023-.168-.07-.05-.045-.075-.103-.075-.172v-.647c0-.192.068-.353.202-.484.135-.13.294-.196.479-.196h.323c.685 0 1.246-.223 1.685-.67.43-.476.646-1.076.646-1.8 0-.722-.216-1.318-.646-1.788-.43-.453-.993-.68-1.685-.68h-1.604l-.011 5.826c0 .192-.066.354-.196.485-.131.13-.293.196-.485.196h-.646c-.07 0-.127-.023-.173-.07-.046-.045-.07-.103-.07-.172V1.202c0-.177.064-.33.191-.456.127-.127.279-.19.456-.19h2.561c1.108 0 2.03.388 2.77 1.165M70.634.567h.67c.07 0 .127.023.173.069.046.046.069.104.069.173v7.154c0 .184-.067.344-.202.479-.135.134-.294.201-.479.201h-.67c-.068 0-.126-.023-.172-.069-.046-.046-.07-.104-.07-.173V1.248c0-.185.068-.344.203-.48.134-.134.294-.201.478-.201M78.365.81v.645c0 .193-.068.356-.202.49-.135.135-.294.203-.479.203h-1.5v5.815c0 .184-.067.344-.202.479-.135.134-.294.201-.479.201h-.669c-.069 0-.127-.023-.173-.069-.046-.046-.07-.104-.07-.173V2.148h-1.926c-.069 0-.127-.025-.173-.075-.046-.05-.07-.106-.07-.168v-.657c0-.185.068-.344.203-.48.134-.134.294-.201.478-.201h5.02c.069 0 .126.023.172.069.046.046.07.104.07.173" transform="translate(-205 -109) translate(189 97) translate(16 12)"/>
                </g>
            </g>
        </g>
    </g>
</svg>
