<svg xmlns="http://www.w3.org/2000/svg" width="74" height="18" viewBox="0 0 74 18">
    <defs>
        <linearGradient id="jm5xe470qa" x1="76.225%" x2="9.333%" y1="76.09%" y2="9.333%">
            <stop offset="0%" stop-color="#00852B"/>
            <stop offset="100%" stop-color="#12CC24"/>
        </linearGradient>
        <linearGradient id="8o28byrd7b" x1="19.233%" x2="93.982%" y1="19.691%" y2="93.433%">
            <stop offset="0%" stop-color="#00852B"/>
            <stop offset="100%" stop-color="#12CC24"/>
        </linearGradient>
        <linearGradient id="inkx2c7ncc" x1="19.052%" x2="86.945%" y1="73.572%" y2="17.283%">
            <stop offset="0%" stop-color="#12CC24"/>
            <stop offset="100%" stop-color="#00852B"/>
        </linearGradient>
        <linearGradient id="5fm61g8mnd" x1="92.143%" x2="21.724%" y1="7.857%" y2="78.276%">
            <stop offset="0%" stop-color="#12CC24"/>
            <stop offset="100%" stop-color="#00852B"/>
        </linearGradient>
        <linearGradient id="ju1u6od38e" x1="82.928%" x2="28.65%" y1="88.071%" y2="21.217%">
            <stop offset="0%" stop-color="#00852B"/>
            <stop offset="100%" stop-color="#12CC24"/>
        </linearGradient>
        <linearGradient id="ka11r14unf" x1="76.318%" x2="9.404%" y1="23.669%" y2="90.627%">
            <stop offset="0%" stop-color="#00852B"/>
            <stop offset="100%" stop-color="#12CC24"/>
        </linearGradient>
        <linearGradient id="eoj6v33btg" x1="16.539%" x2="71.71%" y1="11.26%" y2="79.251%">
            <stop offset="0%" stop-color="#00852B"/>
            <stop offset="100%" stop-color="#12CC24"/>
        </linearGradient>
        <linearGradient id="t6bpj77yeh" x1="11.018%" x2="79.694%" y1="83.685%" y2="27.92%">
            <stop offset="0%" stop-color="#00852B"/>
            <stop offset="100%" stop-color="#12CC24"/>
        </linearGradient>
        <linearGradient id="inixezfaai" x1="50.011%" x2="50.011%" y1="99.649%" y2="-2.446%">
            <stop offset="0%" stop-color="#00852B"/>
            <stop offset="100%" stop-color="#12CC24"/>
        </linearGradient>
        <linearGradient id="th1j9ymfwj" x1="50%" x2="50%" y1="305.317%" y2="-218.525%">
            <stop offset="0%" stop-color="#00852B"/>
            <stop offset="100%" stop-color="#12CC24"/>
        </linearGradient>
        <linearGradient id="m0os1w43zk" x1="50%" x2="50%" y1="99.639%" y2="-2.076%">
            <stop offset="0%" stop-color="#00852B"/>
            <stop offset="100%" stop-color="#12CC24"/>
        </linearGradient>
    </defs>
    <g fill="none" fill-rule="evenodd">
        <g fill-rule="nonzero">
            <g>
                <g>
                    <path fill="url(#jm5xe470qa)" d="M9.698 4.547L5.598.45c-.578-.577-1.534-.588-2.101 0-.55.572-.541 1.479.02 2.04l4.12 4.115c.274.273.644.427 1.03.427.387 0 .758-.154 1.03-.427.568-.569.568-1.49 0-2.058z" transform="translate(-213 -347) translate(15 336) translate(198 11)"/>
                    <path fill="url(#8o28byrd7b)" d="M13.82 14.848l-4.12-4.12c-.568-.57-1.49-.57-2.06 0-.568.569-.568 1.491 0 2.06l4.121 4.12c.57.56 1.485.555 2.05-.01.565-.565.57-1.48.01-2.05z" transform="translate(-213 -347) translate(15 336) translate(198 11)"/>
                    <path fill="url(#inkx2c7ncc)" d="M13.82.428c-.272-.273-.643-.427-1.03-.427-.385 0-.756.154-1.029.427L7.638 4.547c-.274.273-.644.427-1.03.427-.387 0-.758-.154-1.03-.427l1.027 1.03 1.04 1.04c.27.271.638.424 1.022.424s.752-.153 1.023-.424l4.13-4.13c.569-.569.569-1.49 0-2.059z" transform="translate(-213 -347) translate(15 336) translate(198 11)"/>
                    <path fill="url(#5fm61g8mnd)" d="M14.848 3.517l-4.12 4.12c-.368.369-.512.905-.377 1.408.134.502.527.895 1.03 1.03.502.135 1.039-.01 1.407-.377l4.12-4.12c.368-.369.512-.905.377-1.408-.134-.503-.527-.895-1.03-1.03-.502-.135-1.039.009-1.407.377z" transform="translate(-213 -347) translate(15 336) translate(198 11)"/>
                    <path fill="url(#ju1u6od38e)" d="M12.788 7.638l4.12 4.12c.369.368.513.905.379 1.408-.135.503-.528.896-1.03 1.031-.504.135-1.04-.008-1.409-.376L10.72 9.693c-.564-.565-.564-1.48 0-2.045l1.04-1.04 1.028-1.03c-.569.568-.569 1.49 0 2.06z" transform="translate(-213 -347) translate(15 336) translate(198 11)"/>
                    <path fill="url(#ka11r14unf)" d="M2.487 13.82l4.118-4.122c.56-.57.555-1.485-.01-2.05-.565-.565-1.48-.57-2.05-.01l-4.117 4.12c-.57.569-.57 1.491-.002 2.06.569.57 1.492.571 2.061.003z" transform="translate(-213 -347) translate(15 336) translate(198 11)"/>
                    <path fill="url(#eoj6v33btg)" d="M4.547 9.698L.428 5.578c-.55-.573-.541-1.48.02-2.04.56-.561 1.467-.57 2.04-.021l4.126 4.127c.272.271.424.64.424 1.023 0 .384-.152.752-.424 1.023l-1.04 1.04-1.027 1.028c.273-.273.427-.644.427-1.03 0-.387-.154-.757-.427-1.03z" transform="translate(-213 -347) translate(15 336) translate(198 11)"/>
                    <path fill="url(#t6bpj77yeh)" d="M11.758 12.788l-1.03-1.03-1.04-1.04c-.565-.564-1.48-.564-2.046 0l-4.127 4.128c-.57.57-.57 1.493 0 2.063.57.57 1.493.569 2.062 0l4.12-4.121c.57-.569 1.492-.569 2.061 0z" transform="translate(-213 -347) translate(15 336) translate(198 11)"/>
                    <path fill="#110649" d="M21.667 13.859v-9.77c0-.506.411-.917.918-.917h4.021c2.087.007 3.788 1.674 3.838 3.76.048 2.152-1.74 3.9-3.892 3.9h-1.605c-.086 0-.169-.034-.23-.095-.06-.06-.095-.143-.095-.229v-.931c0-.507.411-.918.918-.918h1.062c.986 0 1.795-.84 1.692-1.82-.094-.869-.826-1.528-1.699-1.53h-2.789v7.923c0 .506-.41.917-.917.917h-.935c-.159-.001-.287-.131-.287-.29zM35.539 14.363c-2.207-.027-3.982-1.824-3.982-4.031 0-2.208 1.775-4.005 3.982-4.032h.021c.758 0 1.515.373 1.89.634V6.64c0-.038.016-.075.043-.102.027-.027.064-.043.102-.042h1.703c.159 0 .287.128.287.287v7.08c0 .158-.128.287-.287.287h-1.704c-.08 0-.145-.064-.145-.144v-.277c-.476.29-1.015.64-1.91.635zm0-5.961c-1.054.019-1.899.878-1.899 1.933 0 1.054.845 1.914 1.899 1.932h.018c.919-.003 1.709-.651 1.89-1.552v-.767c-.183-.899-.973-1.544-1.89-1.546h-.018zM44.987 17.73c-1.181-.001-2.297-.542-3.03-1.469-.05-.064-.07-.146-.054-.225.014-.08.062-.15.132-.191l.817-.502c.431-.27.972-.298 1.428-.071.218.116.46.176.707.175.856-.008 1.558-.48 1.59-1.33-.977.375-2.069.301-2.987-.2-.137-.077-.27-.161-.397-.254-.612-.452-1.064-1.086-1.292-1.812-.106-.342-.16-.698-.16-1.056V7.401c0-.24.096-.471.267-.641.17-.17.4-.266.641-.265h.926c.157 0 .285.127.285.285v3.975c0 .59.339 1.144.885 1.372.427.179.914.14 1.309-.101.395-.243.649-.66.683-1.122 0-.035.004-.07.004-.105V7.405c0-.5.406-.907.907-.907h.925c.076 0 .149.03.202.083.054.054.084.126.084.202V14.06c-.002 2.135-1.738 3.67-3.872 3.67z" transform="translate(-213 -347) translate(15 336) translate(198 11)"/>
                    <path fill="url(#inixezfaai)" d="M67.189 12.009h5.907c.16 0 .289.129.289.288v.945c0 .5-.406.907-.907.907h-7.166c-.16 0-.289-.13-.289-.29V4.08c0-.5.406-.906.906-.906h7.166c.16 0 .288.13.288.289v1.56c0 .077-.03.15-.084.205-.054.054-.128.084-.204.084h-5.908l.002 6.698z" transform="translate(-213 -347) translate(15 336) translate(198 11)"/>
                    <path fill="url(#th1j9ymfwj)" d="M68.873 7.579h3.814c.077 0 .15.03.204.084.055.054.085.128.085.204v.946c0 .24-.096.47-.266.64-.17.17-.4.265-.64.265h-3.775c-.077 0-.15-.03-.205-.084-.054-.055-.084-.128-.084-.205v-.984c0-.23.091-.45.254-.613.162-.162.383-.253.613-.253z" transform="translate(-213 -347) translate(15 336) translate(198 11)"/>
                    <path fill="url(#m0os1w43zk)" d="M60.787 3.133c-.094 0-.183.045-.237.122l-2.783 4.017c-.066.093-.173.149-.287.148-.114-.001-.221-.058-.285-.152L54.507 3.26c-.054-.08-.143-.127-.24-.127h-1.842c-.182 0-.33.147-.33.329V13.82c0 .181.148.329.33.329h.926c.23 0 .45-.092.613-.254.162-.163.253-.383.253-.613V6.825l2.668 3.708c.135.192.356.307.592.307.235 0 .456-.115.592-.307l2.667-3.709v6.997c0 .181.147.329.33.329h.925c.479 0 .867-.388.867-.867V3.461c0-.087-.035-.17-.096-.232-.062-.062-.146-.096-.233-.096h-1.742z" transform="translate(-213 -347) translate(15 336) translate(198 11)"/>
                </g>
            </g>
        </g>
    </g>
</svg>
