<svg xmlns="http://www.w3.org/2000/svg" width="7" height="12" viewBox="0 0 7 12">
    <g fill="none" fill-rule="evenodd">
        <g fill="#181A41">
            <g>
                <g>
                    <path d="M323.136 25.863c-.182-.182-.181-.476 0-.657l5.22-5.206-5.22-5.206c-.181-.18-.181-.476 0-.657.181-.182.476-.183.658-.001l5.55 5.535c.088.087.137.205.137.329 0 .124-.05.242-.137.33l-5.55 5.534c-.091.09-.21.136-.329.136-.119 0-.238-.046-.33-.137z" transform="translate(-338 -735) translate(15 571) translate(0 150)"/>
                </g>
            </g>
        </g>
    </g>
</svg>
