<svg xmlns="http://www.w3.org/2000/svg" width="9" height="14" viewBox="0 0 9 14">
    <g fill="none" fill-rule="evenodd">
        <g fill="#8193A1" fill-rule="nonzero">
            <g>
                <g>
                    <path d="M8.002 6.454L1.772.224C1.626.079 1.434 0 1.23 0 1.025 0 .832.08.688.224L.23.682c-.298.3-.298.785 0 1.083l5.232 5.232-5.237 5.238c-.144.144-.224.336-.224.541 0 .205.08.398.224.542l.458.458c.145.145.337.224.542.224.205 0 .397-.08.542-.224l6.236-6.235c.144-.145.223-.338.223-.544 0-.206-.079-.399-.223-.543z" transform="translate(-333 -176) translate(15 89) translate(318 87)"/>
                </g>
            </g>
        </g>
    </g>
</svg>
