<svg xmlns="http://www.w3.org/2000/svg" width="15" height="15" viewBox="0 0 15 15">
    <g fill="none" fill-rule="evenodd">
        <g fill="#2DBB54" fill-rule="nonzero">
            <g>
                <g>
                    <g>
                        <g>
                            <path d="M13.957 6.128H8.851V1.02C8.851.458 8.393 0 7.83 0h-.681c-.564 0-1.021.458-1.021 1.021v5.107H1.02C.458 6.128 0 6.585 0 7.148v.682C0 8.393.458 8.85 1.021 8.85h5.107v5.106c0 .564.457 1.022 1.02 1.022h.682c.563 0 1.021-.458 1.021-1.022V8.851h5.106c.564 0 1.022-.458 1.022-1.021v-.681c0-.564-.458-1.021-1.022-1.021z" transform="translate(-151 -582) translate(15 520) translate(17 51) translate(119 9) translate(0 2)"/>
                        </g>
                    </g>
                </g>
            </g>
        </g>
    </g>
</svg>
