<svg xmlns="http://www.w3.org/2000/svg" width="25" height="24" viewBox="0 0 25 24">
    <g fill="none" fill-rule="evenodd">
        <g fill="#0CAA26">
            <g>
                <g>
                    <g>
                        <path d="M17.419 9.924l1.483 1.483 3.888-3.89c.496-.497.69-1.22.508-1.897-.181-.678-.71-1.207-1.388-1.388-.678-.182-1.4.012-1.897.508l-2.802 2.802c-.244.244-.603 1.49.208 2.382z" transform="translate(-39 -122) translate(15 104) translate(16 9) translate(8.5 9)"/>
                        <path d="M17.237 10.293l5.553 5.553c.768.766.769 2.01.002 2.778-.767.768-2.01.77-2.779.002l-5.563-5.563c-.76-.761-.76-1.995 0-2.756l1.401-1.401.772-.771s-.506 1.037.614 2.158zM5.946 13.438l-1.483-1.483-3.886 3.89c-.768.767-.77 2.01-.003 2.778.766.768 2.01.77 2.778.003l2.802-2.802c.243-.247.604-1.494-.208-2.386z" transform="translate(-39 -122) translate(15 104) translate(16 9) translate(8.5 9)"/>
                        <path d="M6.128 13.069L.577 7.516c-.741-.77-.73-1.992.026-2.748.756-.756 1.978-.769 2.749-.028l5.562 5.562c.366.366.571.861.571 1.378 0 .517-.205 1.013-.57 1.378L7.512 14.46l-.772.772s.512-1.041-.613-2.162zM9.926 5.946l1.484-1.483L7.519.577c-.77-.741-1.993-.73-2.749.026s-.768 1.978-.028 2.749l2.803 2.802c.243.243 1.49.604 2.381-.208z" transform="translate(-39 -122) translate(15 104) translate(16 9) translate(8.5 9)"/>
                        <path d="M10.296 6.128L15.849.577c.768-.755 2.001-.75 2.763.012.762.761.768 1.994.014 2.763l-5.563 5.562c-.365.366-.861.571-1.378.571-.517 0-1.013-.205-1.379-.57l-1.4-1.402-.773-.772s1.042.512 2.163-.613zM13.441 17.416l-1.483 1.483 3.89 3.89c.766.767 2.01.767 2.778 0 .767-.767.767-2.01 0-2.778l-2.802-2.802c-.247-.244-1.492-.604-2.383.207z" transform="translate(-39 -122) translate(15 104) translate(16 9) translate(8.5 9)"/>
                        <path d="M13.072 17.234L7.52 22.787c-.769.754-2.001.748-2.763-.013s-.768-1.994-.014-2.763l5.56-5.563c.366-.366.862-.571 1.379-.571s1.013.205 1.378.57l1.401 1.402.772.772s-1.039-.508-2.16.613z" transform="translate(-39 -122) translate(15 104) translate(16 9) translate(8.5 9)"/>
                    </g>
                </g>
            </g>
        </g>
    </g>
</svg>
