<svg xmlns="http://www.w3.org/2000/svg" width="19" height="19" viewBox="0 0 19 19">
    <g fill="none" fill-rule="evenodd">
        <g fill-rule="nonzero">
            <g>
                <g>
                    <path fill="#E24C3F" d="M19 16.025C19 17.668 17.668 19 16.025 19H2.975C1.332 19 0 17.668 0 16.025V3.867L3.867 0h12.158C17.668 0 19 1.332 19 2.975v13.05z" transform="translate(-32 -478) translate(15 424) translate(17 54)"/>
                    <path fill="#5D5D5D" d="M0 6L0 4 2 4z" opacity=".2" transform="translate(-32 -478) translate(15 424) translate(17 54)"/>
                    <path fill="#FF7063" d="M0 4h2.667C3.4 4 4 3.41 4 2.677V0L0 4zM3 13V7h3.156c.3 0 .566.046.798.138.233.092.425.22.578.384.153.164.27.36.349.587.08.228.119.48.119.756s-.038.535-.115.777c-.076.241-.19.45-.34.626-.15.175-.34.313-.572.414-.233.1-.505.151-.817.151h-2.12V13H3zm1.037-5.102v2.02h1.761c.404 0 .699-.085.886-.255.186-.17.28-.436.28-.798 0-.346-.1-.593-.299-.743-.199-.15-.488-.224-.867-.224H4.037zM11.887 7.25l.88-.25v4.94c0 .106.004.2.015.284.011.083.024.161.04.234.022.066.046.137.073.212.027.075.062.152.105.23h-.927c-.033-.056-.065-.13-.097-.225-.022-.1-.038-.19-.049-.267-.16.166-.345.307-.552.42-.207.115-.429.172-.665.172-.28 0-.526-.047-.738-.142-.213-.094-.391-.225-.537-.392-.145-.167-.254-.366-.326-.597-.073-.23-.109-.48-.109-.747v-.4c0-.707.18-1.238.54-1.594.36-.356.885-.534 1.573-.534.263 0 .521.053.774.158V7.25zm0 2.345c-.118-.072-.254-.122-.407-.15-.153-.028-.297-.042-.432-.042-.215 0-.396.031-.544.092-.148.061-.269.148-.363.259-.094.111-.161.245-.201.4-.04.156-.061.326-.061.51v.308c0 .156.01.308.032.455.022.147.063.277.125.388.062.111.147.202.254.271.108.07.248.105.42.105.113 0 .224-.02.334-.059.11-.039.217-.09.319-.154.102-.064.198-.135.286-.213.089-.078.168-.159.238-.242V9.595zM14.46 8.248c0-.159.018-.313.055-.463.036-.15.093-.283.171-.399.078-.116.18-.21.307-.28.126-.07.277-.106.452-.106.083 0 .177.01.281.03.105.02.196.044.274.072v.73h-.292c-.15 0-.264.048-.34.144-.075.096-.113.23-.113.399v.348h.709l-.212.764h-.497V13h-.795V9.487H14v-.764h.46v-.475z" transform="translate(-32 -478) translate(15 424) translate(17 54)"/>
                    <path fill="#FFF" d="M3 12V6h3.156c.3 0 .566.046.798.138.233.092.425.22.578.384.153.164.27.36.349.587.08.228.119.48.119.756s-.038.535-.115.777c-.076.241-.19.45-.34.626-.15.175-.34.313-.572.414-.233.1-.505.151-.817.151h-2.12V12H3zm1.037-5.102v2.02h1.761c.404 0 .699-.085.886-.255.186-.17.28-.436.28-.798 0-.346-.1-.593-.299-.743-.199-.15-.488-.224-.867-.224H4.037zM11.887 6.25l.88-.25v4.94c0 .106.004.2.015.284.011.083.024.161.04.234.022.066.046.137.073.212.027.075.062.152.105.23h-.927c-.033-.056-.065-.13-.097-.225-.022-.1-.038-.19-.049-.267-.16.166-.345.307-.552.42-.207.115-.429.172-.665.172-.28 0-.526-.047-.738-.142-.213-.094-.391-.225-.537-.392-.145-.167-.254-.366-.326-.597-.073-.23-.109-.48-.109-.747v-.4c0-.707.18-1.238.54-1.594.36-.356.885-.534 1.573-.534.263 0 .521.053.774.158V6.25zm0 2.345c-.118-.072-.254-.122-.407-.15-.153-.028-.297-.042-.432-.042-.215 0-.396.031-.544.092-.148.061-.269.148-.363.259-.094.111-.161.245-.201.4-.04.156-.061.326-.061.51v.308c0 .156.01.308.032.455.022.147.063.277.125.388.062.111.147.202.254.271.108.07.248.105.42.105.113 0 .224-.02.334-.059.11-.039.217-.09.319-.154.102-.064.198-.135.286-.213.089-.078.168-.159.238-.242V8.595zM14.46 7.248c0-.159.018-.313.055-.463.036-.15.093-.283.171-.399.078-.116.18-.21.307-.28.126-.07.277-.106.452-.106.083 0 .177.01.281.03.105.02.196.044.274.072v.73h-.292c-.15 0-.264.048-.34.144-.075.096-.113.23-.113.399v.348h.709l-.212.764h-.497V12h-.795V8.487H14v-.764h.46v-.475z" transform="translate(-32 -478) translate(15 424) translate(17 54)"/>
                </g>
            </g>
        </g>
    </g>
</svg>
