<svg xmlns="http://www.w3.org/2000/svg" width="32" height="30" viewBox="0 0 32 30">
    <g fill="none" fill-rule="evenodd">
        <g>
            <g>
                <g transform="translate(-33 -328) translate(15 315) translate(18 13)">
                    <rect width="32" height="21.5" y="6.996" fill="#00A500" rx="2.25"/>
                    <path fill="#B9EDBE" fill-rule="nonzero" d="M31.451 4.324c.333.158.547.492.549.861v5.058c-.059 4.618-2.245 8.95-5.925 11.74l-3.273 2.591c-.43.338-1.036.338-1.467 0l-3.272-2.59c-3.68-2.79-5.866-7.123-5.925-11.74V5.184c.002-.369.216-.703.549-.861L21.18.204c.56-.272 1.215-.272 1.776 0l8.494 4.12z"/>
                    <ellipse cx="22.069" cy="12.283" fill="#00A500" fill-rule="nonzero" rx="4.965" ry="4.943"/>
                    <path fill="#E2FEE5" fill-rule="nonzero" d="M21.166 14.417c-.146 0-.287-.058-.39-.161l-.903-.903c-.215-.216-.215-.565 0-.78.215-.216.565-.216.78 0l.513.512 2.319-2.318c.215-.214.563-.213.778.002.214.215.215.562.002.778l-2.709 2.709c-.103.103-.243.162-.39.161z"/>
                    <path fill="#B9EDBE" fill-rule="nonzero" d="M11.586 23.11H2.884c-.305 0-.552-.246-.552-.551 0-.305.247-.552.552-.552h8.702c.305 0 .552.247.552.552 0 .305-.247.552-.552.552zM7.172 25.318H2.884c-.305 0-.552-.247-.552-.552 0-.305.247-.552.552-.552h4.288c.305 0 .552.247.552.552 0 .305-.247.552-.552.552zM10.697 18.331l-1.917-.944c-.246-.12-.403-.37-.404-.645v-.741c.065-.074.125-.15.182-.23.258-.362.459-.76.595-1.183.251-.074.424-.304.427-.565v-.791c0-.169-.074-.328-.2-.439V11.65s.237-1.78-2.208-1.78c-2.445 0-2.206 1.78-2.206 1.78v1.144c-.127.11-.2.27-.201.439v.79c.001.203.106.391.277.499.134.539.382 1.044.726 1.48v.723c0 .265-.147.508-.38.632l-1.79.963c-.515.274-.838.81-.84 1.392v.641h8.828v-.602c-.002-.604-.347-1.154-.89-1.419z"/>
                </g>
            </g>
        </g>
    </g>
</svg>
