<svg xmlns="http://www.w3.org/2000/svg" width="80" height="89" viewBox="0 0 80 89">
    <g fill="none" fill-rule="evenodd">
        <g fill="#94EFA3">
            <g>
                <path d="M40.005 39.93c-1.62 0-2.934 1.313-2.934 2.933 0 1.172.689 2.18 1.682 2.651v3.566c0 .693.56 1.253 1.252 1.253s1.253-.56 1.253-1.253v-3.566c.993-.471 1.682-1.48 1.682-2.65 0-1.621-1.314-2.935-2.935-2.935" transform="translate(-374 -489) translate(374 489)"/>
                <path d="M71.255 30.418c0 9.532-2.784 18.955-8.05 27.25-5.342 8.414-13.092 15.45-22.414 20.35l-.16.083c-.422.223-.927.223-1.349 0l-.159-.083c-9.32-4.9-17.073-11.936-22.414-20.35-5.267-8.295-8.05-17.718-8.05-27.25v-7.636c0-.598.356-1.125.907-1.344 5.984-2.367 10.74-6.743 13.393-12.32.234-.492.745-.81 1.301-.81h31.394c.555 0 1.067.318 1.3.81 2.654 5.577 7.41 9.953 13.394 12.32.55.219.907.746.907 1.344v7.636zm.015-11.309c-5.393-2.135-9.674-6.065-12.053-11.067-.647-1.36-2.046-2.24-3.563-2.24H24.26c-1.518 0-2.916.88-3.563 2.24-2.38 5.002-6.66 8.932-12.053 11.067-1.513.598-2.49 2.04-2.49 3.673v7.635c0 10.01 2.918 19.897 8.44 28.593 5.576 8.783 13.655 16.122 23.364 21.225l.158.084c.576.302 1.209.454 1.84.454.633 0 1.265-.152 1.842-.454l.159-.084c9.708-5.103 17.787-12.442 23.363-21.225 5.521-8.697 8.44-18.584 8.44-28.593v-7.635c0-1.633-.977-3.075-2.49-3.673z" transform="translate(-374 -489) translate(374 489)"/>
                <path d="M77.551 42.306c-.675-.152-1.346.271-1.498.946-3.816 16.879-15.435 31.516-31.88 40.16L40.35 85.42c-.246.129-.541.129-.788 0l-3.822-2.01c-16.47-8.656-28.096-23.32-31.895-40.229-.151-.675-.822-1.1-1.496-.947-.676.151-1.1.822-.949 1.496C5.361 61.358 17.453 76.63 34.576 85.63l3.822 2.008c.488.257 1.024.385 1.559.385.535 0 1.072-.128 1.56-.385l3.822-2.008c17.095-8.986 29.18-24.231 33.158-41.826.153-.675-.271-1.345-.946-1.498M76.941 14.334c-6.69-.706-11.95-5.4-12.79-11.418C63.916 1.253 62.488 0 60.825 0H19.087c-1.661 0-3.09 1.253-3.323 2.916-.842 6.018-6.102 10.712-12.79 11.418C1.279 14.513 0 15.944 0 17.664v13.453c0 1.954.101 3.93.3 5.874.067.644.611 1.124 1.245 1.124.043 0 .087-.002.13-.007.689-.07 1.19-.686 1.119-1.374-.192-1.858-.289-3.748-.289-5.617V17.665c0-.427.322-.796.731-.84 7.836-.826 14.008-6.403 15.01-13.561.06-.44.415-.759.841-.759h41.74c.426 0 .78.32.842.759 1.001 7.158 7.173 12.735 15.009 13.562.41.043.73.412.73.839v13.452c0 1.85-.094 3.72-.282 5.56-.07.688.432 1.302 1.12 1.372.688.07 1.304-.43 1.373-1.12.196-1.923.295-3.878.295-5.812V17.665c0-1.72-1.278-3.152-2.973-3.331" transform="translate(-374 -489) translate(374 489)"/>
                <path d="M55.784 53.187c0 .815-.663 1.478-1.479 1.478h-28.6c-.815 0-1.479-.663-1.479-1.478V35.25c0-.815.664-1.478 1.479-1.478h28.6c.816 0 1.48.663 1.48 1.478v17.937zm-25.514-27.9c0-5.368 4.367-9.736 9.735-9.736 5.368 0 9.735 4.368 9.735 9.735v5.98H30.27v-5.98zm24.035 5.98h-2.06v-5.98c0-6.75-5.49-12.24-12.24-12.24s-12.24 5.49-12.24 12.24v5.98h-2.06c-2.197 0-3.984 1.786-3.984 3.983v17.937c0 2.196 1.787 3.983 3.984 3.983h28.6c2.198 0 3.985-1.787 3.985-3.983V35.25c0-2.197-1.787-3.984-3.985-3.984z" transform="translate(-374 -489) translate(374 489)"/>
            </g>
        </g>
    </g>
</svg>
