<svg xmlns="http://www.w3.org/2000/svg" width="32" height="32" viewBox="0 0 32 32">
    <defs>
        <linearGradient id="lbc8vcvzda" x1="100%" x2="0%" y1="23.111%" y2="76.889%">
            <stop offset="0%" stop-color="#FF83C0"/>
            <stop offset="100%" stop-color="#FF3D82"/>
        </linearGradient>
    </defs>
    <g fill="none" fill-rule="evenodd">
        <g fill="url(#lbc8vcvzda)" transform="translate(-31 -681)">
            <g>
                <g>
                    <g>
                        <g>
                            <path d="M25.385 0C27.934 0 30 2.083 30 4.654v12.692C30 19.916 27.934 22 25.385 22H4.615C2.066 22 0 19.917 0 17.346V4.654C0 2.084 2.066 0 4.615 0h20.77zM8.747 9.806h-1.62c-.147 0-.279.041-.395.123-.117.082-.202.194-.257.335L3.773 17.7c-.032.078-.022.153.029.223.05.07.118.106.204.106h.978c.147 0 .28-.043.396-.13.117-.086.202-.195.257-.328l2.131-5.898 1.189 3.231H7.594c-.148 0-.28.043-.396.13-.117.085-.202.195-.257.328l-.268.729c-.038.086-.033.162.018.229.05.066.118.1.204.1h2.61l.419 1.15c.054.134.14.243.256.33.116.086.248.129.396.129h.979c.085 0 .153-.035.204-.106.05-.07.06-.145.029-.223l-2.82-7.73c-.039-.11-.112-.164-.221-.164zm8.365 0h-5.068c-.186 0-.348.068-.483.205-.136.138-.204.3-.204.488v.67c0 .062.023.119.07.17.046.05.104.076.174.076h1.946v6.367c0 .07.023.13.07.176.046.047.105.07.175.07h.675c.187 0 .348-.068.484-.205.135-.137.204-.3.204-.487v-5.92h1.514c.186 0 .348-.07.484-.206.135-.137.203-.304.203-.5v-.657c0-.071-.023-.13-.07-.177-.046-.047-.104-.07-.174-.07zm2.76 0h-.908c-.186 0-.348.068-.483.205-.136.137-.204.3-.204.488v7.283c0 .07.023.13.07.176.046.047.104.07.174.07h.63c.193 0 .359-.068.495-.205.135-.137.203-.3.203-.487v-4.77l1.97 2.76c.108.158.256.236.442.236s.334-.078.443-.235l1.968-2.76v5.215c0 .07.024.13.07.176.047.047.105.07.175.07h.63c.193 0 .358-.068.494-.205.136-.137.204-.3.204-.487v-7.283c0-.071-.025-.13-.076-.177-.05-.047-.106-.07-.168-.07h-1.037c-.241 0-.431.102-.571.305l-1.922 2.784c-.055.079-.125.118-.21.118-.085 0-.156-.04-.21-.118l-1.98-2.984c-.055-.07-.12-.105-.198-.105zM6.733 2.75H4.868c-.615 0-1.113.503-1.113 1.123v1.88c0 .62.498 1.122 1.113 1.122h1.864c.615 0 1.114-.503 1.114-1.123v-1.88c0-.62-.499-1.122-1.114-1.122z" transform="translate(15 506) translate(0 168) translate(16 7) translate(1 5)"/>
                        </g>
                    </g>
                </g>
            </g>
        </g>
    </g>
</svg>
