<svg xmlns="http://www.w3.org/2000/svg" width="32" height="32" viewBox="0 0 32 32">
    <defs>
        <linearGradient id="oy4lx0a93a" x1="90.632%" x2="0%" y1="10.428%" y2="100%">
            <stop offset="0%" stop-color="#FFAC45"/>
            <stop offset="100%" stop-color="#FF7A3B"/>
        </linearGradient>
    </defs>
    <g fill="none" fill-rule="evenodd">
        <g fill="url(#oy4lx0a93a)" transform="translate(-31.000000, -143.000000)">
            <g>
                <g>
                    <path d="M26.353 22.803c.86 0 1.569.66 1.64 1.5l.007.141v1.915c0 .857-.663 1.563-1.505 1.635l-.142.006H1.647c-.86 0-1.569-.66-1.64-1.5L0 26.36v-1.915c0-.857.663-1.563 1.505-1.635l.142-.006h24.706zm-1.786-10.722c.44 0 .798.356.798.795v7.491c0 .44-.357.795-.798.795h-3.566c-.44 0-.797-.356-.797-.795v-7.491c0-.439.357-.795.797-.795h3.566zm-8.784 0c.44 0 .797.356.797.795v7.491c0 .44-.357.795-.797.795h-3.566c-.44 0-.797-.356-.797-.795v-7.491c0-.439.357-.795.797-.795h3.566zm-8.784 0c.44 0 .797.356.797.795v7.491c0 .44-.357.795-.797.795H3.433c-.44 0-.798-.356-.798-.795v-7.491c0-.439.357-.795.798-.795h3.566zM13.382.121c.353-.142.73-.157 1.081-.054l12.505 5.085c.582.233.973.765 1.026 1.38l.006.142V8.8c0 .857-.663 1.563-1.505 1.635l-.142.006H1.647c-.86 0-1.569-.66-1.64-1.5L0 8.8V6.673C0 6.05.35 5.49.901 5.211l.131-.06 12.35-5.03zm.518 2.454c-.67 0-1.223.508-1.289 1.16l-.007.131v2.755c0 .713.58 1.291 1.296 1.291.671 0 1.223-.508 1.29-1.16l.006-.131V3.866c0-.713-.58-1.291-1.296-1.291z" transform="translate(15.000000, 132.000000) translate(16.000000, 11.000000) translate(2.000000, 2.000000)"/>
                </g>
            </g>
        </g>
    </g>
</svg>
