<svg xmlns="http://www.w3.org/2000/svg" width="32" height="32" viewBox="0 0 32 32">
    <defs>
        <linearGradient id="pfuyi8v7za" x1="85.505%" x2="9.6%" y1="28.369%" y2="73.143%">
            <stop offset="0%" stop-color="#7AC4FF"/>
            <stop offset="100%" stop-color="#39A7FF"/>
        </linearGradient>
    </defs>
    <g fill="none" fill-rule="evenodd">
        <g fill="url(#pfuyi8v7za)" transform="translate(-31.000000, -200.000000)">
            <g>
                <g>
                    <g>
                        <path d="M22.118 8.905c-.382-.218-.8-.325-1.217-.325-.551 0-1.099.189-1.55.559l-.369.301-.55-.205c-.22-.082-.39-.247-.48-.465-.09-.218-.085-.456.012-.67l1.112-2.456c.391-.865.265-1.86-.329-2.598l-.12-.15c2.151.19 4.148 1.242 5.54 2.971 1.197 1.486 1.826 3.344 1.8 5.235l-3.849-2.197zm.875 8.381c-.935.765-2.003 1.299-3.138 1.582l-2.29-2.844c-.18-.223-.262-.502-.233-.787l.065-.627c.153-1.491-.925-2.83-2.403-2.985-.717-.074-1.419.136-1.978.594l-2.472 2.025c-1.417-3.262-.572-7.21 2.299-9.56 1.121-.92 2.416-1.482 3.748-1.704l.89 1.103c.2.25.242.586.11.878l-1.112 2.455c-.283.627-.296 1.35-.034 1.986.263.636.78 1.138 1.42 1.377l.987.368c.271.1.574.05.798-.133l.73-.598c.267-.219.634-.25.934-.078l4.43 2.53c-.395 1.68-1.321 3.247-2.751 4.418zm-5.073 1.817c-2.402 0-4.707-1.083-6.252-3.001-.106-.132-.209-.268-.307-.407l2.684-2.198c.22-.18.498-.264.78-.234.584.06 1.009.589.948 1.177l-.064.627c-.075.722.134 1.43.588 1.994l1.645 2.042h-.022zM7.16 5.753c0 .62-.5 1.122-1.114 1.122H4.182c-.615 0-1.114-.503-1.114-1.123v-1.88c0-.62.499-1.122 1.114-1.122h1.864c.615 0 1.113.503 1.113 1.123v1.88zM4.933 0C2.209 0 0 2.227 0 4.975v12.05C0 19.773 2.21 22 4.934 22h20.132C27.791 22 30 19.773 30 17.025V4.975C30 2.227 27.79 0 25.066 0H4.934z" transform="translate(15.000000, 189.000000) translate(16.000000, 11.000000) translate(1.000000, 5.000000)"/>
                    </g>
                </g>
            </g>
        </g>
    </g>
</svg>
