<svg xmlns="http://www.w3.org/2000/svg" width="80" height="59" viewBox="0 0 80 59">
    <defs>
        <linearGradient id="4g8wa6oija" x1="100%" x2="0%" y1="23.109%" y2="76.891%">
            <stop offset="0%" stop-color="#00BE00"/>
            <stop offset="100%" stop-color="#00A500"/>
        </linearGradient>
    </defs>
    <g fill="none" fill-rule="evenodd">
        <g fill="url(#4g8wa6oija)" transform="translate(-323.000000, -1417.000000)">
            <g>
                <g>
                    <path d="M65.455 0C73.488 0 80 6.567 80 14.667v29.334c0 8.1-6.512 14.668-14.545 14.668h-50.91C6.512 58.669 0 52.102 0 44V14.667C0 6.567 6.512 0 14.545 0h50.91zM53.454 34.084c-1.314-1.326-3.444-1.326-4.757 0l-9.601 9.681c-1.324 1.334-1.324 3.499 0 4.833 1.322 1.334 3.468 1.334 4.79 0l9.586-9.666c1.934-1.95 3.727-1.072 3.727-1.072zm4.985 5.032c-.516-.422-2.576-.96-4.063.402l-2.558 2.58 6.446 6.5.145.137c1.33 1.194 3.371 1.148 4.647-.138 1.324-1.335 1.324-3.498 0-4.832l-.006-.006-.044-.044-.037-.037-.102-.103-2.043-2.06-.36-.363-1.804-1.819-.174-.174zm-20.092-9.1l-6.445 6.5-.137.146c-1.185 1.343-1.14 3.4.137 4.686 1.322 1.335 3.469 1.335 4.792 0l4.568-4.607.043-.048c.418-.52.951-2.597-.4-4.097l-2.558-2.58zm21.249-6.923L55.85 26.87c-1.314 1.324-1.314 3.472 0 4.796l9.602 9.682c1.322 1.335 3.469 1.335 4.792 0 1.324-1.334 1.324-3.496 0-4.831l-9.586-9.666c-1.82-1.835-1.156-3.545-1.071-3.74l.008-.018zm-22.902-5.905c-1.323-1.335-3.47-1.335-4.793 0-1.323 1.334-1.323 3.497 0 4.83l9.585 9.666c1.934 1.95 1.064 3.759 1.064 3.759l3.745-3.777c1.314-1.325 1.314-3.472 0-4.797zm33.55-.001c-1.322-1.335-3.469-1.335-4.792 0l-.077.078c-.539.543-3.71 3.74-4.49 4.53-.422.424-1.042 2.593.356 4.144l2.558 2.58 6.445-6.5.137-.146c1.185-1.341 1.14-3.4-.137-4.686zm-7.19-7.25c-1.322-1.333-3.466-1.333-4.79 0l-9.585 9.666c-1.934 1.95-3.728 1.074-3.728 1.074l3.746 3.776c1.314 1.325 3.443 1.325 4.757 0l9.602-9.682c1.323-1.335 1.323-3.498-.001-4.833zM43.743 9.8c-1.33-1.194-3.372-1.148-4.647.138-1.324 1.335-1.324 3.499 0 4.834l4.57 4.606.047.043c.515.421 2.575.96 4.062-.404l2.558-2.58-6.445-6.499zM19.304 7.334h-4.971c-1.581 0-2.874 1.246-2.964 2.818l-.005.176v5.012c0 1.594 1.236 2.898 2.794 2.989l.175.005h4.97c1.582 0 2.874-1.247 2.965-2.818l.005-.176v-5.012c0-1.654-1.33-2.994-2.97-2.994z" transform="translate(323.000000, 1417.000000) translate(0.000000, 0.000000)"/>
                </g>
            </g>
        </g>
    </g>
</svg>
