<svg xmlns="http://www.w3.org/2000/svg" width="26" height="26" viewBox="0 0 26 26">
    <g fill="none" fill-rule="evenodd">
        <g>
            <g>
                <g transform="translate(-30 -626) translate(15 619) translate(16 8)">
                    <rect width="24" height="24" stroke="#CBCBCB" stroke-width=".5" rx="5"/>
                    <g>
                        <path fill="#0DAA27" d="M13.659 6.235c0 .164-.134.297-.297.297h-2.079c-.655 0-1.188-.532-1.188-1.187s.533-1.188 1.188-1.188h2.079c.163 0 .297.133.297.297v1.781zm-1.188 3.86H1.188c-.328 0-.594-.266-.594-.593V1.188c0-.328.266-.594.594-.594H12.47c.327 0 .594.266.594.594v2.375h-1.782c-.982 0-1.781.8-1.781 1.782s.799 1.781 1.781 1.781h1.782v2.376c0 .327-.267.593-.594.593zm-1.188-5.344c-.327 0-.594.266-.594.594 0 .327.267.593.594.593.328 0 .594-.266.594-.593 0-.328-.266-.594-.594-.594" transform="translate(5 7)"/>
                        <path fill="#FFF" d="M2.399 2.774l.077.007c.076.014.148.047.207.101l.249.24.866.814.051.058c.101.145.082.34-.056.466l-.073.052c-.156.087-.363.067-.496-.057l-.832-.78-.841.774-.073.053c-.155.088-.362.07-.496-.053l-.051-.058c-.103-.143-.086-.34.05-.466l1.133-1.042c.079-.072.182-.109.285-.109zM.41.978l.077.007c.076.014.148.047.207.101L1.828 2.13l.051.058c.103.143.086.339-.05.465h-.001l-.261.23-.883.797-.073.052c-.156.087-.364.068-.496-.057l-.051-.058c-.101-.145-.082-.34.056-.466l.848-.765-.842-.775-.051-.058c-.103-.143-.086-.34.051-.465l.063-.048C.256 1 .333.98.411.98zM4.346.971l.078.007c.077.014.15.048.21.103l.049.058c.043.06.064.13.065.2v.004l-.008.071c-.015.07-.053.137-.112.191l-.848.766.842.774.051.058c.103.144.086.34-.051.466l-.073.053c-.155.088-.362.07-.496-.053L2.92 2.627l-.051-.058c-.103-.144-.086-.34.05-.466h.001l.26-.229.884-.798c.078-.07.18-.105.282-.105zM1.25.183l.078.007c.077.013.15.048.21.103l.83.78L3.21.3l.072-.053c.155-.088.363-.07.497.053l.051.058c.103.143.086.34-.051.465L2.647 1.865l-.073.053c-.155.088-.362.07-.496-.052l-.249-.24L.963.811.912.754C.81.609.83.413.968.288c.078-.07.18-.105.282-.105z" transform="translate(5 7) translate(3.474 2.677)"/>
                    </g>
                </g>
            </g>
        </g>
    </g>
</svg>
