<svg xmlns="http://www.w3.org/2000/svg" width="32" height="32" viewBox="0 0 32 32">
    <g fill="none" fill-rule="evenodd">
        <g>
            <g>
                <g transform="translate(-283 -108) translate(59 56) translate(224 52)">
                    <circle cx="16" cy="16" r="16" fill="#6C7A84"/>
                    <g fill="#87929B">
                        <path d="M.872 6.207c.027 0 .054-.001.082-.004.42-.045.725-.422.68-.843-.197-1.878-.114-2.989.257-3.394.338-.37 1.214-.357 2.428-.34.39.006.81.012 1.262.007.423-.006.761-.353.757-.776-.006-.423-.357-.75-.776-.756-.437.006-.844 0-1.221-.006C2.789.072 1.563.054.76.932c-.721.79-.909 2.12-.648 4.59.041.393.374.685.76.685M17.653 12.13c-.04-.421-.413-.729-.833-.692-.421.039-.732.412-.692.833.116 1.265.216 3.006-.259 3.52-.334.362-1.27.35-2.562.334-.311-.004-.639-.006-.999-.008-.423 0-.765.344-.765.767 0 .423.343.765.766.765.348 0 .674.004.979.008.252.003.494.006.725.006 1.32 0 2.304-.099 2.982-.832.723-.784.902-2.058.658-4.7M5.497 16.12c-1.975.193-3.13.108-3.529-.259-.365-.335-.352-1.242-.336-2.497.005-.362.01-.75.007-1.169-.003-.423-.339-.753-.771-.76-.423.003-.764.348-.76.77.002.408-.003.787-.007 1.138-.022 1.653-.038 2.847.83 3.646.569.522 1.413.764 2.811.764.545 0 1.174-.036 1.904-.108.42-.04.729-.415.688-.836-.041-.421-.414-.729-.837-.688M12.384 1.629c1.906-.187 3.022-.103 3.412.255.363.334.351 1.243.335 2.5-.004.33-.008.683-.007 1.06.002.422.344.763.766.763h.003c.423-.002.765-.346.763-.77-.001-.367.003-.711.007-1.033.021-1.655.036-2.852-.831-3.648-.78-.716-2.07-.899-4.598-.652-.42.041-.729.416-.688.837.041.421.413.728.838.688M6.823 3.572H4.726c-.697 0-1.269.571-1.269 1.27v2.097c0 .697.572 1.268 1.269 1.268h2.097c.698 0 1.27-.57 1.27-1.268V4.84c0-.698-.572-1.269-1.27-1.269" transform="translate(7 7)"/>
                        <path d="M14.216 13.062v-2.097c0-.698-.57-1.269-1.269-1.269H10.85c-.698 0-1.269.571-1.269 1.269v2.097c0 .698.571 1.27 1.27 1.27h2.096c.698 0 1.27-.572 1.27-1.27M10.435 7.27c.386 0 .702-.316.702-.703V4.995c0-.387-.316-.703-.702-.703-.387 0-.703.316-.703.703v1.572c0 .387.316.703.703.703M7.39 10.366c-.387 0-.703.316-.703.702v1.573c0 .387.316.703.703.703.386 0 .702-.316.702-.703v-1.573c0-.386-.316-.702-.702-.702M13.513 3.458c-.386 0-.702.317-.702.703v3.19c0 .387.316.703.702.703.387 0 .703-.316.703-.702v-3.19c0-.387-.316-.704-.703-.704M4.31 14.312c.387 0 .704-.317.704-.703v-3.19c0-.387-.317-.703-.703-.703-.387 0-.703.316-.703.702v3.19c0 .387.316.704.703.704" transform="translate(7 7)"/>
                    </g>
                </g>
            </g>
        </g>
    </g>
</svg>
