<svg xmlns="http://www.w3.org/2000/svg" xmlns:xlink="http://www.w3.org/1999/xlink" width="200" height="200" viewBox="0 0 200 200">
    <defs>
        <linearGradient id="mof3yra1zc" x1="0%" x2="100%" y1="68.635%" y2="31.365%">
            <stop offset="0%" stop-color="#08941F"/>
            <stop offset="100%" stop-color="#0EB92A"/>
        </linearGradient>
        <linearGradient id="g9ndgmuusd" x1="0%" x2="100%" y1="100%" y2="0%">
            <stop offset="0%" stop-color="#08941F"/>
            <stop offset="100%" stop-color="#0EB92A"/>
        </linearGradient>
        <linearGradient id="mdjec8imme" x1="100%" x2="0%" y1="6.267%" y2="100%">
            <stop offset="100%" stop-color="#151515"/>
            <stop offset=".066%" stop-color="#2F2F2F"/>
        </linearGradient>
        <linearGradient id="gzidktdybf" x1="70.291%" x2="31.648%" y1="86.716%" y2="26.807%">
            <stop offset="0%" stop-color="#ED978A"/>
            <stop offset="100%" stop-color="#F9B9B2"/>
        </linearGradient>
        <linearGradient id="1c22u0mytg" x1="103.112%" x2="31.225%" y1="82.6%" y2="35.049%">
            <stop offset="0%" stop-color="#ED978A"/>
            <stop offset="100%" stop-color="#F9B9B2"/>
        </linearGradient>
        <linearGradient id="4qwuov1guh" x1="62.38%" x2="18.479%" y1="48.65%" y2="38.163%">
            <stop offset="0%" stop-color="#ED978A"/>
            <stop offset="100%" stop-color="#F9B9B2"/>
        </linearGradient>
        <linearGradient id="avquwm3asi" x1="68.554%" x2="45.12%" y1="83.603%" y2="40.096%">
            <stop offset="0%" stop-color="#ED978A"/>
            <stop offset="99.9%" stop-color="#FFF"/>
        </linearGradient>
        <linearGradient id="lbwxh8mvij" x1="46.186%" x2="53.866%" y1="8.434%" y2="92.058%">
            <stop offset=".34%" stop-color="#001231"/>
            <stop offset="99.84%" stop-color="#253B64" stop-opacity=".8"/>
        </linearGradient>
        <linearGradient id="akvafvxonk" x1="17.222%" x2="80.142%" y1="57.279%" y2="47.124%">
            <stop offset="0%" stop-color="#ED978A"/>
            <stop offset="100%" stop-color="#F9B9B2"/>
        </linearGradient>
        <linearGradient id="eu62r1ie9l" x1="71.49%" x2="42.279%" y1="22.7%" y2="73.111%">
            <stop offset="0%" stop-color="#ED978A"/>
            <stop offset="99.9%" stop-color="#FFF"/>
        </linearGradient>
        <linearGradient id="qbu679k54m" x1=".987%" x2="98.079%" y1="55.058%" y2="45.322%">
            <stop offset="0%" stop-color="#ED978A"/>
            <stop offset="100%" stop-color="#F9B9B2"/>
        </linearGradient>
        <linearGradient id="8oiee5fphn" x1="17.236%" x2="80.156%" y1="57.262%" y2="47.108%">
            <stop offset="0%" stop-color="#ED978A"/>
            <stop offset="100%" stop-color="#F9B9B2"/>
        </linearGradient>
        <circle id="lm0mbtndza" cx="100" cy="100" r="100"/>
    </defs>
    <g fill="none" fill-rule="evenodd">
        <g>
            <g>
                <g>
                    <g transform="translate(-79 -171) translate(15 149) translate(18 22) translate(46)">
                        <mask id="tc2r3hkilb" fill="#fff">
                            <use xlink:href="#lm0mbtndza"/>
                        </mask>
                        <g mask="url(#tc2r3hkilb)">
                            <g>
                                <path fill="#F6F6F6" fill-rule="nonzero" d="M161.712 66.297c.466-28.17-22.67-51.695-50.84-51.695-.347 0-.694 0-1.041.008-7.373.153-14.628-1.839-20.78-5.898C81.186 3.525 71.805.466 61.71.347c-28.05-.33-51.245 22.399-51.457 50.45-.085 10.881 3.254 20.983 9 29.28 5.687 8.22 8.78 17.948 8.865 27.948 0 .178 0 .348.008.526.526 27.678 23.415 49.991 51.093 49.856 21.526-.11 39.882-13.593 47.195-32.56 3.034-7.864 8.238-14.678 14.983-19.745 12.127-9.119 20.043-23.534 20.314-39.805z" transform="translate(17.95 9.322)"/>
                                <g transform="translate(17.95 9.322) translate(.695 27.966)">
                                    <path fill="url(#mof3yra1zc)" d="M6.737.373H113.62c3.44 0 6.228 2.788 6.228 6.229V67c0 3.44-2.788 6.229-6.228 6.229H6.737C3.297 73.229.508 70.44.508 67V6.602c0-3.441 2.789-6.23 6.23-6.23z"/>
                                    <path stroke="#FFF" stroke-width="1.683" d="M115.483 7.381v58.856c0 1.788-1.45 3.23-3.229 3.23H8.11c-1.788 0-3.229-1.45-3.229-3.23V7.381c0-1.788 1.45-3.228 3.23-3.228h104.143c1.788 0 3.23 1.449 3.23 3.228z"/>
                                    <path stroke="#FFF" stroke-linecap="round" stroke-linejoin="round" stroke-width="5.702" d="M52.907 31.576L105.297 31.576M63.093 17.017L95.11 17.017M52.907 46.127L105.297 46.127M52.907 60.678L105.297 60.678"/>
                                    <path fill="#FFF" fill-rule="nonzero" d="M41.263 33.347c0-1.932-1.568-3.491-3.492-3.491H16.873c-1.932 0-3.492 1.568-3.492 3.491v27.331c.009.542.136 1.085.382 1.568 1.72-7.458 9.16-12.11 16.61-10.39 5.229 1.203 9.288 5.322 10.424 10.56.296-.535.457-1.136.466-1.747V33.347z"/>
                                    <circle cx="27.322" cy="43.449" r="7.831" fill="url(#g9ndgmuusd)"/>
                                    <circle cx="27.322" cy="16.347" r="8.763" stroke="#FFF" stroke-width=".584"/>
                                    <circle cx="27.203" cy="16.347" r="5.907" fill="url(#mdjec8imme)" opacity=".3"/>
                                </g>
                                <path stroke="#939393" stroke-width=".818" d="M94.644 91.797L127.381 87.585" transform="translate(17.95 9.322)"/>
                                <g fill-rule="nonzero">
                                    <g>
                                        <g>
                                            <path fill="url(#gzidktdybf)" d="M45.458 80.839c-1.933-1.822-3.11-4.305-3.314-6.95-.627-8.211-3.44-26.448-10.102-36.821C23.085 23.118 16.932 1.38 14.551.466 11.89-.559 5.966 1 5.763 8.5 5.559 16 14.28 40 14.28 40S-1.06 65.017.636 77.958c1.695 12.94 22.618 23.245 22.618 23.245l51.102 49.136 23.076-19.602L45.458 80.84z" transform="translate(17.95 9.322) translate(71.034 43.22) translate(38.136 12.712) translate(16.95)"/>
                                            <path fill="#ED978A" d="M33.347 52.11c1.009 9.771 1.085 33.407 4.475 40.39 2.178 4.492 28.703 30.593 47.347 48.653l12.263-10.416L45.458 80.84c-1.933-1.822-3.11-4.305-3.314-6.95-.627-8.211-3.44-26.448-10.102-36.821C23.085 23.118 16.932 1.38 14.551.466c0 0 .542 2.627 2.932 12.483 2.398 9.856 14.856 29.398 15.864 39.161z" opacity=".25" transform="translate(17.95 9.322) translate(71.034 43.22) translate(38.136 12.712) translate(16.95)"/>
                                        </g>
                                        <path fill="url(#1c22u0mytg)" d="M91.305 150.33l-9.72 7.95-48.856-46.568c-1.39-1.288-3.119-2.144-4.975-2.483-6.288-1.136-21.542-4.712-27.144-13.34l26.466-3.474c6.204 5.365 13.127 8.771 13.127 8.771l51.102 49.145z" transform="translate(17.95 9.322) translate(71.034 43.22) translate(38.136 12.712)"/>
                                    </g>
                                    <g>
                                        <path fill="url(#4qwuov1guh)" d="M21.373 2.466S2.576-3.508.39 4.12C-2.602 14.559 19.27 15.847 19.27 15.847l2.102-13.38z" transform="translate(17.95 9.322) translate(71.034 43.22) translate(0 35.593)"/>
                                        <path fill="url(#avquwm3asi)" d="M12.398 5.076l.712 5.407-2.813.373c-1.61.212-3.102.932-4.246 2.05-1.263-.559-2.432-1.228-3.39-2.016 1.653-3.017 4.67-5.229 8.347-5.712.475-.068.933-.102 1.39-.102z" transform="translate(17.95 9.322) translate(71.034 43.22) translate(0 35.593)"/>
                                    </g>
                                    <g>
                                        <path fill="#00243A" d="M63.025 95.619L51.593 8.449c-.652-5-5.237-8.517-10.237-7.864L8.449 4.898c-5 .653-8.517 5.238-7.864 10.238l11.432 87.17c.652 5 5.237 8.516 10.237 7.863l32.907-4.313c4.992-.653 8.517-5.237 7.864-10.237z" transform="translate(17.95 9.322) translate(71.034 43.22) translate(8.475)"/>
                                        <path fill="#FFF" d="M8.737 7.136l4.551-.594c.466-.059.932.102 1.254.441l1.322 1.373c.602.627 1.467.924 2.322.813l14.83-1.949c.857-.11 1.62-.627 2.035-1.381l.924-1.67c.228-.406.635-.686 1.101-.745l4.551-.593c3.771-.492 7.229 2.16 7.72 5.932l11.433 87.17c.491 3.77-2.161 7.228-5.933 7.72l-32.906 4.313c-3.772.492-7.23-2.16-7.72-5.932L2.787 14.864c-.483-3.78 2.178-7.237 5.95-7.728z" opacity=".27" transform="translate(17.95 9.322) translate(71.034 43.22) translate(8.475)"/>
                                        <g>
                                            <g>
                                                <path fill="url(#lbwxh8mvij)" d="M43.864 39.263L8.585 43.89 3.958 8.61 39.237 3.983z" transform="translate(17.95 9.322) translate(71.034 43.22) translate(8.475) translate(7.627 12.712) translate(0 15.254)"/>
                                                <g fill="#0AB822" stroke="#0AB822" stroke-width=".944">
                                                    <path d="M6.034 5.475L.805 6.161 1.492 11.39 2.102 11.305 1.5 6.695 6.11 6.085zM42.364 6.025L41.678.805 36.449 1.492 36.525 2.102 41.144 1.492 41.746 6.102zM41.822 42.424L47.042 41.737 46.356 36.517 45.746 36.593 46.356 41.212 41.746 41.814zM5.492 41.881L6.178 47.102 11.407 46.415 11.322 45.805 6.712 46.407 6.102 41.797z" transform="translate(17.95 9.322) translate(71.034 43.22) translate(8.475) translate(7.627 12.712) translate(0 15.254)"/>
                                                </g>
                                            </g>
                                            <g fill="#00243A">
                                                <path d="M34.958.22L1.492 4.61c-.517.068-.882.543-.814 1.06l.44 3.364c.068.517.543.881 1.06.813l33.466-4.39c.517-.067.881-.542.814-1.059l-.441-3.364c-.06-.517-.534-.881-1.06-.814zM35.958 7.788l-33.466 4.39c-.517.068-.882.542-.814 1.06l.44 3.364c.068.517.543.881 1.06.813l33.466-4.39c.517-.067.881-.542.814-1.059l-.441-3.364c-.068-.517-.542-.882-1.06-.814z" transform="translate(17.95 9.322) translate(71.034 43.22) translate(8.475) translate(7.627 12.712) translate(10.17 71.186)"/>
                                            </g>
                                            <path fill="#00243A" d="M35.771.042L2.305 4.432c-.517.068-.881.543-.813 1.06l.44 3.364c.068.517.543.881 1.06.813l33.466-4.39c.517-.067.881-.542.813-1.059l-.44-3.364c-.068-.517-.543-.881-1.06-.814z" transform="translate(17.95 9.322) translate(71.034 43.22) translate(8.475) translate(7.627 12.712)"/>
                                        </g>
                                    </g>
                                    <g>
                                        <path fill="url(#akvafvxonk)" d="M10.907 18.237l2.813-.373.78 5.95c2.432 2.542 6.686 8.44 4.127 12.025-3.508 4.907-10.195 1.398-14.729-4.237-2.254-2.797-.16-7.178 1.712-10.06 1.195-1.822 3.136-3.025 5.297-3.305z" transform="translate(17.95 9.322) translate(71.034 43.22) translate(1.695 45.763)"/>
                                        <path fill="url(#eu62r1ie9l)" d="M7.754 19.415c1.95 2.382 6.754 4.407 6.754 4.407l-.78-5.95-2.813.374c-1.152.144-2.22.55-3.16 1.17z" transform="translate(17.95 9.322) translate(71.034 43.22) translate(1.695 45.763)"/>
                                        <path fill="url(#qbu679k54m)" d="M6.992 41.203c-2.06 3.051-.645 7.22 2.813 8.492 4.05 1.491 10.39 3 12.322-1.187 2.212-4.788-3.924-7.983-8.22-9.576-2.5-.924-5.322-.042-6.84 2.153-.025.042-.05.076-.075.118z" transform="translate(17.95 9.322) translate(71.034 43.22) translate(1.695 45.763)"/>
                                        <path fill="url(#8oiee5fphn)" d="M8.602.686l2.813-.372.78 5.949c2.432 2.542 6.686 8.44 4.127 12.025-3.508 4.907-10.195 1.398-14.729-4.237-2.254-2.797-.16-7.178 1.712-10.06C4.508 2.17 6.441.967 8.602.687z" transform="translate(17.95 9.322) translate(71.034 43.22) translate(1.695 45.763)"/>
                                    </g>
                                </g>
                            </g>
                        </g>
                    </g>
                </g>
            </g>
        </g>
    </g>
</svg>
