<svg xmlns="http://www.w3.org/2000/svg" width="16" height="16" viewBox="0 0 16 16">
    <g fill="none" fill-rule="evenodd">
        <g fill="#8E8E8E">
            <g>
                <g>
                    <path d="M8 0c4.416 0 8 3.584 8 8s-3.584 8-8 8-8-3.584-8-8 3.584-8 8-8zm.799 3H5.128C4.506 3 4 3.506 4 4.128v8.244c0 .622.506 1.128 1.128 1.128h5.742c.622 0 1.128-.506 1.128-1.128V6.076H9.517c-.396 0-.718-.322-.718-.718V3zm-1.626 7.383c.17 0 .308.138.308.307 0 .17-.138.308-.308.308H5.682c-.17 0-.308-.138-.308-.308 0-.17.138-.307.308-.307h1.491zm3.02-1.64c.17 0 .308.137.308.307 0 .17-.138.307-.308.307H5.682c-.17 0-.308-.137-.308-.307 0-.17.138-.308.308-.308h4.511zm0-1.641c.17 0 .308.137.308.307 0 .17-.138.308-.308.308H5.682c-.17 0-.308-.138-.308-.308 0-.17.138-.307.308-.307h4.511zm-.779-3.974v2.23c0 .057.046.103.103.103h2.344c-.056-.104-.129-.2-.216-.282L9.668 3.31c-.077-.073-.162-.134-.254-.181z" transform="translate(-31 -532) translate(15 520) translate(16 9) translate(0 3)"/>
                </g>
            </g>
        </g>
    </g>
</svg>
