<svg xmlns="http://www.w3.org/2000/svg" xmlns:xlink="http://www.w3.org/1999/xlink" width="112" height="112" viewBox="0 0 112 112">
    <defs>
        <path id="9lncuvza7a" d="M0 0.128L89.659 0.128 89.659 93.722 0 93.722z"/>
    </defs>
    <g fill="none" fill-rule="evenodd">
        <g>
            <g>
                <g>
                    <g transform="translate(-132 -56) translate(132 56) translate(11.667 8.944) translate(0 .956)">
                        <mask id="vzmuauhn5b" fill="#fff">
                            <use xlink:href="#9lncuvza7a"/>
                        </mask>
                        <path fill="#F2F2F2" d="M.773 43.84c-1.79 6.094-.337 10.59 2.98 16.006 2.343 3.83 5.896 7.158 6.63 11.586.484 2.926-.357 5.959.184 8.874.965 5.208 5.982 8.623 10.873 10.658 7.63 3.172 16.915 4.27 23.788-.32 3.792-2.532 6.585-6.617 10.866-8.187 5.7-2.088 12.115.95 18.07-.227 4.848-.957 8.797-4.656 11.24-8.953 3.927-6.906 4.469-15.208 4.197-23.147-.233-6.778-1.012-13.624-3.436-19.958-2.424-6.334-6.632-12.16-12.516-15.532-3.67-2.104-7.841-3.19-11.577-5.175-2.827-1.503-5.362-3.499-8.14-5.088-10.05-5.75-23.094-5.58-33.241-.005C10.544 9.95 4.264 16.746 2.587 28.202c-.505 3.442-.054 11.74-1.814 15.639" mask="url(#vzmuauhn5b)"/>
                    </g>
                    <path fill="#E2E2E2" d="M73.98 83.883c0 1.949-11.74 3.527-26.225 3.527-14.483 0-26.223-1.578-26.223-3.527 0-1.95 11.74-3.528 26.223-3.528 14.485 0 26.225 1.579 26.225 3.528" transform="translate(-132 -56) translate(132 56) translate(11.667 8.944)"/>
                    <path fill="#00C529" d="M72.935 5.48s1.178-1.963-.893-4.6c0 0 2.522 1.325 4.422-.49 0 0-1.358 2.993.738 4.754 0 0-2.085-1.593-4.267.336M83.67 23.793s1.355-.953.756-3.306c0 0 1.283 1.617 3.072.97 0 0-1.775 1.585-.904 3.365 0 0-.913-1.666-2.924-1.029" transform="translate(-132 -56) translate(132 56) translate(11.667 8.944)"/>
                    <path fill="#E2E2E2" d="M9.931 18.32s-1.505-2.508 1.141-5.88c0 0-3.225 1.694-5.651-.628 0 0 1.735 3.828-.944 6.077 0 0 2.663-2.034 5.454.43" transform="translate(-132 -56) translate(132 56) translate(11.667 8.944)"/>
                    <path fill="#00C529" d="M14.591 62.814s-.817-1.441.728-3.313c0 0-1.85.914-3.19-.434 0 0 .928 2.19-.621 3.428 0 0 1.537-1.115 3.083.319" transform="translate(-132 -56) translate(132 56) translate(11.667 8.944)"/>
                    <path fill="#19313D" d="M31.895 72.43L13.702 47.15c-4.438-6.165-3.037-14.763 3.13-19.202L42.11 9.755c6.167-4.437 14.765-3.035 19.203 3.132l18.193 25.278c4.438 6.167 3.036 14.764-3.13 19.202L51.095 75.56c-6.166 4.437-14.763 3.036-19.201-3.13" transform="translate(-132 -56) translate(132 56) translate(11.667 8.944)"/>
                    <path fill="#00C529" d="M68.24 68.008l-30.951 6.649c-7.29 1.567-14.47-3.074-16.036-10.364l-6.65-30.95c-1.564-7.29 3.074-14.47 10.365-16.036l30.95-6.649c7.29-1.566 14.47 3.074 16.036 10.365l6.649 30.95c1.567 7.29-3.074 14.47-10.363 16.035" transform="translate(-132 -56) translate(132 56) translate(11.667 8.944)"/>
                    <path stroke="#FFF" stroke-linecap="round" stroke-linejoin="round" stroke-width="4.154" d="M34.486 44.49L42.174 51.085 58.721 34.229" transform="translate(-132 -56) translate(132 56) translate(11.667 8.944)"/>
                </g>
            </g>
        </g>
    </g>
</svg>
