<svg xmlns="http://www.w3.org/2000/svg" width="26" height="26" viewBox="0 0 26 26">
    <g fill="none" fill-rule="evenodd">
        <g>
            <g>
                <g>
                    <g transform="translate(-30 -678) translate(15 571) translate(0 100) translate(16 8)">
                        <rect width="24" height="24" stroke="#CBCBCB" stroke-width=".5" rx="5"/>
                        <path fill="#4A90E2" d="M8.453 15.486h1.636v-4.907H8.453v4.907zm2.726 0h1.636v-4.907h-1.636v4.907zm2.726 0h1.635v-4.907h-1.635v4.907zm3.544 1.417c.301 0 .545.245.546.546 0 .3-.245.545-.546.545H6.545c-.3 0-.545-.244-.545-.545 0-.301.245-.546.545-.546zm-.682-6.869c.15 0 .273.123.273.272 0 .151-.122.273-.273.273h-.136v4.907h.136c.302 0 .546.244.546.545 0 .301-.244.546-.546.546h-9.54c-.302 0-.545-.245-.545-.546 0-.301.243-.545.545-.545h.136v-4.907h-.136c-.151 0-.272-.122-.272-.273 0-.15.12-.272.272-.272zm-4.993-3.986c.142-.064.305-.064.447 0l5.41 2.435c.214.073.369.276.369.516 0 .301-.244.546-.546.546H6.544c-.256 0-.478-.18-.531-.432-.055-.25.074-.506.309-.612z"/>
                    </g>
                </g>
            </g>
        </g>
    </g>
</svg>
