<svg xmlns="http://www.w3.org/2000/svg" width="100" height="78" viewBox="0 0 100 78">
    <g fill="none" fill-rule="evenodd">
        <g>
            <g>
                <g>
                    <path fill="#DBEFDD" d="M92.335 13.99c-12.262-9.397-24.148-1.762-37.414-4.458C41.56 6.796 36.24-2.313 21.024 1.898 7.517 5.62-.634 20.555 6.777 33.058c2.108 3.559 5.708 6.249 7.176 10.236 2.35 6.46-1.239 11.37-.534 17.688 2.936 26.257 43.023 16.086 57.78 7.917 23.139-12.814 38.795-41.326 21.142-54.903" transform="translate(-247 -147) translate(15 102) translate(232 45)"/>
                    <path fill="#D6D6D6" fill-rule="nonzero" d="M77.395 54.564H25.793c-2.088.003-4.07-.92-5.41-2.52-1.342-1.6-1.905-3.712-1.538-5.767l7.482-42.283c.23-1.355 1.403-2.348 2.778-2.349h44.978c1.375.001 2.549.994 2.778 2.35l7.482 42.282c.367 2.055-.196 4.167-1.537 5.767-1.342 1.6-3.323 2.523-5.41 2.52z" transform="translate(-247 -147) translate(15 102) translate(232 45)"/>
                    <path fill="#FFF" fill-rule="nonzero" d="M51.767 26.263c-5.505-.019-9.964-4.477-9.983-9.983V9.82c0-.649.526-1.174 1.174-1.174.649 0 1.175.525 1.175 1.174v6.46c0 4.226 3.426 7.652 7.652 7.652s7.652-3.426 7.652-7.652v-6.184c-.029-.101-.043-.206-.041-.311-.011-.307.102-.605.315-.826.212-.222.505-.347.812-.349h.094c.649 0 1.175.526 1.175 1.175v6.46c.001 2.658-1.054 5.208-2.935 7.088-1.88 1.88-4.431 2.934-7.09 2.93z" transform="translate(-247 -147) translate(15 102) translate(232 45)"/>
                    <path fill="#C9C9C9" fill-rule="nonzero" d="M77.066 5.157l-.205-1.174c-.231-1.355-1.404-2.346-2.778-2.35H29.105c-1.374.004-2.547.995-2.778 2.35l-.206 1.174h50.945z" transform="translate(-247 -147) translate(15 102) translate(232 45)"/>
                    <path fill="#0AB81F" fill-rule="nonzero" d="M15.063 47.287L.617 47.24c-.341 0-.617-.41-.617-.916 0-.505.282-.916.622-.916l14.447.047c.34 0 .617.411.617.916 0 .505-.276.916-.623.916zM15.052 52.778H6.9c-.346 0-.622-.41-.616-.922.006-.51.276-.916.616-.91h8.157c.341 0 .588.411.588.916 0 .505-.253.916-.593.916zM21.53 36.529l37.296.475c1.538.023 2.777 1.27 2.79 2.808l.14 19.197c.004.757-.295 1.483-.83 2.018-.535.535-1.261.834-2.018.83l-37.49-.258c-1.556-.01-2.81-1.275-2.808-2.83l.06-19.427c.002-.753.306-1.474.843-2.003.537-.528 1.263-.82 2.016-.81z" transform="translate(-247 -147) translate(15 102) translate(232 45)"/>
                    <path stroke="#FFF" stroke-linecap="round" stroke-linejoin="round" stroke-width="2.575" d="M52.114 40.634s.211 4.158 4.927 4.91v7.046s-4.21.412-4.604 5.585l-24.248-.458c-.514-2.433-2.298-4.4-4.67-5.15l-.11-6.848s4.163-1.515 4.345-5.355l24.36.27z" transform="translate(-247 -147) translate(15 102) translate(232 45)"/>
                    <path fill="#FFF" d="M37.508 48.468c.075-.252.2-.487.37-.687.164-.19.364-.346.588-.458.456-.232.994-.232 1.45 0 .24.12.458.278.646.47.189.183.332.408.417.657v1.592c-.05.175-.134.338-.246.481-.234.298-.55.519-.91.635-.167.057-.342.087-.517.088-.262.004-.52-.05-.758-.159-.223-.107-.422-.257-.587-.44-.177-.189-.315-.41-.406-.652-.094-.248-.141-.51-.14-.775-.002-.266.042-.53.129-.782m-.64 2.972c.531.6 1.295.942 2.096.94.432-.003.856-.114 1.233-.323.392-.207.722-.513.958-.887v.44c.019.198.116.38.27.505.164.14.372.216.587.218l.587-.07v-1.034c-.1-.002-.197-.042-.27-.112-.06-.092-.09-.201-.082-.311v-5.58h.763v-.798h-.763v-.728H40.99v.74h-1.25v.799h1.226v2.09c-.213-.364-.513-.669-.875-.887-.383-.24-.827-.364-1.28-.358-.51-.01-1.01.138-1.433.423-.42.293-.754.692-.969 1.157-.242.495-.365 1.04-.358 1.591-.004.416.07.828.217 1.216.13.367.33.706.588.998M43.023 53.36h-6.254c-.267-.025-.523.104-.664.33-.14.228-.14.515 0 .742.14.228.397.356.664.331h6.254c.266.025.523-.103.663-.33.141-.228.141-.515 0-.742-.14-.227-.397-.356-.663-.331" transform="translate(-247 -147) translate(15 102) translate(232 45)"/>
                </g>
            </g>
        </g>
    </g>
</svg>
