<svg xmlns="http://www.w3.org/2000/svg" width="34" height="32" viewBox="0 0 34 32">
    <g fill="none" fill-rule="evenodd">
        <g>
            <g>
                <g>
                    <g>
                        <path fill="#FEFEFE" d="M27.864 28.404c0 .72-.587 1.307-1.308 1.307H7.202c-.72 0-1.307-.586-1.307-1.307V2.425h21.969v25.979zM32.808.26H.95C.428.261 0 .69 0 1.213c0 .523.428.95.951.95h3.113v26.24c0 1.734 1.405 3.139 3.138 3.139h19.354c1.734 0 3.139-1.405 3.139-3.138V2.164h3.113c.523 0 .95-.428.95-.951 0-.524-.427-.952-.95-.952z" transform="translate(-126 -180) translate(28 180) translate(89) translate(9)"/>
                        <path fill="#181A41" d="M16.111 15.71l-1.648-1.978c-.157-.19-.39-.298-.636-.298-.456 0-.827.371-.827.828v.06c0 .197.07.387.197.537l3.634 4.275c.042.05.104.078.169.078.065 0 .127-.029.17-.078l3.633-4.275c.127-.15.197-.34.197-.536v-.061c0-.457-.371-.828-.827-.828-.247 0-.478.109-.636.298l-1.648 1.978v-4.821c0-.49-.399-.889-.889-.889s-.889.399-.889.889v4.82z" transform="translate(-126 -180) translate(28 180) translate(89) translate(9)"/>
                    </g>
                </g>
            </g>
        </g>
    </g>
</svg>
