<svg xmlns="http://www.w3.org/2000/svg" width="28" height="34" viewBox="0 0 28 34">
    <g fill="none" fill-rule="evenodd" opacity=".4">
        <g>
            <g>
                <g>
                    <g>
                        <path fill="#181A41" d="M14.867 20.103c-.453.481-1.072.786-1.857.916-.046.018-.07.046-.07.083l.015.902c0 .046-.017.085-.049.117-.032.033-.071.049-.118.049h-1.386c-.046 0-.085-.016-.118-.049-.032-.032-.048-.071-.048-.117l.014-.916c0-.037-.023-.065-.07-.083-.785-.157-1.402-.481-1.85-.971-.448-.49-.672-1.105-.672-1.845v-.305c0-.046.016-.086.048-.118.032-.033.072-.049.118-.049h1.497c.046 0 .085.016.118.049.032.032.048.072.048.118v.208c0 .37.162.682.486.936.323.255.766.382 1.33.382.472 0 .82-.104 1.047-.312.226-.209.34-.465.34-.77 0-.222-.07-.41-.209-.562-.138-.153-.33-.287-.575-.403-.245-.115-.63-.275-1.157-.478-.6-.213-1.104-.43-1.511-.652-.407-.222-.75-.525-1.033-.909-.282-.383-.422-.857-.422-1.421 0-.712.214-1.302.644-1.77.43-.466 1.01-.769 1.74-.907.046-.02.069-.047.069-.084l-.028-1.012c0-.047.016-.086.049-.118.032-.033.071-.049.118-.049h1.386c.046 0 .085.016.117.049.033.032.049.071.049.118l-.014 1.04c0 .037.023.065.07.083.766.158 1.376.493 1.829 1.006.452.513.679 1.14.679 1.88v.207c0 .047-.016.086-.048.119-.033.032-.072.048-.118.048h-1.511c-.047 0-.086-.016-.118-.048-.032-.033-.048-.072-.048-.119v-.11c0-.389-.153-.72-.458-.992-.305-.273-.72-.41-1.247-.41-.416 0-.74.093-.97.278-.232.185-.347.44-.347.763 0 .231.067.425.201.583.134.157.335.3.603.43.268.13.684.296 1.247.499.62.231 1.11.44 1.47.624.36.185.684.463.97.832.286.37.43.847.43 1.43 0 .74-.227 1.35-.68 1.83" transform="translate(-308 -180) translate(28.075 180.62) translate(272.725) translate(8.021)"/>
                        <path fill="#FEFEFE" d="M22.477 23.117v4.94c0 1.16-.94 2.1-2.098 2.1H3.826c-1.159 0-2.098-.94-2.098-2.1V4.077c0-1.16.939-2.1 2.098-2.1h16.553c1.158 0 2.098.94 2.098 2.1v3.759c0 .477.386.864.864.864.477 0 .863-.387.863-.864v-3.76c0-2.114-1.713-3.828-3.825-3.828H3.826C1.713.247 0 1.961 0 4.076v23.982c0 2.114 1.713 3.828 3.826 3.828h16.553c2.112 0 3.825-1.714 3.825-3.828v-4.94c0-.478-.386-.865-.863-.865-.478 0-.864.387-.864.864" transform="translate(-308 -180) translate(28.075 180.62) translate(272.725) translate(8.021)"/>
                    </g>
                </g>
            </g>
        </g>
    </g>
</svg>
