<svg xmlns="http://www.w3.org/2000/svg" width="38" height="33" viewBox="0 0 38 33">
    <g fill="none" fill-rule="evenodd">
        <g>
            <g>
                <g>
                    <g>
                        <path fill="#FEFEFE" d="M36.247 16.556c0 .435-.354.789-.788.789h-5.52c-1.738 0-3.153-1.415-3.153-3.154 0-1.739 1.415-3.153 3.154-3.153h5.519c.434 0 .788.353.788.788v4.73zm-3.154 10.25H5.785c-.869 0-1.576-.708-1.576-1.577V3.154c0-.87.707-1.577 1.576-1.577h27.308c.87 0 1.577.707 1.577 1.577V9.46h-4.73c-2.609 0-4.73 2.122-4.73 4.73 0 2.609 2.121 4.73 4.73 4.73h4.73v6.308c0 .87-.707 1.576-1.577 1.576zm3.154-17.2V3.154c0-1.74-1.414-3.154-3.154-3.154H5.785C4.046 0 2.632 1.414 2.632 3.154v22.075c0 1.74 1.414 3.153 3.153 3.153h27.308c1.74 0 3.154-1.414 3.154-3.153v-6.452c.916-.327 1.577-1.194 1.577-2.22v-4.73c0-1.027-.661-1.894-1.577-2.22z" transform="translate(-35 -181) translate(28 180) translate(0 1) translate(7)"/>
                        <path fill="#FEFEFE" d="M30.234 12.614c-.869 0-1.576.708-1.576 1.577 0 .87.707 1.577 1.576 1.577.87 0 1.577-.707 1.577-1.577 0-.869-.707-1.577-1.577-1.577" transform="translate(-35 -181) translate(28 180) translate(0 1) translate(7)"/>
                        <path fill="#181A41" d="M18.966 23.47c0 5.238-4.246 9.483-9.483 9.483S0 28.708 0 23.47c0-5.237 4.246-9.483 9.483-9.483s9.483 4.246 9.483 9.483" transform="translate(-35 -181) translate(28 180) translate(0 1) translate(7)"/>
                        <path fill="#FEFEFE" d="M10.807 25.755c0-.354-.099-.635-.295-.845-.196-.209-.53-.402-1-.579-.47-.177-.876-.353-1.217-.527-.34-.175-.633-.376-.877-.602-.244-.227-.434-.493-.57-.8-.135-.306-.203-.67-.203-1.093 0-.73.233-1.327.699-1.793.466-.466 1.085-.738 1.857-.816v-1.385h1.036v1.405c.764.107 1.361.426 1.793.954.431.529.647 1.214.647 2.055h-1.87c0-.518-.107-.905-.32-1.162-.214-.256-.5-.385-.858-.385-.354 0-.628.1-.823.301-.194.201-.29.478-.29.832 0 .328.094.591.284.79.19.198.543.401 1.058.608.516.207.94.403 1.272.586.333.183.613.39.842.621.228.231.403.494.524.79.12.296.181.64.181 1.032 0 .734-.228 1.33-.686 1.787-.457.457-1.087.727-1.89.809v1.288h-1.03v-1.282c-.884-.095-1.569-.409-2.054-.942-.486-.532-.728-1.241-.728-2.126h1.87c0 .514.122.908.366 1.181.244.274.594.411 1.052.411.38 0 .68-.1.9-.3.22-.201.33-.472.33-.813" transform="translate(-35 -181) translate(28 180) translate(0 1) translate(7)"/>
                    </g>
                </g>
            </g>
        </g>
    </g>
</svg>
