<svg xmlns="http://www.w3.org/2000/svg" width="25" height="32" viewBox="0 0 25 32">
    <g fill="none" fill-rule="evenodd">
        <g>
            <g>
                <g>
                    <g>
                        <path fill="#181A41" d="M14.828 20.034c-.452.48-1.07.784-1.853.913-.046.018-.069.046-.069.082l.014.899c0 .046-.016.085-.048.117-.033.033-.072.049-.118.049h-1.382c-.047 0-.085-.016-.118-.049-.032-.032-.048-.071-.048-.117l.014-.913c0-.036-.023-.064-.07-.083-.783-.156-1.398-.479-1.845-.967-.447-.489-.67-1.101-.67-1.839v-.304c0-.046.016-.085.048-.117.032-.033.071-.049.118-.049h1.493c.046 0 .085.016.117.049.032.032.048.071.048.117v.208c0 .368.161.68.484.933.323.253.765.38 1.327.38.47 0 .818-.104 1.044-.311.226-.208.339-.463.339-.767 0-.222-.07-.408-.207-.56-.139-.152-.33-.286-.574-.401-.244-.115-.63-.274-1.155-.477-.599-.212-1.1-.429-1.506-.65-.406-.22-.75-.523-1.03-.905-.281-.382-.422-.855-.422-1.417 0-.71.214-1.297.643-1.763.429-.465 1.007-.767 1.735-.905.046-.019.07-.046.07-.083l-.029-1.01c0-.045.016-.084.049-.117.032-.032.07-.048.117-.048h1.383c.046 0 .085.016.117.048.032.033.048.072.048.118l-.013 1.037c0 .036.023.064.069.083.765.156 1.373.49 1.824 1.002.452.511.678 1.135.678 1.873v.207c0 .046-.016.086-.048.118-.033.032-.072.048-.118.048h-1.507c-.046 0-.085-.016-.117-.048-.033-.032-.049-.072-.049-.118v-.11c0-.387-.152-.717-.456-.989-.304-.271-.719-.408-1.244-.408-.415 0-.737.093-.968.277-.23.184-.345.438-.345.76 0 .23.067.424.2.58.134.157.334.3.602.43.267.128.681.294 1.244.497.617.23 1.106.438 1.465.622.36.185.682.461.968.83.285.368.428.843.428 1.423 0 .738-.226 1.346-.677 1.825" transform="translate(-308 -180) translate(28 180) translate(272) translate(8)"/>
                        <path fill="#FEFEFE" d="M22.417 23.038v4.923c0 1.156-.937 2.093-2.092 2.093H3.815c-1.155 0-2.092-.937-2.092-2.093v-23.9c0-1.155.937-2.092 2.093-2.092h16.509c1.155 0 2.092.937 2.092 2.093v3.746c0 .475.385.861.861.861s.862-.386.862-.861V4.062c0-2.107-1.708-3.816-3.815-3.816H3.815C1.709.246 0 1.955 0 4.062v23.9c0 2.107 1.708 3.815 3.816 3.815h16.509c2.107 0 3.815-1.708 3.815-3.816v-4.923c0-.476-.386-.862-.862-.862s-.861.386-.861.862" transform="translate(-308 -180) translate(28 180) translate(272) translate(8)"/>
                    </g>
                </g>
            </g>
        </g>
    </g>
</svg>
