<svg xmlns="http://www.w3.org/2000/svg" width="35" height="34" viewBox="0 0 35 34">
    <g fill="none" fill-rule="evenodd" opacity=".4">
        <g>
            <g>
                <g>
                    <g transform="translate(-217 -180) translate(28.075 180.62) translate(177.472) translate(12.032)">
                        <path fill="#FEFEFE" d="M.987 22.04c.545 0 .987.442.987.987v5.15c0 .955.774 1.73 1.728 1.73h4.83c.545 0 .986.442.986.987 0 .546-.441.988-.987.988H3.702C1.666 31.882 0 30.215 0 28.177v-5.15c0-.545.442-.988.987-.988zm29.883 0c.545 0 .987.442.987.987v5.15c0 2.038-1.666 3.705-3.702 3.705h-5.48c-.545 0-.987-.442-.987-.988 0-.545.442-.988.987-.988h5.48c.954 0 1.728-.774 1.728-1.729v-5.15c0-.545.442-.988.987-.988zM8.531 0c.546 0 .987.442.987.988s-.441.988-.987.988H3.702c-.954 0-1.728.774-1.728 1.729v5.168c0 .545-.442.988-.987.988C.442 9.86 0 9.418 0 8.873V3.705C0 1.667 1.666 0 3.702 0zm19.624 0c2.036 0 3.702 1.667 3.702 3.705v5.168c0 .545-.442.988-.987.988-.545 0-.987-.443-.987-.988V3.705c0-.955-.774-1.729-1.728-1.729h-5.48c-.545 0-.987-.442-.987-.988S22.13 0 22.675 0z"/>
                        <rect width="20.053" height="20.069" x="6.016" y="6.021" fill="#FEFEFE" rx="3"/>
                        <path fill="#181A41" d="M29.902 17.291H1.955C.88 17.291 0 16.614 0 15.786c0-.828.88-1.505 1.955-1.505h27.947c1.076 0 1.956.677 1.956 1.505 0 .828-.88 1.505-1.956 1.505"/>
                    </g>
                </g>
            </g>
        </g>
    </g>
</svg>
