<svg xmlns="http://www.w3.org/2000/svg" width="40" height="35" viewBox="0 0 40 35">
    <g fill="none" fill-rule="evenodd" opacity=".4">
        <g>
            <g>
                <g>
                    <g>
                        <path fill="#FEFEFE" d="M36.344 16.613c0 .437-.355.792-.79.792H30.02c-1.744 0-3.162-1.42-3.162-3.165s1.418-3.164 3.162-3.164h5.533c.436 0 .79.354.79.79v4.747zM33.18 26.898H5.801c-.872 0-1.581-.71-1.581-1.582V3.164c0-.872.71-1.582 1.58-1.582h27.381c.872 0 1.582.71 1.582 1.582v6.33H30.02c-2.616 0-4.744 2.129-4.744 4.746 0 2.618 2.128 4.747 4.744 4.747h4.743v6.329c0 .872-.71 1.582-1.582 1.582zm3.163-17.259V3.164C36.344 1.42 34.926 0 33.18 0H5.801C4.057 0 2.639 1.42 2.639 3.164v22.152c0 1.745 1.418 3.164 3.162 3.164h27.38c1.745 0 3.163-1.419 3.163-3.164V18.84c.918-.327 1.58-1.197 1.58-2.228v-4.746c0-1.03-.662-1.9-1.58-2.228z" transform="translate(-35 -181) translate(28.075 180.62) translate(0 1.003) translate(7.019)"/>
                        <path fill="#FEFEFE" d="M30.315 12.658c-.872 0-1.581.71-1.581 1.582 0 .873.71 1.583 1.581 1.583.872 0 1.581-.71 1.581-1.583 0-.872-.71-1.582-1.581-1.582" transform="translate(-35 -181) translate(28.075 180.62) translate(0 1.003) translate(7.019)"/>
                        <path fill="#181A41" d="M19.016 23.551c0 5.256-4.257 9.516-9.508 9.516-5.25 0-9.508-4.26-9.508-9.516 0-5.255 4.257-9.515 9.508-9.515 5.251 0 9.508 4.26 9.508 9.515" transform="translate(-35 -181) translate(28.075 180.62) translate(0 1.003) translate(7.019)"/>
                        <path fill="#FEFEFE" d="M10.835 25.844c0-.355-.098-.638-.295-.848-.197-.21-.531-.403-1.003-.58-.471-.179-.878-.355-1.22-.53-.342-.176-.635-.377-.88-.604-.244-.227-.434-.495-.57-.802-.136-.308-.204-.674-.204-1.098 0-.732.233-1.332.7-1.8.468-.467 1.089-.74 1.863-.817v-1.39h1.038v1.41c.766.107 1.365.427 1.798.957.433.53.649 1.218.649 2.062h-1.876c0-.52-.107-.908-.321-1.166-.214-.257-.5-.386-.86-.386-.354 0-.63.1-.824.302-.195.201-.292.48-.292.835 0 .329.095.593.285.792.19.199.544.403 1.062.61.517.208.942.404 1.275.588.333.184.614.392.844.624.229.232.404.495.525.792.121.297.182.642.182 1.036 0 .736-.23 1.334-.688 1.792-.459.46-1.09.73-1.895.812v1.293H9.096v-1.286c-.887-.095-1.574-.41-2.06-.945-.487-.535-.73-1.246-.73-2.134H8.18c0 .516.122.91.367 1.186.244.275.596.412 1.054.412.381 0 .682-.1.902-.302.22-.201.331-.473.331-.815" transform="translate(-35 -181) translate(28.075 180.62) translate(0 1.003) translate(7.019)"/>
                    </g>
                </g>
            </g>
        </g>
    </g>
</svg>
