<svg xmlns="http://www.w3.org/2000/svg" width="37" height="34" viewBox="0 0 37 34">
    <g fill="none" fill-rule="evenodd" opacity=".4">
        <g>
            <g>
                <g>
                    <g>
                        <path fill="#FEFEFE" d="M27.938 28.501c0 .724-.588 1.313-1.311 1.313H7.222c-.723 0-1.312-.589-1.312-1.313V2.434h22.028V28.5zM32.895.262H.954C.429.262 0 .692 0 1.217c0 .525.43.954.954.954h3.12v26.33c0 1.74 1.41 3.15 3.148 3.15h19.405c1.738 0 3.147-1.41 3.147-3.15V2.171h3.121c.524 0 .953-.43.953-.954 0-.525-.429-.955-.953-.955z" transform="translate(-126 -180) translate(28.075 180.62) translate(89.237) translate(9.024)"/>
                        <path fill="#181A41" d="M16.154 15.764l-1.652-1.985c-.158-.19-.39-.298-.638-.298-.457 0-.83.372-.83.83v.061c0 .197.07.388.198.538l3.644 4.29c.042.05.104.078.17.078.065 0 .127-.028.17-.078l3.643-4.29c.127-.15.197-.341.197-.538v-.06c0-.459-.372-.831-.83-.831-.247 0-.479.109-.637.298l-1.652 1.985v-4.838c0-.491-.4-.892-.892-.892-.491 0-.89.4-.89.892v4.838z" transform="translate(-126 -180) translate(28.075 180.62) translate(89.237) translate(9.024)"/>
                    </g>
                </g>
            </g>
        </g>
    </g>
</svg>
