<svg xmlns="http://www.w3.org/2000/svg" width="32" height="32" viewBox="0 0 32 32">
    <g fill="none" fill-rule="evenodd">
        <g>
            <g>
                <g>
                    <g transform="translate(-217 -180) translate(28 180) translate(177) translate(12)">
                        <path fill="#FEFEFE" d="M.985 21.964c.543 0 .984.44.984.984v5.132c0 .952.771 1.723 1.723 1.723H8.51c.544 0 .984.441.984.985s-.44.985-.984.985H3.692C1.662 31.773 0 30.11 0 28.08v-5.132c0-.544.44-.984.985-.984zm29.803 0c.544 0 .985.44.985.984v5.132c0 2.031-1.662 3.693-3.693 3.693h-5.465c-.544 0-.985-.441-.985-.985s.44-.985.985-.985h5.465c.952 0 1.723-.771 1.723-1.723v-5.132c0-.543.441-.984.985-.984zM8.508 0c.545 0 .985.44.985.985 0 .543-.44.984-.984.984H3.692c-.952 0-1.723.772-1.723 1.723v5.15c0 .544-.44.985-.984.985S0 9.387 0 8.842v-5.15C0 1.662 1.662 0 3.692 0zM28.08 0c2.031 0 3.693 1.662 3.693 3.692v5.15c0 .544-.441.985-.985.985s-.985-.44-.985-.985v-5.15c0-.951-.771-1.723-1.723-1.723h-5.465c-.544 0-.985-.44-.985-.984S22.07 0 22.615 0z"/>
                        <rect width="20" height="20" x="6" y="6" fill="#FEFEFE" rx="3"/>
                        <path fill="#181A41" d="M29.823 17.232H1.95c-1.072 0-1.95-.675-1.95-1.5s.878-1.5 1.95-1.5h27.873c1.072 0 1.95.675 1.95 1.5s-.878 1.5-1.95 1.5"/>
                    </g>
                </g>
            </g>
        </g>
    </g>
</svg>
