<svg xmlns="http://www.w3.org/2000/svg" width="26" height="24" viewBox="0 0 26 24">
    <g fill="none" fill-rule="evenodd">
        <g fill="#2DBB54">
            <g>
                <path d="M40.81 27.168c.461 0 .83.389.8.85C41.172 34.697 35.596 40 28.806 40S16.44 34.699 16.002 28.017c-.03-.46.339-.85.8-.85.425 0 .773.332.801.755.39 5.841 5.265 10.474 11.203 10.474s10.814-4.633 11.203-10.474c.028-.423.376-.754.8-.754zM28.806 16c.293 0 .549.158.689.393l4.286 4.286c.285.285.31.73.078 1.044l-.078.09c-.313.313-.821.313-1.134 0l-3.039-3.039v12.1c0 .442-.359.801-.802.801-.443 0-.802-.359-.802-.802V18.782l-3.031 3.031c-.285.285-.73.31-1.044.078l-.09-.078c-.314-.313-.314-.821 0-1.134l4.267-4.267c.137-.246.399-.412.7-.412z" transform="translate(-31 -554) translate(15 538) matrix(1 0 0 -1 0 56)"/>
            </g>
        </g>
    </g>
</svg>
