<svg width="38" height="32" viewBox="0 0 38 32" fill="none" xmlns="http://www.w3.org/2000/svg">
<path fill-rule="evenodd" clip-rule="evenodd" d="M24.9632 31.4566H34.3025C35.7866 31.4566 36.999 30.2493 37.005 28.7651L37.0098 27.5764H24.9632V31.4566ZM0.517356 27.1883H14.8411L14.5002 26.9527C12.2555 25.4004 11.2022 22.7634 11.8168 20.2344L11.8556 20.0745H0.517356V27.1883ZM0.517356 19.6865H11.9761L12.0068 19.601C12.3446 18.6642 12.9181 17.795 13.6653 17.0875C13.9663 16.8024 14.132 16.4163 14.132 16.0002C14.132 15.5842 13.9663 15.1981 13.6653 14.913C12.7776 14.0723 12.1489 13.0279 11.8474 11.8927L11.8218 11.7966H0.517356V19.6865ZM25.5327 19.6865H37.0417L37.0736 11.7966H25.6868L25.6614 11.8927C25.3598 13.0279 24.7311 14.0725 23.8434 14.913C23.5424 15.1981 23.3767 15.5842 23.3767 16.0002C23.3767 16.4163 23.5424 16.8024 23.8434 17.0875C24.5906 17.795 25.1642 18.6642 25.5019 19.601L25.5327 19.6865ZM0.517356 11.4086H11.7387L11.7156 11.2594C11.3454 8.87178 12.4125 6.49162 14.5002 5.0479L14.8411 4.81209H0.517356V11.4086ZM25.8537 10.7209C25.8424 10.8939 25.8226 11.0701 25.7932 11.2594L25.7701 11.4086H37.0752L37.1019 4.81209H22.6684L23.0091 5.0479C24.9117 6.36367 25.9726 8.44791 25.8592 10.6375L25.8537 10.7209ZM15.7995 4.81209L15.7734 4.82433C13.1752 6.04261 11.8051 8.52279 12.1993 11.3062C12.2156 11.3834 12.2312 11.4596 12.2466 11.5351C12.4397 12.4843 12.6221 13.3809 14.3994 14.9964L14.4088 15.0052L14.4198 15.0117C14.6417 15.1449 14.7724 15.4901 14.7695 15.9354C14.7668 16.3459 14.657 16.6974 14.5306 16.8781L14.528 16.8752C13.2895 18.0185 12.6013 18.8328 12.3079 20.0745H12.3066L12.2845 20.1765C11.524 23.7041 13.6978 26.4672 16.2381 27.3735C16.5036 27.4684 16.5973 27.5415 16.6294 27.5764H0.517356V28.7542C0.517356 30.2444 1.72978 31.4566 3.21992 31.4566H24.5751V27.2693C24.5751 27.2247 24.6114 27.1883 24.6559 27.1883H37.0114L37.0402 20.0745C37.0402 20.0745 26.5705 20.0766 25.2217 20.0766C25.2095 20.0766 25.204 20.0745 25.2036 20.0745C25.2036 20.0745 25.2036 20.0745 25.2036 20.0746C25.1995 20.07 25.1958 20.0535 25.1927 20.0401C24.8953 18.8162 24.2145 18.0141 22.9808 16.8752L22.9781 16.8781C22.8518 16.6974 22.7419 16.3459 22.7393 15.9354C22.7363 15.4901 22.8671 15.1449 23.0891 15.0117L23.1 15.0052L23.1094 14.9964C24.4684 13.761 25.1972 12.7717 25.3622 10.8587H25.3635L25.3723 10.7387C25.5514 8.26557 24.1241 5.94405 21.736 4.82433L21.71 4.81209H21.5747C20.7022 4.38875 19.7279 4.16505 18.7547 4.16505C17.7816 4.16505 16.8073 4.38862 15.9347 4.81209H15.7995ZM0.517356 4.42413H15.9946L16.0216 4.41083C16.8657 3.99627 17.8108 3.77709 18.7547 3.77709C19.6986 3.77709 20.6436 3.99627 21.4879 4.41083L21.5147 4.42413H24.5751V0.543856H3.21992C1.72978 0.543856 0.517356 1.75615 0.517356 3.24628V4.42413ZM24.9632 4.42413H37.1035L37.1082 3.25719C37.1111 2.53327 36.8314 1.85204 36.3206 1.33933C35.8097 0.826348 35.1297 0.543856 34.4058 0.543856H24.9632V4.42413ZM34.4058 0.155762C35.2335 0.155762 36.0113 0.478819 36.5955 1.06548C37.1797 1.65201 37.4996 2.43099 37.4963 3.25878L37.3931 28.7667C37.3862 30.4639 35.9998 31.8447 34.3025 31.8447H3.21992C1.51579 31.8447 0.129395 30.4583 0.129395 28.7542V3.24628C0.129395 1.54215 1.51579 0.155762 3.21992 0.155762H34.4058Z" fill="#363636"/>
</svg>
