<svg width="36" height="36" viewBox="0 0 36 36" fill="none" xmlns="http://www.w3.org/2000/svg">
<circle cx="18" cy="18" r="17.75" fill="#F5D09A" stroke="#F9D08F" stroke-width="0.5"/>
<mask id="mask0_2423_40440" style="mask-type:alpha" maskUnits="userSpaceOnUse" x="0" y="0" width="36" height="36">
<circle cx="18" cy="18" r="17.75" fill="white" stroke="white" stroke-width="0.5"/>
</mask>
<g mask="url(#mask0_2423_40440)">
<path fill-rule="evenodd" clip-rule="evenodd" d="M14.0712 23.9225V23.9236C14.5745 23.9236 15.0778 23.9191 15.5809 23.9266C15.7116 23.9286 15.7461 23.8864 15.7434 23.7565C15.7357 23.3803 15.7356 23.0037 15.7435 22.6275C15.7461 22.5 15.7043 22.4707 15.5867 22.4712C14.5737 22.4755 13.5606 22.4757 12.5476 22.4711C12.4197 22.4705 12.3772 22.5085 12.3799 22.6416C12.3873 23.011 12.3887 23.3809 12.3793 23.7503C12.3756 23.8986 12.4313 23.9269 12.5615 23.9252C13.0647 23.9184 13.5679 23.9225 14.0712 23.9225ZM14.0553 20.633V20.6344C14.5593 20.6344 15.0633 20.6302 15.5672 20.6372C15.7031 20.639 15.7471 20.5973 15.7436 20.4554C15.7346 20.0923 15.7366 19.7286 15.7429 19.3653C15.745 19.2428 15.7233 19.1889 15.5854 19.1896C14.5709 19.1957 13.5564 19.1955 12.542 19.1899C12.4072 19.1892 12.3778 19.2392 12.3802 19.365C12.387 19.7283 12.3894 20.092 12.3814 20.4552C12.3782 20.6002 12.4302 20.6372 12.5631 20.6356C13.0604 20.6292 13.5579 20.633 14.0553 20.633ZM14.0623 17.3447V17.3435C14.5657 17.3435 15.069 17.3404 15.5723 17.3458C15.6915 17.3471 15.7465 17.3256 15.7429 17.1835C15.7334 16.8074 15.7355 16.4307 15.7432 16.0545C15.7458 15.928 15.7027 15.8962 15.5859 15.8966C14.5727 15.9004 13.5595 15.9009 12.5464 15.8963C12.4156 15.8957 12.3777 15.9423 12.3801 16.0713C12.3871 16.4341 12.3914 16.7974 12.3807 17.16C12.376 17.3177 12.4322 17.3497 12.5721 17.3476C13.0687 17.3401 13.5656 17.3447 14.0623 17.3447ZM14.0698 12.6124C13.559 12.6124 13.0482 12.6158 12.5375 12.6099C12.419 12.6085 12.3778 12.6427 12.38 12.7677C12.3867 13.1446 12.3857 13.5219 12.3807 13.8989C12.3791 14.0168 12.4097 14.0648 12.5346 14.0642C13.5561 14.0594 14.5777 14.0592 15.5993 14.0629C15.7139 14.0633 15.7432 14.0234 15.7416 13.9119C15.7365 13.5416 15.7336 13.1711 15.7439 12.801C15.748 12.6543 15.7152 12.605 15.5628 12.6083C15.0653 12.6192 14.5675 12.6124 14.0698 12.6124ZM22.9667 23.8517C23.4769 23.8517 23.987 23.8478 24.4971 23.8545C24.6233 23.8561 24.6662 23.8214 24.6629 23.6868C24.6541 23.3171 24.6539 22.947 24.6618 22.5773C24.6647 22.4414 24.6328 22.3916 24.4908 22.3925C23.4706 22.3985 22.4502 22.398 21.43 22.3938C21.3095 22.3933 21.2726 22.4308 21.2746 22.5538C21.2808 22.9303 21.281 23.307 21.2732 23.6835C21.2704 23.8133 21.3058 23.8565 21.4363 23.8546C21.9464 23.8475 22.4566 23.8517 22.9667 23.8517ZM22.9665 19.081V19.08C22.456 19.08 21.9455 19.0827 21.435 19.078C21.3224 19.0769 21.2707 19.1003 21.2734 19.232C21.2811 19.6222 21.2791 20.0127 21.274 20.4029C21.2725 20.5099 21.3084 20.5404 21.4094 20.5401C22.45 20.5372 23.4906 20.5369 24.5312 20.5404C24.6377 20.5407 24.6632 20.5008 24.6619 20.3991C24.657 20.0156 24.6544 19.6318 24.6619 19.2484C24.6644 19.117 24.6276 19.0763 24.4978 19.0781C23.9874 19.0853 23.4769 19.081 22.9665 19.081ZM22.9894 15.7681V15.7669C22.4723 15.7669 21.9553 15.771 21.4383 15.7641C21.3098 15.7624 21.2702 15.8012 21.273 15.9338C21.281 16.3105 21.28 16.6876 21.2735 17.0643C21.2713 17.1846 21.3006 17.2267 21.4254 17.2261C22.4529 17.2211 23.4805 17.2214 24.508 17.2258C24.6274 17.2264 24.6656 17.1938 24.6629 17.0679C24.655 16.6979 24.6535 16.3274 24.6634 15.9576C24.6673 15.8109 24.6342 15.7608 24.4816 15.7641C23.9844 15.7748 23.4868 15.7681 22.9894 15.7681ZM8.4707 26.4705V25.1372C9.02044 25.1405 9.57057 25.133 10.1198 25.1529C10.3264 25.1605 10.3612 25.0919 10.361 24.8959C10.355 20.5196 10.3569 16.1433 10.3523 11.767C10.3522 11.6016 10.3887 11.526 10.5571 11.4802C12.8824 10.8477 15.2053 10.2061 17.5288 9.56654C17.7687 9.50052 17.7688 9.50012 17.7688 9.75215C17.7688 13.7312 17.7688 17.7103 17.7688 21.6894C17.7688 22.7666 17.7736 23.8439 17.7643 24.9211C17.7626 25.1114 17.8193 25.1582 17.9946 25.1512C18.3412 25.1375 18.6892 25.1328 19.0353 25.1515C19.2361 25.1623 19.2802 25.1021 19.2798 24.8988C19.2733 21.29 19.2763 17.6812 19.2719 14.0725C19.2717 13.9175 19.3148 13.8842 19.4587 13.8841C21.8093 13.8836 24.1598 13.8787 26.5104 13.8685C26.6651 13.8679 26.7061 13.9105 26.7058 14.0696C26.7009 16.3386 26.7028 18.6075 26.7029 20.8765C26.7029 22.2365 26.7021 23.5965 26.7034 24.9565C26.7035 25.0409 26.6627 25.151 26.8213 25.1489C27.4103 25.1407 27.9994 25.1405 28.5884 25.1372V26.4705H8.4707Z" fill="url(#paint0_linear_2423_40440)"/>
</g>
<defs>
<linearGradient id="paint0_linear_2423_40440" x1="-27.5624" y1="-14.4172" x2="-12.2561" y2="41.7419" gradientUnits="userSpaceOnUse">
<stop stop-color="#FFBA60"/>
<stop offset="1" stop-color="#9A6E2D"/>
</linearGradient>
</defs>
</svg>
