<svg width="336" height="161" viewBox="0 0 336 161" fill="none"
    xmlns="http://www.w3.org/2000/svg">
    <rect x="0.859985" y="0.881104" width="335" height="160" rx="16" fill="#F4F4F4"/>
    <path d="M15.5748 52.6062L19.6068 40.7662H22.8868L26.9188 52.6062H24.3268L23.5748 50.2862H18.9348L18.1668 52.6062H15.5748ZM19.6228 48.1422H22.8868L21.2548 43.1982L19.6228 48.1422ZM28.4797 52.6062V40.7662H30.7357L35.8397 48.3182V40.7662H38.2877V52.6062H35.9997L30.9277 45.2622V52.6062H28.4797ZM47.5756 52.6062V48.5582L43.4156 40.7662H46.1196L48.8076 46.0302L51.4956 40.7662H54.1996L50.0396 48.5582V52.6062H47.5756ZM56.82 39.7102L58.884 37.2462H60.82L62.884 39.7102H60.98L59.844 38.3502L58.724 39.7102H56.82ZM55.7 52.6062V40.7662H63.86V42.9102H58.164V45.5662H63.124V47.6302H58.164V50.4622H63.94V52.6062H55.7ZM65.9797 52.6062V40.7662H68.2357L73.3397 48.3182V40.7662H75.7877V52.6062H73.4997L68.4277 45.2622V52.6062H65.9797ZM81.6516 52.6062V40.7662H84.1156V45.7742L88.3556 40.7662H91.3956L86.4516 46.4462L91.5716 52.6062H88.4196L84.1156 47.3422V52.6062H81.6516ZM93.1047 52.6062V40.7662H95.5687V45.4862H100.177V40.7662H102.641V52.6062H100.177V47.6302H95.5687V52.6062H93.1047ZM104.823 52.6062V40.7662H107.287V52.6062H104.823ZM118.576 52.7662C117.594 52.7662 116.736 52.5955 116 52.2542C115.274 51.9022 114.666 51.4382 114.176 50.8622C113.685 50.2755 113.317 49.6195 113.072 48.8942C112.826 48.1689 112.704 47.4275 112.704 46.6702C112.704 45.9235 112.826 45.1875 113.072 44.4622C113.317 43.7369 113.685 43.0862 114.176 42.5102C114.666 41.9235 115.274 41.4595 116 41.1182C116.736 40.7769 117.594 40.6062 118.576 40.6062C119.397 40.6062 120.096 40.7129 120.672 40.9262C121.258 41.1289 121.744 41.3955 122.128 41.7262C122.522 42.0462 122.837 42.3929 123.072 42.7662C123.317 43.1289 123.498 43.4755 123.616 43.8062C123.733 44.1262 123.808 44.3929 123.84 44.6062C123.882 44.8089 123.904 44.9102 123.904 44.9102H121.456C121.456 44.9102 121.434 44.8409 121.392 44.7022C121.36 44.5529 121.29 44.3769 121.184 44.1742C121.077 43.9609 120.917 43.7529 120.704 43.5502C120.501 43.3475 120.224 43.1769 119.872 43.0382C119.53 42.8889 119.104 42.8142 118.592 42.8142C117.856 42.8142 117.237 43.0062 116.736 43.3902C116.245 43.7635 115.872 44.2435 115.616 44.8302C115.37 45.4169 115.248 46.0302 115.248 46.6702C115.248 47.3102 115.37 47.9289 115.616 48.5262C115.872 49.1129 116.245 49.5982 116.736 49.9822C117.237 50.3555 117.856 50.5422 118.592 50.5422C119.104 50.5422 119.53 50.4729 119.872 50.3342C120.224 50.1955 120.501 50.0249 120.704 49.8222C120.917 49.6089 121.077 49.4009 121.184 49.1982C121.29 48.9849 121.36 48.8089 121.392 48.6702C121.434 48.5315 121.456 48.4622 121.456 48.4622H123.904C123.904 48.4622 123.882 48.5689 123.84 48.7822C123.808 48.9849 123.733 49.2515 123.616 49.5822C123.498 49.9022 123.317 50.2489 123.072 50.6222C122.837 50.9849 122.522 51.3315 122.128 51.6622C121.744 51.9822 121.258 52.2489 120.672 52.4622C120.096 52.6649 119.397 52.7662 118.576 52.7662ZM132.084 39.4382L130.292 39.4222L131.572 36.5422H133.844L132.084 39.4382ZM131.172 52.7662C130.191 52.7662 129.327 52.5955 128.58 52.2542C127.833 51.9022 127.204 51.4382 126.692 50.8622C126.191 50.2755 125.812 49.6195 125.556 48.8942C125.311 48.1689 125.188 47.4275 125.188 46.6702C125.188 45.9129 125.311 45.1769 125.556 44.4622C125.812 43.7369 126.191 43.0862 126.692 42.5102C127.204 41.9342 127.833 41.4755 128.58 41.1342C129.327 40.7822 130.191 40.6062 131.172 40.6062C132.164 40.6062 133.033 40.7822 133.78 41.1342C134.527 41.4755 135.151 41.9342 135.652 42.5102C136.153 43.0862 136.527 43.7369 136.772 44.4622C137.028 45.1769 137.156 45.9129 137.156 46.6702C137.156 47.4275 137.028 48.1689 136.772 48.8942C136.527 49.6195 136.153 50.2755 135.652 50.8622C135.151 51.4382 134.527 51.9022 133.78 52.2542C133.033 52.5955 132.164 52.7662 131.172 52.7662ZM131.172 50.5422C131.919 50.5422 132.548 50.3555 133.06 49.9822C133.572 49.6089 133.956 49.1289 134.212 48.5422C134.468 47.9449 134.596 47.3209 134.596 46.6702C134.596 46.0195 134.468 45.4009 134.212 44.8142C133.956 44.2275 133.572 43.7475 133.06 43.3742C132.548 43.0009 131.919 42.8142 131.172 42.8142C130.425 42.8142 129.796 43.0009 129.284 43.3742C128.783 43.7475 128.404 44.2275 128.148 44.8142C127.892 45.4009 127.764 46.0195 127.764 46.6702C127.764 47.3209 127.892 47.9449 128.148 48.5422C128.404 49.1289 128.783 49.6089 129.284 49.9822C129.796 50.3555 130.425 50.5422 131.172 50.5422Z" fill="#4C6CFD"/>
    <path d="M16.7268 86.428V68.668H24.9348C26.0868 68.668 27.0548 68.868 27.8388 69.268C28.6388 69.668 29.2468 70.204 29.6628 70.876C30.0788 71.532 30.2868 72.26 30.2868 73.06C30.2868 73.844 30.1428 74.5 29.8548 75.028C29.5668 75.54 29.2148 75.956 28.7988 76.276C28.3988 76.58 28.0068 76.788 27.6228 76.9V77.092C28.0548 77.188 28.5348 77.396 29.0628 77.716C29.5908 78.036 30.0468 78.492 30.4309 79.084C30.8148 79.676 31.0068 80.444 31.0068 81.388C31.0068 82.22 30.8068 83.02 30.4068 83.788C30.0228 84.556 29.3908 85.188 28.5108 85.684C27.6468 86.18 26.5188 86.428 25.1268 86.428H16.7268ZM24.3108 71.764H20.4228V75.892H24.3108C25.1428 75.892 25.7508 75.692 26.1348 75.292C26.5188 74.892 26.7108 74.404 26.7108 73.828C26.7108 73.268 26.5188 72.788 26.1348 72.388C25.7508 71.972 25.1428 71.764 24.3108 71.764ZM24.5988 78.724H20.4228V83.332H24.5988C25.5428 83.332 26.2228 83.108 26.6388 82.66C27.0708 82.196 27.2868 81.644 27.2868 81.004C27.2868 80.38 27.0708 79.844 26.6388 79.396C26.2228 78.948 25.5428 78.724 24.5988 78.724ZM40.1075 67.18V66.388C40.1075 66.18 40.1475 65.988 40.2275 65.812C40.3235 65.62 40.4835 65.476 40.7075 65.38L41.0675 65.188C41.4035 65.012 41.6595 64.844 41.8355 64.684C42.0115 64.508 42.0995 64.3 42.0995 64.06C42.0995 63.852 42.0195 63.668 41.8595 63.508C41.7155 63.348 41.4995 63.268 41.2115 63.268C40.9235 63.268 40.7075 63.34 40.5635 63.484C40.4355 63.628 40.3555 63.78 40.3235 63.94C40.2915 64.1 40.2755 64.196 40.2755 64.228H38.1875C38.1715 63.796 38.2595 63.372 38.4515 62.956C38.6595 62.524 38.9875 62.164 39.4355 61.876C39.8835 61.588 40.4675 61.444 41.1875 61.444C42.1475 61.444 42.9075 61.7 43.4675 62.212C44.0275 62.708 44.3075 63.292 44.3075 63.964C44.3075 64.54 44.1155 65.028 43.7315 65.428C43.3635 65.812 42.8915 66.148 42.3155 66.436L42.1955 66.508V67.18H40.1075ZM32.6195 86.428L38.6675 68.668H43.5875L49.6355 86.428H45.7475L44.5955 82.948H37.6595L36.5075 86.428H32.6195ZM38.6675 79.732H43.5875L41.1395 72.316L38.6675 79.732ZM59.4605 86.668C57.9885 86.668 56.6925 86.412 55.5725 85.9C54.4525 85.372 53.5085 84.676 52.7405 83.812C51.9885 82.932 51.4205 81.948 51.0365 80.86C50.6685 79.772 50.4845 78.66 50.4845 77.524C50.4845 76.388 50.6685 75.284 51.0365 74.212C51.4205 73.124 51.9885 72.148 52.7405 71.284C53.5085 70.42 54.4525 69.732 55.5725 69.22C56.6925 68.692 57.9885 68.428 59.4605 68.428C60.9485 68.428 62.2525 68.692 63.3725 69.22C64.4925 69.732 65.4285 70.42 66.1805 71.284C66.9325 72.148 67.4925 73.124 67.8605 74.212C68.2445 75.284 68.4365 76.388 68.4365 77.524C68.4365 78.66 68.2445 79.772 67.8605 80.86C67.4925 81.948 66.9325 82.932 66.1805 83.812C65.4285 84.676 64.4925 85.372 63.3725 85.9C62.2525 86.412 60.9485 86.668 59.4605 86.668ZM59.4605 83.332C60.5805 83.332 61.5245 83.052 62.2925 82.492C63.0605 81.932 63.6365 81.212 64.0205 80.332C64.4045 79.436 64.5965 78.5 64.5965 77.524C64.5965 76.548 64.4045 75.62 64.0205 74.74C63.6365 73.86 63.0605 73.14 62.2925 72.58C61.5245 72.02 60.5805 71.74 59.4605 71.74C58.3405 71.74 57.3965 72.02 56.6285 72.58C55.8765 73.14 55.3085 73.86 54.9245 74.74C54.5405 75.62 54.3485 76.548 54.3485 77.524C54.3485 78.5 54.5405 79.436 54.9245 80.332C55.3085 81.212 55.8765 81.932 56.6285 82.492C57.3965 83.052 58.3405 83.332 59.4605 83.332ZM76.5628 86.428V68.668H80.2588V75.748H87.1708V68.668H90.8668V86.428H87.1708V78.964H80.2588V86.428H76.5628ZM94.1409 86.428V68.668H97.8369V86.428H94.1409ZM110.99 64.372V63.58C110.99 63.372 111.03 63.18 111.11 63.004C111.206 62.828 111.366 62.684 111.59 62.572L111.95 62.38C112.286 62.22 112.542 62.052 112.718 61.876C112.894 61.7 112.982 61.492 112.982 61.252C112.982 61.044 112.902 60.868 112.742 60.724C112.598 60.564 112.382 60.484 112.094 60.484C111.806 60.484 111.59 60.556 111.446 60.7C111.318 60.828 111.238 60.972 111.206 61.132C111.174 61.292 111.158 61.388 111.158 61.42H109.07C109.054 60.988 109.142 60.564 109.334 60.148C109.542 59.716 109.87 59.356 110.318 59.068C110.766 58.78 111.35 58.636 112.07 58.636C113.03 58.636 113.79 58.892 114.35 59.404C114.91 59.9 115.19 60.492 115.19 61.18C115.19 61.74 114.998 62.22 114.614 62.62C114.246 63.004 113.774 63.348 113.198 63.652L113.078 63.7V64.372H110.99ZM102.782 67.084L105.878 63.388H108.782L111.878 67.084H109.022L107.342 65.044L105.638 67.084H102.782ZM101.198 86.428V68.668H113.438V71.884H104.894V75.868H112.334V78.964H104.894V83.212H113.558V86.428H101.198ZM116.617 86.428V68.668H121.609L125.665 77.812L129.841 68.668H134.665V86.428H131.017V74.332L127.369 82.276H123.937L120.265 74.284V86.428H116.617ZM24.8628 113.668C23.3908 113.668 22.1028 113.412 20.9988 112.9C19.9108 112.372 18.9988 111.676 18.2628 110.812C17.5268 109.932 16.9748 108.948 16.6068 107.86C16.2388 106.772 16.0548 105.66 16.0548 104.524C16.0548 103.404 16.2388 102.3 16.6068 101.212C16.9748 100.124 17.5268 99.148 18.2628 98.284C18.9988 97.404 19.9108 96.708 20.9988 96.196C22.1028 95.684 23.3908 95.428 24.8628 95.428C26.0948 95.428 27.1428 95.588 28.0068 95.908C28.8868 96.212 29.6148 96.612 30.1908 97.108C30.7828 97.588 31.2548 98.108 31.6068 98.668C31.9748 99.212 32.2468 99.732 32.4229 100.228C32.5988 100.708 32.7108 101.108 32.7589 101.428C32.8228 101.732 32.8548 101.884 32.8548 101.884H29.1828C29.1828 101.884 29.1508 101.78 29.0868 101.572C29.0388 101.348 28.9348 101.084 28.7748 100.78C28.6148 100.46 28.3748 100.148 28.0548 99.844C27.7508 99.54 27.3348 99.284 26.8068 99.076C26.2948 98.852 25.6548 98.74 24.8868 98.74C23.7828 98.74 22.8548 99.028 22.1028 99.604C21.3668 100.164 20.8068 100.884 20.4228 101.764C20.0548 102.644 19.8708 103.564 19.8708 104.524C19.8708 105.484 20.0548 106.412 20.4228 107.308C20.8068 108.188 21.3668 108.916 22.1028 109.492C22.8548 110.052 23.7828 110.332 24.8868 110.332C25.6548 110.332 26.2948 110.228 26.8068 110.02C27.3348 109.812 27.7508 109.556 28.0548 109.252C28.3748 108.932 28.6148 108.62 28.7748 108.316C28.9348 107.996 29.0388 107.732 29.0868 107.524C29.1508 107.316 29.1828 107.212 29.1828 107.212H32.8548C32.8548 107.212 32.8228 107.372 32.7589 107.692C32.7108 107.996 32.5988 108.396 32.4229 108.892C32.2468 109.372 31.9748 109.892 31.6068 110.452C31.2548 110.996 30.7828 111.516 30.1908 112.012C29.6148 112.492 28.8868 112.892 28.0068 113.212C27.1428 113.516 26.0948 113.668 24.8628 113.668ZM33.5805 113.428L39.6285 95.668H44.5485L50.5965 113.428H46.7085L45.5565 109.948H38.6205L37.4685 113.428H33.5805ZM39.6285 106.732H44.5485L42.1005 99.316L39.6285 106.732ZM42.1005 119.356C41.5405 119.356 41.0765 119.164 40.7085 118.78C40.3565 118.412 40.1805 117.964 40.1805 117.436C40.1805 116.908 40.3565 116.46 40.7085 116.092C41.0765 115.724 41.5405 115.54 42.1005 115.54C42.6445 115.54 43.0925 115.724 43.4445 116.092C43.8125 116.46 43.9965 116.908 43.9965 117.436C43.9965 117.964 43.8125 118.412 43.4445 118.78C43.0925 119.164 42.6445 119.356 42.1005 119.356ZM52.9378 113.428V95.668H56.3218L63.9778 106.996V95.668H67.6498V113.428H64.2178L56.6098 102.412V113.428H52.9378ZM70.9143 113.428V95.668H74.6103V102.748H81.5223V95.668H85.2183V113.428H81.5223V105.964H74.6103V113.428H70.9143ZM94.0237 113.428V95.668H102.232C103.384 95.668 104.352 95.868 105.136 96.268C105.936 96.668 106.544 97.204 106.96 97.876C107.376 98.532 107.584 99.26 107.584 100.06C107.584 100.844 107.44 101.5 107.152 102.028C106.864 102.54 106.512 102.956 106.096 103.276C105.696 103.58 105.304 103.788 104.92 103.9V104.092C105.352 104.188 105.832 104.396 106.36 104.716C106.888 105.036 107.344 105.492 107.728 106.084C108.112 106.676 108.304 107.444 108.304 108.388C108.304 109.22 108.104 110.02 107.704 110.788C107.32 111.556 106.688 112.188 105.808 112.684C104.944 113.18 103.816 113.428 102.424 113.428H94.0237ZM101.608 98.764H97.7197V102.892H101.608C102.44 102.892 103.048 102.692 103.432 102.292C103.816 101.892 104.008 101.404 104.008 100.828C104.008 100.268 103.816 99.788 103.432 99.388C103.048 98.972 102.44 98.764 101.608 98.764ZM101.896 105.724H97.7197V110.332H101.896C102.84 110.332 103.52 110.108 103.936 109.66C104.368 109.196 104.584 108.644 104.584 108.004C104.584 107.38 104.368 106.844 103.936 106.396C103.52 105.948 102.84 105.724 101.896 105.724ZM112.815 94.084L115.911 90.388H118.815L121.911 94.084H119.055L117.351 92.044L115.671 94.084H112.815ZM111.135 113.428V95.668H123.375V98.884H114.831V102.868H122.271V105.964H114.831V110.212H123.495V113.428H111.135ZM126.555 113.428V95.668H129.939L137.595 106.996V95.668H141.267V113.428H137.835L130.227 102.412V113.428H126.555Z" fill="url(#paint0_linear_13978_68852)"/>
    <path opacity="0.3" d="M228.288 50.0921C249.649 50.9517 256.691 71.0736 295.226 80.9196C339.474 92.2113 314.435 132.494 271.166 139.41C224.611 146.833 185.371 134.643 193.978 87.0539C194.017 87.093 199.924 48.9591 228.288 50.0921Z" fill="#C1FAC5"/>
    <path opacity="0.6" d="M195.308 59.3932L237.716 43.0222C238.381 42.7487 239.164 43.0613 239.437 43.7646L247.692 62.8315C247.966 63.4957 247.692 64.2771 247.027 64.5897L205.284 84.2427C204.032 84.8288 202.506 84.2427 201.997 82.9534L193.938 62.5971C193.43 61.3077 194.056 59.9011 195.308 59.3932Z" fill="#66D866"/>
    <path opacity="0.4" d="M184.001 48.0956L199.767 43.0163C200.002 42.9382 200.315 43.0554 200.393 43.2898L203.445 50.3618C203.562 50.5962 203.445 50.9088 203.21 51.026L187.679 57.2774C187.209 57.5119 186.662 57.2774 186.466 56.8086L183.493 49.2287C183.297 48.7989 183.532 48.2519 184.001 48.0956Z" fill="#F1F7F2"/>
    <path opacity="0.4" d="M238.147 34.6206L248.827 31.1823C248.983 31.1041 249.179 31.1823 249.257 31.3776L251.331 36.1835C251.409 36.3397 251.331 36.5351 251.174 36.6132L240.65 40.872C240.337 41.0283 239.946 40.872 239.829 40.5595L237.794 35.4411C237.677 35.0894 237.834 34.7378 238.147 34.6206Z" fill="#F1F7F2"/>
    <path d="M194.291 132.178C194.604 132.178 194.604 131.709 194.291 131.709C193.978 131.709 193.978 132.178 194.291 132.178Z" fill="#4E484D"/>
    <path d="M233.491 78.3766C233.491 78.3766 225.706 68.804 227.075 63.295C228.445 57.8249 238.03 53.7224 240.807 59.1924C243.585 64.6625 252.7 79.7441 252.7 79.7441L233.491 78.3766Z" fill="#FFC5C5"/>
    <path d="M229.853 62.3998C229.853 62.3998 228.014 55.9921 229.853 53.7259C231.691 51.4598 233.765 55.8748 233.648 57.0861C233.53 58.2973 235.799 63.2985 235.799 63.2985" fill="#FFC5C5"/>
    <path d="M286.893 100.373C286.893 100.373 308.841 101.741 305.633 85.2914C305.633 85.2914 320.499 79.587 321.164 79.3525C323.238 84.5881 319.795 113.149 300.586 116.783C281.377 120.417 280.008 115.884 280.008 115.884L286.893 100.373Z" fill="#FFC5C5"/>
    <path d="M242.88 46.1846C242.88 46.1846 235.095 57.5935 236.464 58.4921C237.834 59.3908 237.599 59.1954 237.599 59.1954C237.599 59.1954 235.33 67.4004 238.968 68.3382C242.607 69.2759 245.384 70.1745 245.384 70.1745C245.384 70.1745 244.015 75.6446 244.015 76.1134C244.015 76.5823 257.277 81.1536 259.547 80.2159C261.816 79.3173 259.077 66.9707 259.077 65.6032C259.077 64.2356 260.446 51.889 257.238 49.154C254.069 46.419 242.88 46.1846 242.88 46.1846Z" fill="#FFC5C5"/>
    <path d="M208.805 98.4651C208.805 98.4651 224.337 74.2798 236.23 76.1161C248.123 77.9525 268.702 76.1161 268.702 76.1161L272.809 108.546C272.809 108.506 238.538 120.384 208.805 98.4651Z" fill="#000050"/>
    <path d="M239.203 40.7114C239.203 40.7114 238.733 49.3853 243.311 49.8541L247.419 48.0178L247.653 55.9884C247.653 55.9884 249.023 54.152 251.292 55.0897C253.561 55.9884 253.13 60.13 249.922 60.13C249.922 60.13 253.13 66.9675 258.608 66.5377C258.608 66.5377 266.393 63.3338 265.024 53.2924C265.024 53.2924 270.97 53.2924 272.34 45.0874C273.709 36.8823 263.185 35.046 259.077 40.516C259.077 40.4769 239.438 44.5795 239.203 40.7114Z" fill="#121212"/>
    <path d="M222.458 131.435C220.072 128.075 224.297 105.414 246.245 97.6385C268.192 89.8633 282.824 96.271 290.57 97.6385C290.57 97.6385 293.309 115.885 281.416 120.456C281.416 120.456 273.2 118.62 272.731 115.885L266.315 134.131C266.315 134.131 247.106 144.642 239.79 136.398C239.829 136.437 230.205 142.376 222.458 131.435Z" fill="#FBBC05"/>
    <path d="M266.315 70.7177C266.315 70.7177 272.731 82.5955 272.731 86.698C272.731 90.8005 269.523 96.2706 257.63 92.6369C245.737 89.0033 250.783 69.78 266.315 70.7177Z" fill="#FFC5C5"/>
    <path d="M192.96 89.2026C192.96 89.2026 194.799 82.3651 198.437 80.9976C202.076 79.63 203.014 82.3651 201.176 84.6312C201.176 84.6312 204.384 84.6312 203.914 86.8974C203.445 89.1635 202.076 89.6324 202.076 89.6324C202.076 89.6324 204.345 89.1635 203.445 92.3674C202.545 93.7349 200.237 96.4699 200.237 96.4699C200.237 96.4699 199.767 113.349 201.606 115.185C203.445 117.022 204.971 116.553 205.557 115.185C206.183 113.818 217.138 121.593 217.138 121.593C217.138 121.593 207.944 136.596 196.129 128.899C185.644 122.062 192.96 89.2026 192.96 89.2026Z" fill="#FFC5C5"/>
    <path d="M194.329 85.608C195.229 83.7326 196.598 81.6618 198.437 80.9976C202.076 79.63 203.014 82.3651 201.176 84.6312C201.176 84.6312 204.384 84.6312 203.914 86.8974C203.445 89.1635 202.076 89.6324 202.076 89.6324C202.076 89.6324 204.345 89.1635 203.445 92.3674C202.545 93.7349 200.237 96.4699 200.237 96.4699" stroke="#121212" stroke-width="0.731518" stroke-miterlimit="10"/>
    <path d="M245.15 78.8076C244.837 79.6672 244.758 80.6049 244.719 81.5426C244.68 83.1446 244.719 84.8637 245.345 86.2703C246.362 88.6146 248.788 89.8649 251.057 89.6695C251.174 89.6695 251.331 89.6305 251.409 89.5523C251.526 89.4742 251.566 89.3179 251.605 89.1616C252.896 84.3949 252.505 79.0421 250.627 74.5879C250.666 74.5879 246.754 74.7442 245.15 78.8076Z" fill="#121212"/>
    <path d="M252.152 83.9678C251.683 83.4989 249.414 82.1314 248.044 83.9678C246.675 85.8042 249.414 90.8053 253.991 88.0703" fill="#FFC5C5"/>
    <path d="M250.783 87.1318C250.783 87.1318 250.783 96.2746 246.675 99.9083C246.675 99.9083 244.406 108.582 253.991 108.582C263.576 108.582 263.576 103.112 263.576 103.112L265.845 92.1721C265.845 92.1721 251.252 89.9059 250.783 87.1318Z" fill="#FFC5C5"/>
    <path d="M205.088 113.15C205.088 113.15 210.135 98.0683 215.612 94.4346C221.089 90.801 238.577 87.2455 243.78 98.5762C248.984 109.946 239.829 122.722 239.829 122.722C239.829 122.722 223.163 138.468 210.331 127.059L211.465 118.151C211.465 118.19 205.088 117.721 205.088 113.15Z" fill="#4C6CFD"/>
    <path d="M211.7 75.5244C211.7 75.5244 207.827 91.7391 212.835 94.4741C217.843 97.2092 223.359 95.8416 226.567 89.4339C226.567 88.5353 225.198 77.5561 225.198 77.5561L211.7 75.5244Z" fill="#FFC5C5"/>
    <path d="M217.647 94.6703C217.647 94.6703 219.016 102.875 218.116 104.712C218.116 104.712 224.532 109.283 230.44 98.304L225.862 88.7314L217.647 94.6703Z" fill="#FFC5C5"/>
    <path d="M210.331 75.0614C210.331 75.0614 217.646 82.3678 222.224 80.5314L225.432 77.7964C225.432 77.7964 225.432 94.2456 229.07 97.8792C232.709 101.513 241.863 92.4092 243.702 88.7365C246.597 82.9148 248.279 74.5925 248.279 74.5925C248.279 74.5925 231.809 71.3887 229.07 70.49C226.332 69.5914 211.7 66.3875 210.331 75.0614Z" fill="#121212"/>
    <path d="M199.65 83.2627C199.65 83.2627 177.211 90.2843 179.011 103.53C180.714 116.065 187.405 160.638 227.075 142.691C259.546 128 287.402 120.693 283.294 137.572C279.186 154.451 256.769 144.41 267.762 139.409C278.716 134.368 300.82 139.018 310.288 135.306C320.108 131.438 321.712 121.162 312.127 116.122" stroke="#0099FF" stroke-width="0.959288" stroke-miterlimit="10"/>
    <path d="M224.728 84.3942C224.728 84.3942 226.567 79.8228 229.305 82.1281C232.044 84.3942 229.305 88.9656 225.197 88.0669" fill="#FFC5C5"/>
    <path d="M290.57 90.4126L311.422 79.8242C313.105 78.9647 313.731 76.8548 312.753 75.2138L306.141 64.0784C305.906 63.6486 305.554 63.336 305.202 63.0625C300.703 69.314 291.47 83.497 287.167 90.1391C288.105 90.8424 289.436 90.9987 290.57 90.4126Z" fill="#121212"/>
    <path d="M281.807 72.6755L301.877 62.7904C303.402 62.0481 305.28 62.5951 306.141 64.0798L312.753 75.2152C313.731 76.8562 313.105 78.9661 311.422 79.8257L290.57 90.4141C288.927 91.2346 286.932 90.5703 286.11 88.9293L280.32 77.0516C279.538 75.4496 280.203 73.496 281.807 72.6755Z" fill="#121212"/>
    <path opacity="0.11" d="M303.402 62.4746C302.894 62.4746 302.385 62.5528 301.877 62.8263L281.807 72.6723C280.203 73.4537 279.499 75.4464 280.32 77.0483L286.11 88.9261C286.619 89.981 287.597 90.6062 288.692 90.7624L303.402 62.4746Z" fill="#DBDBDB"/>
    <path d="M307.237 65.9123C307.237 65.9123 306.102 66.2249 304.889 66.4984C302.268 67.0063 298.043 68.2566 297.417 70.7181C296.517 74.3518 300.625 74.8206 300.625 74.8206C300.625 74.8206 296.048 75.7193 298.356 79.392C300.625 83.0257 304.537 80.5251 304.537 80.5251C304.537 80.5251 299.725 82.5959 302.033 85.3309C304.302 88.0659 312.244 85.7998 315.374 83.9634C318.504 82.127 321.242 79.392 321.242 79.392C321.242 79.392 316.9 62.2787 305.946 63.6462L307.237 65.9123Z" fill="#FFC5C5"/>
    <path d="M305.867 63.6504L307.237 65.9165C307.237 65.9165 306.102 66.2291 304.889 66.5026C302.268 67.0105 298.043 68.2608 297.417 70.7224C296.517 74.356 300.625 74.8249 300.625 74.8249C300.625 74.8249 296.008 75.7626 298.356 79.3962C301.564 84.4365 307.51 78.4976 307.51 78.4976" stroke="#121212" stroke-width="0.731518" stroke-miterlimit="10"/>
    <path d="M302.581 81.2734C301.329 82.4065 300.664 83.8522 301.955 85.3369C304.302 88.0328 312.166 85.8058 315.296 83.9694C316.195 83.4615 317.056 82.8363 317.839 82.2502" stroke="#121212" stroke-width="0.731518" stroke-miterlimit="10"/>
    <path d="M249.179 76.8563C247.888 70.4876 252.622 66.2288 261.894 65.5255C263.928 65.3692 266.315 65.2911 267.567 66.9321C268.114 67.5963 268.349 68.4559 268.545 69.3154C268.819 70.4094 269.014 71.5816 268.662 72.6756C268.036 74.6292 265.884 75.606 264.007 76.4655C261.581 77.5595 261.346 78.8098 259.077 80.1773C258.138 80.7243 257.199 81.3495 256.495 82.1309C255.478 83.2249 256.065 86.9367 255.634 88.3824C255.439 89.0075 254.03 89.2419 254.03 89.2419L249.179 76.8563Z" fill="#121212"/>
    <path d="M255.595 88.3033C255.4 88.9676 255.126 88.7722 254.343 89.2411L249.179 77.3633" fill="#121212"/>
    <path d="M217.803 95.8025C217.803 95.8025 221.872 96.3886 224.571 92.5596" stroke="#121212" stroke-width="0.731518" stroke-miterlimit="10"/>
    <path d="M211.465 118.193L213.774 109.52L210.566 127.336" stroke="#121212" stroke-width="0.731518" stroke-miterlimit="10"/>
    <path d="M253.991 90.8027C253.991 90.8027 259.937 95.335 265.884 93.7722" stroke="#121212" stroke-width="0.731518" stroke-miterlimit="10"/>
    <path d="M240.259 138.04L239.829 131.866" stroke="#121212" stroke-width="0.731518" stroke-miterlimit="10"/>
    <path d="M244.719 73.8887L245.267 70.255C229.266 71.6225 237.051 56.5409 236.581 57.0097" stroke="#121212" stroke-width="0.731518" stroke-miterlimit="10"/>
    <path d="M300.585 74.8206C300.585 74.8206 303.794 74.3518 304.693 73.4531" stroke="#121212" stroke-width="0.731518" stroke-miterlimit="10"/>
    <path d="M272.73 115.889C272.261 114.99 270.657 109.286 270.657 106.512" stroke="#121212" stroke-width="0.731518" stroke-miterlimit="10"/>
    <path d="M264.711 87.1326C264.711 87.1326 268.232 86.8981 268.858 85.218C269.484 83.538 270.188 85.9213 269.484 87.5233C268.701 89.1252 263.967 89.1252 264.711 87.1326Z" fill="#FE6263"/>
    <path d="M218.273 83.808C218.273 83.808 217.216 82.6358 216.434 82.9093C215.69 83.1829 216.277 82.167 217.06 82.0498C218.116 81.8935 219.211 83.4954 218.273 83.808Z" fill="#121212"/>
    <path d="M211.113 80.6463C211.113 80.6463 212.169 80.5681 212.678 81.0761C213.147 81.5449 213.069 80.5291 212.756 80.2165C212.326 79.7476 210.722 79.943 211.113 80.6463Z" fill="#121212"/>
    <path d="M266.666 80.9952C267.449 80.878 268.27 81.2296 268.818 81.8547C268.935 82.011 269.053 82.1673 269.131 82.3627C269.209 82.558 269.327 82.8315 269.131 82.9878C268.935 83.1441 268.662 83.2222 268.466 83.2613C268.231 83.3004 267.957 83.3395 267.723 83.3004C267.566 83.3004 267.566 83.5348 267.723 83.5348C268.192 83.5739 268.623 83.4957 269.053 83.3004C269.209 83.2222 269.405 83.105 269.483 82.9487C269.561 82.7534 269.522 82.558 269.444 82.4017C269.17 81.6985 268.583 81.1905 267.879 80.917C267.488 80.7607 267.058 80.7217 266.666 80.7998C266.471 80.7998 266.51 80.9952 266.666 80.9952Z" fill="#121212"/>
    <path d="M261.972 82.3256C262.469 82.3256 262.872 81.9233 262.872 81.427C262.872 80.9307 262.469 80.5283 261.972 80.5283C261.475 80.5283 261.072 80.9307 261.072 81.427C261.072 81.9233 261.475 82.3256 261.972 82.3256Z" fill="#121212"/>
    <path d="M267.684 78.7288C268.073 78.7288 268.388 78.414 268.388 78.0256C268.388 77.6371 268.073 77.3223 267.684 77.3223C267.295 77.3223 266.98 77.6371 266.98 78.0256C266.98 78.414 267.295 78.7288 267.684 78.7288Z" fill="#121212"/>
    <path d="M260.251 79.9031C259.742 80.4501 259.429 81.1143 259.312 81.8567C259.312 81.9348 259.351 82.052 259.429 82.052C259.507 82.0911 259.625 82.013 259.625 81.9348C259.703 81.2706 260.016 80.6455 260.485 80.1375C260.642 79.9812 260.407 79.7468 260.251 79.9031Z" fill="#121212"/>
    <path d="M266.98 76.7006C267.136 76.5833 267.332 76.4661 267.528 76.427C267.606 76.3879 267.684 76.3488 267.801 76.3488C267.841 76.3488 267.88 76.3097 267.919 76.3097C267.958 76.3097 267.958 76.3097 267.997 76.3097C267.958 76.3097 268.036 76.3097 268.036 76.3097C268.114 76.3097 268.193 76.2315 268.193 76.1534C268.193 76.0752 268.114 75.9579 268.036 75.997C267.606 76.0361 267.215 76.2315 266.863 76.4661C266.784 76.5052 266.745 76.6224 266.784 76.7006C266.784 76.7397 266.902 76.7788 266.98 76.7006Z" fill="#121212"/>
    <path d="M211.544 84.1626C211.114 84.4361 210.957 84.9441 211.035 85.452C211.153 85.999 211.583 86.3897 212.092 86.546C212.405 86.6632 212.757 86.7023 213.07 86.6632C213.226 86.6632 213.226 86.4288 213.07 86.4288C212.483 86.4679 211.74 86.3116 211.387 85.7646C211.114 85.3348 211.153 84.6315 211.622 84.358C211.818 84.2799 211.7 84.0845 211.544 84.1626Z" fill="#121212"/>
    <path d="M212.013 88.3802C212.365 87.9114 212.756 89.2398 213.343 89.318C213.93 89.3961 214.947 89.4352 215.534 89.318C216.043 89.2398 216.238 89.1226 216.512 89.5524C216.708 89.8259 216.629 90.2166 216.395 90.4901C216.199 90.7636 215.886 90.9199 215.534 91.0371C214.83 91.3106 214.008 91.3497 213.304 90.998C212.756 90.7245 212.365 90.2166 212.091 89.6696C212.013 89.5133 211.661 88.7709 212.013 88.3802Z" fill="#FE6263"/>
    <path d="M242.333 55.4057C242.83 55.4057 243.233 55.0034 243.233 54.507C243.233 54.0107 242.83 53.6084 242.333 53.6084C241.836 53.6084 241.433 54.0107 241.433 54.507C241.433 55.0034 241.836 55.4057 242.333 55.4057Z" fill="#121212"/>
    <path d="M239.36 66.382C240.742 66.382 241.863 65.2625 241.863 63.8814C241.863 62.5004 240.742 61.3809 239.36 61.3809C237.977 61.3809 236.856 62.5004 236.856 63.8814C236.856 65.2625 237.977 66.382 239.36 66.382Z" fill="#FE6263"/>
    <path d="M212.286 71.1112L204.501 75.1355C203.601 75.6044 202.506 75.1746 202.193 74.2369L198.789 64.8206C198.476 63.9611 198.907 63.0233 199.767 62.7108L207.513 59.8976C208.335 59.585 209.274 60.0148 209.587 60.7963L212.991 69.0013C213.382 69.7827 213.069 70.7205 212.286 71.1112Z" fill="#56DD43"/>
    <path opacity="0.5" d="M211.465 70.6029L204.736 74.0803C203.954 74.471 203.015 74.1193 202.741 73.2988L199.807 65.1329C199.533 64.3905 199.924 63.57 200.668 63.2965L207.358 60.9131C208.062 60.6396 208.883 60.9913 209.157 61.6946L212.131 68.8056C212.444 69.4698 212.131 70.2513 211.465 70.6029Z" stroke="white" stroke-width="1.46291" stroke-miterlimit="10"/>
    <path opacity="0.5" d="M210.175 64.1152L208.766 64.5059C208.297 64.6622 208.062 65.2092 208.336 65.639L208.884 66.5767C209.04 66.8502 209.392 66.9675 209.666 66.8112L210.996 66.147" stroke="white" stroke-width="1.46291" stroke-miterlimit="10"/>
    <path d="M223.202 53.9569C223.202 53.9569 222.341 61.2633 221.363 61.2633C220.854 61.2633 218.311 59.9349 217.568 59.5442C217.49 59.5051 217.333 59.5441 217.333 59.6614L215.573 65.2486" stroke="white" stroke-width="0.976944" stroke-miterlimit="10"/>
    <path d="M221.676 55.1683L223.201 53.957L224.492 55.4808" stroke="white" stroke-width="1.07474" stroke-miterlimit="10"/>
    <path d="M244.289 51.8072C244.328 51.8072 244.367 51.8072 244.406 51.8462C244.406 51.8462 244.485 51.8853 244.406 51.8462C244.406 51.8462 244.446 51.8462 244.446 51.8853C244.485 51.8853 244.524 51.9244 244.524 51.9244C244.524 51.9244 244.563 51.9244 244.563 51.9635C244.563 51.9635 244.563 51.9635 244.602 51.9635C244.641 52.0025 244.719 52.0416 244.758 52.1197C244.719 52.0807 244.758 52.1197 244.758 52.1197L244.798 52.1588C244.798 52.1979 244.837 52.237 244.837 52.237C244.837 52.237 244.837 52.276 244.876 52.276C244.876 52.237 244.915 52.3151 244.876 52.276C244.876 52.3151 244.915 52.3542 244.915 52.3542C244.915 52.3932 244.915 52.4323 244.954 52.4323C244.954 52.4714 244.954 52.4714 244.954 52.4323V52.4714C244.954 52.5105 244.954 52.5495 244.954 52.5886V52.6277C244.954 52.5886 244.954 52.7058 244.954 52.6277C244.954 52.7058 244.915 52.784 244.876 52.823C244.837 52.9402 244.915 53.0965 245.032 53.0965C245.15 53.1356 245.267 53.0575 245.306 52.9402C245.58 52.276 245.111 51.4165 244.406 51.2602C244.289 51.2211 244.172 51.2992 244.133 51.4165C244.093 51.6118 244.172 51.7681 244.289 51.8072Z" fill="#121212"/>
    <path opacity="0.6" d="M289.632 88.3054C290.518 88.3054 291.236 87.5882 291.236 86.7035C291.236 85.8188 290.518 85.1016 289.632 85.1016C288.746 85.1016 288.028 85.8188 288.028 86.7035C288.028 87.5882 288.746 88.3054 289.632 88.3054Z" fill="#F2F2F2"/>
    <path d="M289.632 87.7583C290.215 87.7583 290.688 87.286 290.688 86.7034C290.688 86.1207 290.215 85.6484 289.632 85.6484C289.049 85.6484 288.576 86.1207 288.576 86.7034C288.576 87.286 289.049 87.7583 289.632 87.7583Z" fill="#121212"/>
    <g clip-path="url(#clip0_13978_68852)">
        <path d="M179.569 131.87C188.131 131.87 195.071 124.93 195.071 116.368C195.071 107.807 188.131 100.866 179.569 100.866C171.008 100.866 164.067 107.807 164.067 116.368C164.067 124.93 171.008 131.87 179.569 131.87Z" fill="url(#paint1_linear_13978_68852)"/>
        <path d="M179.569 125.99C179.432 125.99 179.291 125.952 179.169 125.875C178.997 125.773 174.97 123.267 173.224 119.583C173.182 119.495 173.159 119.4 173.151 119.301L172.575 109.42C172.56 109.18 172.659 108.947 172.842 108.795C173.025 108.638 173.269 108.581 173.502 108.631C173.54 108.638 177.228 109.466 179.562 109.466C181.899 109.466 185.583 108.638 185.621 108.631C185.854 108.577 186.098 108.638 186.281 108.791C186.464 108.947 186.563 109.176 186.548 109.416L185.972 119.297C185.968 119.396 185.942 119.492 185.9 119.579C184.157 123.263 180.126 125.769 179.954 125.872C179.844 125.952 179.706 125.99 179.569 125.99ZM174.669 119.061C175.946 121.642 178.57 123.622 179.569 124.312C180.568 123.622 183.196 121.635 184.47 119.061L184.977 110.324C183.665 110.583 181.316 110.991 179.569 110.991C177.819 110.991 175.47 110.583 174.162 110.324L174.669 119.061ZM182.94 115.049L181.861 113.97L178.806 117.024L177.548 115.766L176.469 116.845L178.806 119.183L182.94 115.049Z" fill="white"/>
    </g>
    <g clip-path="url(#clip1_13978_68852)">
        <path d="M296.009 45.5842C302.359 45.5842 307.507 40.4362 307.507 34.0859C307.507 27.7356 302.359 22.5876 296.009 22.5876C289.658 22.5876 284.51 27.7356 284.51 34.0859C284.51 40.4362 289.658 45.5842 296.009 45.5842Z" fill="url(#paint2_linear_13978_68852)"/>
        <path d="M300.597 32.0317H298.066V29.5012C298.066 29.1189 297.754 28.806 297.371 28.806H294.65C294.267 28.806 293.954 29.1189 293.954 29.5012V32.0317H291.424C291.042 32.0317 290.729 32.3445 290.729 32.7268V35.4485C290.729 35.8308 291.042 36.1436 291.424 36.1436H293.954V38.6741C293.954 39.0564 294.267 39.3693 294.65 39.3693H297.371C297.754 39.3693 298.066 39.0564 298.066 38.6741V36.1436H300.597C300.979 36.1436 301.292 35.8308 301.292 35.4485V32.7268C301.292 32.3445 300.983 32.0317 300.597 32.0317Z" fill="white"/>
    </g>
    <path d="M213.029 37.9173C213.029 39.1837 211.997 40.2076 210.727 40.2076C209.455 40.2076 208.426 39.1812 208.426 37.9173C208.426 36.651 209.457 35.6271 210.727 35.6271C212 35.6271 213.029 36.651 213.029 37.9173ZM215.558 37.4808C214.971 37.4808 214.493 37.9556 214.493 38.5403C214.493 39.125 214.971 39.5999 215.558 39.5999C216.146 39.5999 216.623 39.125 216.623 38.5403C216.623 37.9556 216.146 37.4808 215.558 37.4808ZM193.386 14.4688C185.005 14.4688 178.208 21.2322 178.208 29.5735C178.208 37.9148 185.005 44.6782 193.386 44.6782C201.768 44.6782 208.564 37.9148 208.564 29.5735C208.564 21.2322 201.768 14.4688 193.386 14.4688Z" fill="url(#paint3_linear_13978_68852)"/>
    <path d="M200.809 31.0672C199.056 33.9472 196.124 35.7753 195.406 36.194L193.066 37.5549L190.726 36.194C190.008 35.7753 187.073 33.9472 185.323 31.0672H190.287C190.449 31.0672 190.6 30.9829 190.687 30.845L191.047 30.268L191.88 32.8825C191.942 33.0765 192.124 33.2093 192.327 33.2093C192.332 33.2093 192.337 33.2093 192.342 33.2093C192.553 33.2017 192.732 33.0561 192.784 32.8544L193.653 29.3233L194.346 32.0068C194.392 32.1829 194.533 32.3157 194.713 32.3489C194.892 32.3821 195.075 32.3106 195.18 32.1625L195.978 31.0646H200.809V31.0672ZM184.812 30.1327H190.02L190.78 28.9123C190.875 28.7565 191.054 28.6723 191.236 28.6927C191.419 28.7157 191.57 28.8408 191.626 29.0144L192.265 31.0161L193.181 27.2935C193.233 27.0867 193.42 26.9386 193.635 26.9386H193.638C193.851 26.9386 194.038 27.0816 194.092 27.2884L195 30.8093L195.352 30.3267C195.439 30.2042 195.583 30.1327 195.731 30.1327H201.314C201.617 29.4944 201.853 28.8127 201.997 28.0927C202.489 25.5906 200.85 23.165 198.335 22.6748C196.037 22.228 193.807 23.5506 193.063 25.6876C192.319 23.548 190.087 22.2254 187.791 22.6748C185.277 23.165 183.637 25.5906 184.13 28.0927C184.271 28.8153 184.51 29.4944 184.812 30.1327Z" fill="white"/>
    <defs>
        <linearGradient id="paint0_linear_13978_68852" x1="45.1891" y1="118.428" x2="50.7844" y2="52.0778" gradientUnits="userSpaceOnUse">
            <stop stop-color="#5874F3"/>
            <stop offset="0.494792" stop-color="#5BC4EC"/>
            <stop offset="1" stop-color="#51EFB5"/>
        </linearGradient>
        <linearGradient id="paint1_linear_13978_68852" x1="161.539" y1="134.841" x2="201.735" y2="93.6529" gradientUnits="userSpaceOnUse">
            <stop stop-color="#6FCAF4"/>
            <stop offset="1" stop-color="#7DFFCF"/>
        </linearGradient>
        <linearGradient id="paint2_linear_13978_68852" x1="300.607" y1="20.0083" x2="286.617" y2="62.8534" gradientUnits="userSpaceOnUse">
            <stop stop-color="#459FFF"/>
            <stop offset="1" stop-color="#A96DFF"/>
        </linearGradient>
        <linearGradient id="paint3_linear_13978_68852" x1="209.225" y1="9.32998" x2="183.848" y2="59.3106" gradientUnits="userSpaceOnUse">
            <stop stop-color="#459FFF"/>
            <stop offset="1" stop-color="#A96DFF"/>
        </linearGradient>
        <clipPath id="clip0_13978_68852">
            <rect width="31" height="31" fill="white" transform="translate(164.067 100.866)"/>
        </clipPath>
        <clipPath id="clip1_13978_68852">
            <rect width="23" height="23" fill="white" transform="translate(284.51 22.5876)"/>
        </clipPath>
    </defs>
</svg>
