<svg width="339" height="144" viewBox="0 0 339 144" fill="none"
    xmlns="http://www.w3.org/2000/svg">
    <g filter="url(#filter0_dd_13978_70272)">
        <rect x="2.00012" y="0.00012207" width="335" height="140" rx="16" fill="#E6F9E6"/>
        <path d="M83.284 50.5001V41.6201H85.456L87.676 46.4321L89.944 41.6201H92.08V50.5001H90.472V44.0801L88.432 48.3521H86.92L84.892 44.0561V50.5001H83.284ZM97.3355 50.6201C96.6795 50.6201 96.0835 50.4961 95.5475 50.2481C95.0115 49.9921 94.5875 49.6081 94.2755 49.0961C93.9635 48.5841 93.8075 47.9401 93.8075 47.1641V41.6201H95.4395V47.1641C95.4395 47.7081 95.5915 48.1641 95.8955 48.5321C96.2075 48.9001 96.6875 49.0841 97.3355 49.0841C97.9915 49.0841 98.4755 48.9001 98.7875 48.5321C99.0995 48.1641 99.2555 47.7081 99.2555 47.1641V41.6201H100.875V47.1641C100.875 47.9401 100.719 48.5841 100.407 49.0961C100.095 49.6081 99.6715 49.9921 99.1355 50.2481C98.6075 50.4961 98.0075 50.6201 97.3355 50.6201ZM101.906 50.5001L104.966 41.6201H107.09L110.162 50.5001H108.458L107.822 48.6281H104.246L103.61 50.5001H101.906ZM104.714 47.2121H107.354L106.034 43.2881L104.714 47.2121Z" fill="#33CB33"/>
        <path d="M23.0881 73.5001V61.6601H28.5601C29.3281 61.6601 29.9735 61.7935 30.4961 62.0601C31.0295 62.3268 31.4348 62.6841 31.7121 63.1321C31.9895 63.5695 32.1281 64.0548 32.1281 64.5881C32.1281 65.1108 32.0321 65.5481 31.8401 65.9001C31.6481 66.2415 31.4135 66.5188 31.1361 66.7321C30.8695 66.9348 30.6081 67.0735 30.3521 67.1481V67.2761C30.6401 67.3401 30.9601 67.4788 31.3121 67.6921C31.6641 67.9055 31.9681 68.2095 32.2241 68.6041C32.4801 68.9988 32.6081 69.5108 32.6081 70.1401C32.6081 70.6948 32.4748 71.2281 32.2081 71.7401C31.9521 72.2521 31.5308 72.6735 30.9441 73.0041C30.3681 73.3348 29.6161 73.5001 28.6881 73.5001H23.0881ZM28.1441 63.7241H25.5521V66.4761H28.1441C28.6988 66.4761 29.1041 66.3428 29.3601 66.0761C29.6161 65.8095 29.7441 65.4841 29.7441 65.1001C29.7441 64.7268 29.6161 64.4068 29.3601 64.1401C29.1041 63.8628 28.6988 63.7241 28.1441 63.7241ZM28.3361 68.3641H25.5521V71.4361H28.3361C28.9655 71.4361 29.4188 71.2868 29.6961 70.9881C29.9841 70.6788 30.1281 70.3108 30.1281 69.8841C30.1281 69.4681 29.9841 69.1108 29.6961 68.8121C29.4188 68.5135 28.9655 68.3641 28.3361 68.3641ZM38.6752 60.6681V60.1401C38.6752 60.0015 38.7019 59.8735 38.7552 59.7561C38.8192 59.6281 38.9259 59.5321 39.0752 59.4681L39.3152 59.3401C39.5392 59.2228 39.7099 59.1108 39.8272 59.0041C39.9446 58.8868 40.0032 58.7481 40.0032 58.5881C40.0032 58.4495 39.9499 58.3268 39.8432 58.2201C39.7472 58.1135 39.6032 58.0601 39.4112 58.0601C39.2192 58.0601 39.0752 58.1081 38.9792 58.2041C38.8939 58.3001 38.8406 58.4015 38.8192 58.5081C38.7979 58.6148 38.7872 58.6788 38.7872 58.7001H37.3952C37.3846 58.4121 37.4432 58.1295 37.5712 57.8521C37.7099 57.5641 37.9286 57.3241 38.2272 57.1321C38.5259 56.9401 38.9152 56.8441 39.3952 56.8441C40.0352 56.8441 40.5419 57.0148 40.9152 57.3561C41.2886 57.6868 41.4752 58.0761 41.4752 58.5241C41.4752 58.9081 41.3472 59.2335 41.0912 59.5001C40.8459 59.7561 40.5312 59.9801 40.1472 60.1721L40.0672 60.2201V60.6681H38.6752ZM33.6832 73.5001L37.7152 61.6601H40.9952L45.0272 73.5001H42.4352L41.6672 71.1801H37.0432L36.2752 73.5001H33.6832ZM37.7152 69.0361H40.9952L39.3632 64.0921L37.7152 69.0361ZM51.5772 73.6601C50.5959 73.6601 49.7319 73.4895 48.9852 73.1481C48.2386 72.7961 47.6092 72.3321 47.0972 71.7561C46.5959 71.1695 46.2172 70.5135 45.9612 69.7881C45.7159 69.0628 45.5932 68.3215 45.5932 67.5641C45.5932 66.8068 45.7159 66.0708 45.9612 65.3561C46.2172 64.6308 46.5959 63.9801 47.0972 63.4041C47.6092 62.8281 48.2386 62.3695 48.9852 62.0281C49.7319 61.6761 50.5959 61.5001 51.5772 61.5001C52.5692 61.5001 53.4386 61.6761 54.1852 62.0281C54.9319 62.3695 55.5559 62.8281 56.0572 63.4041C56.5586 63.9801 56.9319 64.6308 57.1772 65.3561C57.4332 66.0708 57.5612 66.8068 57.5612 67.5641C57.5612 68.3215 57.4332 69.0628 57.1772 69.7881C56.9319 70.5135 56.5586 71.1695 56.0572 71.7561C55.5559 72.3321 54.9319 72.7961 54.1852 73.1481C53.4386 73.4895 52.5692 73.6601 51.5772 73.6601ZM51.5772 71.4361C52.3239 71.4361 52.9532 71.2495 53.4652 70.8761C53.9772 70.5028 54.3612 70.0228 54.6172 69.4361C54.8732 68.8388 55.0012 68.2148 55.0012 67.5641C55.0012 66.9135 54.8732 66.2948 54.6172 65.7081C54.3612 65.1215 53.9772 64.6415 53.4652 64.2681C52.9532 63.8948 52.3239 63.7081 51.5772 63.7081C50.8306 63.7081 50.2012 63.8948 49.6892 64.2681C49.1879 64.6415 48.8092 65.1215 48.5532 65.7081C48.2972 66.2948 48.1692 66.9135 48.1692 67.5641C48.1692 68.2148 48.2972 68.8388 48.5532 69.4361C48.8092 70.0228 49.1879 70.5028 49.6892 70.8761C50.2012 71.2495 50.8306 71.4361 51.5772 71.4361ZM62.9787 73.5001V61.6601H65.4427V66.3801H70.0507V61.6601H72.5147V73.5001H70.0507V68.5241H65.4427V73.5001H62.9787ZM74.6975 73.5001V61.6601H77.1615V73.5001H74.6975ZM85.9301 58.7961V58.2681C85.9301 58.1295 85.9568 58.0015 86.0101 57.8841C86.0741 57.7668 86.1808 57.6708 86.3301 57.5961L86.5701 57.4681C86.7941 57.3615 86.9648 57.2495 87.0821 57.1321C87.1995 57.0148 87.2581 56.8761 87.2581 56.7161C87.2581 56.5775 87.2048 56.4601 87.0981 56.3641C87.0021 56.2575 86.8581 56.2041 86.6661 56.2041C86.4741 56.2041 86.3301 56.2521 86.2341 56.3481C86.1488 56.4335 86.0955 56.5295 86.0741 56.6361C86.0528 56.7428 86.0421 56.8068 86.0421 56.8281H84.6501C84.6395 56.5401 84.6981 56.2575 84.8261 55.9801C84.9648 55.6921 85.1835 55.4521 85.4821 55.2601C85.7808 55.0681 86.1701 54.9721 86.6501 54.9721C87.2901 54.9721 87.7968 55.1428 88.1701 55.4841C88.5435 55.8148 88.7301 56.2095 88.7301 56.6681C88.7301 57.0415 88.6021 57.3615 88.3461 57.6281C88.1008 57.8841 87.7861 58.1135 87.4021 58.3161L87.3221 58.3481V58.7961H85.9301ZM80.4581 60.6041L82.5221 58.1401H84.4581L86.5221 60.6041H84.6181L83.4981 59.2441L82.3621 60.6041H80.4581ZM79.4021 73.5001V61.6601H87.5621V63.8041H81.8661V66.4601H86.8261V68.5241H81.8661V71.3561H87.6421V73.5001H79.4021ZM89.6819 73.5001V61.6601H93.0099L95.7139 67.7561L98.4979 61.6601H101.714V73.5001H99.2819V65.4361L96.8499 70.7321H94.5619L92.1139 65.4041V73.5001H89.6819ZM107.268 73.5001L110.916 67.5801L107.284 61.6601H110.212L112.628 65.7561L115.06 61.6601H118.004L114.308 67.5801L118.004 73.5001H115.06L112.628 69.3881L110.212 73.5001H107.268ZM119.869 73.5001V61.6601H128.029V63.8041H122.333V66.4601H127.293V68.5241H122.333V71.3561H128.109V73.5001H119.869ZM133.822 73.5001V61.6601H137.15L139.854 67.7561L142.638 61.6601H145.854V73.5001H143.422V65.4361L140.99 70.7321H138.702L136.254 65.4041V73.5001H133.822ZM154.01 60.4921L152.202 60.4761L153.498 57.5961H155.754L154.01 60.4921ZM147.418 73.5001L151.45 61.6601H154.73L158.762 73.5001H156.17L155.402 71.1801H150.778L150.01 73.5001H147.418ZM151.45 69.0361H154.73L153.098 64.0921L151.45 69.0361ZM162.184 73.5001V69.4521L158.024 61.6601H160.728L163.416 66.9241L166.104 61.6601H168.808L164.648 69.4521V73.5001H162.184Z" fill="#33CB33"/>
        <path d="M54.8772 98.5001V86.6601H60.3492C61.1172 86.6601 61.7625 86.7935 62.2852 87.0601C62.8185 87.3268 63.2239 87.6841 63.5012 88.1321C63.7785 88.5695 63.9172 89.0548 63.9172 89.5881C63.9172 90.1108 63.8212 90.5481 63.6292 90.9001C63.4372 91.2415 63.2025 91.5188 62.9252 91.7321C62.6585 91.9348 62.3972 92.0735 62.1412 92.1481V92.2761C62.4292 92.3401 62.7492 92.4788 63.1012 92.6921C63.4532 92.9055 63.7572 93.2095 64.0132 93.6041C64.2692 93.9988 64.3972 94.5108 64.3972 95.1401C64.3972 95.6948 64.2639 96.2281 63.9972 96.7401C63.7412 97.2521 63.3199 97.6735 62.7332 98.0041C62.1572 98.3348 61.4052 98.5001 60.4772 98.5001H54.8772ZM59.9332 88.7241H57.3412V91.4761H59.9332C60.4879 91.4761 60.8932 91.3428 61.1492 91.0761C61.4052 90.8095 61.5332 90.4841 61.5332 90.1001C61.5332 89.7268 61.4052 89.4068 61.1492 89.1401C60.8932 88.8628 60.4879 88.7241 59.9332 88.7241ZM60.1252 93.3641H57.3412V96.4361H60.1252C60.7545 96.4361 61.2079 96.2868 61.4852 95.9881C61.7732 95.6788 61.9172 95.3108 61.9172 94.8841C61.9172 94.4681 61.7732 94.1108 61.4852 93.8121C61.2079 93.5135 60.7545 93.3641 60.1252 93.3641ZM72.0643 82.5801L70.2563 82.5641L71.5523 79.6841H73.8083L72.0643 82.5801ZM71.1523 85.5881C70.5656 85.5881 70.0856 85.5028 69.7123 85.3321C69.3496 85.1615 69.067 84.9535 68.8643 84.7081C68.6616 84.4628 68.5176 84.2175 68.4323 83.9721C68.347 83.7161 68.2936 83.5028 68.2723 83.3321C68.2616 83.1615 68.2563 83.0761 68.2563 83.0761H69.8563C69.8563 83.0761 69.867 83.1348 69.8883 83.2521C69.9096 83.3695 69.9576 83.5028 70.0323 83.6521C70.1176 83.7908 70.2456 83.9188 70.4163 84.0361C70.5976 84.1428 70.843 84.1961 71.1523 84.1961C71.4616 84.1961 71.7016 84.1428 71.8723 84.0361C72.0536 83.9188 72.1816 83.7908 72.2563 83.6521C72.3416 83.5028 72.3896 83.3695 72.4003 83.2521C72.4216 83.1348 72.4323 83.0761 72.4323 83.0761H74.0323C74.0323 83.0761 74.0216 83.1615 74.0003 83.3321C73.9896 83.5028 73.9416 83.7161 73.8563 83.9721C73.771 84.2175 73.627 84.4628 73.4243 84.7081C73.2216 84.9535 72.939 85.1615 72.5763 85.3321C72.2136 85.5028 71.739 85.5881 71.1523 85.5881ZM65.4723 98.5001L69.5043 86.6601H72.7843L76.8163 98.5001H74.2243L73.4563 96.1801H68.8323L68.0643 98.5001H65.4723ZM69.5043 94.0361H72.7843L71.1523 89.0921L69.5043 94.0361ZM79.9202 98.5001V88.8041H76.2882V86.6601H86.0162V88.8041H82.3842V98.5001H79.9202ZM91.4084 98.5001V86.6601H96.8804C97.6484 86.6601 98.2938 86.7935 98.8164 87.0601C99.3498 87.3268 99.7551 87.6841 100.032 88.1321C100.31 88.5695 100.448 89.0548 100.448 89.5881C100.448 90.1108 100.352 90.5481 100.16 90.9001C99.9684 91.2415 99.7338 91.5188 99.4564 91.7321C99.1898 91.9348 98.9284 92.0735 98.6724 92.1481V92.2761C98.9604 92.3401 99.2804 92.4788 99.6324 92.6921C99.9844 92.9055 100.288 93.2095 100.544 93.6041C100.8 93.9988 100.928 94.5108 100.928 95.1401C100.928 95.6948 100.795 96.2281 100.528 96.7401C100.272 97.2521 99.8511 97.6735 99.2644 98.0041C98.6884 98.3348 97.9364 98.5001 97.0084 98.5001H91.4084ZM96.4644 88.7241H93.8724V91.4761H96.4644C97.0191 91.4761 97.4244 91.3428 97.6804 91.0761C97.9364 90.8095 98.0644 90.4841 98.0644 90.1001C98.0644 89.7268 97.9364 89.4068 97.6804 89.1401C97.4244 88.8628 97.0191 88.7241 96.4644 88.7241ZM96.6564 93.3641H93.8724V96.4361H96.6564C97.2858 96.4361 97.7391 96.2868 98.0164 95.9881C98.3044 95.6788 98.4484 95.3108 98.4484 94.8841C98.4484 94.4681 98.3044 94.1108 98.0164 93.8121C97.7391 93.5135 97.2858 93.3641 96.6564 93.3641ZM107.568 98.6601C106.704 98.6601 105.904 98.4948 105.168 98.1641C104.443 97.8335 103.856 97.3215 103.408 96.6281C102.971 95.9348 102.752 95.0335 102.752 93.9241V86.6601H105.216V93.9241C105.216 94.6068 105.408 95.1828 105.792 95.6521C106.176 96.1108 106.768 96.3401 107.568 96.3401C108.368 96.3401 108.955 96.1108 109.328 95.6521C109.712 95.1828 109.904 94.6068 109.904 93.9241V86.6601H112.384V93.9241C112.384 95.0335 112.16 95.9348 111.712 96.6281C111.275 97.3215 110.688 97.8335 109.952 98.1641C109.216 98.4948 108.422 98.6601 107.568 98.6601ZM117.077 85.4441L119.141 82.9801H121.077L123.141 85.4441H121.237L120.117 84.0841L118.981 85.4441H117.077ZM120.101 98.6601C119.119 98.6601 118.255 98.4895 117.509 98.1481C116.762 97.7961 116.133 97.3321 115.621 96.7561C115.119 96.1695 114.741 95.5135 114.485 94.7881C114.239 94.0628 114.117 93.3215 114.117 92.5641C114.117 91.8068 114.239 91.0708 114.485 90.3561C114.741 89.6308 115.119 88.9801 115.621 88.4041C116.133 87.8281 116.762 87.3695 117.509 87.0281C118.255 86.6761 119.119 86.5001 120.101 86.5001C121.093 86.5001 121.962 86.6761 122.709 87.0281C123.455 87.3695 124.079 87.8281 124.581 88.4041C125.082 88.9801 125.455 89.6308 125.701 90.3561C125.957 91.0708 126.085 91.8068 126.085 92.5641C126.085 93.3215 125.957 94.0628 125.701 94.7881C125.455 95.5135 125.082 96.1695 124.581 96.7561C124.079 97.3321 123.455 97.7961 122.709 98.1481C121.962 98.4895 121.093 98.6601 120.101 98.6601ZM120.101 96.4361C120.847 96.4361 121.477 96.2495 121.989 95.8761C122.501 95.5028 122.885 95.0228 123.141 94.4361C123.397 93.8388 123.525 93.2148 123.525 92.5641C123.525 91.9135 123.397 91.2948 123.141 90.7081C122.885 90.1215 122.501 89.6415 121.989 89.2681C121.477 88.8948 120.847 88.7081 120.101 88.7081C119.354 88.7081 118.725 88.8948 118.213 89.2681C117.711 89.6415 117.333 90.1215 117.077 90.7081C116.821 91.2948 116.693 91.9135 116.693 92.5641C116.693 93.2148 116.821 93.8388 117.077 94.4361C117.333 95.0228 117.711 95.5028 118.213 95.8761C118.725 96.2495 119.354 96.4361 120.101 96.4361ZM120.101 102.452C119.727 102.452 119.423 102.324 119.189 102.068C118.954 101.823 118.837 101.524 118.837 101.172C118.837 100.82 118.954 100.521 119.189 100.276C119.423 100.031 119.727 99.9081 120.101 99.9081C120.463 99.9081 120.762 100.031 120.997 100.276C121.242 100.521 121.365 100.82 121.365 101.172C121.365 101.524 121.242 101.823 120.997 102.068C120.762 102.324 120.463 102.452 120.101 102.452ZM133.239 98.6601C132.257 98.6601 131.399 98.4895 130.663 98.1481C129.937 97.7961 129.329 97.3321 128.839 96.7561C128.348 96.1695 127.98 95.5135 127.735 94.7881C127.489 94.0628 127.367 93.3215 127.367 92.5641C127.367 91.8175 127.489 91.0815 127.735 90.3561C127.98 89.6308 128.348 88.9801 128.839 88.4041C129.329 87.8175 129.937 87.3535 130.663 87.0121C131.399 86.6708 132.257 86.5001 133.239 86.5001C134.06 86.5001 134.759 86.6068 135.335 86.8201C135.921 87.0228 136.407 87.2895 136.791 87.6201C137.185 87.9401 137.5 88.2868 137.735 88.6601C137.98 89.0228 138.161 89.3695 138.279 89.7001C138.396 90.0201 138.471 90.2868 138.503 90.5001C138.545 90.7028 138.567 90.8041 138.567 90.8041H136.119C136.119 90.8041 136.097 90.7348 136.055 90.5961C136.023 90.4468 135.953 90.2708 135.847 90.0681C135.74 89.8548 135.58 89.6468 135.367 89.4441C135.164 89.2415 134.887 89.0708 134.535 88.9321C134.193 88.7828 133.767 88.7081 133.255 88.7081C132.519 88.7081 131.9 88.9001 131.399 89.2841C130.908 89.6575 130.535 90.1375 130.279 90.7241C130.033 91.3108 129.911 91.9241 129.911 92.5641C129.911 93.2041 130.033 93.8228 130.279 94.4201C130.535 95.0068 130.908 95.4921 131.399 95.8761C131.9 96.2495 132.519 96.4361 133.255 96.4361C133.767 96.4361 134.193 96.3668 134.535 96.2281C134.887 96.0895 135.164 95.9188 135.367 95.7161C135.58 95.5028 135.74 95.2948 135.847 95.0921C135.953 94.8788 136.023 94.7028 136.055 94.5641C136.097 94.4255 136.119 94.3561 136.119 94.3561H138.567C138.567 94.3561 138.545 94.4628 138.503 94.6761C138.471 94.8788 138.396 95.1455 138.279 95.4761C138.161 95.7961 137.98 96.1428 137.735 96.5161C137.5 96.8788 137.185 97.2255 136.791 97.5561C136.407 97.8761 135.921 98.1428 135.335 98.3561C134.759 98.5588 134.06 98.6601 133.239 98.6601Z" fill="#33CB33"/>
        <g clip-path="url(#clip0_13978_70272)">
            <path d="M189.109 117.065H199.791V117.146H189.109V117.065Z" fill="#EBEBEB"/>
            <path d="M227.386 117.943H230.189V118.023H227.386V117.943Z" fill="#EBEBEB"/>
            <path d="M200.114 114.072H206.303V114.153H200.114V114.072Z" fill="#EBEBEB"/>
            <path d="M303.362 114.614H317.292V114.695H303.362V114.614Z" fill="#EBEBEB"/>
            <path d="M298.447 114.614H300.489V114.695H298.447V114.614Z" fill="#EBEBEB"/>
            <path d="M261.596 115.975H291.809V116.056H261.596V115.975Z" fill="#EBEBEB"/>
            <path d="M216.381 122.72L209.541 70.1493H208.318H207.048H206.973H206.148H205.577L193.753 122.72H195.043L205.703 76.0385L202.178 122.72H203.651L207.812 75.8482L214.717 122.72H216.381Z" fill="#CCF2CC"/>
            <path d="M229.05 113.622H199.881L193.108 52.856H222.277L229.05 113.622Z" fill="#007200"/>
            <path opacity="0.8" d="M229.05 113.622H199.881L193.108 52.856H222.277L229.05 113.622Z" fill="white"/>
            <path d="M221.452 58.216H195.357L194.966 54.7167H221.061L221.452 58.216Z" fill="#007200"/>
            <path d="M212.202 72.6748H196.969L196.834 71.4621H212.066L212.202 72.6748Z" fill="#007200"/>
            <path d="M212.505 75.403H197.272L197.137 74.1904H212.37L212.505 75.403Z" fill="#007200"/>
            <path d="M204.594 69.5364H196.618L195.75 61.7508H203.726L204.594 69.5364Z" fill="#007200"/>
            <path d="M214.205 90.6613H198.972L198.837 89.4486H214.073L214.205 90.6613Z" fill="#007200"/>
            <path d="M214.511 93.39H199.278L199.143 92.1774H214.376L214.511 93.39Z" fill="#007200"/>
            <path d="M206.6 87.5267H198.624L197.756 79.7411H205.732L206.6 87.5267Z" fill="#007200"/>
            <path opacity="0.6" d="M221.452 58.216H195.357L194.966 54.7167H221.061L221.452 58.216Z" fill="white"/>
            <path opacity="0.6" d="M212.202 72.6748H196.969L196.834 71.4621H212.066L212.202 72.6748Z" fill="white"/>
            <path opacity="0.6" d="M212.505 75.403H197.272L197.137 74.1904H212.37L212.505 75.403Z" fill="white"/>
            <path opacity="0.6" d="M204.594 69.5364H196.618L195.75 61.7508H203.726L204.594 69.5364Z" fill="white"/>
            <path opacity="0.6" d="M214.205 90.6613H198.972L198.837 89.4486H214.073L214.205 90.6613Z" fill="white"/>
            <path opacity="0.6" d="M214.511 93.39H199.278L199.143 92.1774H214.376L214.511 93.39Z" fill="white"/>
            <path opacity="0.6" d="M206.6 87.5267H198.624L197.756 79.7411H205.732L206.6 87.5267Z" fill="white"/>
            <path d="M253.581 126.441C219.045 126.441 191.047 124.806 191.047 122.79C191.047 120.773 219.045 119.139 253.581 119.139C288.117 119.139 316.114 120.773 316.114 122.79C316.114 124.806 288.117 126.441 253.581 126.441Z" fill="#CCF2CC"/>
            <path d="M226.657 119.82L229.273 120.097L229.763 114.453L227.147 114.175L226.657 119.82Z" fill="#FFC5C5"/>
            <path d="M213.601 119.629H216.136L216.346 113.756H213.808L213.601 119.629Z" fill="#FFC5C5"/>
            <path d="M216.488 119.336H213.408C213.305 119.336 213.214 119.41 213.192 119.51L212.692 121.768C212.65 121.971 212.779 122.168 212.979 122.209C213.005 122.216 213.034 122.219 213.063 122.219C214.059 122.203 214.785 122.142 216.037 122.142C216.807 122.142 219.133 122.222 220.197 122.222C221.261 122.222 221.4 121.171 220.965 121.074C219.01 120.648 217.539 120.058 216.914 119.497C216.798 119.391 216.646 119.333 216.488 119.336Z" fill="#121212"/>
            <path d="M217.326 119.781C217.497 119.794 217.671 119.749 217.813 119.652C217.907 119.575 217.955 119.452 217.939 119.329C217.942 119.258 217.9 119.191 217.836 119.162C217.555 119.017 216.736 119.52 216.646 119.578C216.623 119.587 216.614 119.613 216.617 119.636C216.62 119.662 216.639 119.681 216.662 119.687C216.878 119.742 217.101 119.775 217.326 119.781ZM217.704 119.255C217.73 119.252 217.759 119.258 217.781 119.271C217.797 119.271 217.817 119.294 217.82 119.342C217.829 119.423 217.8 119.504 217.739 119.558C217.455 119.687 217.133 119.704 216.836 119.604C217.101 119.433 217.394 119.313 217.704 119.255Z" fill="#333373"/>
            <path d="M216.678 119.69H216.707C216.969 119.549 217.475 118.991 217.423 118.723C217.404 118.629 217.323 118.565 217.23 118.565C217.136 118.552 217.046 118.581 216.975 118.642C216.682 118.881 216.62 119.61 216.617 119.645C216.617 119.668 216.627 119.687 216.646 119.7C216.659 119.7 216.669 119.697 216.678 119.69ZM217.188 118.662H217.217C217.294 118.662 217.301 118.707 217.304 118.723C217.336 118.887 217.014 119.31 216.753 119.507C216.769 119.216 216.875 118.942 217.053 118.713C217.091 118.678 217.14 118.662 217.188 118.662Z" fill="#333373"/>
            <path d="M229.55 119.255H226.47C226.367 119.255 226.276 119.329 226.254 119.429L225.754 121.687C225.712 121.89 225.841 122.087 226.041 122.129C226.067 122.135 226.096 122.139 226.125 122.139C227.121 122.122 227.847 122.061 229.098 122.061C229.869 122.061 232.195 122.142 233.259 122.142C234.323 122.142 234.462 121.09 234.027 120.994C232.072 120.568 230.601 119.978 229.976 119.417C229.86 119.31 229.708 119.252 229.55 119.255Z" fill="#121212"/>
            <path d="M230.389 119.7C230.56 119.713 230.734 119.668 230.876 119.571C230.969 119.494 231.018 119.371 231.002 119.249C231.005 119.178 230.963 119.11 230.898 119.081C230.618 118.936 229.799 119.439 229.708 119.497C229.686 119.507 229.676 119.533 229.679 119.555C229.682 119.581 229.702 119.6 229.724 119.607C229.94 119.662 230.163 119.694 230.389 119.7ZM230.766 119.175C230.792 119.171 230.821 119.178 230.844 119.191C230.86 119.191 230.879 119.213 230.882 119.262C230.892 119.342 230.863 119.423 230.802 119.478C230.518 119.607 230.195 119.623 229.899 119.523C230.163 119.352 230.457 119.233 230.766 119.175Z" fill="#333373"/>
            <path d="M229.74 119.61H229.769C230.031 119.468 230.537 118.91 230.485 118.642C230.466 118.549 230.385 118.484 230.292 118.484C230.198 118.471 230.108 118.5 230.037 118.562C229.744 118.8 229.682 119.529 229.679 119.565C229.679 119.587 229.689 119.607 229.708 119.62C229.721 119.62 229.731 119.616 229.74 119.61ZM230.25 118.581H230.279C230.356 118.581 230.363 118.626 230.366 118.642C230.398 118.807 230.076 119.229 229.815 119.426C229.831 119.136 229.937 118.862 230.115 118.633C230.153 118.597 230.202 118.581 230.25 118.581Z" fill="#333373"/>
            <path opacity="0.2" d="M227.147 114.175L229.763 114.453L229.508 117.362L226.893 117.088L227.147 114.175Z" fill="#121212"/>
            <path opacity="0.2" d="M213.808 113.759H216.346L216.236 116.788H213.698L213.808 113.759Z" fill="#121212"/>
            <path d="M214.856 62.2401H228.311C229.592 69.2259 233.598 93.9503 230.724 115.982L226.17 115.417C226.17 115.417 226.592 86.1711 222.571 75.3602C222.109 81.1462 221.558 87.3031 221.081 90.58C219.91 98.643 217.404 116.265 217.404 116.265H212.766C212.766 116.265 213.714 99.3977 214.153 91.4733C214.63 82.8685 214.837 64.0075 214.856 62.2401Z" fill="#333373"/>
            <path opacity="0.6" d="M212.763 116.262H217.4C217.4 116.262 219.906 98.6398 221.077 90.5768C221.555 87.3032 222.103 81.1463 222.567 75.3603C223.161 76.9535 223.654 78.9435 224.07 81.1818C226.473 94.1503 226.167 115.417 226.167 115.417L230.721 116.062C233.594 94.031 229.592 69.1743 228.311 62.4014H214.856C214.836 64.014 214.63 82.9492 214.149 91.5508C213.711 99.4751 212.763 116.262 212.763 116.262Z" fill="white"/>
            <path d="M231.243 117.043L225.605 116.204L225.776 114.643L231.643 115.411L231.243 117.043Z" fill="#333373"/>
            <path d="M217.959 116.301H212.489V114.666L218.165 114.559L217.959 116.301Z" fill="#333373"/>
            <path d="M212.524 40.1507C213.269 42.8857 213.808 45.6755 214.137 48.4943C214.243 49.3587 214.33 50.2069 214.401 51.0293C214.495 52.0743 214.559 53.0806 214.611 54.0352C214.675 55.2447 214.695 56.6734 214.691 58.0796C214.685 61.3113 214.556 64.4171 214.556 64.4171C217.136 65.0622 224.593 64.6332 228.666 64.3365C229.195 60.1986 229.24 56.1542 229.04 52.5935C228.879 49.607 228.547 46.9623 228.186 44.8756C227.87 43.047 227.534 41.6504 227.276 40.8377C226.97 39.8766 226.134 39.1832 225.135 39.0606C224.641 38.9993 224.07 38.938 223.47 38.9026C223.238 38.9026 223.006 38.88 222.771 38.8768C220.845 38.8993 218.926 39.0316 217.017 39.2767C216.656 39.3186 216.288 39.3735 215.933 39.4315C214.117 39.7089 212.524 40.1507 212.524 40.1507Z" fill="#333373"/>
            <path opacity="0.2" d="M225.615 43.2661C225.615 43.2661 227.786 48.1426 229.04 52.5933C228.879 49.6068 228.547 46.9621 228.186 44.8754L225.615 43.2661Z" fill="#121212"/>
            <path d="M226.019 39.338C229.07 39.5831 235.069 49.5618 233.94 51.7292C232.811 53.8965 230.918 54.906 227.654 48.7781C224.393 42.647 226.019 39.338 226.019 39.338Z" fill="#333373"/>
            <path opacity="0.2" d="M226.019 39.338C229.07 39.5831 235.069 49.5618 233.94 51.7292C232.811 53.8965 230.918 54.906 227.654 48.7781C224.393 42.647 226.019 39.338 226.019 39.338Z" fill="#121212"/>
            <path d="M224.554 28.0272C224.554 28.0272 224.983 30.9041 223.129 32.2458C221.274 33.5875 221.274 27.0854 221.274 27.0854L224.554 28.0272Z" fill="#121212"/>
            <path d="M217.014 39.2602C218.249 40.3826 221.274 39.9665 221.274 39.9665C221.274 39.9665 223.164 39.4505 222.767 38.8603C221.655 38.6764 221.116 38.1572 220.894 37.4928C220.765 37.1058 220.745 36.6704 220.781 36.2221C220.797 35.9866 220.832 35.748 220.874 35.5125L217.133 32.7421C217.623 34.5708 218.223 37.9346 217.014 39.2602Z" fill="#FFC5C5"/>
            <path opacity="0.2" d="M217.997 34.5034C218.146 36.7482 219.99 37.3674 220.894 37.4932C220.765 37.1062 220.745 36.6708 220.781 36.2225L217.997 34.5034Z" fill="#121212"/>
            <path d="M217.746 35.0225C218.646 36.3158 220.113 36.6544 221.387 36.2513C222.206 35.9933 222.945 35.4256 223.403 34.6097C223.464 34.5032 223.519 34.3903 223.571 34.2742C224.483 32.1391 224.774 28.4044 222.516 27.0046C220.913 25.9951 218.791 26.4757 217.781 28.0818C217.491 28.5366 217.317 29.0559 217.265 29.5945C216.988 32.0908 216.707 33.5453 217.746 35.0225Z" fill="#FFC5C5"/>
            <path d="M220.903 30.9297C220.855 31.1264 220.945 31.3135 221.081 31.336C221.216 31.3586 221.345 31.2103 221.381 31.0103C221.416 30.8103 221.335 30.6265 221.203 30.6039C221.074 30.5813 220.942 30.7233 220.903 30.9297Z" fill="#121212"/>
            <path d="M223.183 31.3165C223.135 31.5133 223.229 31.7003 223.361 31.7229C223.493 31.7455 223.625 31.5971 223.661 31.3971C223.696 31.1972 223.616 31.0133 223.483 30.9908C223.354 30.9714 223.216 31.1262 223.183 31.3165Z" fill="#121212"/>
            <path d="M222.442 31.2943C222.577 31.9522 222.803 32.5876 223.109 33.1842C222.793 33.3358 222.429 33.3423 222.11 33.2003L222.442 31.2943Z" fill="#DE5753"/>
            <path d="M220.323 30.0688C220.365 30.0817 220.413 30.072 220.445 30.043C220.662 29.8301 220.968 29.7301 221.271 29.7753C221.336 29.7914 221.4 29.7527 221.416 29.6882C221.432 29.6237 221.394 29.5592 221.329 29.5431C220.949 29.4754 220.558 29.5947 220.284 29.8656C220.236 29.9108 220.229 29.9849 220.274 30.0333C220.274 30.0333 220.274 30.0333 220.278 30.0365C220.291 30.0527 220.307 30.0623 220.323 30.0688Z" fill="#121212"/>
            <path d="M221.606 34.1839C221.006 34.1743 220.448 33.8679 220.113 33.3712C220.097 33.3422 220.106 33.3035 220.136 33.2841C220.165 33.2648 220.203 33.2744 220.219 33.3035L220.223 33.3067C220.542 33.7614 221.058 34.0388 221.613 34.0549C221.645 34.0549 221.674 34.0807 221.674 34.1162C221.674 34.1194 221.674 34.1194 221.674 34.1227C221.674 34.1549 221.648 34.1839 221.613 34.1839C221.609 34.1839 221.606 34.1839 221.606 34.1839Z" fill="#121212"/>
            <path d="M224.296 30.6975C224.316 30.7104 224.342 30.7168 224.364 30.7136C224.429 30.6975 224.464 30.6297 224.448 30.5685V30.5652C224.348 30.1911 224.074 29.8879 223.709 29.7557C223.645 29.7363 223.58 29.7718 223.561 29.8363C223.545 29.9008 223.58 29.9653 223.642 29.9847C223.925 30.0976 224.138 30.3395 224.216 30.6362C224.232 30.6684 224.261 30.691 224.296 30.6975Z" fill="#121212"/>
            <path d="M220.416 27.9722C219.717 27.6239 218.888 28.1722 219.072 28.914C219.313 29.8815 218.614 31.2522 217.836 31.736C217.836 31.736 217.862 31.3329 217.514 31.3877C217.165 31.4425 217.004 33.5389 217.54 34.6129C217.54 34.6129 216.653 33.5905 216.356 31.3329C216.059 29.0752 216.249 27.2756 216.865 26.6563C217.485 26.0371 217.646 26.6821 218.101 25.8242C218.559 24.9631 219.471 23.9955 220.252 24.5599C221.032 25.1244 221.839 25.2308 222.455 24.8018C223.074 24.3729 223.771 25.0695 223.69 25.85C223.609 26.6305 224.899 26.0661 225.167 26.8724C225.441 27.6755 224.832 30.1782 220.416 27.9722Z" fill="#121212"/>
            <path opacity="0.2" d="M221.387 36.2514C222.206 35.9934 222.945 35.4258 223.403 34.6098C222.793 34.613 221.906 34.6453 221.674 34.7872C221.442 34.9259 221.39 35.7064 221.387 36.2514Z" fill="#121212"/>
            <path d="M215.837 31.4394C216.014 32.0457 216.427 32.5585 216.985 32.8617C217.723 33.2584 218.275 32.6424 218.223 31.849C218.172 31.1459 217.733 30.0686 216.917 30.0074C216.098 29.9429 215.627 30.6911 215.837 31.4394Z" fill="#FFC5C5"/>
            <path d="M217.565 37.8348L221.142 39.4474L221.352 38.1541L222.668 38.6153C223.138 38.7798 223.435 39.2507 223.384 39.7474L223.235 41.1665L221.419 40.1731L220.516 41.4503L216.22 39.3797L217.565 37.8348Z" fill="#333373"/>
            <path opacity="0.6" d="M217.565 37.8348L221.142 39.4474L221.352 38.1541L222.668 38.6153C223.138 38.7798 223.435 39.2507 223.384 39.7474L223.235 41.1665L221.419 40.1731L220.516 41.4503L216.22 39.3797L217.565 37.8348Z" fill="white"/>
            <path d="M226.541 43.9885L223.506 39.0475C223.506 39.0475 222.722 38.9056 222.255 38.2444C221.787 37.5832 221.497 35.0256 221.716 34.9095C221.938 34.7934 224.29 35.0708 224.454 35.3869C224.619 35.7029 225.083 38.3218 225.083 38.3218L228.579 42.421L226.541 43.9885Z" fill="#FFC5C5"/>
            <path d="M233.378 48.3167C231.895 45.8752 226.673 39.5151 226.673 39.5151L224.251 41.1471C224.251 41.1471 228.615 50.0035 230.253 51.7257C231.892 53.4512 235.475 51.7709 233.378 48.3167Z" fill="#333373"/>
            <path opacity="0.1" d="M233.378 48.3167C231.895 45.8752 226.673 39.5151 226.673 39.5151L224.251 41.1471C224.251 41.1471 228.615 50.0035 230.253 51.7257C231.892 53.4512 235.475 51.7709 233.378 48.3167Z" fill="#121212"/>
            <path opacity="0.2" d="M214.611 54.0349C214.675 55.2443 214.695 56.6731 214.692 58.0793C219.446 57.5632 220.629 54.9702 220.629 54.9702L214.401 51.029C214.495 52.074 214.559 53.0802 214.611 54.0349Z" fill="#121212"/>
            <path d="M223.829 51.9646L229.615 51.5647C229.615 51.5647 230.105 50.9358 230.905 50.8261C231.705 50.7197 234.111 51.6453 234.111 51.8937C234.111 52.142 232.775 54.0997 232.421 54.0997C232.066 54.0997 229.528 53.2998 229.528 53.2998L224.277 54.5028L223.829 51.9646Z" fill="#FFC5C5"/>
            <path d="M212.563 40.1765C212.563 40.1765 211.344 40.8699 211.17 44.2596C211.012 47.317 211.995 53.8223 213.911 55.2446C216.972 57.5184 228.102 54.3835 228.102 54.3835L227.673 51.1034C227.673 51.1034 219.249 52.2194 217.243 51.1034C215.237 49.9875 214.637 44.2628 214.637 44.2628C214.637 44.2628 213.798 40.528 212.563 40.1765Z" fill="#333373"/>
            <path opacity="0.1" d="M212.563 40.1765C212.563 40.1765 211.344 40.8699 211.17 44.2596C211.012 47.317 211.995 53.8223 213.911 55.2446C216.972 57.5184 228.102 54.3835 228.102 54.3835L227.673 51.1034C227.673 51.1034 219.249 52.2194 217.243 51.1034C215.237 49.9875 214.637 44.2628 214.637 44.2628C214.637 44.2628 213.798 40.528 212.563 40.1765Z" fill="#333373"/>
            <path d="M226.867 50.8486L227.425 54.9704L228.447 54.5769L228.186 50.9131L226.867 50.8486Z" fill="#333373"/>
            <path opacity="0.6" d="M226.867 50.8486L227.425 54.9704L228.447 54.5769L228.186 50.9131L226.867 50.8486Z" fill="white"/>
            <path d="M227.389 39.9248L226.612 39.1411L224.006 41.0762L224.251 42.0825L227.389 39.9248Z" fill="#333373"/>
            <path opacity="0.6" d="M227.389 39.9248L226.612 39.1411L224.006 41.0762L224.251 42.0825L227.389 39.9248Z" fill="white"/>
            <path opacity="0.2" d="M222.568 75.3601C223.161 76.9533 223.655 78.9433 224.071 81.1816C224.448 76.0342 222.942 70.5707 222.942 70.5707L222.568 75.3601Z" fill="#121212"/>
            <path d="M255.406 116.614L257.438 116.975L258.273 114.201L259.035 111.653L256.69 110.834L256.009 113.895L255.406 116.614Z" fill="#E4897B"/>
            <path opacity="0.2" d="M255.996 113.956L258.264 114.256L259.031 111.682L256.687 110.85L255.996 113.956Z" fill="#121212"/>
            <path d="M268.988 117.552H271.052L271.39 114.643L271.697 111.985L269.246 111.579L269.107 114.74L268.988 117.552Z" fill="#E4897B"/>
            <path opacity="0.2" d="M269.107 114.765L271.39 114.666L271.697 111.998L269.246 111.585L269.107 114.765Z" fill="#121212"/>
            <path d="M252.855 53.3609L249.521 50.0648C249.521 50.0648 249.404 49.1811 249.082 48.936C248.759 48.6908 246.47 47.8587 246.189 48.0426C245.908 48.2264 245.518 50.0777 245.912 50.4163C246.302 50.755 248.385 51.1872 248.598 51.1517L252.207 55.4347L252.855 53.3609Z" fill="#FFC5C5"/>
            <path d="M264.805 47.3554C263.366 48.1198 258.258 55.2571 257.506 55.6119C256.755 55.9667 251.004 51.3031 251.004 51.3031L250.033 52.9576C250.033 52.9576 254.752 59.6241 257.419 59.3015C260.086 58.979 265.192 53.3349 265.192 53.3349L264.805 47.3554Z" fill="#4567FF"/>
            <path opacity="0.3" d="M264.805 47.3554C263.366 48.1198 258.258 55.2571 257.506 55.6119C256.755 55.9667 251.004 51.3031 251.004 51.3031L250.033 52.9576C250.033 52.9576 254.752 59.6241 257.419 59.3015C260.086 58.979 265.192 53.3349 265.192 53.3349L264.805 47.3554Z" fill="#121212"/>
            <path d="M251.317 51.4771L250.92 51.0998L249.872 52.8737L250.249 53.5993L251.317 51.4771Z" fill="#4567FF"/>
            <path opacity="0.2" d="M263.141 55.4152C264.334 54.2768 265.192 53.3318 265.192 53.3318L265.102 51.9127L264.653 50.5355C264.653 50.5355 262.641 52.39 263.141 55.4152Z" fill="#121212"/>
            <path d="M255.806 112.343L259.151 112.933C262.525 104.525 264.927 97.5072 266.621 91.6825C267.533 88.5411 268.294 85.7449 268.843 83.2647L268.739 92.4178V113.037H272.036C280.299 73.6891 274.442 64.723 274.442 64.723L264.56 63.0782C264.185 64.5521 263.898 66.9678 263.731 68.632L263.286 71.912L259.422 91.8663L255.806 112.343Z" fill="#121212"/>
            <path d="M274.545 64.807C274.545 64.807 276.025 68.2096 276.454 69.6545L269.01 70.5317L267.83 66.0971L266.127 70.2092L263.334 69.1546L264.224 64.0362L274.545 64.807Z" fill="#4567FF"/>
            <path opacity="0.3" d="M274.545 64.807C274.545 64.807 276.025 68.2096 276.454 69.6545L269.01 70.5317L267.83 66.0971L266.127 70.2092L263.334 69.1546L264.224 64.0362L274.545 64.807Z" fill="#121212"/>
            <path d="M274.545 63.3334V64.8073L264.224 64.0365V62.2885L274.545 63.3334Z" fill="#121212"/>
            <path d="M266.694 62.6493L268.897 62.8466L268.748 64.517L266.544 64.3197L266.694 62.6493Z" fill="white"/>
            <path d="M271.062 62.7151L271.561 62.7406L271.431 65.2884L270.931 65.2629L271.062 62.7151Z" fill="#4567FF"/>
            <path opacity="0.3" d="M271.062 62.7151L271.561 62.7406L271.431 65.2884L270.931 65.2629L271.062 62.7151Z" fill="#121212"/>
            <path d="M264.9 62.0339L265.4 62.0594L265.269 64.6072L264.77 64.5817L264.9 62.0339Z" fill="#4567FF"/>
            <path opacity="0.3" d="M264.9 62.0339L265.4 62.0594L265.269 64.6072L264.77 64.5817L264.9 62.0339Z" fill="#121212"/>
            <path opacity="0.2" d="M266.62 91.6829C267.533 88.5416 268.246 85.7453 268.791 83.2651C268.791 83.2651 268.736 78.4467 268.152 74.4861C268.152 74.4861 266.704 85.8098 266.62 91.6829Z" fill="#121212"/>
            <path d="M276.106 39.5894C275.815 40.7053 277.405 43.7789 276.76 49.3747C276.115 54.9704 269.978 54.6285 267.22 52.7643C264.463 50.9002 264.94 40.7763 265.888 38.7831C266.84 36.7867 276.106 39.5894 276.106 39.5894Z" fill="#121212"/>
            <path d="M264.321 62.4656L274.403 63.3364C274.561 60.8336 274.719 58.9211 275.474 55.9345C275.715 54.9702 276.019 53.8898 276.406 52.6448C276.612 51.9805 276.841 51.2645 277.099 50.4936C277.293 49.9099 277.499 49.2906 277.728 48.6359C276.357 48.2005 274.961 47.8586 273.545 47.6264C272.052 47.362 270.536 47.2007 269.02 47.1491C267.059 47.133 264.805 47.3523 264.805 47.3523C264.805 47.3523 264.485 47.4297 264.282 49.5099C264.098 51.4612 263.918 55.3669 264.321 62.4656Z" fill="#4567FF"/>
            <path opacity="0.3" d="M264.321 62.4656L274.403 63.3364C274.561 60.8336 274.719 58.9211 275.474 55.9345C275.715 54.9702 276.019 53.8898 276.406 52.6448C276.612 51.9805 276.841 51.2645 277.099 50.4936C277.293 49.9099 277.499 49.2906 277.728 48.6359C276.357 48.2005 274.961 47.8586 273.545 47.6264C272.052 47.362 270.536 47.2007 269.02 47.1491C267.059 47.133 264.805 47.3523 264.805 47.3523C264.805 47.3523 264.485 47.4297 264.282 49.5099C264.098 51.4612 263.918 55.3669 264.321 62.4656Z" fill="#121212"/>
            <path d="M270.829 46.8587C272.039 46.9297 273.974 46.92 275.228 48.8551H272.932L274.183 50.3806C274.183 50.3806 270.165 51.3385 268.91 53.9735C268.91 53.9735 267.111 50.8515 266.133 50.1258C266.133 50.1258 267.075 49.1615 268.172 48.639C268.172 48.639 267.233 48.2165 266.133 48.0359C266.13 48.0359 269.194 46.7619 270.829 46.8587Z" fill="white"/>
            <path d="M273.08 47.9974C273.08 47.9974 269.971 51.5032 269.01 53.1964C269.01 53.1964 268.252 50.4324 269.139 47.5814L273.08 47.9974Z" fill="#4567FF"/>
            <path opacity="0.6" d="M273.08 47.9974C273.08 47.9974 269.971 51.5032 269.01 53.1964C269.01 53.1964 268.252 50.4324 269.139 47.5814L273.08 47.9974Z" fill="white"/>
            <path d="M269.849 49.3744C272.332 49.0551 273.08 47.994 273.08 47.994C271.503 46.5072 272.813 43.9302 272.813 43.9302L269.823 44.4882C269.9 44.9817 269.936 45.3977 269.939 45.746C269.962 47.5618 269.142 47.5779 269.142 47.5779C268.617 48.5648 269.849 49.3744 269.849 49.3744Z" fill="#FFC5C5"/>
            <path opacity="0.2" d="M269.823 44.4915C269.9 44.9849 269.936 45.401 269.939 45.7493C271.958 45.7493 272.813 43.9335 272.813 43.9335L269.823 44.4915Z" fill="#121212"/>
            <path d="M271.477 36.1288C268.878 35.9869 267.965 37.3318 267.626 40.0022C267.204 43.3371 267.817 45.756 271.106 45.2206C275.573 44.4885 275.793 36.3642 271.477 36.1288Z" fill="#FFC5C5"/>
            <path d="M269.317 39.9474C269.317 39.9474 268.92 40.6053 268.501 40.9827C268.501 40.9827 268.704 41.3471 269.168 41.3149L269.317 39.9474Z" fill="#D4827D"/>
            <path d="M270.92 39.8219C270.904 40.0348 271.003 40.2186 271.145 40.2283C271.287 40.238 271.416 40.0767 271.432 39.8639C271.449 39.651 271.349 39.4672 271.207 39.4575C271.065 39.4446 270.936 39.6091 270.92 39.8219Z" fill="#121212"/>
            <path d="M271.265 39.4703L270.817 39.251C270.813 39.2543 271.017 39.6606 271.265 39.4703Z" fill="#121212"/>
            <path d="M268.271 39.5703C268.255 39.7832 268.355 39.967 268.497 39.9767C268.639 39.9863 268.768 39.8251 268.784 39.6122C268.8 39.3994 268.7 39.2155 268.559 39.2058C268.417 39.1929 268.288 39.3574 268.271 39.5703Z" fill="#121212"/>
            <path d="M268.617 39.2187L268.169 38.9994C268.169 39.0026 268.368 39.409 268.617 39.2187Z" fill="#121212"/>
            <path d="M271.042 38.0284C271.042 38.0284 271.778 37.9736 272.148 38.4831" stroke="#121212" stroke-width="0.6862" stroke-miterlimit="10" stroke-linecap="round" stroke-linejoin="round"/>
            <path d="M269.159 37.8158C269.159 37.8158 268.71 37.6191 268.111 37.9739" stroke="#121212" stroke-width="0.6862" stroke-miterlimit="10" stroke-linecap="round" stroke-linejoin="round"/>
            <path d="M269.491 42.3599C269.623 42.6824 269.745 43.2791 269.745 43.2791C269.8 43.2791 269.858 43.2759 269.913 43.2726C270.674 43.2371 271.016 42.9695 271.165 42.6824C271.245 42.5244 271.265 42.3599 271.265 42.2277C271.265 42.0729 271.229 41.9632 271.229 41.9632C270.836 42.2212 270.129 42.3115 269.752 42.3405C269.594 42.3567 269.491 42.3599 269.491 42.3599Z" fill="#121212"/>
            <path d="M269.752 42.3438L269.833 42.6115C270.549 42.576 271.048 42.4566 271.265 42.2277C271.265 42.0729 271.229 41.9632 271.229 41.9632C270.839 42.2244 270.129 42.3115 269.752 42.3438Z" fill="white"/>
            <path d="M269.913 43.2729C270.675 43.2374 271.016 42.9697 271.165 42.6827C270.907 42.7053 270.597 42.7601 270.326 42.8891C270.12 42.9891 269.994 43.131 269.913 43.2729Z" fill="#DE5753"/>
            <path d="M274.077 40.6667C274.077 40.6667 272.977 38.4639 273.255 36.8255C273.255 36.8255 268.22 34.4389 267.678 39.654C267.678 39.654 267.43 34.9839 271.903 35.1259C276.37 35.2678 275.999 41.8052 273.587 43.6243C273.584 43.6243 274.758 42.0439 274.077 40.6667Z" fill="#121212"/>
            <path d="M273.622 41.1922C273.661 40.7762 274.132 40.0892 274.906 40.2182C275.706 40.3504 275.999 42.0243 273.974 42.3114C273.687 42.3533 273.538 42.063 273.622 41.1922Z" fill="#FFC5C5"/>
            <path d="M272.561 36.564C272.561 36.564 272.149 39.7699 274.077 42.6822C275.538 44.8915 273.861 46.8266 273.861 46.8266C273.861 46.8266 277.331 45.6301 275.819 40.7052C275.819 40.7052 277.451 36.306 274.242 35.1191C274.242 35.1191 274.222 33.7775 271.323 34.0322C268.42 34.287 266.082 36.7737 265.64 39.944C265.195 43.1144 266.85 46.6492 266.85 46.6492C266.85 46.6492 265.089 35.4191 272.561 36.564Z" fill="#121212"/>
            <path d="M272.406 36.5188C272.406 36.5188 272.397 36.5575 272.377 36.6285C272.361 36.6994 272.339 36.8026 272.319 36.9348C272.277 37.1993 272.235 37.5767 272.229 38.0314C272.226 38.2572 272.229 38.5055 272.248 38.7635C272.264 39.0216 272.29 39.2957 272.335 39.5731C272.374 39.8537 272.429 40.1375 272.493 40.4277C272.558 40.718 272.638 41.0051 272.722 41.2921C272.816 41.5791 272.906 41.8597 273.019 42.1339C273.125 42.4112 273.248 42.6725 273.374 42.924C273.625 43.4272 273.909 43.869 274.183 44.2238C274.454 44.5818 274.716 44.8495 274.909 45.0269C275.103 45.2043 275.225 45.2881 275.225 45.2881C275.225 45.2881 275.103 45.201 274.919 45.0172C274.732 44.8366 274.483 44.5592 274.225 44.1948C273.967 43.8336 273.7 43.3853 273.467 42.8789C273.351 42.6273 273.238 42.3629 273.145 42.0887C273.042 41.8178 272.961 41.5275 272.877 41.2469C272.803 40.9599 272.732 40.6729 272.68 40.3858C272.626 40.0988 272.58 39.8182 272.551 39.544C272.519 39.2699 272.5 39.0022 272.493 38.7506C272.484 38.4991 272.487 38.2604 272.497 38.0411C272.516 37.6025 272.568 37.238 272.619 36.9897C272.642 36.8639 272.668 36.7704 272.684 36.7059C272.703 36.6446 272.713 36.6091 272.713 36.6091L272.406 36.5188Z" fill="#121212"/>
            <path opacity="0.2" d="M275.077 57.6698C275.187 57.1279 275.316 56.5506 275.474 55.9314C275.574 55.5379 275.683 55.1251 275.806 54.6865C275.493 53.5867 275.17 54.4478 275.17 54.4478C275.17 54.4478 274.848 55.7766 275.077 57.6698Z" fill="#121212"/>
            <path d="M287.046 64.9684L290.658 67.9614C290.658 67.9614 291.548 67.9872 291.825 68.2839C292.103 68.5806 293.154 70.777 292.999 71.0737C292.845 71.3704 291.042 71.9413 290.668 71.5865C290.293 71.2317 289.655 69.2031 289.671 68.987L285.049 65.8198L287.046 64.9684Z" fill="#FFC5C5"/>
            <path d="M277.728 48.6359C277.728 48.6359 281.211 58.9211 282.23 60.1563C283.253 61.3916 288.574 65.8553 288.574 65.8553L287.875 67.9517C287.875 67.9517 281.963 64.5652 280.563 63.2203C279.486 62.185 275.187 54.5122 275.187 54.5122C275.187 54.5122 275.322 49.5874 277.728 48.6359Z" fill="#4567FF"/>
            <path opacity="0.3" d="M277.728 48.6359C277.728 48.6359 281.211 58.9211 282.23 60.1563C283.253 61.3916 288.574 65.8553 288.574 65.8553L287.875 67.9517C287.875 67.9517 281.963 64.5652 280.563 63.2203C279.486 62.185 275.187 54.5122 275.187 54.5122C275.187 54.5122 275.322 49.5874 277.728 48.6359Z" fill="#121212"/>
            <path d="M289.113 65.8553L288.413 65.2651L287.391 68.1678L288.197 68.4903L289.113 65.8553Z" fill="#4567FF"/>
            <path d="M266.185 121.645C266.514 121.38 266.888 121.177 267.288 121.045C267.288 121.045 268.488 119.855 269.065 116.272L270.636 115.862C271.181 115.73 271.752 115.952 272.064 116.42C272.11 116.485 272.142 116.552 272.164 116.626C272.245 117.01 272.3 117.4 272.332 117.791C272.49 119.003 272.355 121.725 272.355 121.725H272.071L271.958 119.255C271.916 118.416 271.274 119.4 271.09 120.303C270.907 121.206 270.516 122.167 268.678 122.212C266.533 122.254 265.643 122.171 266.185 121.645Z" fill="#121212"/>
            <path d="M252.478 121.403C252.807 121.138 253.181 120.935 253.581 120.803C253.581 120.803 254.781 119.613 255.358 116.03L256.929 115.62C257.474 115.488 258.045 115.71 258.358 116.178C258.403 116.243 258.435 116.31 258.458 116.385C258.538 116.768 258.593 117.159 258.625 117.549C258.783 118.762 258.648 121.484 258.648 121.484H258.364L258.251 119.013C258.209 118.175 257.567 119.158 257.384 120.061C257.2 120.964 256.809 121.925 254.971 121.971C252.826 122.013 251.936 121.929 252.478 121.403Z" fill="#121212"/>
            <path d="M290.187 110.653L288.613 114.278C288.003 115.678 286.623 116.584 285.094 116.584H278.492C277.615 116.584 276.776 116.236 276.157 115.617H263.827C262.86 115.617 261.953 115.152 261.389 114.369L259.76 112.105L290.187 110.653Z" fill="#121212"/>
            <path d="M280.14 96.2818C280.14 98.0169 273.213 110.363 272.516 110.856C271.822 111.347 262.779 110.798 262.779 110.798L263.453 113.359H288.3L298.614 93.3275L291.793 83.4842L279.36 83.8293C279.36 83.8261 280.14 94.5466 280.14 96.2818Z" fill="#0099FF"/>
            <path opacity="0.2" d="M280.14 96.2818C280.14 98.0169 273.213 110.363 272.516 110.856C271.822 111.347 262.779 110.798 262.779 110.798L263.453 113.359H288.3L298.614 93.3275L291.793 83.4842L279.36 83.8293C279.36 83.8261 280.14 94.5466 280.14 96.2818Z" fill="#121212"/>
            <path d="M300.314 122.899C294.719 122.899 290.183 117.428 290.183 110.679C290.183 103.93 294.719 98.4589 300.314 98.4589C305.908 98.4589 310.444 103.93 310.444 110.679C310.444 117.428 305.908 122.899 300.314 122.899Z" fill="#121212"/>
            <path d="M302.01 118.387C298.482 118.387 295.621 114.936 295.621 110.679C295.621 106.422 298.482 102.971 302.01 102.971C305.539 102.971 308.4 106.422 308.4 110.679C308.4 114.936 305.539 118.387 302.01 118.387Z" fill="#E6F9E6"/>
            <path d="M303.478 113.785C302.008 113.785 300.817 112.348 300.817 110.576C300.817 108.804 302.008 107.367 303.478 107.367C304.947 107.367 306.139 108.804 306.139 110.576C306.139 112.348 304.947 113.785 303.478 113.785Z" fill="#0099FF"/>
            <path opacity="0.4" d="M303.478 113.785C302.008 113.785 300.817 112.348 300.817 110.576C300.817 108.804 302.008 107.367 303.478 107.367C304.947 107.367 306.139 108.804 306.139 110.576C306.139 112.348 304.947 113.785 303.478 113.785Z" fill="#121212"/>
            <path d="M243.883 92.2181C243.883 92.2181 253.029 99.2297 256.516 113.682H271.158L257.287 91.1183L249.972 88.0769L243.883 92.2181Z" fill="#0099FF"/>
            <path opacity="0.4" d="M242.925 91.5053C242.925 91.5053 251.478 98.046 255.562 110.344C256.219 112.327 258.058 113.682 260.148 113.682H271.155L257.284 91.1183L249.969 88.0769L242.925 91.5053Z" fill="#121212"/>
            <path d="M243.818 92.0729H249.465C250.542 92.0729 251.591 92.3567 252.481 92.9566C255.835 95.1884 263.766 101.413 264.598 111.276C264.714 112.621 265.823 113.682 267.175 113.682H291.725C295.85 113.682 299.901 112.588 303.462 110.511L310.483 106.422C312.034 105.516 312.844 103.722 312.476 101.965C311.641 97.9363 309.286 91.0247 302.549 88.322C302.446 88.2736 302.604 88.2317 302.281 88.193V84.0099H284.684C284.684 84.0099 288.216 92.4244 288.216 95.8947C288.216 99.178 284.746 111.747 280.256 113.037H274.115C272.474 113.037 270.961 112.05 270.155 110.618C267.168 105.29 260.534 91.4633 262.605 78.4012C262.843 76.8725 261.669 75.3051 260.121 75.3051H252.22C252.22 75.3051 245.108 83.5358 242.821 90.4925C242.596 91.1666 243.102 92.0729 243.818 92.0729Z" fill="#0099FF"/>
            <path d="M256.493 72.683H258.744C259.334 72.683 259.915 72.4766 260.373 72.1057L265.014 68.3483C265.198 68.1999 265.427 68.1193 265.662 68.1193H274.577C274.931 68.1193 275.222 67.829 275.222 67.4743C275.222 67.1195 274.931 66.8292 274.577 66.8292H265.662C265.133 66.8292 264.614 67.0131 264.201 67.3453L259.56 71.1026C259.328 71.2897 259.038 71.3929 258.741 71.3929H256.49C255.845 71.3929 255.293 70.9123 255.203 70.2737L254.997 68.8256C254.835 67.6871 253.848 66.8292 252.697 66.8292H251C250.646 66.8292 250.355 67.1195 250.355 67.4743C250.355 67.829 250.646 68.1193 251 68.1193H252.697C253.207 68.1193 253.645 68.4999 253.719 69.0062L253.926 70.4544C254.106 71.7283 255.209 72.683 256.493 72.683Z" fill="#121212"/>
            <path d="M260.466 69.9483C260.466 69.9483 260.441 71.4706 261.866 71.3738L262.334 73.0251C262.466 73.496 262.395 73.9991 262.137 74.412L261.127 76.031H251.761L251.026 74.6474C250.784 74.1959 250.865 73.6379 251.223 73.2703L254.006 70.4192C254.303 70.116 254.706 69.9451 255.129 69.9451H260.466V69.9483Z" fill="#0099FF"/>
            <path opacity="0.4" d="M260.466 69.9483C260.466 69.9483 260.441 71.4706 261.866 71.3738L262.334 73.0251C262.466 73.496 262.395 73.9991 262.137 74.412L261.127 76.031H251.761L251.026 74.6474C250.784 74.1959 250.865 73.6379 251.223 73.2703L254.006 70.4192C254.303 70.116 254.706 69.9451 255.129 69.9451H260.466V69.9483Z" fill="#121212"/>
            <path d="M244.405 122.899C238.81 122.899 234.274 117.428 234.274 110.679C234.274 103.93 238.81 98.4589 244.405 98.4589C250 98.4589 254.535 103.93 254.535 110.679C254.535 117.428 250 122.899 244.405 122.899Z" fill="#121212"/>
            <path d="M246.098 118.387C242.57 118.387 239.709 114.936 239.709 110.679C239.709 106.422 242.57 102.971 246.098 102.971C249.627 102.971 252.487 106.422 252.487 110.679C252.487 114.936 249.627 118.387 246.098 118.387Z" fill="#E6F9E6"/>
            <path d="M234.436 102.797C235.503 100.981 238.358 97.0561 243.486 95.9079C244.998 95.5693 246.334 95.5821 247.495 95.7918L247.517 95.7402L247.495 95.6886C247.507 95.6918 247.52 95.695 247.537 95.6983L248.42 93.6857H249.423C250.236 93.6857 251.029 93.9502 251.681 94.4404L253.442 95.7628L252.613 98.6364C252.929 98.9783 253.152 99.2653 253.284 99.4492C254.942 101.513 255.935 103.984 256.232 105.803C256.299 106.216 255.977 106.587 255.558 106.587H255.029C254.748 106.587 254.496 106.416 254.397 106.154C254.122 105.445 253.458 104 252.207 102.865L249.268 110.512L246.904 109.518L247.73 99.9878C247.73 99.9878 242.292 98.459 238.735 102.855C238.312 103.377 237.684 103.684 237.013 103.684H234.945C234.491 103.684 234.204 103.19 234.436 102.797Z" fill="#0099FF"/>
            <path opacity="0.2" d="M234.436 102.797C235.503 100.981 238.358 97.0561 243.486 95.9079C244.998 95.5693 246.334 95.5821 247.495 95.7918L247.517 95.7402L247.495 95.6886C247.507 95.6918 247.52 95.695 247.537 95.6983L248.42 93.6857H249.423C250.236 93.6857 251.029 93.9502 251.681 94.4404L253.442 95.7628L252.613 98.6364C252.929 98.9783 253.152 99.2653 253.284 99.4492C254.942 101.513 255.935 103.984 256.232 105.803C256.299 106.216 255.977 106.587 255.558 106.587H255.029C254.748 106.587 254.496 106.416 254.397 106.154C254.122 105.445 253.458 104 252.207 102.865L249.268 110.512L246.904 109.518L247.73 99.9878C247.73 99.9878 242.292 98.459 238.735 102.855C238.312 103.377 237.684 103.684 237.013 103.684H234.945C234.491 103.684 234.204 103.19 234.436 102.797Z" fill="#121212"/>
            <path d="M247.566 113.785C246.096 113.785 244.905 112.348 244.905 110.576C244.905 108.804 246.096 107.367 247.566 107.367C249.035 107.367 250.226 108.804 250.226 110.576C250.226 112.348 249.035 113.785 247.566 113.785Z" fill="#0099FF"/>
            <path opacity="0.4" d="M247.566 113.785C246.096 113.785 244.905 112.348 244.905 110.576C244.905 108.804 246.096 107.367 247.566 107.367C249.035 107.367 250.226 108.804 250.226 110.576C250.226 112.348 249.035 113.785 247.566 113.785Z" fill="#121212"/>
            <path d="M257.148 76.3857C257.148 76.3857 255.474 86.9224 249.946 86.9966C244.766 87.0643 244.282 77.1726 249.223 75.6503C253.219 74.4248 257.148 76.3857 257.148 76.3857Z" fill="#0099FF"/>
            <path opacity="0.2" d="M257.148 76.3857C257.148 76.3857 255.474 86.9224 249.946 86.9966C244.766 87.0643 244.282 77.1726 249.223 75.6503C253.219 74.4248 257.148 76.3857 257.148 76.3857Z" fill="#121212"/>
            <path d="M246.121 81.2329C245.998 83.9098 247.611 86.0772 249.723 86.0772C251.836 86.0772 253.645 83.9066 253.768 81.2329C253.89 78.556 252.278 76.3887 250.165 76.3887C248.056 76.3855 246.243 78.556 246.121 81.2329Z" fill="#FBBC05"/>
            <path d="M251.378 74.3213H256.18L255.8 73.7021H251.378V74.3213Z" fill="#FBBC05"/>
            <path d="M277.77 83.5649V84.7776C277.77 85.8774 278.669 86.5902 279.772 86.5902H301.584C302.687 86.5902 303.574 85.8774 303.574 84.7776V83.5649C303.574 82.4651 302.691 81.7524 301.584 81.7524H279.772C278.669 81.7524 277.77 82.4651 277.77 83.5649Z" fill="#121212"/>
            <path opacity="0.2" d="M284.865 83.5649V84.7776C284.865 85.8774 285.616 86.5902 286.723 86.5902H301.584C302.687 86.5902 303.574 85.8774 303.574 84.7776V83.5649C303.574 82.4651 302.691 81.7524 301.584 81.7524H286.723C285.616 81.7524 284.865 82.4651 284.865 83.5649Z" fill="white"/>
            <path opacity="0.2" d="M287.61 105.903V113.682H291.728C295.853 113.682 299.904 112.588 303.465 110.511L310.486 106.422C312.037 105.516 312.847 103.722 312.479 101.965C311.644 97.9363 309.244 91.0247 302.504 88.322L302.191 88.3382H299.469C296.26 88.3382 293.338 90.1959 291.98 93.105L289.071 99.3296C288.106 101.387 287.61 103.632 287.61 105.903Z" fill="#121212"/>
            <path d="M269.398 62.4683L269.91 62.8602L266.417 67.4278L265.905 67.036L269.398 62.4683Z" fill="#121212"/>
            <path d="M271.496 61.9173H269.852C269.503 61.9173 269.187 62.1237 269.052 62.4462L268.832 62.959C268.587 63.5331 269.007 64.1749 269.632 64.1749H271.426C271.861 64.1749 272.229 63.8556 272.29 63.4267L272.364 62.9139C272.435 62.3882 272.029 61.9173 271.496 61.9173Z" fill="#FBBC05"/>
            <path d="M252.982 63.202L253.842 67.2856L253.211 67.4186L252.351 63.3349L252.982 63.202Z" fill="#121212"/>
            <path d="M250.736 61.9173H252.507C252.865 61.9173 253.168 62.1818 253.219 62.5365L253.336 63.3525C253.397 63.7879 253.061 64.1749 252.623 64.1749H250.852C250.494 64.1749 250.191 63.9105 250.139 63.5557L250.023 62.7397C249.962 62.3043 250.301 61.9173 250.736 61.9173Z" fill="#FBBC05"/>
            <path d="M265.91 82.9229L268.707 77.0305C269.065 76.2758 269.964 75.9436 270.726 76.2855L278.024 79.5236C278.321 79.6558 278.569 79.8783 278.731 80.1622L286.261 93.121C286.752 93.9692 286.339 95.0561 285.407 95.3625L274.76 98.8458C274.035 99.0844 273.248 98.7554 272.903 98.0749L265.927 84.284C265.707 83.8582 265.704 83.3519 265.91 82.9229ZM270.406 78.3818C270.871 78.2303 271.126 77.7304 270.974 77.2627C270.822 76.7983 270.322 76.5435 269.855 76.6951C269.387 76.8467 269.136 77.3466 269.287 77.8142C269.439 78.2786 269.939 78.5334 270.406 78.3818Z" fill="#FBBC05"/>
            <path opacity="0.6" d="M265.91 82.9229L268.707 77.0305C269.065 76.2758 269.964 75.9436 270.726 76.2855L278.024 79.5236C278.321 79.6558 278.569 79.8783 278.731 80.1622L286.261 93.121C286.752 93.9692 286.339 95.0561 285.407 95.3625L274.76 98.8457C274.035 99.0844 273.248 98.7554 272.903 98.0749L265.927 84.284C265.707 83.8582 265.704 83.3519 265.91 82.9229ZM270.406 78.3818C270.871 78.2303 271.126 77.7304 270.974 77.2627C270.822 76.7983 270.322 76.5435 269.855 76.6951C269.387 76.8467 269.136 77.3466 269.287 77.8142C269.439 78.2786 269.939 78.5334 270.406 78.3818Z" fill="white"/>
            <path d="M278.963 94.1288L272.163 81.2707L271.277 81.5603L278.077 94.4184L278.963 94.1288ZM271.222 86.1029C271.017 85.5727 271.071 85.0917 271.383 84.6597C271.695 84.2278 272.186 83.9023 272.856 83.6833C273.345 83.5232 273.813 83.4568 274.258 83.484C274.7 83.5124 275.091 83.622 275.433 83.8127C275.771 84.0046 276.026 84.2647 276.2 84.5928C276.345 84.8674 276.4 85.1264 276.364 85.3699C276.323 85.6112 276.225 85.8336 276.071 86.0372C275.915 86.2374 275.736 86.4194 275.536 86.5832C275.334 86.7436 275.143 86.8825 274.964 86.9998L273.99 87.6484C273.739 87.8129 273.47 88.0148 273.183 88.2541C272.892 88.4945 272.641 88.7749 272.43 89.0951C272.214 89.4132 272.088 89.7728 272.051 90.1737C272.013 90.5747 272.122 91.0162 272.377 91.4984C272.671 92.0543 273.094 92.5053 273.644 92.8516C274.191 93.199 274.833 93.4073 275.571 93.4764C276.305 93.5467 277.097 93.4429 277.946 93.1651C278.738 92.906 279.361 92.5629 279.815 92.1356C280.265 91.7095 280.544 91.2297 280.65 90.6961C280.753 90.1637 280.677 89.6092 280.423 89.0325L279.04 89.4846C279.21 89.8848 279.239 90.2522 279.129 90.5867C279.013 90.9191 278.799 91.209 278.487 91.4565C278.169 91.7019 277.79 91.8963 277.351 92.04C276.84 92.2071 276.34 92.2802 275.852 92.2592C275.362 92.2349 274.925 92.1226 274.54 91.9224C274.154 91.7188 273.861 91.4295 273.663 91.0545C273.482 90.713 273.438 90.4015 273.53 90.1201C273.622 89.8387 273.8 89.5763 274.064 89.3328C274.328 89.0894 274.627 88.8539 274.963 88.6263L276.133 87.8196C276.875 87.306 277.384 86.7525 277.662 86.1591C277.939 85.5657 277.894 84.9224 277.528 84.2293C277.223 83.6533 276.79 83.2058 276.229 82.8867C275.662 82.5654 275.031 82.3789 274.337 82.3272C273.637 82.2733 272.934 82.3617 272.228 82.5924C271.515 82.8255 270.945 83.1516 270.516 83.5707C270.085 83.9864 269.816 84.4514 269.708 84.9659C269.597 85.4816 269.669 86.0018 269.925 86.5267L271.222 86.1029Z" fill="#121212"/>
            <path d="M269.507 76.9952C269.507 76.9952 266.081 77.1564 266.443 74.0118C266.907 69.9965 262.211 69.8578 262.772 68.329" stroke="#FBBC05" stroke-miterlimit="10" stroke-linecap="round" stroke-linejoin="round"/>
        </g>
    </g>
    <defs>
        <filter id="filter0_dd_13978_70272" x="0.00012207" y="0.00012207" width="339" height="144" filterUnits="userSpaceOnUse" color-interpolation-filters="sRGB">
            <feFlood flood-opacity="0" result="BackgroundImageFix"/>
            <feColorMatrix in="SourceAlpha" type="matrix" values="0 0 0 0 0 0 0 0 0 0 0 0 0 0 0 0 0 0 127 0" result="hardAlpha"/>
            <feMorphology radius="2" operator="erode" in="SourceAlpha" result="effect1_dropShadow_13978_70272"/>
            <feOffset dy="2"/>
            <feGaussianBlur stdDeviation="2"/>
            <feColorMatrix type="matrix" values="0 0 0 0 0.0470588 0 0 0 0 0.352941 0 0 0 0 0.439216 0 0 0 0.08 0"/>
            <feBlend mode="normal" in2="BackgroundImageFix" result="effect1_dropShadow_13978_70272"/>
            <feColorMatrix in="SourceAlpha" type="matrix" values="0 0 0 0 0 0 0 0 0 0 0 0 0 0 0 0 0 0 127 0" result="hardAlpha"/>
            <feMorphology radius="2" operator="erode" in="SourceAlpha" result="effect2_dropShadow_13978_70272"/>
            <feOffset dy="2"/>
            <feGaussianBlur stdDeviation="2"/>
            <feColorMatrix type="matrix" values="0 0 0 0 0.0470588 0 0 0 0 0.352941 0 0 0 0 0.439216 0 0 0 0.12 0"/>
            <feBlend mode="normal" in2="effect1_dropShadow_13978_70272" result="effect2_dropShadow_13978_70272"/>
            <feBlend mode="normal" in="SourceGraphic" in2="effect2_dropShadow_13978_70272" result="shape"/>
        </filter>
        <clipPath id="clip0_13978_70272">
            <rect width="127" height="127" fill="white" transform="matrix(-1 0 0 1 317 7.00012)"/>
        </clipPath>
    </defs>
</svg>
