<svg width="340" height="145" viewBox="0 0 340 145" fill="none"
    xmlns="http://www.w3.org/2000/svg">
    <g filter="url(#filter0_dd_13978_68978)">
        <g clip-path="url(#clip0_13978_68978)">
            <rect x="2.85999" y="0.881042" width="335" height="140" rx="16" fill="#FFF3FC"/>
            <path d="M25.7963 59.8761V50.9961H27.9683L30.1883 55.8081L32.4563 50.9961H34.5923V59.8761H32.9843V53.4561L30.9443 57.7281H29.4323L27.4043 53.4321V59.8761H25.7963ZM39.8477 59.9961C39.1917 59.9961 38.5957 59.8721 38.0597 59.6241C37.5237 59.3681 37.0997 58.9841 36.7877 58.4721C36.4757 57.9601 36.3197 57.3161 36.3197 56.5401V50.9961H37.9517V56.5401C37.9517 57.0841 38.1037 57.5401 38.4077 57.9081C38.7197 58.2761 39.1997 58.4601 39.8477 58.4601C40.5037 58.4601 40.9877 58.2761 41.2997 57.9081C41.6117 57.5401 41.7677 57.0841 41.7677 56.5401V50.9961H43.3877V56.5401C43.3877 57.3161 43.2317 57.9601 42.9197 58.4721C42.6077 58.9841 42.1837 59.3681 41.6477 59.6241C41.1197 59.8721 40.5197 59.9961 39.8477 59.9961ZM44.4187 59.8761L47.4787 50.9961H49.6027L52.6747 59.8761H50.9707L50.3347 58.0041H46.7587L46.1227 59.8761H44.4187ZM47.2267 56.5881H49.8667L48.5467 52.6641L47.2267 56.5881ZM56.722 59.8761V50.9961H60.598C61.166 50.9961 61.65 51.0961 62.05 51.2961C62.45 51.4961 62.754 51.7641 62.962 52.1001C63.178 52.4361 63.286 52.8041 63.286 53.2041C63.286 53.6121 63.21 53.9481 63.058 54.2121C62.914 54.4761 62.738 54.6841 62.53 54.8361C62.33 54.9801 62.146 55.0801 61.978 55.1361V55.2201C62.186 55.2761 62.418 55.3841 62.674 55.5441C62.938 55.7041 63.166 55.9321 63.358 56.2281C63.55 56.5161 63.646 56.8921 63.646 57.3561C63.646 57.7721 63.546 58.1761 63.346 58.5681C63.146 58.9521 62.83 59.2681 62.398 59.5161C61.966 59.7561 61.394 59.8761 60.682 59.8761H56.722ZM60.382 52.3761H58.354V54.6921H60.382C60.846 54.6921 61.182 54.5761 61.39 54.3441C61.598 54.1121 61.702 53.8401 61.702 53.5281C61.702 53.2241 61.598 52.9561 61.39 52.7241C61.182 52.4921 60.846 52.3761 60.382 52.3761ZM60.502 55.9401H58.354V58.4961H60.502C61.03 58.4961 61.414 58.3681 61.654 58.1121C61.894 57.8561 62.014 57.5561 62.014 57.2121C62.014 56.8761 61.894 56.5801 61.654 56.3241C61.414 56.0681 61.03 55.9401 60.502 55.9401ZM68.2466 50.2041V49.8201C68.2466 49.7241 68.2666 49.6321 68.3066 49.5441C68.3466 49.4561 68.4186 49.3841 68.5226 49.3281L68.7026 49.2441C68.8786 49.1561 69.0106 49.0681 69.0986 48.9801C69.1866 48.8921 69.2306 48.7841 69.2306 48.6561C69.2306 48.5521 69.1906 48.4601 69.1106 48.3801C69.0306 48.3001 68.9146 48.2601 68.7626 48.2601C68.6106 48.2601 68.4986 48.2961 68.4266 48.3681C68.3546 48.4321 68.3106 48.5041 68.2946 48.5841C68.2786 48.6641 68.2706 48.7161 68.2706 48.7401H67.3106C67.3026 48.5321 67.3466 48.3281 67.4426 48.1281C67.5386 47.9201 67.6946 47.7481 67.9106 47.6121C68.1266 47.4761 68.4026 47.4081 68.7386 47.4081C69.2026 47.4081 69.5706 47.5281 69.8426 47.7681C70.1146 48.0081 70.2506 48.2961 70.2506 48.6321C70.2506 48.8961 70.1626 49.1241 69.9866 49.3161C69.8106 49.5081 69.5666 49.6841 69.2546 49.8441L69.2066 49.8681V50.2041H68.2466ZM64.5866 59.8761L67.6466 50.9961H69.7706L72.8426 59.8761H71.1386L70.5026 58.0041H66.9266L66.2906 59.8761H64.5866ZM67.3946 56.5881H70.0346L68.7146 52.6641L67.3946 56.5881ZM77.7948 59.9961C77.0668 59.9961 76.4268 59.8681 75.8748 59.6121C75.3228 59.3481 74.8588 59.0001 74.4828 58.5681C74.1148 58.1281 73.8348 57.6361 73.6428 57.0921C73.4588 56.5481 73.3668 55.9921 73.3668 55.4241C73.3668 54.8561 73.4588 54.3041 73.6428 53.7681C73.8348 53.2241 74.1148 52.7361 74.4828 52.3041C74.8588 51.8721 75.3228 51.5281 75.8748 51.2721C76.4268 51.0081 77.0668 50.8761 77.7948 50.8761C78.5228 50.8761 79.1628 51.0081 79.7148 51.2721C80.2668 51.5281 80.7268 51.8721 81.0948 52.3041C81.4708 52.7361 81.7508 53.2241 81.9348 53.7681C82.1268 54.3041 82.2228 54.8561 82.2228 55.4241C82.2228 55.9921 82.1268 56.5481 81.9348 57.0921C81.7508 57.6361 81.4708 58.1281 81.0948 58.5681C80.7268 59.0001 80.2668 59.3481 79.7148 59.6121C79.1628 59.8681 78.5228 59.9961 77.7948 59.9961ZM77.7948 58.5201C78.3948 58.5201 78.8948 58.3721 79.2948 58.0761C79.7028 57.7801 80.0108 57.3961 80.2188 56.9241C80.4348 56.4521 80.5428 55.9521 80.5428 55.4241C80.5428 54.9041 80.4348 54.4121 80.2188 53.9481C80.0108 53.4761 79.7028 53.0921 79.2948 52.7961C78.8948 52.5001 78.3948 52.3521 77.7948 52.3521C77.1948 52.3521 76.6908 52.5001 76.2828 52.7961C75.8748 53.0921 75.5668 53.4761 75.3588 53.9481C75.1508 54.4121 75.0468 54.9041 75.0468 55.4241C75.0468 55.9521 75.1508 56.4521 75.3588 56.9241C75.5668 57.3961 75.8748 57.7801 76.2828 58.0761C76.6908 58.3721 77.1948 58.5201 77.7948 58.5201ZM86.3939 59.8761V50.9961H88.0259V54.6441H91.7339V50.9961H93.3659V59.8761H91.7339V56.0601H88.0259V59.8761H86.3939ZM95.0892 59.8761V50.9961H96.7212V59.8761H95.0892ZM103.253 48.7761V48.3921C103.253 48.2961 103.273 48.2041 103.313 48.1161C103.353 48.0281 103.425 47.9561 103.529 47.9001L103.709 47.8161C103.885 47.7281 104.017 47.6401 104.105 47.5521C104.193 47.4561 104.237 47.3481 104.237 47.2281C104.237 47.1241 104.197 47.0321 104.117 46.9521C104.037 46.8641 103.921 46.8201 103.769 46.8201C103.617 46.8201 103.505 46.8561 103.433 46.9281C103.361 47.0001 103.317 47.0761 103.301 47.1561C103.285 47.2361 103.277 47.2881 103.277 47.3121H102.317C102.309 47.1041 102.353 46.9001 102.449 46.7001C102.545 46.4921 102.701 46.3201 102.917 46.1841C103.133 46.0481 103.409 45.9801 103.745 45.9801C104.209 45.9801 104.577 46.1001 104.849 46.3401C105.121 46.5801 105.257 46.8641 105.257 47.1921C105.257 47.4641 105.169 47.6961 104.993 47.8881C104.817 48.0801 104.573 48.2521 104.261 48.4041L104.213 48.4401V48.7761H103.253ZM99.3885 50.1681L100.913 48.3441H102.197L103.721 50.1681H102.425L101.549 49.1121L100.685 50.1681H99.3885ZM98.5245 59.8761V50.9961H104.477V52.4121H100.157V54.6681H103.937V56.0481H100.157V58.4601H104.537V59.8761H98.5245ZM106.128 59.8761V50.9961H108.3L110.52 55.8081L112.788 50.9961H114.924V59.8761H113.316V53.4561L111.276 57.7281H109.764L107.736 53.4321V59.8761H106.128Z" fill="#EB5447"/>
            <path fill-rule="evenodd" clip-rule="evenodd" d="M161.314 110.558C181.996 129.294 160.971 133.553 146.009 151.006C130.329 169.295 142.388 182.151 171.667 178.218C224.648 171.093 192.582 197.684 240.696 190.136C288.81 182.587 312.934 171.007 318.077 158.297C318.973 156.076 325.668 155.21 328.927 154.265C346.196 149.251 351.947 139.211 353.008 130.871C353.647 125.857 352.88 124.09 351.088 117.02C350.609 115.13 352.818 112.288 363.49 103.568C371.039 97.4 371.106 85.5005 366.246 80.2227C354.61 67.5928 323.477 86.2553 324.066 65.5063C324.649 44.7572 306.92 44.7388 296.462 39.7188C313.008 14.2258 273.222 2.68835 235.578 9.68448C198.382 16.5947 163.346 41.8176 176.074 52.9685C183.653 59.6148 183.794 62.3703 176.749 68.1268C159.645 79.3635 140.633 91.8216 161.314 110.558Z" fill="#FFDDE5"/>
            <g clip-path="url(#clip1_13978_68978)">
                <path fill-rule="evenodd" clip-rule="evenodd" d="M243.408 130.27C239.028 133.275 234.305 136.384 230.023 139.439C225.344 142.776 220.636 149.043 216.667 153.482C213.794 156.695 210.961 159.854 208.225 163.19C207.789 158.821 207.378 154.451 206.962 150.081C203.032 150.867 199.195 151.485 195.226 152.024C209.248 135.425 223.641 123.933 240.775 111.022C253.416 101.452 277.289 81.3393 282.413 66.3176C284.679 59.6742 285.462 50.1639 280.187 44.7415C273.589 37.9646 263.806 35.2806 254.605 35.9874C254.057 30.2388 253.514 24.495 252.995 18.7463C269.713 17.3969 287.87 24.2874 296.249 39.6403C303.771 53.4213 301.109 70.6971 292.847 83.5093C282.037 100.281 259.847 118.941 243.408 130.27Z" fill="#ED667D"/>
                <path fill-rule="evenodd" clip-rule="evenodd" d="M282.174 120.76C288.702 125.371 291.546 128.476 297.11 134.076C302.885 139.884 309.066 145.588 314.489 151.683C309.908 151.273 305.596 150.684 301.055 149.963C301.412 154.436 301.593 158.563 301.554 163.057C295.72 156.482 287.836 149.048 281.337 143.077C272.88 135.307 262.881 128.48 253.94 120.997C234.3 104.522 202.357 78.1708 210.642 48.7304C215.639 30.9801 235.925 19.893 253.162 18.7462C254.39 18.6622 256.553 33.1204 256.578 35.409C249.55 36.0121 240.613 38.5083 234.378 41.8942C218.478 50.5395 227.135 69.1646 235.538 79.451C247.587 94.1959 266.63 109.702 282.174 120.76Z" fill="#ED667D"/>
                <path fill-rule="evenodd" clip-rule="evenodd" d="M284.024 53.6733C284.347 48.7452 283.73 43.56 281.87 38.9136C279.526 33.0512 275.2 28.0539 268.275 25.5329C268.108 25.4736 268.02 25.2858 268.079 25.1177C268.137 24.9497 268.323 24.8607 268.49 24.92C275.606 27.5101 280.054 32.6508 282.462 38.6714C284.963 44.9243 285.262 52.141 284.063 58.4334C284.195 56.8418 284.195 55.2353 284.024 53.6733Z" fill="#121212"/>
                <path fill-rule="evenodd" clip-rule="evenodd" d="M227.385 38.9136C225.192 44.4003 224.727 50.6384 225.496 56.3179C225.462 50.673 227.85 45.4433 234.379 41.8943C236.204 40.9057 238.255 39.9863 240.428 39.1756C244.783 34.2623 250.705 32.5866 254.429 34.1189C255.178 34.4254 255.834 34.8653 256.377 35.4288C256.514 35.5722 256.641 35.7205 256.759 35.8786C257.199 35.8688 257.64 35.8688 258.08 35.8786C259.872 34.6132 262.436 34.203 265.583 35.157C266.635 35.4783 267.863 36.4273 269.058 37.7817C273.218 39.23 277.059 41.5235 280.192 44.7365C282.511 47.119 283.661 50.2973 284.028 53.6684C284.351 48.7403 283.735 43.5551 281.875 38.9087C273.125 17.0459 235.685 18.163 227.385 38.9136Z" fill="#EA4867"/>
                <path fill-rule="evenodd" clip-rule="evenodd" d="M271.27 44.8799C276.188 49.8723 282.022 63.337 277.828 69.0461C277.211 69.8864 276.492 70.7663 275.767 71.6709C272.322 75.9713 275.669 76.8313 279.536 78.2253C284.014 79.8416 279.908 85.2196 280.51 86.6629C280.705 87.1276 281.2 87.5279 282.203 87.8591C298.965 93.3854 290.689 104.324 293.684 110.775C296.259 116.321 298.838 117.814 299.156 121.936C299.606 127.808 295.094 136.152 279.971 139.731C258.917 144.708 223.91 142.568 214.421 126.118C201.667 104.003 216.97 96.3363 223.533 92.7675C231.173 88.6154 214.876 84.1519 228.432 76.0503C232.842 73.4157 234.227 74.2511 232.279 69.402C229.91 63.5149 240.295 46.5753 241.573 46.0365C242.84 45.5027 271.27 44.8799 271.27 44.8799Z" fill="black"/>
                <path fill-rule="evenodd" clip-rule="evenodd" d="M240.31 120.933L240.3 120.943C240.202 120.888 240.149 120.859 240.149 120.859" fill="#D98A82"/>
                <path fill-rule="evenodd" clip-rule="evenodd" d="M236.297 115.807C236.855 116.825 237.467 117.72 238.098 118.481C238.827 119.366 239.576 120.078 240.271 120.631C240.364 120.705 240.383 120.839 240.31 120.933" fill="#D98A82"/>
                <path fill-rule="evenodd" clip-rule="evenodd" d="M246.971 73.1932C249.286 80.7857 249.946 85.8127 249.207 87.0978C248.468 88.383 239.649 85.0465 226.582 97.8241C213.515 110.602 204.858 122.163 208.377 127.146C211.822 132.025 228.403 115.372 235.744 107.132C237.506 105.155 236.126 109.005 235.866 110.014C233.346 119.865 238.773 127.383 239.644 134.466C240.085 138.06 239.982 141.688 235.289 145.04C232.088 147.323 232.631 152.311 236.224 153.887C240.217 155.642 245.444 157.204 251.571 157.362C258.834 157.545 265.642 154.594 270.629 151.609C274.025 149.572 273.898 144.506 270.384 142.677C266.958 140.897 264.129 138.292 265.764 134.832C272.562 120.409 273.193 109.92 273.589 110.844C274.7 113.419 276.041 116.528 276.756 117.557C280.857 123.483 285.707 131.13 288.722 131.155C292.769 131.189 284.723 98.8424 278.714 94.4481C272.704 90.0587 263.429 87.4142 262.534 85.9857C261.633 84.5522 265.059 74.8244 265.059 74.8244L246.971 73.1932Z" fill="#FFC5C5"/>
                <path fill-rule="evenodd" clip-rule="evenodd" d="M235.724 90.8298C234.525 91.4922 232.71 92.5648 231.192 93.7165C229.264 95.1846 227.649 96.7812 226.582 97.8242C224.674 99.6926 224.052 100.31 223.592 100.765C226.705 103.563 228.07 106.049 231.525 110.152C233.581 108.046 234.256 108.793 235.744 107.127C237.506 105.15 236.126 109 235.866 110.009C234.144 116.746 236.135 122.391 237.843 127.551C241.612 126.993 248.537 126.311 256.504 127.166C262.221 127.779 265.916 128.515 268.226 129.118C272.723 117.734 273.242 110.038 273.585 110.834C273.991 111.778 284.014 105.456 284.635 105.253C282.761 100.108 280.632 95.847 278.714 94.4432C278.366 94.1911 278.009 93.9439 277.642 93.7017C273.844 95.8371 267.345 97.7945 256.323 97.5375C245.762 97.2854 239.458 94.1663 235.724 90.8298Z" fill="#ED667D"/>
                <path fill-rule="evenodd" clip-rule="evenodd" d="M234.281 113.429C234.447 114.467 235.475 119.173 236.037 121.56C236.527 123.636 244.039 125.208 249.976 124.808C261.604 124.027 256.911 124.294 269.199 126.533C271.348 120.592 272.381 115.886 272.929 113.217C272.841 113.395 273.58 110.879 272.537 114.349C271.49 117.819 258.961 122.539 256.411 113.795C253.862 105.051 258.506 100.726 258.506 100.726C256.015 103.242 255.57 103.914 254.527 103.37C253.323 102.747 251.738 100.696 251.943 100.998C252.374 101.63 253.387 104.334 252.672 105.15C251.561 106.42 249.339 107.384 248.175 108.313C247.211 109.079 253.093 108.857 253.362 109.084C254.018 109.638 254.287 109.954 254.263 110.112C252.3 123.192 233.219 116.795 239.282 107.196C239.684 106.558 239.928 107.423 240.936 107.656C241.631 107.814 243.476 107.666 242.762 106.499C242.64 106.296 240.853 104.863 239.204 104.789C237.716 104.72 236.331 106.015 236.36 105.787C236.062 106.395 234.427 112.925 234.281 113.429Z" fill="#D04863"/>
                <path fill-rule="evenodd" clip-rule="evenodd" d="M246.971 73.1932C248.253 77.3997 249.026 80.8153 249.34 83.2473C251.15 85.9511 253.48 87.1918 255.849 87.1621C258.203 87.1374 260.596 85.8621 262.563 83.5389C263.165 80.1925 265.054 74.8195 265.054 74.8195L246.971 73.1932Z" fill="#D98A82"/>
                <path fill-rule="evenodd" clip-rule="evenodd" d="M218.013 112.485C207.51 118.941 205.259 124.165 208.695 127.719C212.13 131.273 221.468 124.778 225.785 119.089L229.622 114.027C230.502 117.008 232.269 119.346 233.522 119.89C234.046 120.117 234.462 119.568 234.834 119.83C235.749 120.473 237.266 120.325 236.914 120.102C236.693 119.964 237.839 120.933 238.852 121.16C239.307 121.264 240.281 121.284 240.144 120.858C240.144 120.858 244.304 123.241 244.333 121.931C244.362 120.621 238.778 117.621 236.884 111.669C234.99 105.718 239.473 106.074 239.473 106.074C239.473 106.074 240.54 107.137 241.754 107.468C242.968 107.804 245.322 107.394 244.592 106.781C243.863 106.168 240.78 103.202 239.243 102.673C238.137 102.293 233.767 103.301 231.158 105.54C228.339 107.122 224.126 109.391 218.013 112.485Z" fill="#FFC5C5"/>
                <path fill-rule="evenodd" clip-rule="evenodd" d="M212.869 128.55C217.093 127.601 222.706 123.142 225.78 119.089L229.577 114.082C229.362 113.024 229.201 111.61 229.323 109.92C225.936 114.354 221.972 124.002 212.869 128.55Z" fill="#D98A82"/>
                <path fill-rule="evenodd" clip-rule="evenodd" d="M283.006 120.404C288.56 124.383 291.002 127.714 289.5 131.165C285.179 141.09 260.929 118.58 260.18 114.003L259.005 106.835C263.924 111.2 275.929 115.332 283.006 120.404Z" fill="#FFC5C5"/>
                <path d="M268.49 112.515C273.457 114.986 279.012 117.547 283.001 120.409C287.126 123.364 289.539 125.965 289.887 128.52" stroke="#121212" stroke-width="0.5" stroke-miterlimit="10"/>
                <path fill-rule="evenodd" clip-rule="evenodd" d="M286.245 133.621C278.268 134.58 260.811 117.873 260.18 113.998L259.695 111.047L259.857 110.879C259.857 110.879 261.496 111.432 265.96 117.319C269.787 122.366 282.648 131.199 286.245 133.621Z" fill="#D98A82"/>
                <path fill-rule="evenodd" clip-rule="evenodd" d="M233.38 64.894C232.181 70.4005 241.499 73.9446 242.576 70.1435C243.917 65.4229 234.902 57.9096 233.38 64.894Z" fill="#FFC5C5"/>
                <path fill-rule="evenodd" clip-rule="evenodd" d="M236.121 64.1575C234.785 64.37 234.721 65.3833 235.157 66.5004C235.592 67.6176 236.855 68.8879 237.511 69.2883C238.166 69.6887 238.166 69.6738 238.166 69.6738C238.166 69.6738 237.829 67.8845 238.715 67.8499C239.6 67.8153 239.757 68.0179 239.757 68.0179C239.757 68.0179 239.091 66.7674 238.871 66.5252C238.651 66.283 236.121 64.1575 236.121 64.1575Z" fill="#D4797C"/>
                <path fill-rule="evenodd" clip-rule="evenodd" d="M277.324 60.475C277.475 66.11 268.651 70.6526 267.648 65.0472C266.782 60.213 277.147 53.9107 277.324 60.475Z" fill="#FFC5C5"/>
                <path fill-rule="evenodd" clip-rule="evenodd" d="M240.016 58.0825C239.718 73.7765 248.865 80.499 254.938 82.0412C255.805 82.2587 256.676 82.229 257.469 82.1054C263.214 81.2058 268.906 74.2609 270.384 66.194C272.185 56.3723 268.338 42.0722 257.694 40.3422C251.576 39.3437 246.384 46.338 240.016 58.0825Z" fill="#FFC5C5"/>
                <path fill-rule="evenodd" clip-rule="evenodd" d="M240.016 58.0826C239.972 60.2773 240.555 65.1659 240.814 67.0393C241.485 64.1575 241.22 58.5719 247.504 55.5567C249.085 54.7955 250.744 54.0689 252.203 53.1495C255.007 51.3848 255.467 49.5559 256.778 50.7768C261.173 54.8647 268.901 56.0115 270.017 62.4621C270.399 64.6765 270.325 64.202 270.462 64.2069C270.687 62.5214 270.819 60.5145 270.883 59.1552C270.854 58.483 270.8 57.7761 270.717 57.0643C270.193 52.5514 260.904 42.6456 258.717 42.2008C257.449 41.9437 255.046 41.3061 252.393 41.5087C248.366 43.9555 244.48 49.8525 240.016 58.0826Z" fill="#D4797C"/>
                <path fill-rule="evenodd" clip-rule="evenodd" d="M257.264 48.0286C261.272 54.7807 269.553 52.7294 270.703 64.1576C270.703 64.1576 272.113 61.5229 273.317 57.2868C274.56 52.9172 275.123 49.9218 273.64 45.4385C271.971 40.3818 268.349 35.7997 265.76 35.0187C256.941 32.3445 252.703 40.3521 257.264 48.0286Z" fill="#121212"/>
                <path fill-rule="evenodd" clip-rule="evenodd" d="M243.388 111.872C243.54 112.223 243.966 112.673 244.499 113.167C245.033 112.678 245.459 112.223 245.61 111.872C245.733 111.59 245.767 111.353 245.742 111.17C245.62 110.271 242.669 110.221 243.388 111.872ZM245.816 114.299L246.007 114.457C246.809 115.125 247.573 115.757 248.033 116.296L246.736 117.428C246.364 116.993 245.659 116.41 244.915 115.792C244.778 115.678 244.636 115.565 244.499 115.446C244.362 115.565 244.22 115.678 244.083 115.792C243.339 116.41 242.635 116.993 242.263 117.428L240.966 116.296C241.426 115.757 242.189 115.125 242.992 114.457L243.188 114.299C242.566 113.711 242.052 113.123 241.817 112.574C241.563 111.986 241.494 111.437 241.558 110.958C241.994 107.552 249.031 108.343 247.191 112.574C246.946 113.123 246.437 113.706 245.816 114.299Z" fill="white"/>
                <path fill-rule="evenodd" clip-rule="evenodd" d="M245.816 62.7586C247.631 64.5035 250.759 64.1624 252.433 62.373L252.256 62.8624C251.209 65.1955 247.078 65.7886 245.816 62.7586Z" fill="#37251E"/>
                <path fill-rule="evenodd" clip-rule="evenodd" d="M259.367 62.2495C261.056 64.1328 264.208 64.0339 266.018 62.3731L265.808 62.8526C264.58 65.1066 260.4 65.3834 259.367 62.2495Z" fill="#37251E"/>
                <path fill-rule="evenodd" clip-rule="evenodd" d="M252.614 72.4122C254.429 74.0928 257.738 73.9347 259.593 72.3826L259.382 72.8225C258.154 74.9035 253.778 75.2446 252.614 72.4122Z" fill="#37251E"/>
                <path fill-rule="evenodd" clip-rule="evenodd" d="M259.485 57.9541C260.146 55.8484 264.051 57.529 265.323 58.6165C263.273 58.2704 261.521 58.1666 259.485 57.9541Z" fill="#37251E"/>
                <path fill-rule="evenodd" clip-rule="evenodd" d="M251.767 58.2754C251.561 55.6062 247.103 57.8849 245.928 58.8932C247.979 58.5472 249.731 58.4879 251.767 58.2754Z" fill="#37251E"/>
                <path fill-rule="evenodd" clip-rule="evenodd" d="M254.478 75.5758C254.601 76.3815 255.927 76.9746 256.661 76.8659C257.39 76.7572 258.11 76.1492 258.281 75.4374C257.023 75.5807 255.746 75.6203 254.478 75.5758Z" fill="#D4797C"/>
                <path fill-rule="evenodd" clip-rule="evenodd" d="M254.351 68.7248C254.478 69.837 255.849 70.6575 256.607 70.5092C257.361 70.361 258.1 69.5206 258.281 68.5469C257.865 69.0313 257.282 69.3773 256.69 69.4712C256.064 69.5651 255.114 69.2587 254.473 68.7298C254.429 68.7298 254.39 68.7248 254.351 68.7248Z" fill="#D4797C"/>
                <path fill-rule="evenodd" clip-rule="evenodd" d="M254.405 68.5568C255.369 69.5849 257.126 69.486 258.114 68.537L258.002 68.8039C257.351 70.0792 255.021 70.2868 254.405 68.5568Z" fill="#37251E"/>
                <path fill-rule="evenodd" clip-rule="evenodd" d="M257.586 42.6259C257.581 46.4369 253.323 51.281 249.1 53.2681C244.876 55.2552 242.542 57.178 241.485 61.7305C240.427 66.283 241.553 69.3476 241.553 69.3476C234.481 61.513 233.713 54.0343 236.214 46.5704C241.563 30.6095 260.826 29.4034 257.586 42.6259Z" fill="#121212"/>
                <path fill-rule="evenodd" clip-rule="evenodd" d="M273.516 59.4567C274.867 59.4715 275.077 60.47 274.798 61.6365C274.524 62.8031 273.457 64.2464 272.86 64.7358C272.268 65.2251 272.263 65.2152 272.263 65.2152C272.263 65.2152 272.346 63.3913 271.465 63.4852C270.585 63.5791 270.457 63.8015 270.457 63.8015C270.457 63.8015 270.942 62.4669 271.123 62.1951C271.309 61.9232 273.516 59.4567 273.516 59.4567Z" fill="#D4797C"/>
                <path fill-rule="evenodd" clip-rule="evenodd" d="M257.229 45.0035C256.94 47.6282 256.485 48.7602 254.86 50.9054C252.8 53.629 249.609 55.0921 246.462 56.1549H246.467L246.065 56.3081C248.082 54.7708 249.501 53.7229 251.204 51.7259C253.079 49.5313 254.62 48.0286 254.953 45.0529C254.938 44.4202 255.438 43.8913 256.064 43.8765C256.695 43.8666 257.214 44.3658 257.229 45.0035Z" fill="#232323"/>
                <path fill-rule="evenodd" clip-rule="evenodd" d="M257.84 45.389C257.938 49.2198 257.796 49.8624 260.64 52.6799C262.201 54.2221 264.697 55.9027 266.601 57.0198C264.619 56.5008 262.656 55.8484 260.777 55.008C256.03 52.8826 255.677 49.9711 255.565 45.473C255.54 44.8403 256.035 44.3065 256.661 44.2818C257.292 44.2571 257.821 44.7514 257.84 45.389Z" fill="#222222"/>
                <path fill-rule="evenodd" clip-rule="evenodd" d="M240.281 70.1533C240.06 70.1533 239.884 70.3313 239.884 70.5488C239.884 70.7663 240.06 70.9491 240.281 70.9491C240.496 70.9491 240.677 70.7712 240.677 70.5488C240.672 70.3313 240.496 70.1533 240.281 70.1533Z" fill="#37251E"/>
                <path fill-rule="evenodd" clip-rule="evenodd" d="M256.842 67.5633C256.725 66.0952 256.725 66.723 257.121 64.9336C257.699 66.7576 257.615 66.1001 257.659 67.7017C257.62 67.929 257.41 68.0823 257.185 68.0477C256.96 68.0081 256.803 67.7906 256.842 67.5633Z" fill="white"/>
                <path fill-rule="evenodd" clip-rule="evenodd" d="M241.455 59.0465C239.83 64.2218 239.786 64.6814 243.217 68.6358C247.157 73.1784 241.01 75.5016 239.292 78.3043C238.333 79.8712 238.005 82.3526 243.413 83.618C241.47 83.5093 238.661 82.9557 237.398 81.28C235.122 78.2648 238.705 75.472 240.53 73.5343C241.798 72.1948 242.282 71.829 241.24 70.6328C236.982 65.759 236.845 64.3948 238.808 58.1369C239.057 57.3955 239.85 57.0001 240.584 57.2521C241.313 57.5042 241.705 58.305 241.455 59.0465Z" fill="#1E1E1E"/>
                <path fill-rule="evenodd" clip-rule="evenodd" d="M268.859 58.7428C271.11 63.1668 271.218 63.582 268.717 67.6797C264.65 74.3428 281.231 76.8539 270.802 81.2482C278.598 79.4687 277.282 75.7664 271.883 71.6934C270.538 70.6751 270.043 70.4181 270.807 69.1824C273.915 64.1208 273.836 62.8702 271.115 57.5169C270.777 56.8892 270.004 56.6519 269.378 56.993C268.756 57.3291 268.521 58.1101 268.859 58.7428Z" fill="#1F1F1F"/>
                <path d="M242.737 88.1013C246.222 88.9466 247.788 89.4458 251.312 90.8002" stroke="#121212" stroke-width="0.5" stroke-miterlimit="10"/>
                <path d="M270.095 89.7177C267.619 90.2119 265.323 90.7063 262.837 91.3192" stroke="#121212" stroke-width="0.5" stroke-miterlimit="10"/>
                <path fill-rule="evenodd" clip-rule="evenodd" d="M254.63 104.136C253.01 104.201 248.586 107.339 247.715 107.715C246.844 108.091 248.796 108.689 250.049 108.718C251.307 108.748 253.054 107.834 253.054 107.834C253.054 107.834 257.669 108.887 254.18 114.052C250.69 119.212 244.685 120.671 244.343 121.931C244 123.192 248.459 121.877 248.459 121.877C248.459 121.877 248.938 122.485 250.509 122.519C250.729 122.524 251.234 122.045 251.4 122.213C252.085 122.9 253.25 122.509 253.558 122.564C254.4 122.702 254.826 122.613 256.235 121.803C258.349 120.587 261.619 117.586 262.118 113.622C262.681 109.213 256.25 104.072 254.63 104.136Z" fill="#FFC5C5"/>
                <path fill-rule="evenodd" clip-rule="evenodd" d="M252.271 118.713C252.354 118.629 252.491 118.629 252.575 118.713C252.658 118.797 252.658 118.936 252.575 119.02C251.738 119.86 250.876 120.557 250.035 121.12C249.545 121.452 249.061 121.743 248.591 121.985C248.503 121.916 248.464 121.867 248.464 121.867C248.464 121.867 247.832 122.055 247.064 122.218C247.079 122.208 247.093 122.198 247.108 122.193C247.93 121.867 248.85 121.392 249.795 120.755C250.612 120.211 251.454 119.534 252.271 118.713Z" fill="#D98A82"/>
                <path fill-rule="evenodd" clip-rule="evenodd" d="M254.674 119.326C254.757 119.242 254.894 119.242 254.977 119.326C255.061 119.41 255.061 119.549 254.977 119.633C254.278 120.334 253.558 120.933 252.853 121.447C252.403 121.773 251.958 122.06 251.522 122.312C251.483 122.282 251.444 122.247 251.41 122.213C251.243 122.045 250.739 122.524 250.519 122.519C250.436 122.519 250.357 122.514 250.279 122.509C250.299 122.485 250.323 122.46 250.357 122.445C251.072 122.099 251.831 121.654 252.609 121.096C253.289 120.596 253.989 120.008 254.674 119.326Z" fill="#D98A82"/>
                <path fill-rule="evenodd" clip-rule="evenodd" d="M256.436 119.791C256.519 119.707 256.656 119.707 256.739 119.791C256.823 119.875 256.823 120.013 256.739 120.097C256.059 120.779 255.403 121.377 254.772 121.896C254.464 122.148 254.16 122.386 253.862 122.598C253.769 122.588 253.666 122.574 253.563 122.559C253.475 122.544 253.314 122.564 253.118 122.588C253.568 122.292 254.028 121.951 254.503 121.56C255.119 121.051 255.765 120.463 256.436 119.791Z" fill="#D98A82"/>
                <path fill-rule="evenodd" clip-rule="evenodd" d="M238.171 58.4929C239.718 51.0735 243.726 51.3602 249.266 47.4255C250.583 46.4913 251.498 45.74 252.291 44.2769C251.395 47.1636 249.32 48.7404 246.829 50.159C242.522 52.6107 240.193 53.713 238.171 58.4929Z" fill="#121212"/>
                <path fill-rule="evenodd" clip-rule="evenodd" d="M258.305 42.6654C258.795 45.7696 259.725 46.6148 262.191 48.4833C264.912 50.5445 270.653 53.1198 270.878 56.8369C270.242 54.4742 265.764 52.1362 263.689 50.762C260.062 48.3647 258.095 47.2327 258.305 42.6654Z" fill="#121212"/>
                <path fill-rule="evenodd" clip-rule="evenodd" d="M272.459 104.453C272.601 105.021 272.743 105.649 272.875 106.306C273.164 107.725 273.399 109.312 273.467 110.854C273.501 110.785 273.531 110.76 273.555 110.795C273.565 110.805 273.575 110.819 273.58 110.839C273.731 111.19 275.19 110.547 277.001 109.593L274.074 105.169L273.482 104.275L271.573 101.373C271.573 101.373 272.004 102.629 272.459 104.453Z" fill="#D04863"/>
                <path fill-rule="evenodd" clip-rule="evenodd" d="M233.889 102.94C236.131 98.3827 236.131 98.3827 236.131 98.3827L232.284 101.344L227.488 105.036C227.507 105.061 227.527 105.085 227.546 105.11C227.967 105.649 228.398 106.212 228.858 106.81C229.714 106.346 230.478 105.921 231.163 105.535C231.168 105.53 231.173 105.525 231.183 105.52C231.814 104.982 232.543 104.517 233.307 104.126C233.512 103.701 233.708 103.306 233.889 102.94Z" fill="#D04863"/>
                <path fill-rule="evenodd" clip-rule="evenodd" d="M235.333 92.6736C247.078 99.5344 263.258 100.978 275.968 95.9854C263.121 101.872 246.99 100.38 235.333 92.6736Z" fill="black"/>
                <path fill-rule="evenodd" clip-rule="evenodd" d="M280.568 82.0215C280.51 82.2093 280.417 82.4861 280.329 82.7431C279.952 83.8701 279.761 84.4485 280.001 84.7006C280.417 85.1405 281.733 85.5013 284.44 86.2477L285.134 86.4405C288.614 87.4044 291.267 88.8626 292.803 91.3489C294.33 93.8204 294.702 97.2409 293.611 102.12C292.706 106.168 291.453 108.892 290.86 110.038C290.988 108.6 291.404 106.099 292.358 101.833C293.366 97.325 293.053 94.2158 291.707 92.036C290.371 89.8709 287.968 88.5709 284.797 87.696L284.102 87.5032C281.165 86.6926 279.736 86.2972 279.076 85.6051C278.293 84.7846 278.572 83.9542 279.11 82.3329C279.169 82.15 279.237 81.9523 279.345 81.6211L280.568 82.0215ZM290.86 110.033C290.65 110.444 290.518 110.651 290.523 110.651L290.816 110.834C290.816 110.612 290.831 110.35 290.86 110.033ZM290.816 110.834L291.624 111.328C291.619 111.333 290.792 112.732 290.816 110.834Z" fill="#121212"/>
                <path fill-rule="evenodd" clip-rule="evenodd" d="M210.285 109.628C209.12 106.104 209.218 102.723 210.598 99.7173C211.93 96.8207 214.445 94.2998 218.169 92.372C224.767 88.9564 224.659 87.3351 224.414 83.7663C224.404 83.618 224.395 83.4648 224.38 83.2325L225.667 83.1484L225.701 83.6724C225.985 87.8196 226.112 89.7127 218.757 93.5188C215.302 95.3082 212.982 97.6165 211.773 100.251C210.535 102.95 210.456 106.005 211.514 109.208L210.285 109.628Z" fill="black"/>
                <path fill-rule="evenodd" clip-rule="evenodd" d="M237.843 127.551C238.582 127.443 239.444 127.329 240.413 127.22C240.139 126.118 239.654 124.452 242.478 123.691C240.55 123.113 236.238 122.401 236.042 121.56C235.949 121.165 235.842 120.7 235.729 120.206H235.724C236.243 122.791 237.07 125.218 237.843 127.551Z" fill="#D04863"/>
                <path fill-rule="evenodd" clip-rule="evenodd" d="M263.287 124.289C266.513 126.009 265.651 127.68 265.441 128.481C266.542 128.703 267.462 128.916 268.23 129.118C268.578 128.233 268.906 127.373 269.209 126.538C268.03 126.325 264.183 124.472 263.287 124.289Z" fill="#D04863"/>
                <path fill-rule="evenodd" clip-rule="evenodd" d="M265.441 128.481C265.593 127.912 266.067 126.909 265.182 125.757C261.188 124.931 260.038 124.521 258.173 124.432C256.754 124.363 254.919 124.477 251.097 124.734C250.739 124.758 250.372 124.783 249.981 124.808C247.118 125.001 243.888 124.734 241.255 124.175C239.816 125.025 240.183 126.311 240.408 127.215C242.581 126.978 245.287 126.775 248.351 126.76C250.866 126.746 253.617 126.854 256.504 127.161C258.922 127.418 260.978 127.7 262.72 127.986C263.728 128.154 264.633 128.317 265.441 128.481Z" fill="#D04863"/>
                <path d="M231.163 105.54C228.339 107.127 224.125 109.396 218.008 112.485C209.673 117.611 206.536 121.956 207.314 125.307" stroke="#121212" stroke-width="0.5" stroke-miterlimit="10"/>
                <path fill-rule="evenodd" clip-rule="evenodd" d="M240.31 120.933L240.3 120.943C240.202 120.888 240.149 120.859 240.149 120.859" fill="#D98A82"/>
                <path d="M236.331 115.866C236.889 116.884 237.418 117.987 238.044 118.748C238.773 119.633 239.522 120.344 240.217 120.898" stroke="#121212" stroke-width="0.5" stroke-miterlimit="10"/>
                <path d="M233.272 115.243C233.83 116.262 234.359 117.364 234.985 118.125C235.715 119.01 236.463 119.722 237.158 120.275" stroke="#121212" stroke-width="0.5" stroke-miterlimit="10"/>
                <path d="M231.29 115.466C231.696 116.286 232.103 117.097 232.577 117.705C233.282 118.609 234.011 119.341 234.692 119.914" stroke="#121212" stroke-width="0.5" stroke-miterlimit="10"/>
                <path d="M252.809 118.387C251.987 119.207 251.175 120.107 250.353 120.661C249.408 121.298 248.488 121.768 247.666 122.094" stroke="#121212" stroke-width="0.5" stroke-miterlimit="10"/>
                <path d="M255.467 118.614C254.684 119.47 253.93 120.295 253.123 121.002C252.207 121.684 251.312 122.198 250.504 122.564" stroke="#121212" stroke-width="0.5" stroke-miterlimit="10"/>
                <path d="M256.774 119.761C256.465 120.161 256.152 120.527 255.829 120.829C254.987 121.605 254.15 122.213 253.387 122.663" stroke="#121212" stroke-width="0.5" stroke-miterlimit="10"/>
                <path d="M239.64 134.462C240.08 138.055 239.977 141.683 235.284 145.035C232.083 147.318 232.626 152.306 236.219 153.883" stroke="#121212" stroke-width="0.7315" stroke-miterlimit="10"/>
            </g>
            <path d="M152.802 15.2023C152.802 15.2023 118.492 27.9623 121.632 51.1023C124.772 74.2423 156.762 75.0623 159.152 60.6623C161.552 46.2623 128.812 63.0523 129.632 90.9623C130.452 118.882 143.982 144.682 200.712 119.012C257.442 93.3423 306.102 80.5823 298.922 110.072C291.742 139.562 252.582 122.022 271.792 113.282C290.932 104.482 329.542 112.602 346.082 106.112C363.242 99.3523 366.042 81.4023 349.292 72.6023" stroke="white" stroke-width="0.9593" stroke-miterlimit="10"/>
            <path d="M31.716 89.3499C30.42 89.3499 29.22 89.1019 28.116 88.6059C27.028 88.1099 26.148 87.3419 25.476 86.3019C24.82 85.2619 24.492 83.9099 24.492 82.2459V71.3499H28.188V82.2459C28.188 83.2699 28.476 84.1339 29.052 84.8379C29.628 85.5259 30.516 85.8699 31.716 85.8699C32.916 85.8699 33.796 85.5259 34.356 84.8379C34.932 84.1339 35.22 83.2699 35.22 82.2459V71.3499H38.94V82.2459C38.94 83.9099 38.604 85.2619 37.932 86.3019C37.276 87.3419 36.396 88.1099 35.292 88.6059C34.188 89.1019 32.996 89.3499 31.716 89.3499ZM42.2107 89.1099V71.3499H45.5947L53.2507 82.6779V71.3499H56.9227V89.1099H53.4907L45.8827 78.0939V89.1099H42.2107ZM68.4433 89.3499C66.9553 89.3499 65.6513 89.0939 64.5313 88.5819C63.4113 88.0699 62.4753 87.3819 61.7233 86.5179C60.9873 85.6379 60.4353 84.6619 60.0673 83.5899C59.6993 82.5019 59.5153 81.3899 59.5153 80.2539C59.5153 79.1179 59.6993 78.0059 60.0673 76.9179C60.4513 75.8299 61.0113 74.8539 61.7473 73.9899C62.4993 73.1099 63.4433 72.4139 64.5793 71.9019C65.7153 71.3739 67.0433 71.1099 68.5633 71.1099C69.7473 71.1099 70.7633 71.2619 71.6113 71.5659C72.4753 71.8539 73.1953 72.2379 73.7713 72.7179C74.3473 73.1819 74.8033 73.6779 75.1393 74.2059C75.4913 74.7339 75.7553 75.2379 75.9313 75.7179C76.1233 76.1819 76.2433 76.5659 76.2913 76.8699C76.3553 77.1579 76.3873 77.3019 76.3873 77.3019H72.7153C72.7153 77.3019 72.6673 77.1579 72.5713 76.8699C72.4753 76.5819 72.2833 76.2459 71.9953 75.8619C71.7073 75.4619 71.2833 75.1179 70.7233 74.8299C70.1793 74.5259 69.4593 74.3739 68.5633 74.3739C67.3953 74.3739 66.4193 74.6619 65.6353 75.2379C64.8673 75.7979 64.2833 76.5259 63.8833 77.4219C63.4993 78.3019 63.3073 79.2219 63.3073 80.1819C63.3073 81.1739 63.5073 82.1259 63.9073 83.0379C64.3073 83.9339 64.8913 84.6699 65.6593 85.2459C66.4433 85.8059 67.4193 86.0859 68.5873 86.0859C69.8673 86.0859 70.8753 85.7579 71.6113 85.1019C72.3633 84.4459 72.8113 83.5579 72.9553 82.4379H68.3473V79.5339H76.6033V80.9019C76.6033 82.7579 76.2433 84.3179 75.5233 85.5819C74.8193 86.8299 73.8513 87.7739 72.6193 88.4139C71.4033 89.0379 70.0113 89.3499 68.4433 89.3499ZM89.4315 89.1099V74.5659H83.9835V71.3499H98.5755V74.5659H93.1275V89.1099H89.4315ZM101.133 89.1099V71.3499H104.829V78.4299H111.741V71.3499H115.437V89.1099H111.741V81.6459H104.829V89.1099H101.133ZM126.031 89.3499C124.735 89.3499 123.535 89.1019 122.431 88.6059C121.343 88.1099 120.463 87.3419 119.791 86.3019C119.135 85.2619 118.807 83.9099 118.807 82.2459V71.3499H122.503V82.2459C122.503 83.2699 122.791 84.1339 123.367 84.8379C123.943 85.5259 124.831 85.8699 126.031 85.8699C127.231 85.8699 128.111 85.5259 128.671 84.8379C129.247 84.1339 129.535 83.2699 129.535 82.2459V71.3499H132.103C132.743 71.3499 133.063 71.0299 133.063 70.3899V68.6859H136.039V70.5099C136.039 71.3419 135.815 72.0059 135.367 72.5019C134.919 72.9819 134.255 73.2219 133.375 73.2219H133.255V82.2459C133.255 83.9099 132.919 85.2619 132.247 86.3019C131.591 87.3419 130.711 88.1099 129.607 88.6059C128.503 89.1019 127.311 89.3499 126.031 89.3499ZM146.996 89.1099L140.948 71.3499H144.836L149.468 85.4859L154.076 71.3499H157.964L151.916 89.1099H146.996ZM168.671 69.5979L165.983 69.5739L167.903 65.2539H171.287L168.671 69.5979ZM167.351 89.3499C166.055 89.3499 164.855 89.1019 163.751 88.6059C162.663 88.1099 161.783 87.3419 161.111 86.3019C160.455 85.2619 160.127 83.9099 160.127 82.2459V71.3499H163.823V82.2459C163.823 83.2699 164.111 84.1339 164.687 84.8379C165.263 85.5259 166.151 85.8699 167.351 85.8699C168.551 85.8699 169.431 85.5259 169.991 84.8379C170.567 84.1339 170.855 83.2699 170.855 82.2459V71.3499H174.575V82.2459C174.575 83.9099 174.239 85.2619 173.567 86.3019C172.911 87.3419 172.031 88.1099 170.927 88.6059C169.823 89.1019 168.631 89.3499 167.351 89.3499Z" fill="#EB5447"/>
        </g>
    </g>
    <defs>
        <filter id="filter0_dd_13978_68978" x="0.859985" y="0.881042" width="339" height="144" filterUnits="userSpaceOnUse" color-interpolation-filters="sRGB">
            <feFlood flood-opacity="0" result="BackgroundImageFix"/>
            <feColorMatrix in="SourceAlpha" type="matrix" values="0 0 0 0 0 0 0 0 0 0 0 0 0 0 0 0 0 0 127 0" result="hardAlpha"/>
            <feMorphology radius="2" operator="erode" in="SourceAlpha" result="effect1_dropShadow_13978_68978"/>
            <feOffset dy="2"/>
            <feGaussianBlur stdDeviation="2"/>
            <feColorMatrix type="matrix" values="0 0 0 0 0.0470588 0 0 0 0 0.352941 0 0 0 0 0.439216 0 0 0 0.08 0"/>
            <feBlend mode="normal" in2="BackgroundImageFix" result="effect1_dropShadow_13978_68978"/>
            <feColorMatrix in="SourceAlpha" type="matrix" values="0 0 0 0 0 0 0 0 0 0 0 0 0 0 0 0 0 0 127 0" result="hardAlpha"/>
            <feMorphology radius="2" operator="erode" in="SourceAlpha" result="effect2_dropShadow_13978_68978"/>
            <feOffset dy="2"/>
            <feGaussianBlur stdDeviation="2"/>
            <feColorMatrix type="matrix" values="0 0 0 0 0.0470588 0 0 0 0 0.352941 0 0 0 0 0.439216 0 0 0 0.12 0"/>
            <feBlend mode="normal" in2="effect1_dropShadow_13978_68978" result="effect2_dropShadow_13978_68978"/>
            <feBlend mode="normal" in="SourceGraphic" in2="effect2_dropShadow_13978_68978" result="shape"/>
        </filter>
        <clipPath id="clip0_13978_68978">
            <rect x="2.85999" y="0.881042" width="335" height="140" rx="16" fill="white"/>
        </clipPath>
        <clipPath id="clip1_13978_68978">
            <rect width="119.268" height="144.612" fill="white" transform="translate(195.226 18.5782)"/>
        </clipPath>
    </defs>
</svg>
