<svg width="25" height="18" viewBox="0 0 25 18" fill="none"
    xmlns="http://www.w3.org/2000/svg">
    <path d="M0.859985 2.60775C0.939499 2.38791 0.997726 2.15795 1.10103 1.95011C1.60692 0.937434 2.82279 0.509746 3.86336 0.977865C3.99734 1.03788 4.08124 1.02525 4.19581 0.94312C5.19255 0.229255 6.23625 0.172398 7.29811 0.770655C8.14709 1.24951 8.81325 1.93116 9.29472 2.78464C9.76867 3.62485 9.7956 4.2408 9.4381 5.43289C9.54391 5.43289 9.64032 5.43289 9.73612 5.43289C14.0236 5.43289 18.3117 5.43226 22.5992 5.43352C23.6379 5.43352 24.4293 5.96544 24.7304 6.8821C24.8031 7.10257 24.8406 7.34263 24.8494 7.57575C24.8675 8.06345 24.8575 8.55305 24.8544 9.04138C24.8519 9.45138 24.5983 9.73187 24.2415 9.72808C23.8852 9.72429 23.6404 9.44443 23.6385 9.03064C23.636 8.55747 23.641 8.08493 23.6367 7.61176C23.6316 7.05519 23.266 6.68057 22.715 6.65973C22.6368 6.65657 22.5591 6.65846 22.4809 6.65846C17.8728 6.65846 13.2648 6.65846 8.65736 6.65846C8.54779 6.65846 8.43822 6.65846 8.32991 6.66604C8.08699 6.6831 7.89728 6.58897 7.72636 6.41587C6.37712 5.0469 5.02288 3.68234 3.67115 2.31589C3.44074 2.08278 3.17152 1.97285 2.8447 2.02718C2.15475 2.14216 1.84295 2.94447 2.27308 3.50229C2.32567 3.57052 2.38765 3.63117 2.44839 3.69245C3.98357 5.2421 5.52 6.78986 7.05143 8.34394C7.17289 8.46713 7.29435 8.51009 7.46277 8.51009C12.1021 8.5063 16.7409 8.50693 21.3802 8.50693C21.4816 8.50693 21.5837 8.5044 21.6845 8.51388C21.9881 8.54168 22.2179 8.78805 22.2304 9.09255C22.2417 9.38694 22.0432 9.64848 21.7534 9.70787C21.6551 9.72808 21.5518 9.73187 21.451 9.73187C16.6789 9.73313 11.9068 9.73124 7.13532 9.73629C6.84169 9.73629 6.61754 9.64153 6.40905 9.4299C4.90142 7.8973 3.39191 6.3666 1.86925 4.84916C1.4003 4.38294 0.976439 3.90408 0.859985 3.22243C0.859985 3.01775 0.859985 2.81243 0.859985 2.60775ZM8.19593 5.0987C8.48956 4.64448 8.57784 4.17067 8.37937 3.70635C7.97992 2.77327 7.30813 2.08783 6.37963 1.69299C5.90067 1.48957 5.42609 1.5837 5.0066 1.87241C6.07472 2.95394 7.13031 4.02095 8.19593 5.0987Z" fill="#00BE00"/>
    <path d="M20.9257 12.3511C20.9257 12.4616 20.9332 12.533 20.9244 12.6025C20.8662 13.0454 20.9633 13.3221 21.4335 13.5539C22.3457 14.0043 22.7213 15.1301 22.4102 16.1118C22.1046 17.0765 21.1649 17.7158 20.1575 17.6438C19.1695 17.5737 18.3168 16.7928 18.159 15.8149C17.9912 14.7763 18.5353 13.7776 19.4938 13.3909C19.6547 13.3259 19.7286 13.2538 19.7142 13.0706C19.696 12.8438 19.7098 12.6145 19.7098 12.3694C15.6652 12.3694 11.6326 12.3694 7.56798 12.3694C7.56798 12.6467 7.55671 12.9285 7.57674 13.2071C7.58112 13.2671 7.68756 13.3398 7.76207 13.3707C8.62921 13.7321 9.17078 14.5457 9.15512 15.475C9.13634 16.5894 8.29988 17.5067 7.1823 17.6387C6.13923 17.7619 5.11807 17.05 4.84447 16.0089C4.56398 14.9412 5.09678 13.8148 6.10354 13.4048C6.31391 13.3195 6.36901 13.2159 6.35398 13.0106C6.33833 12.8009 6.35022 12.5886 6.35022 12.3511C5.79363 12.3511 5.25706 12.358 4.7205 12.3498C3.79075 12.3347 2.98247 11.7137 2.72076 10.8134C2.67318 10.6492 2.64312 10.4742 2.63874 10.303C2.62684 9.82287 2.62747 9.34148 2.63248 8.86073C2.63624 8.48358 2.87227 8.23215 3.21287 8.22141C3.56536 8.21067 3.82769 8.45452 3.84147 8.83925C3.85649 9.2562 3.84522 9.67441 3.8471 10.092C3.85023 10.7661 4.20648 11.123 4.87828 11.123C11.2425 11.1236 17.6068 11.123 23.971 11.123C24.0493 11.123 24.1275 11.1211 24.2052 11.1236C24.5927 11.1337 24.8619 11.3946 24.8544 11.7503C24.8469 12.0978 24.5827 12.3479 24.2039 12.3498C23.2748 12.3536 22.3457 12.3511 21.4159 12.3511C21.2613 12.3511 21.1073 12.3511 20.9257 12.3511ZM6.97381 14.4573C6.41659 14.4579 5.98333 14.8856 5.98333 15.4346C5.98333 15.9792 6.43036 16.4233 6.97381 16.4182C7.50537 16.4138 7.93549 15.9741 7.938 15.434C7.93988 14.8919 7.51038 14.4567 6.97381 14.4573ZM20.324 14.4573C19.7693 14.4611 19.3367 14.897 19.3435 15.4441C19.3504 15.9823 19.7856 16.417 20.3196 16.4182C20.8631 16.4195 21.2982 15.9766 21.2963 15.4239C21.2945 14.8825 20.8631 14.4535 20.324 14.4573Z" fill="#00BE00"/>
</svg>
