<svg width="25" height="25" viewBox="0 0 25 25" fill="none"
    xmlns="http://www.w3.org/2000/svg">
    <g clip-path="url(#clip0_13978_69066)">
        <path d="M9.82499 24.3611H4.85999C3.79912 24.3611 2.7817 23.9397 2.03156 23.1895C1.28141 22.4394 0.859985 21.4219 0.859985 20.3611V15.3611C0.859985 14.3002 1.28141 13.2828 2.03156 12.5327C2.7817 11.7825 3.79912 11.3611 4.85999 11.3611H13.717C14.2582 11.3613 14.7902 11.5013 15.2614 11.7674C15.7327 12.0335 16.1273 12.4168 16.407 12.8801L19.624 9.34508C19.8901 9.05247 20.2112 8.81517 20.5691 8.64674C20.9269 8.47832 21.3145 8.38206 21.7095 8.36349C22.1046 8.34492 22.4995 8.40438 22.8715 8.5385C23.2436 8.67261 23.5856 8.87873 23.878 9.14508C24.4614 9.68101 24.811 10.4246 24.8515 11.2157C24.8921 12.0068 24.6204 12.7823 24.095 13.3751L17.295 21.0121C16.3561 22.0651 15.2053 22.9078 13.9179 23.485C12.6306 24.0621 11.2358 24.3607 9.82499 24.3611ZM4.85999 13.3611C4.32955 13.3611 3.82084 13.5718 3.44577 13.9469C3.0707 14.3219 2.85999 14.8307 2.85999 15.3611V20.3611C2.85999 20.8915 3.0707 21.4002 3.44577 21.7753C3.82084 22.1504 4.32955 22.3611 4.85999 22.3611H9.82499C10.9529 22.3606 12.068 22.1218 13.0972 21.6603C14.1264 21.1988 15.0464 20.525 15.797 19.6831L22.602 12.0451C22.7787 11.8461 22.8701 11.5856 22.8567 11.3199C22.8432 11.0541 22.7259 10.8042 22.53 10.6241C22.3308 10.445 22.0696 10.3507 21.802 10.3611C21.6693 10.3667 21.5391 10.3987 21.4189 10.4552C21.2987 10.5117 21.191 10.5915 21.102 10.6901L16.676 15.5611C16.4817 16.0989 16.145 16.5738 15.7019 16.9352C15.2588 17.2966 14.7258 17.5309 14.16 17.6131L8.99899 18.3511C8.73642 18.3887 8.46965 18.3206 8.25736 18.1615C8.04507 18.0025 7.90465 17.7656 7.86699 17.5031C7.82932 17.2405 7.89751 16.9737 8.05654 16.7615C8.21557 16.5492 8.45242 16.4087 8.71499 16.3711L13.877 15.6341C14.1635 15.594 14.4242 15.4467 14.6063 15.2219C14.7884 14.9971 14.8784 14.7115 14.8581 14.4229C14.8377 14.1343 14.7086 13.8641 14.4968 13.6671C14.285 13.47 14.0063 13.3606 13.717 13.3611H4.85999ZM11.86 9.43508C11.4067 9.4363 10.9667 9.28245 10.613 8.99908C8.90099 7.62508 6.85999 5.56108 6.85999 3.56108C6.83543 2.73945 7.13727 1.94153 7.69947 1.34185C8.26167 0.742167 9.03848 0.389536 9.85999 0.361084C10.6073 0.363995 11.3244 0.656902 11.86 1.17808C12.3956 0.656902 13.1126 0.363995 13.86 0.361084C14.6815 0.389536 15.4583 0.742167 16.0205 1.34185C16.5827 1.94153 16.8845 2.73945 16.86 3.56108C16.86 5.56108 14.819 7.62508 13.106 9.00008C12.7524 9.28288 12.3128 9.43636 11.86 9.43508ZM9.85999 2.36108C9.56934 2.39025 9.30174 2.5323 9.11473 2.75671C8.92773 2.98111 8.83626 3.26994 8.85999 3.56108C8.85999 4.46108 10.011 5.95108 11.866 7.44008C13.709 5.95108 14.86 4.46108 14.86 3.56108C14.8837 3.26994 14.7922 2.98111 14.6052 2.75671C14.4182 2.5323 14.1506 2.39025 13.86 2.36108C13.5693 2.39025 13.3017 2.5323 13.1147 2.75671C12.9277 2.98111 12.8363 3.26994 12.86 3.56108C12.86 3.8263 12.7546 4.08065 12.5671 4.26819C12.3796 4.45573 12.1252 4.56108 11.86 4.56108C11.5948 4.56108 11.3404 4.45573 11.1529 4.26819C10.9653 4.08065 10.86 3.8263 10.86 3.56108C10.8837 3.26994 10.7922 2.98111 10.6052 2.75671C10.4182 2.5323 10.1506 2.39025 9.85999 2.36108Z" fill="#00BE00"/>
    </g>
    <defs>
        <clipPath id="clip0_13978_69066">
            <rect width="24" height="24" fill="white" transform="translate(0.859985 0.361084)"/>
        </clipPath>
    </defs>
</svg>
