<svg width="24" height="24" viewBox="0 0 24 24" fill="none"
    xmlns="http://www.w3.org/2000/svg">
    <path d="M8.672 14.33C8.672 15.62 9.662 16.66 10.892 16.66H13.402C14.472 16.66 15.342 15.75 15.342 14.63C15.342 13.41 14.812 12.98 14.022 12.7L9.992 11.3C9.202 11.02 8.672 10.59 8.672 9.36997C8.672 8.24997 9.542 7.33997 10.612 7.33997H13.122C14.352 7.33997 15.342 8.37997 15.342 9.66997" stroke="#00BE00" stroke-width="1.5" stroke-linecap="round" stroke-linejoin="round"/>
    <path d="M12.0001 6.00012V18.0001" stroke="#00BE00" stroke-width="1.5" stroke-linecap="round" stroke-linejoin="round"/>
    <path d="M12.0001 22.0001C17.523 22.0001 22.0001 17.523 22.0001 12.0001C22.0001 6.47727 17.523 2.00012 12.0001 2.00012C6.47727 2.00012 2.00012 6.47727 2.00012 12.0001C2.00012 17.523 6.47727 22.0001 12.0001 22.0001Z" stroke="#00BE00" stroke-width="1.5" stroke-linecap="round" stroke-linejoin="round"/>
</svg>
