<svg width="49" height="49" viewBox="0 0 49 49" fill="none"
    xmlns="http://www.w3.org/2000/svg">
    <path d="M30.598 6.8811C30.9209 6.9586 31.2514 7.01218 31.5659 7.11853C33.3071 7.70632 34.515 8.93219 35.1896 10.7656C35.2769 11.0031 35.3704 11.0797 35.6036 11.0789C37.4405 11.0674 39.2767 11.074 41.1136 11.0723C41.7616 11.0715 42.2729 11.3419 42.6102 11.9519C43.2597 13.1251 42.5775 14.4936 41.3164 14.5084C39.4803 14.5298 37.6433 14.5249 35.8064 14.5059C35.4782 14.5026 35.3369 14.6098 35.2275 14.9453C34.8606 16.0698 34.1944 16.9585 33.2987 17.6469C33.2167 17.7103 33.1354 17.7746 33.0191 17.8653C33.4339 18.0368 33.8244 18.1687 34.1929 18.3542C37.6616 20.1052 39.6481 23.0508 40.1731 27.1579C40.2247 27.5635 40.2422 27.9773 40.243 28.3871C40.2491 31.2518 40.2506 34.1174 40.2445 36.9822C40.2415 38.3762 39.4863 39.4496 38.2762 39.7744C37.9913 39.8511 37.6851 39.8503 37.3888 39.8568C36.816 39.8692 36.2432 39.8601 35.615 39.8601C35.615 39.6961 35.6157 39.5535 35.615 39.41C35.6043 37.8033 35.6621 36.1924 35.5671 34.5914C35.3848 31.5165 32.9675 29.1373 30.1232 29.1298C27.2881 29.1224 24.8533 31.5107 24.6687 34.5791C24.5737 36.1545 24.6315 37.7415 24.6201 39.3226C24.6193 39.4826 24.6201 39.6433 24.6201 39.8709C23.5254 39.7579 22.42 40.119 21.3922 39.5452C20.5018 39.0481 20.0058 38.2245 19.9997 37.1429C19.9807 33.9666 19.8629 30.7811 20.0399 27.6163C20.2808 23.303 22.3843 20.228 25.9503 18.3328C26.3476 18.1217 26.7723 17.9725 27.1924 17.7911C25.5287 16.1827 25.5287 16.1827 24.8396 14.4342C24.7143 14.4342 24.5783 14.4342 24.4416 14.4342C22.6046 14.4342 20.7685 14.4391 18.9316 14.4309C18.2167 14.4276 17.6515 13.9742 17.4411 13.2767C17.2337 12.5892 17.4259 11.811 17.9979 11.4309C18.3124 11.2224 18.7227 11.0962 19.0926 11.0888C20.8482 11.0542 22.6054 11.0657 24.361 11.0806C24.6611 11.083 24.7986 11.0039 24.9277 10.6766C25.749 8.58677 27.187 7.31391 29.2747 6.94623C29.3278 6.93716 29.378 6.90419 29.4296 6.88193C29.8178 6.8811 30.2076 6.8811 30.598 6.8811ZM33.1225 13.0929C33.2577 11.2801 31.9594 9.64612 30.2706 9.50432C28.553 9.36005 27.0807 10.7467 26.9622 12.6667C26.8551 14.4012 28.088 16.1094 29.9485 16.1844C31.5423 16.2479 33.0495 14.9956 33.1225 13.0929Z" fill="#BDBDBD"/>
    <path d="M27.905 38.3863C27.905 37.2126 27.8504 36.033 27.9193 34.8666C27.9993 33.5101 28.9021 32.4765 30.0337 32.3862C30.9663 32.3114 31.8559 33.0601 32.1982 34.3226C32.3002 34.6992 32.3465 35.122 32.3498 35.5243C32.3652 37.4306 32.3597 39.3369 32.3553 41.2432C32.352 42.6312 31.7644 43.8086 30.8897 44.2028C29.3668 44.8884 27.8973 43.5224 27.867 41.3782C27.8527 40.3814 27.8648 39.3831 27.8648 38.3855C27.8786 38.3863 27.8918 38.3863 27.905 38.3863Z" fill="#BDBDBD"/>
    <path d="M27.1538 11.411C24.0731 11.1815 21.0987 10.1811 18.5017 8.50069C18.2645 8.34124 17.9548 8.34124 17.7179 8.50069C15.121 10.1811 12.1469 11.1815 9.06653 11.411C8.87917 11.4107 8.69938 11.4855 8.5669 11.6187C8.43443 11.7521 8.35999 11.9328 8.35999 12.1211V18.1802C8.35999 27.5995 17.4086 32.2559 17.793 32.4491C17.992 32.5489 18.2264 32.5489 18.4254 32.4491C18.8102 32.2557 27.86 27.5999 27.86 18.1802V12.1211C27.86 11.9328 27.7855 11.7521 27.6531 11.6187C27.5206 11.4855 27.3412 11.4107 27.1538 11.411ZM23.3807 17.4188L17.3518 23.4778C17.1531 23.6776 16.8837 23.7901 16.6023 23.7901C16.3213 23.7901 16.0519 23.6779 15.8532 23.4782L12.8394 20.4483C12.64 20.2489 12.5277 19.9779 12.5274 19.6948C12.5271 19.412 12.6388 19.1407 12.8378 18.941C13.0368 18.7409 13.3068 18.6287 13.5882 18.629C13.8695 18.629 14.1392 18.7419 14.3379 18.9422L16.6024 21.2186L21.8822 15.9124C22.2961 15.4965 22.967 15.4968 23.3808 15.9127C23.7947 16.3286 23.7946 17.0029 23.3807 17.4188Z" fill="#BDBDBD"/>
</svg>
