<svg width="49" height="49" viewBox="0 0 49 49" fill="none"
    xmlns="http://www.w3.org/2000/svg">
    <path d="M30.098 6.8811C30.4209 6.9586 30.7514 7.01218 31.0659 7.11853C32.8071 7.70632 34.015 8.93219 34.6896 10.7656C34.7769 11.0031 34.8704 11.0797 35.1036 11.0789C36.9405 11.0674 38.7767 11.074 40.6136 11.0723C41.2616 11.0715 41.7729 11.3419 42.1102 11.9519C42.7597 13.1251 42.0775 14.4936 40.8164 14.5084C38.9803 14.5298 37.1433 14.5249 35.3064 14.5059C34.9782 14.5026 34.8369 14.6098 34.7275 14.9453C34.3606 16.0698 33.6944 16.9585 32.7987 17.6469C32.7167 17.7103 32.6354 17.7746 32.5191 17.8653C32.9339 18.0368 33.3244 18.1687 33.6929 18.3542C37.1616 20.1052 39.1481 23.0508 39.6731 27.1579C39.7247 27.5635 39.7422 27.9773 39.743 28.3871C39.7491 31.2518 39.7506 34.1174 39.7445 36.9822C39.7415 38.3762 38.9863 39.4496 37.7762 39.7744C37.4913 39.8511 37.1851 39.8503 36.8888 39.8568C36.316 39.8692 35.7432 39.8601 35.115 39.8601C35.115 39.6961 35.1157 39.5535 35.115 39.41C35.1043 37.8033 35.1621 36.1924 35.0671 34.5914C34.8848 31.5165 32.4675 29.1373 29.6232 29.1298C26.7881 29.1224 24.3533 31.5107 24.1687 34.5791C24.0737 36.1545 24.1315 37.7415 24.1201 39.3226C24.1193 39.4826 24.1201 39.6433 24.1201 39.8709C23.0254 39.7579 21.92 40.119 20.8922 39.5452C20.0018 39.0481 19.5058 38.2245 19.4997 37.1429C19.4807 33.9666 19.3629 30.7811 19.5399 27.6163C19.7808 23.303 21.8843 20.228 25.4503 18.3328C25.8476 18.1217 26.2723 17.9725 26.6924 17.7911C25.0287 16.1827 25.0287 16.1827 24.3396 14.4342C24.2143 14.4342 24.0783 14.4342 23.9416 14.4342C22.1046 14.4342 20.2685 14.4391 18.4316 14.4309C17.7167 14.4276 17.1515 13.9742 16.9411 13.2767C16.7337 12.5892 16.9259 11.811 17.4979 11.4309C17.8124 11.2224 18.2227 11.0962 18.5926 11.0888C20.3482 11.0542 22.1054 11.0657 23.861 11.0806C24.1611 11.083 24.2986 11.0039 24.4277 10.6766C25.249 8.58677 26.687 7.31391 28.7747 6.94623C28.8278 6.93716 28.878 6.90419 28.9296 6.88193C29.3178 6.8811 29.7076 6.8811 30.098 6.8811ZM32.6225 13.0929C32.7577 11.2801 31.4594 9.64612 29.7706 9.50432C28.053 9.36005 26.5807 10.7467 26.4622 12.6667C26.3551 14.4012 27.588 16.1094 29.4485 16.1844C31.0423 16.2479 32.5495 14.9956 32.6225 13.0929Z" fill="#4567FF"/>
    <path d="M27.405 38.3863C27.405 37.2126 27.3504 36.033 27.4193 34.8666C27.4993 33.5101 28.4021 32.4765 29.5337 32.3862C30.4663 32.3114 31.3559 33.0601 31.6982 34.3226C31.8002 34.6992 31.8465 35.122 31.8498 35.5243C31.8652 37.4306 31.8597 39.3369 31.8553 41.2432C31.852 42.6312 31.2644 43.8086 30.3897 44.2028C28.8668 44.8884 27.3973 43.5224 27.367 41.3782C27.3527 40.3814 27.3648 39.3831 27.3648 38.3855C27.3786 38.3863 27.3918 38.3863 27.405 38.3863Z" fill="#4567FF"/>
    <path d="M26.6538 11.411C23.5731 11.1815 20.5987 10.1811 18.0017 8.50069C17.7645 8.34124 17.4548 8.34124 17.2179 8.50069C14.621 10.1811 11.6469 11.1815 8.56653 11.411C8.37917 11.4107 8.19938 11.4855 8.0669 11.6187C7.93443 11.7521 7.85999 11.9328 7.85999 12.1211V18.1802C7.85999 27.5995 16.9086 32.2559 17.293 32.4491C17.492 32.5489 17.7264 32.5489 17.9254 32.4491C18.3102 32.2557 27.36 27.5999 27.36 18.1802V12.1211C27.36 11.9328 27.2855 11.7521 27.1531 11.6187C27.0206 11.4855 26.8412 11.4107 26.6538 11.411ZM22.8807 17.4188L16.8518 23.4778C16.6531 23.6776 16.3837 23.7901 16.1023 23.7901C15.8213 23.7901 15.5519 23.6779 15.3532 23.4782L12.3394 20.4483C12.14 20.2489 12.0277 19.9779 12.0274 19.6948C12.0271 19.412 12.1388 19.1407 12.3378 18.941C12.5368 18.7409 12.8068 18.6287 13.0882 18.629C13.3695 18.629 13.6392 18.7419 13.8379 18.9422L16.1024 21.2186L21.3822 15.9124C21.7961 15.4965 22.467 15.4968 22.8808 15.9127C23.2947 16.3286 23.2946 17.0029 22.8807 17.4188Z" fill="#33CB33"/>
</svg>
