<svg width="25" height="25" viewBox="0 0 25 25" fill="none"
    xmlns="http://www.w3.org/2000/svg">
    <path d="M9.53186 14.6909C9.53186 15.9809 10.5219 17.0209 11.7519 17.0209H14.2619C15.3319 17.0209 16.2019 16.1109 16.2019 14.9909C16.2019 13.7709 15.6719 13.3409 14.8819 13.0609L10.8519 11.6609C10.0619 11.3809 9.53186 10.9509 9.53186 9.73093C9.53186 8.61093 10.4019 7.70093 11.4719 7.70093H13.9819C15.2119 7.70093 16.2019 8.74093 16.2019 10.0309" stroke="#00BE00" stroke-width="1.5" stroke-linecap="round" stroke-linejoin="round"/>
    <path d="M12.86 6.36108V18.3611" stroke="#00BE00" stroke-width="1.5" stroke-linecap="round" stroke-linejoin="round"/>
    <path d="M12.86 22.3611C18.3828 22.3611 22.86 17.8839 22.86 12.3611C22.86 6.83824 18.3828 2.36108 12.86 2.36108C7.33714 2.36108 2.85999 6.83824 2.85999 12.3611C2.85999 17.8839 7.33714 22.3611 12.86 22.3611Z" stroke="#00BE00" stroke-width="1.5" stroke-linecap="round" stroke-linejoin="round"/>
</svg>
