<svg width="24" height="24" viewBox="0 0 24 24" fill="none"
    xmlns="http://www.w3.org/2000/svg">
    <path fill-rule="evenodd" clip-rule="evenodd" d="M18.8651 5.12389C19.3021 5.27689 19.5941 5.68889 19.5941 6.15189V12.9249C19.5941 14.8179 18.9061 16.6249 17.6911 18.0249C17.0801 18.7299 16.3071 19.2789 15.4861 19.7229L11.9281 21.6449L8.36412 19.7219C7.54212 19.2779 6.76812 18.7299 6.15612 18.0239C4.94012 16.6239 4.25012 14.8159 4.25012 12.9209V6.15189C4.25012 5.68889 4.54212 5.27689 4.97912 5.12389L11.5611 2.81089C11.7951 2.72889 12.0501 2.72889 12.2831 2.81089L18.8651 5.12389Z" stroke="#00BE00" stroke-width="1.75" stroke-linecap="round" stroke-linejoin="round"/>
    <path d="M9.32263 11.9178L11.2146 13.8108L15.1126 9.91284" stroke="#00BE00" stroke-width="1.75" stroke-linecap="round" stroke-linejoin="round"/>
</svg>
