<svg width="25" height="25" viewBox="0 0 25 25" fill="none"
    xmlns="http://www.w3.org/2000/svg">
    <path fill-rule="evenodd" clip-rule="evenodd" d="M19.725 5.48485C20.162 5.63785 20.454 6.04985 20.454 6.51285V13.2859C20.454 15.1789 19.766 16.9859 18.551 18.3859C17.94 19.0909 17.167 19.6399 16.346 20.0839L12.788 22.0059L9.22399 20.0829C8.40199 19.6389 7.62799 19.0909 7.01599 18.3849C5.79999 16.9849 5.10999 15.1769 5.10999 13.2819V6.51285C5.10999 6.04985 5.40199 5.63785 5.83899 5.48485L12.421 3.17185C12.655 3.08985 12.91 3.08985 13.143 3.17185L19.725 5.48485Z" stroke="#00BE00" stroke-width="1.75" stroke-linecap="round" stroke-linejoin="round"/>
    <path d="M10.1825 12.2788L12.0745 14.1718L15.9725 10.2738" stroke="#00BE00" stroke-width="1.75" stroke-linecap="round" stroke-linejoin="round"/>
</svg>
