<svg width="49" height="49" viewBox="0 0 49 49" fill="none"
    xmlns="http://www.w3.org/2000/svg">
    <path d="M27.8593 43.2336C27.2851 42.5186 26.7109 41.8035 26.1259 41.0993C22.6807 37.0366 19.1922 32.9956 15.9962 28.7271C14.5337 26.777 13.1578 24.7727 11.9552 22.6385C11.0344 21.0026 10.666 19.3233 10.991 17.4491C11.3485 15.4232 11.9119 13.4731 12.8761 11.653C12.9303 11.5988 12.9736 11.5338 13.0494 11.4038C13.3528 13.3647 14.1545 15.0656 15.0862 16.7232C16.4838 19.1933 18.1305 21.4901 19.8748 23.7327C23.3741 28.2504 27.1768 32.5189 31.0228 36.7441C31.2394 36.9825 31.4561 37.2208 31.6945 37.4808C31.6186 37.5892 31.5536 37.6975 31.4886 37.8058C30.3619 39.5176 29.246 41.2185 28.1301 42.9302C28.0651 43.0277 28.011 43.1361 27.946 43.2336C27.9135 43.2336 27.8918 43.2336 27.8593 43.2336Z" fill="#BDBDBD"/>
    <path d="M12.4428 43.2336C12.3128 43.0169 12.1936 42.8002 12.0636 42.5944C11.0127 40.991 9.95098 39.3768 8.88927 37.7733C8.82427 37.6975 8.7701 37.6 8.72676 37.535C10.9152 34.9674 13.0928 32.4214 15.2704 29.8755C16.6246 31.5872 17.9897 33.3098 19.3764 35.0541C19.2789 35.1732 19.1706 35.3141 19.0622 35.4549C16.9605 37.9359 14.8695 40.4168 12.7678 42.9086C12.6811 43.0169 12.6053 43.1361 12.5186 43.2553C12.4861 43.2336 12.4644 43.2336 12.4428 43.2336Z" fill="#BDBDBD"/>
    <path d="M27.1876 11.1221C27.8701 12.2921 28.3902 13.5055 28.7802 14.7731C29.181 16.084 29.3977 17.4165 29.506 18.7816C29.5819 19.6483 29.4194 20.4717 29.0727 21.2625C28.0218 23.6893 26.4834 25.8236 24.9233 28.0228C23.5041 26.2786 22.1174 24.5668 20.7306 22.8659C23.2874 19.1608 26.0067 15.5856 27.1876 11.1221Z" fill="#BDBDBD"/>
    <path d="M24.6525 14.3614C21.5107 12.6822 18.4447 12.758 15.3679 14.5889C15.2704 14.3614 15.1621 14.1339 15.0646 13.9172C14.6637 12.9747 14.3279 12.0213 14.2845 10.9921C14.2629 10.4829 14.3387 9.9737 14.4145 9.46451C14.447 9.2695 14.5879 9.07449 14.7179 8.91198C17.5888 5.716 22.7999 5.716 25.66 8.93365C25.855 9.15033 25.9742 9.50784 25.9742 9.80036C25.9742 10.3637 25.92 10.9487 25.7684 11.4904C25.53 12.303 25.1942 13.083 24.8908 13.863C24.8258 14.0472 24.7392 14.1989 24.6525 14.3614Z" fill="#BDBDBD"/>
    <path d="M43.254 16.0204C40.5851 15.8278 37.9988 14.9611 35.7427 13.5028C35.5363 13.3653 35.2749 13.3653 35.0686 13.5028C32.8124 14.9473 30.2398 15.814 27.571 16.0204C27.4059 16.0204 27.2545 16.0892 27.1307 16.1992C27.0207 16.3093 26.9519 16.4744 26.9519 16.6394V21.8671C26.9519 29.9976 34.8072 34.0146 35.1373 34.1797C35.3162 34.2622 35.5088 34.2622 35.6876 34.1797C36.0178 34.0146 43.8731 29.9976 43.8731 21.8671V16.6394C43.8731 16.4744 43.8043 16.323 43.6942 16.1992C43.5842 16.0892 43.4191 16.0204 43.254 16.0204ZM39.9936 21.2068L34.7659 26.4345C34.5871 26.6133 34.3532 26.7096 34.1193 26.7096C33.8717 26.7096 33.6378 26.6133 33.4727 26.4345L30.8589 23.8206C30.6801 23.6418 30.5838 23.4079 30.5838 23.174C30.5838 22.9264 30.6801 22.6926 30.8589 22.5275C31.0377 22.3486 31.2716 22.2523 31.5055 22.2523C31.7531 22.2523 31.987 22.3486 32.1521 22.5275L34.1193 24.4947L38.7004 19.9136C39.0581 19.5559 39.6359 19.5559 39.9936 19.9136C40.3513 20.2576 40.3513 20.8491 39.9936 21.2068Z" fill="#BDBDBD"/>
</svg>
