<svg width="48" height="48" viewBox="0 0 48 48" fill="none"
  xmlns="http://www.w3.org/2000/svg">
  <g style="mix-blend-mode:multiply">
    <path d="M36.0922 38.072H12.6322C9.99221 38.072 7.83221 35.912 7.83221 33.272V19.592C7.83221 16.952 9.99221 14.792 12.6322 14.792H36.0922C38.7322 14.792 40.8922 16.952 40.8922 19.592V33.272C40.8922 35.912 38.7322 38.072 36.0922 38.072Z" fill="#9659FC"/>
  </g>
  <g style="mix-blend-mode:multiply">
    <path d="M36.0322 28.2921L13.6522 35.2521C11.1322 36.0321 8.43219 34.5921 7.65219 32.0721L4.41219 21.5121C3.63219 18.9921 5.0722 16.2921 7.5922 15.5121L29.9722 8.61208C32.4922 7.83208 35.1922 9.27209 35.9722 11.7921L39.2122 22.3521C39.9922 24.8121 38.6122 27.5121 36.0322 28.2921Z" fill="#F6AFFD"/>
  </g>
  <path d="M40.8922 20.6721H7.83221V25.1121H40.8922V20.6721Z" fill="#AA83FF"/>
  <path d="M15.6922 33.3922H11.1322C10.6522 33.3922 10.2922 33.0322 10.2922 32.5522C10.2922 32.0722 10.6522 31.7122 11.1322 31.7122H15.6922C16.1722 31.7122 16.5322 32.0722 16.5322 32.5522C16.4722 33.0322 16.1122 33.3922 15.6922 33.3922Z" fill="#AA83FF"/>
  <path d="M20.6122 30.572H11.5522C10.8922 30.572 10.2922 30.032 10.2922 29.312C10.2922 28.652 10.8322 28.052 11.5522 28.052H20.6122C21.2722 28.052 21.8722 28.592 21.8722 29.312C21.8122 30.032 21.2722 30.572 20.6122 30.572Z" fill="#AA83FF"/>
  <path d="M38.3122 39.872C41.3608 39.872 43.8322 37.4006 43.8322 34.352C43.8322 31.3034 41.3608 28.832 38.3122 28.832C35.2636 28.832 32.7922 31.3034 32.7922 34.352C32.7922 37.4006 35.2636 39.872 38.3122 39.872Z" fill="#F5B1FC"/>
  <path d="M41.7922 33.3919C41.8522 33.5119 41.9122 33.5719 41.9722 33.6919C42.4522 34.7119 41.7922 35.9119 40.6522 35.9119C40.0522 35.9119 39.4522 35.9119 38.8522 35.9119C37.9522 35.9119 37.1722 35.0719 37.4122 34.0519C37.5922 34.0519 37.7122 34.0519 37.8322 34.0519C38.0122 34.0519 38.1322 34.2319 38.1322 34.4119C38.1322 34.5919 38.1922 34.7719 38.3722 34.9519C38.4922 35.0719 38.6722 35.1319 38.8522 35.1919C39.0922 35.1919 39.2722 35.1919 39.5122 35.1919C39.8722 35.1919 40.2322 35.1919 40.5922 35.1919C41.0722 35.1919 41.4322 34.8319 41.3122 34.3519C41.2522 33.9919 40.9522 33.7519 40.6522 33.7519C40.2922 33.7519 39.9322 33.7519 39.5722 33.7519C39.5122 33.7519 39.5122 33.7519 39.4522 33.6919C39.3322 33.4519 39.1522 33.2119 38.9122 33.0319C38.9122 33.0319 38.8522 33.0319 38.8522 32.9719H38.9122C39.4522 32.9719 39.9922 32.9719 40.4722 32.9719C40.8322 32.9719 41.1922 33.0919 41.4922 33.3319C41.6722 33.2719 41.7322 33.3319 41.7922 33.3919Z" fill="white"/>
  <path d="M35.0122 33.152C35.0722 33.092 35.1322 33.092 35.1922 33.032C35.4322 32.912 35.6722 32.792 35.9722 32.792C36.5722 32.792 37.1722 32.792 37.7722 32.792C38.6122 32.792 39.2722 33.512 39.2722 34.352C39.2722 34.472 39.2722 34.532 39.2722 34.652C39.2722 34.712 39.2722 34.712 39.2122 34.712C39.0922 34.712 38.9722 34.712 38.8522 34.712C38.6722 34.712 38.4922 34.592 38.4922 34.352C38.4922 34.172 38.4322 33.992 38.3122 33.872C38.1322 33.692 37.9522 33.632 37.7122 33.632C37.2922 33.632 36.8722 33.632 36.5122 33.632C36.3322 33.632 36.1522 33.632 36.0322 33.632C35.4922 33.632 35.1322 34.112 35.3122 34.592C35.4322 34.892 35.6722 35.072 35.9722 35.072C36.3322 35.072 36.6922 35.072 37.0522 35.072C37.1122 35.072 37.1122 35.072 37.1722 35.132C37.2922 35.372 37.4722 35.612 37.6522 35.792L37.7122 35.852C37.6522 35.852 37.6522 35.852 37.6522 35.852C37.1122 35.852 36.5722 35.852 36.0322 35.852C35.2522 35.852 34.5922 35.312 34.5322 34.472C34.4722 34.052 34.5922 33.692 34.8322 33.332C34.8922 33.272 34.9522 33.212 35.0122 33.152Z" fill="white"/>
</svg>
