<svg width="48" height="48" viewBox="0 0 48 48" fill="none"
  xmlns="http://www.w3.org/2000/svg">
  <path d="M41.6846 27.7653C41.6846 27.4151 41.6846 27.0648 41.6846 26.7729C41.6846 25.8973 41.0424 25.1967 40.1668 25.3135C39.1744 25.4303 38.5906 25.08 38.1236 24.2043C37.4231 22.8617 36.4306 21.7525 35.1463 20.9352C34.5042 20.5266 34.5042 20.5266 34.621 19.7677C34.6793 19.4758 34.7377 19.1255 34.8545 18.8336C34.9712 18.2499 34.8545 17.7245 34.4458 17.3158C33.9788 16.9072 33.4534 16.8488 32.8696 17.0823C31.8772 17.4326 31.0016 18.0164 30.3011 18.7753C30.1259 19.0088 30.0092 19.0088 29.7757 18.8336C29.4838 18.6001 29.1335 18.425 28.7249 18.1915C28.3746 18.0164 27.966 17.8412 27.7325 17.7245C25.806 16.9072 23.2958 16.4402 20.5521 16.4402C16.2906 16.4402 12.6128 17.6077 10.7447 19.2423C8.40967 20.9352 6.95024 23.3287 6.65836 26.481C6.65836 26.5394 6.59998 26.6562 6.59998 26.7145C6.59998 27.1232 6.59998 27.4734 6.59998 27.8821C6.65835 28.2323 6.65835 28.641 6.7751 28.9912C7.00861 29.7502 7.24211 30.5674 7.59237 31.268C8.11777 32.202 8.35128 33.2528 8.58479 34.3036C8.87668 35.763 9.28532 37.164 9.75233 38.5651C9.92746 39.2072 10.2777 39.791 10.8615 40.1996C12.4377 40.1996 14.0139 40.1996 15.59 40.1996C15.9403 40.0245 16.057 39.6742 16.057 39.2656C16.057 38.7402 16.057 38.1564 16.057 37.631C16.057 37.5727 16.1154 37.5727 16.1154 37.5143C17.1662 37.6311 18.1586 37.7478 19.2094 37.8646C20.7272 37.9813 22.3034 38.0397 23.7628 37.631C23.8796 37.5727 24.0547 37.6894 24.1131 37.8062C24.3466 38.2148 24.5217 38.5651 24.6385 38.9737C24.872 39.5575 25.2223 39.9661 25.8644 40.1996C27.3822 40.1996 28.9 40.1996 30.4178 40.1996C30.7681 39.9661 30.8848 39.6742 30.8265 39.324C30.8265 38.5067 30.8265 37.6894 30.8265 36.8722C30.8265 36.5219 30.9432 36.4051 31.2351 36.2884C33.3367 35.4711 35.4382 34.5954 37.423 33.4279C38.4738 32.7858 39.5246 32.0269 40.3419 31.0928C41.2759 30.1588 41.743 29.0496 41.6846 27.7653ZM34.0372 26.1308C33.5118 26.1308 33.1032 25.7221 33.1032 25.1384C33.1032 24.5546 33.4534 24.0876 33.9788 24.0876C34.5042 24.0876 34.9712 24.5546 34.9712 25.08C34.9712 25.6638 34.5626 26.1308 34.0372 26.1308Z" fill="#FF81CC"/>
  <g style="mix-blend-mode:multiply">
    <path d="M11.3283 15.5649C11.3283 11.1283 14.7726 7.74242 19.2092 7.80079C23.4124 7.80079 26.7982 11.3618 26.7982 15.6817C26.7982 19.7681 23.2372 23.2123 18.9757 23.154C14.7725 23.154 11.3283 19.7681 11.3283 15.5649Z" fill="#FFBC27"/>
  </g>
  <path d="M21.1361 13.8132C21.1361 14.3386 20.961 14.6305 20.5523 14.6889C20.2021 14.6889 19.9686 14.4554 19.9102 14.1051C19.7934 13.5797 19.6183 13.2879 19.2097 13.2295C18.7427 13.1711 18.2756 13.463 18.2173 13.9884C18.1589 14.4554 18.5091 14.864 18.9762 14.9808C19.2097 15.0392 19.5016 15.0392 19.7351 15.0975C20.5523 15.3311 21.0777 16.09 21.1361 16.9072C21.1945 17.7829 20.7859 18.6002 19.9686 18.9504C19.7351 19.0672 19.6767 19.1839 19.6767 19.4174C19.6767 19.7677 19.4432 20.0596 19.0929 20.0596C18.7427 20.0596 18.4508 19.8261 18.4508 19.4174C18.4508 19.1256 18.334 19.0088 18.1005 18.8921C17.4 18.5418 17.0497 17.958 16.9913 17.1991C16.9913 16.7905 17.2248 16.4986 17.5751 16.4986C17.9254 16.4986 18.1589 16.7321 18.2173 17.1407C18.2756 17.6078 18.5675 17.8996 18.9178 17.958C19.3848 18.0164 19.8518 17.7245 19.9102 17.2575C19.9686 16.7905 19.6183 16.3235 19.1513 16.2651C18.9762 16.2651 18.7427 16.2067 18.5675 16.2067C17.6919 15.9732 17.1081 15.2727 16.9913 14.397C16.933 13.5797 17.3416 12.7625 18.1005 12.3538C18.334 12.2371 18.4508 12.1203 18.4508 11.8284C18.4508 11.4198 18.6843 11.1863 19.0345 11.1863C19.3848 11.1863 19.6767 11.4782 19.6767 11.8868C19.6767 12.1787 19.7351 12.2954 20.027 12.4122C20.7275 12.529 21.0777 13.1127 21.1361 13.8132Z" fill="white"/>
</svg>
