<svg width="48" height="48" viewBox="0 0 48 48" fill="none"
  xmlns="http://www.w3.org/2000/svg">
  <g clip-path="url(#clip0_12438_64001)">
    <path fill-rule="evenodd" clip-rule="evenodd" d="M25.7828 16.869L18.6874 9.77352C17.6877 8.77383 16.0328 8.75415 15.0527 9.77352C14.1023 10.7601 14.1137 12.3306 15.0872 13.3032L22.2179 20.4339C23.202 21.4188 24.7987 21.4188 25.7828 20.4339C26.7678 19.4498 26.7678 17.8531 25.7828 16.869" fill="#00A500"/>
    <path fill-rule="evenodd" clip-rule="evenodd" d="M32.9137 34.6961L25.783 27.5654C24.7981 26.5804 23.2022 26.5804 22.2181 27.5654C21.2331 28.5495 21.2331 30.1462 22.2181 31.1303L29.3479 38.261C30.3329 39.2459 31.9288 39.2459 32.9137 38.261C33.8978 37.2769 33.8978 35.6802 32.9137 34.6961" fill="#00A500"/>
    <path fill-rule="evenodd" clip-rule="evenodd" d="M34.696 15.0864L27.5653 22.217C26.5804 23.202 26.5804 24.7979 27.5653 25.782C28.5502 26.7669 30.1461 26.7669 31.1311 25.782L38.2618 18.6521C39.2459 17.6672 39.2459 16.0705 38.2618 15.0864C37.2768 14.1014 35.6809 14.1014 34.696 15.0864" fill="#00A500"/>
    <path fill-rule="evenodd" clip-rule="evenodd" d="M13.304 32.9133L20.4347 25.7826C21.4196 24.7977 21.4196 23.2018 20.4347 22.2168C19.4505 21.2327 17.8538 21.2327 16.8697 22.2168L9.7382 29.3475C8.75409 30.3325 8.75409 31.9284 9.7382 32.9133C10.7231 33.8974 12.319 33.8974 13.304 32.9133" fill="#00A500"/>
    <path fill-rule="evenodd" clip-rule="evenodd" d="M16.8694 25.7825L9.7387 18.6518C8.75377 17.6668 8.75377 16.071 9.7387 15.0868C10.7228 14.1019 12.3195 14.1019 13.3036 15.0868L20.4475 22.2298C21.425 23.2074 21.425 24.7918 20.4475 25.7694L16.8694 29.3482C17.8543 28.3633 17.8543 26.7674 16.8694 25.7825" fill="#00BE00"/>
    <path fill-rule="evenodd" clip-rule="evenodd" d="M29.3482 31.1306L25.7701 27.5525C24.7926 26.5749 23.2073 26.5749 22.2298 27.5525L15.0868 34.6955C14.1018 35.6804 14.1027 37.2763 15.0868 38.2613C16.0717 39.2462 17.6676 39.2462 18.6525 38.2613L25.7824 31.1306C26.7673 30.1456 28.3632 30.1456 29.3482 31.1306" fill="#00BE00"/>
    <path fill-rule="evenodd" clip-rule="evenodd" d="M31.131 22.2168L38.2617 29.3475C39.2466 30.3324 39.2466 31.9283 38.2617 32.9124C37.2776 33.8974 35.6809 33.8974 34.6967 32.9124L27.5529 25.7694C26.5754 24.7919 26.5754 23.2075 27.5529 22.2299L31.131 18.6519C30.1461 19.636 30.1461 21.2319 31.131 22.2168" fill="#00BE00"/>
    <path fill-rule="evenodd" clip-rule="evenodd" d="M32.9137 9.73808C31.9288 8.75397 30.3329 8.75397 29.348 9.73808L22.2181 16.8688C21.2332 17.8537 19.6373 17.8537 18.6523 16.8688L22.2304 20.4468C23.208 21.4244 24.7924 21.4244 25.7707 20.4468L32.9137 13.3038C33.8987 12.3189 33.8978 10.723 32.9137 9.73808" fill="#00BE00"/>
  </g>
  <defs>
    <clipPath id="clip0_12438_64001">
      <rect width="30" height="30" fill="white" transform="translate(9 9)"/>
    </clipPath>
  </defs>
</svg>
