<svg width="48" height="48" viewBox="0 0 48 48" fill="none"
  xmlns="http://www.w3.org/2000/svg">
  <path d="M39.84 12.5401C39.84 21.5401 39.84 30.6001 39.84 39.6001C39.66 40.3201 39.18 40.8001 38.46 40.9801C38.34 40.9801 38.22 40.9801 38.1 40.9801C37.8 40.8001 37.44 40.6801 37.14 40.5001C36.18 39.7201 35.28 38.9401 34.38 38.1601C33.84 37.7401 33.36 37.2601 32.82 36.8401C31.5 37.9801 30.18 39.1201 28.86 40.2001C28.5 40.5001 28.02 40.7401 27.6 41.0401C27.48 41.0401 27.3 41.0401 27.18 41.0401C26.76 40.8001 26.34 40.5601 25.98 40.2601C25.02 39.4801 24.06 38.6401 23.16 37.8601C22.74 37.5001 22.38 37.2001 21.96 36.8401C20.58 38.0401 19.26 39.1801 17.88 40.3201C17.52 40.6201 17.1 40.8001 16.68 41.0401C16.56 41.0401 16.44 41.0401 16.32 41.0401C15.18 40.6201 14.94 40.2601 14.94 39.0001C14.94 33.6001 14.94 28.2001 14.94 22.7401C14.94 19.5001 14.94 16.2601 14.94 13.0201C14.94 11.4001 14.46 10.0201 13.44 8.8201C12.72 7.9801 11.88 7.4401 10.8 7.0201C11.16 6.7201 11.58 6.6001 12 6.6001C13.38 6.6001 14.76 6.6001 16.14 6.6001C21.96 6.6001 27.72 6.6001 33.54 6.6001C36.6 6.6001 39.06 8.5801 39.78 11.4601C39.78 11.8801 39.78 12.2401 39.84 12.5401Z" fill="#FF9105"/>
  <path d="M34.98 19.8H22.08C20.94 19.8 20.04 18.9 20.04 17.76V14.28C20.04 13.14 20.94 12.24 22.08 12.24H34.98C36.12 12.24 37.02 13.14 37.02 14.28V17.76C37.08 18.84 36.12 19.8 34.98 19.8Z" fill="white"/>
  <path d="M35.28 25.6201H21.78C20.82 25.6201 20.04 24.8401 20.04 23.8801C20.04 22.9201 20.82 22.1401 21.78 22.1401H35.28C36.24 22.1401 37.02 22.9201 37.02 23.8801C37.08 24.7801 36.24 25.6201 35.28 25.6201Z" fill="white"/>
  <path d="M35.28 31.8003H21.78C20.82 31.8003 20.04 31.0203 20.04 30.0603C20.04 29.1003 20.82 28.3203 21.78 28.3203H35.28C36.24 28.3203 37.02 29.1003 37.02 30.0603C37.08 31.0203 36.24 31.8003 35.28 31.8003Z" fill="white"/>
  <g style="mix-blend-mode:multiply">
    <path d="M17.52 26.5202H7.79999V11.5202C7.79999 8.82016 9.95999 6.66016 12.66 6.66016C15.36 6.66016 17.52 8.82016 17.52 11.5202V26.5202Z" fill="#FEC574"/>
  </g>
</svg>
