<svg width="48" height="48" viewBox="0 0 48 48" fill="none"
  xmlns="http://www.w3.org/2000/svg">
  <path d="M24 43.6577C14.7158 43.6577 7.20001 37.5173 7.20001 29.8577C16.4842 29.8577 24 36.0613 24 43.6577Z" fill="#0ADAA0"/>
  <path d="M23.4803 43.6577C32.7645 43.6577 40.2803 37.5173 40.2803 29.8577C31.0592 29.8577 23.4803 36.0613 23.4803 43.6577Z" fill="#0ADAA0"/>
  <g style="mix-blend-mode:multiply">
    <path d="M24 36.5999C32.947 36.5999 40.2 29.347 40.2 20.4C40.2 11.4529 32.947 4.19995 24 4.19995C15.053 4.19995 7.79999 11.4529 7.79999 20.4C7.79999 29.347 15.053 36.5999 24 36.5999Z" fill="#5680F8"/>
  </g>
  <path d="M29.2426 16.4549C29.3039 17.8014 28.753 18.4747 27.8961 18.5359C27.1005 18.5971 26.4272 18.0462 26.3048 17.0669C26.06 15.7204 25.5091 15.1084 24.5298 14.9859C23.3057 14.8023 22.2652 15.598 22.1428 16.7609C22.0204 17.9238 22.8161 18.9643 24.0402 19.0867C24.6522 19.1479 25.2643 19.2091 25.8763 19.3927C27.8349 20.0048 29.1814 21.7798 29.3039 23.7383C29.4263 25.8805 28.3858 27.7779 26.4884 28.696C25.9375 28.9408 25.6927 29.2468 25.7539 29.8589C25.7539 30.777 25.1419 31.389 24.3462 31.4502C23.4893 31.5114 22.7549 30.8382 22.8161 29.9201C22.8161 29.1856 22.51 28.9408 21.898 28.6348C20.1842 27.7779 19.3273 26.309 19.2049 24.4728C19.1437 23.4323 19.6946 22.7591 20.6127 22.6978C21.4083 22.6366 22.0816 23.2487 22.204 24.228C22.3876 25.3909 22.9997 26.1254 23.9178 26.2478C25.0807 26.4314 26.1212 25.6357 26.3048 24.534C26.4884 23.3711 25.6927 22.3306 24.4686 22.147C23.979 22.0858 23.5505 22.0858 23.0609 21.9634C20.9799 21.4125 19.4498 19.6988 19.2661 17.4954C19.0825 15.5368 20.123 13.4558 22.0204 12.5377C22.6325 12.2317 22.8773 11.9257 22.8773 11.1912C22.8773 10.2119 23.4893 9.59985 24.3462 9.59985C25.2031 9.59985 25.8763 10.2119 25.8151 11.2524C25.8151 11.9257 25.9988 12.2317 26.6108 12.5377C28.2022 13.3334 29.1202 14.8023 29.2426 16.4549Z" fill="white"/>
  <path d="M25.2 43.7999L25.2 36.5999L22.8 36.5999L22.8 43.7999L25.2 43.7999Z" fill="#5680F8"/>
</svg>
