<svg width="48" height="48" viewBox="0 0 48 48" fill="none"
  xmlns="http://www.w3.org/2000/svg">
  <path d="M10.62 37.5602C9.06 34.8002 7.56 32.1001 6 29.4002C6.12 29.3402 6.18 29.2802 6.24 29.2202C8.04 28.2002 9.84 27.1202 11.64 26.1002C12.3 25.7402 13.02 25.4402 13.68 25.2602C14.52 25.0202 15.42 25.0802 16.26 25.3802C18.54 26.1002 20.76 26.8202 23.04 27.6002C23.4 27.7202 23.7 27.7802 24.06 27.8402C25.5 28.1402 26.34 29.6402 25.74 30.9602C25.38 31.8602 24.48 32.3401 23.52 32.1001C21.9 31.6802 20.28 31.2001 18.66 30.7801C18.18 30.6601 17.82 30.8402 17.7 31.2602C17.58 31.6802 17.82 31.9802 18.3 32.1602C19.98 32.6402 21.66 33.0601 23.34 33.4801C24.54 33.7801 25.56 33.4201 26.4 32.5202C26.46 32.4602 26.58 32.3401 26.64 32.2801C28.56 31.2001 30.42 30.1802 32.34 29.1602C33.78 28.3202 35.22 27.4802 36.72 26.7002C37.62 26.2202 38.64 25.9202 39.66 26.0402C40.74 26.1602 41.46 26.7602 41.7 27.7801C41.94 28.8601 41.58 29.9401 40.68 30.4801C37.44 32.5201 34.14 34.5001 30.9 36.4801C29.46 37.3801 28.02 38.2201 26.58 39.1801C25.08 40.1401 23.52 40.3202 21.84 39.8401C18.6 38.9402 15.36 38.1001 12.18 37.2001C11.76 37.0801 11.4 37.0801 11.1 37.3801C10.98 37.3801 10.8 37.4402 10.62 37.5602Z" fill="#2C63FF"/>
  <path d="M32.6999 24.4803H16.9799C16.4999 24.4803 16.0799 24.0603 16.0799 23.5803V21.2403C16.0799 20.7603 16.4999 20.3403 16.9799 20.3403H32.6999C33.1799 20.3403 33.5999 20.7603 33.5999 21.2403V23.5803C33.5999 24.1203 33.1799 24.4803 32.6999 24.4803Z" fill="#2C63FF"/>
  <g style="mix-blend-mode:multiply">
    <path d="M24.8401 23.04C29.0485 23.04 32.4601 19.6285 32.4601 15.42C32.4601 11.2116 29.0485 7.80005 24.8401 7.80005C20.6317 7.80005 17.2201 11.2116 17.2201 15.42C17.2201 19.6285 20.6317 23.04 24.8401 23.04Z" fill="#64D9FC"/>
  </g>
  <path d="M26.8797 13.8C26.8797 14.34 26.6997 14.58 26.3397 14.64C26.0397 14.64 25.7397 14.46 25.6797 14.04C25.5597 13.5 25.3797 13.26 24.9597 13.2C24.4797 13.14 24.0597 13.44 23.9997 13.92C23.9397 14.4 24.2997 14.82 24.7797 14.88C25.0197 14.94 25.2597 14.94 25.4997 15C26.2797 15.24 26.8197 15.96 26.8797 16.74C26.9397 17.58 26.5197 18.36 25.7397 18.72C25.4997 18.84 25.4397 18.96 25.4397 19.2C25.4397 19.56 25.1997 19.8 24.8997 19.8C24.5397 19.8 24.2997 19.56 24.2997 19.2C24.2997 18.9 24.1797 18.78 23.9397 18.66C23.2797 18.3 22.9197 17.76 22.8597 16.98C22.8597 16.56 23.0397 16.32 23.3997 16.26C23.6997 16.26 23.9997 16.5 24.0597 16.86C24.1197 17.34 24.3597 17.64 24.7797 17.7C25.2597 17.76 25.6797 17.46 25.7397 16.98C25.7997 16.5 25.4997 16.08 25.0197 16.02C24.8397 16.02 24.6597 16.02 24.4797 15.96C23.6397 15.72 23.0397 15.06 22.9197 14.16C22.8597 13.38 23.2797 12.54 23.9997 12.18C24.2397 12.06 24.3597 11.94 24.3597 11.64C24.3597 11.28 24.5997 10.98 24.9597 10.98C25.3197 10.98 25.5597 11.22 25.5597 11.64C25.5597 11.88 25.6197 12 25.8597 12.12C26.4597 12.54 26.8197 13.14 26.8797 13.8Z" fill="white"/>
</svg>
