<svg width="24" height="24" viewBox="0 0 24 24" fill="none" xmlns="http://www.w3.org/2000/svg">
<rect width="24" height="24" rx="6" fill="#33CB33"/>
<path fill-rule="evenodd" clip-rule="evenodd" d="M12.8557 8.57724L9.44992 5.17143C8.97006 4.69157 8.17569 4.68212 7.70528 5.17143C7.24904 5.64498 7.25456 6.39881 7.72181 6.86567L11.1446 10.2884C11.6169 10.7612 12.3834 10.7612 12.8557 10.2884C13.3285 9.81605 13.3285 9.04962 12.8557 8.57724Z" fill="#E8E9EB"/>
<path fill-rule="evenodd" clip-rule="evenodd" d="M16.2785 17.1341L12.8558 13.7114C12.383 13.2386 11.617 13.2386 11.1446 13.7114C10.6718 14.1838 10.6718 14.9502 11.1446 15.4226L14.567 18.8453C15.0397 19.3181 15.8058 19.3181 16.2785 18.8453C16.7509 18.3729 16.7509 17.6065 16.2785 17.1341Z" fill="#E8E9EB"/>
<path fill-rule="evenodd" clip-rule="evenodd" d="M17.134 7.72152L13.7113 11.1443C13.2385 11.617 13.2385 12.3831 13.7113 12.8554C14.184 13.3282 14.9501 13.3282 15.4228 12.8554L18.8456 9.43309C19.318 8.96032 19.318 8.19389 18.8456 7.72152C18.3728 7.24875 17.6068 7.24875 17.134 7.72152Z" fill="#E8E9EB"/>
<path fill-rule="evenodd" clip-rule="evenodd" d="M6.8659 16.2784L10.2886 12.8556C10.7614 12.3829 10.7614 11.6168 10.2886 11.1441C9.81627 10.6717 9.04984 10.6717 8.57747 11.1441L5.15433 14.5668C4.68196 15.0396 4.68196 15.8056 5.15433 16.2784C5.6271 16.7508 6.39313 16.7508 6.8659 16.2784Z" fill="#E8E9EB"/>
<path fill-rule="evenodd" clip-rule="evenodd" d="M8.57737 12.8556L5.15462 9.43282C4.68186 8.96005 4.68186 8.19402 5.15462 7.72164C5.627 7.24887 6.39343 7.24887 6.8658 7.72164L10.2948 11.1503C10.7641 11.6195 10.7641 12.38 10.2948 12.8493L8.57737 14.5671C9.05014 14.0944 9.05014 13.3283 8.57737 12.8556Z" fill="white"/>
<path fill-rule="evenodd" clip-rule="evenodd" d="M14.5671 15.4228L12.8496 13.7053C12.3804 13.2361 11.6195 13.2361 11.1503 13.7053L7.72162 17.134C7.24885 17.6067 7.24924 18.3728 7.72162 18.8455C8.19438 19.3183 8.96042 19.3183 9.43319 18.8455L12.8555 15.4228C13.3283 14.95 14.0943 14.95 14.5671 15.4228Z" fill="white"/>
<path fill-rule="evenodd" clip-rule="evenodd" d="M15.4229 11.1442L18.8457 14.5669C19.3184 15.0397 19.3184 15.8057 18.8457 16.2781C18.3733 16.7509 17.6069 16.7509 17.1345 16.2781L13.7054 12.8494C13.2362 12.3802 13.2362 11.6197 13.7054 11.1505L15.4229 9.43298C14.9501 9.90536 14.9501 10.6714 15.4229 11.1442Z" fill="white"/>
<path fill-rule="evenodd" clip-rule="evenodd" d="M16.2786 5.15433C15.8058 4.68196 15.0398 4.68196 14.567 5.15433L11.1447 8.57708C10.6719 9.04984 9.90587 9.04984 9.43311 8.57708L11.1506 10.2946C11.6198 10.7638 12.3803 10.7638 12.8499 10.2946L16.2786 6.8659C16.7514 6.39313 16.751 5.6271 16.2786 5.15433Z" fill="white"/>
</svg>
