<svg width="376" height="812" viewBox="0 0 376 812" fill="none" xmlns="http://www.w3.org/2000/svg">
<g opacity="0.12">
<path fill-rule="evenodd" clip-rule="evenodd" d="M-33.7746 401.495C-39.1597 401.599 -43.4577 406.05 -43.3759 411.438L-42.7844 450.433C-42.7028 455.817 -45.3859 460.236 -50.7668 460.344L-32.8156 459.99C-27.4745 459.882 -23.2059 455.462 -23.283 450.118L-23.8776 411.053C-23.9593 405.665 -28.3897 401.387 -33.7746 401.495Z" stroke="#00BE00"/>
<path fill-rule="evenodd" clip-rule="evenodd" d="M6.98457 430.367L7.1054 410.687C7.15208 405.233 2.77052 401.002 -2.67608 401.241C-8.12465 401.474 -12.5766 406.084 -12.6192 411.537L-12.6462 419.257C-12.6958 425.318 -9.105 431.061 -2.5066 430.778L6.98457 430.367Z" stroke="#00BE00"/>
<path fill-rule="evenodd" clip-rule="evenodd" d="M-23.1612 361.196L-24.4192 306.401C-24.5389 300.917 -29.0828 296.529 -34.5701 296.599C-40.0491 296.668 -44.3979 301.172 -44.2784 306.652L-43.2892 349.417C-43.1539 355.516 -39.3588 361.403 -32.714 361.318L-23.1612 361.196Z" stroke="#00BE00"/>
<path fill-rule="evenodd" clip-rule="evenodd" d="M40.4403 597.654L39.716 568.038C39.5838 562.548 35.025 558.146 29.5321 558.203C24.0453 558.262 19.6792 563.321 19.8135 568.813L20.2427 584.864C20.392 590.97 24.2258 597.823 30.8755 597.756L40.4403 597.654Z" stroke="#00BE00"/>
<path fill-rule="evenodd" clip-rule="evenodd" d="M17.617 498.903L38.1084 498.716C43.6915 498.664 48.3285 503.142 48.4718 508.724C48.615 514.301 44.2079 518.865 38.627 518.919L30.3784 518.995C24.1754 519.052 18.0399 515.379 17.8665 508.625L17.617 498.903Z" stroke="#00BE00"/>
<path fill-rule="evenodd" clip-rule="evenodd" d="M46.0553 448.235C45.9508 442.849 41.4999 438.551 36.1124 438.633L-2.88392 439.223C-8.2674 439.305 -12.6883 436.623 -12.7927 431.242L-12.4398 449.192C-12.3322 454.533 -7.91373 458.804 -2.56809 458.725L36.5 458.133C41.8854 458.05 46.1618 453.622 46.0553 448.235Z" stroke="#00BE00"/>
<path fill-rule="evenodd" clip-rule="evenodd" d="M18.3069 489.113L38.0424 489.187C43.4814 489.215 47.6932 484.233 47.4995 479.394C47.308 474.561 42.8831 469.491 37.2488 469.464C35.9117 469.458 31.3305 469.435 27.3857 469.418C22.4844 469.395 17.6928 473.615 17.9318 479.648L18.3069 489.113Z" stroke="#00BE00"/>
<path fill-rule="evenodd" clip-rule="evenodd" d="M-1.68369 528.065C3.7012 527.961 7.9992 523.51 7.9176 518.123L7.32697 479.128C7.24341 473.743 9.92655 469.324 15.3094 469.218L-2.64144 469.572C-7.98443 469.678 -12.253 474.098 -12.174 479.444L-11.5803 518.508C-11.4987 523.896 -7.07055 528.172 -1.68369 528.065Z" stroke="#00BE00"/>
<path fill-rule="evenodd" clip-rule="evenodd" d="M67.3003 517.627C61.8144 517.72 57.2903 513.351 57.194 507.868L56.6385 477.985C56.5402 472.504 53.6633 468.104 48.1794 468.199L66.4671 467.882C71.9103 467.788 76.4013 472.125 76.499 477.57L77.0577 507.523C77.1561 513.009 72.7861 517.53 67.3003 517.627Z" stroke="#00BE00"/>
<path fill-rule="evenodd" clip-rule="evenodd" d="M100.72 655.819C106.167 655.764 110.471 651.307 110.334 645.863L109.114 596.587C108.981 591.143 111.65 586.704 117.096 586.647L98.943 586.831C93.5358 586.886 89.2633 591.31 89.3972 596.716L90.6171 646.063C90.7539 651.507 95.2763 655.875 100.72 655.819Z" stroke="#00BE00"/>
<path fill-rule="evenodd" clip-rule="evenodd" d="M-44.1986 381.243C-44.0993 386.73 -39.5728 391.102 -34.0869 391.007L-4.20979 390.505C1.27618 390.415 5.77289 393.141 5.87203 398.62L5.54122 380.337C5.44473 374.892 0.949274 370.551 -4.49807 370.642L-34.4463 371.144C-39.9322 371.238 -44.2978 375.759 -44.1986 381.243Z" stroke="#00BE00"/>
<path fill-rule="evenodd" clip-rule="evenodd" d="M-29.7746 569.495C-35.1597 569.599 -39.4577 574.05 -39.3759 579.438L-38.7844 618.433C-38.7028 623.817 -41.3859 628.236 -46.7668 628.344L-28.8156 627.99C-23.4745 627.882 -19.2059 623.462 -19.283 618.118L-19.8776 579.053C-19.9593 573.665 -24.3897 569.387 -29.7746 569.495Z" stroke="#00BE00"/>
<path fill-rule="evenodd" clip-rule="evenodd" d="M8.98134 597.37L9.12563 577.702C9.16308 572.246 4.77711 568.01 -0.672166 568.24C-6.12144 568.47 -10.5734 573.08 -10.6129 578.534L-10.6686 586.234C-10.7145 592.3 -7.11623 598.049 -0.514544 597.773L8.98134 597.37Z" stroke="#00BE00"/>
<path fill-rule="evenodd" clip-rule="evenodd" d="M-7.5725 736.548L-6.59669 776.015C-6.46491 781.438 -1.96073 785.787 3.46517 785.732C8.885 785.674 13.1723 781.234 13.0426 775.814L12.3603 748.244C12.2136 742.215 8.44416 736.384 1.87765 736.451L-7.5725 736.548Z" stroke="#00BE00"/>
<path fill-rule="evenodd" clip-rule="evenodd" d="M50.0585 617.235C49.9501 611.85 45.4992 607.552 40.1157 607.633L1.11905 608.224C-4.26846 608.306 -8.68743 605.622 -8.79176 600.241L-8.43907 618.191C-8.33349 623.534 -3.91311 627.803 1.43257 627.724L40.501 627.132C45.8845 627.05 50.1629 622.62 50.0585 617.235Z" stroke="#00BE00"/>
<path fill-rule="evenodd" clip-rule="evenodd" d="M21.1505 656.964L40.894 657.103C46.3315 657.141 50.5522 652.77 50.3226 647.34C50.0971 641.909 45.5076 637.477 40.0722 637.441L32.25 637.384C26.2088 637.342 20.4785 640.927 20.7542 647.505L21.1505 656.964Z" stroke="#00BE00"/>
<path fill-rule="evenodd" clip-rule="evenodd" d="M1.31491 697.067C6.70186 696.96 11 692.509 10.9166 687.124L10.3266 648.128C10.2451 642.741 12.9284 638.322 18.3094 638.218L0.358231 638.573C-4.9829 638.676 -9.25161 643.097 -9.17274 648.442L-8.58173 687.51C-8.49827 692.895 -4.07008 697.171 1.31491 697.067Z" stroke="#00BE00"/>
<path fill-rule="evenodd" clip-rule="evenodd" d="M32.2268 726.494C26.8397 726.6 22.5415 731.051 22.6251 736.436L23.2159 775.433C23.2955 780.819 20.6123 785.238 15.2332 785.344L33.1848 784.989C38.524 784.884 42.7927 780.463 42.7157 775.12L42.1238 736.051C42.0403 730.666 37.6098 726.387 32.2268 726.494Z" stroke="#00BE00"/>
<path fill-rule="evenodd" clip-rule="evenodd" d="M108.745 675.56C108.599 670.174 104.114 665.842 98.7281 665.887L59.3691 666.198C53.9452 666.236 49.6648 670.669 49.8116 676.095C49.9582 681.513 54.4765 685.876 59.8984 685.836L109.026 685.45L108.745 675.56Z" stroke="#00BE00"/>
<path fill-rule="evenodd" clip-rule="evenodd" d="M116.803 517.259C116.924 522.747 121.469 527.136 126.954 527.066L156.789 526.454C162.272 526.382 166.793 529.093 166.912 534.579L166.508 516.29C166.388 510.842 161.878 506.487 156.43 506.557L126.518 507.198C121.031 507.271 116.682 511.774 116.803 517.259Z" stroke="#00BE00"/>
<path fill-rule="evenodd" clip-rule="evenodd" d="M68.8925 617.266C63.3988 617.367 59.0239 621.897 59.1149 627.391L59.4523 647.32C59.5453 652.816 56.8179 657.317 51.3262 657.415L69.6399 657.086C75.0908 656.988 79.4358 652.489 79.3455 647.036L79.0068 627.033C78.9159 621.54 74.3882 617.167 68.8925 617.266Z" stroke="#00BE00"/>
<path fill-rule="evenodd" clip-rule="evenodd" d="M-40.2064 549.244C-40.1061 554.721 -35.5873 559.085 -30.1118 558.992L-0.171486 558.492C5.30413 558.403 9.7949 561.123 9.89307 566.599L9.55907 548.346C9.46165 542.911 4.97378 538.577 -0.463276 538.667L-30.4746 539.166C-35.9501 539.259 -40.3045 543.768 -40.2064 549.244Z" stroke="#00BE00"/>
<path fill-rule="evenodd" clip-rule="evenodd" d="M18.3319 528.3L67.8987 527.707C73.3474 527.642 77.803 532.729 77.9131 537.524C78.0212 542.32 73.7981 547.358 68.3514 547.425L30.7307 547.875C24.677 547.947 18.7012 544.38 18.5477 537.786L18.3319 528.3Z" stroke="#00BE00"/>
<path fill-rule="evenodd" clip-rule="evenodd" d="M37.1288 429.997L36.1617 390.576C36.0284 385.143 31.5147 380.784 26.0785 380.838C20.6444 380.895 16.3468 385.345 16.4781 390.78L17.1548 418.28C17.301 424.322 21.0761 430.164 27.6614 430.096L37.1288 429.997Z" stroke="#00BE00"/>
<path fill-rule="evenodd" clip-rule="evenodd" d="M107.719 527.441L106.555 478.112C106.43 472.682 101.919 468.327 96.4866 468.389C91.0519 468.452 86.753 472.904 86.8789 478.338L87.7579 515.745C87.9022 521.786 91.6705 527.623 98.2522 527.55L107.719 527.441Z" stroke="#00BE00"/>
<path fill-rule="evenodd" clip-rule="evenodd" d="M41.1714 716.953L40.2181 677.659C40.0874 672.19 35.5469 667.805 30.075 667.864C24.6092 667.924 20.2837 672.403 20.4123 677.87L21.0766 705.168C21.2221 711.248 25.019 717.125 31.6452 717.055L41.1714 716.953Z" stroke="#00BE00"/>
<path fill-rule="evenodd" clip-rule="evenodd" d="M52.6096 726.137L52.4755 745.947C52.4388 751.366 56.7962 755.574 62.2094 755.347C67.6205 755.125 72.0393 750.549 72.074 745.131L72.1296 737.206C72.1684 731.183 68.5946 725.47 62.0391 725.746L52.6096 726.137Z" stroke="#00BE00"/>
<path fill-rule="evenodd" clip-rule="evenodd" d="M50.837 715.142L69.9697 714.931C75.3638 714.872 79.6274 710.457 79.4986 705.064C79.3678 699.673 74.8955 695.354 69.5034 695.412L62.1969 695.492C56.204 695.558 50.4567 699.223 50.6107 705.752L50.837 715.142Z" stroke="#00BE00"/>
<path fill-rule="evenodd" clip-rule="evenodd" d="M78.3602 586.569L58.603 586.451C53.174 586.421 49.0083 590.81 49.2294 596.233C49.4443 601.654 54.0389 606.09 59.4657 606.118L67.2487 606.141C73.2804 606.174 79.0074 602.741 78.742 596.172L78.3602 586.569Z" stroke="#00BE00"/>
<path fill-rule="evenodd" clip-rule="evenodd" d="M108.405 576.191L108.061 546.197C107.991 540.694 103.453 536.38 97.9469 536.498C92.4446 536.621 88.0217 541.201 88.0909 546.705L88.3099 564.546C88.3912 570.669 91.985 576.543 98.6535 576.399L108.405 576.191Z" stroke="#00BE00"/>
<path fill-rule="evenodd" clip-rule="evenodd" d="M56.5854 459.169L96.0062 458.184C101.436 458.04 105.746 453.508 105.7 448.076C105.649 442.647 101.193 438.344 95.7646 438.482L68.3242 439.188C62.2889 439.346 56.449 442.97 56.5048 449.548L56.5854 459.169Z" stroke="#00BE00"/>
<path fill-rule="evenodd" clip-rule="evenodd" d="M49.1136 567.332C48.9504 561.922 53.2005 557.521 58.6122 557.495L68.5745 557.448C73.9863 557.423 78.2853 554.643 78.1222 549.238L78.6661 567.264C78.828 572.629 74.6071 577 69.2374 577.027L59.2031 577.075C53.7913 577.1 49.2768 572.741 49.1136 567.332Z" stroke="#00BE00"/>
<path fill-rule="evenodd" clip-rule="evenodd" d="M12.4293 706.828L-36.8932 707.991C-42.3243 708.116 -46.681 712.628 -46.6212 718.064C-46.5573 723.496 -42.1023 727.799 -36.6692 727.675L0.730723 726.795C6.77352 726.651 12.612 722.881 12.5391 716.298L12.4293 706.828Z" stroke="#00BE00"/>
<path fill-rule="evenodd" clip-rule="evenodd" d="M156.82 535.745C151.367 535.8 147.059 540.261 147.197 545.71L148.418 594.96C148.555 600.405 145.882 604.849 140.433 604.904L158.601 604.723C164.012 604.666 168.29 600.236 168.156 594.829L166.933 545.512C166.796 540.062 162.268 535.69 156.82 535.745Z" stroke="#00BE00"/>
<path fill-rule="evenodd" clip-rule="evenodd" d="M217.264 594.907C217.168 589.385 212.617 584.99 207.097 585.089L187.331 585.436C181.815 585.534 177.292 582.795 177.194 577.275L177.514 595.676C177.611 601.155 182.131 605.52 187.606 605.422L207.444 605.076C212.964 604.981 217.358 600.427 217.264 594.907Z" stroke="#00BE00"/>
<path fill-rule="evenodd" clip-rule="evenodd" d="M137.551 585.094L127.858 585.53C122.526 585.769 118.165 590.285 118.112 595.623C118.062 600.958 122.313 605.128 127.691 604.885C133.071 604.644 137.395 600.851 137.459 594.391L137.551 585.094Z" stroke="#00BE00"/>
<path fill-rule="evenodd" clip-rule="evenodd" d="M137.323 576.276L136.98 546.502C136.917 541.033 133.415 536.682 126.965 536.831C120.516 536.98 117.114 541.494 117.177 546.967L117.38 564.736C117.45 570.817 121.171 576.653 127.795 576.497L137.323 576.276Z" stroke="#00BE00"/>
<path fill-rule="evenodd" clip-rule="evenodd" d="M158.265 644.227L128.492 644.571C123.023 644.634 118.673 648.136 118.821 654.585C118.972 661.037 123.484 664.436 128.957 664.373L146.725 664.17C152.808 664.102 158.642 660.378 158.488 653.757L158.265 644.227Z" stroke="#00BE00"/>
<path fill-rule="evenodd" clip-rule="evenodd" d="M118.731 626.759C118.822 632.201 123.302 636.527 128.744 636.428L177.982 635.027C183.422 634.926 187.885 637.59 187.978 643.03L187.682 624.889C187.592 619.487 183.142 615.186 177.741 615.289L128.422 616.723C122.98 616.822 118.642 621.315 118.731 626.759Z" stroke="#00BE00"/>
</g>
<g opacity="0.12">
<path fill-rule="evenodd" clip-rule="evenodd" d="M384.949 225.382L385.207 245.493C385.277 251.079 389.69 255.676 395.467 255.548C401.243 255.419 405.562 252.547 405.467 245.197L405.337 235.067C405.279 230.501 399.779 225.055 394.676 225.168L384.949 225.382Z" stroke="#00BE00"/>
<path fill-rule="evenodd" clip-rule="evenodd" d="M352.225 28.4954C346.84 28.6 342.542 33.0509 342.623 38.4383L343.213 77.4342C343.296 82.8195 340.613 87.2385 335.232 87.343L353.181 86.9898C358.525 86.8841 362.793 82.4637 362.714 77.1181L362.124 38.0504C362.04 32.6651 357.612 28.3888 352.225 28.4954Z" stroke="#00BE00"/>
<path fill-rule="evenodd" clip-rule="evenodd" d="M391.981 57.3711L392.124 37.703C392.164 32.2451 387.778 28.0096 382.326 28.2413C376.877 28.4709 372.428 33.0787 372.386 38.5346L372.331 46.2346C372.285 52.3005 375.883 58.0493 382.487 57.7711L391.981 57.3711Z" stroke="#00BE00"/>
<path fill-rule="evenodd" clip-rule="evenodd" d="M432.056 76.2349C431.949 70.848 427.501 66.552 422.113 66.6336L383.118 67.2242C377.731 67.3058 373.314 64.6246 373.208 59.2417L373.563 77.1926C373.668 82.5356 378.086 86.8022 383.432 86.7232L422.499 86.1315C427.886 86.0499 432.162 81.6217 432.056 76.2349Z" stroke="#00BE00"/>
<path fill-rule="evenodd" clip-rule="evenodd" d="M344.584 128.163L344.445 147.905C344.407 153.34 348.778 157.561 354.211 157.335C359.641 157.107 364.076 152.514 364.112 147.082L364.169 139.266C364.212 133.223 360.625 127.49 354.047 127.768L344.584 128.163Z" stroke="#00BE00"/>
<path fill-rule="evenodd" clip-rule="evenodd" d="M384.316 156.065C389.703 155.959 393.999 151.51 393.918 146.123L393.327 107.128C393.245 101.741 395.927 97.3239 401.309 97.2175L383.359 97.5723C378.016 97.6779 373.749 102.096 373.828 107.442L374.42 146.508C374.501 151.896 378.929 156.172 384.316 156.065Z" stroke="#00BE00"/>
<path fill-rule="evenodd" clip-rule="evenodd" d="M313.563 59.1854L313.453 78.926C313.422 84.35 317.786 88.5644 323.206 88.3448C328.624 88.1233 333.037 83.5534 333.069 78.1313L333.112 70.0356C333.146 64.0094 329.561 58.5373 323 58.8051L313.563 59.1854Z" stroke="#00BE00"/>
<path fill-rule="evenodd" clip-rule="evenodd" d="M313.802 107.247C313.902 112.731 318.43 117.103 323.916 117.014L353.781 116.529C359.265 116.439 363.771 119.133 363.875 124.617L363.54 106.329C363.436 100.886 358.939 96.543 353.498 96.6312L323.552 97.1498C318.066 97.2386 313.701 101.758 313.802 107.247Z" stroke="#00BE00"/>
<path fill-rule="evenodd" clip-rule="evenodd" d="M244.478 69.3276C244.587 74.7053 249.03 78.9959 254.408 78.9166L293.451 78.3509C298.826 78.2756 303.247 80.922 303.358 86.2937L302.994 68.3753C302.887 63.0413 298.472 58.7783 293.136 58.855L254.016 59.4517C248.637 59.531 244.368 63.9519 244.478 69.3276Z" stroke="#00BE00"/>
<path fill-rule="evenodd" clip-rule="evenodd" d="M302.515 39.3646C302.539 44.7915 306.956 49.0568 312.382 48.8928L322.223 48.6074C327.647 48.4414 332.066 51.0488 332.09 56.4717L332.003 38.3828C331.98 32.996 327.595 28.7619 322.209 28.9247L312.29 29.2426C306.863 29.4066 302.488 33.9377 302.515 39.3646Z" stroke="#00BE00"/>
<path fill-rule="evenodd" clip-rule="evenodd" d="M325.31 167.816C319.815 167.915 315.44 172.446 315.535 177.938L316.041 207.777C316.134 213.267 313.408 217.766 307.916 217.867L326.224 217.538C331.676 217.439 336.02 212.941 335.929 207.489L335.422 177.581C335.327 172.089 330.802 167.719 325.31 167.816Z" stroke="#00BE00"/>
<path fill-rule="evenodd" clip-rule="evenodd" d="M264.827 88.3965C270.332 88.3039 274.873 92.6888 274.97 98.1919L275.322 118.052C275.42 123.555 278.31 127.968 283.813 127.874L265.461 128.189C259.996 128.281 255.487 123.93 255.392 118.466L255.037 98.5345C254.939 93.0315 259.322 88.4932 264.827 88.3965Z" stroke="#00BE00"/>
<path fill-rule="evenodd" clip-rule="evenodd" d="M345.552 187.137L384.98 186.171C390.41 186.035 394.77 181.52 394.713 176.091C394.657 170.654 390.208 166.358 384.774 166.493L357.269 167.164C351.228 167.315 345.385 171.087 345.456 177.669L345.552 187.137Z" stroke="#00BE00"/>
<path fill-rule="evenodd" clip-rule="evenodd" d="M304.38 138.587L284.647 138.451C279.207 138.417 274.996 142.789 275.224 148.221C275.452 153.661 280.048 158.099 285.491 158.135L293.267 158.192C299.318 158.236 305.054 154.645 304.78 148.059L304.38 138.587Z" stroke="#00BE00"/>
<path fill-rule="evenodd" clip-rule="evenodd" d="M283.191 88.3132L283.531 118.385C283.593 123.874 288.095 128.221 293.581 128.089C299.07 127.962 303.471 123.405 303.407 117.914L303.203 99.8895C303.136 93.7845 299.402 87.9307 292.754 88.0856L283.191 88.3132Z" stroke="#00BE00"/>
<path fill-rule="evenodd" clip-rule="evenodd" d="M314.649 157.698L314.457 137.791C314.404 132.285 318.65 127.55 324.342 127.406C330.038 127.258 334.36 129.888 334.426 137.14C334.448 139.181 334.484 142.707 334.526 147.203C334.598 154.651 328.496 157.348 324.241 157.454L314.649 157.698Z" stroke="#00BE00"/>
<path fill-rule="evenodd" clip-rule="evenodd" d="M345.485 207.326C345.592 212.713 350.04 217.009 355.428 216.927L394.423 216.337C399.81 216.255 404.227 218.936 404.333 224.319L403.978 206.368C403.873 201.025 399.455 196.759 394.109 196.838L355.042 197.429C349.655 197.511 345.379 201.939 345.485 207.326Z" stroke="#00BE00"/>
<path fill-rule="evenodd" clip-rule="evenodd" d="M332.336 8.65407C332.2 3.22153 336.496 -1.22674 341.932 -1.2829L391.292 -1.79087C396.725 -1.84902 401.061 -4.66813 400.928 -10.0987L401.373 8.0112C401.507 13.4035 397.241 17.8213 391.845 17.8771L342.415 18.3878C336.979 18.4439 332.467 14.0867 332.336 8.65407Z" stroke="#00BE00"/>
</g>
</svg>
