<svg width="24" height="24" viewBox="0 0 24 24" fill="none" xmlns="http://www.w3.org/2000/svg">
<rect width="24" height="24" rx="6" fill="#4567FF"/>
<path d="M8.50662 18.6667H15.4933C17.3333 18.6667 18.0666 17.54 18.1533 16.1667L18.4999 10.66C18.5933 9.22004 17.4466 8.00004 15.9999 8.00004C15.5933 8.00004 15.2199 7.76671 15.0333 7.40671L14.5533 6.44004C14.2466 5.83337 13.4466 5.33337 12.7666 5.33337H11.2399C10.5533 5.33337 9.75328 5.83337 9.44662 6.44004L8.96662 7.40671C8.77995 7.76671 8.40662 8.00004 7.99995 8.00004C6.55328 8.00004 5.40662 9.22004 5.49995 10.66L5.84662 16.1667C5.92662 17.54 6.66662 18.6667 8.50662 18.6667Z" stroke="white" stroke-width="1.16667" stroke-linecap="round" stroke-linejoin="round"/>
<path d="M11 9.33337H13" stroke="white" stroke-width="1.16667" stroke-linecap="round" stroke-linejoin="round"/>
<path d="M11.9999 16C13.1933 16 14.1666 15.0266 14.1666 13.8333C14.1666 12.64 13.1933 11.6666 11.9999 11.6666C10.8066 11.6666 9.83325 12.64 9.83325 13.8333C9.83325 15.0266 10.8066 16 11.9999 16Z" stroke="white" stroke-width="1.16667" stroke-linecap="round" stroke-linejoin="round"/>
</svg>
