<svg width="101" height="100" viewBox="0 0 101 100" fill="none" xmlns="http://www.w3.org/2000/svg">
<g clip-path="url(#clip0_908_23318)">
<path d="M53.62 99.99C75.0873 99.99 92.49 82.5873 92.49 61.12C92.49 39.6527 75.0873 22.25 53.62 22.25C32.1527 22.25 14.75 39.6527 14.75 61.12C14.75 82.5873 32.1527 99.99 53.62 99.99Z" fill="#EF7F8D"/>
<path d="M6.40012 94.8901L4.32012 96.9701L6.40012 99.0501C6.62012 99.2701 6.62012 99.6201 6.40012 99.8401C6.18012 100.06 5.83012 100.06 5.61012 99.8401L3.53012 97.7601L1.45012 99.8401C1.23012 100.06 0.880117 100.06 0.660117 99.8401C0.440117 99.6201 0.440117 99.2701 0.660117 99.0501L2.74012 96.9701L0.660117 94.8901C0.440117 94.6701 0.440117 94.3201 0.660117 94.1001C0.770117 93.9901 0.910117 93.9401 1.05012 93.9401C1.19012 93.9401 1.33012 93.9901 1.44012 94.1001L3.52012 96.1801L5.60012 94.1001C5.82012 93.8801 6.17012 93.8801 6.39012 94.1001C6.50012 94.2101 6.55012 94.3501 6.55012 94.4901C6.56012 94.6401 6.51012 94.7801 6.40012 94.8901Z" fill="#FFC41F"/>
<path d="M42.07 0.950117L39.99 3.03012L42.07 5.11012C42.29 5.33012 42.29 5.68012 42.07 5.90012C41.85 6.12012 41.5 6.12012 41.28 5.90012L39.2 3.82012L37.12 5.90012C36.9 6.12012 36.55 6.12012 36.33 5.90012C36.11 5.68012 36.11 5.33012 36.33 5.11012L38.41 3.03012L36.33 0.950117C36.11 0.730117 36.11 0.380117 36.33 0.160117C36.44 0.0501172 36.58 0.00011719 36.73 0.00011719C36.87 0.00011719 37.01 0.0501172 37.12 0.160117L39.2 2.24012L41.28 0.160117C41.5 -0.0598828 41.85 -0.0598828 42.07 0.160117C42.18 0.270117 42.23 0.410117 42.23 0.550117C42.23 0.700117 42.18 0.840117 42.07 0.950117Z" fill="#FF7373"/>
<path d="M94.6001 44.3999C94.3801 44.6199 94.3801 44.9699 94.6001 45.1899C94.8201 45.4099 95.1701 45.4099 95.3901 45.1899L97.4701 43.1099L99.5501 45.1899C99.7701 45.4099 100.12 45.4099 100.34 45.1899C100.56 44.9699 100.56 44.6199 100.34 44.3999L98.2601 42.3199L100.34 40.2399C100.56 40.0199 100.56 39.6699 100.34 39.4499C100.23 39.3399 100.09 39.2899 99.9501 39.2899C99.8101 39.2899 99.6601 39.3499 99.5601 39.4499L97.4801 41.5299L95.4001 39.4499C95.1801 39.2299 94.8301 39.2299 94.6101 39.4499C94.5001 39.5599 94.4501 39.6999 94.4501 39.8399C94.4501 39.9799 94.5101 40.1199 94.6101 40.2299L96.6901 42.3099L94.6001 44.3999Z" fill="#FF7373"/>
<path d="M50.7002 57.96C41.1902 57.96 37.9302 69.09 37.7902 69.57C37.6402 70.1 37.9502 70.65 38.4802 70.8C39.0102 70.95 39.5602 70.64 39.7202 70.11C39.7502 70.01 42.7102 59.96 50.7102 59.96C58.5802 59.96 59.9702 69.56 60.0302 69.97C60.1002 70.52 60.6002 70.9 61.1502 70.83C61.7002 70.76 62.0802 70.25 62.0102 69.71C61.9802 69.6 60.3202 57.96 50.7002 57.96Z" fill="#474747"/>
<path d="M72.5102 44.1599C72.1602 44.1599 71.8302 44.3399 71.6402 44.6599C69.8002 47.8399 67.9602 49.4499 66.0302 49.4099C62.8202 49.3599 60.3202 44.7399 60.2902 44.6899C60.0302 44.1999 59.4202 44.0199 58.9402 44.2799C58.4502 44.5399 58.2702 45.1399 58.5302 45.6299C58.6502 45.8599 61.6102 51.3299 66.0002 51.4099C68.6502 51.4499 71.1602 49.5199 73.3802 45.6599C73.6602 45.1799 73.4902 44.5699 73.0102 44.2899C72.8502 44.1999 72.6802 44.1599 72.5102 44.1599Z" fill="#474747"/>
<path d="M42.4401 44.26C42.0901 44.26 41.7601 44.44 41.5701 44.76C39.7501 47.91 37.8801 49.51 36.0101 49.51C35.9901 49.51 35.9701 49.51 35.9601 49.51C32.7501 49.46 30.2501 44.84 30.2201 44.79C29.9601 44.3 29.3501 44.12 28.8701 44.38C28.3801 44.64 28.2001 45.24 28.4601 45.73C28.5801 45.96 31.5401 51.43 35.9301 51.51C35.9601 51.51 35.9901 51.51 36.0201 51.51C38.6601 51.51 41.1101 49.58 43.3101 45.76C43.5901 45.28 43.4201 44.67 42.9401 44.39C42.7901 44.31 42.6101 44.26 42.4401 44.26Z" fill="#474747"/>
<path d="M50.5299 92.0599C33.7699 92.0599 18.1599 81.3699 12.6999 64.5999C5.92986 43.7599 17.3699 21.2899 38.2199 14.5199C59.0599 7.74993 81.5299 19.1899 88.2999 40.0399C95.0699 60.8899 83.6299 83.3499 62.7799 90.1199C58.7199 91.4299 54.5899 92.0599 50.5299 92.0599ZM50.4699 14.3199C46.5899 14.3199 42.6399 14.9199 38.7599 16.1799C18.8399 22.6499 7.89986 44.1299 14.3699 64.0499C20.8399 83.9699 42.3199 94.9099 62.2399 88.4399C82.1599 81.9699 93.1099 60.4899 86.6299 40.5699C81.4199 24.5299 66.4899 14.3199 50.4699 14.3199Z" fill="#474747"/>
<path d="M9.94995 89.3501C9.77995 89.3501 9.59995 89.3001 9.44995 89.2001C9.18995 89.0201 9.03995 88.7101 9.06995 88.4001L11.6 61.4001C11.64 60.9201 12.08 60.5601 12.55 60.6101C13.03 60.6501 13.38 61.0801 13.34 61.5601L10.96 87.0001L31.09 77.0001C31.52 76.7901 32.05 76.9601 32.26 77.4001C32.47 77.8301 32.3 78.3601 31.87 78.5701L10.34 89.2501C10.22 89.3201 10.08 89.3501 9.94995 89.3501Z" fill="#474747"/>
<path d="M41.3057 77.5285C41.716 75.0884 39.7393 72.7221 36.8907 72.2432C34.0421 71.7643 31.4003 73.3541 30.9901 75.7942C30.5799 78.2343 32.5566 80.6006 35.4051 81.0795C38.2537 81.5584 40.8955 79.9686 41.3057 77.5285Z" fill="#474747"/>
<path d="M38.3101 79.3701C38.3101 79.3701 39.4001 79.9301 40.4401 81.7601C41.1801 83.0601 42.0201 83.2901 43.3201 82.5501C45.1601 81.5101 45.0001 76.8201 39.5101 76.8601L38.3101 79.3701Z" fill="#474747"/>
<path d="M39.1501 75.9502C39.1501 75.9502 44.8101 79.3502 49.0801 77.3202C52.1001 75.8902 51.3501 73.2302 48.9101 73.3002C46.4701 73.3802 40.1801 74.1502 40.1801 74.1502L39.1501 75.9502Z" fill="#474747"/>
<path d="M91.0501 89.3501C90.9201 89.3501 90.7801 89.3201 90.6601 89.2601L69.1301 78.5701C68.7001 78.3501 68.5201 77.8301 68.7301 77.4001C68.9401 76.9701 69.4701 76.7901 69.9001 77.0001L90.0201 86.9901L87.6401 61.5501C87.6001 61.0701 87.9501 60.6401 88.4301 60.6001C88.9101 60.5501 89.3401 60.9101 89.3801 61.3901L91.9101 88.3901C91.9401 88.7101 91.8001 89.0101 91.5301 89.1901C91.4001 89.2901 91.2201 89.3501 91.0501 89.3501Z" fill="#474747"/>
<path d="M65.5936 81.0825C68.4422 80.6036 70.4189 78.2373 70.0086 75.7972C69.5984 73.3571 66.9566 71.7672 64.108 72.2461C61.2594 72.7251 59.2828 75.0914 59.693 77.5315C60.1032 79.9716 62.745 81.5614 65.5936 81.0825Z" fill="#474747"/>
<path d="M62.69 79.3699C62.69 79.3699 61.6 79.9299 60.56 81.7599C59.82 83.0599 58.98 83.2899 57.68 82.5499C55.84 81.5099 56 76.8199 61.49 76.8599L62.69 79.3699Z" fill="#474747"/>
<path d="M61.85 75.9499C61.85 75.9499 56.19 79.3499 51.92 77.3199C48.9 75.8899 49.65 73.2299 52.09 73.2999C54.53 73.3799 60.82 74.1499 60.82 74.1499L61.85 75.9499Z" fill="#474747"/>
<path d="M15.4999 49L11.8899 46.99" stroke="#474747" stroke-width="1.25" stroke-miterlimit="10" stroke-linecap="round" stroke-linejoin="round"/>
<path d="M29.4999 26.9999L25.9099 22.3999" stroke="#474747" stroke-width="1.25" stroke-miterlimit="10" stroke-linecap="round" stroke-linejoin="round"/>
<path d="M40.6698 21L39.3398 15.22" stroke="#474747" stroke-width="1.25" stroke-miterlimit="10" stroke-linecap="round" stroke-linejoin="round"/>
<path d="M54.6699 20L55.2899 14.26" stroke="#474747" stroke-width="1.25" stroke-miterlimit="10" stroke-linecap="round" stroke-linejoin="round"/>
<path d="M66.6699 23.0001L69.5199 18.3901" stroke="#474747" stroke-width="1.25" stroke-miterlimit="10" stroke-linecap="round" stroke-linejoin="round"/>
<path d="M77.5 32.77L81.64 29.77" stroke="#474747" stroke-width="1.25" stroke-miterlimit="10" stroke-linecap="round" stroke-linejoin="round"/>
<path d="M84.4998 46L88.6598 45.51" stroke="#474747" stroke-width="1.25" stroke-miterlimit="10" stroke-linecap="round" stroke-linejoin="round"/>
<path d="M50.4999 21C65.4999 21 78.6999 30.58 83.3299 44.84C89.2099 62.93 79.2699 82.43 61.1799 88.31C57.7299 89.43 54.1499 90 50.5499 90C35.5499 90 22.3499 80.42 17.7199 66.16C14.8799 57.41 15.6199 48.07 19.8099 39.85C23.9999 31.63 31.1199 25.54 39.8699 22.7C43.3199 21.57 46.8899 21 50.4999 21ZM50.4999 19.5C46.8199 19.5 43.0799 20.07 39.3999 21.26C20.5199 27.4 10.1599 47.75 16.2899 66.62C21.2299 81.82 35.3699 91.5 50.5499 91.5C54.2299 91.5 57.9699 90.93 61.6499 89.74C80.5299 83.61 90.8899 63.26 84.7599 44.38C79.8199 29.18 65.6699 19.5 50.4999 19.5Z" fill="#474747"/>
<path d="M17.66 16.2101L22.73 30.2301C23.8 33.2001 22.27 36.4701 19.3 37.5401C16.33 38.6101 13.06 37.0801 11.99 34.1101C11.52 32.8101 11.55 31.4401 11.99 30.2301L17.06 16.2101C17.12 16.0401 17.3 15.9601 17.47 16.0201C17.56 16.0501 17.63 16.1301 17.66 16.2101Z" fill="#80B5E8"/>
</g>
<defs>
<clipPath id="clip0_908_23318">
<rect width="100" height="100" fill="white" transform="translate(0.5)"/>
</clipPath>
</defs>
</svg>
