<svg width="101" height="100" viewBox="0 0 101 100" fill="none" xmlns="http://www.w3.org/2000/svg">
<path d="M59.99 99.98C82.352 99.98 100.48 81.852 100.48 59.49C100.48 37.128 82.352 19 59.99 19C37.628 19 19.5 37.128 19.5 59.49C19.5 81.852 37.628 99.98 59.99 99.98Z" fill="#9CF27E"/>
<path d="M11.89 11.77V15.85H15.97C16.4 15.85 16.74 16.2 16.74 16.62C16.74 17.04 16.39 17.39 15.97 17.39H11.89V21.47C11.89 21.89 11.54 22.24 11.12 22.24C10.69 22.24 10.35 21.89 10.35 21.47V17.39H6.27C5.85 17.39 5.5 17.05 5.5 16.62C5.5 16.41 5.59 16.21 5.72 16.08C5.86 15.94 6.05 15.85 6.27 15.85H10.35V11.77C10.35 11.35 10.69 11 11.12 11C11.33 11 11.53 11.09 11.67 11.23C11.81 11.37 11.89 11.56 11.89 11.77Z" fill="#FFC41F"/>
<path d="M99.9399 14.51C100.25 14.51 100.5 14.76 100.5 15.07C100.5 15.38 100.25 15.63 99.9399 15.63H96.9999V18.57C96.9999 18.88 96.7499 19.13 96.4399 19.13C96.1299 19.13 95.8799 18.88 95.8799 18.57V15.63H92.9299C92.6199 15.63 92.3699 15.38 92.3699 15.07C92.3699 14.92 92.4299 14.78 92.5299 14.68C92.6299 14.58 92.7699 14.52 92.9199 14.52H95.8699V11.58C95.8699 11.27 96.1199 11.02 96.4299 11.02C96.5799 11.02 96.7199 11.08 96.8199 11.18C96.9199 11.28 96.9799 11.42 96.9799 11.57V14.51H99.9399Z" fill="#FFC41F"/>
<path d="M59.7698 0C57.6198 0 57.6098 3.34 59.7698 3.34C61.9198 3.34 61.9198 0 59.7698 0Z" fill="#FFC41F"/>
<path d="M94.5999 92.78C92.4499 92.78 92.4399 96.12 94.5999 96.12C96.7499 96.12 96.7499 92.78 94.5999 92.78Z" fill="#FF7373"/>
<path d="M55.8098 91.62C39.0498 91.62 23.4398 80.93 17.9798 64.16C11.2198 43.32 22.6598 20.85 43.4998 14.08C64.3398 7.30999 86.8098 18.75 93.5798 39.6C100.35 60.45 88.9098 82.9 68.0698 89.68C63.9998 91 59.8698 91.62 55.8098 91.62ZM55.7598 13.88C51.8798 13.88 47.9298 14.48 44.0498 15.74C24.1198 22.22 13.1798 43.7 19.6498 63.62C26.1198 83.54 47.5998 94.48 67.5198 88.01C87.4398 81.54 98.3898 60.06 91.9098 40.14C86.7098 24.1 71.7698 13.88 55.7598 13.88Z" fill="#474747"/>
<path d="M73.4001 46.0399C73.0501 46.0399 72.7201 45.8599 72.5301 45.5399C70.6901 42.3599 68.8501 40.7499 66.9201 40.7899C63.7101 40.8399 61.2101 45.4599 61.1801 45.5099C60.9201 45.9999 60.3101 46.1799 59.8301 45.9199C59.3401 45.6599 59.1601 45.0599 59.4201 44.5699C59.5401 44.3399 62.5001 38.8699 66.8901 38.7899C69.5401 38.7499 72.0501 40.6799 74.2701 44.5399C74.5501 45.0199 74.3801 45.6299 73.9001 45.9099C73.7401 45.9999 73.5701 46.0399 73.4001 46.0399Z" fill="#474747"/>
<path d="M51.5901 70.38C42.0801 70.38 38.8201 59.25 38.6801 58.77C38.5301 58.24 38.8401 57.69 39.3701 57.54C39.9001 57.39 40.4501 57.7 40.6101 58.23C40.6401 58.33 43.6001 68.38 51.6001 68.38C59.4701 68.38 60.8601 58.78 60.9201 58.37C60.9901 57.82 61.4901 57.44 62.0401 57.51C62.5901 57.58 62.9701 58.09 62.9001 58.63C62.8701 58.75 61.2201 70.38 51.5901 70.38Z" fill="#474747"/>
<path d="M43.34 45.9299C42.99 45.9299 42.66 45.7499 42.47 45.4299C40.65 42.2799 38.78 40.6799 36.91 40.6799C36.89 40.6799 36.87 40.6799 36.86 40.6799C33.65 40.7299 31.15 45.3499 31.12 45.3999C30.86 45.8899 30.25 46.0699 29.77 45.8099C29.28 45.5499 29.1 44.9499 29.36 44.4599C29.48 44.2299 32.44 38.7599 36.83 38.6799C36.86 38.6799 36.89 38.6799 36.92 38.6799C39.56 38.6799 42.01 40.6099 44.21 44.4299C44.49 44.9099 44.32 45.5199 43.84 45.7999C43.68 45.8899 43.51 45.9299 43.34 45.9299Z" fill="#474747"/>
<path d="M14.7799 89.6799C14.7299 89.6799 14.6699 89.6799 14.6199 89.6699C14.2799 89.6099 13.9899 89.3899 13.8599 89.0699L6.38993 71.1399C6.17993 70.6299 6.41993 70.0399 6.92993 69.8299C7.43993 69.6199 8.02993 69.8599 8.23993 70.3699L15.0899 86.8199L24.2199 76.4999C24.5899 76.0899 25.2199 76.0499 25.6299 76.4099C26.0399 76.7799 26.0799 77.4099 25.7199 77.8199L15.5299 89.3399C15.3399 89.5499 15.0599 89.6799 14.7799 89.6799Z" fill="#474747"/>
<path d="M11.768 67.4727C12.0612 64.5993 10.3035 62.0664 7.84212 61.8152C5.38075 61.5641 3.14775 63.6899 2.85458 66.5633C2.5614 69.4367 4.31906 71.9697 6.78043 72.2208C9.2418 72.472 11.4748 70.3462 11.768 67.4727Z" fill="#474747"/>
<path d="M4.57992 62.9901C4.57992 62.9901 4.32992 61.79 2.83992 60.3C1.77992 59.24 1.77992 58.3701 2.83992 57.3101C4.32992 55.8201 8.80992 57.2101 7.31992 62.4901L4.57992 62.9901Z" fill="#474747"/>
<path d="M6.76001 62.9899C6.76001 62.9899 7.57001 56.4399 11.8 54.3299C14.79 52.8399 16.42 55.0599 14.86 56.9399C13.3 58.8199 8.81001 63.2999 8.81001 63.2999L6.76001 62.9899Z" fill="#474747"/>
<path d="M6.69994 54.98C5.62994 55.01 4.73994 54.9 4.00994 54.72C3.46994 54.58 3.00994 54.41 2.62994 54.21C1.15994 53.46 0.759937 52.43 0.759937 52.43C0.169937 51.24 0.629937 49.81 1.78994 49.24C2.46994 48.9 3.24994 48.94 3.87994 49.27C3.95994 48.84 4.14994 48.44 4.43994 48.11C4.47994 48.07 4.51994 48.03 4.55994 47.99C4.71994 47.83 4.91994 47.69 5.12994 47.59C6.28994 47.02 7.69994 47.52 8.28994 48.71C9.63994 51.2 6.69994 54.98 6.69994 54.98Z" fill="#FF7373"/>
<path d="M71.04 21.44L74.4 17.99" stroke="#474747" stroke-width="1.5" stroke-miterlimit="10" stroke-linecap="round" stroke-linejoin="round"/>
<path d="M81.8799 30.68L85.6099 27.74" stroke="#474747" stroke-width="1.5" stroke-miterlimit="10" stroke-linecap="round" stroke-linejoin="round"/>
<path d="M87 42.4999L92.78 41.1699" stroke="#474747" stroke-width="1.5" stroke-miterlimit="10" stroke-linecap="round" stroke-linejoin="round"/>
<path d="M88 56.5L93.74 57.12" stroke="#474747" stroke-width="1.5" stroke-miterlimit="10" stroke-linecap="round" stroke-linejoin="round"/>
<path d="M84.04 67.4399L89.61 71.3399" stroke="#474747" stroke-width="1.5" stroke-miterlimit="10" stroke-linecap="round" stroke-linejoin="round"/>
<path d="M74.9299 79.25L78.4999 83.56" stroke="#474747" stroke-width="1.5" stroke-miterlimit="10" stroke-linecap="round" stroke-linejoin="round"/>
<path d="M63.4299 85.1399L65.2099 89.4399" stroke="#474747" stroke-width="1.5" stroke-miterlimit="10" stroke-linecap="round" stroke-linejoin="round"/>
</svg>
