<svg width="33" height="33" viewBox="0 0 33 33" fill="none" xmlns="http://www.w3.org/2000/svg">
<path fill-rule="evenodd" clip-rule="evenodd" d="M18.4018 8.72272L10.8333 1.15426C9.76701 0.0879264 8.00173 0.066932 6.95639 1.15426C5.94254 2.20661 5.95479 3.88178 6.99313 4.91925L14.5992 12.5253C15.6489 13.5759 17.3521 13.5759 18.4018 12.5253C19.4524 11.4756 19.4524 9.77244 18.4018 8.72272Z" fill="#00A500"/>
<path fill-rule="evenodd" clip-rule="evenodd" d="M26.0081 27.7381L18.4021 20.1321C17.3515 19.0815 15.6492 19.0815 14.5995 20.1321C13.5489 21.1818 13.5489 22.8849 14.5995 23.9347L22.2047 31.5407C23.2553 32.5913 24.9576 32.5913 26.0081 31.5407C27.0579 30.491 27.0579 28.7879 26.0081 27.7381Z" fill="#00A500"/>
<path fill-rule="evenodd" clip-rule="evenodd" d="M27.9092 6.82109L20.3031 14.4272C19.2525 15.4778 19.2525 17.18 20.3031 18.2298C21.3537 19.2804 23.056 19.2804 24.1066 18.2298L31.7126 10.6246C32.7623 9.57397 32.7623 7.8708 31.7126 6.82109C30.662 5.77049 28.9597 5.77049 27.9092 6.82109Z" fill="#00A500"/>
<path fill-rule="evenodd" clip-rule="evenodd" d="M5.09076 25.8367L12.6968 18.2306C13.7474 17.18 13.7474 15.4777 12.6968 14.4271C11.6471 13.3774 9.94395 13.3774 8.89424 14.4271L1.28729 22.0332C0.237571 23.0838 0.237571 24.7861 1.28729 25.8367C2.33788 26.8864 4.04017 26.8864 5.09076 25.8367Z" fill="#00A500"/>
<path fill-rule="evenodd" clip-rule="evenodd" d="M8.89402 18.2303L1.28794 10.6242C0.237352 9.57364 0.237352 7.87135 1.28794 6.82164C2.33766 5.77104 4.04083 5.77104 5.09054 6.82164L12.7106 14.4408C13.7533 15.4836 13.7533 17.1736 12.7106 18.2163L8.89402 22.0338C9.94461 20.9832 9.94461 19.2809 8.89402 18.2303Z" fill="#00BE00"/>
<path fill-rule="evenodd" clip-rule="evenodd" d="M22.2048 23.935L18.3882 20.1184C17.3455 19.0757 15.6546 19.0757 14.6119 20.1184L6.99269 27.7376C5.9421 28.7882 5.94298 30.4905 6.99269 31.5411C8.04329 32.5917 9.74558 32.5917 10.7962 31.5411L18.4014 23.935C19.452 22.8844 21.1543 22.8844 22.2048 23.935Z" fill="#00BE00"/>
<path fill-rule="evenodd" clip-rule="evenodd" d="M24.1064 14.4271L31.7125 22.0332C32.7631 23.0838 32.7631 24.7861 31.7125 25.8358C30.6628 26.8864 28.9596 26.8864 27.9099 25.8358L20.2899 18.2166C19.2471 17.1739 19.2471 15.4838 20.2899 14.4411L24.1064 10.6245C23.0559 11.6742 23.0559 13.3765 24.1064 14.4271Z" fill="#00BE00"/>
<path fill-rule="evenodd" clip-rule="evenodd" d="M26.008 1.11639C24.9575 0.0666722 23.2552 0.0666722 22.2046 1.11639L14.5994 8.72246C13.5488 9.77306 11.8465 9.77306 10.7959 8.72246L14.6125 12.5391C15.6552 13.5818 17.3453 13.5818 18.3889 12.5391L26.008 4.91986C27.0586 3.86927 27.0578 2.16698 26.008 1.11639Z" fill="#00BE00"/>
</svg>
