<svg width="37" height="36" viewBox="0 0 37 36" fill="none" xmlns="http://www.w3.org/2000/svg">
<g clip-path="url(#clip0_1815_2932)">
<path d="M22.019 35.9996H6.881C3.353 35.9996 0.5 33.1466 0.5 29.6186V18.9806C0.5 15.4526 3.353 12.5996 6.881 12.5996H22.019C25.547 12.5996 28.4 15.4526 28.4 18.9806V29.6186C28.4 33.1466 25.547 35.9996 22.019 35.9996Z" fill="#A3E2A6"/>
<path d="M28.3372 31.4907H13.4962C13.0282 31.4907 12.6142 31.1937 12.4522 30.7707C12.2902 30.3297 12.4252 29.8437 12.7762 29.5557C13.1272 29.2587 13.4512 28.8807 13.6852 28.4667C14.1532 27.7197 14.3872 26.8647 14.3872 26.0007C14.3872 23.3727 12.2452 21.2307 9.61723 21.2307C8.52823 21.2307 7.50223 21.5997 6.63823 22.2837C6.29623 22.5447 5.86423 22.5897 5.47723 22.4187C5.09923 22.2387 4.86523 21.8427 4.86523 21.4197V15.0027C4.86523 11.3487 7.82623 8.3877 11.4802 8.3877H28.3282C31.9822 8.3877 34.9432 11.3487 34.9432 15.0027V17.1177C34.9432 17.7207 34.4482 18.2157 33.8452 18.2157H30.8842C30.3712 18.2157 29.9032 18.4047 29.5612 18.7557L29.5432 18.7737C29.1292 19.1697 28.9402 19.7097 28.9852 20.2677C29.0752 21.2397 30.0022 22.0137 31.0552 22.0137H33.8452C34.4482 22.0137 34.9432 22.5087 34.9432 23.1117V24.8577C34.9612 28.5207 31.9912 31.4907 28.3372 31.4907ZM15.7732 29.2857H28.3372C30.7762 29.2857 32.7562 27.3057 32.7562 24.8667V24.2187H31.0642C28.8502 24.2187 26.9692 22.5717 26.7892 20.4657C26.6722 19.2597 27.1132 18.0717 27.9952 17.2077C28.7602 16.4337 29.7862 16.0017 30.8842 16.0017H32.7472V14.9847C32.7472 12.5457 30.7672 10.5657 28.3282 10.5657H11.4892C9.05023 10.5657 7.07023 12.5457 7.07023 14.9847V19.5027C7.88923 19.1787 8.76223 19.0077 9.63523 19.0077C13.4782 19.0077 16.6102 22.1307 16.6102 25.9827C16.6102 27.1437 16.3222 28.2867 15.7732 29.2857Z" fill="#3B3D3F"/>
<path d="M5.973 17.4149C5.37 17.4149 4.875 16.9199 4.875 16.3169V9.61188C4.875 7.42488 6.252 5.44488 8.295 4.66188L19.941 0.251881C21.129 -0.207119 22.479 -0.045119 23.523 0.692881C24.576 1.43088 25.197 2.61888 25.197 3.89688V9.47688C25.197 10.0799 24.702 10.5749 24.099 10.5749C23.496 10.5749 23.001 10.0709 23.001 9.46788V3.88788C23.001 3.32988 22.74 2.81688 22.263 2.49288C21.786 2.16888 21.237 2.09688 20.706 2.30388L9.051 6.71388C7.863 7.17288 7.053 8.32488 7.053 9.60288V16.3079C7.071 16.9289 6.576 17.4149 5.973 17.4149Z" fill="#3B3D3F"/>
<path d="M31.0748 24.219C28.8608 24.219 26.9798 22.572 26.7998 20.466C26.6828 19.251 27.1238 18.063 28.0058 17.19C28.7528 16.425 29.7788 16.002 30.8858 16.002H33.9368C35.3858 16.047 36.5018 17.19 36.5018 18.603V21.627C36.5018 23.04 35.3858 24.183 33.9818 24.228H31.0748V24.219ZM33.9008 18.207H30.8948C30.3818 18.207 29.9138 18.396 29.5718 18.747C29.1488 19.161 28.9418 19.719 28.9958 20.277C29.0858 21.249 30.0128 22.023 31.0658 22.023H33.9458C34.1348 22.023 34.3148 21.843 34.3148 21.627V18.603C34.3148 18.378 34.1348 18.216 33.9008 18.207Z" fill="#3B3D3F"/>
<path d="M22.8475 16.8122H12.5785C11.9755 16.8122 11.4805 16.3172 11.4805 15.7142C11.4805 15.1112 11.9755 14.6162 12.5785 14.6162H22.8565C23.4595 14.6162 23.9545 15.1112 23.9545 15.7142C23.9545 16.3172 23.4505 16.8122 22.8475 16.8122Z" fill="#3B3D3F"/>
<path d="M9.64492 32.9578C7.20592 32.9578 4.91992 31.6618 3.68692 29.5648C3.02992 28.5118 2.66992 27.2608 2.66992 25.9828C2.66992 23.8408 3.62392 21.8608 5.27992 20.5378C6.51292 19.5568 8.06992 19.0078 9.63592 19.0078C13.4789 19.0078 16.6109 22.1308 16.6109 25.9828C16.6109 27.2608 16.2599 28.5028 15.5939 29.5828C15.2429 30.1948 14.7569 30.7528 14.1989 31.2298C12.9839 32.3368 11.3549 32.9578 9.64492 32.9578ZM9.64492 21.2128C8.55592 21.2128 7.52992 21.5818 6.66592 22.2658C5.53192 23.1568 4.87492 24.5248 4.87492 25.9828C4.87492 26.8468 5.10892 27.7018 5.56792 28.4308C6.43192 29.8978 7.96192 30.7528 9.64492 30.7528C10.8059 30.7528 11.9219 30.3298 12.7679 29.5648C13.1459 29.2408 13.4699 28.8628 13.7039 28.4488C14.1719 27.7018 14.4059 26.8468 14.4059 25.9828C14.4149 23.3548 12.2639 21.2128 9.64492 21.2128Z" fill="#3B3D3F"/>
<path d="M11.8318 27.0534H7.4398C6.8368 27.0534 6.3418 26.5584 6.3418 25.9554C6.3418 25.3524 6.8368 24.8574 7.4398 24.8574H11.8318C12.4348 24.8574 12.9298 25.3524 12.9298 25.9554C12.9298 26.5584 12.4438 27.0534 11.8318 27.0534Z" fill="#3B3D3F"/>
<path d="M9.64488 29.3038C9.04188 29.3038 8.54688 28.8088 8.54688 28.2058V23.8138C8.54688 23.2108 9.04188 22.7158 9.64488 22.7158C10.2479 22.7158 10.7429 23.2108 10.7429 23.8138V28.2058C10.7429 28.8178 10.2389 29.3038 9.64488 29.3038Z" fill="#3B3D3F"/>
</g>
<defs>
<clipPath id="clip0_1815_2932">
<rect width="36" height="36" fill="white" transform="translate(0.5)"/>
</clipPath>
</defs>
</svg>
