<svg width="24" height="24" viewBox="0 0 24 24" fill="none" xmlns="http://www.w3.org/2000/svg">
<path d="M14.1995 9.2852C14.1995 9.72871 14.1995 10.1367 14.1995 10.5637C14.1187 10.5637 14.0469 10.5637 13.9752 10.5637C12.9866 10.5637 11.9981 10.5616 11.0096 10.5653C10.6679 10.5669 10.4007 10.8067 10.3638 11.1266C10.3268 11.4454 10.5421 11.7478 10.865 11.8184C10.9485 11.8364 11.0374 11.8327 11.1236 11.8348C11.6104 11.8449 12.1036 11.8078 12.5829 11.8725C13.566 12.0046 14.2397 12.846 14.206 13.8248C14.1733 14.7717 13.4172 15.551 12.4399 15.6439C12.3944 15.6481 12.3489 15.6513 12.2905 15.6561C12.2905 16.072 12.2905 16.4805 12.2905 16.9049C11.861 16.9049 11.4444 16.9049 11.0058 16.9049C11.0058 16.4969 11.0058 16.0837 11.0058 15.6492C10.6728 15.6492 10.3611 15.6492 10.0494 15.6492C9.73564 15.6492 9.42184 15.6492 9.09251 15.6492C9.09251 15.2301 9.09251 14.8174 9.09251 14.3781C9.15891 14.3781 9.22906 14.3781 9.29975 14.3781C10.2883 14.3781 11.2768 14.3797 12.2653 14.377C12.5764 14.376 12.8099 14.2014 12.8961 13.9208C12.9765 13.6603 12.8844 13.3701 12.6445 13.2269C12.5304 13.159 12.3842 13.1171 12.2509 13.1123C11.8171 13.098 11.3828 13.1139 10.9485 13.1043C9.99804 13.0821 9.23013 12.3844 9.08983 11.4237C8.96399 10.5621 9.52626 9.67725 10.3884 9.39661C10.5769 9.33507 10.7772 9.31067 10.9962 9.26398C10.9962 8.87194 10.9962 8.45867 10.9962 8.0332C11.4326 8.0332 11.8487 8.0332 12.2803 8.0332C12.2803 8.44806 12.2803 8.85602 12.2803 9.2852C12.9245 9.2852 13.5548 9.2852 14.1995 9.2852Z" fill="#929292"/>
<path d="M19.505 8.87156C19.9899 9.94967 20.2597 11.1455 20.2597 12.4043C20.2597 17.1656 16.3999 21.0254 11.6387 21.0254C6.87736 21.0254 3.01758 17.1656 3.01758 12.4043C3.01758 7.64299 6.87736 3.7832 11.6387 3.7832C12.8082 3.7832 13.9234 4.0161 14.9403 4.43804" stroke="#929292" stroke-width="1.75"/>
<ellipse cx="18.0195" cy="6.00846" rx="3.13669" ry="3.1149" stroke="#929292" stroke-width="1.75"/>
</svg>
