<svg width="24" height="24" viewBox="0 0 24 24" fill="none" xmlns="http://www.w3.org/2000/svg">
<path d="M6.09125 6.97483L2.18325 3.06808C2.12516 3.00998 2.07907 2.94101 2.04763 2.8651C2.01618 2.78919 2 2.70783 2 2.62567C2 2.5435 2.01618 2.46215 2.04763 2.38624C2.07907 2.31033 2.12516 2.24135 2.18325 2.18325C2.24135 2.12516 2.31033 2.07907 2.38624 2.04763C2.46215 2.01618 2.5435 2 2.62567 2C2.70783 2 2.78919 2.01618 2.8651 2.04763C2.94101 2.07907 3.00998 2.12516 3.06808 2.18325L21.8145 20.9296C21.9318 21.047 21.9977 21.2061 21.9977 21.372C21.9977 21.538 21.9318 21.6971 21.8145 21.8145C21.6971 21.9318 21.538 21.9977 21.372 21.9977C21.2061 21.9977 21.047 21.9318 20.9296 21.8145L14.3209 15.2032L8.06712 21.5883C7.1248 22.5656 5.49386 21.6632 5.8238 20.3435L7.28602 14.4959H5.70007C5.49462 14.4959 5.29198 14.4482 5.1081 14.3565C4.92422 14.2649 4.76413 14.1318 4.64043 13.9677C4.51674 13.8037 4.43281 13.6132 4.39527 13.4112C4.35772 13.2092 4.36758 13.0012 4.42407 12.8037L6.09125 6.97483ZM13.4373 14.3209L7.10105 7.98463L5.62634 13.1461C5.61384 13.1961 5.65008 13.2461 5.70132 13.2461H8.08711C8.18217 13.2461 8.27597 13.2678 8.36139 13.3095C8.44681 13.3512 8.52159 13.4118 8.58003 13.4868C8.63848 13.5617 8.67906 13.649 8.69868 13.742C8.7183 13.835 8.71644 13.9313 8.69325 14.0235L7.03732 20.6472C7.03401 20.659 7.03275 20.6712 7.03357 20.6834C7.03346 20.6883 7.03476 20.6931 7.03732 20.6972C7.04637 20.7129 7.05953 20.7258 7.07538 20.7346C7.09123 20.7435 7.10918 20.7478 7.1273 20.7472C7.13173 20.7463 7.13597 20.7446 7.1398 20.7422C7.15102 20.7365 7.16117 20.7289 7.16979 20.7197L7.17354 20.7147L13.4386 14.3209H13.4373ZM18.0152 9.64681L15.1857 12.535L16.0693 13.4186L18.9113 10.5191L18.915 10.5129C19.7161 9.67931 19.14 8.24958 17.9577 8.24958H14.7533L16.3293 3.75795L16.333 3.74795C16.3996 3.54838 16.4177 3.33584 16.386 3.12786C16.3543 2.91989 16.2736 2.72244 16.1505 2.55179C16.0275 2.38114 15.8656 2.24219 15.6783 2.14638C15.491 2.05058 15.2836 2.00068 15.0733 2.00079H8.51328C7.9209 2.00079 7.39975 2.39321 7.23728 2.9631L6.87485 4.22536L7.8859 5.23641L8.43705 3.30679C8.44174 3.2903 8.45177 3.27584 8.46557 3.26566C8.47936 3.25548 8.49614 3.25017 8.51328 3.25055H15.0745C15.1258 3.25055 15.162 3.30054 15.1482 3.35053L13.2824 8.667C13.2492 8.76127 13.2391 8.86211 13.2529 8.96108C13.2668 9.06005 13.3042 9.15425 13.362 9.23578C13.4198 9.31731 13.4962 9.3838 13.585 9.42966C13.6738 9.47552 13.7723 9.49941 13.8722 9.49934H17.9577C17.9802 9.49934 17.9902 9.50434 17.9964 9.50934C18.0105 9.52041 18.0213 9.5351 18.0277 9.55183C18.0355 9.56904 18.0385 9.58804 18.0364 9.60682C18.034 9.62214 18.0265 9.6362 18.0152 9.64681Z" fill="white"/>
</svg>
