<svg width="119" height="16" viewBox="0 0 119 16" fill="none" xmlns="http://www.w3.org/2000/svg">
<path d="M1.84159 12V3.12H5.00959C5.68959 3.12 6.25359 3.26 6.70159 3.54C7.15759 3.82 7.49759 4.184 7.72159 4.632C7.95359 5.072 8.06959 5.532 8.06959 6.012C8.06959 6.5 7.95359 6.968 7.72159 7.416C7.49759 7.856 7.15759 8.22 6.70159 8.508C6.25359 8.788 5.68959 8.928 5.00959 8.928H3.01759V12H1.84159ZM5.00959 4.152H3.01759V7.896H5.00959C5.43359 7.896 5.78559 7.804 6.06559 7.62C6.34559 7.436 6.55359 7.204 6.68959 6.924C6.83359 6.636 6.90559 6.336 6.90559 6.024C6.90559 5.712 6.83359 5.412 6.68959 5.124C6.55359 4.836 6.34559 4.604 6.06559 4.428C5.78559 4.244 5.43359 4.152 5.00959 4.152ZM12.2219 12.12C11.5419 12.12 10.9699 11.964 10.5059 11.652C10.0419 11.332 9.68987 10.92 9.44987 10.416C9.20987 9.912 9.08987 9.38 9.08987 8.82C9.08987 8.252 9.20987 7.72 9.44987 7.224C9.68987 6.72 10.0419 6.312 10.5059 6C10.9699 5.68 11.5419 5.52 12.2219 5.52C12.9019 5.52 13.4739 5.68 13.9379 6C14.4019 6.312 14.7539 6.72 14.9939 7.224C15.2339 7.72 15.3539 8.252 15.3539 8.82C15.3539 9.38 15.2339 9.912 14.9939 10.416C14.7539 10.92 14.4019 11.332 13.9379 11.652C13.4739 11.964 12.9019 12.12 12.2219 12.12ZM12.2219 11.124C12.6539 11.124 13.0139 11.016 13.3019 10.8C13.5979 10.576 13.8179 10.288 13.9619 9.936C14.1139 9.584 14.1899 9.212 14.1899 8.82C14.1899 8.42 14.1139 8.048 13.9619 7.704C13.8179 7.352 13.5979 7.068 13.3019 6.852C13.0139 6.628 12.6539 6.516 12.2219 6.516C11.7979 6.516 11.4379 6.628 11.1419 6.852C10.8459 7.068 10.6219 7.352 10.4699 7.704C10.3259 8.048 10.2539 8.42 10.2539 8.82C10.2539 9.212 10.3259 9.584 10.4699 9.936C10.6219 10.288 10.8459 10.576 11.1419 10.8C11.4379 11.016 11.7979 11.124 12.2219 11.124ZM18.3067 12L16.2547 5.64H17.4187L18.9307 10.464L20.5147 5.64H21.5947L23.1667 10.464L24.6907 5.64H25.8547L23.7907 12H22.5667L21.0547 7.308L19.5427 12H18.3067ZM29.7737 12.12C29.2537 12.12 28.8017 12.028 28.4177 11.844C28.0417 11.652 27.7297 11.396 27.4817 11.076C27.2417 10.756 27.0617 10.404 26.9417 10.02C26.8217 9.628 26.7617 9.228 26.7617 8.82C26.7617 8.42 26.8177 8.024 26.9297 7.632C27.0497 7.24 27.2297 6.884 27.4697 6.564C27.7177 6.244 28.0257 5.992 28.3937 5.808C28.7697 5.616 29.2137 5.52 29.7257 5.52C30.2697 5.52 30.7497 5.644 31.1657 5.892C31.5817 6.14 31.9097 6.508 32.1497 6.996C32.3897 7.484 32.5097 8.096 32.5097 8.832V9.168H27.9137C27.9377 9.528 28.0217 9.86 28.1657 10.164C28.3177 10.46 28.5297 10.7 28.8017 10.884C29.0737 11.06 29.3977 11.148 29.7737 11.148C30.1017 11.148 30.3657 11.096 30.5657 10.992C30.7737 10.88 30.9377 10.752 31.0577 10.608C31.1777 10.464 31.2577 10.34 31.2977 10.236C31.3457 10.124 31.3697 10.068 31.3697 10.068H32.4377C32.4377 10.068 32.4177 10.14 32.3777 10.284C32.3377 10.42 32.2657 10.588 32.1617 10.788C32.0577 10.988 31.9057 11.192 31.7057 11.4C31.5057 11.6 31.2497 11.772 30.9377 11.916C30.6257 12.052 30.2377 12.12 29.7737 12.12ZM27.9257 8.28H31.3937C31.3777 7.864 31.2897 7.528 31.1297 7.272C30.9697 7.008 30.7657 6.812 30.5177 6.684C30.2697 6.556 30.0057 6.492 29.7257 6.492C29.2217 6.492 28.8097 6.656 28.4897 6.984C28.1697 7.304 27.9817 7.736 27.9257 8.28ZM34.0653 12V5.64H35.2053V6.432H35.2533C35.3893 6.192 35.5893 5.98 35.8533 5.796C36.1173 5.612 36.4893 5.52 36.9693 5.52C37.1053 5.52 37.2293 5.528 37.3413 5.544C37.4533 5.552 37.5093 5.556 37.5093 5.556V6.648C37.5093 6.648 37.4453 6.644 37.3173 6.636C37.1973 6.62 37.0693 6.612 36.9333 6.612C36.3813 6.612 35.9533 6.772 35.6493 7.092C35.3533 7.404 35.2053 7.916 35.2053 8.628V12H34.0653ZM41.1761 12.12C40.6561 12.12 40.2041 12.028 39.8201 11.844C39.4441 11.652 39.1321 11.396 38.8841 11.076C38.6441 10.756 38.4641 10.404 38.3441 10.02C38.2241 9.628 38.1641 9.228 38.1641 8.82C38.1641 8.42 38.2201 8.024 38.3321 7.632C38.4521 7.24 38.6321 6.884 38.8721 6.564C39.1201 6.244 39.4281 5.992 39.7961 5.808C40.1721 5.616 40.6161 5.52 41.1281 5.52C41.6721 5.52 42.1521 5.644 42.5681 5.892C42.9841 6.14 43.3121 6.508 43.5521 6.996C43.7921 7.484 43.9121 8.096 43.9121 8.832V9.168H39.3161C39.3401 9.528 39.4241 9.86 39.5681 10.164C39.7201 10.46 39.9321 10.7 40.2041 10.884C40.4761 11.06 40.8001 11.148 41.1761 11.148C41.5041 11.148 41.7681 11.096 41.9681 10.992C42.1761 10.88 42.3401 10.752 42.4601 10.608C42.5801 10.464 42.6601 10.34 42.7001 10.236C42.7481 10.124 42.7721 10.068 42.7721 10.068H43.8401C43.8401 10.068 43.8201 10.14 43.7801 10.284C43.7401 10.42 43.6681 10.588 43.5641 10.788C43.4601 10.988 43.3081 11.192 43.1081 11.4C42.9081 11.6 42.6521 11.772 42.3401 11.916C42.0281 12.052 41.6401 12.12 41.1761 12.12ZM39.3281 8.28H42.7961C42.7801 7.864 42.6921 7.528 42.5321 7.272C42.3721 7.008 42.1681 6.812 41.9201 6.684C41.6721 6.556 41.4081 6.492 41.1281 6.492C40.6241 6.492 40.2121 6.656 39.8921 6.984C39.5721 7.304 39.3841 7.736 39.3281 8.28ZM48.1691 12.12C47.6891 12.12 47.2691 12.028 46.9091 11.844C46.5491 11.652 46.2491 11.4 46.0091 11.088C45.7691 10.768 45.5891 10.412 45.4691 10.02C45.3491 9.628 45.2891 9.228 45.2891 8.82C45.2891 8.412 45.3491 8.012 45.4691 7.62C45.5891 7.228 45.7691 6.876 46.0091 6.564C46.2491 6.244 46.5491 5.992 46.9091 5.808C47.2691 5.616 47.6891 5.52 48.1691 5.52C48.5691 5.52 48.9051 5.584 49.1771 5.712C49.4491 5.84 49.6691 5.992 49.8371 6.168C50.0051 6.336 50.1331 6.496 50.2211 6.648H50.2931V2.88H51.4331V12H50.2931V10.992H50.2211C50.1331 11.144 50.0051 11.308 49.8371 11.484C49.6691 11.66 49.4491 11.812 49.1771 11.94C48.9051 12.06 48.5691 12.12 48.1691 12.12ZM48.3611 11.148C48.7851 11.148 49.1371 11.036 49.4171 10.812C49.7051 10.58 49.9171 10.288 50.0531 9.936C50.1971 9.576 50.2691 9.204 50.2691 8.82C50.2691 8.428 50.1971 8.056 50.0531 7.704C49.9171 7.352 49.7051 7.064 49.4171 6.84C49.1371 6.608 48.7851 6.492 48.3611 6.492C47.9371 6.492 47.5811 6.608 47.2931 6.84C47.0051 7.064 46.7891 7.352 46.6451 7.704C46.5091 8.056 46.4411 8.428 46.4411 8.82C46.4411 9.204 46.5091 9.576 46.6451 9.936C46.7891 10.288 47.0051 10.58 47.2931 10.812C47.5811 11.036 47.9371 11.148 48.3611 11.148ZM59.3868 12.12C58.9868 12.12 58.6508 12.056 58.3788 11.928C58.1068 11.8 57.8868 11.648 57.7188 11.472C57.5588 11.296 57.4308 11.136 57.3348 10.992H57.2628V12H56.1228V2.88H57.2628V6.648H57.3348C57.4308 6.496 57.5588 6.332 57.7188 6.156C57.8868 5.98 58.1068 5.832 58.3788 5.712C58.6508 5.584 58.9868 5.52 59.3868 5.52C59.8668 5.52 60.2868 5.616 60.6468 5.808C61.0068 5.992 61.3068 6.244 61.5468 6.564C61.7868 6.876 61.9668 7.228 62.0868 7.62C62.2068 8.012 62.2668 8.412 62.2668 8.82C62.2668 9.228 62.2068 9.628 62.0868 10.02C61.9668 10.412 61.7868 10.768 61.5468 11.088C61.3068 11.4 61.0068 11.652 60.6468 11.844C60.2868 12.028 59.8668 12.12 59.3868 12.12ZM59.1948 11.148C59.6268 11.148 59.9828 11.036 60.2628 10.812C60.5508 10.58 60.7628 10.288 60.8988 9.936C61.0428 9.576 61.1148 9.204 61.1148 8.82C61.1148 8.428 61.0428 8.056 60.8988 7.704C60.7628 7.352 60.5508 7.064 60.2628 6.84C59.9828 6.608 59.6268 6.492 59.1948 6.492C58.7708 6.492 58.4148 6.608 58.1268 6.84C57.8468 7.064 57.6348 7.352 57.4908 7.704C57.3548 8.056 57.2868 8.428 57.2868 8.82C57.2868 9.204 57.3548 9.576 57.4908 9.936C57.6348 10.288 57.8468 10.58 58.1268 10.812C58.4148 11.036 58.7708 11.148 59.1948 11.148ZM63.6491 14.34C63.4651 14.34 63.3091 14.332 63.1811 14.316C63.0531 14.3 62.9891 14.292 62.9891 14.292V13.32C62.9891 13.32 63.0531 13.324 63.1811 13.332C63.3171 13.348 63.4611 13.356 63.6131 13.356C64.0851 13.356 64.4691 13.256 64.7651 13.056C65.0691 12.864 65.3251 12.544 65.5331 12.096L63.0731 5.64H64.2611L66.0971 10.608L67.9451 5.64H69.1451L66.6851 12.012C66.3731 12.812 65.9691 13.4 65.4731 13.776C64.9851 14.152 64.3771 14.34 63.6491 14.34Z" fill="#929292"/>
<path fill-rule="evenodd" clip-rule="evenodd" d="M73.8816 11.732V2.84268C73.8816 2.38167 74.2571 2.00732 74.7206 2.00732L78.4031 2.00776C80.3131 2.00908 81.8754 3.53991 81.9173 5.43584C81.9611 7.3982 80.3246 8.99192 78.3532 8.99192H76.8846C76.7207 8.99192 76.5877 8.85952 76.5877 8.69632V7.84601C76.5877 7.38456 76.9637 7.01065 77.4272 7.01065H78.4018C79.3049 7.01065 80.0462 6.24436 79.9517 5.3505C79.8691 4.56837 79.2028 3.95692 78.3956 3.95692H75.8402C75.8397 3.95692 75.8397 3.95736 75.8397 3.95736V11.1606C75.8397 11.622 75.4642 11.9959 75.0003 11.9959H74.1467C74.0004 11.9959 73.8816 11.8781 73.8816 11.732ZM85.9219 6.75595C84.9539 6.76211 84.1666 7.55128 84.1666 8.51508C84.1666 9.47756 84.9548 10.2694 85.9232 10.2799H85.9396C86.7781 10.2799 87.5036 9.68607 87.6706 8.86524V8.16537C87.504 7.34761 86.7786 6.75595 85.9396 6.75595H85.9219ZM85.9215 12.1909C83.8551 12.1807 82.2473 10.5293 82.2473 8.51508C82.2473 6.50082 83.8953 4.8521 85.9201 4.83979H85.9396C86.6332 4.83979 87.3264 5.17982 87.6706 5.4178V5.12044C87.6706 5.04786 87.7298 4.98847 87.8027 4.98847H89.3623C89.5077 4.98847 89.6252 5.10592 89.6252 5.25065V11.7338C89.6252 11.8785 89.5077 11.9959 89.3623 11.9959H87.8027C87.7298 11.9959 87.6706 11.937 87.6706 11.864V11.6124C87.2341 11.8759 86.741 12.1948 85.9215 12.1909ZM93.9348 16.0001C92.8475 16.0001 91.83 15.5057 91.1598 14.6642C91.0634 14.5437 91.0988 14.3655 91.2309 14.285L91.8556 13.828C92.2524 13.586 92.7507 13.5499 93.1638 13.7629C93.3414 13.8544 93.5597 13.9608 93.8111 13.9621C94.9227 13.9687 95.6376 12.8514 95.3901 11.9408C95.0177 12.0842 94.6254 12.1568 94.2202 12.1568C93.6732 12.1568 93.132 12.0187 92.6549 11.7578C92.5298 11.6901 92.4074 11.6122 92.2912 11.5269C91.7323 11.1173 91.3122 10.5305 91.1081 9.87509C91.0109 9.56453 90.9618 9.24077 90.9618 8.91261V5.81841C90.9618 5.36137 91.3338 4.99142 91.7924 4.99142H92.6398C92.7839 4.99142 92.9009 5.10755 92.9009 5.25095V8.87302C92.9009 9.41233 93.2115 9.91688 93.7117 10.1245C93.8738 10.1918 94.0452 10.2261 94.2202 10.2261C94.298 10.2261 94.3775 10.2186 94.457 10.2046C95.0486 10.0981 95.4922 9.60588 95.5359 9.00851C95.5377 8.97684 95.5395 8.94472 95.5395 8.91261V5.81841C95.5395 5.36137 95.9115 4.99142 96.3701 4.99142H97.2175C97.3615 4.99142 97.4786 5.10755 97.4786 5.25095V12.3358C97.4786 14.2973 95.8889 16.0001 93.9348 16.0001Z" fill="#929292"/>
<path fill-rule="evenodd" clip-rule="evenodd" d="M117.854 2C118 2 118.118 2.11745 118.118 2.26262V3.68303C118.118 3.82819 118 3.94608 117.854 3.94608H112.964V10.0417H117.854C118 10.0417 118.118 10.1595 118.118 10.3047V11.1643C118.118 11.6195 117.748 11.9891 117.29 11.9891H111.25C111.104 11.9891 110.986 11.8712 110.986 11.726V2.82436C110.986 2.36907 111.356 2 111.814 2H117.854ZM117.854 6.00983C118 6.00983 118.118 6.12772 118.118 6.27245V7.13287C118.118 7.58772 117.748 7.95679 117.29 7.95679H113.975C113.829 7.95679 113.711 7.83934 113.711 7.69418V6.79812C113.711 6.36263 114.066 6.00983 114.503 6.00983H117.854Z" fill="#929292"/>
<path fill-rule="evenodd" clip-rule="evenodd" d="M107.607 2.00732C107.521 2.00732 107.44 2.04955 107.391 2.11994L104.859 5.7596C104.732 5.93996 104.463 5.9382 104.338 5.75564L101.893 2.1239C101.844 2.05131 101.762 2.00776 101.674 2.00776L99.9976 2.00732C99.8324 2.00732 99.6985 2.14061 99.6985 2.30513V11.692C99.6985 11.8565 99.8324 11.9898 99.9976 11.9898H100.84C101.276 11.9898 101.629 11.6383 101.629 11.2041V5.35314L104.057 8.71303C104.319 9.08518 104.873 9.08518 105.134 8.71303L107.562 5.35226V11.692C107.562 11.8565 107.697 11.9898 107.862 11.9898H108.704C109.14 11.9898 109.494 11.6383 109.494 11.2041V2.30513C109.494 2.14061 109.359 2.00732 109.194 2.00732H107.607Z" fill="#929292"/>
</svg>
