<svg width="40" height="40" viewBox="0 0 40 40" fill="none"
    xmlns="http://www.w3.org/2000/svg">
    <g id="Method/Bank">
        <path id="ic/CK-nganhang" fill-rule="evenodd" clip-rule="evenodd" d="M35.8824 31.3183C36.9886 31.3183 37.8994 32.1679 37.9922 33.2467L38 33.4285V35.8898C38 36.9922 37.1474 37.8998 36.0648 37.9922L35.8824 38H4.11757C3.01142 38 2.1006 37.1505 2.00779 36.0717L2 35.8898V33.4285C2 32.3261 2.85261 31.4186 3.93513 31.3261L4.11757 31.3183H35.8824ZM33.5865 17.5332C34.1527 17.5332 34.6118 17.9906 34.6118 18.5548V28.1866C34.6118 28.7511 34.1527 29.2083 33.5865 29.2083H29.0017C28.4355 29.2083 27.9764 28.7511 27.9764 28.1866V18.5548C27.9764 17.9906 28.4355 17.5332 29.0017 17.5332H33.5865ZM22.2923 17.5332C22.8585 17.5332 23.3176 17.9906 23.3176 18.5548V28.1866C23.3176 28.7511 22.8585 29.2083 22.2923 29.2083H17.7078C17.1415 29.2083 16.6824 28.7511 16.6824 28.1866V18.5548C16.6824 17.9906 17.1415 17.5332 17.7078 17.5332H22.2923ZM10.9984 17.5332C11.5646 17.5332 12.0237 17.9906 12.0237 18.5548V28.1866C12.0237 28.7511 11.5646 29.2083 10.9984 29.2083H6.41357C5.84733 29.2083 5.38824 28.7511 5.38824 28.1866V18.5548C5.38824 17.9906 5.84733 17.5332 6.41357 17.5332H10.9984ZM19.2059 2.15436C19.659 1.9729 20.1441 1.95334 20.5953 2.0856L36.673 8.62378C37.4216 8.92403 37.9242 9.60746 37.9921 10.3972L38 10.5812V13.3133C38 14.4154 37.1474 15.3232 36.0649 15.4157L35.8825 15.4234H4.11763C3.01148 15.4234 2.10066 14.5737 2.00784 13.4951L2.00006 13.3133V10.5812C2.00006 9.77675 2.44917 9.0573 3.1588 8.69974L3.32709 8.62378L19.2059 2.15436ZM19.8718 5.31066C19.0091 5.31066 18.2996 5.96389 18.2143 6.80105L18.2057 6.9708V10.5125C18.2057 11.4292 18.9516 12.1726 19.8718 12.1726C20.7346 12.1726 21.4441 11.5192 21.5294 10.6822L21.538 10.5125V6.9708C21.538 6.05389 20.7921 5.31066 19.8718 5.31066Z" fill="#33CB33"/>
    </g>
</svg>
