<svg width="140" height="240" viewBox="0 0 140 240" fill="none" xmlns="http://www.w3.org/2000/svg">
<rect width="140" height="240" rx="12" fill="#F7F7F8"/>
<rect x="8" y="48" width="124" height="45" rx="4" fill="#E8E9EB"/>
<rect x="8" y="101" width="124" height="29" rx="4" fill="#E8E9EB"/>
<rect x="8" y="138" width="124" height="54" rx="4" fill="#E8E9EB"/>
<rect x="8" y="200" width="124" height="24" rx="4" fill="#33CB33"/>
<path fill-rule="evenodd" clip-rule="evenodd" d="M39.8516 33.9431V21.6958C39.8516 21.0607 40.3667 20.5449 41.0025 20.5449L46.054 20.5455C48.674 20.5473 50.817 22.6564 50.8746 25.2686C50.9346 27.9722 48.6897 30.168 45.9855 30.168H43.971C43.7461 30.168 43.5637 29.9855 43.5637 29.7607V28.5892C43.5637 27.9534 44.0794 27.4383 44.7152 27.4383H46.0522C47.291 27.4383 48.3079 26.3825 48.1782 25.151C48.0649 24.0734 47.151 23.231 46.0437 23.231H42.5382C42.5376 23.231 42.5376 23.2316 42.5376 23.2316V33.1558C42.5376 33.7916 42.0225 34.3067 41.3861 34.3067H40.2152C40.0146 34.3067 39.8516 34.1443 39.8516 33.9431ZM56.3679 27.0873C55.04 27.0958 53.96 28.1831 53.96 29.511C53.96 30.837 55.0412 31.928 56.3697 31.9425H56.3921C57.5424 31.9425 58.5376 31.1243 58.7667 29.9934V29.0292C58.5382 27.9025 57.543 27.0873 56.3921 27.0873H56.3679ZM56.3673 34.5752C53.5327 34.5613 51.3273 32.2861 51.3273 29.511C51.3273 26.7358 53.5879 24.4643 56.3654 24.4473H56.3921C57.3436 24.4473 58.2945 24.9158 58.7667 25.2437V24.834C58.7667 24.734 58.8479 24.6522 58.9479 24.6522H61.0873C61.2867 24.6522 61.4479 24.814 61.4479 25.0134V33.9455C61.4479 34.1449 61.2867 34.3067 61.0873 34.3067H58.9479C58.8479 34.3067 58.7667 34.2255 58.7667 34.1249V33.7783L58.696 33.8212C58.1143 34.175 57.4475 34.5805 56.3673 34.5752ZM63.5529 37.9829C64.4723 39.1423 65.868 39.8235 67.3596 39.8235C70.0402 39.8235 72.2208 37.4775 72.2208 34.775V25.0138C72.2208 24.8163 72.0602 24.6563 71.8626 24.6563H70.7002C70.0711 24.6563 69.5608 25.166 69.5608 25.7956V30.0587C69.5608 30.1029 69.5583 30.1472 69.5559 30.1908C69.4959 31.0138 68.8874 31.692 68.0759 31.8387C67.9668 31.8581 67.8577 31.8684 67.7511 31.8684C67.5111 31.8684 67.2759 31.8211 67.0535 31.7284C66.3674 31.4423 65.9414 30.7472 65.9414 30.0041V25.0138C65.9414 24.8163 65.7808 24.6563 65.5832 24.6563H64.4208C63.7917 24.6563 63.2814 25.166 63.2814 25.7956V30.0587C63.2814 30.5108 63.3487 30.9569 63.482 31.3847C63.762 32.2878 64.3384 33.0963 65.105 33.6605C65.2644 33.7781 65.4323 33.8853 65.6038 33.9787C66.2584 34.3381 67.0008 34.5284 67.7511 34.5284C68.3068 34.5284 68.845 34.4284 69.3559 34.2308C69.6953 35.4853 68.7147 37.0247 67.1899 37.0156C66.845 37.0138 66.5456 36.8672 66.302 36.7411C65.7353 36.4478 65.0517 36.4975 64.5074 36.8308L63.6505 37.4605C63.4693 37.5714 63.4208 37.8169 63.5529 37.9829Z" fill="#000030"/>
<path fill-rule="evenodd" clip-rule="evenodd" d="M100.174 31.6155H93.4653V23.2173H100.174C100.374 23.2173 100.536 23.0549 100.536 22.8549V20.898C100.536 20.698 100.374 20.5361 100.174 20.5361H91.8883C91.2604 20.5361 90.752 21.0446 90.752 21.6719V33.9361C90.752 34.1361 90.9144 34.2986 91.1144 34.2986H99.3998C100.028 34.2986 100.536 33.7895 100.536 33.1622V31.978C100.536 31.778 100.374 31.6155 100.174 31.6155ZM100.174 26.0607H95.5773C94.9767 26.0607 94.4907 26.5467 94.4907 27.1467V28.3813C94.4907 28.5813 94.6525 28.7431 94.8525 28.7431H99.4004C100.028 28.7431 100.536 28.2346 100.536 27.608V26.4225C100.536 26.2231 100.374 26.0607 100.174 26.0607Z" fill="#33CB33"/>
<path fill-rule="evenodd" clip-rule="evenodd" d="M86.1147 20.5449C85.9965 20.5449 85.8856 20.6031 85.8184 20.7001L82.3444 25.7146C82.1699 25.9631 81.8008 25.9607 81.6299 25.7092L78.2753 20.7055C78.2087 20.6055 78.0965 20.5455 77.9759 20.5455L75.6759 20.5449C75.4493 20.5449 75.2656 20.7286 75.2656 20.9552V33.888C75.2656 34.1146 75.4493 34.2983 75.6759 34.2983H76.8317C77.4293 34.2983 77.9141 33.814 77.9141 33.2158V25.1546L81.2444 29.7837C81.6032 30.2964 82.3632 30.2964 82.722 29.7837L86.0529 25.1534V33.888C86.0529 34.1146 86.2371 34.2983 86.4638 34.2983H87.6196C88.2171 34.2983 88.702 33.814 88.702 33.2158V20.9552C88.702 20.7286 88.5177 20.5449 88.2911 20.5449H86.1147Z" fill="#33CB33"/>
</svg>
