<svg width="41" height="40" viewBox="0 0 41 40" fill="none" xmlns="http://www.w3.org/2000/svg">
<g clip-path="url(#clip0_963_39386)">
<path d="M31.8225 25.508H17.9085C12.8505 25.508 11.2305 23.897 11.2305 18.902V8.606C11.2305 4.637 12.1305 2.297 16.7025 2.036C17.0895 2.018 17.4855 2 17.9085 2H31.8225C36.8805 2 38.5005 3.611 38.5005 8.606V19.145C38.4375 23.96 36.8175 25.508 31.8225 25.508Z" fill="#C89BE0"/>
<path d="M28.663 25.6339H3.607C3.004 25.6339 2.5 25.1299 2.5 24.5269C2.5 23.9239 3.004 23.4199 3.607 23.4199H28.663C29.266 23.4199 29.77 23.9239 29.77 24.5269C29.77 25.1299 29.266 25.6339 28.663 25.6339Z" fill="#3D3D3D"/>
<path d="M23.092 38H9.178C4.12 38 2.5 36.389 2.5 31.394V21.098C2.5 17.129 3.4 14.789 7.972 14.528C8.359 14.51 8.755 14.501 9.178 14.501H23.092C28.15 14.501 29.77 16.112 29.77 21.107V31.646C29.707 36.452 28.087 38 23.092 38ZM9.178 16.706C8.782 16.706 8.413 16.724 8.071 16.733C5.434 16.895 4.714 17.453 4.714 21.098V31.403C4.714 35.174 5.335 35.795 9.178 35.795H23.092C26.899 35.795 27.511 35.201 27.556 31.628V21.098C27.556 17.327 26.935 16.706 23.092 16.706H9.178Z" fill="#3D3D3D"/>
<path d="M10.9145 33.3019H8.37653C7.77353 33.3019 7.26953 32.7979 7.26953 32.1949C7.26953 31.5919 7.77353 31.0879 8.37653 31.0879H10.9145C11.5175 31.0879 12.0215 31.5919 12.0215 32.1949C12.0215 32.7979 11.5355 33.3019 10.9145 33.3019Z" fill="#3D3D3D"/>
<path d="M19.1506 33.3019H14.0836C13.4806 33.3019 12.9766 32.7979 12.9766 32.1949C12.9766 31.5919 13.4806 31.0879 14.0836 31.0879H19.1506C19.7536 31.0879 20.2576 31.5919 20.2576 32.1949C20.2576 32.7979 19.7716 33.3019 19.1506 33.3019Z" fill="#3D3D3D"/>
</g>
<defs>
<clipPath id="clip0_963_39386">
<rect width="36" height="36" fill="white" transform="translate(2.5 2)"/>
</clipPath>
</defs>
</svg>
