<svg width="61" height="60" viewBox="0 0 61 60" fill="none" xmlns="http://www.w3.org/2000/svg">
<g filter="url(#filter0_d_1839_2180)">
<path fill-rule="evenodd" clip-rule="evenodd" d="M13.4305 38.9305C8.49834 33.9983 8.49834 26.0017 13.4305 21.0695L21.5695 12.9305C26.5017 7.99834 34.4983 7.99834 39.4305 12.9305L47.5695 21.0695C52.5017 26.0017 52.5017 33.9983 47.5695 38.9305L39.4305 47.0695C34.4983 52.0017 26.5017 52.0017 21.5695 47.0695L13.4305 38.9305Z" fill="#33CB33"/>
</g>
<path fill-rule="evenodd" clip-rule="evenodd" d="M29.1194 27.5211L28.0299 26.3767L24.2191 22.4915C23.5353 21.7922 23.5464 20.6714 24.2439 19.9858C24.9424 19.3042 26.0602 19.3148 26.7457 20.0093L30.401 23.7417L34.0955 20.0381C34.7875 19.35 35.9052 19.35 36.5972 20.0381C37.2853 20.7301 37.2853 21.8478 36.5972 22.5398L31.6185 27.5211C30.9266 28.2068 29.8114 28.2068 29.1194 27.5211ZM40.3336 26.2801L36.6064 29.938L40.3087 33.6312C40.9968 34.3232 40.9968 35.4409 40.3087 36.1329C39.6164 36.8203 38.4993 36.8203 37.807 36.1329L32.827 31.1543C32.1407 30.4626 32.1407 29.3468 32.827 28.6551L33.9727 27.5656L37.8553 23.7535C38.5541 23.0723 39.6719 23.0834 40.3571 23.7783C41.0394 24.4765 41.0289 25.5949 40.3336 26.2801ZM28.022 31.2862C28.7076 30.5942 28.7076 29.479 28.022 28.7871L23.0433 23.7979C22.3513 23.1099 21.2336 23.1099 20.5416 23.7979C19.8535 24.4899 19.8535 25.6077 20.5416 26.2997L24.2426 30.0046L20.5102 33.6612C19.8158 34.3463 19.8053 35.4637 20.4867 36.1617C21.1718 36.8566 22.2896 36.8677 22.9885 36.1865L26.8776 32.377L28.022 31.2862ZM31.7871 32.3835L32.8779 33.5279L36.6821 37.4145C37.3632 38.1128 37.3521 39.2302 36.6573 39.9149C35.9596 40.5971 34.8416 40.5866 34.1569 39.8914L30.4989 36.1643L26.8005 39.864C26.1085 40.552 24.9908 40.552 24.2988 39.864C23.6107 39.172 23.6107 38.0542 24.2988 37.3622L29.2879 32.3835C29.9796 31.6972 31.0954 31.6972 31.7871 32.3835Z" fill="white"/>
<defs>
<filter id="filter0_d_1839_2180" x="0.730469" y="0.231445" width="59.5391" height="59.5371" filterUnits="userSpaceOnUse" color-interpolation-filters="sRGB">
<feFlood flood-opacity="0" result="BackgroundImageFix"/>
<feColorMatrix in="SourceAlpha" type="matrix" values="0 0 0 0 0 0 0 0 0 0 0 0 0 0 0 0 0 0 127 0" result="hardAlpha"/>
<feOffset/>
<feGaussianBlur stdDeviation="4.5"/>
<feColorMatrix type="matrix" values="0 0 0 0 0.0784314 0 0 0 0 0.737255 0 0 0 0 0.219608 0 0 0 0.4 0"/>
<feBlend mode="normal" in2="BackgroundImageFix" result="effect1_dropShadow_1839_2180"/>
<feBlend mode="normal" in="SourceGraphic" in2="effect1_dropShadow_1839_2180" result="shape"/>
</filter>
</defs>
</svg>
