<svg width="46" height="14" viewBox="0 0 46 14" fill="none" xmlns="http://www.w3.org/2000/svg">
<path fill-rule="evenodd" clip-rule="evenodd" d="M0.881592 9.73189V0.842556C0.881592 0.38155 1.25713 0.00720215 1.7206 0.00720215L5.40313 0.00764204C7.3131 0.00896172 8.87536 1.53978 8.91733 3.43572C8.96107 5.39807 7.32458 6.9918 5.35321 6.9918H3.88461C3.7207 6.9918 3.58771 6.8594 3.58771 6.6962V5.84588C3.58771 5.38444 3.9637 5.01053 4.42716 5.01053H5.4018C6.30487 5.01053 7.04624 4.24424 6.95169 3.35038C6.86907 2.56825 6.20282 1.9568 5.39562 1.9568H2.84016C2.83972 1.9568 2.83972 1.95724 2.83972 1.95724V9.16047C2.83972 9.62191 2.46417 9.99582 2.00027 9.99582H1.14668C1.00044 9.99582 0.881592 9.87793 0.881592 9.73189ZM12.9219 4.75583C11.9539 4.76199 11.1666 5.55116 11.1666 6.51496C11.1666 7.47744 11.9548 8.26925 12.9232 8.27981H12.9396C13.7781 8.27981 14.5036 7.68595 14.6706 6.86511V6.16525C14.504 5.34749 13.7786 4.75583 12.9396 4.75583H12.9219ZM12.9215 10.1907C10.8551 10.1806 9.24732 8.52922 9.24732 6.51496C9.24732 4.5007 10.8953 2.85198 12.9201 2.83966H12.9396C13.6332 2.83966 14.3264 3.1797 14.6706 3.41768V3.12032C14.6706 3.04773 14.7298 2.98835 14.8027 2.98835H16.3623C16.5077 2.98835 16.6252 3.1058 16.6252 3.25052V9.73365C16.6252 9.87837 16.5077 9.99582 16.3623 9.99582H14.8027C14.7298 9.99582 14.6706 9.93688 14.6706 9.86385V9.61224C14.2341 9.87573 13.741 10.1947 12.9215 10.1907ZM20.9348 14C19.8475 14 18.83 13.5056 18.1598 12.6641C18.0634 12.5435 18.0988 12.3654 18.2309 12.2849L18.8556 11.8278C19.2524 11.5859 19.7507 11.5498 20.1638 11.7627C20.3414 11.8542 20.5597 11.9607 20.8111 11.962C21.9227 11.9686 22.6376 10.8513 22.3901 9.9407C22.0177 10.0841 21.6254 10.1567 21.2202 10.1567C20.6732 10.1567 20.132 10.0186 19.6549 9.75771C19.5298 9.68997 19.4074 9.6121 19.2912 9.52677C18.7323 9.11723 18.3122 8.53041 18.1081 7.87497C18.0109 7.56441 17.9618 7.24065 17.9618 6.91249V3.81829C17.9618 3.36124 18.3338 2.9913 18.7924 2.9913H19.6398C19.7839 2.9913 19.9009 3.10743 19.9009 3.25083V6.8729C19.9009 7.41221 20.2115 7.91676 20.7117 8.12439C20.8738 8.19169 21.0452 8.22601 21.2202 8.22601C21.298 8.22601 21.3775 8.21853 21.457 8.20445C22.0486 8.098 22.4922 7.60576 22.5359 7.00839C22.5377 6.97671 22.5395 6.9446 22.5395 6.91249V3.81829C22.5395 3.36124 22.9115 2.9913 23.3701 2.9913H24.2175C24.3615 2.9913 24.4786 3.10743 24.4786 3.25083V10.3357C24.4786 12.2972 22.8889 14 20.9348 14Z" fill="#929292"/>
<path fill-rule="evenodd" clip-rule="evenodd" d="M44.8542 0C45 0 45.1184 0.117451 45.1184 0.262615V1.68303C45.1184 1.82819 45 1.94608 44.8542 1.94608H39.9637V8.04166H44.8542C45 8.04166 45.1184 8.15955 45.1184 8.30471V9.16426C45.1184 9.61955 44.7477 9.98906 44.29 9.98906H38.2499C38.1041 9.98906 37.9857 9.87117 37.9857 9.726V0.824357C37.9857 0.369069 38.3564 0 38.8141 0H44.8542ZM44.8541 4.00983C45.0004 4.00983 45.1183 4.12772 45.1183 4.27245V5.13287C45.1183 5.58772 44.7477 5.95679 44.2904 5.95679H40.975C40.8292 5.95679 40.7112 5.83934 40.7112 5.69418V4.79812C40.7112 4.36263 41.0656 4.00983 41.5034 4.00983H44.8541Z" fill="#929292"/>
<path fill-rule="evenodd" clip-rule="evenodd" d="M34.6075 0.00720215C34.5213 0.00720215 34.4405 0.0494317 34.3914 0.119814L31.859 3.75948C31.7317 3.93983 31.4626 3.93807 31.3381 3.75552L28.8926 0.123773C28.844 0.0511913 28.7623 0.00764204 28.6743 0.00764204L26.9977 0.00720215C26.8324 0.00720215 26.6985 0.140489 26.6985 0.305009V9.69186C26.6985 9.85638 26.8324 9.98966 26.9977 9.98966H27.8402C28.2758 9.98966 28.6293 9.63819 28.6293 9.20402V3.35302L31.0571 6.71291C31.3186 7.08506 31.8726 7.08506 32.1342 6.71291L34.5624 3.35214V9.69186C34.5624 9.85638 34.6967 9.98966 34.862 9.98966H35.7045C36.1401 9.98966 36.4936 9.63819 36.4936 9.20402V0.305009C36.4936 0.140489 36.3593 0.00720215 36.194 0.00720215H34.6075Z" fill="#929292"/>
</svg>
