<svg width="84" height="32" viewBox="0 0 84 32" fill="none" xmlns="http://www.w3.org/2000/svg">
<path d="M57.101 18.174L57.9372 18.4248C57.8814 18.6618 57.7978 18.8569 57.6724 19.0102C57.5469 19.1635 57.4076 19.289 57.2264 19.3586C57.0452 19.4423 56.8222 19.4841 56.5435 19.4841C56.209 19.4841 55.9442 19.4423 55.7212 19.3447C55.5121 19.2471 55.3309 19.0799 55.1776 18.829C55.0243 18.5921 54.9407 18.2715 54.9407 17.8952C54.9407 17.3935 55.08 17.0032 55.3449 16.7245C55.6097 16.4457 55.9999 16.3203 56.4877 16.3203C56.878 16.3203 57.1706 16.4039 57.3936 16.5572C57.6166 16.7106 57.7839 16.9475 57.8814 17.282L57.0452 17.4632C57.0173 17.3656 56.9895 17.2959 56.9476 17.2541C56.8919 17.1844 56.8361 17.1287 56.7525 17.0869C56.6689 17.0451 56.5853 17.0311 56.5016 17.0311C56.2926 17.0311 56.1253 17.1147 56.0138 17.2959C55.9302 17.4214 55.8884 17.6304 55.8884 17.8952C55.8884 18.2297 55.9442 18.4667 56.0417 18.5921C56.1393 18.7175 56.2926 18.7872 56.4738 18.7872C56.655 18.7872 56.7943 18.7315 56.878 18.6339C56.9895 18.5085 57.0591 18.3691 57.101 18.174Z" fill="#225E63"/>
<path d="M58.2717 17.8955C58.2717 17.3937 58.4111 17.0035 58.6898 16.7248C58.9686 16.446 59.3588 16.3066 59.8606 16.3066C60.3623 16.3066 60.7665 16.446 61.0452 16.7108C61.324 16.9896 61.4634 17.3659 61.4634 17.8676C61.4634 18.23 61.4076 18.5227 61.2822 18.7457C61.1567 18.9687 60.9895 19.1498 60.7526 19.2753C60.5296 19.4007 60.2369 19.4704 59.9024 19.4704C59.5679 19.4704 59.2752 19.4147 59.0383 19.3032C58.8153 19.1917 58.6341 19.0244 58.4808 18.7735C58.3275 18.5227 58.2717 18.2579 58.2717 17.8955ZM59.2195 17.8955C59.2195 18.2021 59.2752 18.4251 59.3867 18.5645C59.4982 18.7039 59.6515 18.7735 59.8606 18.7735C60.0696 18.7735 60.2229 18.7039 60.3344 18.5784C60.4459 18.439 60.5017 18.2021 60.5017 17.8676C60.5017 17.5749 60.4459 17.3659 60.3205 17.2404C60.209 17.1011 60.0418 17.0453 59.8466 17.0453C59.6515 17.0453 59.4982 17.115 59.3867 17.2544C59.2752 17.3659 59.2195 17.5889 59.2195 17.8955Z" fill="#225E63"/>
<path d="M61.9512 16.3633H63.1916L63.6655 18.2309L64.1394 16.3633H65.3798V19.4295H64.5993V17.088L64 19.4295H63.3031L62.7038 17.088V19.4295H61.9233V16.3633H61.9512Z" fill="#225E63"/>
<path d="M65.9929 16.3633H67.5678C67.9163 16.3633 68.1671 16.4469 68.3344 16.6142C68.5016 16.7814 68.5853 17.0044 68.5853 17.311C68.5853 17.6176 68.4877 17.8685 68.3065 18.0358C68.1253 18.2169 67.8326 18.3006 67.4563 18.3006H66.9407V19.4434H65.9929V16.3633ZM66.9407 17.6734H67.1776C67.3588 17.6734 67.4842 17.6455 67.5678 17.5758C67.6375 17.5061 67.6793 17.4365 67.6793 17.3389C67.6793 17.2413 67.6515 17.1577 67.5818 17.088C67.5121 17.0183 67.4006 16.9905 67.2194 16.9905H66.9546V17.6734H66.9407Z" fill="#225E63"/>
<path d="M69.0872 16.3633H70.0349V18.6769H71.5122V19.4295H69.0872V16.3633Z" fill="#225E63"/>
<path d="M71.9861 16.3633H72.9338V19.4295H71.9861V16.3633Z" fill="#225E63"/>
<path d="M75.4982 18.9121H74.425L74.2717 19.4139H73.3101L74.4669 16.3477H75.4982L76.655 19.4139H75.6655L75.4982 18.9121ZM75.3031 18.2571L74.9686 17.156L74.6341 18.2571H75.3031Z" fill="#225E63"/>
<path d="M76.9478 16.3633H77.8258L78.9826 18.0636V16.3633H79.8746V19.4295H78.9826L77.8397 17.7431V19.4295H76.9478V16.3633Z" fill="#225E63"/>
<path d="M80.2927 16.3633H83.1777V17.1159H82.2161V19.4295H81.2683V17.1159H80.3067V16.3633H80.2927Z" fill="#225E63"/>
<path d="M45.7003 21.0314L48.446 20.1672L47.554 18.1882C46.899 19.0105 46.2439 20.0697 45.7003 21.0314ZM44.7665 11.9861L39.3868 0L0 2.22997L10.9129 32L31.9164 25.3798C30.5784 23.4564 30.0906 21.1707 31.6376 20.0557C33.3659 18.8014 35.9721 20.2509 37.6307 22.2997C39.2334 19.6237 43.7352 13.3937 44.7665 11.9861Z" fill="#225E63"/>
<path d="M47.5541 18.1875C46.899 19.0098 46.244 20.069 45.7004 21.0307L48.4461 20.1666L47.5541 18.1875Z" fill="#225E63"/>
<path d="M38.1603 8.66191C39.8075 8.66191 41.1429 7.40144 41.1429 5.84658C41.1429 4.29172 39.8075 3.03125 38.1603 3.03125C36.5131 3.03125 35.1777 4.29172 35.1777 5.84658C35.1777 7.40144 36.5131 8.66191 38.1603 8.66191Z" fill="#FEFEFE"/>
<path d="M35.7212 9.875V20.5273C36.4181 20.9997 37.0773 21.6158 37.6306 22.3001C38.2829 21.2116 39.416 19.5335 40.5992 17.8318V9.875H35.7212Z" fill="#FEFEFE"/>
<path d="M33.6029 19.0737C33.6029 19.0737 33.0732 19.4918 30.7597 19.7288C30.1046 19.7985 29.784 19.7706 29.5471 19.7288C26.2579 19.1713 26.1046 16.7741 26.1046 16.7741C26.1046 16.7323 26.0907 16.6626 26.0907 16.6347V15.7148C26.0907 15.673 26.0907 15.6033 26.1046 15.5755C26.1046 15.5755 26.3276 12.9971 29.5471 12.7183H30.7597C32.1673 12.8995 33.3102 13.5964 33.3102 13.5964C33.352 13.6103 33.3799 13.5964 33.3799 13.5546V10.3211C33.3799 10.2793 33.352 10.2375 33.3102 10.2096C33.3102 10.2096 32.6691 9.79149 30.7178 9.68C30.6203 9.62425 28.906 9.61031 28.4461 9.68C21.3381 10.2514 21.0732 15.3943 21.0732 15.6173V16.8716C21.0732 17.0249 21.0732 22.2793 28.4461 22.7392C29.1708 22.795 30.5785 22.7392 30.7178 22.7392C30.7262 22.7392 30.7332 22.7392 30.7415 22.7392C30.5478 21.6591 30.7778 20.6765 31.6377 20.0563C32.2314 19.6242 32.9297 19.5127 33.6586 19.6354V19.1016C33.6586 19.0598 33.6307 19.0458 33.6029 19.0737Z" fill="#FEFEFE"/>
<path d="M7.52612 22.5844C7.52612 22.6263 7.554 22.6541 7.59581 22.6541H12.3484C12.3902 22.6541 12.4181 22.6263 12.4181 22.5844V18.8771C12.4181 18.8353 12.446 18.8074 12.4878 18.8074C12.4878 18.8074 20.0836 19.351 20.0836 14.2639C20.0836 10.236 15.3171 9.80396 13.7561 9.87365H7.59581C7.554 9.87365 7.52612 9.90152 7.52612 9.94333V22.5844ZM12.3345 15.9782V12.6472H13.5052C13.5052 12.6472 15.1916 12.7169 15.331 13.8736C15.3589 13.9573 15.3589 14.5287 15.331 14.5566C15.108 15.9085 13.6446 15.9782 13.6446 15.9782H12.3345Z" fill="#FEFEFE"/>
<path d="M38.2995 28.7805C38.6898 28.7805 38.9964 28.7805 39.4981 28.5575C41.2264 27.6516 47.0661 13.3938 53.2264 9.00353C53.2682 8.97565 53.31 8.93384 53.3379 8.89203C53.3797 8.83628 53.3797 8.78053 53.3797 8.78053C53.3797 8.78053 53.3797 8.48785 52.4737 8.48785C46.9964 8.33454 41.296 19.8328 38.2995 24.3763C38.2577 24.4321 38.0626 24.3763 38.0626 24.3763C38.0626 24.3763 36.0556 22.007 34.3135 21.1011C34.2717 21.0871 34.0765 21.0175 33.8675 21.0314C33.7281 21.0314 32.9197 21.1986 32.5434 21.5889C32.0974 22.0628 32.1114 22.3276 32.1114 22.899C32.1114 22.9408 32.1393 23.1359 32.195 23.2335C32.6271 23.9861 34.5643 26.6621 36.1671 28.1394C36.4041 28.3206 36.7804 28.7805 38.2995 28.7805Z" fill="#2BBC5D"/>
<path d="M54.8433 4.69727H59.4008C60.3067 4.69727 61.0314 4.8227 61.575 5.05963C62.1325 5.31051 62.5924 5.65894 62.9408 6.10493C63.3032 6.56486 63.568 7.09448 63.7213 7.69378C63.8886 8.29308 63.9722 8.9342 63.9722 9.61713C63.9722 10.6764 63.8467 11.4987 63.6098 12.084C63.3729 12.6694 63.0384 13.1572 62.6063 13.5614C62.1743 13.9516 61.7143 14.2164 61.2265 14.3558C60.5575 14.537 59.9443 14.6206 59.4008 14.6206H54.8433V4.69727ZM57.9095 6.94117V12.3628H58.6621C59.3032 12.3628 59.7631 12.2931 60.0279 12.1537C60.2927 12.0143 60.5157 11.7635 60.669 11.415C60.8224 11.0666 60.906 10.4812 60.906 9.68681C60.906 8.62758 60.7387 7.91678 60.3903 7.52653C60.0419 7.13629 59.4844 6.94117 58.676 6.94117H57.9095Z" fill="#225E63"/>
<path d="M64.8223 11.3449L67.7491 11.1637C67.8188 11.6376 67.9442 11.9999 68.1393 12.2508C68.4599 12.655 68.9059 12.8501 69.4913 12.8501C69.9233 12.8501 70.2717 12.7526 70.5087 12.5435C70.7456 12.3344 70.871 12.0975 70.871 11.8327C70.871 11.5818 70.7595 11.3449 70.5366 11.1358C70.3136 10.9268 69.7839 10.7456 68.9616 10.5644C67.6097 10.2578 66.662 9.8536 66.0766 9.35186C65.4913 8.85012 65.2125 8.209 65.2125 7.42852C65.2125 6.91284 65.3658 6.43897 65.6585 5.97904C65.9512 5.51911 66.3972 5.17068 66.9965 4.90587C67.5958 4.64106 68.4041 4.51562 69.4355 4.51562C70.7038 4.51562 71.6794 4.75256 72.3345 5.22643C73.0034 5.70029 73.3937 6.45291 73.5191 7.48427L70.6202 7.65151C70.5366 7.20552 70.3832 6.88496 70.1324 6.6759C69.8815 6.46684 69.547 6.36928 69.1149 6.36928C68.7526 6.36928 68.4878 6.43897 68.3066 6.59228C68.1254 6.74559 68.0418 6.92677 68.0418 7.14977C68.0418 7.30308 68.1115 7.45639 68.2648 7.58183C68.4041 7.70726 68.7526 7.8327 69.2961 7.9442C70.6341 8.23688 71.5958 8.52956 72.1812 8.82224C72.7665 9.11493 73.1846 9.49123 73.4494 9.92329C73.7143 10.3553 73.8397 10.8571 73.8397 11.4006C73.8397 12.0418 73.6585 12.6271 73.3101 13.1567C72.9616 13.7003 72.4599 14.1045 71.8327 14.3832C71.2055 14.662 70.3972 14.8013 69.4355 14.8013C67.7491 14.8013 66.5784 14.4808 65.9233 13.8257C65.2822 13.1707 64.9198 12.3484 64.8223 11.3449Z" fill="#225E63"/>
<path d="M74.6201 11.3449L77.5469 11.1637C77.6166 11.6376 77.7421 11.9999 77.9372 12.2508C78.2577 12.655 78.7037 12.8501 79.2891 12.8501C79.7212 12.8501 80.0696 12.7526 80.3065 12.5435C80.5435 12.3344 80.6689 12.0975 80.6689 11.8327C80.6689 11.5818 80.5574 11.3449 80.3344 11.1358C80.1114 10.9268 79.5818 10.7456 78.7595 10.5644C77.4076 10.2578 76.4598 9.8536 75.8745 9.35186C75.303 8.85012 75.0104 8.209 75.0104 7.42852C75.0104 6.91284 75.1637 6.43897 75.4564 5.97904C75.749 5.51911 76.195 5.17068 76.7943 4.90587C77.3936 4.64106 78.202 4.51562 79.2334 4.51562C80.5016 4.51562 81.4773 4.75256 82.1323 5.22643C82.8013 5.70029 83.1915 6.45291 83.317 7.48427L80.418 7.65151C80.3344 7.20552 80.1811 6.88496 79.9302 6.6759C79.6793 6.46684 79.3449 6.36928 78.9128 6.36928C78.5504 6.36928 78.2856 6.43897 78.1044 6.59228C77.9233 6.74559 77.8396 6.92677 77.8396 7.14977C77.8396 7.30308 77.9093 7.45639 78.0626 7.58183C78.202 7.70726 78.5504 7.8327 79.094 7.9442C80.432 8.23688 81.3936 8.52956 81.979 8.82224C82.5644 9.11493 82.9825 9.49123 83.2473 9.92329C83.5121 10.3553 83.6375 10.8571 83.6375 11.4006C83.6375 12.0418 83.4563 12.6271 83.1079 13.1567C82.7595 13.7003 82.2577 14.1045 81.6306 14.3832C81.0034 14.662 80.195 14.8013 79.2334 14.8013C77.5469 14.8013 76.3762 14.4808 75.7212 13.8257C75.0661 13.1707 74.7037 12.3484 74.6201 11.3449Z" fill="#225E63"/>
</svg>
