<svg width="375" height="136" viewBox="0 0 375 136" fill="none" xmlns="http://www.w3.org/2000/svg">
<mask id="mask0_2423_40521" style="mask-type:alpha" maskUnits="userSpaceOnUse" x="0" y="0" width="375" height="136">
<path d="M0 16C0 7.16344 7.16344 0 16 0H359C367.837 0 375 7.16344 375 16V136H0V16Z" fill="#F7F7F8"/>
</mask>
<g mask="url(#mask0_2423_40521)">
<g opacity="0.75">
<path fill-rule="evenodd" clip-rule="evenodd" d="M41.4791 141.672L93.4346 90.3312C100.611 83.2397 100.611 71.7493 93.4346 64.6579C86.2642 57.5724 74.6302 57.5724 67.4598 64.6579L15.4984 115.999C8.32801 123.09 8.32801 134.58 15.4984 141.672C22.6748 148.757 34.3028 148.757 41.4791 141.672Z" fill="#E9ECEE"/>
<path fill-rule="evenodd" clip-rule="evenodd" d="M67.4575 90.3265L15.502 38.9859C8.32566 31.8945 8.32566 20.4041 15.502 13.3186C22.6724 6.22714 34.3064 6.22714 41.4768 13.3186L93.5278 64.7478C100.65 71.786 100.65 83.1938 93.5278 90.2321L67.4575 116C74.6338 108.908 74.6338 97.418 67.4575 90.3265Z" fill="#F2F3F5"/>
<path fill-rule="evenodd" clip-rule="evenodd" d="M102.251 149.825L154.206 98.484C161.382 91.3925 161.382 79.9022 154.206 72.8166C147.036 65.7252 135.402 65.7252 128.231 72.8166L76.1803 124.246C69.0577 131.284 69.0577 142.692 76.1803 149.73L102.251 175.498C95.0743 168.406 95.0743 156.916 102.251 149.825Z" fill="#F2F3F5"/>
</g>
<g opacity="0.75">
<path fill-rule="evenodd" clip-rule="evenodd" d="M320.934 34.9511L278.091 -7.38461C272.055 -13.3494 262.062 -13.4668 256.145 -7.38461C250.406 -1.49812 250.475 7.87231 256.353 13.6756L299.409 56.2218C305.351 62.0985 314.992 62.0985 320.934 56.2218C326.881 50.35 326.881 40.8229 320.934 34.9511Z" fill="#E9ECEE"/>
<path fill-rule="evenodd" clip-rule="evenodd" d="M363.991 141.319L320.936 98.7728C314.989 92.8961 305.353 92.8961 299.41 98.7728C293.463 104.645 293.463 114.172 299.41 120.043L342.461 162.59C348.408 168.466 358.044 168.466 363.991 162.59C369.934 156.718 369.934 147.191 363.991 141.319Z" fill="#E8E9EB"/>
<path fill-rule="evenodd" clip-rule="evenodd" d="M374.753 24.3138L331.697 66.8599C325.75 72.7366 325.75 82.2588 331.697 88.1306C337.644 94.0073 347.28 94.0073 353.228 88.1306L396.283 45.5893C402.225 39.7126 402.225 30.1856 396.283 24.3138C390.336 18.4371 380.7 18.4371 374.753 24.3138Z" fill="#E8E9EB"/>
<path fill-rule="evenodd" clip-rule="evenodd" d="M245.586 130.681L288.642 88.1345C294.589 82.2578 294.589 72.7356 288.642 66.8589C282.7 60.9871 273.059 60.9871 267.116 66.8589L224.056 109.405C218.114 115.282 218.114 124.804 224.056 130.681C230.003 136.552 239.639 136.552 245.586 130.681Z" fill="#E9ECEE"/>
<path fill-rule="evenodd" clip-rule="evenodd" d="M267.115 88.1306L224.059 45.5844C218.112 39.7077 218.112 30.1856 224.059 24.3138C230.001 18.4371 239.642 18.4371 245.584 24.3138L288.719 66.9333C294.622 72.766 294.622 82.2196 288.719 88.0523L267.115 109.406C273.062 103.529 273.062 94.0073 267.115 88.1306Z" fill="#F2F3F5"/>
<path fill-rule="evenodd" clip-rule="evenodd" d="M342.462 120.042L320.858 98.6929C314.955 92.8602 305.384 92.8602 299.481 98.6929L256.351 141.312C250.404 147.189 250.409 156.711 256.351 162.588C262.298 168.465 271.934 168.465 277.881 162.588L320.932 120.042C326.879 114.165 336.515 114.165 342.462 120.042Z" fill="#F2F3F5"/>
<path fill-rule="evenodd" clip-rule="evenodd" d="M353.226 66.8605L396.282 109.407C402.229 115.283 402.229 124.805 396.282 130.677C390.34 136.554 380.699 136.554 374.757 130.677L331.622 88.0577C325.719 82.225 325.719 72.7714 331.622 66.9388L353.226 45.5898C347.279 51.4617 347.279 60.9838 353.226 66.8605Z" fill="#F2F3F5"/>
<path fill-rule="evenodd" clip-rule="evenodd" d="M363.991 -7.59614C358.044 -13.468 348.408 -13.468 342.461 -7.59614L299.41 34.95C293.463 40.8267 283.827 40.8267 277.88 34.95L299.484 56.2989C305.387 62.1316 314.954 62.1316 320.861 56.2989L363.991 13.6794C369.938 7.80268 369.933 -1.71944 363.991 -7.59614Z" fill="#F2F3F5"/>
</g>
</g>
</svg>
