<svg width="20" height="20" viewBox="0 0 20 20" fill="none" xmlns="http://www.w3.org/2000/svg">
<path d="M4.16667 9.16667C3.70833 9.16667 3.31583 9.00333 2.98917 8.67667C2.66306 8.35055 2.5 7.95833 2.5 7.5V4.16667C2.5 3.70833 2.66306 3.31583 2.98917 2.98917C3.31583 2.66306 3.70833 2.5 4.16667 2.5H7.5C7.95833 2.5 8.35083 2.66306 8.6775 2.98917C9.00361 3.31583 9.16667 3.70833 9.16667 4.16667V7.5C9.16667 7.95833 9.00361 8.35055 8.6775 8.67667C8.35083 9.00333 7.95833 9.16667 7.5 9.16667H4.16667ZM4.16667 7.5H7.5V4.16667H4.16667V7.5ZM4.16667 17.5C3.70833 17.5 3.31583 17.3369 2.98917 17.0108C2.66306 16.6842 2.5 16.2917 2.5 15.8333V12.5C2.5 12.0417 2.66306 11.6492 2.98917 11.3225C3.31583 10.9964 3.70833 10.8333 4.16667 10.8333H7.5C7.95833 10.8333 8.35083 10.9964 8.6775 11.3225C9.00361 11.6492 9.16667 12.0417 9.16667 12.5V15.8333C9.16667 16.2917 9.00361 16.6842 8.6775 17.0108C8.35083 17.3369 7.95833 17.5 7.5 17.5H4.16667ZM4.16667 15.8333H7.5V12.5H4.16667V15.8333ZM12.5 9.16667C12.0417 9.16667 11.6494 9.00333 11.3233 8.67667C10.9967 8.35055 10.8333 7.95833 10.8333 7.5V4.16667C10.8333 3.70833 10.9967 3.31583 11.3233 2.98917C11.6494 2.66306 12.0417 2.5 12.5 2.5H15.8333C16.2917 2.5 16.6842 2.66306 17.0108 2.98917C17.3369 3.31583 17.5 3.70833 17.5 4.16667V7.5C17.5 7.95833 17.3369 8.35055 17.0108 8.67667C16.6842 9.00333 16.2917 9.16667 15.8333 9.16667H12.5ZM12.5 7.5H15.8333V4.16667H12.5V7.5ZM16.25 17.5C16.1389 17.5 16.0417 17.4583 15.9583 17.375C15.875 17.2917 15.8333 17.1944 15.8333 17.0833V16.25C15.8333 16.1389 15.875 16.0417 15.9583 15.9583C16.0417 15.875 16.1389 15.8333 16.25 15.8333H17.0833C17.1944 15.8333 17.2917 15.875 17.375 15.9583C17.4583 16.0417 17.5 16.1389 17.5 16.25V17.0833C17.5 17.1944 17.4583 17.2917 17.375 17.375C17.2917 17.4583 17.1944 17.5 17.0833 17.5H16.25ZM11.25 12.5C11.1389 12.5 11.0417 12.4583 10.9583 12.375C10.875 12.2917 10.8333 12.1944 10.8333 12.0833V11.25C10.8333 11.1389 10.875 11.0417 10.9583 10.9583C11.0417 10.875 11.1389 10.8333 11.25 10.8333H12.0833C12.1944 10.8333 12.2917 10.875 12.375 10.9583C12.4583 11.0417 12.5 11.1389 12.5 11.25V12.0833C12.5 12.1944 12.4583 12.2917 12.375 12.375C12.2917 12.4583 12.1944 12.5 12.0833 12.5H11.25ZM12.9167 14.1667C12.8056 14.1667 12.7083 14.125 12.625 14.0417C12.5417 13.9583 12.5 13.8611 12.5 13.75V12.9167C12.5 12.8056 12.5417 12.7083 12.625 12.625C12.7083 12.5417 12.8056 12.5 12.9167 12.5H13.75C13.8611 12.5 13.9583 12.5417 14.0417 12.625C14.125 12.7083 14.1667 12.8056 14.1667 12.9167V13.75C14.1667 13.8611 14.125 13.9583 14.0417 14.0417C13.9583 14.125 13.8611 14.1667 13.75 14.1667H12.9167ZM11.25 15.8333C11.1389 15.8333 11.0417 15.7917 10.9583 15.7083C10.875 15.625 10.8333 15.5278 10.8333 15.4167V14.5833C10.8333 14.4722 10.875 14.375 10.9583 14.2917C11.0417 14.2083 11.1389 14.1667 11.25 14.1667H12.0833C12.1944 14.1667 12.2917 14.2083 12.375 14.2917C12.4583 14.375 12.5 14.4722 12.5 14.5833V15.4167C12.5 15.5278 12.4583 15.625 12.375 15.7083C12.2917 15.7917 12.1944 15.8333 12.0833 15.8333H11.25ZM12.9167 17.5C12.8056 17.5 12.7083 17.4583 12.625 17.375C12.5417 17.2917 12.5 17.1944 12.5 17.0833V16.25C12.5 16.1389 12.5417 16.0417 12.625 15.9583C12.7083 15.875 12.8056 15.8333 12.9167 15.8333H13.75C13.8611 15.8333 13.9583 15.875 14.0417 15.9583C14.125 16.0417 14.1667 16.1389 14.1667 16.25V17.0833C14.1667 17.1944 14.125 17.2917 14.0417 17.375C13.9583 17.4583 13.8611 17.5 13.75 17.5H12.9167ZM14.5833 15.8333C14.4722 15.8333 14.375 15.7917 14.2917 15.7083C14.2083 15.625 14.1667 15.5278 14.1667 15.4167V14.5833C14.1667 14.4722 14.2083 14.375 14.2917 14.2917C14.375 14.2083 14.4722 14.1667 14.5833 14.1667H15.4167C15.5278 14.1667 15.625 14.2083 15.7083 14.2917C15.7917 14.375 15.8333 14.4722 15.8333 14.5833V15.4167C15.8333 15.5278 15.7917 15.625 15.7083 15.7083C15.625 15.7917 15.5278 15.8333 15.4167 15.8333H14.5833ZM14.5833 12.5C14.4722 12.5 14.375 12.4583 14.2917 12.375C14.2083 12.2917 14.1667 12.1944 14.1667 12.0833V11.25C14.1667 11.1389 14.2083 11.0417 14.2917 10.9583C14.375 10.875 14.4722 10.8333 14.5833 10.8333H15.4167C15.5278 10.8333 15.625 10.875 15.7083 10.9583C15.7917 11.0417 15.8333 11.1389 15.8333 11.25V12.0833C15.8333 12.1944 15.7917 12.2917 15.7083 12.375C15.625 12.4583 15.5278 12.5 15.4167 12.5H14.5833ZM16.25 14.1667C16.1389 14.1667 16.0417 14.125 15.9583 14.0417C15.875 13.9583 15.8333 13.8611 15.8333 13.75V12.9167C15.8333 12.8056 15.875 12.7083 15.9583 12.625C16.0417 12.5417 16.1389 12.5 16.25 12.5H17.0833C17.1944 12.5 17.2917 12.5417 17.375 12.625C17.4583 12.7083 17.5 12.8056 17.5 12.9167V13.75C17.5 13.8611 17.4583 13.9583 17.375 14.0417C17.2917 14.125 17.1944 14.1667 17.0833 14.1667H16.25Z" fill="#33CB33"/>
</svg>
