<svg width="37" height="36" viewBox="0 0 37 36" fill="none" xmlns="http://www.w3.org/2000/svg">
<g clip-path="url(#clip0_1815_6348)">
<path d="M27.8682 29.7H16.3302C11.5692 29.7 7.69922 25.83 7.69922 21.069V8.631C7.69922 3.87 11.5692 0 16.3302 0H27.8592C32.6292 0 36.4992 3.87 36.4992 8.631V21.06C36.4992 25.83 32.6292 29.7 27.8682 29.7Z" fill="#8CD3DD"/>
<path d="M1.526 18.1437C0.968 18.1437 0.5 17.6847 0.5 17.1177V13.6797C0.5 9.6927 3.74 6.4707 7.709 6.4707H11.138C11.705 6.4707 12.164 6.9387 12.164 7.4967C12.164 8.0637 11.696 8.5227 11.138 8.5227H7.709C4.865 8.5227 2.561 10.8267 2.561 13.6707V17.0997C2.561 17.6847 2.093 18.1437 1.526 18.1437Z" fill="#3B3D3F"/>
<path d="M28.9942 18.1435C28.4272 18.1435 27.9682 17.6755 27.9682 17.1175V13.6795C27.9682 10.8355 25.6642 8.53149 22.8202 8.53149H19.3912C18.8242 8.53149 18.3652 8.06349 18.3652 7.50549C18.3652 6.93849 18.8332 6.47949 19.3912 6.47949H22.8202C26.7892 6.47949 30.0292 9.71049 30.0292 13.6885V17.1175C30.0292 17.6845 29.5612 18.1435 28.9942 18.1435Z" fill="#3B3D3F"/>
<path d="M22.8194 36.0001H20.7584C20.1914 36.0001 19.7324 35.5321 19.7324 34.9741C19.7324 34.4071 20.2004 33.9481 20.7584 33.9481H22.8194C25.6634 33.9481 27.9674 31.6441 27.9674 28.8001V26.7301C27.9674 26.1631 28.4354 25.7041 28.9934 25.7041C29.5514 25.7041 30.0194 26.1721 30.0194 26.7301V28.7911C30.0284 32.7691 26.7884 36.0001 22.8194 36.0001Z" fill="#3B3D3F"/>
<path d="M11.147 35.9999H7.709C3.74 35.9999 0.5 32.7689 0.5 28.7909V25.3619C0.5 24.7949 0.968 24.3359 1.526 24.3359C2.084 24.3359 2.552 24.8039 2.552 25.3619V28.7909C2.552 31.6349 4.856 33.9389 7.7 33.9389H11.129C11.696 33.9389 12.155 34.4069 12.155 34.9649C12.173 35.5319 11.705 35.9999 11.147 35.9999Z" fill="#3B3D3F"/>
<path d="M18.015 29.8163H12.525C9.20395 29.8163 7.37695 27.9893 7.37695 24.6683V17.8013C7.37695 14.4803 9.20395 12.6533 12.525 12.6533H18.015C21.336 12.6533 23.163 14.4803 23.163 17.8013V24.6683C23.163 27.9893 21.336 29.8163 18.015 29.8163ZM12.516 14.7143C10.347 14.7143 9.42895 15.6323 9.42895 17.8013V24.6683C9.42895 26.8373 10.347 27.7553 12.516 27.7553H18.006C20.175 27.7553 21.093 26.8373 21.093 24.6683V17.8013C21.093 15.6323 20.175 14.7143 18.006 14.7143H12.516Z" fill="#3B3D3F"/>
<path d="M24.8711 22.2659H5.64709C5.08009 22.2659 4.62109 21.7979 4.62109 21.2399C4.62109 20.6729 5.08909 20.2139 5.64709 20.2139H24.8711C25.4381 20.2139 25.8971 20.6819 25.8971 21.2399C25.9061 21.7979 25.4381 22.2659 24.8711 22.2659Z" fill="#3B3D3F"/>
</g>
<defs>
<clipPath id="clip0_1815_6348">
<rect width="36" height="36" fill="white" transform="translate(0.5)"/>
</clipPath>
</defs>
</svg>
