<svg width="17" height="16" viewBox="0 0 17 16" fill="none" xmlns="http://www.w3.org/2000/svg">
<path d="M8.5 16C12.9183 16 16.5 12.4183 16.5 8C16.5 3.58172 12.9183 0 8.5 0C4.08172 0 0.5 3.58172 0.5 8C0.5 12.4183 4.08172 16 8.5 16Z" fill="#33CB33"/>
<path d="M10.8285 5.83928C11.0582 5.60956 11.4307 5.60956 11.6604 5.83928C11.8901 6.069 11.8901 6.44145 11.6604 6.67117L8.13098 10.2006C7.90126 10.4303 7.52881 10.4303 7.29909 10.2006L5.33831 8.2398C5.10859 8.01008 5.10859 7.63763 5.33831 7.40791C5.56803 7.17819 5.94048 7.17819 6.1702 7.40791L7.71503 8.95275L10.8285 5.83928Z" fill="white"/>
</svg>
