<svg width="24" height="24" viewBox="0 0 24 24" fill="none" xmlns="http://www.w3.org/2000/svg">
<rect width="24" height="24" rx="6" fill="#4567FF"/>
<path d="M12 14C13.1046 14 14 13.1046 14 12C14 10.8954 13.1046 10 12 10C10.8954 10 10 10.8954 10 12C10 13.1046 10.8954 14 12 14Z" stroke="white" stroke-width="1.16667" stroke-miterlimit="10" stroke-linecap="round" stroke-linejoin="round"/>
<path d="M5.33325 12.5867V11.4133C5.33325 10.72 5.89992 10.1467 6.59992 10.1467C7.80659 10.1467 8.29992 9.29333 7.69325 8.24667C7.34659 7.64667 7.55325 6.86667 8.15992 6.52L9.31325 5.86C9.83992 5.54666 10.5199 5.73333 10.8333 6.26L10.9066 6.38666C11.5066 7.43333 12.4933 7.43333 13.0999 6.38666L13.1733 6.26C13.4866 5.73333 14.1666 5.54666 14.6933 5.86L15.8466 6.52C16.4533 6.86667 16.6599 7.64667 16.3133 8.24667C15.7066 9.29333 16.1999 10.1467 17.4066 10.1467C18.0999 10.1467 18.6733 10.7133 18.6733 11.4133V12.5867C18.6733 13.28 18.1066 13.8533 17.4066 13.8533C16.1999 13.8533 15.7066 14.7067 16.3133 15.7533C16.6599 16.36 16.4533 17.1333 15.8466 17.48L14.6933 18.14C14.1666 18.4533 13.4866 18.2667 13.1733 17.74L13.0999 17.6133C12.4999 16.5667 11.5133 16.5667 10.9066 17.6133L10.8333 17.74C10.5199 18.2667 9.83992 18.4533 9.31325 18.14L8.15992 17.48C7.55325 17.1333 7.34659 16.3533 7.69325 15.7533C8.29992 14.7067 7.80659 13.8533 6.59992 13.8533C5.89992 13.8533 5.33325 13.28 5.33325 12.5867Z" stroke="white" stroke-width="1.16667" stroke-miterlimit="10" stroke-linecap="round" stroke-linejoin="round"/>
</svg>
