<svg width="41" height="40" viewBox="0 0 41 40" fill="none" xmlns="http://www.w3.org/2000/svg">
<path d="M16 38C23.4558 38 29.5 31.9558 29.5 24.5C29.5 17.0442 23.4558 11 16 11C8.54416 11 2.5 17.0442 2.5 24.5C2.5 31.9558 8.54416 38 16 38Z" fill="#EFE47B"/>
<path d="M25.1002 22.7183H22.4992C20.6632 22.7183 19.1602 21.1703 19.1602 19.2623C19.1602 18.6953 19.6282 18.2273 20.1952 18.2273C20.7622 18.2273 21.2302 18.6953 21.2302 19.2623C21.2302 20.0183 21.7972 20.6393 22.4992 20.6393H25.1002C25.6402 20.6393 26.0632 20.1533 26.0632 19.5593C26.0632 18.8123 25.8562 18.7043 25.3882 18.5333L21.2302 17.0843C20.3482 16.7693 19.1602 16.1303 19.1602 14.0963C19.1602 12.3683 20.5282 10.9463 22.2022 10.9463H24.8032C26.6392 10.9463 28.1422 12.4943 28.1422 14.4023C28.1422 14.9693 27.6742 15.4373 27.1072 15.4373C26.5402 15.4373 26.0722 14.9693 26.0722 14.4023C26.0722 13.6463 25.5052 13.0253 24.8032 13.0253H22.2022C21.6622 13.0253 21.2392 13.5113 21.2392 14.1053C21.2392 14.8523 21.4462 14.9603 21.9142 15.1313L26.0722 16.5803C26.9542 16.8953 28.1422 17.5343 28.1422 19.5683C28.1422 21.3143 26.7742 22.7183 25.1002 22.7183Z" fill="#3B3D3F"/>
<path d="M23.6502 24.1037C23.0832 24.1037 22.6152 23.6357 22.6152 23.0687V10.6307C22.6152 10.0637 23.0832 9.5957 23.6502 9.5957C24.2172 9.5957 24.6852 10.0637 24.6852 10.6307V23.0597C24.6852 23.6357 24.2172 24.1037 23.6502 24.1037Z" fill="#3B3D3F"/>
<path d="M23.6508 31.7C15.4608 31.7 8.80078 25.04 8.80078 16.85C8.80078 8.66 15.4608 2 23.6508 2C24.2178 2 24.6858 2.468 24.6858 3.035C24.6858 3.602 24.2178 4.07 23.6508 4.07C16.6038 4.07 10.8708 9.803 10.8708 16.85C10.8708 23.897 16.6038 29.63 23.6508 29.63C30.6978 29.63 36.4308 23.897 36.4308 16.85C36.4308 16.283 36.8988 15.815 37.4658 15.815C38.0328 15.815 38.5008 16.283 38.5008 16.85C38.5008 25.04 31.8408 31.7 23.6508 31.7Z" fill="#3B3D3F"/>
<path d="M37.4653 9.596C36.8983 9.596 36.4303 9.128 36.4303 8.561V4.07H31.9393C31.3723 4.07 30.9043 3.602 30.9043 3.035C30.9043 2.468 31.3723 2 31.9393 2H37.4653C38.0323 2 38.5003 2.468 38.5003 3.035V8.561C38.5003 9.128 38.0323 9.596 37.4653 9.596Z" fill="#3B3D3F"/>
<path d="M30.5542 10.9817C30.2932 10.9817 30.0322 10.8827 29.8252 10.6757C29.4202 10.2707 29.4202 9.6137 29.8252 9.2087L36.7282 2.3057C37.1332 1.9007 37.7902 1.9007 38.1952 2.3057C38.6002 2.7107 38.6002 3.3677 38.1952 3.7727L31.2922 10.6757C31.0852 10.8827 30.8242 10.9817 30.5542 10.9817Z" fill="#3B3D3F"/>
</svg>
