<svg width="40" height="40" viewBox="0 0 40 40" fill="none" xmlns="http://www.w3.org/2000/svg">
<g clip-path="url(#clip0_963_39389)">
<path d="M24.9504 38.0004C32.1577 38.0004 38.0004 32.1577 38.0004 24.9504C38.0004 17.7431 32.1577 11.9004 24.9504 11.9004C17.7431 11.9004 11.9004 17.7431 11.9004 24.9504C11.9004 32.1577 17.7431 38.0004 24.9504 38.0004Z" fill="#E8B1CE"/>
<path d="M12.953 31.169C12.629 31.169 12.314 31.025 12.107 30.746L10.685 28.847C10.388 28.451 9.992 28.226 9.569 28.199C9.128 28.172 8.723 28.37 8.381 28.721C6.338 30.908 4.79 30.719 4.034 30.44C3.287 30.143 2 29.171 2 26.039V10.163C2 3.899 3.809 2 9.713 2H20.36C26.264 2 28.073 3.899 28.073 10.163V16.166C28.073 16.742 27.596 17.219 27.02 17.219C26.444 17.219 25.967 16.742 25.967 16.166V10.163C25.967 5.069 25.076 4.115 20.369 4.115H9.713C5.006 4.115 4.115 5.078 4.115 10.163V26.039C4.115 27.515 4.484 28.334 4.817 28.46C5.069 28.559 5.762 28.415 6.833 27.272C7.607 26.453 8.624 26.021 9.677 26.075C10.721 26.129 11.711 26.678 12.368 27.569L13.808 29.468C14.159 29.936 14.06 30.593 13.601 30.944C13.394 31.115 13.169 31.169 12.953 31.169Z" fill="#3B3D3F"/>
<path d="M20.6574 11.1617H9.37136C8.79536 11.1617 8.31836 10.6847 8.31836 10.1087C8.31836 9.53266 8.79536 9.05566 9.37136 9.05566H20.6484C21.2244 9.05566 21.7014 9.53266 21.7014 10.1087C21.7014 10.6847 21.2334 11.1617 20.6574 11.1617Z" fill="#3B3D3F"/>
<path d="M19.2435 16.8052H10.7835C10.2075 16.8052 9.73047 16.3282 9.73047 15.7522C9.73047 15.1762 10.2075 14.6992 10.7835 14.6992H19.2435C19.8195 14.6992 20.2965 15.1762 20.2965 15.7522C20.3055 16.3282 19.8195 16.8052 19.2435 16.8052Z" fill="#3B3D3F"/>
<path d="M23.6445 32.6005C20.3145 32.6005 17.6055 29.8915 17.6055 26.5615C17.6055 23.2315 20.3145 20.5225 23.6445 20.5225C26.9745 20.5225 29.6835 23.2315 29.6835 26.5615C29.6835 29.8915 26.9745 32.6005 23.6445 32.6005ZM23.6445 22.5385C21.4215 22.5385 19.6215 24.3475 19.6215 26.5615C19.6215 28.7755 21.4305 30.5845 23.6445 30.5845C25.8675 30.5845 27.6675 28.7755 27.6675 26.5615C27.6675 24.3475 25.8585 22.5385 23.6445 22.5385Z" fill="#3B3D3F"/>
</g>
<defs>
<clipPath id="clip0_963_39389">
<rect width="36" height="36" fill="white" transform="translate(2 2)"/>
</clipPath>
</defs>
</svg>
