<svg width="23" height="20" viewBox="0 0 23 20" fill="none" xmlns="http://www.w3.org/2000/svg">
<path fill-rule="evenodd" clip-rule="evenodd" d="M22.1074 5.97236H17.4493C15.2816 5.97621 13.5255 7.70572 13.5216 9.84063C13.5186 11.9804 15.2767 13.7176 17.4493 13.7204H22.1113V14.0604C22.1113 17.7929 19.8712 20 16.0804 20H6.14324C2.35142 20 0.111328 17.7929 0.111328 14.0604V5.93095C0.111328 2.19847 2.35142 0 6.14324 0H16.0765C19.8673 0 22.1074 2.19847 22.1074 5.93095V5.97236ZM5.32483 5.96367H11.5288H11.5327H11.5406C12.005 5.96174 12.3805 5.58907 12.3785 5.1307C12.3766 4.67328 11.9972 4.3035 11.5327 4.30543H5.32483C4.86332 4.30735 4.48883 4.67617 4.48688 5.13166C4.48492 5.58907 4.86039 5.96174 5.32483 5.96367Z" fill="#33CB33"/>
</svg>
