<svg width="36" height="36" viewBox="0 0 36 36" fill="none" xmlns="http://www.w3.org/2000/svg">
<path d="M27.4238 35.9996H16.6778C13.4288 35.9996 10.8008 33.3716 10.8008 30.1226V13.9766C10.8008 10.7276 13.4288 8.09961 16.6778 8.09961H27.4238C30.6728 8.09961 33.3008 10.7276 33.3008 13.9766V30.1226C33.3008 33.3716 30.6728 35.9996 27.4238 35.9996Z" fill="#8DDBD5"/>
<path d="M28.3496 6.21043H7.64961C6.66861 6.21043 5.84961 5.64343 5.84961 4.95043C5.84961 4.25743 6.66861 3.69043 7.64961 3.69043H28.3496C29.3306 3.69043 30.1496 4.25743 30.1496 4.95043C30.1496 5.64343 29.3306 6.21043 28.3496 6.21043Z" fill="#3D3D3D"/>
<path d="M31.05 0H4.95C2.214 0 0 2.214 0 4.95C0 7.686 2.214 9.9 4.95 9.9H7.2V22.338C7.2 24.777 9.189 26.766 11.628 26.766H24.372C26.811 26.766 28.8 24.777 28.8 22.338V9.9H31.05C33.786 9.9 36 7.686 36 4.95C36 2.214 33.786 0 31.05 0ZM9 5.994C9 5.499 8.595 5.094 8.1 5.094C7.605 5.094 7.2 5.499 7.2 5.994V8.1H4.95C3.213 8.1 1.8 6.687 1.8 4.95C1.8 3.213 3.213 1.8 4.95 1.8H31.05C32.787 1.8 34.2 3.213 34.2 4.95C34.2 6.687 32.787 8.1 31.05 8.1H28.8V5.994C28.8 5.499 28.395 5.094 27.9 5.094C27.405 5.094 27 5.499 27 5.994V22.338C27 23.787 25.821 24.966 24.372 24.966H11.628C10.179 24.966 9 23.787 9 22.338V5.994Z" fill="#3D3D3D"/>
<path d="M17.9996 22.5002C15.0206 22.5002 12.5996 20.0792 12.5996 17.1002C12.5996 14.1212 15.0206 11.7002 17.9996 11.7002C20.9786 11.7002 23.3996 14.1212 23.3996 17.1002C23.3996 20.0792 20.9786 22.5002 17.9996 22.5002ZM17.9996 13.5002C16.0106 13.5002 14.3996 15.1112 14.3996 17.1002C14.3996 19.0892 16.0106 20.7002 17.9996 20.7002C19.9886 20.7002 21.5996 19.0892 21.5996 17.1002C21.5996 15.1112 19.9886 13.5002 17.9996 13.5002Z" fill="#3B3D3F"/>
</svg>
