<svg width="20" height="20" viewBox="0 0 20 20" fill="none"
    xmlns="http://www.w3.org/2000/svg">
    <path fill-rule="evenodd" clip-rule="evenodd" d="M10 20C11.3717 20 12.6612 19.7377 13.8683 19.213C15.0754 18.6883 16.1385 17.9664 17.0576 17.0473C17.9767 16.1283 18.6968 15.0669 19.2181 13.8632C19.7394 12.6595 20 11.3717 20 10C20 8.62826 19.7394 7.34054 19.2181 6.13683C18.6968 4.93313 17.975 3.87003 17.0525 2.94753C16.13 2.02503 15.0652 1.30315 13.858 0.781893C12.6509 0.260631 11.3615 0 9.98971 0C8.63169 0 7.34911 0.260631 6.14198 0.781893C4.93484 1.30315 3.87003 2.02503 2.94753 2.94753C2.02503 3.87003 1.30315 4.93313 0.781893 6.13683C0.260631 7.34054 0 8.62826 0 10C0 11.3717 0.262346 12.6595 0.787037 13.8632C1.31173 15.0669 2.03361 16.1283 2.95267 17.0473C3.87174 17.9664 4.93484 18.6883 6.14198 19.213C7.34911 19.7377 8.63512 20 10 20ZM10 18.1584C8.87521 18.1584 7.81897 17.9475 6.83132 17.5257C5.84366 17.1039 4.97775 16.5209 4.23358 15.7767C3.48941 15.0326 2.90814 14.1667 2.48975 13.179C2.07137 12.1913 1.86218 11.1317 1.86218 9.99999C1.86218 8.87516 2.07137 7.81892 2.48975 6.83126C2.90814 5.84361 3.48941 4.97598 4.23358 4.22838C4.97775 3.48078 5.84195 2.89608 6.82617 2.47427C7.8104 2.05246 8.86493 1.84155 9.98975 1.84155C11.1283 1.84155 12.1897 2.05246 13.1739 2.47427C14.1581 2.89608 15.024 3.48078 15.7716 4.22838C16.5192 4.97598 17.104 5.84361 17.5258 6.83126C17.9476 7.81892 18.1585 8.87516 18.1585 9.99999C18.1653 11.1317 17.9561 12.1913 17.5309 13.179C17.1057 14.1667 16.5227 15.0326 15.7819 15.7767C15.0412 16.5209 14.177 17.1039 13.1893 17.5257C12.2017 17.9475 11.1386 18.1584 10 18.1584ZM8.94036 14.6296C9.29016 14.6296 9.56794 14.4685 9.7737 14.1461L14.1976 7.24281C14.2524 7.13993 14.3056 7.03362 14.357 6.92388C14.4085 6.81414 14.4342 6.7044 14.4342 6.59466C14.4342 6.36832 14.3467 6.18485 14.1718 6.04425C13.9969 5.90365 13.8032 5.83334 13.5906 5.83334C13.3025 5.83334 13.059 5.99109 12.8601 6.30659L8.9095 12.6235L7.05765 10.2366C6.94105 10.0926 6.82274 9.99144 6.70271 9.93314C6.58268 9.87484 6.45408 9.84569 6.31691 9.84569C6.08371 9.84569 5.88995 9.92628 5.73563 10.0875C5.58131 10.2486 5.50415 10.4424 5.50415 10.6687C5.50415 10.8814 5.58645 11.094 5.75106 11.3066L8.07617 14.1461C8.20648 14.3176 8.34023 14.441 8.4774 14.5165C8.61458 14.5919 8.7689 14.6296 8.94036 14.6296Z" fill="#3FC673"/>
</svg>
