<svg width="375" height="200" viewBox="0 0 375 200" fill="none"
    xmlns="http://www.w3.org/2000/svg">
    <g clip-path="url(#clip0_28741_8665)">
        <path d="M196.3 105L221 91L196.7 74L196.3 105Z" fill="#E6F9E6" stroke="#E6F9E6" stroke-linejoin="bevel"/>
        <path d="M221 91L198.3 44L196.7 74L221 91Z" fill="#D6F5D6" stroke="#D6F5D6" stroke-linejoin="bevel"/>
        <path d="M124 64L151.7 108L196.7 74L124 64Z" fill="#B7EDB5" stroke="#B7EDB5" stroke-linejoin="bevel"/>
        <path d="M196.7 74L151.7 108L196.3 105L196.7 74Z" fill="#87DF82" stroke="#87DF82" stroke-linejoin="bevel"/>
        <path d="M196.3 105L251 124L221 91L196.3 105Z" fill="#87DF82" stroke="#87DF82" stroke-linejoin="bevel"/>
        <path d="M221 91L265.7 67L198.3 44L221 91Z" fill="#87DF82" stroke="#87DF82" stroke-linejoin="bevel"/>
        <path d="M204.3 166L251 124L196.3 105L204.3 166Z" fill="#97E493" stroke="#97E493" stroke-linejoin="bevel"/>
        <path d="M151.7 108L175.7 147L196.3 105L151.7 108Z" fill="#E6F9E6" stroke="#E6F9E6" stroke-linejoin="bevel"/>
        <path d="M251 124L265.7 67L221 91L251 124Z" fill="#C6F1C5" stroke="#C6F1C5" stroke-linejoin="bevel"/>
        <path d="M151.7 108L161 149L175.7 147L151.7 108Z" fill="#A7E9A4" stroke="#A7E9A4" stroke-linejoin="bevel"/>
        <path d="M170.7 161L204.3 166L175.7 147L170.7 161Z" fill="#C6F1C5" stroke="#C6F1C5" stroke-linejoin="bevel"/>
        <path d="M175.7 147L204.3 166L196.3 105L175.7 147Z" fill="#A7E9A4" stroke="#A7E9A4" stroke-linejoin="bevel"/>
        <path d="M161 149L170.7 161L175.7 147L161 149Z" fill="#B7EDB5" stroke="#B7EDB5" stroke-linejoin="bevel"/>
        <path d="M198.3 44L124 64L196.7 74L198.3 44Z" fill="#97E493" stroke="#97E493" stroke-linejoin="bevel"/>
        <path d="M151.7 108L109 106L161 149L151.7 108Z" fill="#E6F9E6" stroke="#E6F9E6" stroke-linejoin="bevel"/>
        <path d="M283.7 125L289 106L251 124L283.7 125Z" fill="#C6F1C5" stroke="#C6F1C5" stroke-linejoin="bevel"/>
        <path d="M251 124L289 106L265.7 67L251 124Z" fill="#D6F5D6" stroke="#D6F5D6" stroke-linejoin="bevel"/>
        <path d="M263.7 182L283.7 125L251 124L263.7 182Z" fill="#33CB33" stroke="#33CB33" stroke-linejoin="bevel"/>
        <path d="M198.3 44L122.3 56L124 64L198.3 44Z" fill="#E6F9E6" stroke="#E6F9E6" stroke-linejoin="bevel"/>
        <path d="M231.3 3L203.7 0L198.3 44L231.3 3Z" fill="#C6F1C5" stroke="#C6F1C5" stroke-linejoin="bevel"/>
        <path d="M198.3 44L188.3 0L122.3 56L198.3 44Z" fill="#4ED04A" stroke="#4ED04A" stroke-linejoin="bevel"/>
        <path d="M267 23L198.3 44L265.7 67L267 23Z" fill="#A7E9A4" stroke="#A7E9A4" stroke-linejoin="bevel"/>
        <path d="M267 23L231.3 3L198.3 44L267 23Z" fill="#75DA70" stroke="#75DA70" stroke-linejoin="bevel"/>
        <path d="M203.7 0H188.3L198.3 44L203.7 0Z" fill="#87DF82" stroke="#87DF82" stroke-linejoin="bevel"/>
        <path d="M294.3 70L267 23L265.7 67L294.3 70Z" fill="#33CB33" stroke="#33CB33" stroke-linejoin="bevel"/>
        <path d="M289 106L294.3 70L265.7 67L289 106Z" fill="#33CB33" stroke="#33CB33" stroke-linejoin="bevel"/>
        <path d="M326.3 114L298.7 97L289 106L326.3 114Z" fill="#D6F5D6" stroke="#D6F5D6" stroke-linejoin="bevel"/>
        <path d="M289 106L298.7 97L294.3 70L289 106Z" fill="#A7E9A4" stroke="#A7E9A4" stroke-linejoin="bevel"/>
        <path d="M111 58L109 106L124 64L111 58Z" fill="#D6F5D6" stroke="#D6F5D6" stroke-linejoin="bevel"/>
        <path d="M124 64L109 106L151.7 108L124 64Z" fill="#33CB33" stroke="#33CB33" stroke-linejoin="bevel"/>
        <path d="M146 200H180.7L170.7 161L146 200Z" fill="#D6F5D6" stroke="#D6F5D6" stroke-linejoin="bevel"/>
        <path d="M87 0L111 58L122.3 56L87 0Z" fill="#75DA70" stroke="#75DA70" stroke-linejoin="bevel"/>
        <path d="M122.3 56L111 58L124 64L122.3 56Z" fill="#A7E9A4" stroke="#A7E9A4" stroke-linejoin="bevel"/>
        <path d="M208.3 200L263.7 182L204.3 166L208.3 200Z" fill="#A7E9A4" stroke="#A7E9A4" stroke-linejoin="bevel"/>
        <path d="M204.3 166L263.7 182L251 124L204.3 166Z" fill="#D6F5D6" stroke="#D6F5D6" stroke-linejoin="bevel"/>
        <path d="M283.7 125L326.3 114L289 106L283.7 125Z" fill="#B7EDB5" stroke="#B7EDB5" stroke-linejoin="bevel"/>
        <path d="M180.7 200H208.3L204.3 166L180.7 200Z" fill="#A7E9A4" stroke="#A7E9A4" stroke-linejoin="bevel"/>
        <path d="M180.7 200L204.3 166L170.7 161L180.7 200Z" fill="#75DA70" stroke="#75DA70" stroke-linejoin="bevel"/>
        <path d="M146 200L170.7 161L161 149L146 200Z" fill="#A7E9A4" stroke="#A7E9A4" stroke-linejoin="bevel"/>
        <path d="M294.7 0H278L267 23L294.7 0Z" fill="#D6F5D6" stroke="#D6F5D6" stroke-linejoin="bevel"/>
        <path d="M267 23L278 0L231.3 3L267 23Z" fill="#C6F1C5" stroke="#C6F1C5" stroke-linejoin="bevel"/>
        <path d="M231.3 3L278 0H203.7L231.3 3Z" fill="#4ED04A" stroke="#4ED04A" stroke-linejoin="bevel"/>
        <path d="M79.2998 99L92.2998 133L109 106L79.2998 99Z" fill="#B7EDB5" stroke="#B7EDB5" stroke-linejoin="bevel"/>
        <path d="M109 106L92.2998 133L161 149L109 106Z" fill="#87DF82" stroke="#87DF82" stroke-linejoin="bevel"/>
        <path d="M92.2998 133L146 200L161 149L92.2998 133Z" fill="#D6F5D6" stroke="#D6F5D6" stroke-linejoin="bevel"/>
        <path d="M303.7 200L326.3 114L283.7 125L303.7 200Z" fill="#97E493" stroke="#97E493" stroke-linejoin="bevel"/>
        <path d="M298.7 97L336.3 96L294.3 70L298.7 97Z" fill="#D6F5D6" stroke="#D6F5D6" stroke-linejoin="bevel"/>
        <path d="M302.3 0H294.7L267 23L302.3 0Z" fill="#C6F1C5" stroke="#C6F1C5" stroke-linejoin="bevel"/>
        <path d="M111 58L79.2998 99L109 106L111 58Z" fill="#4ED04A" stroke="#4ED04A" stroke-linejoin="bevel"/>
        <path d="M302.3 0L267 23L294.3 70L302.3 0Z" fill="#C6F1C5" stroke="#C6F1C5" stroke-linejoin="bevel"/>
        <path d="M208.3 200H273L263.7 182L208.3 200Z" fill="#A7E9A4" stroke="#A7E9A4" stroke-linejoin="bevel"/>
        <path d="M263.7 182L293.3 200L283.7 125L263.7 182Z" fill="#33CB33" stroke="#33CB33" stroke-linejoin="bevel"/>
        <path d="M326.3 114L336.3 96L298.7 97L326.3 114Z" fill="#C6F1C5" stroke="#C6F1C5" stroke-linejoin="bevel"/>
        <path d="M375 32L302.3 0L294.3 70L375 32Z" fill="#4ED04A" stroke="#4ED04A" stroke-linejoin="bevel"/>
        <path d="M273 200H293.3L263.7 182L273 200Z" fill="#75DA70" stroke="#75DA70" stroke-linejoin="bevel"/>
        <path d="M326.3 114L355.3 131L336.3 96L326.3 114Z" fill="#97E493" stroke="#97E493" stroke-linejoin="bevel"/>
        <path d="M87.0002 0L61.7002 58H111L87.0002 0Z" fill="#D6F5D6" stroke="#D6F5D6" stroke-linejoin="bevel"/>
        <path d="M111 58H61.7002L79.3002 99L111 58Z" fill="#33CB33" stroke="#33CB33" stroke-linejoin="bevel"/>
        <path d="M79.3002 99L37.7002 114L92.3002 133L79.3002 99Z" fill="#C6F1C5" stroke="#C6F1C5" stroke-linejoin="bevel"/>
        <path d="M188.3 0H87L122.3 56L188.3 0Z" fill="#75DA70" stroke="#75DA70" stroke-linejoin="bevel"/>
        <path d="M293.3 200H303.7L283.7 125L293.3 200Z" fill="#4ED04A" stroke="#4ED04A" stroke-linejoin="bevel"/>
        <path d="M87.0002 0H82.3002L61.7002 58L87.0002 0Z" fill="#75DA70" stroke="#75DA70" stroke-linejoin="bevel"/>
        <path d="M303.7 200L355.3 131L326.3 114L303.7 200Z" fill="#87DF82" stroke="#87DF82" stroke-linejoin="bevel"/>
        <path d="M336.3 96L375 32L294.3 70L336.3 96Z" fill="#C6F1C5" stroke="#C6F1C5" stroke-linejoin="bevel"/>
        <path d="M46.6998 51L44.2998 99L61.6998 58L46.6998 51Z" fill="#C6F1C5" stroke="#C6F1C5" stroke-linejoin="bevel"/>
        <path d="M61.6998 58L44.2998 99H79.2998L61.6998 58Z" fill="#B7EDB5" stroke="#B7EDB5" stroke-linejoin="bevel"/>
        <path d="M92.2998 133L86.2998 200H146L92.2998 133Z" fill="#4ED04A" stroke="#4ED04A" stroke-linejoin="bevel"/>
        <path d="M75.7002 200H86.3002L48.7002 168L75.7002 200Z" fill="#63D55D" stroke="#63D55D" stroke-linejoin="bevel"/>
        <path d="M82.3002 0L46.7002 51L61.7002 58L82.3002 0Z" fill="#63D55D" stroke="#63D55D" stroke-linejoin="bevel"/>
        <path d="M0 98L37.7 114L44.3 99L0 98Z" fill="#A7E9A4" stroke="#A7E9A4" stroke-linejoin="bevel"/>
        <path d="M44.3002 99L37.7002 114L79.3002 99H44.3002Z" fill="#B7EDB5" stroke="#B7EDB5" stroke-linejoin="bevel"/>
        <path d="M48.7002 168L86.3002 200L92.3002 133L48.7002 168Z" fill="#C6F1C5" stroke="#C6F1C5" stroke-linejoin="bevel"/>
        <path d="M375 124V110L355.3 131L375 124Z" fill="#87DF82" stroke="#87DF82" stroke-linejoin="bevel"/>
        <path d="M355.3 131L375 110L336.3 96L355.3 131Z" fill="#B7EDB5" stroke="#B7EDB5" stroke-linejoin="bevel"/>
        <path d="M37.7002 114L48.7002 168L92.3002 133L37.7002 114Z" fill="#87DF82" stroke="#87DF82" stroke-linejoin="bevel"/>
        <path d="M375 146V124L355.3 131L375 146Z" fill="#87DF82" stroke="#87DF82" stroke-linejoin="bevel"/>
        <path d="M303.7 200L375 146L355.3 131L303.7 200Z" fill="#4ED04A" stroke="#4ED04A" stroke-linejoin="bevel"/>
        <path d="M375 110V32L336.3 96L375 110Z" fill="#75DA70" stroke="#75DA70" stroke-linejoin="bevel"/>
        <path d="M82.3002 0H45.7002L46.7002 51L82.3002 0Z" fill="#87DF82" stroke="#87DF82" stroke-linejoin="bevel"/>
        <path d="M0 75V98L44.3 99L0 75Z" fill="#4ED04A" stroke="#4ED04A" stroke-linejoin="bevel"/>
        <path d="M375 32V0H302.3L375 32Z" fill="#D6F5D6" stroke="#D6F5D6" stroke-linejoin="bevel"/>
        <path d="M303.7 200H375V146L303.7 200Z" fill="#97E493" stroke="#97E493" stroke-linejoin="bevel"/>
        <path d="M0 75L44.3 99L46.7 51L0 75Z" fill="#D6F5D6" stroke="#D6F5D6" stroke-linejoin="bevel"/>
        <path d="M37.7 114L0 136L48.7 168L37.7 114Z" fill="#C6F1C5" stroke="#C6F1C5" stroke-linejoin="bevel"/>
        <path d="M0 22V75L46.7 51L0 22Z" fill="#A7E9A4" stroke="#A7E9A4" stroke-linejoin="bevel"/>
        <path d="M0 98V136L37.7 114L0 98Z" fill="#4ED04A" stroke="#4ED04A" stroke-linejoin="bevel"/>
        <path d="M48.7 168L0 200H75.7L48.7 168Z" fill="#A7E9A4" stroke="#A7E9A4" stroke-linejoin="bevel"/>
        <path d="M45.7 0L0 22L46.7 51L45.7 0Z" fill="#63D55D" stroke="#63D55D" stroke-linejoin="bevel"/>
        <path d="M45.7 0H0V22L45.7 0Z" fill="#87DF82" stroke="#87DF82" stroke-linejoin="bevel"/>
        <path d="M0 136V200L48.7 168L0 136Z" fill="#D6F5D6" stroke="#D6F5D6" stroke-linejoin="bevel"/>
    </g>
    <defs>
        <clipPath id="clip0_28741_8665">
            <rect width="375" height="200" fill="white"/>
        </clipPath>
    </defs>
</svg>
