<svg width="36" height="36" viewBox="0 0 36 36" fill="none"
    xmlns="http://www.w3.org/2000/svg">
    <circle cx="18" cy="18" r="18" fill="#4567FF"/>
    <path d="M19.4136 12.8568C18.4146 12.8704 17.1362 13.334 16.0218 14.2557C15.8004 14.4386 15.5763 14.6187 15.3644 14.8131C15.0134 15.1353 14.9682 15.5799 15.2618 15.9531C15.602 16.3854 15.953 16.8095 16.3134 17.2249C16.6104 17.5674 17.0674 17.6055 17.4258 17.3289C17.6728 17.1379 17.9023 16.9237 18.15 16.7334C19.2428 15.8932 20.7669 15.9361 21.7639 16.8911C22.8135 17.8971 23.8408 18.9297 24.8351 19.9914C25.8556 21.081 25.7834 22.8164 24.7284 23.8857C23.6761 24.9522 21.9738 25.0086 20.8655 24.0094C20.6461 23.8116 20.4416 23.5961 20.2317 23.3874C19.8118 22.9694 19.3643 22.9632 18.9506 23.3765C18.5854 23.7409 18.2189 24.1045 17.8625 24.4777C17.5695 24.785 17.5338 25.2363 17.8031 25.5442C18.7136 26.5883 19.7693 27.4162 21.1314 27.7853C24.5961 28.7247 28.1047 26.4796 28.7014 22.9129C29.0368 20.9077 28.5056 19.137 27.1199 17.6619C26.106 16.5832 25.051 15.5439 23.9967 14.5052C22.9134 13.4373 21.4115 12.8541 19.4136 12.8555V12.8568Z" fill="white"/>
    <path d="M17.4978 22.3453C18.4952 22.3324 19.7674 21.8886 20.8841 21.0106C21.1321 20.8155 21.3753 20.6144 21.6123 20.4064C21.9946 20.0707 22.0391 19.6215 21.7219 19.2294C21.3794 18.806 21.0286 18.3888 20.6697 17.9783C20.371 17.6371 19.9038 17.5964 19.5407 17.8716C19.2899 18.0626 19.0563 18.2753 18.8042 18.4649C17.6875 19.3069 16.1516 19.2668 15.1356 18.3113C14.0806 17.3191 13.0407 16.3072 12.0548 15.2477C10.5237 13.6038 11.3848 10.9963 13.5928 10.5383C14.5896 10.3317 15.4665 10.6252 16.1995 11.3293C16.39 11.5121 16.5709 11.7058 16.7647 11.8852C17.1244 12.2182 17.5841 12.2182 17.9355 11.8797C18.3281 11.5012 18.7158 11.1173 19.0954 10.7258C19.4002 10.4118 19.4263 9.95449 19.1413 9.63917C18.2678 8.6728 17.2765 7.88041 16.0002 7.48218C12.4556 6.3765 8.69727 8.64834 8.09509 12.2861C7.75461 14.3446 8.33144 16.136 9.78449 17.6324C10.7696 18.647 11.7801 19.6372 12.794 20.6239C13.9532 21.7527 15.4535 22.3446 17.4984 22.3432L17.4978 22.3453Z" fill="white"/>
    <path d="M24.0166 10.6346C24.2434 10.6306 24.4864 10.4825 24.6182 10.1837C24.9225 9.49535 25.221 8.80367 25.5047 8.10598C25.6752 7.68777 25.4846 7.24021 25.0931 7.06746C24.7099 6.89804 24.2738 7.05479 24.0929 7.45832C23.7847 8.14534 23.4849 8.83635 23.2057 9.53603C22.9893 10.079 23.3653 10.6346 24.016 10.6339L24.0166 10.6346Z" fill="white"/>
    <path d="M25.3661 12.1536C25.3601 12.7937 25.9083 13.2195 26.4357 12.9969C27.1531 12.6949 27.8584 12.3603 28.559 12.0187C28.9474 11.8294 29.0978 11.3598 28.9354 10.9549C28.7696 10.5402 28.327 10.3169 27.9239 10.4915C27.2019 10.8039 26.4879 11.1379 25.7792 11.4829C25.5018 11.6179 25.3734 11.8837 25.3654 12.1536H25.3661Z" fill="white"/>
    <path d="M8.00018 23.7304C8.00219 24.3055 8.54452 24.7267 9.05944 24.5109C9.785 24.2073 10.4979 23.8703 11.206 23.5236C11.5912 23.3349 11.733 22.8566 11.5651 22.4541C11.3973 22.0517 10.9626 21.8317 10.5708 22.0009C9.84853 22.3121 9.135 22.6477 8.42549 22.9889C8.14195 23.1253 8.00018 23.408 8.00085 23.7297L8.00018 23.7304Z" fill="white"/>
    <path d="M11.4334 27.0903C11.4373 27.5447 11.6759 27.8824 12.0096 27.9745C12.3445 28.0667 12.7293 27.9105 12.8767 27.5679C13.2007 26.8138 13.5111 26.0527 13.8034 25.2838C13.9599 24.8723 13.7555 24.4136 13.3824 24.237C12.9931 24.0527 12.5515 24.2258 12.3672 24.6626C12.0645 25.3795 11.7774 26.104 11.4896 26.8279C11.4489 26.9299 11.4418 27.0474 11.4334 27.091V27.0903Z" fill="white"/>
</svg>
