<svg width="32" height="32" viewBox="0 0 32 32" fill="none" xmlns="http://www.w3.org/2000/svg">
<path d="M16 32C24.8366 32 32 24.8366 32 16C32 7.16344 24.8366 0 16 0C7.16344 0 0 7.16344 0 16C0 24.8366 7.16344 32 16 32Z" fill="#F0FBFC"/>
<rect x="5.3335" y="10.667" width="21.3333" height="11.2" rx="3" fill="#62D819"/>
<path d="M7.80078 7.51309C13.4306 4.70722 18.0369 4.70722 24.18 7.53271L20.9032 8.34776" stroke="#45E4FF" stroke-width="3" stroke-linecap="round" stroke-linejoin="round"/>
<path d="M24.1996 24.487C18.5697 27.2929 13.9635 27.2929 7.82031 24.4674L11.0971 23.6523" stroke="#45E4FF" stroke-width="3" stroke-linecap="round" stroke-linejoin="round"/>
<path d="M14.9238 27.067V25.793C14.2424 25.7277 13.6871 25.5737 13.2578 25.331C12.8378 25.0883 12.5111 24.8083 12.2778 24.491C12.0444 24.1643 11.8764 23.847 11.7738 23.539C11.6804 23.231 11.6244 22.9743 11.6058 22.769C11.5871 22.5637 11.5778 22.461 11.5778 22.461H12.9638C12.9638 22.461 12.9684 22.5263 12.9778 22.657C12.9964 22.7783 13.0338 22.937 13.0898 23.133C13.1458 23.3197 13.2438 23.5157 13.3838 23.721C13.5238 23.917 13.7151 24.099 13.9578 24.267C14.2098 24.4257 14.5318 24.533 14.9238 24.589V20.935L14.8678 20.921C14.2704 20.7903 13.7431 20.613 13.2858 20.389C12.8378 20.165 12.4878 19.8663 12.2358 19.493C11.9931 19.1197 11.8718 18.6483 11.8718 18.079C11.8718 17.5097 12.0118 17.0197 12.2918 16.609C12.5811 16.189 12.9591 15.8623 13.4258 15.629C13.8924 15.3863 14.3918 15.237 14.9238 15.181V13.935H16.0298V15.209C16.6084 15.2837 17.0844 15.433 17.4578 15.657C17.8404 15.881 18.1391 16.1377 18.3538 16.427C18.5684 16.707 18.7224 16.987 18.8158 17.267C18.9184 17.5377 18.9838 17.7617 19.0118 17.939C19.0398 18.1163 19.0538 18.205 19.0538 18.205H17.6678C17.6678 18.205 17.6538 18.1303 17.6258 17.981C17.5978 17.8317 17.5324 17.6497 17.4298 17.435C17.3271 17.2203 17.1638 17.015 16.9398 16.819C16.7251 16.623 16.4218 16.483 16.0298 16.399V19.843L16.1278 19.871C16.4918 19.955 16.8558 20.0577 17.2198 20.179C17.5838 20.3003 17.9104 20.4637 18.1998 20.669C18.4984 20.8743 18.7364 21.1497 18.9138 21.495C19.0911 21.831 19.1798 22.2557 19.1798 22.769C19.1798 23.3197 19.0398 23.8097 18.7598 24.239C18.4891 24.6683 18.1158 25.0183 17.6398 25.289C17.1731 25.5597 16.6364 25.7277 16.0298 25.793V27.067H14.9238ZM13.2298 18.065C13.2298 18.4663 13.3651 18.7837 13.6358 19.017C13.9064 19.2503 14.3358 19.4417 14.9238 19.591V16.357C14.4104 16.4317 13.9998 16.6277 13.6918 16.945C13.3838 17.2623 13.2298 17.6357 13.2298 18.065ZM17.8218 22.769C17.8218 22.3023 17.6631 21.9523 17.3458 21.719C17.0284 21.4857 16.5898 21.3037 16.0298 21.173V24.589C16.5338 24.4957 16.9584 24.2903 17.3038 23.973C17.6491 23.6557 17.8218 23.2543 17.8218 22.769Z" fill="white"/>
<path d="M8.26683 10.667C8.26683 12.8003 7.46683 13.6003 5.3335 13.6003" stroke="white" stroke-opacity="0.5"/>
<path d="M23.7332 10.667C23.7332 12.8003 24.5332 13.6003 26.6665 13.6003" stroke="white" stroke-opacity="0.5"/>
<path d="M23.7332 21.8662C23.7332 19.7329 24.5332 18.9329 26.6665 18.9329" stroke="white" stroke-opacity="0.5"/>
<path d="M8.26683 21.8662C8.26683 19.7329 7.46683 18.9329 5.3335 18.9329" stroke="white" stroke-opacity="0.5"/>
</svg>
