<svg width="32" height="32" viewBox="0 0 32 32" fill="none" xmlns="http://www.w3.org/2000/svg">
<g clip-path="url(#clip0_28741_8780)">
<path d="M16 32C24.8366 32 32 24.8366 32 16C32 7.16344 24.8366 0 16 0C7.16344 0 0 7.16344 0 16C0 24.8366 7.16344 32 16 32Z" fill="#E8F7EF"/>
<path d="M13.0578 24.5329C13.426 24.5329 13.7244 23.7012 13.7244 22.6752C13.7244 21.6491 13.426 20.8174 13.0578 20.8174C12.6896 20.8174 12.3911 21.6491 12.3911 22.6752C12.3911 23.7012 12.6896 24.5329 13.0578 24.5329Z" fill="#FFC900"/>
<path d="M11.1819 10.587H20.1864C20.1864 10.0625 20.1864 9.25362 20.1864 8.10696C20.1864 5.58251 17.7419 6.48029 17.7419 6.48029C17.7419 6.48029 11.6175 7.81362 9.7775 8.35585C7.9375 8.89807 7.9375 11.2003 7.9375 11.2003V12.4358C8.60417 11.3336 9.80417 10.587 11.1819 10.587Z" fill="#62D819"/>
<path d="M21.2534 18.409C21.1823 17.6979 21.4401 17.0134 21.9556 16.5067C22.3912 16.0623 22.9867 15.8134 23.6267 15.8134H24.7645V15.0667C24.7645 12.9867 23.0756 11.2979 20.9956 11.2979H20.5067H11.5023C10.1245 11.2979 8.92451 12.0356 8.26673 13.1467C7.92895 13.7067 7.7334 14.3645 7.7334 15.0667V19.769C7.7334 21.849 9.42229 23.5379 11.5023 23.5379H20.9956C22.7912 23.5379 24.2934 22.2756 24.6756 20.5867H23.7423C22.4534 20.5867 21.3601 19.6356 21.2534 18.409ZM17.3601 15.7512H11.3867C11.0401 15.7512 10.7467 15.4579 10.7467 15.1112C10.7467 14.7645 11.0401 14.4712 11.3867 14.4712H17.3601C17.7067 14.4712 18.0001 14.7645 18.0001 15.1112C18.009 15.4579 17.7156 15.7512 17.3601 15.7512Z" fill="#62D819"/>
<path d="M24.9159 16.3467H24.4359H23.5736C23.0936 16.3467 22.6403 16.5333 22.3114 16.8711C21.9292 17.2533 21.7336 17.7689 21.787 18.3022C21.867 19.2267 22.6847 19.9467 23.6625 19.9467H24.3647H24.9336C25.5559 19.9289 26.0447 19.4222 26.0447 18.8089V17.4845C26.0447 16.8622 25.5559 16.3645 24.9159 16.3467Z" fill="#62D819"/>
<path d="M10.729 25.6708C12.3834 25.6708 13.7245 24.3296 13.7245 22.6752C13.7245 21.0208 12.3834 19.6797 10.729 19.6797C9.07455 19.6797 7.7334 21.0208 7.7334 22.6752C7.7334 24.3296 9.07455 25.6708 10.729 25.6708Z" fill="#E24D3D"/>
<path d="M15.3867 25.6708C17.0411 25.6708 18.3822 24.3296 18.3822 22.6752C18.3822 21.0208 17.0411 19.6797 15.3867 19.6797C13.7323 19.6797 12.3911 21.0208 12.3911 22.6752C12.3911 24.3296 13.7323 25.6708 15.3867 25.6708Z" fill="#FFC900"/>
</g>
<defs>
<clipPath id="clip0_28741_8780">
<rect width="32" height="32" fill="white"/>
</clipPath>
</defs>
</svg>
