<svg width="32" height="32" viewBox="0 0 32 32" fill="none" xmlns="http://www.w3.org/2000/svg">
<path d="M16 32C24.8366 32 32 24.8366 32 16C32 7.16344 24.8366 0 16 0C7.16344 0 0 7.16344 0 16C0 24.8366 7.16344 32 16 32Z" fill="#E8F7EF"/>
<path d="M16.0077 25.0665C15.0764 25.0665 14.1503 24.7945 13.4186 24.2656L9.73457 21.5607C8.76239 20.8404 8 19.3394 8 18.1507V11.8796C8 10.58 8.96706 9.19985 10.2104 8.74148L14.4829 7.16489C15.3323 6.85259 16.6677 6.85259 17.5171 7.16489L21.7896 8.74148C23.0329 9.19481 24 10.58 24 11.8796V18.1456C24 19.3444 23.2376 20.8354 22.2603 21.5507L18.5763 24.2556C17.865 24.7945 16.9389 25.0665 16.0077 25.0665Z" fill="#62D819"/>
<path d="M14.5903 18.9919C14.3908 18.9919 14.1912 18.9214 14.0326 18.7653L12.3441 17.1031C12.0422 16.8059 12.0422 16.3072 12.3441 16.01C12.646 15.7128 13.1525 15.7128 13.4544 16.01L14.5852 17.1232L18.5353 13.2346C18.8372 12.9374 19.3438 12.9374 19.6457 13.2346C19.9475 13.5318 19.9475 14.0305 19.6457 14.3276L15.1378 18.7653C14.9894 18.9214 14.7899 18.9919 14.5903 18.9919Z" fill="#E8F7EF"/>
</svg>
