<svg width="25" height="24" viewBox="0 0 25 24" fill="none"
    xmlns="http://www.w3.org/2000/svg">
    <g clip-path="url(#clip0_28741_9337)">
        <path d="M14.9164 9.5828C14.2629 8.92932 13.4764 8.48842 12.6431 8.25977L11.9316 8.97127C11.6493 9.25354 11.4475 9.58658 11.3261 9.94107C12.1499 9.95495 12.9695 10.2751 13.5968 10.9024C14.8795 12.185 14.8795 14.2719 13.5968 15.5546L9.98002 19.1717C8.69736 20.4544 6.61047 20.4544 5.32781 19.1717C4.04515 17.889 4.04515 15.8021 5.32781 14.5195L7.93981 11.9075C7.76603 11.0159 7.79852 10.0915 8.03758 9.21222C7.89502 9.32702 7.7572 9.45065 7.62474 9.5828L4.00793 13.1996C1.99768 15.2099 1.99768 18.481 4.00793 20.4916C6.01818 22.5018 9.28933 22.5018 11.2999 20.4916L14.9167 16.8748C16.927 14.8642 16.927 11.593 14.9164 9.5828Z" fill="#33CB33"/>
        <path d="M12.3571 15.7389L13.0686 15.0274C13.3509 14.7451 13.5528 14.412 13.6742 14.0576C12.8504 14.0437 12.0307 13.7236 11.4034 13.0963C10.1208 11.8136 10.1208 9.72672 11.4034 8.44406L15.0205 4.82725C16.3032 3.54459 18.3901 3.54459 19.6728 4.82725C20.9554 6.10991 20.9554 8.1968 19.6728 9.47946L17.0608 12.0915C17.2345 12.983 17.202 13.9074 16.963 14.7867C17.1055 14.6719 17.2434 14.5486 17.3758 14.4161L20.9926 10.7993C23.0029 8.78909 23.0029 5.51794 20.9926 3.50769C18.9824 1.49744 15.7112 1.49744 13.7007 3.50769L10.0839 7.12418C8.07361 9.13443 8.07361 12.4056 10.0839 14.4161C10.7373 15.0693 11.5239 15.5102 12.3571 15.7389Z" fill="#33CB33"/>
    </g>
    <defs>
        <clipPath id="clip0_28741_9337">
            <rect width="20" height="20" fill="white" transform="translate(2.5 2)"/>
        </clipPath>
    </defs>
</svg>
