<svg width="32" height="32" viewBox="0 0 32 32" fill="none" xmlns="http://www.w3.org/2000/svg">
<g clip-path="url(#clip0_28741_8774)">
<path d="M16 32C24.8366 32 32 24.8366 32 16C32 7.16344 24.8366 0 16 0C7.16344 0 0 7.16344 0 16C0 24.8366 7.16344 32 16 32Z" fill="#E4F5F9"/>
<path d="M19.7775 24.4193H12.2131C11.5553 24.4193 11.022 23.886 11.022 23.2282C11.022 22.5704 11.5553 22.0371 12.2131 22.0371H19.7775C20.4353 22.0371 20.9686 22.5704 20.9686 23.2282C20.9775 23.886 20.4353 24.4193 19.7775 24.4193Z" fill="#4748FC"/>
<path d="M15.9994 7.88574C15.5283 7.88574 15.1372 8.27685 15.1372 8.74796V19.0857C15.1372 19.5569 15.5283 19.948 15.9994 19.948C16.4705 19.948 16.8617 19.5569 16.8617 19.0857V8.74796C16.8617 8.27685 16.4705 7.88574 15.9994 7.88574Z" fill="#4748FC"/>
<path d="M16.4972 7.83341C16.1594 7.49563 15.6172 7.49563 15.2794 7.83341L11.2172 11.8956C10.8794 12.2334 10.8794 12.7756 11.2172 13.1134C11.555 13.4512 12.0972 13.4512 12.435 13.1134L16.4972 9.05119C16.835 8.71341 16.835 8.17119 16.4972 7.83341Z" fill="#4748FC"/>
<path d="M15.5019 7.83341C15.1641 8.17119 15.1641 8.71341 15.5019 9.05119L19.5641 13.1134C19.9019 13.4512 20.4441 13.4512 20.7819 13.1134C21.1196 12.7756 21.1196 12.2334 20.7819 11.8956L16.7196 7.83341C16.3819 7.49563 15.8308 7.49563 15.5019 7.83341Z" fill="#4748FC"/>
</g>
<defs>
<clipPath id="clip0_28741_8774">
<rect width="32" height="32" fill="white"/>
</clipPath>
</defs>
</svg>
