<svg width="41" height="41" viewBox="0 0 41 41" fill="none"
    xmlns="http://www.w3.org/2000/svg">
    <path fill-rule="evenodd" clip-rule="evenodd" d="M0.5 36.5848V28.6889C0.5 28.28 0.831724 27.9482 1.24069 27.9482H4.37931C5.73724 27.9482 7.01655 28.7682 7.4331 30.0613C8.12207 32.1958 6.48759 34.14 4.4469 34.14H3.15034C3.00621 34.14 2.88828 34.022 2.88828 33.8779V33.1241C2.88828 32.7151 3.22069 32.3834 3.62966 32.3834H4.49448C5.08 32.3834 5.64276 32.0303 5.80621 31.4676C6.07724 30.5317 5.37931 29.6758 4.48483 29.6758H2.22897L2.22828 29.6765V36.0779C2.22828 36.4869 1.89655 36.8186 1.48759 36.8186H0.733793C0.604828 36.8186 0.5 36.7138 0.5 36.5848ZM11.3368 32.1744C10.2043 32.1813 9.35193 33.4082 10.0271 34.5986C10.285 35.0531 10.8009 35.2986 11.323 35.2986H11.3519C12.0926 35.2986 12.7326 34.7717 12.8802 34.0441V33.4241C12.7333 32.6993 12.0933 32.1744 11.3519 32.1744H11.3368ZM11.3368 36.9924C9.04228 36.9813 7.38779 34.6669 8.39469 32.3055C8.88297 31.1607 10.074 30.4758 11.3188 30.4758H11.3519C11.965 30.4758 12.5768 30.7772 12.8802 30.9882V30.7496C12.8802 30.6848 12.9326 30.6324 12.9968 30.6324H14.3733C14.5016 30.6324 14.6057 30.7365 14.6057 30.8648V36.5869C14.6057 36.7151 14.5016 36.8193 14.3733 36.8193H12.9968C12.9326 36.8193 12.8802 36.7676 12.8802 36.7027V36.4793L12.836 36.5062C12.4618 36.7342 12.0326 36.9957 11.3368 36.9924ZM15.9308 38.9904C16.735 40.0062 18.1067 40.4538 19.4301 40.0021C20.7046 39.5669 21.5108 38.3035 21.5108 36.9566V30.8656C21.5108 30.738 21.4074 30.6345 21.2805 30.6345H20.5329C20.1281 30.6345 19.7991 30.9635 19.7991 31.3676V34.1111C19.7991 34.14 19.7977 34.1683 19.7957 34.1966C19.7577 34.7262 19.366 35.1621 18.8432 35.2566C18.7743 35.2697 18.7032 35.2759 18.635 35.2759C18.4805 35.2759 18.3288 35.2456 18.186 35.1856C17.7446 35.0014 17.4701 34.5545 17.4701 34.0766V30.8656C17.4701 30.738 17.3674 30.6345 17.2398 30.6345H16.4915C16.0867 30.6345 15.7591 30.9635 15.7591 31.3676V34.1111C15.7591 34.4021 15.8026 34.689 15.8874 34.9649C16.0681 35.5462 16.4391 36.0656 16.9322 36.429C17.035 36.5042 17.1432 36.5731 17.2536 36.6338C17.6743 36.8649 18.1515 36.9869 18.635 36.9869C18.9922 36.9869 19.3384 36.9228 19.6674 36.7959C19.6674 37.7173 19.3453 38.3352 18.3826 38.3352C18.1757 38.3352 17.9929 38.2828 17.8419 38.2097C17.4715 38.0297 17.0432 38.0159 16.6915 38.2311L15.9963 38.6573C15.8798 38.729 15.846 38.8821 15.9308 38.9904Z" fill="#000050"/>
    <path fill-rule="evenodd" clip-rule="evenodd" d="M39.6626 35.0896H34.8874V29.6765H39.6626C39.7909 29.6765 39.8964 29.5724 39.8964 29.4427V28.182C39.8964 28.0531 39.7909 27.9482 39.6626 27.9482H33.8709C33.4667 27.9482 33.1392 28.2765 33.1392 28.6807V36.5855C33.1392 36.7144 33.2433 36.8193 33.3723 36.8193H39.1633C39.5681 36.8193 39.8964 36.491 39.8964 36.0869V35.3234C39.8964 35.1944 39.7909 35.0896 39.6626 35.0896ZM39.332 31.5093H36.2485C35.8616 31.5093 35.5478 31.8231 35.5478 32.2093V33.0045C35.5478 33.1335 35.6534 33.2383 35.7816 33.2383H38.8341C39.2382 33.2383 39.5658 32.9107 39.5658 32.5066V31.7424C39.5658 31.6135 39.461 31.5093 39.332 31.5093Z" fill="#00BE00"/>
    <path fill-rule="evenodd" clip-rule="evenodd" d="M30.3406 27.916C30.264 27.916 30.1923 27.9533 30.1489 28.0167L27.8999 31.2629C27.7875 31.4243 27.5468 31.4229 27.4371 31.2588L25.2661 28.0195C25.2227 27.9553 25.1502 27.916 25.0716 27.916H23.5827C23.4358 27.916 23.3171 28.0346 23.3171 28.1815V36.5533C23.3171 36.7002 23.4358 36.8195 23.5827 36.8195H24.3309C24.7185 36.8195 25.0316 36.5057 25.0316 36.1188V30.9002L27.1875 33.8967C27.4206 34.2284 27.9123 34.2284 28.144 33.8967L30.3006 30.8995V36.5533C30.3006 36.7002 30.4192 36.8195 30.5661 36.8195H31.3144C31.702 36.8195 32.0151 36.5057 32.0151 36.1188V28.1815C32.0151 28.0346 31.8964 27.916 31.7496 27.916H30.3406Z" fill="#00BE00"/>
    <path fill-rule="evenodd" clip-rule="evenodd" d="M13.2221 0.342069C12.1339 1.09793 12.0352 2.60552 12.927 3.49724L18.7442 9.31379C19.547 10.1172 20.8497 10.1172 21.6525 9.31379C22.4559 8.51103 22.4559 7.20897 21.6525 6.40552L15.907 0.66069C15.4821 0.235862 14.9063 0 14.3345 0C13.9449 0 13.558 0.108966 13.2221 0.342069Z" fill="#00A500"/>
    <path fill-rule="evenodd" clip-rule="evenodd" d="M19.0393 14.885C17.9503 15.6409 17.8517 17.1478 18.7441 18.0402L24.4903 23.7857C25.2034 24.4988 26.3448 24.6788 27.1745 24.1037C28.2627 23.3478 28.3614 21.8402 27.4696 20.9485L21.7241 15.203C21.2993 14.7781 20.7234 14.543 20.1517 14.543C19.7627 14.543 19.3752 14.6519 19.0393 14.885Z" fill="#00A500"/>
    <path fill-rule="evenodd" clip-rule="evenodd" d="M27.1739 0.342187C26.3449 -0.232985 25.2035 -0.053675 24.489 0.660118L18.7435 6.40564C17.9408 7.20908 16.6387 7.20908 15.8359 6.40564L18.7546 9.32426C19.5518 10.1222 20.8442 10.1222 21.6421 9.32426L27.4697 3.49736C28.3615 2.60564 28.2628 1.09805 27.1739 0.342187Z" fill="#00BE00"/>
    <path fill-rule="evenodd" clip-rule="evenodd" d="M28.9241 4.95139L23.1778 10.6969C22.4641 11.4107 22.2841 12.5521 22.8606 13.381C23.6158 14.47 25.1234 14.5686 26.0144 13.6769L31.7613 7.9307C32.4744 7.21691 32.6544 6.07553 32.0778 5.24725C31.6627 4.64794 31.0206 4.34863 30.3778 4.34863C29.8516 4.34863 29.3254 4.54932 28.9241 4.95139Z" fill="#00A500"/>
    <path fill-rule="evenodd" clip-rule="evenodd" d="M26.0154 10.7686L31.7609 16.5148C32.474 17.2279 32.654 18.3693 32.0788 19.1983C31.3223 20.2872 29.8154 20.3859 28.9236 19.4941L23.0967 13.6672C22.2988 12.8693 22.2988 11.5762 23.0967 10.779L26.0154 7.86035C25.2119 8.6638 25.2119 9.96518 26.0154 10.7686Z" fill="#00BE00"/>
    <path fill-rule="evenodd" clip-rule="evenodd" d="M14.3814 10.7681L8.65934 16.4902C7.86486 17.2846 7.74072 18.5977 8.50003 19.426C9.29589 20.2964 10.6476 20.3184 11.4724 19.4936L17.1945 13.7715C17.989 12.9771 18.1124 11.6646 17.3538 10.835C16.9455 10.3888 16.3904 10.166 15.8352 10.166C15.309 10.166 14.7828 10.3667 14.3814 10.7681Z" fill="#00A500"/>
    <path fill-rule="evenodd" clip-rule="evenodd" d="M14.3816 13.6773L8.63536 7.93111C7.92225 7.21801 7.74225 6.07663 8.31812 5.24766C9.07398 4.1587 10.5809 4.06008 11.4726 4.9518L17.3002 10.7794C18.0981 11.5766 18.0981 12.8697 17.3002 13.667L14.3816 16.5856C15.1843 15.7828 15.1843 14.4808 14.3816 13.6773Z" fill="#00BE00"/>
    <path fill-rule="evenodd" clip-rule="evenodd" d="M24.5606 18.0395L21.6419 15.1209C20.844 14.323 19.5516 14.323 18.7544 15.1209L12.9978 20.8768C12.2847 21.5899 12.1047 22.7319 12.6799 23.5609C13.4364 24.6499 14.944 24.7485 15.8357 23.8568L21.6523 18.0395C22.455 17.2361 23.7578 17.2361 24.5606 18.0395Z" fill="#00BE00"/>
</svg>
