<svg width="28" height="28" viewBox="0 0 28 28" fill="none" xmlns="http://www.w3.org/2000/svg">
<rect width="28" height="28" rx="4" fill="#CCF2CC"/>
<path d="M22.9795 18.628C22.8565 17.9151 21.9856 17.418 21.1769 17.8352C19.6344 18.6315 18.0751 19.3946 16.5202 20.1665C16.4514 20.2006 16.3471 20.2135 16.2779 20.1873C15.2077 19.7829 14.1406 19.3706 13.0731 18.9596C13.0238 18.9405 12.9768 18.9169 12.9239 18.893C13.0456 18.5774 13.1605 18.2791 13.2795 17.9715C14.3035 18.3643 15.3169 18.7532 16.336 19.1442C16.3897 19.0199 16.4372 18.9143 16.4811 18.8078C16.834 17.9573 16.4851 17.1122 15.6289 16.765C14.5738 16.3376 13.5161 15.9159 12.4579 15.496C11.836 15.2492 11.1959 15.1911 10.535 15.3083C10.0183 15.3997 9.56869 15.6483 9.10618 15.872C9.00364 15.9217 8.97745 15.9803 8.97745 16.0877C8.98101 17.3612 8.98189 18.6342 8.97657 19.9077C8.97612 20.0328 9.0143 20.0892 9.1297 20.1354C10.4888 20.6805 11.8484 21.2247 13.2022 21.783C14.4016 22.278 15.6276 22.3969 16.8908 22.0929C17.4976 21.9468 18.052 21.6694 18.6046 21.3898C20.0694 20.6481 21.5355 19.9095 23.0012 19.17V18.6715C22.9937 18.6568 22.9817 18.6426 22.979 18.6271L22.9795 18.628Z" fill="url(#paint0_linear_23910_18592)"/>
<path d="M17.7823 8.76321C18.8441 8.80582 19.5751 9.82851 19.2564 10.8334C19.098 11.3328 18.7549 11.6653 18.2759 11.8583V13.5575C18.4433 13.5233 18.6008 13.4985 18.7544 13.459C20.5685 12.9924 21.8673 11.4216 21.9867 9.55375C22.1035 7.72321 21.0053 5.96458 19.3017 5.2788C19.003 5.15851 18.683 5.09193 18.3727 5.00049H18.2662V6.72139C18.9253 7.00636 19.2906 7.49107 19.3346 8.22967H18.2799C18.2631 8.16709 18.2528 8.12092 18.2382 8.07609C18.161 7.8404 17.9554 7.69125 17.7193 7.69791C17.4787 7.70457 17.2697 7.87901 17.2133 8.12004C17.1347 8.45516 17.3935 8.74767 17.7819 8.76321H17.7823Z" fill="url(#paint1_linear_23910_18592)"/>
<path d="M16.0947 13.2521C16.4449 13.4025 16.8093 13.5073 17.2035 13.5464V11.8694C16.4755 11.4917 16.0738 10.9111 16.1617 10.3651H17.1879C17.2066 10.4295 17.2194 10.4921 17.2425 10.5511C17.3379 10.7983 17.6118 10.9408 17.8599 10.8742C18.1209 10.8045 18.2936 10.5613 18.2652 10.3043C18.2346 10.0291 18.018 9.83956 17.7175 9.82625C16.9402 9.79162 16.3139 9.27495 16.1737 8.5541C16.0276 7.80351 16.3854 7.10308 17.0898 6.78082C17.183 6.73821 17.2061 6.68983 17.2052 6.59617C17.2012 6.06441 17.2035 5.53221 17.2035 5H17.0969C17.0636 5.0111 17.0312 5.02663 16.9975 5.0324C15.1781 5.35199 13.6649 6.92597 13.4922 8.93317C13.3369 10.7362 14.3471 12.501 16.0947 13.2521Z" fill="url(#paint2_linear_23910_18592)"/>
<path d="M10.0024 13.5419C10.247 13.5601 10.4951 13.5304 10.7419 13.5233C9.41918 12.3838 8.68101 10.9945 8.69122 9.26386C8.70099 7.54429 9.43826 6.15585 10.7588 5.05948C10.6651 5.03507 10.5977 5.01731 10.5302 5H9.89146C9.8524 5.0111 9.81423 5.02752 9.77472 5.03196C7.72979 5.27165 6.09722 7.04049 6.0262 9.09518C5.94497 11.4424 7.66232 13.3675 10.0024 13.5424V13.5419Z" fill="url(#paint3_linear_23910_18592)"/>
<path d="M13.729 13.5419C13.9736 13.5601 14.2217 13.5304 14.4685 13.5233C13.1457 12.3838 12.4076 10.9945 12.4178 9.26386C12.4276 7.54429 13.1648 6.15585 14.4854 5.05948C14.3917 5.03507 14.3242 5.01731 14.2568 5H13.618C13.579 5.0111 13.5408 5.02752 13.5013 5.03196C11.4564 5.27165 9.82378 7.04049 9.75277 9.09474C9.67154 11.4419 11.3889 13.367 13.729 13.5419Z" fill="url(#paint4_linear_23910_18592)"/>
<path d="M6 21.2173H7.97391V15.2578H6V21.2173Z" fill="url(#paint5_linear_23910_18592)"/>
<path d="M20.689 16.9701C20.3561 16.2373 19.4094 15.7371 18.6139 15.9448C18.076 16.0851 17.5708 16.3514 17.0195 16.5738C17.5069 17.1708 17.668 17.8011 17.6006 18.5153C18.6472 17.9919 19.6681 17.481 20.6886 16.9706L20.689 16.9701Z" fill="url(#paint6_linear_23910_18592)"/>
<defs>
<linearGradient id="paint0_linear_23910_18592" x1="8.56406" y1="21.9507" x2="14.395" y2="11.5123" gradientUnits="userSpaceOnUse">
<stop stop-color="#159415"/>
<stop offset="1" stop-color="#02D602"/>
</linearGradient>
<linearGradient id="paint1_linear_23910_18592" x1="17.0582" y1="13.181" x2="23.7577" y2="9.82164" gradientUnits="userSpaceOnUse">
<stop stop-color="#159415"/>
<stop offset="1" stop-color="#02D602"/>
</linearGradient>
<linearGradient id="paint2_linear_23910_18592" x1="13.3356" y1="13.1704" x2="20.0283" y2="9.81327" gradientUnits="userSpaceOnUse">
<stop stop-color="#159415"/>
<stop offset="1" stop-color="#02D602"/>
</linearGradient>
<linearGradient id="paint3_linear_23910_18592" x1="5.88416" y1="13.1717" x2="12.5298" y2="9.87789" gradientUnits="userSpaceOnUse">
<stop stop-color="#159415"/>
<stop offset="1" stop-color="#02D602"/>
</linearGradient>
<linearGradient id="paint4_linear_23910_18592" x1="9.61072" y1="13.1717" x2="16.2563" y2="9.87789" gradientUnits="userSpaceOnUse">
<stop stop-color="#159415"/>
<stop offset="1" stop-color="#02D602"/>
</linearGradient>
<linearGradient id="paint5_linear_23910_18592" x1="5.94194" y1="20.9551" x2="9.11408" y2="20.0151" gradientUnits="userSpaceOnUse">
<stop stop-color="#159415"/>
<stop offset="1" stop-color="#02D602"/>
</linearGradient>
<linearGradient id="paint6_linear_23910_18592" x1="16.9116" y1="18.4001" x2="19.405" y2="15.2732" gradientUnits="userSpaceOnUse">
<stop stop-color="#159415"/>
<stop offset="1" stop-color="#02D602"/>
</linearGradient>
</defs>
</svg>
