<svg width="28" height="28" viewBox="0 0 28 28" fill="none" xmlns="http://www.w3.org/2000/svg">
<rect width="28" height="28" rx="4" fill="#CCF2CC"/>
<path d="M14.5247 23.425H13.4703C13.2331 23.3968 12.995 23.3726 12.7582 23.3392C10.9842 23.0888 9.41535 22.3802 8.07266 21.1947C6.49144 19.7983 5.50213 18.0608 5.13819 15.977C5.07921 15.6391 5.04533 15.2967 5 14.9565C5 14.6049 5 14.2537 5 13.9021C5.01056 13.8457 5.02685 13.7903 5.03081 13.7335C5.08494 12.9229 5.25481 12.1356 5.53118 11.3733C7.10447 7.0394 11.6747 4.59739 16.1565 5.69231C20.78 6.822 23.7436 11.4468 22.837 16.1161C22.4893 17.9068 21.6778 19.4555 20.3954 20.7497C19.051 22.107 17.4354 22.9612 15.5483 23.2864C15.2095 23.3449 14.8662 23.3792 14.5247 23.425ZM14.005 21.6616C17.9829 21.651 21.2452 18.3812 21.2316 14.4178C21.2175 10.4324 17.9485 7.18331 13.9649 7.19651C10.0213 7.20928 6.76473 10.4742 6.76385 14.4147C6.76297 18.3997 10.0332 21.6721 14.005 21.6616Z" fill="url(#paint0_linear_23910_18585)"/>
<path d="M20.1398 14.8611C19.9646 17.8158 17.5472 20.3291 14.5314 20.5575C14.5314 20.3533 14.5331 20.1505 14.5314 19.9471C14.5283 19.6048 14.3153 19.3706 14.0068 19.3671C13.6926 19.3636 13.4743 19.6017 13.4716 19.9542C13.4699 20.1522 13.4716 20.3503 13.4716 20.5487C10.8479 20.411 8.12904 18.1868 7.86719 14.9284C8.07623 14.9284 8.28351 14.9368 8.48946 14.9262C8.69454 14.9157 8.83889 14.8008 8.92075 14.6142C9.00612 14.4193 8.97532 14.2353 8.84505 14.0707C8.73151 13.9272 8.57484 13.8718 8.39617 13.8709C8.22717 13.87 8.05818 13.8709 7.88831 13.8709C8.03222 11.0302 10.568 8.48651 13.3986 8.32104C13.3986 8.46098 13.3986 8.60049 13.3986 8.73956C13.3999 9.13167 13.5979 9.36755 13.9254 9.36931C14.2528 9.37107 14.4587 9.13123 14.4596 8.74572C14.4601 8.59477 14.4596 8.44382 14.4596 8.29199C17.5063 8.49575 19.8814 10.9879 20.12 13.8005C19.9039 13.8005 19.6891 13.7921 19.4752 13.8027C19.1799 13.8168 18.9542 14.0615 18.9612 14.3431C18.9683 14.6265 19.1839 14.8444 19.4796 14.8589C19.6372 14.8668 19.7956 14.862 19.9541 14.8624C20.0117 14.8624 20.0694 14.8624 20.1402 14.8624L20.1398 14.8611ZM13.9879 13.6936C13.9293 13.6218 13.8924 13.5677 13.847 13.5224C13.0153 12.6893 12.1853 11.8549 11.3469 11.0284C11.2483 10.9312 11.1106 10.8484 10.9773 10.8163C10.7502 10.7613 10.5266 10.8964 10.4276 11.1015C10.3202 11.3233 10.3677 11.5495 10.5728 11.755C11.574 12.7579 12.5761 13.76 13.5795 14.7608C13.8523 15.0332 14.1507 15.031 14.4262 14.7564C14.9864 14.1988 15.5444 13.6386 16.1033 13.0792C16.1324 13.0502 16.161 13.0207 16.1865 12.9886C16.3177 12.8231 16.3493 12.6396 16.2675 12.4451C16.1887 12.258 16.0404 12.1493 15.8388 12.1238C15.6426 12.0987 15.489 12.1858 15.3548 12.3218C14.9103 12.7703 14.4631 13.2165 13.9879 13.6936Z" fill="url(#paint1_linear_23910_18585)"/>
<defs>
<linearGradient id="paint0_linear_23910_18585" x1="7.05145" y1="21.9766" x2="20.9279" y2="7.03277" gradientUnits="userSpaceOnUse">
<stop stop-color="#159415"/>
<stop offset="1" stop-color="#02D602"/>
</linearGradient>
<linearGradient id="paint1_linear_23910_18585" x1="9.26594" y1="19.5702" x2="18.7249" y2="9.38116" gradientUnits="userSpaceOnUse">
<stop stop-color="#159415"/>
<stop offset="1" stop-color="#02D602"/>
</linearGradient>
</defs>
</svg>
