<svg width="28" height="28" viewBox="0 0 28 28" fill="none"
    xmlns="http://www.w3.org/2000/svg">
    <rect width="28" height="28" rx="4" fill="#CCF2CC"/>
    <path d="M9.12684 20.5467C8.45789 20.9834 7.8061 21.4063 7.1586 21.8335C6.9785 21.9523 6.78725 22.0257 6.55569 21.9897C6.26281 21.944 6.0497 21.7478 6.0081 21.4876C5.99867 21.4292 6.00081 21.3688 6.00081 21.3096C5.99995 16.9594 5.99953 12.6096 6.00081 8.25973C6.00081 7.17635 6.80312 6.29825 8.01322 6.05992C8.20918 6.02141 8.41587 6.00324 8.61741 6.00288C12.2057 5.99997 15.794 5.99888 19.3823 6.00143C20.8351 6.00252 21.9929 6.95946 21.995 8.18925C22.0036 12.5809 21.9984 16.9721 21.9989 21.3638C21.9989 21.6152 21.8964 21.8193 21.6198 21.936C21.3423 22.0529 21.0906 21.9981 20.8552 21.8426C20.2515 21.4444 19.6434 21.0506 19.0431 20.6484C18.9239 20.5685 18.8467 20.5623 18.7227 20.6466C18.1473 21.0368 17.5628 21.4172 16.9809 21.8008C16.58 22.0653 16.3236 22.0664 15.923 21.8041C15.3343 21.4186 14.7434 21.035 14.1606 20.6433C14.0453 20.5659 13.9737 20.5623 13.857 20.6404C13.2683 21.0353 12.6722 21.423 12.0775 21.8117C11.6933 22.0628 11.4351 22.0617 11.0548 21.8117C10.4167 21.3932 9.77906 20.9747 9.12641 20.5467H9.12684ZM16.3609 12.4762C16.3446 11.6897 15.752 10.9711 14.8652 10.6724C14.7468 10.6325 14.6774 10.5947 14.6568 10.4693C14.6117 10.1965 14.3236 10.0036 14.0084 10.0003C13.6855 9.99669 13.3901 10.1936 13.3403 10.4723C13.3202 10.5849 13.2661 10.6274 13.1499 10.6666C11.9343 11.0775 11.3365 12.1972 11.7752 13.2319C12.1135 14.0305 12.9634 14.5424 13.9973 14.5703C14.5706 14.5859 15.0063 14.9576 15.0135 15.4372C15.0208 15.9106 14.6117 16.2989 14.0753 16.3284C13.475 16.3614 13.0269 16.0047 12.984 15.4593C12.9565 15.108 12.6697 14.877 12.2747 14.8882C11.8948 14.8991 11.6341 15.1469 11.6367 15.4946C11.6435 16.3026 12.2374 17.0226 13.1624 17.3362C13.2601 17.3692 13.3185 17.3965 13.3356 17.5022C13.3832 17.7968 13.6688 17.9981 14.0011 17.9974C14.3334 17.9967 14.5993 17.7936 14.6731 17.5004C14.6868 17.4452 14.7447 17.3743 14.803 17.3536C15.9428 16.9503 16.5277 16.0726 16.3188 15.0659C16.1254 14.1325 15.1821 13.4684 13.9904 13.4274C13.4094 13.4074 12.981 13.0263 12.9844 12.5333C12.9878 12.0581 13.4239 11.6762 13.975 11.6661C14.5376 11.6559 14.9792 12.0148 15.0127 12.5108C15.0384 12.8875 15.324 13.1247 15.7331 13.1088C16.1173 13.0939 16.3677 12.841 16.3604 12.4759L16.3609 12.4762Z" fill="url(#paint0_linear_23910_18580)"/>
    <defs>
        <linearGradient id="paint0_linear_23910_18580" x1="6" y1="22" x2="20.1635" y2="7.42897" gradientUnits="userSpaceOnUse">
            <stop stop-color="#159415"/>
            <stop offset="1" stop-color="#02D602"/>
        </linearGradient>
    </defs>
</svg>
