<svg width="34" height="34" viewBox="0 0 34 34" fill="none" xmlns="http://www.w3.org/2000/svg">
<path d="M24.7333 33.7329H9.91667C5.53333 33.7329 2 30.1829 2 25.8162V18.4329C2 14.0496 5.55 10.5162 9.91667 10.5162H24.7333C29.1167 10.5162 32.65 14.0662 32.65 18.4329V25.8162C32.65 30.1829 29.1 33.7329 24.7333 33.7329Z" fill="#2EE5A8"/>
<path d="M26.8166 18.0825C23.6666 18.0825 20.8666 15.5491 20.5499 12.4158L19.4666 1.5658C19.4332 1.23247 19.5499 0.915804 19.7666 0.665804C19.9832 0.415804 20.2999 0.282471 20.6332 0.282471H25.3332C29.8832 0.282471 31.9999 2.18247 32.6499 6.8658L33.0832 11.1658C33.2666 12.9991 32.7166 14.7325 31.5166 16.0491C30.3332 17.3491 28.6499 18.0825 26.8166 18.0825Z" fill="#E24D3D"/>
<path d="M7.18335 18.0827C5.33335 18.0827 3.66668 17.3493 2.48335 16.0327C1.28335 14.716 0.733347 12.9827 0.916681 11.1493L1.33335 6.88266C1.98335 2.16599 4.10001 0.265991 8.66668 0.265991H13.3833C13.7167 0.265991 14.0167 0.399324 14.25 0.649324C14.4833 0.899324 14.5833 1.21599 14.55 1.54932L13.4667 12.3993C13.1333 15.5327 10.3333 18.0827 7.18335 18.0827Z" fill="#E24D3D"/>
<path d="M17.0335 18.0825C15.3335 18.0825 13.7835 17.4158 12.6835 16.1991C11.5835 14.9825 11.0668 13.3825 11.2501 11.6825L12.2835 1.33247C12.3501 0.749138 12.8335 0.282471 13.4501 0.282471H20.6835C21.2835 0.282471 21.7835 0.732472 21.8501 1.33247L22.8835 11.6825C23.0501 13.3825 22.5501 14.9825 21.4501 16.1991C20.2835 17.4158 18.7335 18.0825 17.0335 18.0825Z" fill="#FFC900"/>
<path d="M21.1834 31.6992H13.4334C12.8001 31.6992 12.2667 31.1659 12.2667 30.5326V26.6659C12.2667 23.4159 14.0501 21.6326 17.3001 21.6326C20.5501 21.6326 22.3334 23.4159 22.3334 26.6659V30.5326C22.3501 31.1826 21.8167 31.6992 21.1834 31.6992Z" fill="#E24D3D"/>
</svg>
