<svg width="52" height="52" viewBox="0 0 52 52" fill="none" xmlns="http://www.w3.org/2000/svg">
<g clip-path="url(#clip0_2327_38700)">
<path d="M26 52C40.3594 52 52 40.3594 52 26C52 11.6406 40.3594 0 26 0C11.6406 0 0 11.6406 0 26C0 40.3594 11.6406 52 26 52Z" fill="#E8F7EF"/>
<path d="M21.9843 39.1009C16.7554 39.1009 15.5565 37.9021 15.5565 32.6732V19.3121C15.5565 14.0832 16.7554 12.8843 21.9843 12.8843H30.001C35.2299 12.8843 36.4287 14.0832 36.4287 19.3121V32.6732C36.4287 37.9021 35.2299 39.1009 30.001 39.1009H21.9843Z" fill="#2EE5A8"/>
<path d="M30.0154 14.1551C34.4932 14.1551 35.1721 14.834 35.1721 19.3118V32.6729C35.1721 37.1507 34.4932 37.8295 30.0154 37.8295H21.9988C17.521 37.8295 16.8421 37.1507 16.8421 32.6729V19.3118C16.8421 14.834 17.521 14.1551 21.9988 14.1551H30.0154ZM30.0154 11.6273H21.9988C16.1054 11.6273 14.3143 13.4184 14.3143 19.3118V32.6729C14.3143 38.5662 16.1054 40.3573 21.9988 40.3573H30.0154C35.9088 40.3573 37.6999 38.5662 37.6999 32.6729V19.3118C37.6999 13.4184 35.9088 11.6273 30.0154 11.6273Z" fill="#2EE5A8"/>
<path d="M25.9998 36.5004C24.9165 36.5004 24.0354 35.6193 24.0354 34.536C24.0354 33.4526 24.9165 32.5715 25.9998 32.5715C27.0832 32.5715 27.9643 33.4526 27.9643 34.536C27.9643 35.6193 27.0832 36.5004 25.9998 36.5004Z" fill="#CAFFE3"/>
<path d="M28.2821 19.2684C26.751 19.2684 25.5088 20.5107 25.5088 22.0418C25.5088 23.5729 26.751 24.8151 28.2821 24.8151C29.8132 24.8151 31.0555 23.5729 31.0555 22.0418C31.0555 20.5107 29.8277 19.2684 28.2821 19.2684ZM28.2821 23.8473C27.2999 23.8473 26.491 23.0529 26.491 22.0562C26.491 21.074 27.2855 20.2651 28.2821 20.2651C29.2643 20.2651 30.0732 21.0595 30.0732 22.0562C30.0732 23.0384 29.2788 23.8473 28.2821 23.8473Z" fill="#CAFFE3"/>
<path d="M31.1712 24.8296C30.839 24.8296 30.579 24.5696 30.579 24.2373V15.9029C30.579 15.5707 30.839 15.3107 31.1712 15.3107C31.5034 15.3107 31.7634 15.5707 31.7634 15.9029V24.2373C31.7634 24.5696 31.489 24.8296 31.1712 24.8296Z" fill="#CAFFE3"/>
<path d="M32.5576 18.1852H29.7842C29.452 18.1852 29.192 17.9252 29.192 17.593C29.192 17.2607 29.452 17.0007 29.7842 17.0007H32.5576C32.8898 17.0007 33.1498 17.2607 33.1498 17.593C33.1498 17.9107 32.8898 18.1852 32.5576 18.1852Z" fill="#CAFFE3"/>
<path d="M32.4997 27.516H26.1442C25.7108 27.516 25.3497 27.1549 25.3497 26.7216C25.3497 26.2882 25.7108 25.9271 26.1442 25.9271H32.4997C32.9331 25.9271 33.2942 26.2882 33.2942 26.7216C33.2942 27.1549 32.9475 27.516 32.4997 27.516Z" fill="#CAFFE3"/>
</g>
<defs>
<clipPath id="clip0_2327_38700">
<rect width="52" height="52" fill="white"/>
</clipPath>
</defs>
</svg>
