<svg width="52" height="52" viewBox="0 0 52 52" fill="none" xmlns="http://www.w3.org/2000/svg">
<g clip-path="url(#clip0_2327_38709)">
<path d="M26 52C40.3594 52 52 40.3594 52 26C52 11.6406 40.3594 0 26 0C11.6406 0 0 11.6406 0 26C0 40.3594 11.6406 52 26 52Z" fill="#F2EDF9"/>
<path d="M35.8512 26.5191L21.5801 32.2102C19.4134 33.0769 16.9434 32.0224 16.0912 29.8413L13.3468 22.9513C12.4801 20.7847 13.5345 18.3147 15.7156 17.4624L29.9868 11.7713C32.1534 10.9047 34.6234 11.9591 35.4756 14.1402L38.2201 21.0302C39.0723 23.1969 38.0179 25.6524 35.8512 26.5191Z" fill="#6138E0"/>
<path d="M35.88 40.5304H16.12C13.5922 40.5304 11.5555 38.4792 11.5555 35.9515V25.8259C11.5555 23.2981 13.6067 21.2615 16.12 21.2615H35.88C38.4078 21.2615 40.4444 23.3126 40.4444 25.8259V35.9515C40.4444 38.4792 38.4078 40.5304 35.88 40.5304Z" fill="#FFC900"/>
<path d="M18.099 31.3015H15.8312C14.9068 31.3015 14.1556 30.5504 14.1556 29.6259V27.3582C14.1556 26.4337 14.9068 25.6826 15.8312 25.6826H18.099C19.0234 25.6826 19.7745 26.4337 19.7745 27.3582V29.6259C19.7745 30.5504 19.0234 31.3015 18.099 31.3015Z" fill="#6138E0"/>
<path d="M17.7668 37.3242H15.3545C14.6901 37.3242 14.1556 36.7897 14.1556 36.1253C14.1556 35.4608 14.6901 34.9264 15.3545 34.9264H17.7668C18.4312 34.9264 18.9656 35.4608 18.9656 36.1253C18.9801 36.7753 18.4312 37.3242 17.7668 37.3242Z" fill="#6138E0"/>
<path d="M24.0644 37.324H21.6521C20.9877 37.324 20.4532 36.7896 20.4532 36.1252C20.4532 35.4607 20.9877 34.9263 21.6521 34.9263H24.0644C24.7288 34.9263 25.2632 35.4607 25.2632 36.1252C25.2632 36.7752 24.7288 37.324 24.0644 37.324Z" fill="#6138E0"/>
<path d="M30.3478 37.324H27.9356C27.2711 37.324 26.7367 36.7896 26.7367 36.1252C26.7367 35.4607 27.2711 34.9263 27.9356 34.9263H30.3478C31.0123 34.9263 31.5467 35.4607 31.5467 36.1252C31.5467 36.7752 31.0123 37.324 30.3478 37.324Z" fill="#6138E0"/>
<path d="M36.631 37.324H34.2332C33.5687 37.324 33.0343 36.7896 33.0343 36.1252C33.0343 35.4607 33.5687 34.9263 34.2332 34.9263H36.6454C37.3099 34.9263 37.8443 35.4607 37.8443 36.1252C37.8443 36.7752 37.2954 37.324 36.631 37.324Z" fill="#6138E0"/>
</g>
<defs>
<clipPath id="clip0_2327_38709">
<rect width="52" height="52" fill="white"/>
</clipPath>
</defs>
</svg>
