<svg width="52" height="52" viewBox="0 0 52 52" fill="none" xmlns="http://www.w3.org/2000/svg">
<path fill-rule="evenodd" clip-rule="evenodd" d="M26 13.2749C31.8789 13.2749 37.3967 15.586 41.5567 19.7893C42.2789 20.526 42.2789 21.7105 41.5567 22.4471C40.8345 23.1838 39.6645 23.1838 38.9422 22.4471C35.49 18.9516 30.8967 17.0305 26.0145 17.0305C21.1322 17.0305 16.5389 18.9516 13.0867 22.4471C12.7256 22.8082 12.2489 22.996 11.7722 22.996C11.2956 22.996 10.8189 22.8082 10.4578 22.4471C9.73558 21.7105 9.73558 20.526 10.4578 19.7893C14.6034 15.586 20.1211 13.2749 26 13.2749ZM26 19.4716C21.7534 19.4716 17.7667 21.1471 14.7767 24.1805C14.0545 24.9171 14.0545 26.1016 14.7767 26.8382C15.4989 27.5749 16.6689 27.5749 17.3911 26.8382C19.6878 24.5127 22.75 23.2271 26 23.2271C29.25 23.2271 32.2978 24.5127 34.6089 26.8382C34.97 27.1993 35.4467 27.3871 35.9234 27.3871C36.4 27.3871 36.8767 27.1993 37.2378 26.8382C37.96 26.1016 37.96 24.9171 37.2378 24.1805C34.2189 21.1327 30.2467 19.4716 26 19.4716ZM19.0956 28.5282C20.9445 26.6649 23.4 25.6393 26 25.6393C28.6145 25.6393 31.07 26.6649 32.9045 28.5282C33.6267 29.2649 33.6267 30.4493 32.9045 31.186C32.5434 31.5471 32.0667 31.7349 31.59 31.7349C31.1134 31.7349 30.6367 31.5471 30.2756 31.186C29.1345 30.0305 27.6034 29.3949 25.9856 29.3949C24.3678 29.3949 22.8367 30.0305 21.6956 31.186C20.9734 31.9227 19.8034 31.9227 19.0811 31.186C18.3734 30.4493 18.3734 29.2649 19.0956 28.5282Z" fill="#45E4FF"/>
<path fill-rule="evenodd" clip-rule="evenodd" d="M23.7613 37.7866C22.519 36.53 22.519 34.5078 23.7613 33.2511C25.0035 31.9944 26.9968 31.9944 28.239 33.2511C29.4813 34.5078 29.4813 36.53 28.239 37.7866C26.9968 39.0433 25.0035 39.0433 23.7613 37.7866Z" fill="#2EE5A8"/>
</svg>
