<svg width="52" height="52" viewBox="0 0 52 52" fill="none" xmlns="http://www.w3.org/2000/svg">
<path d="M26.0002 40.4151C24.9457 40.4151 23.9346 39.8662 23.2413 38.9273L21.8691 37.1362C21.5946 36.7607 21.2191 36.544 20.8146 36.5151C20.4246 36.4862 20.0057 36.674 19.6735 37.0062C18.518 38.234 17.3913 38.8262 16.3369 38.7973C15.6146 38.7684 14.9791 38.4507 14.5024 37.8584C14.4446 37.7862 14.4013 37.6995 14.358 37.5984C13.838 36.4718 13.5924 34.9407 13.5924 32.644V19.3551C13.5924 17.0584 13.838 15.5418 14.358 14.4007C14.4013 14.314 14.4446 14.2418 14.5024 14.1695C14.9646 13.5629 15.6002 13.2451 16.3224 13.2018C17.3913 13.1584 18.5324 13.7795 19.6591 14.9784C19.9913 15.3395 20.3957 15.5129 20.8002 15.484C21.2046 15.4551 21.5802 15.2384 21.8546 14.8629L23.2269 13.0573C23.9346 12.1329 24.9313 11.584 26.0002 11.584C27.0546 11.584 28.0657 12.1329 28.7591 13.0718L30.1169 14.8629C30.3913 15.2529 30.7813 15.4695 31.2002 15.4984C31.5902 15.5273 32.0091 15.3395 32.3413 14.9929C33.4391 13.8084 34.5224 13.2162 35.5769 13.2162C36.328 13.2162 37.0213 13.5484 37.5124 14.184C37.5702 14.2562 37.6135 14.3284 37.6569 14.4295C38.1769 15.5562 38.4224 17.0873 38.4224 19.384V32.6873C38.4224 34.984 38.1769 36.5007 37.6569 37.6418C37.5991 37.7573 37.5413 37.8729 37.4402 37.9595C37.0213 38.494 36.3424 38.8262 35.5769 38.8262C34.5369 38.8262 33.4391 38.2195 32.3413 37.0495C32.0235 36.7029 31.5757 36.5151 31.2002 36.544C30.7813 36.5729 30.4057 36.7895 30.1169 37.1795L28.7591 38.9707C28.0657 39.8662 27.0691 40.4151 26.0002 40.4151Z" fill="#FF496E"/>
<path fill-rule="evenodd" clip-rule="evenodd" d="M23.7326 20.0629C22.3748 18.5607 21.537 19.4418 20.9881 20.034L20.2803 20.8285C19.0526 22.1862 20.4103 25.7829 23.4292 28.9607C26.4481 32.1385 29.8714 33.6407 31.157 32.2829L31.5326 31.8351C32.9192 30.3618 32.3703 29.1773 31.2581 27.9929L30.5792 27.2562C30.2903 26.9385 29.857 26.8085 29.4526 26.9096C29.0481 27.0107 28.7159 27.314 28.5859 27.7329C28.3692 28.3396 27.7626 28.6862 27.1703 28.5418C25.8848 28.2096 24.1514 26.4329 23.8192 25.0174C23.6603 24.3818 23.9926 23.7174 24.5848 23.5296C24.9748 23.3851 25.2781 23.0385 25.3648 22.6196C25.4514 22.1862 25.3359 21.7385 25.0326 21.4351L23.7326 20.0629Z" fill="#2EE5A8"/>
</svg>
