<svg width="52" height="52" viewBox="0 0 52 52" fill="none" xmlns="http://www.w3.org/2000/svg">
<path fill-rule="evenodd" clip-rule="evenodd" d="M34.9841 17.9415H27.8486L31.3875 14.417C31.7197 14.0848 31.7197 13.5648 31.3875 13.2326C31.0553 12.9003 30.5208 12.9003 30.203 13.2326L26.303 17.1037L22.403 13.2326C22.0708 12.9003 21.5364 12.9003 21.2186 13.2326C20.8864 13.5648 20.8864 14.0848 21.2186 14.417L24.7575 17.9415H17.6219C15.513 17.9415 13.8086 19.6459 13.8086 21.7259V35.7948C13.8086 37.8892 15.513 39.5792 17.6219 39.5792H34.9697C37.0786 39.5792 38.783 37.8748 38.783 35.7948V21.7259C38.7975 19.6459 37.093 17.9415 34.9841 17.9415Z" fill="#FF8700"/>
<path fill-rule="evenodd" clip-rule="evenodd" d="M35.4033 26.391H31.1277C30.6511 26.391 30.2755 26.0154 30.2755 25.5387C30.2755 25.0765 30.6511 24.6865 31.1277 24.6865H35.4033C35.88 24.6865 36.2555 25.0621 36.2555 25.5387C36.2555 26.001 35.8655 26.391 35.4033 26.391Z" fill="#FFC900"/>
<path fill-rule="evenodd" clip-rule="evenodd" d="M33.3377 33.2385C31.8066 33.2385 30.5643 32.0107 30.5643 30.4796C30.5643 28.9629 31.8066 27.7207 33.3377 27.7207C34.8688 27.7207 36.111 28.9485 36.111 30.4796C36.111 32.0107 34.8688 33.2385 33.3377 33.2385Z" fill="#FFC900"/>
<path d="M11.9309 23.5742H24.6565C26.1876 23.5742 27.4442 24.8164 27.4442 26.362V31.9376C27.4442 33.4687 26.202 34.7253 24.6565 34.7253H11.9309C10.8187 34.7253 9.90869 33.8153 9.90869 32.7031V25.6109C9.90869 24.4842 10.8187 23.5742 11.9309 23.5742Z" fill="#FFC900"/>
</svg>
